<svg width="22" height="22" viewBox="0 0 22 22" fill="none" xmlns="http://www.w3.org/2000/svg">
<path d="M9.43401 7.53227V9.02698H8.33984V10.8539H9.43401V16.2845H11.6831V10.8539H13.192C13.192 10.8539 13.3342 9.97787 13.4025 9.01938H11.6918V7.77108C11.6918 7.58329 11.9371 7.33254 12.1803 7.33254H13.4047V5.42969H11.7385C9.37865 5.42969 9.43401 7.25873 9.43401 7.53227Z" fill="black"/>
<path d="M4.34194 2.17097C3.76616 2.17097 3.21397 2.39969 2.80683 2.80683C2.39969 3.21397 2.17097 3.76616 2.17097 4.34194V17.3677C2.17097 17.9435 2.39969 18.4957 2.80683 18.9029C3.21397 19.31 3.76616 19.5387 4.34194 19.5387H17.3677C17.9435 19.5387 18.4957 19.31 18.9029 18.9029C19.31 18.4957 19.5387 17.9435 19.5387 17.3677V4.34194C19.5387 3.76616 19.31 3.21397 18.9029 2.80683C18.4957 2.39969 17.9435 2.17097 17.3677 2.17097H4.34194ZM4.34194 0H17.3677C18.5193 0 19.6237 0.457453 20.438 1.27172C21.2522 2.08599 21.7097 3.19038 21.7097 4.34194V17.3677C21.7097 18.5193 21.2522 19.6237 20.438 20.438C19.6237 21.2522 18.5193 21.7097 17.3677 21.7097H4.34194C3.19038 21.7097 2.08599 21.2522 1.27172 20.438C0.457453 19.6237 0 18.5193 0 17.3677V4.34194C0 3.19038 0.457453 2.08599 1.27172 1.27172C2.08599 0.457453 3.19038 0 4.34194 0Z" fill="black"/>
</svg>
