<svg width="22" height="22" viewBox="0 0 22 22" fill="none" xmlns="http://www.w3.org/2000/svg">
<path d="M18.0917 0C19.0513 0 19.9716 0.381216 20.6502 1.05979C21.3288 1.73835 21.71 2.65869 21.71 3.61833V18.0917C21.71 19.0513 21.3288 19.9716 20.6502 20.6502C19.9716 21.3288 19.0513 21.71 18.0917 21.71H3.61833C2.65869 21.71 1.73835 21.3288 1.05979 20.6502C0.381216 19.9716 0 19.0513 0 18.0917V3.61833C0 2.65869 0.381216 1.73835 1.05979 1.05979C1.73835 0.381216 2.65869 0 3.61833 0H18.0917ZM18.0917 2.41222H3.61833C3.29845 2.41222 2.99167 2.53929 2.76548 2.76548C2.53929 2.99167 2.41222 3.29845 2.41222 3.61833V18.0917C2.41222 18.4115 2.53929 18.7183 2.76548 18.9445C2.99167 19.1707 3.29845 19.2978 3.61833 19.2978H18.0917C18.4115 19.2978 18.7183 19.1707 18.9445 18.9445C19.1707 18.7183 19.2978 18.4115 19.2978 18.0917V3.61833C19.2978 3.29845 19.1707 2.99167 18.9445 2.76548C18.7183 2.53929 18.4115 2.41222 18.0917 2.41222ZM6.03056 8.44278C6.32597 8.44282 6.6111 8.55127 6.83186 8.74758C7.05262 8.94388 7.19366 9.21439 7.22822 9.50777L7.23667 9.64889V15.6794C7.23633 15.9869 7.11861 16.2825 6.90758 16.5061C6.69655 16.7296 6.40812 16.8641 6.10124 16.8821C5.79435 16.9002 5.49217 16.8003 5.25643 16.603C5.0207 16.4057 4.8692 16.1258 4.83289 15.8206L4.82444 15.6794V9.64889C4.82444 9.32901 4.95152 9.02223 5.17771 8.79604C5.4039 8.56985 5.71067 8.44278 6.03056 8.44278ZM9.64889 7.23667C9.93135 7.23662 10.2049 7.33572 10.4218 7.51668C10.6386 7.69764 10.7851 7.94898 10.8357 8.22688C11.0786 8.08659 11.3295 7.96054 11.5871 7.84937C12.3916 7.50563 13.5965 7.31627 14.6844 7.6576C15.2549 7.83852 15.8278 8.17623 16.2523 8.75154C16.6323 9.26414 16.8373 9.8877 16.8783 10.5884L16.8856 10.855V15.6794C16.8852 15.9869 16.7675 16.2825 16.5565 16.5061C16.3454 16.7296 16.057 16.8641 15.7501 16.8821C15.4432 16.9002 15.1411 16.8003 14.9053 16.603C14.6696 16.4057 14.5181 16.1258 14.4818 15.8206L14.4733 15.6794V10.855C14.4733 10.457 14.3768 10.2712 14.3141 10.1856C14.224 10.0738 14.1 9.99418 13.9607 9.95886C13.541 9.82619 12.9367 9.89614 12.5351 10.0674C11.9321 10.3255 11.3797 10.7308 11.0034 11.1059L10.855 11.2651V15.6794C10.8547 15.9869 10.7369 16.2825 10.5259 16.5061C10.3149 16.7296 10.0265 16.8641 9.71957 16.8821C9.41269 16.9002 9.11051 16.8003 8.87477 16.603C8.63903 16.4057 8.48753 16.1258 8.45122 15.8206L8.44278 15.6794V8.44278C8.44278 8.1229 8.56985 7.81612 8.79604 7.58993C9.02223 7.36374 9.32901 7.23667 9.64889 7.23667ZM6.03056 4.82444C6.35044 4.82444 6.65721 4.95152 6.8834 5.17771C7.10959 5.4039 7.23667 5.71067 7.23667 6.03056C7.23667 6.35044 7.10959 6.65721 6.8834 6.8834C6.65721 7.10959 6.35044 7.23667 6.03056 7.23667C5.71067 7.23667 5.4039 7.10959 5.17771 6.8834C4.95152 6.65721 4.82444 6.35044 4.82444 6.03056C4.82444 5.71067 4.95152 5.4039 5.17771 5.17771C5.4039 4.95152 5.71067 4.82444 6.03056 4.82444Z" fill="black"/>
</svg>
