<svg width="22" height="22" viewBox="0 0 22 22" fill="none" xmlns="http://www.w3.org/2000/svg">
<mask id="path-1-inside-1_2091_486" fill="white">
<path d="M11.9377 10.0811L16.2774 5H15.2489L11.4817 9.41171L8.47143 5H5L9.55143 11.672L5 17H6.02857L10.0074 12.3406L13.1866 17H16.658L11.9377 10.0811ZM10.5294 11.7303L10.0683 11.066L6.39886 5.78H7.97857L10.9391 10.046L11.4003 10.7103L15.2497 16.256H13.67L10.5294 11.7303Z"/>
</mask>
<path d="M11.9377 10.0811L16.2774 5H15.2489L11.4817 9.41171L8.47143 5H5L9.55143 11.672L5 17H6.02857L10.0074 12.3406L13.1866 17H16.658L11.9377 10.0811ZM10.5294 11.7303L10.0683 11.066L6.39886 5.78H7.97857L10.9391 10.046L11.4003 10.7103L15.2497 16.256H13.67L10.5294 11.7303Z" fill="black"/>
<path d="M11.9377 10.0811L8.89609 7.48335L6.90981 9.80898L8.63345 12.3354L11.9377 10.0811ZM16.2774 5L19.3191 7.5978L24.9541 1H16.2774V5ZM15.2489 5V1H13.4046L12.207 2.40253L15.2489 5ZM11.4817 9.41171L8.17761 11.6662L11.1263 15.9877L14.5236 12.0092L11.4817 9.41171ZM8.47143 5L11.7755 2.74548L10.5845 1H8.47143V5ZM5 5V1H-2.57075L1.69563 7.25414L5 5ZM9.55143 11.672L12.5928 14.2701L14.5794 11.9445L12.8558 9.41786L9.55143 11.672ZM5 17L1.95863 14.4019L-3.67777 21H5V17ZM6.02857 17V21H7.8728L9.07041 19.5975L6.02857 17ZM10.0074 12.3406L13.3116 10.0861L10.363 5.76455L6.96559 9.74303L10.0074 12.3406ZM13.1866 17L9.88241 19.2544L11.0734 21H13.1866V17ZM16.658 17V21H24.2292L19.9623 14.7457L16.658 17ZM10.5294 11.7303L13.8157 9.44982L13.8153 9.44926L10.5294 11.7303ZM10.0683 11.066L6.7824 13.347L6.78242 13.347L10.0683 11.066ZM6.39886 5.78V1.78H-1.24716L3.11297 8.06099L6.39886 5.78ZM7.97857 5.78L11.2647 3.49942L10.0715 1.78H7.97857V5.78ZM10.9391 10.046L7.65297 12.3266L7.65328 12.327L10.9391 10.046ZM11.4003 10.7103L14.6863 8.42941L14.6862 8.42926L11.4003 10.7103ZM15.2497 16.256V20.256H22.8954L18.5357 13.9751L15.2497 16.256ZM13.67 16.256L10.3837 18.5365L11.577 20.256H13.67V16.256ZM14.9793 12.6789L19.3191 7.5978L13.2358 2.4022L8.89609 7.48335L14.9793 12.6789ZM16.2774 1H15.2489V9H16.2774V1ZM12.207 2.40253L8.43981 6.81425L14.5236 12.0092L18.2908 7.59747L12.207 2.40253ZM14.7858 7.15719L11.7755 2.74548L5.16732 7.25452L8.17761 11.6662L14.7858 7.15719ZM8.47143 1H5V9H8.47143V1ZM1.69563 7.25414L6.24706 13.9261L12.8558 9.41786L8.30437 2.74586L1.69563 7.25414ZM6.51006 9.07392L1.95863 14.4019L8.04137 19.5981L12.5928 14.2701L6.51006 9.07392ZM5 21H6.02857V13H5V21ZM9.07041 19.5975L13.0493 14.9381L6.96559 9.74303L2.98673 14.4025L9.07041 19.5975ZM6.70327 14.595L9.88241 19.2544L16.4907 14.7456L13.3116 10.0861L6.70327 14.595ZM13.1866 21H16.658V13H13.1866V21ZM19.9623 14.7457L15.242 7.82686L8.63345 12.3354L13.3537 19.2543L19.9623 14.7457ZM13.8153 9.44926L13.3542 8.78497L6.78242 13.347L7.24356 14.0113L13.8153 9.44926ZM13.3542 8.78501L9.68475 3.49901L3.11297 8.06099L6.7824 13.347L13.3542 8.78501ZM6.39886 9.78H7.97857V1.78H6.39886V9.78ZM4.6924 8.06058L7.65297 12.3266L14.2253 7.76542L11.2647 3.49942L4.6924 8.06058ZM7.65328 12.327L8.11442 12.9913L14.6862 8.42926L14.225 7.76497L7.65328 12.327ZM8.11432 12.9912L11.9637 18.5369L18.5357 13.9751L14.6863 8.42941L8.11432 12.9912ZM15.2497 12.256H13.67V20.256H15.2497V12.256ZM16.9563 13.9755L13.8157 9.44982L7.24317 14.0107L10.3837 18.5365L16.9563 13.9755Z" fill="black" mask="url(#path-1-inside-1_2091_486)"/>
<path d="M18.0917 0C19.0513 0 19.9716 0.381216 20.6502 1.05979C21.3288 1.73835 21.71 2.65869 21.71 3.61833V18.0917C21.71 19.0513 21.3288 19.9716 20.6502 20.6502C19.9716 21.3288 19.0513 21.71 18.0917 21.71H3.61833C2.65869 21.71 1.73835 21.3288 1.05979 20.6502C0.381216 19.9716 0 19.0513 0 18.0917V3.61833C0 2.65869 0.381216 1.73835 1.05979 1.05979C1.73835 0.381216 2.65869 0 3.61833 0H18.0917ZM18.0917 2.41222H3.61833C3.29845 2.41222 2.99167 2.53929 2.76548 2.76548C2.53929 2.99167 2.41222 3.29845 2.41222 3.61833V18.0917C2.41222 18.4115 2.53929 18.7183 2.76548 18.9445C2.99167 19.1707 3.29845 19.2978 3.61833 19.2978H18.0917C18.4115 19.2978 18.7183 19.1707 18.9445 18.9445C19.1707 18.7183 19.2978 18.4115 19.2978 18.0917V3.61833C19.2978 3.29845 19.1707 2.99167 18.9445 2.76548C18.7183 2.53929 18.4115 2.41222 18.0917 2.41222Z" fill="black"/>
</svg>
