<svg width="33" height="32" viewBox="0 0 33 32" fill="none" xmlns="http://www.w3.org/2000/svg">
<path d="M11.8753 4C11.0785 4 10.3143 4.31607 9.75092 4.87868C9.18751 5.44129 8.87098 6.20435 8.87098 7V12C7.80859 12 6.78971 12.4214 6.03849 13.1716C5.28727 13.9217 4.86523 14.9391 4.86523 16V25C4.86523 25.7956 5.18176 26.5587 5.74518 27.1213C6.30859 27.6839 7.07275 28 7.86954 28H19.8868C19.4418 27.4082 19.134 26.7251 18.9855 26H7.86954C7.60395 26 7.34923 25.8946 7.16142 25.7071C6.97362 25.5196 6.86811 25.2652 6.86811 25V16C6.86811 15.4696 7.07912 14.9609 7.45474 14.5858C7.83035 14.2107 8.33979 14 8.87098 14H18.9855C19.1357 13.26 19.4482 12.58 19.8868 12H10.8739V7C10.8739 6.73478 10.9794 6.48043 11.1672 6.29289C11.355 6.10536 11.6097 6 11.8753 6H21.8897C22.1553 6 22.41 6.10536 22.5978 6.29289C22.7856 6.48043 22.8911 6.73478 22.8911 7V10.1C23.2156 10.0333 23.5494 10 23.8925 10H24.894V7C24.894 6.20435 24.5774 5.44129 24.014 4.87868C23.4506 4.31607 22.6865 4 21.8897 4H11.8753ZM23.8925 12C23.0957 12 22.3316 12.3161 21.7682 12.8787C21.2047 13.4413 20.8882 14.2044 20.8882 15V25C20.8882 25.7956 21.2047 26.5587 21.7682 27.1213C22.3316 27.6839 23.0957 28 23.8925 28H25.8954C26.6922 28 27.4564 27.6839 28.0198 27.1213C28.5832 26.5587 28.8997 25.7956 28.8997 25V15C28.8997 14.2044 28.5832 13.4413 28.0198 12.8787C27.4564 12.3161 26.6922 12 25.8954 12H23.8925ZM22.8911 15C22.8911 14.7348 22.9966 14.4804 23.1844 14.2929C23.3722 14.1054 23.6269 14 23.8925 14H25.8954C26.161 14 26.4157 14.1054 26.6035 14.2929C26.7913 14.4804 26.8968 14.7348 26.8968 15V25C26.8968 25.2652 26.7913 25.5196 26.6035 25.7071C26.4157 25.8946 26.161 26 25.8954 26H23.8925C23.6269 26 23.3722 25.8946 23.1844 25.7071C22.9966 25.5196 22.8911 25.2652 22.8911 25V15ZM10.8739 17C10.8739 17.2652 10.7683 17.5196 10.5805 17.7071C10.3927 17.8946 10.138 18 9.87242 18C9.60682 18 9.3521 17.8946 9.1643 17.7071C8.97649 17.5196 8.87098 17.2652 8.87098 17C8.87098 16.7348 8.97649 16.4804 9.1643 16.2929C9.3521 16.1054 9.60682 16 9.87242 16C10.138 16 10.3927 16.1054 10.5805 16.2929C10.7683 16.4804 10.8739 16.7348 10.8739 17ZM9.87242 22C10.138 22 10.3927 21.8946 10.5805 21.7071C10.7683 21.5196 10.8739 21.2652 10.8739 21C10.8739 20.7348 10.7683 20.4804 10.5805 20.2929C10.3927 20.1054 10.138 20 9.87242 20C9.60682 20 9.3521 20.1054 9.1643 20.2929C8.97649 20.4804 8.87098 20.7348 8.87098 21C8.87098 21.2652 8.97649 21.5196 9.1643 21.7071C9.3521 21.8946 9.60682 22 9.87242 22ZM14.8796 17C14.8796 17.2652 14.7741 17.5196 14.5863 17.7071C14.3985 17.8946 14.1438 18 13.8782 18C13.6126 18 13.3578 17.8946 13.17 17.7071C12.9822 17.5196 12.8767 17.2652 12.8767 17C12.8767 16.7348 12.9822 16.4804 13.17 16.2929C13.3578 16.1054 13.6126 16 13.8782 16C14.1438 16 14.3985 16.1054 14.5863 16.2929C14.7741 16.4804 14.8796 16.7348 14.8796 17ZM13.8782 22C14.1438 22 14.3985 21.8946 14.5863 21.7071C14.7741 21.5196 14.8796 21.2652 14.8796 21C14.8796 20.7348 14.7741 20.4804 14.5863 20.2929C14.3985 20.1054 14.1438 20 13.8782 20C13.6126 20 13.3578 20.1054 13.17 20.2929C12.9822 20.4804 12.8767 20.7348 12.8767 21C12.8767 21.2652 12.9822 21.5196 13.17 21.7071C13.3578 21.8946 13.6126 22 13.8782 22Z" fill="white"/>
</svg>
