<svg width="33" height="32" viewBox="0 0 33 32" fill="none" xmlns="http://www.w3.org/2000/svg">
<path d="M7.0269 25.3385C6.4118 25.3385 5.89862 25.1332 5.48736 24.7225C5.0761 24.3119 4.87003 23.799 4.86914 23.1839V8.82654C4.86914 8.21232 5.07521 7.69987 5.48736 7.28921C5.89951 6.87854 6.41224 6.67276 7.02557 6.67188H26.7472C27.3614 6.67188 27.8741 6.87765 28.2854 7.28921C28.6967 7.70076 28.9027 8.21321 28.9036 8.82654V23.1852C28.9036 23.7985 28.6976 24.311 28.2854 24.7225C27.8733 25.1341 27.3605 25.3394 26.7472 25.3385H7.0269ZM16.8864 16.1599L6.20439 9.18521V23.1852C6.20439 23.4243 6.28139 23.6208 6.43539 23.7745C6.58939 23.9283 6.78656 24.0052 7.0269 24.0052H26.7472C26.9867 24.0052 27.1834 23.9283 27.3374 23.7745C27.4914 23.6208 27.5684 23.4239 27.5684 23.1839V9.18387L16.8864 16.1599ZM16.8864 14.6719L27.1571 8.00521H6.61565L16.8864 14.6719ZM6.20439 9.18521V8.00521V23.1852C6.20439 23.4243 6.28139 23.6208 6.43539 23.7745C6.58939 23.9283 6.78656 24.0052 7.0269 24.0052H6.20439V9.18521Z" fill="white"/>
</svg>
