<svg width="33" height="32" viewBox="0 0 33 32" fill="none" xmlns="http://www.w3.org/2000/svg">
<path d="M22.2257 4.32812H11.5437C10.2619 4.32812 9.20703 5.38146 9.20703 6.66146V25.3281C9.20703 26.6081 10.2619 27.6615 11.5437 27.6615H22.2257C23.5075 27.6615 24.5624 26.6081 24.5624 25.3281V6.66146C24.5624 5.38146 23.5075 4.32812 22.2257 4.32812ZM22.5595 25.3281C22.5595 25.5148 22.4126 25.6615 22.2257 25.6615H11.5437C11.3568 25.6615 11.2099 25.5148 11.2099 25.3281V6.66146C11.2099 6.47479 11.3568 6.32812 11.5437 6.32812H22.2257C22.4126 6.32812 22.5595 6.47479 22.5595 6.66146V25.3281ZM18.22 21.3281C18.22 22.0615 17.6191 22.6615 16.8847 22.6615C16.1503 22.6615 15.5495 22.0615 15.5495 21.3281C15.5495 20.5948 16.1503 19.9948 16.8847 19.9948C17.6191 19.9948 18.22 20.5948 18.22 21.3281Z" fill="white"/>
</svg>
