<svg width="320" height="224" viewBox="0 0 320 224" fill="none" xmlns="http://www.w3.org/2000/svg">
<path fill-rule="evenodd" clip-rule="evenodd" d="M113.018 53.2164C112.464 53.3353 111.554 53.6447 110.996 53.9038C107.972 55.3102 107.457 57.8392 109.691 60.313C110.07 60.7332 110.356 61.095 110.326 61.1173C110.296 61.1394 109.524 61.5249 108.611 61.9737C106.633 62.9452 105.754 63.573 105.076 64.4971C104.597 65.1506 104.133 66.3557 104.133 66.9478C104.133 67.0999 104.232 67.5575 104.353 67.9646C104.687 69.0913 105.762 70.1835 107.221 70.8801C108.687 71.5797 109.534 71.7559 111.398 71.7495C114.111 71.7403 116.071 71.2213 119.263 69.6672L121.177 68.7354V66.8102L120.78 67.0626C120.562 67.2014 120.174 67.4702 119.919 67.6597C119.132 68.2459 117.431 68.9885 116.299 69.2402C115.003 69.5284 112.785 69.4563 111.788 69.0935C110.377 68.5797 109.231 67.4984 108.944 66.4101C108.615 65.1623 109.282 64.0371 110.82 63.2465C111.721 62.783 111.878 62.7512 113.579 62.6858L115.382 62.6163L115.896 61.7831C116.179 61.3248 116.411 60.9191 116.411 60.8812C116.411 60.8435 116.066 60.784 115.644 60.7491C113.538 60.5744 112.215 58.9744 112.529 56.9837C112.745 55.6185 113.558 54.8296 114.843 54.7366C115.946 54.6568 116.726 55.0396 118.078 56.3236L119.114 57.3075L120.874 55.2164L120.5 54.8263C119.941 54.2423 118.274 53.4226 117.17 53.1887C115.937 52.9274 114.317 52.9382 113.018 53.2164Z" fill="#FF0B0B"/>
<path fill-rule="evenodd" clip-rule="evenodd" d="M123.044 69.2963H124.922V65.3963H125.633C126.571 65.3963 126.884 65.6716 128.24 67.6901L129.318 69.2963H130.451C131.318 69.2963 131.559 69.2538 131.477 69.1157C130.647 67.7102 129.471 66.0785 128.993 65.6692L128.39 65.1528L128.97 64.9791C129.73 64.7515 130.496 64.0655 130.708 63.4229C130.978 62.603 130.818 61.4615 130.345 60.8414C129.679 59.9681 129.266 59.869 125.969 59.7936L123.044 59.7266V69.2963ZM124.922 63.989L126.535 63.8845C127.422 63.8271 128.237 63.7457 128.346 63.704C128.601 63.6061 128.967 62.8993 128.967 62.5035C128.967 62.3345 128.777 62.0063 128.544 61.7741C128.129 61.3582 128.098 61.3519 126.522 61.3519H124.922V63.989ZM134.556 62.7931L133.878 63.2233V62.8653C133.878 62.5242 133.837 62.5074 133.011 62.5074H132.144V69.2963H134.003L134.094 64.3595L134.5 64.0112C135.014 63.5692 135.751 63.548 136.128 63.9644C136.368 64.2301 136.407 64.5647 136.456 66.7811L136.511 69.2963H138.186L138.235 66.9491C138.287 64.4482 138.37 64.1232 139.041 63.8177C139.563 63.5798 140.017 63.6326 140.319 63.9666C140.564 64.2361 140.599 64.5529 140.64 66.7833L140.685 69.2963H142.4V66.6195C142.4 63.6049 142.294 63.1362 141.506 62.6556C141.176 62.4543 140.775 62.3638 140.212 62.3635C139.52 62.3631 139.283 62.4389 138.652 62.8632C138.071 63.2546 137.892 63.318 137.829 63.155C137.666 62.729 136.829 62.363 136.02 62.363C135.396 62.363 135.094 62.4518 134.556 62.7931ZM93.0963 79.2149C93.0433 79.2677 93 80.0477 93 80.9482V82.5852H93.8554L93.9389 80.0574L94.2775 81.3213C94.5739 82.4275 94.6559 82.5852 94.9357 82.5852C95.2119 82.5852 95.2916 82.4426 95.5207 81.538C95.9215 79.9557 96.0241 79.9121 96.029 81.3213C96.0333 82.572 96.0371 82.5852 96.3944 82.5852H96.7556V79.1019L95.5447 79.1907L95.3079 80.1296C94.9072 81.7194 94.9714 81.7535 94.4291 79.6602C94.2981 79.1541 94.2529 79.1185 93.7407 79.1185C93.4393 79.1185 93.1492 79.1619 93.0963 79.2149ZM97.4778 82.5852H98.3444V79.1185H97.4778V82.5852ZM99.0667 82.5852H99.4214C99.7617 82.5852 99.7779 82.5421 99.8186 81.538L99.8611 80.4907L100.439 81.537C100.931 82.4288 101.074 82.5835 101.402 82.5842C101.614 82.5848 101.809 82.5215 101.835 82.4436C101.862 82.3658 101.863 81.5858 101.838 80.7103C101.793 79.132 101.79 79.1185 101.441 79.1185C101.098 79.1185 101.089 79.1483 101.087 80.238L101.086 81.3574L100.47 80.2741C99.9673 79.3896 99.7818 79.1824 99.4604 79.1451L99.0667 79.0993V82.5852ZM102.533 82.5852H103.4V79.1185H102.533V82.5852ZM104.122 82.5852H104.477C104.817 82.5852 104.833 82.5421 104.874 81.538L104.917 80.4907L105.494 81.5355C106.028 82.501 106.108 82.5804 106.546 82.5827L107.02 82.5852L106.939 79.1907H106.578C106.229 79.1907 106.215 79.2271 106.174 80.2608L106.131 81.3308L105.524 80.2608C105.026 79.3839 104.845 79.1825 104.519 79.1451L104.122 79.0993V82.5852ZM108.187 79.4844C106.885 80.5804 107.549 82.5852 109.214 82.5852C109.48 82.5852 109.784 82.504 109.889 82.4046C110.042 82.2602 110.094 82.2602 110.147 82.4046C110.183 82.504 110.338 82.5852 110.49 82.5852C110.734 82.5852 110.767 82.4753 110.767 81.6463V80.7074H110.044C109.419 80.7074 109.322 80.746 109.322 80.9963C109.322 81.1923 109.419 81.2852 109.622 81.2852C109.829 81.2852 109.906 81.363 109.873 81.538C109.84 81.7132 109.664 81.8043 109.299 81.8348C108.699 81.8849 108.311 81.4988 108.311 80.8519C108.311 80.0193 109.281 79.4857 109.756 80.0574C109.951 80.2924 110.622 80.3576 110.622 80.1415C110.622 79.2072 109.028 78.7771 108.187 79.4844ZM116.347 79.418C115.907 79.7639 115.835 80.4165 116.202 80.7259C116.331 80.8348 116.737 81.0216 117.105 81.1407C117.604 81.3027 117.772 81.4304 117.772 81.6463C117.772 82.0668 117.055 82.127 116.805 81.7275C116.69 81.5436 116.467 81.4296 116.221 81.4296C115.715 81.4296 115.697 81.7513 116.177 82.2306C116.94 82.9938 118.711 82.5349 118.711 81.5739C118.711 81.0461 118.418 80.7588 117.657 80.5416C116.787 80.2927 116.618 80.1387 116.903 79.8533C117.112 79.6444 117.171 79.6466 117.572 79.877C118.459 80.3859 118.95 80.0186 118.186 79.418C117.956 79.2365 117.593 79.1185 117.267 79.1185C116.94 79.1185 116.578 79.2365 116.347 79.418ZM119 79.4796C119 79.796 119.063 79.8407 119.506 79.8407H120.011V82.5852H120.878V79.8407H121.383C121.826 79.8407 121.889 79.796 121.889 79.4796V79.1185H119V79.4796ZM122.322 82.5852H123.694C125.062 82.5852 125.067 82.5839 125.067 82.2241C125.067 81.876 125.033 81.863 124.128 81.863C123.223 81.863 123.189 81.85 123.189 81.5019C123.189 81.1604 123.232 81.1407 123.983 81.1407C124.681 81.1407 124.778 81.1058 124.778 80.8519C124.778 80.5979 124.681 80.563 123.983 80.563C123.232 80.563 123.189 80.5433 123.189 80.2019C123.189 79.8568 123.227 79.8407 124.056 79.8407C124.884 79.8407 124.922 79.8247 124.922 79.4796C124.922 79.1213 124.913 79.1185 123.622 79.1185H122.322V82.5852ZM125.644 82.5852H127.017C128.377 82.5852 128.389 82.5822 128.389 82.2307C128.389 81.8936 128.341 81.8741 127.414 81.8335C126.549 81.7957 126.439 81.758 126.439 81.5019C126.439 81.2515 126.55 81.2072 127.269 81.1696C127.974 81.1329 128.1 81.0847 128.1 80.8519C128.1 80.619 127.974 80.5708 127.269 80.5341C126.55 80.4965 126.439 80.4522 126.439 80.2019C126.439 79.9484 126.55 79.9078 127.342 79.8699C128.192 79.8295 128.244 79.8064 128.244 79.4727C128.244 79.123 128.228 79.1185 126.944 79.1185H125.644V82.5852ZM128.967 82.5852H130.122C131.259 82.5852 131.278 82.5791 131.278 82.2241C131.278 81.8826 131.234 81.863 130.483 81.863H129.689V80.4907C129.689 79.1233 129.688 79.1185 129.328 79.1185H128.967V82.5852ZM136.478 82.5852H136.911C137.318 82.5852 137.344 82.5511 137.344 82.0258V81.4663L138.091 81.3947C138.96 81.3112 139.222 81.0502 139.222 80.2689C139.222 79.4883 138.881 79.2586 137.575 79.1598L136.478 79.0768V82.5852ZM140.559 79.2672C139.573 79.6637 139.367 81.4195 140.217 82.1794C141.029 82.9046 142.264 82.6801 142.762 81.7169C143.53 80.231 142.105 78.6458 140.559 79.2672ZM143.267 79.2612C143.267 79.3931 143.756 81.2442 144.078 82.3324C144.126 82.4956 144.297 82.5852 144.56 82.5852C144.949 82.5852 144.975 82.5408 145.147 81.6102C145.407 80.1975 145.51 80.1153 145.709 81.1615C145.974 82.5573 145.988 82.5852 146.43 82.5852C146.815 82.5852 146.846 82.529 147.233 81.1046C147.454 80.2904 147.669 79.5052 147.71 79.3597C147.771 79.1408 147.713 79.1036 147.367 79.1431C146.97 79.1884 146.939 79.2445 146.731 80.3007C146.61 80.9112 146.472 81.4504 146.423 81.4991C146.375 81.5478 146.289 81.3408 146.234 81.0392C145.889 79.1629 145.863 79.0992 145.46 79.1464C145.114 79.187 145.065 79.2767 144.889 80.2019C144.598 81.7292 144.54 81.7502 144.283 80.4185C144.06 79.2617 144.024 79.1881 143.657 79.1451C143.438 79.1194 143.267 79.1704 143.267 79.2612ZM148.178 82.5852H149.478C150.761 82.5852 150.778 82.5807 150.778 82.231C150.778 81.8973 150.725 81.8742 149.875 81.8338C149.064 81.7951 148.967 81.7577 148.926 81.4657C148.883 81.1594 148.93 81.1407 149.757 81.1407C150.53 81.1407 150.633 81.1074 150.633 80.8591C150.633 80.6174 150.515 80.5712 149.803 80.5341C149.067 80.4957 148.967 80.4536 148.926 80.1657C148.882 79.8571 148.927 79.8407 149.829 79.8407C150.745 79.8407 150.778 79.8282 150.778 79.4796C150.778 79.1213 150.768 79.1185 149.478 79.1185H148.178V82.5852ZM151.472 79.2269C151.448 79.2864 151.428 80.0502 151.428 80.9241V82.513L151.825 82.5586C152.207 82.6027 152.222 82.5791 152.222 81.9447C152.222 81.2885 152.225 81.2852 152.723 81.2852C153.273 81.2852 153.522 81.5744 153.522 82.2145C153.522 82.5283 153.587 82.5852 153.946 82.5852C154.355 82.5852 154.368 82.5648 154.29 82.0435C154.246 81.7457 154.129 81.3711 154.03 81.2112C153.884 80.9758 153.887 80.8855 154.047 80.736C154.264 80.5338 154.307 79.8748 154.124 79.5854C154.06 79.4845 153.785 79.3384 153.513 79.2604C152.931 79.0935 151.537 79.0707 151.472 79.2269ZM137.344 80.3372C137.344 80.7785 137.392 80.8519 137.678 80.8519C137.861 80.8519 138.138 80.7581 138.292 80.6437C138.679 80.3564 138.407 79.9281 137.799 79.8678C137.366 79.8246 137.344 79.8465 137.344 80.3372ZM140.761 80.1049C140.492 80.4022 140.446 81.1621 140.672 81.5836C140.775 81.7764 140.975 81.863 141.317 81.863C141.89 81.863 142.111 81.5705 142.111 80.8116C142.111 79.9666 141.28 79.5315 140.761 80.1049ZM152.222 80.2741C152.222 80.67 152.264 80.7074 152.71 80.7074C153.309 80.7074 153.645 80.38 153.378 80.0574C153.279 79.9382 152.978 79.8407 152.71 79.8407C152.264 79.8407 152.222 79.8782 152.222 80.2741ZM112.971 80.1727C112.386 80.4335 112.378 81.2767 112.957 81.5865C113.669 81.9678 114.466 81.1561 114.031 80.4923C113.772 80.0964 113.396 79.983 112.971 80.1727ZM133.485 80.1423C133.148 80.2676 132.922 80.8435 133.064 81.2138C133.11 81.3339 133.309 81.5058 133.507 81.5959C133.796 81.7276 133.937 81.7127 134.233 81.519C135.064 80.9746 134.422 79.7939 133.485 80.1423Z" fill="#2F55A6"/>
<path fill-rule="evenodd" clip-rule="evenodd" d="M124.179 88.8447C124.771 89.4441 145.118 91.5974 153.033 91.8983C158.51 92.1067 165.621 93.8432 170.663 96.2041C172.387 97.0112 176.351 98.8377 179.473 100.262C182.675 101.724 185.344 103.47 185.598 104.271C185.846 105.051 186.553 105.689 187.171 105.689C188.472 105.689 188.625 107.85 187.53 110.732C187.056 111.976 186.161 112.742 185.179 112.742C184.306 112.742 183.591 113.006 183.589 113.329C183.587 113.652 182.536 119.559 181.253 126.454C179.971 133.35 178.915 139.608 178.906 140.363C178.893 141.555 179.706 141.734 185.159 141.734C191.178 141.734 191.428 141.806 191.428 143.536C191.428 144.528 191.035 145.731 190.556 146.211C188.936 147.83 190.713 148.786 195.343 148.786H199.948L200.194 129.356C200.534 102.436 199.826 103.256 223.163 102.732C250.527 102.116 256.992 103.939 259.766 113.048C260.933 116.883 261.181 120.863 261.265 137.087C261.357 154.988 261.245 156.735 259.852 159.121C257.699 162.807 255.454 163.649 247.746 163.663C242.682 163.671 240.741 163.38 240.01 162.499C238.587 160.785 237.724 161.049 236.807 163.479C234.88 168.578 229.018 172.147 224.277 171.105C221.026 170.391 216.727 166.477 216.11 163.67C215.667 161.657 215.428 161.492 214.128 162.305C212.979 163.022 212.007 162.997 209.783 162.193C207.432 161.342 206.577 161.339 205.022 162.171C203.47 163.001 202.617 163.001 200.32 162.171C198.024 161.341 197.17 161.341 195.619 162.171C194.088 162.99 193.201 162.997 191.008 162.204C188.829 161.416 187.753 161.418 185.552 162.214C183.418 162.985 182.601 162.997 181.869 162.265C180.687 161.083 177.592 161.038 176.879 162.193C176.564 162.704 175.244 162.885 173.689 162.633C171.239 162.236 170.922 162.432 169.506 165.207C167.496 169.145 162.257 171.842 158.121 171.066C154.43 170.373 151.019 167.463 149.89 164.04C149.397 162.546 148.529 161.324 147.962 161.324C147.395 161.324 146.729 160.795 146.48 160.148C146.233 159.502 145.1 158.973 143.962 158.973C142.446 158.973 142.015 159.286 142.346 160.148C142.648 160.936 142.312 161.324 141.324 161.324C140.357 161.324 139.274 162.518 138.167 164.803C133.938 173.54 121.7 173.059 118.434 164.028C117.897 162.541 117.263 161.333 117.026 161.344C116.789 161.355 115.953 162.761 115.165 164.467C111.067 173.358 99.0923 173.359 95.5348 164.468C94.0405 160.734 93.0086 160.47 92.312 163.642C91.6569 166.627 87.2296 170.506 83.7278 171.162C78.7105 172.103 71.54 167.051 71.54 162.574C71.54 161.846 70.8849 161.324 69.9728 161.324C67.7184 161.324 67.9151 157.708 70.3646 154.103C71.5455 152.365 72.3236 150.115 72.3236 148.436C72.3236 145.669 72.3024 145.652 68.8813 145.652C65.4907 145.652 64.3428 144.77 65.0605 142.714C65.2478 142.175 66.3817 141.734 67.579 141.734C70.0527 141.734 70.0559 142.917 67.5453 129.197C64.4666 112.373 64.5802 112.742 62.4536 112.742C59.313 112.742 57.5687 106.247 60.5032 105.479C61.3291 105.264 62.1221 104.289 62.2663 103.314C62.4105 102.338 63.0577 101.299 63.7042 101.004C64.3506 100.71 66.0541 99.8799 67.4896 99.1613C68.9252 98.442 71.2367 97.8535 72.6268 97.8535C74.0913 97.8535 76.2697 97.03 77.8086 95.8946C79.3656 94.7458 81.5236 93.9356 83.0249 93.9356C84.4338 93.9356 87.3088 93.257 89.4135 92.4272C91.9813 91.4148 94.2756 91.0567 96.3819 91.3396C98.2868 91.5951 100.261 91.3529 101.399 90.7237C102.485 90.1235 105.916 89.6627 109.544 89.6306C112.991 89.5993 117.575 89.289 119.73 88.9403C121.885 88.5924 123.887 88.5493 124.179 88.8447ZM129.525 90.7903C138.647 92.1404 151.11 93.2523 153.007 92.8848C155.049 92.4891 166.487 95.4315 170.663 97.4273C171.956 98.0455 175.57 99.6808 178.695 101.061C189.462 105.818 190.669 105.72 123.844 105.498C65.0684 105.303 63.3124 105.254 63.3124 103.816C63.3124 103.001 63.8413 102.09 64.4877 101.793C65.1342 101.496 66.8189 100.674 68.2317 99.9684C69.7182 99.2256 71.7037 98.8659 72.9442 99.1135C74.5638 99.4379 75.8309 98.9529 78.1236 97.1311C80.3451 95.3657 81.9804 94.7192 84.2238 94.7192C85.9101 94.7192 88.387 94.1519 89.7285 93.4576C91.3474 92.6208 93.2311 92.3387 95.3287 92.62C97.2689 92.8801 99.5624 92.5957 101.267 91.8842C102.933 91.1884 106.085 90.7833 109.145 90.8726C111.95 90.9541 116.713 90.8256 119.73 90.5866C122.747 90.3476 127.155 90.4393 129.525 90.7903ZM249.021 104.818C250.314 105.129 243.262 105.395 233.35 105.41C223.437 105.425 213.035 105.706 210.234 106.034C205.966 106.535 205.305 106.46 206.158 105.573C206.953 104.746 211.494 104.485 226.923 104.383C237.784 104.311 247.728 104.507 249.021 104.818ZM248.042 107.052L252.547 107.335L252.553 119.637C252.556 126.403 252.783 134.319 253.058 137.229L253.557 142.518H248.453C244.951 142.518 240.796 141.737 235.215 140.031C228.541 137.991 225.851 137.559 220.225 137.627L213.368 137.71V122.567C213.368 109.482 213.537 107.36 214.608 106.949C215.87 106.464 239.856 106.538 248.042 107.052ZM186.966 106.974C187.242 107.249 187.28 107.778 187.051 108.149C186.821 108.52 158.094 108.824 123.21 108.824C67.3556 108.824 59.7863 108.683 59.7863 107.648C59.7863 106.613 67.3462 106.473 123.126 106.473C157.963 106.473 186.691 106.699 186.966 106.974ZM244.083 108C249.966 109.144 251.115 111.765 250.813 123.354L250.588 131.939L241.563 132.159C235.061 132.316 232.145 132.091 231.133 131.351C229.895 130.445 229.733 129.03 229.772 119.426C229.804 111.58 230.092 108.354 230.799 107.905C231.979 107.155 240.037 107.213 244.083 108ZM226.689 108.824C228.082 110.217 228.256 111.435 228.256 119.794C228.256 128.324 228.103 129.35 226.598 130.855C225.222 132.231 224.274 132.449 221.029 132.138C218.879 131.931 216.81 131.273 216.431 130.675C216.053 130.078 215.738 125.113 215.731 119.643C215.72 110.246 215.815 109.628 217.461 108.477C219.957 106.728 224.775 106.909 226.689 108.824ZM212.585 122.758V138.478L210.038 139.283C208.638 139.726 206.169 140.321 204.553 140.607L201.615 141.125V125.907C201.615 114.829 201.886 110.32 202.611 109.327C203.268 108.43 205.142 107.805 208.096 107.5L212.585 107.037V122.758ZM258.126 111.595C259.303 114.256 259.814 117.605 260.16 124.916L260.621 134.682H257.466C254.559 134.682 254.272 134.489 253.821 132.233C253.551 130.886 253.331 126.528 253.331 122.548C253.331 108.158 254.96 104.437 258.126 111.595ZM247.555 110.671C249.543 112.38 249.729 113.05 250.044 119.646C250.231 123.566 250.157 127.682 249.878 128.793L249.371 130.813L240.185 130.593L230.999 130.372L230.781 119.598L230.563 108.824H237.985C244.654 108.824 245.626 109.012 247.555 110.671ZM226.348 109.846C226.563 110.409 226.641 115.258 226.518 120.62L226.297 130.372L221.792 130.607L217.286 130.842V119.833V108.824H221.62C224.463 108.824 226.09 109.175 226.348 109.846ZM186.259 110.269C186.53 110.707 186.37 111.302 185.904 111.591C184.699 112.335 183.921 111.315 184.927 110.309C185.49 109.747 185.928 109.733 186.259 110.269ZM182.809 111.411C182.809 114.616 177.376 141.211 176.553 142.034C175.317 143.271 175.518 141.548 178.499 125.389C180.007 117.21 181.241 110.313 181.241 110.063C181.241 109.813 181.594 109.607 182.025 109.607C182.456 109.607 182.809 110.419 182.809 111.411ZM179.674 111.894C179.674 116.543 178.064 117.853 168.211 121.219C155.524 125.555 143.315 125.067 122.525 119.393C107.575 115.313 98.8737 113.98 91.9131 114.704C85.8952 115.331 78.7466 117.572 74.0247 120.313C72.1598 121.396 70.5284 122.163 70.4007 122.018C70.1201 121.698 68.4057 111.819 68.4057 110.522C68.4057 109.833 82.1356 109.607 124.04 109.607H179.674V111.894ZM67.1135 110.979C67.3228 111.733 68.6368 118.788 70.0324 126.657C72.2233 139.006 72.5453 143.047 71.2281 141.669C70.975 141.404 66.9427 120.497 65.4594 111.762C65.0598 109.411 66.4898 108.734 67.1135 110.979ZM63.7042 110.783C63.7042 112.101 63.0279 112.25 61.4835 111.272C60.6497 110.743 60.7022 110.508 61.7436 110.108C63.567 109.408 63.7042 109.456 63.7042 110.783ZM224.143 112.519C222.957 112.698 221.018 112.698 219.833 112.519C218.647 112.34 219.617 112.193 221.988 112.193C224.358 112.193 225.328 112.34 224.143 112.519ZM223.751 114.862C222.782 115.048 221.194 115.048 220.225 114.862C219.255 114.675 220.048 114.522 221.988 114.522C223.927 114.522 224.72 114.675 223.751 114.862ZM106.801 116.424C107.879 116.608 114.578 118.313 121.689 120.213C136.652 124.211 142.667 125.271 150.29 125.256C156.994 125.243 167.512 122.999 173.699 120.262C176.23 119.143 178.374 118.227 178.461 118.227C178.548 118.227 178.468 119.26 178.283 120.523C177.981 122.573 177.011 123.281 169.211 127.132C150.014 136.612 139.379 137.258 118.555 130.213C101.312 124.379 89.8711 124.654 77.9834 131.188C75.2722 132.679 72.9253 133.898 72.7686 133.898C72.6127 133.898 72.0759 131.551 71.576 128.683C70.5785 122.955 70.4116 123.3 75.4579 120.635C81.5941 117.395 88.6095 115.871 96.8928 115.982C101.265 116.041 105.724 116.24 106.801 116.424ZM223.751 117.996C222.782 118.183 221.194 118.183 220.225 117.996C219.255 117.809 220.048 117.656 221.988 117.656C223.927 117.656 224.72 117.809 223.751 117.996ZM224.143 121.138C222.957 121.318 221.018 121.318 219.833 121.138C218.647 120.959 219.617 120.812 221.988 120.812C224.358 120.812 225.328 120.959 224.143 121.138ZM223.751 123.481C222.782 123.668 221.194 123.668 220.225 123.481C219.255 123.294 220.048 123.141 221.988 123.141C223.927 123.141 224.72 123.294 223.751 123.481ZM177.324 125.193C177.324 126.165 174.983 138.691 174.489 140.363C174.109 141.65 171.026 141.734 124.078 141.734H74.0733L73.6008 139.971C72.4231 135.577 72.8885 134.81 78.3963 132.074C86.0833 128.257 90.5223 127.228 98.9654 127.31C105.467 127.373 107.65 127.791 116.204 130.61C128.991 134.825 135.136 136.225 140.887 136.232C149.278 136.243 162.812 132.109 172.99 126.427C176.784 124.309 177.324 124.155 177.324 125.193ZM222.134 126.598C221.569 126.824 220.893 126.796 220.633 126.536C220.373 126.276 220.835 126.091 221.661 126.124C222.574 126.162 222.76 126.348 222.134 126.598ZM235.309 134.734C235.309 136.037 234.889 136.305 233.161 136.105C231.865 135.956 230.909 135.313 230.752 134.486C230.55 133.421 231.03 133.115 232.901 133.115C234.812 133.115 235.309 133.449 235.309 134.734ZM234.133 134.682C234.4 135.113 234.067 135.465 233.396 135.465C232.724 135.465 232.174 135.113 232.174 134.682C232.174 134.251 232.506 133.898 232.912 133.898C233.318 133.898 233.867 134.251 234.133 134.682ZM256.661 136.768C255.994 137.037 255.682 139.124 255.682 143.303C255.682 150.463 256.094 151.921 258.116 151.921C260.484 151.921 260.176 157.684 257.676 160.184C254.389 163.471 253.828 162.776 254.391 156.112C254.67 152.815 254.898 146.997 254.898 143.183C254.898 137.078 255.062 136.256 256.269 136.311C257.088 136.348 257.247 136.532 256.661 136.768ZM260.383 138.6C260.383 139.031 259.678 139.383 258.816 139.383C257.954 139.383 257.249 139.031 257.249 138.6C257.249 138.169 257.954 137.816 258.816 137.816C259.678 137.816 260.383 138.169 260.383 138.6ZM234.917 140.988C240.155 142.526 244.506 143.291 248.042 143.295L253.331 143.301V146.545V149.789L249.412 149.324C247.257 149.068 241.703 147.171 237.071 145.107C227.821 140.984 226.735 140.868 208.275 142.037L201.223 142.483L206.31 141.335C209.108 140.704 212.422 139.831 213.675 139.394C217.958 137.901 226.62 138.551 234.917 140.988ZM227.865 142.307C228.727 142.522 232.34 144.05 235.893 145.705C243.264 149.134 247.139 150.343 250.784 150.349C253.206 150.354 253.33 150.498 253.322 153.292C253.318 154.908 253.093 157.566 252.823 159.2L252.332 162.169L246.367 161.943L240.402 161.715L239.897 157.574C238.984 150.103 234.665 145.877 227.148 145.101C223.723 144.748 222.163 145.032 218.614 146.657C216.226 147.75 214.068 148.442 213.82 148.193C213.571 147.945 213.368 146.734 213.368 145.502C213.368 143.819 213.867 143.072 215.378 142.498C217.43 141.718 225.037 141.602 227.865 142.307ZM260.383 142.818C260.383 142.983 259.678 143.303 258.816 143.529C257.954 143.753 257.249 143.619 257.249 143.228C257.249 142.837 257.954 142.518 258.816 142.518C259.678 142.518 260.383 142.653 260.383 142.818ZM212.585 145.952V148.786H207.1H201.615V146.436C201.615 144.155 201.726 144.085 205.337 144.074C207.383 144.068 209.852 143.851 210.822 143.591C212.412 143.165 212.585 143.396 212.585 145.952ZM189.861 144.085C189.861 144.6 168.704 144.868 127.958 144.868C87.2116 144.868 66.0549 144.6 66.0549 144.085C66.0549 143.569 87.2116 143.301 127.958 143.301C168.704 143.301 189.861 143.569 189.861 144.085ZM260.383 144.942C260.383 145.332 259.678 145.652 258.816 145.652C257.954 145.652 257.249 145.516 257.249 145.352C257.249 145.187 257.954 144.867 258.816 144.641C259.678 144.416 260.383 144.551 260.383 144.942ZM228.945 146.44C234.707 147.795 237.775 150.987 238.839 156.728C239.605 160.861 238.084 161.128 236.18 157.195C234.093 152.883 231.113 151.137 225.84 151.137C221.949 151.137 221.512 151.345 218.422 154.663C214.385 158.998 212.153 159.393 212.888 155.643C214.198 148.95 221.596 144.71 228.945 146.44ZM186.531 146.192C185.776 146.389 184.543 146.389 183.788 146.192C183.034 145.995 183.651 145.834 185.159 145.834C186.668 145.834 187.285 145.995 186.531 146.192ZM173.797 146.436C174.876 148.181 173.019 148.739 169.869 147.616C168.055 146.971 167.402 146.486 168.312 146.459C169.174 146.435 170.633 146.212 171.554 145.965C172.476 145.718 173.485 145.929 173.797 146.436ZM150.657 146.372C154.504 147.395 144.418 149.047 137.639 148.505C125.829 147.56 121.689 147.026 121.689 146.451C121.689 145.734 147.989 145.662 150.657 146.372ZM84.8609 146.436C85.7448 147.007 85.3561 147.203 83.2937 147.225C81.7853 147.24 79.0522 147.934 77.221 148.765L73.8907 150.277V147.964V145.652L78.7881 145.664C81.4813 145.671 84.2144 146.018 84.8609 146.436ZM259.991 147.219C259.725 147.65 258.911 147.997 258.182 147.991C257.041 147.98 257.019 147.873 258.033 147.219C259.567 146.227 260.604 146.227 259.991 147.219ZM185.355 148.569C183.955 148.743 181.662 148.743 180.262 148.569C178.862 148.396 180.007 148.254 182.809 148.254C185.61 148.254 186.756 148.396 185.355 148.569ZM170.542 149.436C171.866 150.899 172.434 158.189 171.224 158.189C170.886 158.189 169.983 157.13 169.218 155.835C165.097 148.857 152.812 149.846 150.3 157.359C148.742 162.018 147.547 161.236 147.547 155.557C147.547 148.457 148.304 148.003 160.138 148.003C167.965 148.003 169.427 148.204 170.542 149.436ZM133.498 150.158C137.8 152.338 141.279 156.33 141.279 159.089C141.279 160.929 139.805 160.986 139.224 159.169C138.176 155.889 136.912 154.127 134.668 152.819C132.48 151.545 129.827 151.427 104.684 151.498L77.1011 151.576L75.1061 153.45C74.009 154.481 72.6871 156.498 72.1684 157.932C71.1717 160.687 69.1892 161.501 69.1892 159.155C69.1892 156.477 73.0037 152.112 77.1496 150.046L81.2509 148.003H105.247H129.244L133.498 150.158ZM260.383 149.57C260.383 150.001 259.502 150.354 258.424 150.354C257.347 150.354 256.465 150.001 256.465 149.57C256.465 149.139 257.347 148.786 258.424 148.786C259.502 148.786 260.383 149.139 260.383 149.57ZM213.956 150.549C213.706 151.299 208.885 151.529 193.387 151.529C177.889 151.529 173.068 151.299 172.818 150.549C172.563 149.782 177.019 149.57 193.387 149.57C209.755 149.57 214.211 149.782 213.956 150.549ZM146.764 150.745C146.764 152.353 139.042 152.373 136.923 150.77C135.54 149.724 135.917 149.618 141.083 149.595C145.621 149.575 146.764 149.807 146.764 150.745ZM231.576 153.147C235.884 155.484 237.311 161.418 234.567 165.581C232.593 168.576 230.139 169.881 226.418 169.916C222.307 169.953 219.143 167.889 217.67 164.21C216.125 160.348 217.116 156.78 220.533 153.906C223.274 151.599 228.111 151.266 231.576 153.147ZM165.324 153.402C168.31 155.279 169.488 157.269 169.488 160.437C169.488 166.227 165.56 169.935 159.419 169.94C156.585 169.942 155.561 169.494 153.346 167.279C151.091 165.024 150.682 164.063 150.682 161.023C150.682 155.817 153.664 152.626 158.956 152.168C161.892 151.914 163.43 152.212 165.324 153.402ZM133.981 153.449C136.981 155.278 138.144 157.257 138.144 160.528C138.144 166.037 134.007 169.943 128.171 169.943C121.559 169.943 117.189 163.76 119.645 157.881C122.006 152.23 128.626 150.183 133.981 153.449ZM110.533 153.485C111.94 154.343 113.67 156.26 114.379 157.747C115.527 160.155 115.544 160.774 114.537 163.421C113.025 167.392 109.157 169.943 104.648 169.943C101.725 169.943 100.727 169.511 98.4952 167.279C90.6931 159.477 100.996 147.671 110.533 153.485ZM87.3973 153.147C95.5192 157.554 91.6514 169.943 82.1544 169.943C73.2098 169.943 69.3224 160.108 75.9633 154.277C79.0279 151.586 83.6738 151.127 87.3973 153.147ZM211.655 155.251L211.409 157.798L192.408 158.008L173.406 158.218V155.461V152.704H192.653H211.901L211.655 155.251ZM145.98 155.447C145.98 157.827 145.73 158.189 144.079 158.189C142.728 158.189 141.82 157.473 140.944 155.718C140.266 154.359 139.712 153.125 139.712 152.975C139.712 152.826 141.122 152.704 142.846 152.704C145.906 152.704 145.98 152.769 145.98 155.447ZM120.645 154.126C119.937 154.908 118.966 156.672 118.488 158.044C118.01 159.417 117.388 160.536 117.107 160.532C116.826 160.528 115.913 159.029 115.077 157.202C114.243 155.375 113.42 153.615 113.249 153.292C113.078 152.969 114.963 152.704 117.436 152.704C121.73 152.704 121.874 152.769 120.645 154.126ZM96.606 155.251C95.7519 156.651 95.0521 158.414 95.0506 159.169C95.049 159.923 94.5185 160.54 93.8721 160.54C93.2256 160.54 92.6967 159.883 92.6967 159.079C92.6967 158.275 91.9915 156.721 91.1295 155.625C90.2676 154.529 89.5624 153.424 89.5624 153.168C89.5624 152.913 91.4963 152.704 93.8603 152.704H98.159L96.606 155.251ZM228.306 157.671C231.051 159.032 231.276 162.416 228.734 164.082C226.345 165.647 223.71 164.999 222.813 162.626C221.516 159.193 225.014 156.038 228.306 157.671ZM162.261 157.842C165.726 160.269 163.151 166.06 159.162 164.815C156.976 164.132 156.195 163.077 156.179 160.781C156.168 159.318 158.7 156.622 160.085 156.622C160.324 156.622 161.303 157.171 162.261 157.842ZM130.358 157.671C133.103 159.032 133.329 162.416 130.786 164.082C127.277 166.381 122.949 163.259 124.814 159.775C126.106 157.36 128.16 156.581 130.358 157.671ZM108.325 158.704C109.754 160.52 109.827 160.991 108.903 162.383C107.043 165.184 105.592 165.657 103.354 164.19C100.807 162.521 100.667 159.517 103.058 157.842C105.478 156.147 106.437 156.304 108.325 158.704ZM84.1611 157.688C86.8723 159.032 87.0808 162.427 84.5545 164.082C82.257 165.588 79.7511 165.057 78.5483 162.809C76.7038 159.362 80.519 155.882 84.1611 157.688ZM229.095 159.431C230.577 161.217 229.032 163.283 226.212 163.283C224.421 163.283 223.891 162.892 223.683 161.412C223.253 158.381 227.065 156.985 229.095 159.431ZM162.404 159.327C164.149 161.429 163.063 163.283 160.085 163.283C158.088 163.283 157.291 162.907 157.092 161.874C156.749 160.09 158.293 158.189 160.085 158.189C160.841 158.189 161.885 158.701 162.404 159.327ZM131.147 159.431C132.63 161.217 131.084 163.283 128.264 163.283C126.473 163.283 125.943 162.892 125.735 161.412C125.305 158.381 129.117 156.985 131.147 159.431ZM107.457 158.877C108.034 159.243 108.386 160.383 108.241 161.412C107.871 164.029 103.28 164.59 102.494 162.114C101.564 159.184 104.707 157.135 107.457 158.877ZM84.9157 159.431C85.6601 160.328 85.7189 161.034 85.1273 161.977C83.9684 163.826 80.845 164.105 79.6461 162.465C77.3879 159.377 82.4506 156.461 84.9157 159.431ZM215.719 159.803C215.719 160.259 215.366 160.415 214.936 160.148C214.505 159.882 214.152 159.509 214.152 159.318C214.152 159.128 214.505 158.973 214.936 158.973C215.366 158.973 215.719 159.347 215.719 159.803ZM209.842 159.757C209.576 160.187 208.518 160.54 207.491 160.54C206.465 160.54 205.407 160.187 205.141 159.757C204.852 159.289 205.801 158.973 207.491 158.973C209.182 158.973 210.131 159.289 209.842 159.757ZM201.223 159.757C199.033 160.698 195.346 160.698 195.346 159.757C195.346 159.326 197.021 158.998 199.068 159.028C201.868 159.069 202.402 159.25 201.223 159.757ZM191.171 159.945C188.465 160.508 187.138 160.481 186.509 159.852C185.859 159.202 186.845 158.997 190.292 159.065L194.954 159.158L191.171 159.945ZM181.429 159.952C179.63 160.529 178.354 160.521 177.119 159.926C175.639 159.211 176.038 159.083 179.674 159.106C183.794 159.132 183.871 159.169 181.429 159.952ZM173.602 159.492C173.062 159.709 172.181 159.709 171.643 159.492C171.103 159.275 171.545 159.097 172.622 159.097C173.7 159.097 174.14 159.275 173.602 159.492ZM212.781 161.059C212.242 161.277 211.36 161.277 210.822 161.059C210.283 160.842 210.724 160.664 211.801 160.664C212.879 160.664 213.319 160.842 212.781 161.059ZM203.378 161.059C202.839 161.277 201.957 161.277 201.419 161.059C200.88 160.842 201.321 160.664 202.398 160.664C203.476 160.664 203.916 160.842 203.378 161.059ZM193.975 161.059C193.436 161.277 192.554 161.277 192.016 161.059C191.477 160.842 191.918 160.664 192.995 160.664C194.073 160.664 194.513 160.842 193.975 161.059ZM184.572 161.059C184.033 161.277 183.151 161.277 182.613 161.059C182.074 160.842 182.515 160.664 183.592 160.664C184.67 160.664 185.11 160.842 184.572 161.059ZM175.952 161.059C175.413 161.277 174.532 161.277 173.993 161.059C173.454 160.842 173.895 160.664 174.973 160.664C176.05 160.664 176.491 160.842 175.952 161.059Z" fill="black"/>
</svg>
