<svg width="316" height="120" viewBox="0 0 316 120" fill="none" xmlns="http://www.w3.org/2000/svg">
<path fill-rule="evenodd" clip-rule="evenodd" d="M158.901 24.2849C158.405 24.3801 157.967 24.4905 157.925 24.5305C157.883 24.5701 157.748 27.7149 157.625 31.5189L157.401 38.4353L113.53 38.5189C69.683 38.6025 69.6586 38.6029 68.5298 39.4409C67.909 39.9017 67.1934 40.8961 66.9406 41.6509C66.5378 42.8509 65.6862 49.5069 64.3618 61.8025C64.1486 63.7825 63.5378 69.2725 63.0046 74.0025C62.0846 82.1661 60.969 92.8873 60.6318 96.8001C60.3914 99.5897 60.7946 100.003 63.759 100.003C65.1502 100.003 67.1382 99.8861 68.1762 99.7437C69.8546 99.5137 70.0366 99.3921 69.8222 98.6437C69.6898 98.1813 69.4862 97.2625 69.3698 96.6025L69.1582 95.4025L69.751 96.6805C70.6762 98.6761 73.6274 101.649 75.5182 102.491C76.835 103.077 77.7226 103.197 79.3182 103.002C80.837 102.817 81.6122 102.906 82.1826 103.33C82.911 103.872 82.8062 103.945 80.6506 104.392C78.8594 104.764 77.0554 104.767 72.6686 104.403C65.937 103.845 43.9854 103.518 43.2618 103.965C42.6434 104.347 50.6482 104.805 57.7634 104.795C60.6438 104.791 66.6474 105.007 71.1046 105.274C78.5646 105.722 79.439 105.703 82.107 105.039L85.0054 104.317L88.403 105.332C96.6026 107.779 96.5762 107.777 117.265 107.79L136.331 107.803L138.009 106.603C138.946 105.933 140.167 104.519 140.773 103.403C141.971 101.198 144.306 99.3201 146.451 98.8365C147.245 98.6573 152.294 98.8325 158.221 99.2449C170.612 100.107 178.196 100.196 179.573 99.4965C180.657 98.9457 180.996 97.9637 181.598 93.6345C182.162 89.5825 181.839 88.1029 180.219 87.3305C179.219 86.8541 178.856 86.3573 178.569 85.0765C178.285 83.8121 177.878 83.2461 176.801 82.6181C175.587 81.9109 174.564 81.7845 169.101 81.6673L162.801 81.5321V80.3409C162.801 78.6333 162.127 77.6025 161.01 77.6025C160.481 77.6025 159.969 77.4677 159.873 77.3025C159.777 77.1373 159.937 72.3225 160.23 66.6025C161.075 50.0965 161.341 41.8185 161.063 40.7105C160.897 40.0465 160.38 39.5341 159.603 39.2633L158.401 38.8441V34.4821C158.401 32.0829 158.516 29.0133 158.657 27.6613L158.915 25.2025H162.07C164.543 25.2025 165.277 25.3357 165.462 25.8189C165.592 26.1577 165.387 30.3429 165.005 35.1189C164.505 41.3721 164.155 43.9269 163.756 44.2465C163.091 44.7781 163.024 45.8769 163.643 46.0833C163.96 46.1889 163.834 49.8837 163.199 59.1345C162.684 66.6389 162.43 72.9741 162.592 74.2741C162.953 77.1641 164.09 78.4025 166.383 78.4025C168.328 78.4025 169.387 77.4913 169.961 75.3237C170.611 72.8693 171.202 64.8813 171.473 54.9025C171.612 49.7877 171.857 45.6025 172.017 45.6025C172.732 45.6025 173.609 42.7969 173.367 41.2833C173.162 39.9993 173.25 39.6613 173.859 39.3909C175.069 38.8541 196.796 38.6889 205.419 39.1509C216.701 39.7553 219.984 40.5293 221.243 42.8813C222.083 44.4513 221.295 44.5393 212.529 43.8521C201.83 43.0129 196.351 43.0009 194.781 43.8129C193.402 44.5257 193.244 45.1845 193.727 48.2025L193.983 49.8025L192.936 48.0025C190.529 43.8649 188.275 42.4025 184.304 42.4025C180.875 42.4025 177.257 44.1289 175.678 46.5185C174.62 48.1209 174.6 48.2677 174.579 54.7761C174.568 58.4205 174.319 63.2889 174.027 65.5945C173.145 72.5477 173.803 77.4525 175.86 79.2529C177.876 81.0181 184.039 81.2093 188.658 79.6501L190.715 78.9557L188.701 81.9101C185.437 86.6997 183.601 92.0713 183.601 96.8269C183.601 98.9469 184.365 100.009 185.183 99.0237C185.451 98.7001 186.305 97.2129 187.081 95.7189C189.15 91.7293 191.557 88.5181 194.694 85.5581C198.941 81.5517 202.545 80.1793 206.16 81.1913C208.372 81.8105 210.247 83.3505 213.021 86.8285C215.377 89.7813 216.565 90.3961 219.927 90.4001C223.314 90.4045 223.339 90.4589 223.019 97.1429C222.837 100.957 222.886 103.387 223.16 104.103C223.57 105.174 223.544 105.203 222.171 105.203C220.713 105.203 218.401 106.162 218.401 106.767C218.401 106.957 217.672 108.203 216.781 109.537C214.602 112.8 212.076 114.089 207.444 114.3C204.025 114.456 198.797 113.433 198.513 112.553C198.433 112.306 198.825 111.56 199.384 110.895C200.317 109.786 200.524 109.715 201.901 110.035C204.034 110.531 206.642 110.482 208.554 109.911C210.927 109.202 214.194 105.908 214.809 103.603C216.223 98.3057 212.878 90.7345 207.834 87.8117C204.291 85.7593 199.009 85.6489 195.317 87.5505C189.722 90.4329 186.207 98.7509 188.198 104.395C189.179 107.175 191.522 109.968 194.48 111.881C195.98 112.852 197.659 114.097 198.211 114.65C201.255 117.693 204.853 118.183 228.601 118.788C252.151 119.387 316.271 119.77 315.801 119.309C315.551 119.064 299.41 118.739 272.801 118.442C214.173 117.789 204.739 117.407 201.089 115.546C199.186 114.575 199.371 114.191 201.463 114.771C203.767 115.411 209.955 115.306 212.052 114.591C214.416 113.786 216.553 111.979 217.869 109.673C219.076 107.557 219.981 106.403 220.431 106.403C220.599 106.403 220.846 106.899 220.979 107.506C221.441 109.606 223.565 112.74 225.371 113.982C230.364 117.417 239.37 117.066 243.329 113.281C244.979 111.703 245.893 110.054 246.581 107.412C247.111 105.379 247.117 104.918 246.627 103.935L246.062 102.803H254.831C265.903 102.803 265.327 103.151 265.134 96.5789C264.979 91.2925 264.615 90.6377 261.364 89.8125L259.456 89.3281L259.325 83.5653C259.136 75.2693 258.919 73.6941 257.893 73.1445C256.905 72.6165 249.112 72.9485 246.701 73.6213C244.093 74.3489 244.837 75.0697 248.501 75.3657C252.791 75.7117 256.176 76.3885 255.743 76.8133C255.555 76.9985 253.781 77.4313 251.801 77.7757C246.933 78.6225 245.121 79.1637 245.305 79.7173C245.547 80.4433 247.093 80.7189 251.201 80.7689C257.855 80.8493 257.234 81.6321 249.457 82.9689C245.795 83.5981 244.449 84.2113 245.164 84.9257C245.382 85.1441 248.045 85.4317 251.081 85.5645L256.601 85.8065L252.157 86.2877C247.585 86.7825 245.601 87.3665 245.601 88.2177C245.601 89.2861 246.95 89.6505 252.212 90.0033C257.142 90.3337 258.485 90.5485 257.967 90.9229C257.875 90.9893 254.501 90.9445 250.468 90.8229C244.054 90.6301 243.07 90.5133 242.615 89.8905C241.715 88.6585 241.001 82.8261 241.001 76.7121V70.8221L242.111 69.7121C243.081 68.7433 243.513 68.6077 245.518 68.6437C246.873 68.6681 248.384 68.9805 249.207 69.4065C249.973 69.8033 251.951 70.3753 253.601 70.6777C255.251 70.9805 257.185 71.3357 257.901 71.4677C259.68 71.7957 259.656 70.7489 257.858 69.6381C253.798 67.1289 238.045 61.7061 231.724 60.6421C227.316 59.9001 210.321 58.7261 203.401 58.6857C197.572 58.6517 195.703 59.1813 194.821 61.1181C194.551 61.7101 194.072 64.8929 193.757 68.1905C193.367 72.2621 192.951 74.6385 192.457 75.5945C190.999 78.4225 187.849 79.6025 181.761 79.6025C175.775 79.6025 174.667 78.2817 174.717 71.2025C174.741 67.6869 175.421 60.0489 175.737 59.7325C175.788 59.6817 176.812 60.1269 178.013 60.7213C180.087 61.7477 180.495 61.8025 186.056 61.8025C191.349 61.8025 192 61.7253 192.798 61.0037C193.582 60.2953 193.653 59.9497 193.425 57.9381C193.085 54.9309 191.743 50.1657 190.729 48.3609C189.743 46.6057 188.053 45.7389 184.932 45.3857C180.065 44.8349 177.825 46.3617 176.591 51.0701C175.672 54.5733 175.2 55.0877 175.203 52.5825C175.206 49.5297 175.92 47.5641 177.609 45.9521C181.103 42.6193 187.343 42.3717 190.082 45.4573C190.791 46.2553 193.437 50.8493 195.031 54.0493C196.176 56.3469 197.752 57.0565 202.923 57.6013C206.974 58.0281 221.164 58.1449 222.168 57.7597C222.516 57.6261 222.801 57.1665 222.801 56.7381C222.801 55.7997 220.963 49.1641 220.191 47.3185C219.185 44.9105 217.713 45.9289 216.345 49.9809C215.757 51.7225 215.395 52.3205 215.156 51.9441C214.967 51.6461 214.809 51.1325 214.805 50.8025C214.8 50.4725 214.609 49.5277 214.379 48.7025C213.753 46.4449 212.858 46.7593 210.179 50.1789C208.897 51.8161 207.702 53.0653 207.524 52.9553C207.346 52.8453 207.201 51.9677 207.201 51.0049C207.201 46.2073 205.665 46.0029 201.175 50.2025C196.71 54.3777 195.926 54.2601 194.892 49.2613C194.393 46.8453 194.329 45.8061 194.648 45.3001C195.441 44.0425 197.81 43.8421 205.601 44.3737C219.677 45.3337 221.764 45.3693 222.355 44.6581C222.8 44.1213 222.763 43.8117 222.121 42.7125C220.452 39.8557 218.109 39.0657 209.306 38.3917C200.869 37.7461 176.188 37.7977 174.201 38.4653L172.601 39.0025L172.478 41.3889C172.336 44.1481 171.871 44.9753 170.785 44.3941C170.383 44.1789 168.961 44.0025 167.627 44.0025C166.293 44.0025 165.206 43.8673 165.213 43.7025C165.22 43.5377 165.557 39.5325 165.963 34.8025C166.368 30.0725 166.557 25.8241 166.382 25.3613C166.145 24.7321 165.589 24.4549 164.177 24.2613C162.187 23.9885 160.397 23.9965 158.901 24.2849ZM71.5058 39.6017C70.2438 39.7633 68.9486 40.1137 68.6278 40.3797C67.7462 41.1117 67.3386 43.7057 65.609 59.6025C64.735 67.6325 63.9354 74.6717 63.8318 75.2449L63.6434 76.2877L66.3222 75.3157C70.703 73.7265 70.337 75.1825 70.4778 58.7697L70.6006 44.4197L71.6182 43.4025C72.459 42.5621 73.2242 42.3185 76.0182 42.0013C77.8786 41.7905 95.5106 41.5693 115.201 41.5101C148.525 41.4101 151.088 41.4505 152.267 42.0957C154.258 43.1845 154.489 44.5097 154.218 53.2921C154.087 57.5329 153.882 62.2329 153.763 63.7373C153.567 66.1989 153.616 66.4581 154.251 66.3357C156.375 65.9269 157.164 60.8841 157.187 47.5653L157.201 39.7281L150.537 39.4653C141.609 39.1133 74.4114 39.2289 71.5058 39.6017ZM158.245 48.7025C157.833 63.3133 157.357 65.8029 154.722 67.0969C153.865 67.5177 153.678 67.9497 153.462 70.0153C153.156 72.9477 152.683 73.9149 151.301 74.4405C150.183 74.8653 138.567 74.9517 129.601 74.6017C126.631 74.4857 117.631 74.2101 109.601 73.9889C92.9486 73.5305 77.583 72.9113 74.5006 72.5745C73.1802 72.4301 72.4006 72.1549 72.4006 71.8329C72.4006 71.4765 73.4506 71.2397 75.8466 71.0557C77.7418 70.9101 79.5766 70.6317 79.9238 70.4373C80.475 70.1293 80.5594 68.6165 80.5894 58.5433C80.6242 46.8917 80.8578 44.7729 82.165 44.2717C84.053 43.5469 84.455 46.9745 83.9054 59.1153C83.573 66.4569 83.579 68.9409 83.9298 69.2917C84.3974 69.7593 95.7554 70.4045 96.4058 70.0005C96.5846 69.8893 96.8038 64.9393 96.8926 59.0005C97.0602 47.7981 97.3106 46.0001 98.8138 45.1953C99.8554 44.6381 100.647 45.0693 101.264 46.5313C101.678 47.5121 101.771 50.1413 101.672 58.0465C101.514 70.6213 101.605 71.0001 104.866 71.3945C106.04 71.5361 108.711 71.5961 110.801 71.5273L114.601 71.4025L114.825 59.6025C114.96 52.5489 115.225 47.3937 115.484 46.7861C116.678 43.9853 118.179 44.6189 118.841 48.2025C119.084 49.5225 119.4 55.3125 119.542 61.0697C119.684 66.8265 119.943 71.6793 120.118 71.8537C120.514 72.2493 133.413 72.9601 134.265 72.6333C134.814 72.4225 134.87 70.9261 134.744 59.8985C134.629 49.8701 134.711 47.1417 135.157 46.0821C135.836 44.4745 137.134 44.4609 137.895 46.0533C138.612 47.5533 139.186 53.7185 139.194 60.0025L139.201 65.4025L142.581 65.2621C144.69 65.1749 147.189 65.3709 149.226 65.7837C151.022 66.1473 152.562 66.3745 152.648 66.2881C152.735 66.2017 152.919 61.1973 153.059 55.1669C153.36 42.1145 153.709 43.0137 148.086 42.3489C143.685 41.8285 76.693 42.5785 74.2114 43.1761C73.3374 43.3865 72.417 43.8389 72.1662 44.1817C71.4182 45.2049 71.153 50.2733 71.2326 62.0445C71.2954 71.3117 71.2082 73.3321 70.7134 74.0909L70.119 75.0025L80.1598 75.0853C85.6822 75.1305 95.2406 75.3493 101.401 75.5713C123.492 76.3669 158.389 77.3473 158.547 77.1765C158.635 77.0809 159.119 68.9585 159.623 59.1269C160.375 44.4501 160.447 41.1397 160.021 40.6269C158.67 38.9993 158.495 39.7941 158.245 48.7025ZM165.401 45.2025C165.246 45.4525 166.063 45.6025 167.577 45.6025C168.926 45.6025 170.001 45.4253 170.001 45.2025C170.001 44.9825 169.021 44.8025 167.824 44.8025C166.627 44.8025 165.537 44.9825 165.401 45.2025ZM82.245 45.8625C81.2918 48.8661 80.9698 58.0525 81.5602 65.3873C81.9462 70.1805 81.8278 70.7457 80.3002 71.3881C79.2466 71.8309 79.7274 71.9157 84.6582 72.1577C92.215 72.5277 112.605 73.1833 116.901 73.1937C120.3 73.2021 120.379 73.1813 119.664 72.4661C119.003 71.8053 118.899 70.6761 118.645 61.4797C118.365 51.3105 117.968 47.0101 117.242 46.2841C116.305 45.3465 115.885 49.2433 115.744 60.1885C115.623 69.5933 115.502 71.4725 114.984 71.9885C114.122 72.8485 103.86 72.6613 102.483 71.7609C100.798 70.6589 100.659 69.5981 100.753 58.5833C100.839 48.4729 100.611 46.0025 99.5902 46.0025C99.3534 46.0025 98.8698 46.6777 98.5154 47.5025C97.9978 48.7077 97.825 51.1645 97.6358 60.0025L97.4006 71.0025L90.6006 70.8585C86.4422 70.7705 83.5886 70.5425 83.2554 70.2717C82.8058 69.9073 82.7594 67.8221 82.9906 58.4161C83.161 51.4729 83.1226 46.6133 82.8922 46.0089C82.5238 45.0425 82.5066 45.0385 82.245 45.8625ZM135.988 46.6025C135.645 47.4833 135.595 50.9697 135.801 59.7109C136.047 70.1289 136.004 71.7381 135.459 72.5689C134.879 73.4537 134.891 73.5329 135.628 73.7257C137.097 74.1097 149.461 74.0357 150.511 73.6365C151.885 73.1145 152.308 72.2333 152.447 69.6057L152.563 67.4277L150.182 66.9297C146.283 66.1149 141.464 65.8333 140.474 66.3633C139.719 66.7673 139.601 67.1697 139.601 69.3401C139.601 72.1297 138.773 73.9245 138.005 72.8025C137.21 71.6429 137.081 70.2349 137.623 68.6265C138.278 66.6793 138.217 52.3185 137.539 48.8025C136.927 45.6329 136.567 45.1217 135.988 46.6025ZM165.015 47.8025C164.495 51.1653 163.537 68.3597 163.66 72.1353C163.814 76.8801 164.178 77.6025 166.415 77.6025C169.237 77.6025 169.641 75.3573 170.635 54.1285C170.996 46.4213 171.057 46.5849 167.816 46.5945C165.22 46.6025 165.199 46.6113 165.015 47.8025ZM179.898 46.8361C178.574 47.6069 177.467 50.6489 176.178 57.0629C175.869 58.6009 178.263 60.2397 181.655 60.8117C184.501 61.2917 190.283 61.1693 191.701 60.5985C192.652 60.2157 192.616 58.0181 191.587 53.6353C190.604 49.4505 189.634 47.7429 187.805 46.9785C186.219 46.3157 180.954 46.2209 179.898 46.8361ZM217.641 49.3861C217.192 50.5873 216.709 52.0289 216.568 52.5901C215.98 54.9341 214.661 54.1081 213.955 50.9533C213.685 49.7501 213.339 48.6877 213.184 48.5921C213.029 48.4965 211.788 49.7757 210.426 51.4349C207.314 55.2269 206.704 55.2389 206.335 51.5157C206.062 48.7593 205.817 48.0025 205.194 48.0025C204.996 48.0025 203.391 49.3525 201.627 51.0025C199.007 53.4525 198.179 54.0049 197.109 54.0153L195.801 54.0277L196.876 54.9749C198.421 56.3349 201.88 56.7621 212.401 56.8917L221.401 57.0025L221.331 55.4025C221.247 53.4905 219.315 47.2025 218.812 47.2025C218.617 47.2025 218.091 48.1853 217.641 49.3861ZM197.605 60.1249C195.701 60.7765 195.284 61.8673 194.807 67.4425C194.412 72.0569 194.178 73.7705 193.723 75.3685C193.557 75.9493 193.935 75.7821 195.285 74.6761C198.715 71.8653 200.313 71.3989 206.401 71.4321C217.597 71.4929 229.202 75.3301 232.322 80.0025C232.836 80.7725 233.458 82.1565 233.705 83.0785C234.025 84.2741 234.409 84.8181 235.045 84.9781C235.536 85.1009 237.139 86.0077 238.608 86.9929C240.218 88.0725 241.179 88.5241 241.028 88.1297C240.89 87.7697 240.496 85.1189 240.153 82.2389C239.14 73.7473 239.827 69.4657 242.423 68.0833C243.856 67.3201 248.387 67.6861 250.063 68.7005C250.841 69.1725 252.385 69.5877 253.757 69.6945L256.113 69.8777L254.757 69.1857C252.352 67.9589 242.597 64.4405 237.731 63.0445C232.054 61.4161 228.781 60.9841 216.201 60.2025C204.825 59.4957 199.509 59.4737 197.605 60.1249ZM202.163 72.4149C198.325 73.1757 195.599 75.0261 191.859 79.4093C188.898 82.8793 186.347 87.5033 185.463 91.0025C184.751 93.8253 184.205 98.0025 184.549 98.0025C184.681 98.0025 185.356 96.8777 186.049 95.5025C190.608 86.4621 197.989 80.0025 203.762 80.0025C207.608 80.0025 209.699 81.4361 215.045 87.7361C216.121 89.0045 216.526 89.2049 218.045 89.2201C220.393 89.2433 223.159 89.8005 223.722 90.3641C224.038 90.6801 224.144 92.8505 224.063 97.3837C223.92 105.44 223.62 105.079 229.934 104.421C235.215 103.871 242.513 102.824 242.754 102.583C242.853 102.483 241.393 102.403 239.51 102.403C234.283 102.403 227.967 101.652 226.627 100.872C225.205 100.044 224.63 98.2713 225.315 96.8269C226.033 95.3113 228.802 94.1393 234.309 93.0197C239.497 91.9649 240.801 91.4921 240.801 90.6669C240.801 89.8445 238.363 87.7389 236.105 86.6113L234.009 85.5649L232.805 86.9361C231.373 88.5673 229.253 89.2069 225.323 89.1929C220.439 89.1757 217.527 87.9793 217.276 85.8857C217.178 85.0637 217.416 84.7117 218.423 84.1909C220.185 83.2797 224.737 83.0125 228.95 83.5729C230.898 83.8325 232.583 83.9533 232.694 83.8421C233.199 83.3373 232.214 81.3689 230.585 79.6277C227.589 76.4245 220.819 73.9241 211.589 72.6125C207.025 71.9637 204.685 71.9149 202.163 72.4149ZM250.801 74.4089C251.571 74.5865 253.222 74.9377 254.47 75.1893C255.718 75.4405 256.971 75.9257 257.255 76.2677C258.078 77.2597 256.813 77.8685 252.255 78.6741C248.306 79.3721 248.247 79.3981 250.001 79.6669C250.991 79.8189 252.824 79.9565 254.075 79.9729C255.325 79.9893 256.811 80.1785 257.377 80.3933L258.405 80.7841L258.169 77.8933C258.04 76.3033 257.865 74.7777 257.78 74.5025C257.669 74.1413 256.484 74.0141 253.513 74.0437C250.461 74.0745 249.761 74.1685 250.801 74.4089ZM66.6242 76.2345C65.317 76.7629 64.0826 77.3605 63.881 77.5621C63.297 78.1461 64.9202 78.7865 67.6822 79.0617C70.5566 79.3481 71.6006 79.7681 71.6006 80.6385C71.6006 80.9729 71.0606 82.5153 70.4006 84.0665C68.9442 87.4889 68.869 88.2761 70.183 86.3421C72.105 83.5141 76.6686 80.7993 79.4878 80.8065C82.931 80.8153 87.8474 84.5881 88.8022 87.9533C90.2858 93.1841 89.3538 99.7801 86.7238 102.661C86.293 103.132 86.089 103.61 86.2706 103.721C86.4522 103.833 88.3106 104.39 90.4006 104.959C95.1226 106.244 101.375 107.205 104.801 107.174L107.401 107.15L105.001 106.284C103.135 105.611 101.968 104.794 99.7582 102.611C95.3158 98.2221 94.1642 95.1969 95.3642 91.0685C96.169 88.3005 99.499 84.5185 102.305 83.1869C108.759 80.1237 115.004 84.5785 115.505 92.6025C115.779 96.9941 115.009 102.552 113.835 104.653C113.149 105.88 112.987 106.487 113.318 106.589C113.583 106.67 118.121 106.827 123.401 106.939C131.563 107.113 132.731 107.067 131.198 106.639C128.765 105.959 127.799 105.402 125.707 103.474C123.006 100.984 121.826 98.4109 121.824 95.0025C121.822 91.3929 122.817 89.1693 125.883 85.9353C129.91 81.6877 134.751 80.1401 138.317 81.9601C140.211 82.9265 140.971 83.7821 141.996 86.0989C142.925 88.1993 143.218 92.9013 142.682 97.0933L142.363 99.5837L144.372 98.5413L146.381 97.4989L156.691 98.1533C173.579 99.2249 177.66 99.3293 178.801 98.7197C179.963 98.0985 180.699 95.3441 180.762 91.3825C180.801 88.9517 180.379 88.0025 179.261 88.0025C178.771 88.0025 178.723 88.7493 178.951 92.7845L179.221 97.5661L177.511 98.0345C174.306 98.9125 159.368 97.9005 155.696 96.5565C153.605 95.7913 153.212 95.0997 152.928 91.6821C152.736 89.3821 152.819 88.8613 153.515 88.0049C154.318 87.0177 154.413 87.0041 162.863 86.7013C167.559 86.5329 172.91 86.5049 174.754 86.6393L178.107 86.8833L177.829 85.7429C177.165 83.0289 174.926 82.2945 168.401 82.6525C163.306 82.9317 162.001 82.5633 162.001 80.8453C162.001 80.1977 161.891 79.3833 161.758 79.0353C161.374 78.0349 159.769 78.2961 158.499 79.5653C157.596 80.4685 156.808 80.7965 154.969 81.0353C152.989 81.2925 113.077 80.3313 102.601 79.7741C100.841 79.6805 94.8106 79.4201 89.2006 79.1953C78.3754 78.7617 71.7706 78.1993 70.1178 77.5709C69.3238 77.2689 69.1502 76.9777 69.2998 76.1953C69.5246 75.0205 69.629 75.0189 66.6242 76.2345ZM70.4006 76.3525C70.4006 77.4301 81.2146 78.0945 120.401 79.4249C144.709 80.2501 155.934 80.3269 157.101 79.6765C159.5 78.3381 158.054 78.1941 136.201 77.5953C127.841 77.3661 113.081 76.9177 103.401 76.5985C83.353 75.9373 70.4006 75.8405 70.4006 76.3525ZM63.4322 79.6609C63.1902 80.4085 62.0594 91.0013 61.743 95.4873L61.483 99.1717L65.0418 98.9317C66.999 98.7997 68.6558 98.6465 68.723 98.5913C68.7902 98.5361 68.5654 97.4101 68.223 96.0889C67.259 92.3693 67.427 89.5125 68.8394 85.6025C70.3322 81.4689 70.5994 80.4049 70.1474 80.3945C69.2066 80.3725 64.915 79.6397 64.3038 79.3969C63.871 79.2245 63.541 79.3241 63.4322 79.6609ZM256.764 82.1049C255.974 82.4913 253.724 83.1529 251.764 83.5753L248.201 84.3429L251.046 84.3729C252.611 84.3889 254.845 84.5833 256.011 84.8045C257.176 85.0253 258.202 85.1349 258.289 85.0473C258.377 84.9601 258.392 84.1041 258.324 83.1453L258.201 81.4025L256.764 82.1049ZM77.9982 81.9637C74.8674 82.9549 71.4782 85.7185 70.347 88.2025C68.0226 93.3057 72.0886 101.307 77.2858 101.856L79.0006 102.037L76.9738 100.92C72.8122 98.6257 72.0006 97.5557 72.0006 94.3637C72.0006 86.6245 78.1262 83.1329 83.2766 87.9369C86.6634 91.0961 86.545 97.4965 83.0386 100.772C82.4678 101.306 82.0006 101.861 82.0006 102.005C82.0006 102.15 82.6158 102.457 83.3682 102.688C84.6362 103.077 84.8266 103.014 85.9894 101.814C87.6746 100.075 88.4014 97.4265 88.3966 93.0389C88.3934 90.0681 88.221 89.0337 87.4538 87.3861C85.675 83.5665 81.1434 80.9677 77.9982 81.9637ZM133.001 82.3569C127.701 83.7333 122.684 89.9393 122.745 95.0425C122.806 100.2 127.061 104.995 132.323 105.837C134.109 106.122 136.459 105.497 137.269 104.52C137.756 103.933 137.699 103.932 136.587 104.507C133.801 105.947 130.861 105.643 128.659 103.687C127.609 102.756 126.076 99.3785 125.767 97.3193C124.987 92.1133 128.689 87.2073 133.401 87.2061C136.183 87.2053 137.649 88.2073 139.055 91.0685C140.078 93.1533 140.201 93.8193 140.201 97.3081C140.201 101.889 140.825 101.8 141.617 97.1041C142.301 93.0517 141.969 88.2157 140.848 85.9009C139.418 82.9457 136.247 81.5141 133.001 82.3569ZM102.946 83.9713C97.565 86.4149 94.6254 92.5709 96.6698 97.1153L97.3386 98.6025L97.6194 96.2025C98.0842 92.2249 99.251 90.1421 101.931 88.5045C104.797 86.7537 107.83 87.8109 109.268 91.0617C109.917 92.5285 110.05 93.5153 109.927 95.9509C109.657 101.272 107.916 103.343 103.694 103.363L101.587 103.374L103.094 104.291C104.689 105.262 106.426 105.849 108.924 106.261C112.319 106.821 113.756 104.549 114.397 97.6025C114.693 94.4065 114.696 92.3381 114.407 90.8261C113.266 84.8417 107.985 81.6833 102.946 83.9713ZM221.039 84.4065C218.67 84.8261 217.625 85.6685 218.367 86.5621C219.253 87.6297 221.718 88.1821 225.601 88.1829C229.637 88.1837 231.559 87.5757 232.382 86.0369C232.743 85.3625 232.58 85.2325 230.894 84.8553C228.1 84.2301 223.277 84.0101 221.039 84.4065ZM76.0022 87.2965C74.3398 88.1757 73.0766 90.9593 73.0358 93.8333C72.991 97.0085 73.7458 98.1001 77.2974 99.9957C80.4386 101.673 81.5422 101.485 83.305 98.9769C85.6446 95.6481 85.0814 90.3729 82.1482 88.1353C80.521 86.8945 77.5338 86.4865 76.0022 87.2965ZM252.801 87.2009C248.655 87.5433 246.609 87.9745 247.061 88.4113C247.248 88.5917 249.876 88.8677 252.901 89.0249L258.401 89.3105V88.0565C258.401 86.6409 258.817 86.7045 252.801 87.2009ZM196.93 87.8577C193.342 89.1293 190.273 92.9921 189.007 97.8325C188.27 100.65 188.516 103.024 189.814 105.611C190.799 107.573 193.935 110.734 195.913 111.757C197.123 112.383 197.167 112.373 197.91 111.3C199.288 109.31 199.298 109.22 198.195 108.8C196.338 108.094 193.698 106.055 192.837 104.661C191.173 101.969 192.21 96.5513 194.853 94.1221C196.454 92.6501 199.503 91.4949 201.03 91.7817C204.315 92.3981 206.465 96.3461 205.605 100.185C205.13 102.301 204.047 104.591 202.344 107.078C201.713 107.999 201.343 108.843 201.521 108.954C202.589 109.613 206.066 109.645 207.971 109.012C214.411 106.873 216.059 100.237 211.884 93.2573C209.373 89.0589 205.968 87.1697 201.028 87.2341C199.693 87.2513 197.849 87.5321 196.93 87.8577ZM155.201 87.9589C154.275 88.2149 154.192 88.4401 154.081 90.9601C153.937 94.2501 154.471 95.2573 156.715 95.9297C159.349 96.7189 166.24 97.2409 172.401 97.1181L178.201 97.0025L178.055 92.6025C177.975 90.1825 177.829 88.0677 177.731 87.9025C177.509 87.5281 156.568 87.5805 155.201 87.9589ZM131.001 88.5453C126.073 90.8249 125.293 99.0629 129.633 102.985C131.575 104.739 133.587 104.867 136.673 103.43C138.438 102.608 138.809 102.237 139.171 100.934C140.163 97.3629 139.191 92.2497 137.05 89.7729C136.033 88.5965 135.464 88.2953 134 88.1585C132.954 88.0605 131.698 88.2225 131.001 88.5453ZM103.201 88.8517C98.5114 90.7217 96.7254 99.3049 100.542 101.632C102.105 102.585 105.448 102.665 106.714 101.778C108.086 100.817 108.83 99.0041 109.081 96.0117C109.373 92.5293 108.256 89.8357 106.156 88.9581C104.627 88.3193 104.544 88.3165 103.201 88.8517ZM258.904 91.1861C258.437 91.9333 258.066 91.9585 250.907 91.7317C246.779 91.6009 243.083 91.3305 242.695 91.1309C242.192 90.8725 241.924 90.9369 241.764 91.3541C241.437 92.2073 239.184 92.9961 234.201 94.0025C227.284 95.3993 226.001 96.1185 226.001 98.5965C226.001 100.135 227.794 100.71 234.06 101.179C240.646 101.673 263.411 101.916 263.835 101.497C264.387 100.953 264.523 94.5853 264.016 93.0493C263.492 91.4617 262.922 91.0377 260.797 90.6549C259.667 90.4517 259.298 90.5553 258.904 91.1861ZM197.059 93.7397C193.991 95.5965 192.171 99.8825 193.167 102.901C193.414 103.649 194.197 104.814 194.908 105.491C196.22 106.741 199.027 108.403 199.827 108.403C200.359 108.403 202.366 105.648 203.581 103.251C205.352 99.7585 205.044 95.2813 202.918 93.6089C201.506 92.4985 199.018 92.5541 197.059 93.7397ZM0.200639 104.003C0.540639 104.553 34.4006 104.553 34.4006 104.003C34.4006 103.742 28.3926 103.603 17.177 103.603C5.79664 103.603 0.0374393 103.738 0.200639 104.003ZM35.9258 103.876C36.2142 103.991 36.5594 103.977 36.6922 103.844C36.825 103.711 36.589 103.617 36.1674 103.634C35.7014 103.653 35.6066 103.748 35.9258 103.876ZM239.222 104.239C234.43 104.936 233.735 105.233 237.601 104.933C242.749 104.532 242.588 104.513 242.73 105.517C242.802 106.02 242.397 107.221 241.831 108.187C240.04 111.243 234.535 113.169 230.961 111.989C230.108 111.708 228.393 110.508 227.151 109.322C225.559 107.804 224.464 107.098 223.446 106.933C222.269 106.741 222.001 106.822 222.001 107.366C222.001 109.254 224.883 112.85 227.417 114.125C231.128 115.991 237.77 115.775 241.201 113.675C243.334 112.37 245.443 109.123 245.829 106.552C246.315 103.314 246.097 103.238 239.222 104.239ZM232.687 105.902L225.574 106.021L226.687 107.481C227.3 108.285 228.503 109.45 229.361 110.072C230.678 111.027 231.311 111.203 233.427 111.203C237.413 111.203 240.508 109.491 241.564 106.703C241.959 105.661 241.923 105.607 240.891 105.693C240.291 105.742 236.6 105.837 232.687 105.902Z" fill="black"/>
<path fill-rule="evenodd" clip-rule="evenodd" d="M105.018 1.21644C104.464 1.33532 103.554 1.64472 102.996 1.90385C99.9723 3.31016 99.4573 5.83924 101.691 8.31299C102.07 8.73318 102.356 9.09501 102.326 9.11726C102.296 9.13936 101.524 9.52488 100.611 9.97367C98.6334 10.9452 97.7541 11.573 97.0762 12.4971C96.5966 13.1506 96.1328 14.3557 96.1328 14.9478C96.1328 15.0999 96.2318 15.5575 96.3527 15.9646C96.6872 17.0913 97.7619 18.1835 99.2215 18.8801C100.687 19.5797 101.534 19.7559 103.398 19.7495C106.111 19.7403 108.071 19.2213 111.263 17.6672L113.177 16.7354V14.8102L112.78 15.0626C112.562 15.2014 112.174 15.4702 111.919 15.6597C111.132 16.2459 109.431 16.9885 108.299 17.2402C107.003 17.5284 104.785 17.4563 103.788 17.0935C102.377 16.5797 101.231 15.4984 100.944 14.4101C100.615 13.1623 101.282 12.0371 102.82 11.2465C103.721 10.783 103.878 10.7512 105.579 10.6858L107.382 10.6163L107.896 9.78315C108.179 9.32483 108.411 8.91908 108.411 8.88124C108.411 8.84354 108.066 8.78403 107.644 8.74907C105.538 8.57444 104.215 6.97443 104.529 4.98369C104.745 3.61855 105.558 2.82959 106.843 2.73657C107.946 2.65684 108.726 3.03962 110.078 4.32358L111.114 5.30754L112.874 3.21641L112.5 2.82627C111.941 2.24228 110.274 1.42256 109.17 1.1887C107.937 0.927404 106.317 0.938238 105.018 1.21644Z" fill="#FF0B0B"/>
<path fill-rule="evenodd" clip-rule="evenodd" d="M115.044 17.2963H116.922V13.3963H117.633C118.571 13.3963 118.884 13.6716 120.24 15.6901L121.318 17.2963H122.451C123.318 17.2963 123.559 17.2538 123.477 17.1157C122.647 15.7102 121.471 14.0785 120.993 13.6692L120.39 13.1528L120.97 12.9791C121.73 12.7515 122.496 12.0655 122.708 11.4229C122.978 10.603 122.818 9.46149 122.345 8.84139C121.679 7.96807 121.266 7.86898 117.969 7.79358L115.044 7.72656V17.2963ZM116.922 11.989L118.535 11.8845C119.422 11.8271 120.237 11.7457 120.346 11.704C120.601 11.6061 120.967 10.8993 120.967 10.5035C120.967 10.3345 120.777 10.0063 120.544 9.77406C120.129 9.35821 120.098 9.35185 118.522 9.35185H116.922V11.989ZM126.556 10.7931L125.878 11.2233V10.8653C125.878 10.5242 125.837 10.5074 125.011 10.5074H124.144V17.2963H126.003L126.094 12.3595L126.5 12.0112C127.014 11.5692 127.751 11.548 128.128 11.9644C128.368 12.2301 128.407 12.5647 128.456 14.7811L128.511 17.2963H130.186L130.235 14.9491C130.287 12.4482 130.37 12.1232 131.041 11.8177C131.563 11.5798 132.017 11.6326 132.319 11.9666C132.564 12.2361 132.599 12.5529 132.64 14.7833L132.685 17.2963H134.4V14.6195C134.4 11.6049 134.294 11.1362 133.506 10.6556C133.176 10.4543 132.775 10.3638 132.212 10.3635C131.52 10.3631 131.283 10.4389 130.652 10.8632C130.071 11.2546 129.892 11.318 129.829 11.155C129.666 10.729 128.829 10.363 128.02 10.363C127.396 10.363 127.094 10.4518 126.556 10.7931ZM85.0963 27.2149C85.0433 27.2677 85 28.0477 85 28.9482V30.5852H85.8554L85.9389 28.0574L86.2775 29.3213C86.5739 30.4275 86.6559 30.5852 86.9357 30.5852C87.2119 30.5852 87.2916 30.4426 87.5207 29.538C87.9215 27.9557 88.0241 27.9121 88.029 29.3213C88.0333 30.572 88.0371 30.5852 88.3944 30.5852H88.7556V27.1019L87.5447 27.1907L87.3079 28.1296C86.9072 29.7194 86.9714 29.7535 86.4291 27.6602C86.2981 27.1541 86.2529 27.1185 85.7407 27.1185C85.4393 27.1185 85.1492 27.1619 85.0963 27.2149ZM89.4778 30.5852H90.3444V27.1185H89.4778V30.5852ZM91.0667 30.5852H91.4214C91.7617 30.5852 91.7779 30.5421 91.8186 29.538L91.8611 28.4907L92.4389 29.537C92.9313 30.4288 93.0736 30.5835 93.4019 30.5842C93.6137 30.5848 93.8087 30.5215 93.8352 30.4436C93.8617 30.3658 93.863 29.5858 93.8383 28.7103C93.7935 27.132 93.7902 27.1185 93.441 27.1185C93.0983 27.1185 93.0889 27.1483 93.0874 28.238L93.086 29.3574L92.4701 28.2741C91.9673 27.3896 91.7818 27.1824 91.4604 27.1451L91.0667 27.0993V30.5852ZM94.5333 30.5852H95.4V27.1185H94.5333V30.5852ZM96.1222 30.5852H96.477C96.8173 30.5852 96.8335 30.5421 96.8742 29.538L96.9167 28.4907L97.4944 29.5355C98.0283 30.501 98.1082 30.5804 98.5463 30.5827L99.0202 30.5852L98.9389 27.1907H98.5778C98.2289 27.1907 98.2152 27.2271 98.1738 28.2608L98.1309 29.3308L97.5238 28.2608C97.0263 27.3839 96.845 27.1825 96.5194 27.1451L96.1222 27.0993V30.5852ZM100.187 27.4844C98.8849 28.5804 99.5486 30.5852 101.214 30.5852C101.48 30.5852 101.784 30.504 101.889 30.4046C102.042 30.2602 102.094 30.2602 102.147 30.4046C102.183 30.504 102.338 30.5852 102.49 30.5852C102.734 30.5852 102.767 30.4753 102.767 29.6463V28.7074H102.044C101.419 28.7074 101.322 28.746 101.322 28.9963C101.322 29.1923 101.419 29.2852 101.622 29.2852C101.829 29.2852 101.906 29.363 101.873 29.538C101.84 29.7132 101.664 29.8043 101.299 29.8348C100.699 29.8849 100.311 29.4988 100.311 28.8519C100.311 28.0193 101.281 27.4857 101.756 28.0574C101.951 28.2924 102.622 28.3576 102.622 28.1415C102.622 27.2072 101.028 26.7771 100.187 27.4844ZM108.347 27.418C107.907 27.7639 107.835 28.4165 108.202 28.7259C108.331 28.8348 108.737 29.0216 109.105 29.1407C109.604 29.3027 109.772 29.4304 109.772 29.6463C109.772 30.0668 109.055 30.127 108.805 29.7275C108.69 29.5436 108.467 29.4296 108.221 29.4296C107.715 29.4296 107.697 29.7513 108.177 30.2306C108.94 30.9938 110.711 30.5349 110.711 29.5739C110.711 29.0461 110.418 28.7588 109.657 28.5416C108.787 28.2927 108.618 28.1387 108.903 27.8533C109.112 27.6444 109.171 27.6466 109.572 27.877C110.459 28.3859 110.95 28.0186 110.186 27.418C109.956 27.2365 109.593 27.1185 109.267 27.1185C108.94 27.1185 108.578 27.2365 108.347 27.418ZM111 27.4796C111 27.796 111.063 27.8407 111.506 27.8407H112.011V30.5852H112.878V27.8407H113.383C113.826 27.8407 113.889 27.796 113.889 27.4796V27.1185H111V27.4796ZM114.322 30.5852H115.694C117.062 30.5852 117.067 30.5839 117.067 30.2241C117.067 29.876 117.033 29.863 116.128 29.863C115.223 29.863 115.189 29.85 115.189 29.5019C115.189 29.1604 115.232 29.1407 115.983 29.1407C116.681 29.1407 116.778 29.1058 116.778 28.8519C116.778 28.5979 116.681 28.563 115.983 28.563C115.232 28.563 115.189 28.5433 115.189 28.2019C115.189 27.8568 115.227 27.8407 116.056 27.8407C116.884 27.8407 116.922 27.8247 116.922 27.4796C116.922 27.1213 116.913 27.1185 115.622 27.1185H114.322V30.5852ZM117.644 30.5852H119.017C120.377 30.5852 120.389 30.5822 120.389 30.2307C120.389 29.8936 120.341 29.8741 119.414 29.8335C118.549 29.7957 118.439 29.758 118.439 29.5019C118.439 29.2515 118.55 29.2072 119.269 29.1696C119.974 29.1329 120.1 29.0847 120.1 28.8519C120.1 28.619 119.974 28.5708 119.269 28.5341C118.55 28.4965 118.439 28.4522 118.439 28.2019C118.439 27.9484 118.55 27.9078 119.342 27.8699C120.192 27.8295 120.244 27.8064 120.244 27.4727C120.244 27.123 120.228 27.1185 118.944 27.1185H117.644V30.5852ZM120.967 30.5852H122.122C123.259 30.5852 123.278 30.5791 123.278 30.2241C123.278 29.8826 123.234 29.863 122.483 29.863H121.689V28.4907C121.689 27.1233 121.688 27.1185 121.328 27.1185H120.967V30.5852ZM128.478 30.5852H128.911C129.318 30.5852 129.344 30.5511 129.344 30.0258V29.4663L130.091 29.3947C130.96 29.3112 131.222 29.0502 131.222 28.2689C131.222 27.4883 130.881 27.2586 129.575 27.1598L128.478 27.0768V30.5852ZM132.559 27.2672C131.573 27.6637 131.367 29.4195 132.217 30.1794C133.029 30.9046 134.264 30.6801 134.762 29.7169C135.53 28.231 134.105 26.6458 132.559 27.2672ZM135.267 27.2612C135.267 27.3931 135.756 29.2442 136.078 30.3324C136.126 30.4956 136.297 30.5852 136.56 30.5852C136.949 30.5852 136.975 30.5408 137.147 29.6102C137.407 28.1975 137.51 28.1153 137.709 29.1615C137.974 30.5573 137.988 30.5852 138.43 30.5852C138.815 30.5852 138.846 30.529 139.233 29.1046C139.454 28.2904 139.669 27.5052 139.71 27.3597C139.771 27.1408 139.713 27.1036 139.367 27.1431C138.97 27.1884 138.939 27.2445 138.731 28.3007C138.61 28.9112 138.472 29.4504 138.423 29.4991C138.375 29.5478 138.289 29.3408 138.234 29.0392C137.889 27.1629 137.863 27.0992 137.46 27.1464C137.114 27.187 137.065 27.2767 136.889 28.2019C136.598 29.7292 136.54 29.7502 136.283 28.4185C136.06 27.2617 136.024 27.1881 135.657 27.1451C135.438 27.1194 135.267 27.1704 135.267 27.2612ZM140.178 30.5852H141.478C142.761 30.5852 142.778 30.5807 142.778 30.231C142.778 29.8973 142.725 29.8742 141.875 29.8338C141.064 29.7951 140.967 29.7577 140.926 29.4657C140.883 29.1594 140.93 29.1407 141.757 29.1407C142.53 29.1407 142.633 29.1074 142.633 28.8591C142.633 28.6174 142.515 28.5712 141.803 28.5341C141.067 28.4957 140.967 28.4536 140.926 28.1657C140.882 27.8571 140.927 27.8407 141.829 27.8407C142.745 27.8407 142.778 27.8282 142.778 27.4796C142.778 27.1213 142.768 27.1185 141.478 27.1185H140.178V30.5852ZM143.472 27.2269C143.448 27.2864 143.428 28.0502 143.428 28.9241V30.513L143.825 30.5586C144.207 30.6027 144.222 30.5791 144.222 29.9447C144.222 29.2885 144.225 29.2852 144.723 29.2852C145.273 29.2852 145.522 29.5744 145.522 30.2145C145.522 30.5283 145.587 30.5852 145.946 30.5852C146.355 30.5852 146.368 30.5648 146.29 30.0435C146.246 29.7457 146.129 29.3711 146.03 29.2112C145.884 28.9758 145.887 28.8855 146.047 28.736C146.264 28.5338 146.307 27.8748 146.124 27.5854C146.06 27.4845 145.785 27.3384 145.513 27.2604C144.931 27.0935 143.537 27.0707 143.472 27.2269ZM129.344 28.3372C129.344 28.7785 129.392 28.8519 129.678 28.8519C129.861 28.8519 130.138 28.7581 130.292 28.6437C130.679 28.3564 130.407 27.9281 129.799 27.8678C129.366 27.8246 129.344 27.8465 129.344 28.3372ZM132.761 28.1049C132.492 28.4022 132.446 29.1621 132.672 29.5836C132.775 29.7764 132.975 29.863 133.317 29.863C133.89 29.863 134.111 29.5705 134.111 28.8116C134.111 27.9666 133.28 27.5315 132.761 28.1049ZM144.222 28.2741C144.222 28.67 144.264 28.7074 144.71 28.7074C145.309 28.7074 145.645 28.38 145.378 28.0574C145.279 27.9382 144.978 27.8407 144.71 27.8407C144.264 27.8407 144.222 27.8782 144.222 28.2741ZM104.971 28.1727C104.386 28.4335 104.378 29.2767 104.957 29.5865C105.669 29.9678 106.466 29.1561 106.031 28.4923C105.772 28.0964 105.396 27.983 104.971 28.1727ZM125.485 28.1423C125.148 28.2676 124.922 28.8435 125.064 29.2138C125.11 29.3339 125.309 29.5058 125.507 29.5959C125.796 29.7276 125.937 29.7127 126.233 29.519C127.064 28.9746 126.422 27.7939 125.485 28.1423Z" fill="#2F55A6"/>
<path fill-rule="evenodd" clip-rule="evenodd" d="M117.903 0.16007C116.593 0.74377 116.744 2.87245 118.125 3.28628C118.579 3.42249 118.822 3.41671 119.324 3.25797C119.951 3.0595 119.952 3.05763 119.996 2.30074L120.04 1.5424H119.382C118.821 1.5424 118.724 1.58473 118.724 1.83129C118.724 2.04319 118.821 2.12018 119.086 2.12018C119.47 2.12018 119.56 2.38249 119.273 2.66907C119.001 2.94178 118.223 2.87721 117.934 2.55799C117.579 2.16583 117.571 1.21697 117.919 0.832315C118.237 0.481315 118.899 0.436248 119.158 0.747959C119.346 0.975026 120.024 1.05129 120.024 0.845315C120.024 0.779738 119.878 0.590082 119.699 0.423682C119.265 0.0190927 118.479 -0.0963185 117.903 0.16007ZM121.549 0.130459C121.459 0.419203 121.18 2.52593 121.18 2.92055C121.18 3.17939 121.258 3.27574 121.469 3.27574C121.672 3.27574 121.758 3.17881 121.76 2.95074C121.767 1.72874 122.344 1.65926 122.959 2.80629C123.234 3.32008 123.455 3.56463 123.645 3.56463C124.004 3.56463 123.996 3.47897 123.562 2.71934C123.144 1.98802 123.141 1.97574 123.397 1.97574C123.699 1.97574 124.069 1.48549 124.069 1.08394C124.069 0.583725 123.675 0.272448 122.91 0.168015C122.554 0.119482 122.116 0.0497146 121.935 0.0130257C121.745 -0.025541 121.583 0.023859 121.549 0.130459ZM122.072 0.982681C122.116 1.44173 122.154 1.47278 122.714 1.51366C123.172 1.54717 123.332 1.49936 123.406 1.30754C123.536 0.969537 123.242 0.717193 122.578 0.596004L122.026 0.495181L122.072 0.982681ZM125.819 1.4891C125.634 1.61867 125.392 1.9415 125.281 2.2067C124.729 3.52938 125.4 4.57574 126.801 4.57574C127.856 4.57574 128.638 3.25306 128.201 2.20728C127.842 1.3487 126.568 0.964481 125.819 1.4891ZM126.41 1.84747C126.088 1.96765 125.658 2.74433 125.658 3.20539C125.658 3.50353 126.301 4.1424 126.601 4.1424C127.03 4.1424 127.68 3.34218 127.678 2.81742C127.677 2.55308 127.627 2.25972 127.567 2.16539C127.387 1.88344 126.769 1.71343 126.41 1.84747ZM129.535 3.92184C128.532 4.7547 128.336 5.10513 128.555 5.68016C128.742 6.173 129.396 6.7424 129.774 6.7424C130.087 6.7424 130.734 6.32207 131.721 5.47635C132.157 5.1031 132.198 5.01485 132.03 4.81219C131.856 4.60231 131.745 4.65388 130.952 5.31659C129.869 6.22226 129.764 6.26487 129.408 5.94305C128.899 5.48256 129.05 5.09819 130.061 4.27746C130.795 3.68235 130.964 3.47536 130.838 3.32427C130.75 3.2181 130.635 3.13129 130.583 3.13129C130.53 3.13129 130.059 3.48706 129.535 3.92184ZM131.96 6.95633C130.511 7.94317 130.479 7.97639 130.707 8.25127C130.87 8.448 130.935 8.44064 131.294 8.18511C131.835 7.79974 131.917 7.81635 132.365 8.40351C132.654 8.78282 132.858 8.90907 133.183 8.90907C133.633 8.90907 134.324 8.36379 134.324 8.00831C134.324 7.77504 133.33 6.16116 133.194 6.17329C133.14 6.17806 132.585 6.5305 131.96 6.95633ZM132.627 7.28826L132.301 7.53873L132.676 7.94302C133.105 8.40496 133.509 8.40351 133.575 7.93999C133.63 7.55707 133.37 7.03014 133.128 7.03447C133.031 7.0362 132.806 7.15046 132.627 7.28826Z" fill="#231F20"/>
</svg>
