<svg width="40" height="40" viewBox="0 0 40 40" fill="none" xmlns="http://www.w3.org/2000/svg">
<path fill-rule="evenodd" clip-rule="evenodd" d="M7.96875 3.59676C6.36375 4.16426 4.82156 5.84426 4.37156 7.51489C3.29688 11.5061 7.065 15.6355 10.9375 14.7108C12.8091 14.2636 13.1084 14.0368 13.4847 12.7802C13.6859 12.1093 14.3309 10.9986 14.9188 10.3121C15.8325 9.24426 15.9553 8.91739 15.7684 8.04895C15.2734 5.75145 13.7297 4.03645 11.6309 3.45364C10.1231 3.03489 9.48781 3.05989 7.96875 3.59676ZM28.0172 3.58333C26.0359 4.28958 24.8234 5.67051 24.3531 7.75614C24.1403 8.69895 24.2366 8.92645 25.2975 9.98739C25.9472 10.6371 26.7334 11.8555 27.045 12.6949C27.7475 14.5896 27.5519 14.3843 28.9597 14.7021C32.9872 15.6105 36.7175 11.5599 35.6172 7.47301C35.1578 5.76739 33.3684 3.93583 31.7116 3.47583C30.1278 3.03614 29.5003 3.05458 28.0172 3.58333ZM17.1481 10.2727C15.0159 11.6249 14.0259 14.108 14.6681 16.493C15.5828 19.8902 19.2725 21.7746 22.4275 20.4561C24.7741 19.4758 26.0134 17.6649 26.0475 15.1668C26.1103 10.5508 21.0753 7.78208 17.1481 10.2727ZM4.53125 16.0596C2.65344 16.9474 1.505 18.114 0.650313 20.0024C0.12375 21.1655 0.0125 22.0643 0.006875 25.1983L0 28.988L2.57812 29.6268C3.99594 29.978 5.94937 30.3611 6.91875 30.4783L8.68125 30.6908L8.90469 28.7058C9.02781 27.6143 9.41375 26.049 9.76281 25.2277C10.4497 23.6108 13.0078 21.0596 14.2566 20.7461C14.6653 20.6436 15 20.5189 15 20.4689C15 20.4193 14.5781 19.5765 14.0625 18.5961C13.5469 17.6158 13.125 16.4768 13.125 16.0643C13.125 15.3177 13.1122 15.3149 9.60938 15.318C6.56625 15.3205 5.88375 15.4202 4.53125 16.0596ZM27.3881 16.5149C27.2825 17.1749 26.8425 18.2358 26.4106 18.8727C25.4447 20.2958 25.4363 20.5124 26.3366 20.7383C27.4209 21.0105 29.5938 23.0124 30.52 24.593C31.1522 25.6718 31.3837 26.5624 31.4991 28.3574L31.65 30.709L33.7569 30.5133C34.9156 30.4055 36.7944 30.0299 37.9319 29.6786L40 29.0399L39.9969 25.2243C39.9944 21.8658 39.9053 21.2215 39.2553 19.8461C37.6937 16.543 35.4153 15.3318 30.7431 15.3218L27.58 15.3149L27.3881 16.5149ZM16.3075 21.5661C13.7391 22.1102 11.7497 23.8271 10.8003 26.3183C10.4075 27.3486 10.31 28.5227 10.3791 31.3952L10.4688 35.1318L12.6562 35.694C18.1306 37.1015 24.3003 37.0983 28.4375 35.6868L30.1562 35.1002L30.245 31.5702C30.3462 27.5421 29.9356 25.8249 28.4353 24.0049C26.8703 22.1061 25.1728 21.4952 21.1416 21.3799C19.2247 21.3252 17.0494 21.4089 16.3075 21.5661Z" fill="#D90429"/>
</svg>
