<svg width="235" height="245" viewBox="0 0 235 245" fill="none" xmlns="http://www.w3.org/2000/svg">
<line x1="62.5" y1="114" x2="62.5" y2="237" stroke="#231F20" stroke-width="5"/>
<line x1="163.5" y1="114" x2="163.5" y2="237" stroke="#231F20" stroke-width="5"/>
<path d="M176 8C186.343 8 196.263 13.4786 203.577 23.2304C210.891 32.9823 215 46.2087 215 60C215 73.7913 210.891 87.0177 203.577 96.7696C196.263 106.521 186.343 112 176 112H39.5C34.3283 112 29.3684 109.261 25.7114 104.385C22.0545 99.5088 20 92.8956 20 86V34C20 27.1044 22.0545 20.4912 25.7114 15.6152C29.3684 10.7393 34.3283 8 39.5 8H176Z" stroke="#D90429" stroke-width="7" stroke-linecap="round" stroke-linejoin="round"/>
<path d="M42.3916 66.8906V74H41.0439L38.0215 69.0684V74H36.6787V66.8906H38.0215L41.0537 71.8271V66.8906H42.3916ZM46.6738 67.9697L44.6475 74H43.2266L45.8828 66.8906H46.791L46.6738 67.9697ZM48.3682 74L46.332 67.9697L46.21 66.8906H47.123L49.7939 74H48.3682ZM48.2754 71.3584V72.418H44.4619V71.3584H48.2754ZM52.626 72.6084L54.3984 66.8906H55.8877L53.3779 74H52.3867L52.626 72.6084ZM50.9902 66.8906L52.7529 72.6084L53.0068 74H52.0059L49.5059 66.8906H50.9902ZM59.1201 72.6084L60.8926 66.8906H62.3818L59.8721 74H58.8809L59.1201 72.6084ZM57.4844 66.8906L59.2471 72.6084L59.501 74H58.5L56 66.8906H57.4844ZM67.0693 66.8906H68.4121V71.6123C68.4121 72.1559 68.2949 72.6133 68.0605 72.9844C67.8262 73.3522 67.5072 73.6305 67.1035 73.8193C66.6999 74.0049 66.2409 74.0977 65.7266 74.0977C65.2057 74.0977 64.7419 74.0049 64.335 73.8193C63.9281 73.6305 63.609 73.3522 63.3779 72.9844C63.1468 72.6133 63.0312 72.1559 63.0312 71.6123V66.8906H64.374V71.6123C64.374 71.9443 64.4294 72.2161 64.54 72.4277C64.6507 72.6361 64.807 72.7907 65.0088 72.8916C65.2106 72.9925 65.4499 73.043 65.7266 73.043C66.0065 73.043 66.2458 72.9925 66.4443 72.8916C66.6462 72.7907 66.8008 72.6361 66.9082 72.4277C67.0156 72.2161 67.0693 71.9443 67.0693 71.6123V66.8906ZM74.1982 72.9453V74H70.624V72.9453H74.1982ZM71.0293 66.8906V74H69.6865V66.8906H71.0293ZM78.0215 67.9697L75.9951 74H74.5742L77.2305 66.8906H78.1387L78.0215 67.9697ZM79.7158 74L77.6797 67.9697L77.5576 66.8906H78.4707L81.1416 74H79.7158ZM79.623 71.3584V72.418H75.8096V71.3584H79.623ZM84.3105 66.8906V74H82.9727V66.8906H84.3105ZM86.5176 66.8906V67.9502H80.79V66.8906H86.5176ZM90.541 66.8906V74H89.2031V66.8906H90.541ZM92.748 66.8906V67.9502H87.0205V66.8906H92.748ZM95.0723 66.8906V74H93.7295V66.8906H95.0723ZM99.5986 66.8906H100.761L102.704 72.2422L104.643 66.8906H105.81L103.168 74H102.235L99.5986 66.8906ZM99.0127 66.8906H100.15L100.355 71.8076V74H99.0127V66.8906ZM105.253 66.8906H106.396V74H105.053V71.8076L105.253 66.8906ZM109.193 66.8906V74H107.851V66.8906H109.193ZM116.356 66.8906V74H115.009L111.986 69.0684V74H110.644V66.8906H111.986L115.019 71.8271V66.8906H116.356ZM122.436 72.9453V74H118.656V72.9453H122.436ZM119.066 66.8906V74H117.724V66.8906H119.066ZM121.942 69.8252V70.8555H118.656V69.8252H121.942ZM122.421 66.8906V67.9502H118.656V66.8906H122.421Z" fill="#231F20"/>
<path d="M36.6787 86.8906H39.2617C39.8021 86.8906 40.266 86.972 40.6533 87.1348C41.0407 87.2975 41.3385 87.5384 41.5469 87.8574C41.7552 88.1764 41.8594 88.5687 41.8594 89.0342C41.8594 89.402 41.7943 89.721 41.6641 89.9912C41.5339 90.2614 41.3499 90.4876 41.1123 90.6699C40.8779 90.8522 40.6012 90.9954 40.2822 91.0996L39.8623 91.3145H37.582L37.5723 90.2549H39.2764C39.5531 90.2549 39.7826 90.2061 39.9648 90.1084C40.1471 90.0107 40.2839 89.8757 40.375 89.7031C40.4694 89.5306 40.5166 89.3337 40.5166 89.1123C40.5166 88.8747 40.471 88.6696 40.3799 88.4971C40.2887 88.3213 40.1504 88.1862 39.9648 88.0918C39.7793 87.9974 39.5449 87.9502 39.2617 87.9502H38.0215V94H36.6787V86.8906ZM40.6924 94L39.0469 90.8164L40.4678 90.8115L42.1328 93.9316V94H40.6924ZM45.8633 87.9697L43.8369 94H42.416L45.0723 86.8906H45.9805L45.8633 87.9697ZM47.5576 94L45.5215 87.9697L45.3994 86.8906H46.3125L48.9834 94H47.5576ZM47.4648 91.3584V92.418H43.6514V91.3584H47.4648ZM50.3018 86.8906H51.4639L53.4072 92.2422L55.3457 86.8906H56.5127L53.8711 94H52.9385L50.3018 86.8906ZM49.7158 86.8906H50.8535L51.0586 91.8076V94H49.7158V86.8906ZM55.9561 86.8906H57.0986V94H55.7559V91.8076L55.9561 86.8906ZM61.3809 87.9697L59.3545 94H57.9336L60.5898 86.8906H61.498L61.3809 87.9697ZM63.0752 94L61.0391 87.9697L60.917 86.8906H61.8301L64.501 94H63.0752ZM62.9824 91.3584V92.418H59.1689V91.3584H62.9824ZM68.1338 91.8418V86.8906H69.4766V91.8418C69.4766 92.3138 69.374 92.7191 69.1689 93.0576C68.9639 93.3929 68.6839 93.6501 68.3291 93.8291C67.9743 94.0081 67.5739 94.0977 67.1279 94.0977C66.6689 94.0977 66.262 94.0212 65.9072 93.8682C65.5524 93.7119 65.2741 93.4743 65.0723 93.1553C64.8737 92.8363 64.7744 92.431 64.7744 91.9395H66.1221C66.1221 92.2064 66.1628 92.4212 66.2441 92.584C66.3255 92.7467 66.4411 92.8639 66.5908 92.9355C66.7438 93.0072 66.9229 93.043 67.1279 93.043C67.3265 93.043 67.5007 92.9974 67.6504 92.9062C67.8034 92.8118 67.9222 92.6751 68.0068 92.4961C68.0915 92.3171 68.1338 92.099 68.1338 91.8418ZM73.71 91.8418V86.8906H75.0527V91.8418C75.0527 92.3138 74.9502 92.7191 74.7451 93.0576C74.54 93.3929 74.2601 93.6501 73.9053 93.8291C73.5505 94.0081 73.1501 94.0977 72.7041 94.0977C72.2451 94.0977 71.8382 94.0212 71.4834 93.8682C71.1286 93.7119 70.8503 93.4743 70.6484 93.1553C70.4499 92.8363 70.3506 92.431 70.3506 91.9395H71.6982C71.6982 92.2064 71.7389 92.4212 71.8203 92.584C71.9017 92.7467 72.0173 92.8639 72.167 92.9355C72.32 93.0072 72.499 93.043 72.7041 93.043C72.9027 93.043 73.0768 92.9974 73.2266 92.9062C73.3796 92.8118 73.4984 92.6751 73.583 92.4961C73.6676 92.3171 73.71 92.099 73.71 91.8418ZM79.1055 87.9697L77.0791 94H75.6582L78.3145 86.8906H79.2227L79.1055 87.9697ZM80.7998 94L78.7637 87.9697L78.6416 86.8906H79.5547L82.2256 94H80.7998ZM80.707 91.3584V92.418H76.8936V91.3584H80.707ZM88.6709 86.8906V94H87.3232L84.3008 89.0684V94H82.958V86.8906H84.3008L87.333 91.8271V86.8906H88.6709ZM92.9531 87.9697L90.9268 94H89.5059L92.1621 86.8906H93.0703L92.9531 87.9697ZM94.6475 94L92.6113 87.9697L92.4893 86.8906H93.4023L96.0732 94H94.6475ZM94.5547 91.3584V92.418H90.7412V91.3584H94.5547ZM101.522 89.8252V90.8799H97.7822V89.8252H101.522ZM98.1484 86.8906V94H96.8057V86.8906H98.1484ZM102.519 86.8906V94H101.176V86.8906H102.519ZM106.801 87.9697L104.774 94H103.354L106.01 86.8906H106.918L106.801 87.9697ZM108.495 94L106.459 87.9697L106.337 86.8906H107.25L109.921 94H108.495ZM108.402 91.3584V92.418H104.589V91.3584H108.402ZM115.165 92.9453V94H111.591V92.9453H115.165ZM111.996 86.8906V94H110.653V86.8906H111.996ZM120.575 92.9453V94H117.001V92.9453H120.575ZM117.406 86.8906V94H116.063V86.8906H117.406ZM122.904 86.8906V94H121.562V86.8906H122.904ZM127.431 86.8906H128.593L130.536 92.2422L132.475 86.8906H133.642L131 94H130.067L127.431 86.8906ZM126.845 86.8906H127.982L128.188 91.8076V94H126.845V86.8906ZM133.085 86.8906H134.228V94H132.885V91.8076L133.085 86.8906ZM137.025 86.8906V94H135.683V86.8906H137.025ZM144.188 86.8906V94H142.841L139.818 89.0684V94H138.476V86.8906H139.818L142.851 91.8271V86.8906H144.188ZM150.268 92.9453V94H146.488V92.9453H150.268ZM146.898 86.8906V94H145.556V86.8906H146.898ZM149.774 89.8252V90.8555H146.488V89.8252H149.774ZM150.253 86.8906V87.9502H146.488V86.8906H150.253ZM154.921 92.1543C154.921 92.0176 154.9 91.8955 154.857 91.7881C154.818 91.6774 154.745 91.5781 154.638 91.4902C154.534 91.3991 154.385 91.3112 154.193 91.2266C154.005 91.1387 153.76 91.0475 153.461 90.9531C153.129 90.849 152.82 90.7318 152.533 90.6016C152.247 90.4714 151.994 90.32 151.776 90.1475C151.562 89.9749 151.394 89.7764 151.273 89.5518C151.153 89.3239 151.093 89.0602 151.093 88.7607C151.093 88.4678 151.155 88.2008 151.278 87.96C151.405 87.7191 151.584 87.5124 151.815 87.3398C152.047 87.1641 152.318 87.029 152.631 86.9346C152.947 86.8402 153.295 86.793 153.676 86.793C154.203 86.793 154.659 86.889 155.043 87.0811C155.43 87.2731 155.73 87.5335 155.941 87.8623C156.153 88.1911 156.259 88.5605 156.259 88.9707H154.921C154.921 88.7493 154.874 88.554 154.779 88.3848C154.688 88.2155 154.548 88.082 154.359 87.9844C154.174 87.8867 153.939 87.8379 153.656 87.8379C153.383 87.8379 153.155 87.8786 152.973 87.96C152.794 88.0413 152.659 88.152 152.567 88.292C152.479 88.432 152.436 88.5882 152.436 88.7607C152.436 88.891 152.466 89.0081 152.528 89.1123C152.59 89.2132 152.683 89.3092 152.807 89.4004C152.93 89.4883 153.083 89.5713 153.266 89.6494C153.451 89.7243 153.666 89.7992 153.91 89.874C154.301 89.9912 154.643 90.1214 154.936 90.2646C155.232 90.4079 155.478 90.5706 155.673 90.7529C155.871 90.9352 156.02 91.1403 156.117 91.3682C156.218 91.596 156.269 91.8548 156.269 92.1445C156.269 92.4505 156.208 92.724 156.088 92.9648C155.967 93.2057 155.795 93.4108 155.57 93.5801C155.346 93.7493 155.076 93.8779 154.76 93.9658C154.447 94.0537 154.097 94.0977 153.71 94.0977C153.365 94.0977 153.023 94.0521 152.685 93.9609C152.349 93.8665 152.045 93.7266 151.771 93.541C151.498 93.3522 151.28 93.1146 151.117 92.8281C150.954 92.5384 150.873 92.1999 150.873 91.8125H152.221C152.221 92.0371 152.257 92.2292 152.328 92.3887C152.403 92.5449 152.507 92.6735 152.641 92.7744C152.777 92.8721 152.937 92.9437 153.119 92.9893C153.301 93.0348 153.498 93.0576 153.71 93.0576C153.983 93.0576 154.208 93.0202 154.384 92.9453C154.563 92.8672 154.696 92.7598 154.784 92.623C154.875 92.4863 154.921 92.3301 154.921 92.1543Z" fill="#231F20"/>
<path d="M39.5791 51.8418V46.8906H40.9219V51.8418C40.9219 52.3138 40.8193 52.7191 40.6143 53.0576C40.4092 53.3929 40.1292 53.6501 39.7744 53.8291C39.4196 54.0081 39.0192 54.0977 38.5732 54.0977C38.1143 54.0977 37.7074 54.0212 37.3525 53.8682C36.9977 53.7119 36.7194 53.4743 36.5176 53.1553C36.319 52.8363 36.2197 52.431 36.2197 51.9395H37.5674C37.5674 52.2064 37.6081 52.4212 37.6895 52.584C37.7708 52.7467 37.8864 52.8639 38.0361 52.9355C38.1891 53.0072 38.3682 53.043 38.5732 53.043C38.7718 53.043 38.946 52.9974 39.0957 52.9062C39.2487 52.8118 39.3675 52.6751 39.4521 52.4961C39.5368 52.3171 39.5791 52.099 39.5791 51.8418ZM48.0117 50.2646V50.6309C48.0117 51.168 47.9401 51.6514 47.7969 52.0811C47.6536 52.5075 47.4502 52.8704 47.1865 53.1699C46.9229 53.4694 46.6087 53.6989 46.2441 53.8584C45.8796 54.0179 45.4743 54.0977 45.0283 54.0977C44.5889 54.0977 44.1852 54.0179 43.8174 53.8584C43.4528 53.6989 43.137 53.4694 42.8701 53.1699C42.6032 52.8704 42.3965 52.5075 42.25 52.0811C42.1035 51.6514 42.0303 51.168 42.0303 50.6309V50.2646C42.0303 49.7243 42.1035 49.2409 42.25 48.8145C42.3965 48.388 42.6016 48.0251 42.8652 47.7256C43.1289 47.4229 43.443 47.1917 43.8076 47.0322C44.1755 46.8727 44.5791 46.793 45.0186 46.793C45.4645 46.793 45.8698 46.8727 46.2344 47.0322C46.599 47.1917 46.9131 47.4229 47.1768 47.7256C47.4437 48.0251 47.6488 48.388 47.792 48.8145C47.9385 49.2409 48.0117 49.7243 48.0117 50.2646ZM46.6543 50.6309V50.2549C46.6543 49.8675 46.6185 49.5273 46.5469 49.2344C46.4753 48.9382 46.3695 48.6891 46.2295 48.4873C46.0895 48.2855 45.917 48.1341 45.7119 48.0332C45.5068 47.929 45.2757 47.877 45.0186 47.877C44.7581 47.877 44.527 47.929 44.3252 48.0332C44.1266 48.1341 43.9574 48.2855 43.8174 48.4873C43.6774 48.6891 43.57 48.9382 43.4951 49.2344C43.4235 49.5273 43.3877 49.8675 43.3877 50.2549V50.6309C43.3877 51.015 43.4235 51.3551 43.4951 51.6514C43.57 51.9476 43.6774 52.1982 43.8174 52.4033C43.9606 52.6051 44.1331 52.7581 44.335 52.8623C44.5368 52.9665 44.7679 53.0186 45.0283 53.0186C45.2887 53.0186 45.5199 52.9665 45.7217 52.8623C45.9235 52.7581 46.0928 52.6051 46.2295 52.4033C46.3695 52.1982 46.4753 51.9476 46.5469 51.6514C46.6185 51.3551 46.6543 51.015 46.6543 50.6309ZM53.8662 49.8252V50.8799H50.126V49.8252H53.8662ZM50.4922 46.8906V54H49.1494V46.8906H50.4922ZM54.8623 46.8906V54H53.5195V46.8906H54.8623ZM61.9424 46.8906V54H60.5947L57.5723 49.0684V54H56.2295V46.8906H57.5723L60.6045 51.8271V46.8906H61.9424ZM66.3857 46.8906H67.5479L69.4912 52.2422L71.4297 46.8906H72.5967L69.9551 54H69.0225L66.3857 46.8906ZM65.7998 46.8906H66.9375L67.1426 51.8076V54H65.7998V46.8906ZM72.04 46.8906H73.1826V54H71.8398V51.8076L72.04 46.8906ZM75.9805 46.8906V54H74.6377V46.8906H75.9805ZM83.1436 46.8906V54H81.7959L78.7734 49.0684V54H77.4307V46.8906H78.7734L81.8057 51.8271V46.8906H83.1436ZM89.2227 52.9453V54H85.4434V52.9453H89.2227ZM85.8535 46.8906V54H84.5107V46.8906H85.8535ZM88.7295 49.8252V50.8555H85.4434V49.8252H88.7295ZM89.208 46.8906V47.9502H85.4434V46.8906H89.208ZM95.1162 50.4453V51.4658H92.4453V50.4453H95.1162ZM99.4326 46.4951V47.1689L99.252 49.0977H98.5146V47.2275V46.4951H99.4326ZM100.956 46.4951V47.1689L100.775 49.0977H100.043V47.1885V46.4951H100.956ZM103.344 46.8906V54H102.001V46.8906H103.344ZM106.21 49.9619V51.0215H102.992V49.9619H106.21ZM106.586 46.8906V47.9502H102.992V46.8906H106.586ZM108.93 46.8906V54H107.587V46.8906H108.93ZM112.88 52.6084L114.652 46.8906H116.142L113.632 54H112.641L112.88 52.6084ZM111.244 46.8906L113.007 52.6084L113.261 54H112.26L109.76 46.8906H111.244ZM121.586 52.9453V54H117.807V52.9453H121.586ZM118.217 46.8906V54H116.874V46.8906H118.217ZM121.093 49.8252V50.8555H117.807V49.8252H121.093ZM121.571 46.8906V47.9502H117.807V46.8906H121.571ZM128.729 52.1543C128.729 52.0176 128.708 51.8955 128.666 51.7881C128.627 51.6774 128.554 51.5781 128.446 51.4902C128.342 51.3991 128.194 51.3112 128.002 51.2266C127.813 51.1387 127.569 51.0475 127.27 50.9531C126.938 50.849 126.628 50.7318 126.342 50.6016C126.055 50.4714 125.803 50.32 125.585 50.1475C125.37 49.9749 125.202 49.7764 125.082 49.5518C124.962 49.3239 124.901 49.0602 124.901 48.7607C124.901 48.4678 124.963 48.2008 125.087 47.96C125.214 47.7191 125.393 47.5124 125.624 47.3398C125.855 47.1641 126.127 47.029 126.439 46.9346C126.755 46.8402 127.104 46.793 127.484 46.793C128.012 46.793 128.467 46.889 128.852 47.0811C129.239 47.2731 129.538 47.5335 129.75 47.8623C129.962 48.1911 130.067 48.5605 130.067 48.9707H128.729C128.729 48.7493 128.682 48.554 128.588 48.3848C128.497 48.2155 128.357 48.082 128.168 47.9844C127.982 47.8867 127.748 47.8379 127.465 47.8379C127.191 47.8379 126.964 47.8786 126.781 47.96C126.602 48.0413 126.467 48.152 126.376 48.292C126.288 48.432 126.244 48.5882 126.244 48.7607C126.244 48.891 126.275 49.0081 126.337 49.1123C126.399 49.2132 126.492 49.3092 126.615 49.4004C126.739 49.4883 126.892 49.5713 127.074 49.6494C127.26 49.7243 127.475 49.7992 127.719 49.874C128.109 49.9912 128.451 50.1214 128.744 50.2646C129.04 50.4079 129.286 50.5706 129.481 50.7529C129.68 50.9352 129.828 51.1403 129.926 51.3682C130.027 51.596 130.077 51.8548 130.077 52.1445C130.077 52.4505 130.017 52.724 129.896 52.9648C129.776 53.2057 129.604 53.4108 129.379 53.5801C129.154 53.7493 128.884 53.8779 128.568 53.9658C128.256 54.0537 127.906 54.0977 127.519 54.0977C127.174 54.0977 126.832 54.0521 126.493 53.9609C126.158 53.8665 125.854 53.7266 125.58 53.541C125.307 53.3522 125.089 53.1146 124.926 52.8281C124.763 52.5384 124.682 52.1999 124.682 51.8125H126.029C126.029 52.0371 126.065 52.2292 126.137 52.3887C126.212 52.5449 126.316 52.6735 126.449 52.7744C126.586 52.8721 126.745 52.9437 126.928 52.9893C127.11 53.0348 127.307 53.0576 127.519 53.0576C127.792 53.0576 128.017 53.0202 128.192 52.9453C128.371 52.8672 128.505 52.7598 128.593 52.623C128.684 52.4863 128.729 52.3301 128.729 52.1543ZM134.164 46.8906V54H132.826V46.8906H134.164ZM136.371 46.8906V47.9502H130.644V46.8906H136.371ZM139.594 47.9697L137.567 54H136.146L138.803 46.8906H139.711L139.594 47.9697ZM141.288 54L139.252 47.9697L139.13 46.8906H140.043L142.714 54H141.288ZM141.195 51.3584V52.418H137.382V51.3584H141.195ZM143.446 46.8906H146.029C146.57 46.8906 147.034 46.972 147.421 47.1348C147.808 47.2975 148.106 47.5384 148.314 47.8574C148.523 48.1764 148.627 48.5687 148.627 49.0342C148.627 49.402 148.562 49.721 148.432 49.9912C148.301 50.2614 148.118 50.4876 147.88 50.6699C147.646 50.8522 147.369 50.9954 147.05 51.0996L146.63 51.3145H144.35L144.34 50.2549H146.044C146.321 50.2549 146.55 50.2061 146.732 50.1084C146.915 50.0107 147.051 49.8757 147.143 49.7031C147.237 49.5306 147.284 49.3337 147.284 49.1123C147.284 48.8747 147.239 48.6696 147.147 48.4971C147.056 48.3213 146.918 48.1862 146.732 48.0918C146.547 47.9974 146.312 47.9502 146.029 47.9502H144.789V54H143.446V46.8906ZM147.46 54L145.814 50.8164L147.235 50.8115L148.9 53.9316V54H147.46ZM152.88 46.8906H154.042L155.985 52.2422L157.924 46.8906H159.091L156.449 54H155.517L152.88 46.8906ZM152.294 46.8906H153.432L153.637 51.8076V54H152.294V46.8906ZM158.534 46.8906H159.677V54H158.334V51.8076L158.534 46.8906ZM162.475 46.8906V54H161.132V46.8906H162.475ZM169.638 46.8906V54H168.29L165.268 49.0684V54H163.925V46.8906H165.268L168.3 51.8271V46.8906H169.638ZM175.717 52.9453V54H171.938V52.9453H175.717ZM172.348 46.8906V54H171.005V46.8906H172.348ZM175.224 49.8252V50.8555H171.938V49.8252H175.224ZM175.702 46.8906V47.9502H171.938V46.8906H175.702ZM177.274 46.4951V47.1689L177.094 49.0977H176.356V47.2275V46.4951H177.274ZM178.798 46.4951V47.1689L178.617 49.0977H177.885V47.1885V46.4951H178.798Z" fill="#231F20"/>
<path fill-rule="evenodd" clip-rule="evenodd" d="M103.057 16.1412C102.695 16.2187 102.102 16.4205 101.738 16.5895C99.766 17.5068 99.4301 19.1563 100.887 20.7698C101.134 21.0439 101.321 21.2799 101.301 21.2944C101.282 21.3088 100.778 21.5602 100.182 21.853C98.8927 22.4866 98.3192 22.8961 97.877 23.4988C97.5642 23.9251 97.2617 24.7111 97.2617 25.0972C97.2617 25.1965 97.3263 25.4949 97.4051 25.7605C97.6233 26.4954 98.3242 27.2077 99.2763 27.6621C100.232 28.1183 100.784 28.2333 102 28.2291C103.77 28.2231 105.048 27.8846 107.13 26.871L108.379 26.2632V25.0076L108.12 25.1721C107.977 25.2627 107.725 25.438 107.558 25.5616C107.045 25.9439 105.935 26.4283 105.197 26.5925C104.352 26.7804 102.905 26.7334 102.255 26.4968C101.335 26.1617 100.587 25.4564 100.4 24.7466C100.185 23.9327 100.62 23.1988 101.623 22.6832C102.211 22.3808 102.313 22.3601 103.423 22.3174L104.599 22.2721L104.934 21.7287C105.119 21.4298 105.27 21.1651 105.27 21.1404C105.27 21.1158 105.045 21.077 104.77 21.0542C103.396 20.9403 102.533 19.8967 102.738 18.5983C102.879 17.7079 103.409 17.1933 104.247 17.1327C104.967 17.0807 105.476 17.3303 106.357 18.1678L107.033 18.8095L108.181 17.4456L107.937 17.1912C107.572 16.8103 106.485 16.2756 105.765 16.1231C104.961 15.9527 103.904 15.9597 103.057 16.1412Z" fill="#FF0B0B"/>
<path fill-rule="evenodd" clip-rule="evenodd" d="M109.596 26.6324H110.821V24.0886H111.285C111.896 24.0886 112.101 24.2682 112.985 25.5847L113.688 26.6324H114.427C114.992 26.6324 115.149 26.6047 115.096 26.5146C114.555 25.5978 113.788 24.5336 113.476 24.2666L113.083 23.9298L113.461 23.8166C113.956 23.6681 114.456 23.2207 114.594 22.8015C114.771 22.2668 114.666 21.5222 114.358 21.1178C113.923 20.5481 113.654 20.4835 111.504 20.4343L109.596 20.3906V26.6324ZM110.821 23.1707L111.873 23.1026C112.451 23.0651 112.983 23.0121 113.054 22.9848C113.22 22.921 113.459 22.46 113.459 22.2019C113.459 22.0916 113.335 21.8776 113.183 21.7261C112.912 21.4548 112.892 21.4507 111.864 21.4507H110.821V23.1707ZM117.104 22.3907L116.662 22.6713V22.4379C116.662 22.2153 116.636 22.2044 116.097 22.2044H115.531V26.6324H116.744L116.803 23.4124L117.068 23.1852C117.403 22.8969 117.884 22.8831 118.13 23.1547C118.287 23.328 118.312 23.5463 118.343 24.9918L118.379 26.6324H119.472L119.504 25.1014C119.538 23.4702 119.592 23.2583 120.029 23.059C120.37 22.9038 120.666 22.9383 120.863 23.1561C121.023 23.3319 121.046 23.5385 121.072 24.9933L121.102 26.6324H122.221V24.8864C122.221 22.9202 122.152 22.6145 121.637 22.3011C121.422 22.1697 121.161 22.1107 120.793 22.1106C120.342 22.1103 120.187 22.1597 119.776 22.4364C119.397 22.6918 119.28 22.7331 119.239 22.6267C119.133 22.3489 118.587 22.1102 118.059 22.1102C117.653 22.1102 117.455 22.1681 117.104 22.3907ZM90.0628 33.1016C90.0283 33.1361 90 33.6448 90 34.2322V35.2999H90.5579L90.6124 33.6512L90.8332 34.4755C91.0265 35.197 91.08 35.2999 91.2625 35.2999C91.4427 35.2999 91.4947 35.2069 91.6441 34.6168C91.9055 33.5848 91.9724 33.5564 91.9756 34.4755C91.9785 35.2913 91.9809 35.2999 92.214 35.2999H92.4495V33.0279L91.6597 33.0859L91.5053 33.6983C91.244 34.7352 91.2858 34.7574 90.9321 33.3921C90.8467 33.062 90.8172 33.0388 90.4831 33.0388C90.2865 33.0388 90.0973 33.067 90.0628 33.1016ZM92.9206 35.2999H93.4858V33.0388H92.9206V35.2999ZM93.9569 35.2999H94.1883C94.4103 35.2999 94.4208 35.2718 94.4474 34.6168L94.4751 33.9338L94.8519 34.6162C95.1731 35.1978 95.2659 35.2987 95.48 35.2992C95.6181 35.2996 95.7453 35.2583 95.7627 35.2075C95.7799 35.1568 95.7808 34.648 95.7646 34.077C95.7354 33.0475 95.7333 33.0388 95.5056 33.0388C95.282 33.0388 95.2759 33.0582 95.2749 33.7689L95.274 34.4991L94.8723 33.7925C94.5443 33.2156 94.4234 33.0804 94.2137 33.0561L93.9569 33.0263V35.2999ZM96.218 35.2999H96.7833V33.0388H96.218V35.2999ZM97.2543 35.2999H97.4857C97.7077 35.2999 97.7182 35.2718 97.7448 34.6168L97.7725 33.9338L98.1493 34.6152C98.4976 35.2449 98.5497 35.2968 98.8354 35.2983L99.1445 35.2999L99.0915 33.0859H98.8559C98.6284 33.0859 98.6195 33.1096 98.5924 33.7838L98.5644 34.4817L98.1685 33.7838C97.844 33.2119 97.7258 33.0805 97.5134 33.0561L97.2543 33.0263V35.2999ZM99.9057 33.2774C99.0562 33.9923 99.4891 35.2999 100.575 35.2999C100.749 35.2999 100.947 35.2469 101.016 35.1821C101.116 35.0879 101.149 35.0879 101.184 35.1821C101.207 35.2469 101.308 35.2999 101.407 35.2999C101.567 35.2999 101.588 35.2282 101.588 34.6875V34.0751H101.117C100.709 34.0751 100.646 34.1003 100.646 34.2635C100.646 34.3914 100.709 34.452 100.841 34.452C100.976 34.452 101.027 34.5027 101.005 34.6168C100.984 34.7311 100.869 34.7906 100.631 34.8104C100.239 34.8431 99.9865 34.5913 99.9865 34.1693C99.9865 33.6263 100.619 33.2783 100.929 33.6512C101.056 33.8044 101.494 33.8469 101.494 33.706C101.494 33.0966 100.454 32.8161 99.9057 33.2774ZM105.228 33.2341C104.941 33.4597 104.894 33.8854 105.133 34.0872C105.217 34.1582 105.482 34.28 105.722 34.3578C106.047 34.4634 106.157 34.5466 106.157 34.6875C106.157 34.9617 105.69 35.001 105.527 34.7404C105.452 34.6205 105.306 34.5462 105.145 34.5462C104.816 34.5462 104.804 34.756 105.117 35.0686C105.615 35.5664 106.77 35.2671 106.77 34.6403C106.77 34.296 106.578 34.1087 106.082 33.967C105.515 33.8046 105.405 33.7042 105.591 33.518C105.727 33.3818 105.765 33.3832 106.027 33.5335C106.605 33.8654 106.925 33.6258 106.427 33.2341C106.277 33.1158 106.041 33.0388 105.828 33.0388C105.615 33.0388 105.378 33.1158 105.228 33.2341ZM106.958 33.2743C106.958 33.4806 106.999 33.5098 107.288 33.5098H107.618V35.2999H108.183V33.5098H108.513C108.802 33.5098 108.842 33.4806 108.842 33.2743V33.0388H106.958V33.2743ZM109.125 35.2999H110.02C110.912 35.2999 110.915 35.299 110.915 35.0643C110.915 34.8373 110.893 34.8288 110.303 34.8288C109.712 34.8288 109.69 34.8203 109.69 34.5933C109.69 34.3706 109.719 34.3578 110.208 34.3578C110.664 34.3578 110.727 34.335 110.727 34.1693C110.727 34.0037 110.664 33.9809 110.208 33.9809C109.719 33.9809 109.69 33.9681 109.69 33.7454C109.69 33.5203 109.715 33.5098 110.256 33.5098C110.796 33.5098 110.821 33.4994 110.821 33.2743C110.821 33.0406 110.815 33.0388 109.973 33.0388H109.125V35.2999ZM111.292 35.2999H112.187C113.074 35.2999 113.082 35.2979 113.082 35.0687C113.082 34.8488 113.051 34.8361 112.446 34.8096C111.882 34.7849 111.81 34.7603 111.81 34.5933C111.81 34.43 111.882 34.4011 112.352 34.3766C112.811 34.3527 112.894 34.3212 112.894 34.1693C112.894 34.0175 112.811 33.986 112.352 33.9621C111.882 33.9376 111.81 33.9086 111.81 33.7454C111.81 33.58 111.882 33.5536 112.399 33.5289C112.954 33.5025 112.988 33.4874 112.988 33.2698C112.988 33.0417 112.977 33.0388 112.14 33.0388H111.292V35.2999ZM113.459 35.2999H114.212C114.954 35.2999 114.966 35.2959 114.966 35.0643C114.966 34.8416 114.938 34.8288 114.448 34.8288H113.93V33.9338C113.93 33.0419 113.929 33.0388 113.694 33.0388H113.459V35.2999ZM118.358 35.2999H118.64C118.906 35.2999 118.923 35.2776 118.923 34.935V34.5701L119.41 34.5234C119.977 34.4689 120.148 34.2987 120.148 33.7891C120.148 33.28 119.925 33.1302 119.073 33.0657L118.358 33.0116V35.2999ZM121.02 33.1357C120.377 33.3943 120.242 34.5396 120.797 35.0352C121.326 35.5082 122.132 35.3618 122.457 34.7336C122.958 33.7644 122.028 32.7304 121.02 33.1357ZM122.786 33.1319C122.786 33.2179 123.105 34.4252 123.315 35.135C123.346 35.2415 123.458 35.2999 123.629 35.2999C123.883 35.2999 123.9 35.2709 124.012 34.6639C124.182 33.7425 124.249 33.6889 124.379 34.3713C124.552 35.2817 124.561 35.2999 124.849 35.2999C125.1 35.2999 125.12 35.2632 125.373 34.3342C125.517 33.8031 125.657 33.291 125.684 33.1961C125.724 33.0533 125.686 33.0291 125.46 33.0548C125.201 33.0844 125.181 33.1209 125.045 33.8098C124.967 34.208 124.876 34.5597 124.845 34.5915C124.813 34.6232 124.757 34.4882 124.721 34.2915C124.496 33.0677 124.479 33.0262 124.217 33.057C123.991 33.0834 123.959 33.1419 123.844 33.7454C123.654 34.7416 123.616 34.7552 123.449 33.8867C123.303 33.1321 123.28 33.0842 123.04 33.0561C122.897 33.0393 122.786 33.0726 122.786 33.1319ZM125.989 35.2999H126.837C127.674 35.2999 127.685 35.297 127.685 35.0689C127.685 34.8512 127.651 34.8362 127.096 34.8098C126.567 34.7845 126.504 34.7601 126.477 34.5697C126.449 34.3699 126.48 34.3578 127.019 34.3578C127.523 34.3578 127.591 34.336 127.591 34.174C127.591 34.0164 127.514 33.9863 127.049 33.9621C126.569 33.937 126.504 33.9096 126.477 33.7218C126.448 33.5205 126.478 33.5098 127.066 33.5098C127.663 33.5098 127.685 33.5016 127.685 33.2743C127.685 33.0406 127.679 33.0388 126.837 33.0388H125.989V35.2999ZM128.138 33.1094C128.122 33.1483 128.109 33.6465 128.109 34.2164V35.2528L128.368 35.2825C128.617 35.3113 128.627 35.2959 128.627 34.8821C128.627 34.4541 128.629 34.452 128.953 34.452C129.313 34.452 129.475 34.6406 129.475 35.0581C129.475 35.2628 129.517 35.2999 129.752 35.2999C130.018 35.2999 130.026 35.2866 129.976 34.9466C129.947 34.7523 129.87 34.508 129.806 34.4037C129.711 34.2502 129.713 34.1913 129.817 34.0938C129.958 33.9619 129.987 33.5321 129.867 33.3433C129.826 33.2775 129.646 33.1822 129.469 33.1313C129.09 33.0225 128.18 33.0076 128.138 33.1094ZM118.923 33.8337C118.923 34.1215 118.954 34.1693 119.141 34.1693C119.26 34.1693 119.44 34.1082 119.541 34.0336C119.793 33.8462 119.616 33.5668 119.22 33.5275C118.937 33.4993 118.923 33.5136 118.923 33.8337ZM121.152 33.6822C120.976 33.876 120.946 34.3717 121.093 34.6466C121.161 34.7724 121.291 34.8288 121.514 34.8288C121.888 34.8288 122.032 34.638 122.032 34.143C122.032 33.5919 121.49 33.3081 121.152 33.6822ZM128.627 33.7925C128.627 34.0507 128.654 34.0751 128.945 34.0751C129.336 34.0751 129.555 33.8615 129.381 33.6512C129.316 33.5734 129.12 33.5098 128.945 33.5098C128.654 33.5098 128.627 33.5342 128.627 33.7925ZM103.026 33.7263C102.644 33.8965 102.639 34.4464 103.016 34.6485C103.481 34.8972 104.001 34.3677 103.717 33.9348C103.548 33.6766 103.303 33.6026 103.026 33.7263ZM116.406 33.7066C116.186 33.7882 116.038 34.1639 116.131 34.4054C116.161 34.4837 116.291 34.5958 116.42 34.6546C116.609 34.7405 116.701 34.7308 116.894 34.6045C117.436 34.2494 117.017 33.4793 116.406 33.7066Z" fill="#2F55A6"/>
<path fill-rule="evenodd" clip-rule="evenodd" d="M103.057 16.1412C102.695 16.2187 102.102 16.4205 101.738 16.5895C99.766 17.5068 99.4301 19.1563 100.887 20.7698C101.134 21.0439 101.321 21.2799 101.301 21.2944C101.282 21.3088 100.778 21.5602 100.182 21.853C98.8927 22.4866 98.3192 22.8961 97.877 23.4988C97.5642 23.9251 97.2617 24.7111 97.2617 25.0972C97.2617 25.1965 97.3263 25.4949 97.4051 25.7605C97.6233 26.4954 98.3242 27.2077 99.2763 27.6621C100.232 28.1183 100.784 28.2333 102 28.2291C103.77 28.2231 105.048 27.8846 107.13 26.871L108.379 26.2632V25.0076L108.12 25.1721C107.977 25.2627 107.725 25.438 107.558 25.5616C107.045 25.9439 105.935 26.4283 105.197 26.5925C104.352 26.7804 102.905 26.7334 102.255 26.4968C101.335 26.1617 100.587 25.4564 100.4 24.7466C100.185 23.9327 100.62 23.1988 101.623 22.6832C102.211 22.3808 102.313 22.3601 103.423 22.3174L104.599 22.2721L104.934 21.7287C105.119 21.4298 105.27 21.1651 105.27 21.1404C105.27 21.1158 105.045 21.077 104.77 21.0542C103.396 20.9403 102.533 19.8967 102.738 18.5983C102.879 17.7079 103.409 17.1933 104.247 17.1327C104.967 17.0807 105.476 17.3303 106.357 18.1678L107.033 18.8095L108.181 17.4456L107.937 17.1912C107.572 16.8103 106.485 16.2756 105.765 16.1231C104.961 15.9527 103.904 15.9597 103.057 16.1412Z" fill="#FF0B0B"/>
<path fill-rule="evenodd" clip-rule="evenodd" d="M109.596 26.6324H110.821V24.0886H111.285C111.896 24.0886 112.101 24.2682 112.985 25.5847L113.688 26.6324H114.427C114.992 26.6324 115.149 26.6047 115.096 26.5146C114.555 25.5978 113.788 24.5336 113.476 24.2666L113.083 23.9298L113.461 23.8166C113.956 23.6681 114.456 23.2207 114.594 22.8015C114.771 22.2668 114.666 21.5222 114.358 21.1178C113.923 20.5481 113.654 20.4835 111.504 20.4343L109.596 20.3906V26.6324ZM110.821 23.1707L111.873 23.1026C112.451 23.0651 112.983 23.0121 113.054 22.9848C113.22 22.921 113.459 22.46 113.459 22.2019C113.459 22.0916 113.335 21.8776 113.183 21.7261C112.912 21.4548 112.892 21.4507 111.864 21.4507H110.821V23.1707ZM117.104 22.3907L116.662 22.6713V22.4379C116.662 22.2153 116.636 22.2044 116.097 22.2044H115.531V26.6324H116.744L116.803 23.4124L117.068 23.1852C117.403 22.8969 117.884 22.8831 118.13 23.1547C118.287 23.328 118.312 23.5463 118.343 24.9918L118.379 26.6324H119.472L119.504 25.1014C119.538 23.4702 119.592 23.2583 120.029 23.059C120.37 22.9038 120.666 22.9383 120.863 23.1561C121.023 23.3319 121.046 23.5385 121.072 24.9933L121.102 26.6324H122.221V24.8864C122.221 22.9202 122.152 22.6145 121.637 22.3011C121.422 22.1697 121.161 22.1107 120.793 22.1106C120.342 22.1103 120.187 22.1597 119.776 22.4364C119.397 22.6918 119.28 22.7331 119.239 22.6267C119.133 22.3489 118.587 22.1102 118.059 22.1102C117.653 22.1102 117.455 22.1681 117.104 22.3907ZM90.0628 33.1016C90.0283 33.1361 90 33.6448 90 34.2322V35.2999H90.5579L90.6124 33.6512L90.8332 34.4755C91.0265 35.197 91.08 35.2999 91.2625 35.2999C91.4427 35.2999 91.4947 35.2069 91.6441 34.6168C91.9055 33.5848 91.9724 33.5564 91.9756 34.4755C91.9785 35.2913 91.9809 35.2999 92.214 35.2999H92.4495V33.0279L91.6597 33.0859L91.5053 33.6983C91.244 34.7352 91.2858 34.7574 90.9321 33.3921C90.8467 33.062 90.8172 33.0388 90.4831 33.0388C90.2865 33.0388 90.0973 33.067 90.0628 33.1016ZM92.9206 35.2999H93.4858V33.0388H92.9206V35.2999ZM93.9569 35.2999H94.1883C94.4103 35.2999 94.4208 35.2718 94.4474 34.6168L94.4751 33.9338L94.8519 34.6162C95.1731 35.1978 95.2659 35.2987 95.48 35.2992C95.6181 35.2996 95.7453 35.2583 95.7627 35.2075C95.7799 35.1568 95.7808 34.648 95.7646 34.077C95.7354 33.0475 95.7333 33.0388 95.5056 33.0388C95.282 33.0388 95.2759 33.0582 95.2749 33.7689L95.274 34.4991L94.8723 33.7925C94.5443 33.2156 94.4234 33.0804 94.2137 33.0561L93.9569 33.0263V35.2999ZM96.218 35.2999H96.7833V33.0388H96.218V35.2999ZM97.2543 35.2999H97.4857C97.7077 35.2999 97.7182 35.2718 97.7448 34.6168L97.7725 33.9338L98.1493 34.6152C98.4976 35.2449 98.5497 35.2968 98.8354 35.2983L99.1445 35.2999L99.0915 33.0859H98.8559C98.6284 33.0859 98.6195 33.1096 98.5924 33.7838L98.5644 34.4817L98.1685 33.7838C97.844 33.2119 97.7258 33.0805 97.5134 33.0561L97.2543 33.0263V35.2999ZM99.9057 33.2774C99.0562 33.9923 99.4891 35.2999 100.575 35.2999C100.749 35.2999 100.947 35.2469 101.016 35.1821C101.116 35.0879 101.149 35.0879 101.184 35.1821C101.207 35.2469 101.308 35.2999 101.407 35.2999C101.567 35.2999 101.588 35.2282 101.588 34.6875V34.0751H101.117C100.709 34.0751 100.646 34.1003 100.646 34.2635C100.646 34.3914 100.709 34.452 100.841 34.452C100.976 34.452 101.027 34.5027 101.005 34.6168C100.984 34.7311 100.869 34.7906 100.631 34.8104C100.239 34.8431 99.9865 34.5913 99.9865 34.1693C99.9865 33.6263 100.619 33.2783 100.929 33.6512C101.056 33.8044 101.494 33.8469 101.494 33.706C101.494 33.0966 100.454 32.8161 99.9057 33.2774ZM105.228 33.2341C104.941 33.4597 104.894 33.8854 105.133 34.0872C105.217 34.1582 105.482 34.28 105.722 34.3578C106.047 34.4634 106.157 34.5466 106.157 34.6875C106.157 34.9617 105.69 35.001 105.527 34.7404C105.452 34.6205 105.306 34.5462 105.145 34.5462C104.816 34.5462 104.804 34.756 105.117 35.0686C105.615 35.5664 106.77 35.2671 106.77 34.6403C106.77 34.296 106.578 34.1087 106.082 33.967C105.515 33.8046 105.405 33.7042 105.591 33.518C105.727 33.3818 105.765 33.3832 106.027 33.5335C106.605 33.8654 106.925 33.6258 106.427 33.2341C106.277 33.1158 106.041 33.0388 105.828 33.0388C105.615 33.0388 105.378 33.1158 105.228 33.2341ZM106.958 33.2743C106.958 33.4806 106.999 33.5098 107.288 33.5098H107.618V35.2999H108.183V33.5098H108.513C108.802 33.5098 108.842 33.4806 108.842 33.2743V33.0388H106.958V33.2743ZM109.125 35.2999H110.02C110.912 35.2999 110.915 35.299 110.915 35.0643C110.915 34.8373 110.893 34.8288 110.303 34.8288C109.712 34.8288 109.69 34.8203 109.69 34.5933C109.69 34.3706 109.719 34.3578 110.208 34.3578C110.664 34.3578 110.727 34.335 110.727 34.1693C110.727 34.0037 110.664 33.9809 110.208 33.9809C109.719 33.9809 109.69 33.9681 109.69 33.7454C109.69 33.5203 109.715 33.5098 110.256 33.5098C110.796 33.5098 110.821 33.4994 110.821 33.2743C110.821 33.0406 110.815 33.0388 109.973 33.0388H109.125V35.2999ZM111.292 35.2999H112.187C113.074 35.2999 113.082 35.2979 113.082 35.0687C113.082 34.8488 113.051 34.8361 112.446 34.8096C111.882 34.7849 111.81 34.7603 111.81 34.5933C111.81 34.43 111.882 34.4011 112.352 34.3766C112.811 34.3527 112.894 34.3212 112.894 34.1693C112.894 34.0175 112.811 33.986 112.352 33.9621C111.882 33.9376 111.81 33.9086 111.81 33.7454C111.81 33.58 111.882 33.5536 112.399 33.5289C112.954 33.5025 112.988 33.4874 112.988 33.2698C112.988 33.0417 112.977 33.0388 112.14 33.0388H111.292V35.2999ZM113.459 35.2999H114.212C114.954 35.2999 114.966 35.2959 114.966 35.0643C114.966 34.8416 114.938 34.8288 114.448 34.8288H113.93V33.9338C113.93 33.0419 113.929 33.0388 113.694 33.0388H113.459V35.2999ZM118.358 35.2999H118.64C118.906 35.2999 118.923 35.2776 118.923 34.935V34.5701L119.41 34.5234C119.977 34.4689 120.148 34.2987 120.148 33.7891C120.148 33.28 119.925 33.1302 119.073 33.0657L118.358 33.0116V35.2999ZM121.02 33.1357C120.377 33.3943 120.242 34.5396 120.797 35.0352C121.326 35.5082 122.132 35.3618 122.457 34.7336C122.958 33.7644 122.028 32.7304 121.02 33.1357ZM122.786 33.1319C122.786 33.2179 123.105 34.4252 123.315 35.135C123.346 35.2415 123.458 35.2999 123.629 35.2999C123.883 35.2999 123.9 35.2709 124.012 34.6639C124.182 33.7425 124.249 33.6889 124.379 34.3713C124.552 35.2817 124.561 35.2999 124.849 35.2999C125.1 35.2999 125.12 35.2632 125.373 34.3342C125.517 33.8031 125.657 33.291 125.684 33.1961C125.724 33.0533 125.686 33.0291 125.46 33.0548C125.201 33.0844 125.181 33.1209 125.045 33.8098C124.967 34.208 124.876 34.5597 124.845 34.5915C124.813 34.6232 124.757 34.4882 124.721 34.2915C124.496 33.0677 124.479 33.0262 124.217 33.057C123.991 33.0834 123.959 33.1419 123.844 33.7454C123.654 34.7416 123.616 34.7552 123.449 33.8867C123.303 33.1321 123.28 33.0842 123.04 33.0561C122.897 33.0393 122.786 33.0726 122.786 33.1319ZM125.989 35.2999H126.837C127.674 35.2999 127.685 35.297 127.685 35.0689C127.685 34.8512 127.651 34.8362 127.096 34.8098C126.567 34.7845 126.504 34.7601 126.477 34.5697C126.449 34.3699 126.48 34.3578 127.019 34.3578C127.523 34.3578 127.591 34.336 127.591 34.174C127.591 34.0164 127.514 33.9863 127.049 33.9621C126.569 33.937 126.504 33.9096 126.477 33.7218C126.448 33.5205 126.478 33.5098 127.066 33.5098C127.663 33.5098 127.685 33.5016 127.685 33.2743C127.685 33.0406 127.679 33.0388 126.837 33.0388H125.989V35.2999ZM128.138 33.1094C128.122 33.1483 128.109 33.6465 128.109 34.2164V35.2528L128.368 35.2825C128.617 35.3113 128.627 35.2959 128.627 34.8821C128.627 34.4541 128.629 34.452 128.953 34.452C129.313 34.452 129.475 34.6406 129.475 35.0581C129.475 35.2628 129.517 35.2999 129.752 35.2999C130.018 35.2999 130.026 35.2866 129.976 34.9466C129.947 34.7523 129.87 34.508 129.806 34.4037C129.711 34.2502 129.713 34.1913 129.817 34.0938C129.958 33.9619 129.987 33.5321 129.867 33.3433C129.826 33.2775 129.646 33.1822 129.469 33.1313C129.09 33.0225 128.18 33.0076 128.138 33.1094ZM118.923 33.8337C118.923 34.1215 118.954 34.1693 119.141 34.1693C119.26 34.1693 119.44 34.1082 119.541 34.0336C119.793 33.8462 119.616 33.5668 119.22 33.5275C118.937 33.4993 118.923 33.5136 118.923 33.8337ZM121.152 33.6822C120.976 33.876 120.946 34.3717 121.093 34.6466C121.161 34.7724 121.291 34.8288 121.514 34.8288C121.888 34.8288 122.032 34.638 122.032 34.143C122.032 33.5919 121.49 33.3081 121.152 33.6822ZM128.627 33.7925C128.627 34.0507 128.654 34.0751 128.945 34.0751C129.336 34.0751 129.555 33.8615 129.381 33.6512C129.316 33.5734 129.12 33.5098 128.945 33.5098C128.654 33.5098 128.627 33.5342 128.627 33.7925ZM103.026 33.7263C102.644 33.8965 102.639 34.4464 103.016 34.6485C103.481 34.8972 104.001 34.3677 103.717 33.9348C103.548 33.6766 103.303 33.6026 103.026 33.7263ZM116.406 33.7066C116.186 33.7882 116.038 34.1639 116.131 34.4054C116.161 34.4837 116.291 34.5958 116.42 34.6546C116.609 34.7405 116.701 34.7308 116.894 34.6045C117.436 34.2494 117.017 33.4793 116.406 33.7066Z" fill="#2F55A6"/>
</svg>
