<svg width="40" height="40" viewBox="0 0 40 40" fill="none" xmlns="http://www.w3.org/2000/svg">
<g clip-path="url(#clip0_2012_1390)">
<path fill-rule="evenodd" clip-rule="evenodd" d="M15.6255 0.490204C10.0811 1.68083 4.74828 5.84614 2.23078 10.9524C0.500778 14.4605 -0.114847 17.4415 0.117341 21.1849C0.432028 26.2571 2.33109 30.4599 5.93797 34.0668C9.54484 37.6736 13.7477 39.5727 18.8198 39.8874C28.6042 40.4943 37.3261 33.9146 39.5839 24.223C40.1864 21.6365 40.4833 17.4977 40.0855 17.2265C39.9314 17.1215 39.6267 16.2199 39.4083 15.223C37.922 8.44052 31.923 2.43958 24.8102 0.620517C20.997 -0.354796 21.2505 -0.564796 21.2505 3.57208V7.13989L22.8198 7.47645C27.5586 8.4927 31.512 12.4461 32.5283 17.1849L32.8648 18.7543H36.4327H40.0005V20.0043V21.2543H36.4208H32.8414L32.6342 22.4261C32.0552 25.7055 29.0486 29.8249 26.1548 31.3046C14.833 37.093 2.91172 25.1718 8.70015 13.8499C10.1798 10.9561 14.2992 7.94958 17.5786 7.37052L18.7505 7.16333V3.58395C18.7505 -0.498233 19.0139 -0.237608 15.6255 0.490204ZM17.9205 9.69177C9.80703 11.3777 6.78765 21.4952 12.6486 27.3561C17.8961 32.604 26.488 30.9593 29.6252 24.1068C31.322 20.4002 30.3708 15.4693 27.3983 12.5615C25.0211 10.2361 21.0648 9.03833 17.9205 9.69177ZM18.7505 14.3011C18.7505 14.9086 18.4298 15.4161 17.6567 16.0333C16.7442 16.7615 16.563 17.1071 16.563 18.1199C16.563 19.5699 17.357 20.324 19.7058 21.104C20.8423 21.4815 21.2505 21.7755 21.2505 22.2168C21.2505 22.7036 21.0295 22.8146 20.0786 22.8058C19.4342 22.7996 18.5552 22.5936 18.1255 22.348C17.0773 21.749 17.0305 21.759 16.6133 22.6752C16.0698 23.8677 16.1417 24.009 17.5005 24.4161C18.5777 24.739 18.7505 24.9133 18.7505 25.6786C18.7505 26.5065 18.8355 26.5668 20.0005 26.5668C21.1811 26.5668 21.2505 26.5146 21.2505 25.6293C21.2505 24.9921 21.4052 24.6918 21.7333 24.6918C22.6077 24.6918 23.7505 23.2343 23.7505 22.1193C23.7505 20.6199 23.0361 19.8143 21.172 19.2111C19.3155 18.6108 18.5698 18.0493 18.9064 17.5049C19.1345 17.1355 20.7205 17.2065 22.0502 17.6458C22.553 17.8121 22.7786 17.6721 23.0817 17.0065C23.508 16.0711 23.3117 15.7983 21.9536 15.4365C21.4298 15.2968 21.2505 15.0186 21.2505 14.3455C21.2505 13.4996 21.1705 13.4418 20.0005 13.4418C18.8452 13.4418 18.7505 13.5068 18.7505 14.3011ZM0.107653 19.848C0.108591 21.223 0.163591 21.7468 0.229528 21.0118C0.295778 20.2768 0.294841 19.1518 0.227653 18.5118C0.160466 17.8718 0.106403 18.473 0.107653 19.848Z" fill="#D90429"/>
</g>
<defs>
<clipPath id="clip0_2012_1390">
<rect width="40" height="40" fill="white"/>
</clipPath>
</defs>
</svg>
