<svg width="40" height="40" viewBox="0 0 40 40" fill="none" xmlns="http://www.w3.org/2000/svg">
<mask id="mask0_1531_5524" style="mask-type:alpha" maskUnits="userSpaceOnUse" x="0" y="0" width="40" height="40">
<rect width="40" height="40" fill="#D9D9D9"/>
</mask>
<g mask="url(#mask0_1531_5524)">
<path d="M13.9997 28.3281L19.9997 22.3281L25.9997 28.3281L28.333 25.9948L22.333 19.9948L28.333 13.9948L25.9997 11.6615L19.9997 17.6615L13.9997 11.6615L11.6663 13.9948L17.6663 19.9948L11.6663 25.9948L13.9997 28.3281ZM19.9997 36.6615C17.6941 36.6615 15.5275 36.224 13.4997 35.349C11.4719 34.474 9.70801 33.2865 8.20801 31.7865C6.70801 30.2865 5.52051 28.5226 4.64551 26.4948C3.77051 24.467 3.33301 22.3003 3.33301 19.9948C3.33301 17.6892 3.77051 15.5226 4.64551 13.4948C5.52051 11.467 6.70801 9.70312 8.20801 8.20312C9.70801 6.70312 11.4719 5.51562 13.4997 4.64062C15.5275 3.76562 17.6941 3.32812 19.9997 3.32812C22.3052 3.32812 24.4719 3.76562 26.4997 4.64062C28.5275 5.51562 30.2913 6.70312 31.7913 8.20312C33.2913 9.70312 34.4788 11.467 35.3538 13.4948C36.2288 15.5226 36.6663 17.6892 36.6663 19.9948C36.6663 22.3003 36.2288 24.467 35.3538 26.4948C34.4788 28.5226 33.2913 30.2865 31.7913 31.7865C30.2913 33.2865 28.5275 34.474 26.4997 35.349C24.4719 36.224 22.3052 36.6615 19.9997 36.6615ZM19.9997 33.3281C23.7219 33.3281 26.8747 32.0365 29.458 29.4531C32.0413 26.8698 33.333 23.717 33.333 19.9948C33.333 16.2726 32.0413 13.1198 29.458 10.5365C26.8747 7.95313 23.7219 6.66146 19.9997 6.66146C16.2775 6.66146 13.1247 7.95313 10.5413 10.5365C7.95801 13.1198 6.66634 16.2726 6.66634 19.9948C6.66634 23.717 7.95801 26.8698 10.5413 29.4531C13.1247 32.0365 16.2775 33.3281 19.9997 33.3281Z" fill="#666666"/>
</g>
</svg>
