<svg width="40" height="40" viewBox="0 0 40 40" fill="none" xmlns="http://www.w3.org/2000/svg">
<path d="M32.5 37.5H30V33.75C29.998 32.093 29.3389 30.5044 28.1672 29.3328C26.9956 28.1611 25.407 27.502 23.75 27.5H16.25C14.593 27.502 13.0044 28.1611 11.8328 29.3328C10.6611 30.5044 10.002 32.093 10 33.75V37.5H7.5V33.75C7.50331 31.4304 8.42624 29.2067 10.0665 27.5665C11.7067 25.9262 13.9304 25.0033 16.25 25H23.75C26.0696 25.0033 28.2933 25.9262 29.9335 27.5665C31.5738 29.2067 32.4967 31.4304 32.5 33.75V37.5ZM6.25 7.5C5.91848 7.5 5.60054 7.6317 5.36612 7.86612C5.1317 8.10054 5 8.41848 5 8.75V20H7.5V8.75C7.5 8.41848 7.3683 8.10054 7.13388 7.86612C6.89946 7.6317 6.58152 7.5 6.25 7.5Z" fill="#FF0B0B"/>
<path d="M5 2.5V5H11.25V13.75C11.25 16.0706 12.1719 18.2962 13.8128 19.9372C15.4538 21.5781 17.6794 22.5 20 22.5C22.3206 22.5 24.5462 21.5781 26.1872 19.9372C27.8281 18.2962 28.75 16.0706 28.75 13.75V5H35V2.5H5ZM13.75 5H26.25V8.75H13.75V5ZM20 20C18.3424 20 16.7527 19.3415 15.5806 18.1694C14.4085 16.9973 13.75 15.4076 13.75 13.75V11.25H26.25V13.75C26.25 15.4076 25.5915 16.9973 24.4194 18.1694C23.2473 19.3415 21.6576 20 20 20Z" fill="#FF0B0B"/>
</svg>
