<svg width="40" height="40" viewBox="0 0 40 40" fill="none" xmlns="http://www.w3.org/2000/svg">
<path fill-rule="evenodd" clip-rule="evenodd" d="M14.3911 2.875C14.1849 3.08125 14.0161 3.57344 14.0161 3.96875C14.0161 4.67 13.9408 4.6875 10.9536 4.6875C8.98832 4.6875 7.75676 4.82188 7.51613 5.0625C7.30394 5.27469 7.14113 6.29156 7.14113 7.40625V9.375H23.5474H39.9536V7.35469C39.9536 4.81781 39.7486 4.6875 35.7555 4.6875H32.7661V3.74031C32.7661 2.03281 30.8414 2.14062 30.6361 3.85969L30.5371 4.6875H27.6099H24.6827L24.5836 3.85969C24.3783 2.14062 22.4536 2.03281 22.4536 3.74031V4.6875H19.4849C16.5955 4.6875 16.5161 4.66844 16.5161 3.96875C16.5161 3.13187 15.9783 2.5 15.2661 2.5C14.9911 2.5 14.5974 2.66875 14.3911 2.875ZM7.00738 12.5781C6.92707 12.9647 6.76988 14.12 6.65801 15.145C6.21394 19.2122 3.95894 24.4303 1.36519 27.3941C-0.180744 29.1606 -0.360744 29.8097 0.558006 30.3016C0.951443 30.5122 6.58269 30.625 16.6858 30.625H32.2089L33.5446 29.17C36.8224 25.6003 39.1911 19.8166 39.7639 13.9844L39.9711 11.875H23.5621H7.15301L7.00738 12.5781ZM39.3483 24.6584C38.5561 26.5381 36.0371 30.1163 34.543 31.4844L33.0927 32.8125H20.1033H7.11363L7.20551 35.0781L7.29738 37.3438L23.2724 37.4247C36.5818 37.4922 39.3074 37.4334 39.6071 37.0725C39.8589 36.7688 39.9411 34.6881 39.8821 30.1166C39.8043 24.1169 39.7614 23.6791 39.3483 24.6584Z" fill="#D90429"/>
</svg>
