<svg width="40" height="40" viewBox="0 0 40 40" fill="none" xmlns="http://www.w3.org/2000/svg">
<mask id="mask0_2012_1318" style="mask-type:alpha" maskUnits="userSpaceOnUse" x="0" y="0" width="40" height="40">
<rect width="40" height="40" fill="#D9D9D9"/>
</mask>
<g mask="url(#mask0_2012_1318)">
<path d="M1.5 22.3674C1.5 19.3061 2.73505 15.92 5.20516 12.2091C7.67527 8.49829 11.4145 4.42857 16.423 0C20.1239 3.28022 23.1227 6.35506 25.4194 9.22454C27.7176 12.094 29.3527 14.7901 30.3248 17.3128H28.0245C27.1121 15.2051 25.6909 12.9482 23.7608 10.542C21.8322 8.13445 19.3863 5.57409 16.423 2.86095C12.1948 6.73382 9.00626 10.3047 6.85735 13.5735C4.70844 16.8424 3.63328 19.7737 3.63186 22.3674C3.63186 26.1692 4.83991 29.323 7.25601 31.8286C9.67211 34.3342 12.7278 35.5864 16.423 35.5849C16.5324 35.5849 16.6419 35.5778 16.7513 35.5636C16.8607 35.5494 16.9702 35.5423 17.0796 35.5423V37.7168H16.423C12.1635 37.7168 8.61187 36.2501 5.76797 33.3166C2.92408 30.3832 1.50142 26.7335 1.5 22.3674ZM22.7205 40L22.1023 38.5887C21.845 38.0131 21.6539 37.419 21.5288 36.8065C21.4051 36.1954 21.3433 35.575 21.3433 34.9454C21.3433 34.1921 21.4385 33.4467 21.629 32.7091C21.8208 31.9729 22.0866 31.2494 22.4263 30.5388C22.6992 29.9348 22.9422 29.308 23.1554 28.6585C23.3686 28.009 23.4752 27.3332 23.4752 26.6311C23.4752 26.0413 23.4126 25.4707 23.2876 24.9193C23.1639 24.3678 22.9813 23.8299 22.7397 23.3054L22.2813 22.3227L23.9825 21.5765L24.6008 22.9196C24.858 23.4966 25.0492 24.102 25.1743 24.7359C25.2979 25.3712 25.3597 26.003 25.3597 26.6311C25.3597 27.3844 25.2645 28.1206 25.0741 28.8397C24.8822 29.5589 24.6164 30.2738 24.2767 30.9844C24.0039 31.5884 23.7608 32.2237 23.5476 32.8903C23.3345 33.5568 23.2279 34.2419 23.2279 34.9454C23.2279 35.4997 23.2812 36.0433 23.3878 36.5762C23.4944 37.1092 23.6677 37.6209 23.9079 38.1112L24.4622 39.2539L22.7205 40ZM29.1161 40L28.4978 38.5887C28.2406 38.0131 28.0494 37.419 27.9243 36.8065C27.8007 36.1954 27.7389 35.575 27.7389 34.9454C27.7389 34.1921 27.8341 33.4467 28.0245 32.7091C28.2164 31.9729 28.4822 31.2494 28.8219 30.5388C29.0947 29.9348 29.3378 29.308 29.551 28.6585C29.7641 28.009 29.8707 27.3332 29.8707 26.6311C29.8707 26.0413 29.8082 25.4707 29.6831 24.9193C29.5595 24.3678 29.3776 23.8299 29.1374 23.3054L28.6769 22.3227L30.3781 21.5765L30.9964 22.9196C31.2536 23.5321 31.4448 24.1468 31.5698 24.7636C31.6935 25.3804 31.7553 26.003 31.7553 26.6311C31.7553 27.3574 31.6736 28.0801 31.5101 28.7992C31.3453 29.5184 31.0994 30.2055 30.7725 30.8607C30.4655 31.5088 30.1976 32.1761 29.9688 32.8626C29.7386 33.549 29.6234 34.2433 29.6234 34.9454C29.6234 35.4997 29.6767 36.0433 29.7833 36.5762C29.8899 37.1092 30.0633 37.6209 30.3035 38.1112L30.8578 39.2539L29.1161 40ZM35.5116 40L34.8934 38.5887C34.6361 38.0131 34.445 37.419 34.3199 36.8065C34.1963 36.1954 34.1344 35.575 34.1344 34.9454C34.1344 34.1921 34.2297 33.4467 34.4201 32.7091C34.612 31.9729 34.8778 31.2494 35.2174 30.5388C35.4903 29.9348 35.7333 29.308 35.9465 28.6585C36.1597 28.009 36.2663 27.3332 36.2663 26.6311C36.2663 26.0413 36.2038 25.4707 36.0787 24.9193C35.955 24.3678 35.7731 23.8299 35.5329 23.3054L35.0725 22.3227L36.7737 21.5765L37.3919 22.9196C37.6762 23.4966 37.8744 24.102 37.9867 24.7359C38.0961 25.3712 38.1509 26.003 38.1509 26.6311C38.1509 27.3631 38.0691 28.0865 37.9057 28.8014C37.7423 29.5177 37.4964 30.2084 37.1681 30.8735C36.8611 31.5316 36.5932 32.1995 36.3644 32.8775C36.1341 33.554 36.019 34.2433 36.019 34.9454C36.019 35.4997 36.0723 36.0433 36.1789 36.5762C36.2855 37.1092 36.4596 37.6209 36.7012 38.1112L37.2555 39.2539L35.5116 40Z" fill="#FF0B0B" stroke="#FF0B0B"/>
</g>
</svg>
