<svg width="40" height="40" viewBox="0 0 40 40" fill="none" xmlns="http://www.w3.org/2000/svg">
<mask id="mask0_2012_1359" style="mask-type:alpha" maskUnits="userSpaceOnUse" x="0" y="0" width="40" height="40">
<rect width="40" height="40" fill="#D9D9D9"/>
</mask>
<g mask="url(#mask0_2012_1359)">
<path d="M17.3822 13.874V16.628H15.3662V19.994H17.3822V30H21.5262V19.994H24.3062C24.3062 19.994 24.5682 18.38 24.6942 16.614H21.5422V14.314C21.5422 13.968 21.9942 13.506 22.4422 13.506H24.6982V10H21.6282C17.2802 10 17.3822 13.37 17.3822 13.874Z" fill="white"/>
<path d="M8 4C6.93913 4 5.92172 4.42143 5.17157 5.17157C4.42143 5.92172 4 6.93913 4 8V32C4 33.0609 4.42143 34.0783 5.17157 34.8284C5.92172 35.5786 6.93913 36 8 36H32C33.0609 36 34.0783 35.5786 34.8284 34.8284C35.5786 34.0783 36 33.0609 36 32V8C36 6.93913 35.5786 5.92172 34.8284 5.17157C34.0783 4.42143 33.0609 4 32 4H8ZM8 0H32C34.1217 0 36.1566 0.842855 37.6569 2.34315C39.1571 3.84344 40 5.87827 40 8V32C40 34.1217 39.1571 36.1566 37.6569 37.6569C36.1566 39.1571 34.1217 40 32 40H8C5.87827 40 3.84344 39.1571 2.34315 37.6569C0.842855 36.1566 0 34.1217 0 32V8C0 5.87827 0.842855 3.84344 2.34315 2.34315C3.84344 0.842855 5.87827 0 8 0Z" fill="white"/>
</g>
</svg>
