<svg width="19" height="19" viewBox="0 0 19 19" fill="none" xmlns="http://www.w3.org/2000/svg">
<path d="M6.36082 2.5C5.90067 2.5 5.45937 2.68253 5.13399 3.00744C4.80862 3.33235 4.62583 3.77302 4.62583 4.23251V7.12001C4.01229 7.12001 3.42389 7.36339 2.99006 7.7966C2.55622 8.22981 2.3125 8.81737 2.3125 9.43002V14.6275C2.3125 15.087 2.49529 15.5277 2.82067 15.8526C3.14604 16.1775 3.58735 16.36 4.04749 16.36H10.9875C10.7305 16.0183 10.5527 15.6238 10.467 15.205H4.04749C3.89411 15.205 3.74701 15.1442 3.63855 15.0359C3.53009 14.9276 3.46916 14.7807 3.46916 14.6275V9.43002C3.46916 9.1237 3.59103 8.82992 3.80794 8.61331C4.02486 8.39671 4.31906 8.27502 4.62583 8.27502H10.467C10.5537 7.84767 10.7342 7.45497 10.9875 7.12001H5.78249V4.23251C5.78249 4.07934 5.84342 3.93245 5.95188 3.82415C6.06034 3.71585 6.20744 3.655 6.36082 3.655H12.1441C12.2975 3.655 12.4446 3.71585 12.5531 3.82415C12.6615 3.93245 12.7225 4.07934 12.7225 4.23251V6.02276C12.9098 5.98426 13.1026 5.96501 13.3008 5.96501H13.8791V4.23251C13.8791 3.77302 13.6963 3.33235 13.371 3.00744C13.0456 2.68253 12.6043 2.5 12.1441 2.5H6.36082ZM13.3008 7.12001C12.8407 7.12001 12.3993 7.30255 12.074 7.62745C11.7486 7.95236 11.5658 8.39303 11.5658 8.85252V14.6275C11.5658 15.087 11.7486 15.5277 12.074 15.8526C12.3993 16.1775 12.8407 16.36 13.3008 16.36H14.4575C14.9176 16.36 15.3589 16.1775 15.6843 15.8526C16.0097 15.5277 16.1925 15.087 16.1925 14.6275V8.85252C16.1925 8.39303 16.0097 7.95236 15.6843 7.62745C15.3589 7.30255 14.9176 7.12001 14.4575 7.12001H13.3008ZM12.7225 8.85252C12.7225 8.69936 12.7834 8.55247 12.8919 8.44416C13.0003 8.33586 13.1474 8.27502 13.3008 8.27502H14.4575C14.6108 8.27502 14.7579 8.33586 14.8664 8.44416C14.9749 8.55247 15.0358 8.69936 15.0358 8.85252V14.6275C15.0358 14.7807 14.9749 14.9276 14.8664 15.0359C14.7579 15.1442 14.6108 15.205 14.4575 15.205H13.3008C13.1474 15.205 13.0003 15.1442 12.8919 15.0359C12.7834 14.9276 12.7225 14.7807 12.7225 14.6275V8.85252ZM5.78249 10.0075C5.78249 10.1607 5.72156 10.3076 5.6131 10.4159C5.50464 10.5242 5.35754 10.585 5.20416 10.585C5.05077 10.585 4.90367 10.5242 4.79522 10.4159C4.68676 10.3076 4.62583 10.1607 4.62583 10.0075C4.62583 9.85436 4.68676 9.70747 4.79522 9.59917C4.90367 9.49086 5.05077 9.43002 5.20416 9.43002C5.35754 9.43002 5.50464 9.49086 5.6131 9.59917C5.72156 9.70747 5.78249 9.85436 5.78249 10.0075ZM5.20416 12.895C5.35754 12.895 5.50464 12.8342 5.6131 12.7259C5.72156 12.6176 5.78249 12.4707 5.78249 12.3175C5.78249 12.1644 5.72156 12.0175 5.6131 11.9092C5.50464 11.8009 5.35754 11.74 5.20416 11.74C5.05077 11.74 4.90367 11.8009 4.79522 11.9092C4.68676 12.0175 4.62583 12.1644 4.62583 12.3175C4.62583 12.4707 4.68676 12.6176 4.79522 12.7259C4.90367 12.8342 5.05077 12.895 5.20416 12.895ZM8.09582 10.0075C8.09582 10.1607 8.03488 10.3076 7.92643 10.4159C7.81797 10.5242 7.67087 10.585 7.51748 10.585C7.3641 10.585 7.217 10.5242 7.10854 10.4159C7.00008 10.3076 6.93915 10.1607 6.93915 10.0075C6.93915 9.85436 7.00008 9.70747 7.10854 9.59917C7.217 9.49086 7.3641 9.43002 7.51748 9.43002C7.67087 9.43002 7.81797 9.49086 7.92643 9.59917C8.03488 9.70747 8.09582 9.85436 8.09582 10.0075ZM7.51748 12.895C7.67087 12.895 7.81797 12.8342 7.92643 12.7259C8.03488 12.6176 8.09582 12.4707 8.09582 12.3175C8.09582 12.1644 8.03488 12.0175 7.92643 11.9092C7.81797 11.8009 7.67087 11.74 7.51748 11.74C7.3641 11.74 7.217 11.8009 7.10854 11.9092C7.00008 12.0175 6.93915 12.1644 6.93915 12.3175C6.93915 12.4707 7.00008 12.6176 7.10854 12.7259C7.217 12.8342 7.3641 12.895 7.51748 12.895Z" fill="white"/>
</svg>
