<svg width="40" height="40" viewBox="0 0 40 40" fill="none" xmlns="http://www.w3.org/2000/svg">
<path d="M30 33.3333L36.3733 26.96C36.5609 26.7726 36.6664 26.5185 36.6667 26.2533V17.5C36.6667 16.837 36.4033 16.2011 35.9344 15.7322C35.4656 15.2634 34.8297 15 34.1667 15C33.5036 15 32.8677 15.2634 32.3989 15.7322C31.9301 16.2011 31.6667 16.837 31.6667 17.5V25" stroke="#FF0B0B" stroke-width="2" stroke-linecap="round" stroke-linejoin="round"/>
<path d="M29.9997 26.6667L31.4297 25.2367C31.5051 25.1619 31.5649 25.0728 31.6055 24.9746C31.6461 24.8765 31.6668 24.7712 31.6663 24.665C31.6652 24.5153 31.6229 24.3689 31.5441 24.2416C31.4653 24.1143 31.3531 24.0111 31.2197 23.9433L30.4813 23.575C29.8558 23.2622 29.1478 23.1541 28.4574 23.266C27.7671 23.3779 27.1294 23.704 26.6347 24.1983L25.143 25.69C24.5178 26.315 24.1665 27.1627 24.1663 28.0467V33.3333M9.99967 33.3333L3.62634 26.96C3.43875 26.7726 3.33324 26.5185 3.33301 26.2533V17.5C3.33301 16.837 3.5964 16.2011 4.06524 15.7322C4.53408 15.2634 5.16997 15 5.83301 15C6.49605 15 7.13193 15.2634 7.60078 15.7322C8.06962 16.2011 8.33301 16.837 8.33301 17.5V25" stroke="#FF0B0B" stroke-width="2" stroke-linecap="round" stroke-linejoin="round"/>
<path d="M9.99967 26.6641L8.56967 25.2341C8.42035 25.0809 8.33561 24.8763 8.33301 24.6624C8.33301 24.3574 8.50634 24.0791 8.77967 23.9407L9.51801 23.5724C10.1435 23.2596 10.8516 23.1515 11.5419 23.2634C12.2323 23.3753 12.8699 23.7014 13.3647 24.1957L14.8563 25.6874C15.4815 26.3124 15.8328 27.1601 15.833 28.0441V33.3307M22.778 19.9974H17.2213V16.1091H13.333V10.5524H17.2213V6.66406H22.778V10.5524H26.6663V16.1091H22.778V19.9974Z" stroke="#FF0B0B" stroke-width="2" stroke-linecap="round" stroke-linejoin="round"/>
</svg>
