<svg width="40" height="40" viewBox="0 0 40 40" fill="none" xmlns="http://www.w3.org/2000/svg">
<path d="M8.43134 19.5726C11.628 19.9659 14.5513 17.5909 14.9597 14.2693C15.368 10.9476 11.5663 7.74594 12.9463 3.33594C6.10801 4.32594 3.75134 9.8376 3.37967 12.8459C2.97134 16.1676 5.23467 19.1793 8.43134 19.5726Z" stroke="#FF0B0B" stroke-width="2" stroke-linecap="round" stroke-linejoin="round"/>
<path d="M11.6662 33.3359C8.45784 25.5426 7.94951 18.6593 8.55451 13.3359M15.8462 29.4493C17.8045 33.4359 22.5345 34.5359 26.4095 31.9059C30.2845 29.2759 30.8962 21.9859 36.6662 19.4443C30.5078 12.6226 22.8278 15.0859 19.3195 17.4676C15.4428 20.0976 13.8878 25.4626 15.8462 29.4509" stroke="#FF0B0B" stroke-width="2" stroke-linecap="round" stroke-linejoin="round"/>
<path d="M10 36.6693C13.9633 29.8426 18.7733 25.7193 23.3333 23.3359" stroke="#FF0B0B" stroke-width="2" stroke-linecap="round" stroke-linejoin="round"/>
</svg>
