<svg width="40" height="40" viewBox="0 0 40 40" fill="none" xmlns="http://www.w3.org/2000/svg">
<path fill-rule="evenodd" clip-rule="evenodd" d="M6.5625 1.1425C6.5625 1.87937 6.83969 2.64812 7.34375 3.30906C7.77344 3.8725 8.125 4.72031 8.125 5.19344C8.125 5.66656 8.42469 6.3725 8.79094 6.7625L9.45719 7.47156L7.67969 10.6106C5.9175 13.7228 5.89187 13.75 4.71812 13.75C3.93531 13.75 3.34469 13.9594 2.97469 14.3684C2.43219 14.9678 2.45031 15.0384 3.55125 16.6369C5.14406 18.9497 5.07781 19.375 3.125 19.375C1.93438 19.375 1.5625 19.4881 1.5625 19.8506C1.5625 20.4675 3.99781 25.3159 4.30031 25.3016C4.4275 25.2953 4.88281 25.0894 5.3125 24.8438C6.84719 23.9666 7.10437 24.1834 7.25719 26.4844C7.36906 28.1662 7.85562 29.7497 9.65844 34.2969L11.9194 40H12.9625C13.9384 40 14.0894 39.8481 15.2916 37.6575C16.5719 35.3247 16.5766 35.3047 16.3731 32.8681L16.1691 30.4209L19.9422 27.4278C22.0175 25.7816 24.2856 24.1141 24.9825 23.7222L26.25 23.01V19.4797C26.25 16.075 26.225 15.9438 25.5469 15.7872C21.0844 14.7569 19.5669 14.2819 17.9688 13.4159C16.9375 12.8569 16.0525 12.3694 16.0022 12.3322C15.9519 12.2953 16.1475 11.7681 16.4372 11.1609C17.1141 9.74156 16.8813 9.19187 15.4938 8.93156C14.445 8.73469 14.375 8.64781 14.375 7.54219C14.375 6.65375 14.6834 5.94938 15.625 4.6875C16.3125 3.76594 16.875 2.92312 16.875 2.81437C16.875 2.70594 16.4453 2.20531 15.92 1.70219L14.9653 0.787188L13.7222 1.50281L12.4791 2.21813L11.1831 1.10906C10.0509 0.14 9.67781 0 8.225 0H6.5625V1.1425ZM32.4312 12.1431C31.2306 13.7181 30.4781 14.0625 28.2344 14.0625C27.3716 14.0625 27.1125 14.2187 26.8556 14.8947C26.4631 15.9269 26.6353 16.1006 28.7622 16.8216C30.1306 17.2856 30.4878 17.5494 30.5656 18.1531C30.6191 18.5675 30.8869 19.5109 31.1609 20.2497C31.9334 22.3328 32.6753 21.9794 33.9809 18.9062C34.9147 16.7087 35.2391 16.2731 36.6622 15.3069C37.5528 14.7019 38.3219 13.9263 38.3716 13.5828C38.5191 12.5628 36.6475 11.0197 35 10.8028C33.6103 10.62 33.58 10.6359 32.4312 12.1431Z" fill="#D90429"/>
</svg>
