<svg width="40" height="40" viewBox="0 0 40 40" fill="none" xmlns="http://www.w3.org/2000/svg">
<path d="M7.50001 35.8352V20.7785C6.20557 20.5452 5.11279 19.9897 4.22168 19.1119C3.33057 18.233 2.7889 17.1547 2.59668 15.8769H4.26335C4.47668 16.788 4.95779 17.5641 5.70668 18.2052C6.45557 18.8463 7.31723 19.1674 8.29168 19.1685H10.8333V14.1119C9.5389 13.8352 8.45668 13.2685 7.58668 12.4119C6.71668 11.5552 6.16446 10.488 5.93001 9.21021H7.59668C7.81001 10.1213 8.29112 10.8974 9.04001 11.5385C9.7889 12.1797 10.6506 12.5008 11.625 12.5019H12.9167L20 3.04688L27.0833 12.5019H28.375C29.3495 12.5019 30.2111 12.1808 30.96 11.5385C31.7089 10.8963 32.19 10.1202 32.4033 9.21021H34.07C33.9 10.4658 33.3745 11.5224 32.4933 12.3802C31.6133 13.2369 30.5045 13.8141 29.1667 14.1119V19.1685H31.7083C32.6828 19.1685 33.5445 18.8474 34.2933 18.2052C35.0422 17.563 35.5233 16.7869 35.7367 15.8769H37.4033C37.2545 17.1324 36.7345 18.1997 35.8433 19.0785C34.9522 19.9563 33.8378 20.523 32.5 20.7785V35.8352H22.5V27.5019H17.5V35.8352H7.50001ZM15 12.5019H25L20 5.83187L15 12.5019ZM12.5 19.1685H27.5V14.1685H12.5V19.1685ZM9.16668 34.1685H15.8333V25.8352H24.1667V34.1685H30.8333V20.8352H9.16668V34.1685Z" fill="#FF0B0B"/>
</svg>
