<svg width="33" height="32" viewBox="0 0 33 32" fill="none" xmlns="http://www.w3.org/2000/svg">
<path d="M16.4998 17.7958C15.6458 17.7958 14.8109 17.543 14.1008 17.0691C13.3906 16.5953 12.8372 15.9219 12.5103 15.134C12.1835 14.3461 12.098 13.4791 12.2646 12.6426C12.4312 11.8062 12.8425 11.0379 13.4464 10.4348C14.0503 9.83179 14.8197 9.42111 15.6574 9.25473C16.495 9.08835 17.3633 9.17374 18.1523 9.50011C18.9414 9.82647 19.6158 10.3791 20.0903 11.0883C20.5647 11.7974 20.818 12.631 20.818 13.4839C20.8166 14.6271 20.3612 15.723 19.5517 16.5314C18.7422 17.3397 17.6447 17.7945 16.4998 17.7958ZM16.4998 10.8967C15.9874 10.8967 15.4865 11.0484 15.0604 11.3327C14.6343 11.617 14.3022 12.021 14.1061 12.4938C13.91 12.9665 13.8587 13.4867 13.9587 13.9886C14.0587 14.4905 14.3054 14.9515 14.6678 15.3133C15.0301 15.6751 15.4918 15.9215 15.9944 16.0213C16.4969 16.1212 17.0179 16.0699 17.4913 15.8741C17.9647 15.6783 18.3694 15.3467 18.6541 14.9212C18.9388 14.4958 19.0907 13.9956 19.0907 13.4839C19.09 12.7979 18.8169 12.1402 18.3311 11.6552C17.8454 11.1702 17.1868 10.8974 16.4998 10.8967Z" fill="white"/>
<path d="M16.5 28.1471L9.21437 19.5671C9.11313 19.4383 9.01295 19.3086 8.91382 19.1782C7.66993 17.5408 6.99769 15.5415 7.00001 13.4864C7.00001 10.9704 8.0009 8.55753 9.78249 6.77849C11.5641 4.99945 13.9804 4 16.5 4C19.0196 4 21.4359 4.99945 23.2175 6.77849C24.9991 8.55753 26 10.9704 26 13.4864C26.002 15.5406 25.3301 17.5388 24.087 19.1756L24.0862 19.1782C24.0862 19.1782 23.8271 19.518 23.7882 19.5637L16.5 28.1471ZM10.293 18.139C10.293 18.139 10.4943 18.4046 10.54 18.4615L16.5 25.4806L22.4677 18.452C22.5057 18.4046 22.7078 18.1373 22.7087 18.1364C23.7254 16.799 24.2748 15.1655 24.2727 13.4864C24.2727 11.4279 23.4538 9.45368 21.9961 7.99811C20.5385 6.54253 18.5615 5.72479 16.5 5.72479C14.4385 5.72479 12.4615 6.54253 11.0039 7.99811C9.54619 9.45368 8.72728 11.4279 8.72728 13.4864C8.72515 15.1666 9.27521 16.8011 10.293 18.139Z" fill="white"/>
</svg>
