<svg width="33" height="32" viewBox="0 0 33 32" fill="none" xmlns="http://www.w3.org/2000/svg">
<path d="M6.16753 25.3385C5.55242 25.3385 5.03924 25.1332 4.62799 24.7225C4.21673 24.3119 4.01066 23.799 4.00977 23.1839V8.82654C4.00977 8.21232 4.21584 7.69987 4.62799 7.28921C5.04013 6.87854 5.55287 6.67276 6.16619 6.67188H25.8878C26.502 6.67188 27.0148 6.87765 27.426 7.28921C27.8373 7.70076 28.0434 8.21321 28.0443 8.82654V23.1852C28.0443 23.7985 27.8382 24.311 27.426 24.7225C27.0139 25.1341 26.5011 25.3394 25.8878 25.3385H6.16753ZM16.027 16.1599L5.34501 9.18521V23.1852C5.34501 23.4243 5.42201 23.6208 5.57601 23.7745C5.73001 23.9283 5.92718 24.0052 6.16753 24.0052H25.8878C26.1273 24.0052 26.324 23.9283 26.478 23.7745C26.632 23.6208 26.709 23.4239 26.709 23.1839V9.18387L16.027 16.1599ZM16.027 14.6719L26.2977 8.00521H5.75627L16.027 14.6719ZM5.34501 9.18521V8.00521V23.1852C5.34501 23.4243 5.42201 23.6208 5.57601 23.7745C5.73001 23.9283 5.92718 24.0052 6.16753 24.0052H5.34501V9.18521Z" fill="white"/>
</svg>
