<svg width="40" height="40" viewBox="0 0 40 40" fill="none" xmlns="http://www.w3.org/2000/svg">
<path d="M8.25 14.3861L18.3125 11.4364C19.7408 11.0178 21.2592 11.0178 22.6875 11.4364L32.75 14.3842M32.75 14.3842V19.7703M32.75 14.3842V11.625C32.75 10.9288 33.0266 10.2611 33.5188 9.76884C34.0111 9.27656 34.6788 9 35.375 9C36.0712 9 36.7389 9.27656 37.2312 9.76884C37.7234 10.2611 38 10.9288 38 11.625V15.8794C38 16.9108 37.5903 17.9 36.861 18.6293C36.1317 19.3586 35.1425 19.7683 34.1111 19.7683L32.75 19.7703M8.25 19.7683H6.88889C5.85749 19.7683 4.86834 19.3586 4.13903 18.6293C3.40972 17.9 3 16.9108 3 15.8794V11.625C3 10.9288 3.27656 10.2611 3.76884 9.76884C4.26113 9.27656 4.92881 9 5.625 9C6.32119 9 6.98887 9.27656 7.48116 9.76884C7.97344 10.2611 8.25 10.9288 8.25 11.625V14.3842V19.7683ZM8.25 19.7683V20.0833C8.25 21.692 8.56686 23.285 9.18248 24.7712C9.7981 26.2574 10.7004 27.6079 11.8379 28.7454C12.9755 29.8829 14.3259 30.7852 15.8121 31.4009C17.2984 32.0165 18.8913 32.3333 20.5 32.3333C22.1087 32.3333 23.7016 32.0165 25.1879 31.4009C26.6741 30.7852 28.0245 29.8829 29.1621 28.7454C30.2996 27.6079 31.2019 26.2574 31.8175 24.7712C32.4331 23.285 32.75 21.692 32.75 20.0833V19.7703" stroke="#FF0B0B" stroke-width="1.75" stroke-linecap="round" stroke-linejoin="round"/>
</svg>
