<svg width="32" height="32" viewBox="0 0 32 32" fill="none" xmlns="http://www.w3.org/2000/svg">
<path d="M21.3359 4.32812H10.6693C9.38927 4.32812 8.33594 5.38146 8.33594 6.66146V25.3281C8.33594 26.6081 9.38927 27.6615 10.6693 27.6615H21.3359C22.6159 27.6615 23.6693 26.6081 23.6693 25.3281V6.66146C23.6693 5.38146 22.6159 4.32812 21.3359 4.32812ZM21.6693 25.3281C21.6693 25.5148 21.5226 25.6615 21.3359 25.6615H10.6693C10.4826 25.6615 10.3359 25.5148 10.3359 25.3281V6.66146C10.3359 6.47479 10.4826 6.32813 10.6693 6.32813H21.3359C21.5226 6.32813 21.6693 6.47479 21.6693 6.66146V25.3281ZM17.3359 21.3281C17.3359 22.0615 16.7359 22.6615 16.0026 22.6615C15.2693 22.6615 14.6693 22.0615 14.6693 21.3281C14.6693 20.5948 15.2693 19.9948 16.0026 19.9948C16.7359 19.9948 17.3359 20.5948 17.3359 21.3281Z" fill="white"/>
</svg>
