<svg width="40" height="40" viewBox="0 0 40 40" fill="none" xmlns="http://www.w3.org/2000/svg">
<mask id="mask0_2012_1364" style="mask-type:alpha" maskUnits="userSpaceOnUse" x="0" y="0" width="40" height="40">
<rect width="40" height="40" fill="#D9D9D9"/>
</mask>
<g mask="url(#mask0_2012_1364)">
<mask id="path-2-inside-1_2012_1364" fill="white">
<path d="M21.9944 18.5806L29.9902 9.21875H28.0951L21.1543 17.3472L15.6079 9.21875H9.21191L17.5978 21.5117L9.21191 31.3284H11.107L18.4379 22.7435L24.2954 31.3284H30.6914L21.9944 18.5806ZM19.3997 21.6191L18.5501 20.3952L11.7893 10.6559H14.6998L20.1546 18.5158L21.0042 19.7398L28.0967 29.9576H25.1861L19.3997 21.6191Z"/>
</mask>
<path d="M21.9944 18.5806L29.9902 9.21875H28.0951L21.1543 17.3472L15.6079 9.21875H9.21191L17.5978 21.5117L9.21191 31.3284H11.107L18.4379 22.7435L24.2954 31.3284H30.6914L21.9944 18.5806ZM19.3997 21.6191L18.5501 20.3952L11.7893 10.6559H14.6998L20.1546 18.5158L21.0042 19.7398L28.0967 29.9576H25.1861L19.3997 21.6191Z" fill="white"/>
<path d="M21.9944 18.5806L18.9528 15.9828L16.9665 18.3084L18.6902 20.8349L21.9944 18.5806ZM29.9902 9.21875L33.0318 11.8165L38.6669 5.21875H29.9902V9.21875ZM28.0951 9.21875V5.21875H26.2508L25.0532 6.62128L28.0951 9.21875ZM21.1543 17.3472L17.8502 19.6017L20.7989 23.9232L24.1962 19.9447L21.1543 17.3472ZM15.6079 9.21875L18.912 6.96423L17.721 5.21875H15.6079V9.21875ZM9.21191 9.21875V5.21875H1.64117L5.90754 11.4729L9.21191 9.21875ZM17.5978 21.5117L20.6392 24.1098L22.6258 21.7842L20.9022 19.2576L17.5978 21.5117ZM9.21191 31.3284L6.17054 28.7303L0.534144 35.3284H9.21191V31.3284ZM11.107 31.3284V35.3284H12.9513L14.1489 33.9259L11.107 31.3284ZM18.4379 22.7435L21.7421 20.4891L18.7935 16.1675L15.3961 20.146L18.4379 22.7435ZM24.2954 31.3284L20.9913 33.5828L22.1823 35.3284H24.2954V31.3284ZM30.6914 31.3284V35.3284H38.2626L33.9957 29.0741L30.6914 31.3284ZM19.3997 21.6191L22.686 19.3386L22.6856 19.3381L19.3997 21.6191ZM18.5501 20.3952L15.2642 22.6762L15.2642 22.6762L18.5501 20.3952ZM11.7893 10.6559V6.65588H4.14324L8.50338 12.9369L11.7893 10.6559ZM14.6998 10.6559L17.986 8.37529L16.7928 6.65588H14.6998V10.6559ZM20.1546 18.5158L16.8684 20.7964L16.8687 20.7969L20.1546 18.5158ZM21.0042 19.7398L24.2902 17.4589L24.2901 17.4587L21.0042 19.7398ZM28.0967 29.9576V33.9576H35.7424L31.3827 27.6767L28.0967 29.9576ZM25.1861 29.9576L21.8999 32.238L23.0931 33.9576H25.1861V29.9576ZM25.0361 21.1784L33.0318 11.8165L26.9486 6.62095L18.9528 15.9828L25.0361 21.1784ZM29.9902 5.21875H28.0951V13.2188H29.9902V5.21875ZM25.0532 6.62128L18.1124 14.7497L24.1962 19.9447L31.137 11.8162L25.0532 6.62128ZM24.4584 15.0927L18.912 6.96423L12.3038 11.4733L17.8502 19.6017L24.4584 15.0927ZM15.6079 5.21875H9.21191V13.2188H15.6079V5.21875ZM5.90754 11.4729L14.2934 23.7658L20.9022 19.2576L12.5163 6.96461L5.90754 11.4729ZM14.5564 18.9136L6.17054 28.7303L12.2533 33.9265L20.6392 24.1098L14.5564 18.9136ZM9.21191 35.3284H11.107V27.3284H9.21191V35.3284ZM14.1489 33.9259L21.4798 25.3411L15.3961 20.146L8.06519 28.7308L14.1489 33.9259ZM15.1338 24.998L20.9913 33.5828L27.5996 29.0739L21.7421 20.4891L15.1338 24.998ZM24.2954 35.3284H30.6914V27.3284H24.2954V35.3284ZM33.9957 29.0741L25.2987 16.3263L18.6902 20.8349L27.3871 33.5827L33.9957 29.0741ZM22.6856 19.3381L21.8359 18.1141L15.2642 22.6762L16.1138 23.9001L22.6856 19.3381ZM21.836 18.1142L15.0752 8.37488L8.50338 12.9369L15.2642 22.6762L21.836 18.1142ZM11.7893 14.6559H14.6998V6.65588H11.7893V14.6559ZM11.4137 12.9365L16.8684 20.7964L23.4408 16.2353L17.986 8.37529L11.4137 12.9365ZM16.8687 20.7969L17.7184 22.0208L24.2901 17.4587L23.4405 16.2348L16.8687 20.7969ZM17.7183 22.0207L24.8107 32.2385L31.3827 27.6767L24.2902 17.4589L17.7183 22.0207ZM28.0967 25.9576H25.1861V33.9576H28.0967V25.9576ZM28.4724 27.6771L22.686 19.3386L16.1135 23.8996L21.8999 32.238L28.4724 27.6771Z" fill="white" mask="url(#path-2-inside-1_2012_1364)"/>
<path d="M33.3333 0C35.1014 0 36.7971 0.702379 38.0474 1.95262C39.2976 3.20286 40 4.89856 40 6.66667V33.3333C40 35.1014 39.2976 36.7971 38.0474 38.0474C36.7971 39.2976 35.1014 40 33.3333 40H6.66667C4.89856 40 3.20286 39.2976 1.95262 38.0474C0.702379 36.7971 0 35.1014 0 33.3333V6.66667C0 4.89856 0.702379 3.20286 1.95262 1.95262C3.20286 0.702379 4.89856 0 6.66667 0H33.3333ZM33.3333 4.44444H6.66667C6.0773 4.44444 5.51207 4.67857 5.09532 5.09532C4.67857 5.51207 4.44444 6.0773 4.44444 6.66667V33.3333C4.44444 33.9227 4.67857 34.4879 5.09532 34.9047C5.51207 35.3214 6.0773 35.5556 6.66667 35.5556H33.3333C33.9227 35.5556 34.4879 35.3214 34.9047 34.9047C35.3214 34.4879 35.5556 33.9227 35.5556 33.3333V6.66667C35.5556 6.0773 35.3214 5.51207 34.9047 5.09532C34.4879 4.67857 33.9227 4.44444 33.3333 4.44444Z" fill="white"/>
</g>
</svg>
