<svg width="33" height="32" viewBox="0 0 33 32" fill="none" xmlns="http://www.w3.org/2000/svg">
<path d="M11.0159 4C10.2191 4 9.45497 4.31607 8.89155 4.87868C8.32813 5.44129 8.01161 6.20435 8.01161 7V12C6.94922 12 5.93034 12.4214 5.17912 13.1716C4.42789 13.9217 4.00586 14.9391 4.00586 16V25C4.00586 25.7956 4.32238 26.5587 4.8858 27.1213C5.44922 27.6839 6.21338 28 7.01017 28H19.0274C18.5825 27.4082 18.2746 26.7251 18.1261 26H7.01017C6.74457 26 6.48985 25.8946 6.30205 25.7071C6.11424 25.5196 6.00873 25.2652 6.00873 25V16C6.00873 15.4696 6.21975 14.9609 6.59536 14.5858C6.97097 14.2107 7.48041 14 8.01161 14H18.1261C18.2763 13.26 18.5888 12.58 19.0274 12H10.0145V7C10.0145 6.73478 10.12 6.48043 10.3078 6.29289C10.4956 6.10536 10.7503 6 11.0159 6H21.0303C21.2959 6 21.5506 6.10536 21.7384 6.29289C21.9262 6.48043 22.0317 6.73478 22.0317 7V10.1C22.3562 10.0333 22.69 10 23.0332 10H24.0346V7C24.0346 6.20435 23.7181 5.44129 23.1547 4.87868C22.5912 4.31607 21.8271 4 21.0303 4H11.0159ZM23.0332 12C22.2364 12 21.4722 12.3161 20.9088 12.8787C20.3454 13.4413 20.0288 14.2044 20.0288 15V25C20.0288 25.7956 20.3454 26.5587 20.9088 27.1213C21.4722 27.6839 22.2364 28 23.0332 28H25.036C25.8328 28 26.597 27.6839 27.1604 27.1213C27.7238 26.5587 28.0403 25.7956 28.0403 25V15C28.0403 14.2044 27.7238 13.4413 27.1604 12.8787C26.597 12.3161 25.8328 12 25.036 12H23.0332ZM22.0317 15C22.0317 14.7348 22.1372 14.4804 22.325 14.2929C22.5128 14.1054 22.7676 14 23.0332 14H25.036C25.3016 14 25.5564 14.1054 25.7442 14.2929C25.932 14.4804 26.0375 14.7348 26.0375 15V25C26.0375 25.2652 25.932 25.5196 25.7442 25.7071C25.5564 25.8946 25.3016 26 25.036 26H23.0332C22.7676 26 22.5128 25.8946 22.325 25.7071C22.1372 25.5196 22.0317 25.2652 22.0317 25V15ZM10.0145 17C10.0145 17.2652 9.90897 17.5196 9.72117 17.7071C9.53336 17.8946 9.27864 18 9.01304 18C8.74745 18 8.49273 17.8946 8.30492 17.7071C8.11712 17.5196 8.01161 17.2652 8.01161 17C8.01161 16.7348 8.11712 16.4804 8.30492 16.2929C8.49273 16.1054 8.74745 16 9.01304 16C9.27864 16 9.53336 16.1054 9.72117 16.2929C9.90897 16.4804 10.0145 16.7348 10.0145 17ZM9.01304 22C9.27864 22 9.53336 21.8946 9.72117 21.7071C9.90897 21.5196 10.0145 21.2652 10.0145 21C10.0145 20.7348 9.90897 20.4804 9.72117 20.2929C9.53336 20.1054 9.27864 20 9.01304 20C8.74745 20 8.49273 20.1054 8.30492 20.2929C8.11712 20.4804 8.01161 20.7348 8.01161 21C8.01161 21.2652 8.11712 21.5196 8.30492 21.7071C8.49273 21.8946 8.74745 22 9.01304 22ZM14.0202 17C14.0202 17.2652 13.9147 17.5196 13.7269 17.7071C13.5391 17.8946 13.2844 18 13.0188 18C12.7532 18 12.4985 17.8946 12.3107 17.7071C12.1229 17.5196 12.0174 17.2652 12.0174 17C12.0174 16.7348 12.1229 16.4804 12.3107 16.2929C12.4985 16.1054 12.7532 16 13.0188 16C13.2844 16 13.5391 16.1054 13.7269 16.2929C13.9147 16.4804 14.0202 16.7348 14.0202 17ZM13.0188 22C13.2844 22 13.5391 21.8946 13.7269 21.7071C13.9147 21.5196 14.0202 21.2652 14.0202 21C14.0202 20.7348 13.9147 20.4804 13.7269 20.2929C13.5391 20.1054 13.2844 20 13.0188 20C12.7532 20 12.4985 20.1054 12.3107 20.2929C12.1229 20.4804 12.0174 20.7348 12.0174 21C12.0174 21.2652 12.1229 21.5196 12.3107 21.7071C12.4985 21.8946 12.7532 22 13.0188 22Z" fill="white"/>
</svg>
