<svg width="40" height="40" viewBox="0 0 40 40" fill="none" xmlns="http://www.w3.org/2000/svg">
<mask id="mask0_2012_1370" style="mask-type:alpha" maskUnits="userSpaceOnUse" x="0" y="0" width="40" height="40">
<rect width="40" height="40" fill="#D9D9D9"/>
</mask>
<g mask="url(#mask0_2012_1370)">
</g>
<g clip-path="url(#clip0_2012_1370)">
<path d="M39.1166 10.3867C38.8872 9.53884 38.4396 8.76585 37.8185 8.14473C37.1974 7.52361 36.4245 7.07603 35.5766 6.84656C32.4725 6 19.9797 6 19.9797 6C19.9797 6 7.48628 6.02562 4.38222 6.87219C3.53433 7.10167 2.76135 7.54927 2.14025 8.17042C1.51916 8.79157 1.07163 9.56459 0.842218 10.4125C-0.0966887 15.9278 -0.460908 24.3319 0.867999 29.6266C1.09743 30.4744 1.54498 31.2474 2.16607 31.8685C2.78716 32.4897 3.56013 32.9372 4.408 33.1667C7.51206 34.0133 20.0052 34.0133 20.0052 34.0133C20.0052 34.0133 32.4982 34.0133 35.6021 33.1667C36.45 32.9373 37.223 32.4897 37.8441 31.8686C38.4652 31.2475 38.9128 30.4745 39.1422 29.6266C40.1325 24.1034 40.4377 15.7045 39.1166 10.3867Z" fill="#FF0000"/>
<path d="M16.0029 26.0056L26.3667 20.0028L16.0029 14V26.0056Z" fill="white"/>
</g>
<defs>
<clipPath id="clip0_2012_1370">
<rect width="40" height="28.125" fill="white" transform="translate(0 6)"/>
</clipPath>
</defs>
</svg>
