<svg width="455" height="173" viewBox="0 0 455 173" fill="none" xmlns="http://www.w3.org/2000/svg">
<path fill-rule="evenodd" clip-rule="evenodd" d="M276.217 3.00171C276.471 4.70137 277.517 9.47956 278.541 13.6193C279.565 17.7591 281.141 25.3751 282.045 30.543C282.949 35.7116 284.248 42.1334 284.933 44.815C285.618 47.4965 286.064 49.8105 285.923 49.9569C285.785 50.104 284.536 49.884 283.15 49.4688C279.257 48.3022 277.933 48.4947 277.482 50.2939C276.843 52.8357 277.731 54.4293 280.249 55.2602L282.582 56.0307L280.58 57.9014C279.479 58.9302 275.073 64.2387 270.787 69.6975C266.501 75.1563 260.781 82.2581 258.075 85.4792C253.187 91.2972 252.547 92.3116 253.757 92.3116C254.106 92.3116 260.987 85.8325 269.049 77.914L283.709 63.5164V116.348C283.709 151.523 283.484 169.602 283.036 170.44C282.382 171.662 281.266 171.698 244.398 171.698C214.501 171.698 206.288 171.522 205.749 170.871C205.162 170.166 203.861 118.69 204.047 103.577C204.111 98.3612 204.841 97.517 209.287 97.517C215.822 97.517 236.989 93.742 238.408 92.3233C238.761 91.9706 238.841 91.4741 238.586 91.2197C238.181 90.8149 212.727 93.1044 207.132 94.0491C205.148 94.3842 204.977 94.2334 203.098 90.5117C201.155 86.6608 196.633 80.6105 189.126 71.8142C184.982 66.9593 184.151 66.2806 184.151 67.7519C184.151 69.0786 192.132 82.2464 196.267 87.7436C199.717 92.3311 200.346 93.3967 199.17 92.6695C198.502 92.2569 196.514 93.9998 196.514 94.9975C196.514 95.3503 197.437 96.4821 198.566 97.5133L200.619 99.3878L196.609 113.256C191.085 132.36 191.23 134.456 197.119 120.618L200.442 112.809L200.021 141.44C199.75 159.913 199.357 170.376 198.915 170.932C198.364 171.622 194.149 171.749 177.687 171.574L157.146 171.354L151.128 168.564C140.115 163.457 136.443 163.423 124.867 168.319C117.315 171.515 114.003 172.136 111.493 170.831C110.476 170.303 107.132 167.229 104.064 164.003C95.7105 155.219 93.045 155.262 85.3002 164.3C80.7354 169.63 78.8725 170.881 74.6799 171.438C70.7276 171.964 62.789 170.145 60.1086 168.101C52.0854 161.981 53.5683 146.379 62.6224 141.654C66.591 139.583 74.5303 139.563 78.9897 141.612C81.3745 142.708 82.3896 142.894 83.0396 142.355C84.3898 141.234 82.724 138.65 77.6648 134.014C69.5491 126.577 60.1386 123.175 49.1325 123.698C38.0001 124.228 28.5421 129.005 21.0798 137.867C17.3869 142.252 15.3326 146.1 12.4136 154.097C9.34227 162.513 6.07958 167.286 1.93131 169.432C0.869348 169.981 0 170.722 0 171.077C0 172.22 4.93433 169.251 7.0615 166.828C9.48412 164.07 12.372 158.496 13.9798 153.478C17.4299 142.711 25.4597 132.963 34.4876 128.582C37.1718 127.28 40.6857 125.914 42.2961 125.547C46.0728 124.686 56.1055 124.687 59.847 125.55C66.8038 127.152 77.29 133.753 80.4381 138.509C81.396 139.957 82.0564 141.264 81.9061 141.415C81.7558 141.565 80.3236 141.102 78.7241 140.386C74.1347 138.331 68.7195 138.107 64.2738 139.788C55.7092 143.025 51.6345 151.708 54.3102 161.018C56.1549 167.439 60.4763 170.925 68.357 172.355C76.1571 173.77 80.8487 171.887 86.2229 165.187C93.2459 156.43 95.5941 156.497 103.91 165.69C111.55 174.135 113.509 174.464 125.587 169.324C136.67 164.608 139.956 164.782 153.567 170.803L157.797 172.674L178.196 172.879C196.141 173.06 198.734 172.959 199.743 172.047C200.793 171.096 200.928 168.406 201.37 139.673C201.635 122.439 202.066 107.758 202.328 107.047C202.776 105.841 203.672 142.345 203.672 161.719C203.672 169.529 203.802 170.527 204.973 171.698C206.246 172.97 207.142 173 244.63 173H282.985L283.998 171.553C284.895 170.272 285.01 163.891 285.01 115.717C285.01 70.481 285.162 61.1191 285.909 60.0976C286.685 59.0369 286.867 61.3573 287.24 77.0544C289.143 157.127 289.635 170.696 290.683 171.853C291.65 172.923 294.261 173 329.561 173C358.843 173 367.654 172.816 368.516 172.185C369.534 171.44 369.667 168.389 370.048 136.721C370.278 117.664 370.663 102.072 370.905 102.072C371.146 102.072 371.546 117.504 371.792 136.366C372.191 166.723 372.364 170.793 373.3 171.829C374.258 172.887 375.682 172.997 388.087 172.977C406.187 172.947 410.042 172.262 419.382 167.421C428.315 162.791 431.127 162.539 437.033 165.843C446.474 171.125 448.837 172.245 451.43 172.665C453.139 172.942 454.195 172.866 454.195 172.463C454.195 172.106 452.951 171.611 451.43 171.366C449.909 171.12 447.054 170.028 445.085 168.939C443.117 167.85 439.749 165.983 437.602 164.789C434.433 163.026 432.977 162.615 429.874 162.603C426.521 162.59 425.32 162.982 420.114 165.782C410.529 170.938 409.29 171.181 390.857 171.535C381.289 171.719 374.449 171.598 374.089 171.239C373.739 170.889 373.318 155.653 373.093 135.213L372.703 99.7945L377.604 107.062C385.236 118.377 391.308 126.429 391.584 125.6C391.981 124.41 379.425 102.695 376.651 99.7703C375.28 98.3249 374.158 96.6784 374.158 96.1107C374.158 95.543 374.866 93.7969 375.73 92.2309C377.42 89.1706 379.609 82.2881 382.26 71.6965C384.03 64.6232 384.236 63.0296 383.377 63.0296C382.849 63.0296 374.828 85.2312 373.323 90.8573C372.525 93.8453 372.766 93.7597 368.483 92.5712C367.374 92.2628 366.872 92.5321 366.327 93.7271C365.71 95.0832 364.794 95.4294 359.313 96.3834C350.37 97.9414 342.924 100.097 342.924 101.13C342.924 101.725 343.577 101.904 345.039 101.708C346.202 101.554 351.546 100.83 356.914 100.102C362.282 99.3729 367.261 98.713 367.976 98.6348C369.263 98.4943 369.275 98.8061 369.026 125.823C368.888 140.855 368.595 157.252 368.376 162.263L367.976 171.373L329.948 171.541C309.031 171.633 291.68 171.47 291.388 171.178C291.094 170.884 290.275 147.237 289.564 118.627C287.982 54.8952 287.994 57.1733 289.233 57.1733C289.765 57.1733 292.62 58.1714 295.577 59.3922C302.251 62.1467 310.382 64.3513 323.3 66.9092C341.804 70.5734 340.369 69.5348 314.929 60.8504C304.021 57.1271 294.305 53.7642 293.338 53.3771C290.847 52.3815 289.565 49.4728 289.565 44.815C289.565 37.6689 286.995 27.8946 279.937 8.20738C276.856 -0.387835 275.403 -2.41935 276.217 3.00171ZM279.857 12.3459C279.763 13.0688 286.217 45.318 287.03 48.1804C287.467 49.7266 288.259 51.4307 288.789 51.9676C289.642 52.8324 289.694 52.7953 289.252 51.6423C288.977 50.9265 288.498 47.2681 288.186 43.5129C287.567 36.0636 286.169 29.9925 282.826 20.2371C280.205 12.586 279.922 11.8363 279.857 12.3459ZM278.504 51.6195C278.504 53.5801 280.023 54.4689 283.79 54.7123C286.265 54.8717 286.663 54.7155 286.835 53.5163C286.989 52.4341 286.459 51.9071 284.381 51.0761C280.395 49.4812 278.504 49.6556 278.504 51.6195ZM290.514 53.8748C290.72 54.208 290.591 54.6642 290.227 54.8893C289.148 55.5563 289.473 56.5226 290.777 56.5226C291.444 56.5226 293.928 57.4017 296.296 58.476C300.005 60.1581 313.599 63.9439 320.8 65.3006C322.052 65.5368 323.663 65.8681 324.378 66.0372C328.508 67.014 321.978 64.4781 309.151 60.123C301.2 57.4238 293.849 54.7773 292.814 54.2418C290.647 53.1213 289.983 53.0153 290.514 53.8748ZM285.25 56.8349C284.701 58.2665 285.305 58.7115 286.251 57.5721C286.783 56.9312 286.81 56.5056 286.338 56.2141C285.961 55.9805 285.471 56.2597 285.25 56.8349ZM280.388 59.6134C279.132 60.9559 276.228 64.5425 273.935 67.5846C271.64 70.6267 267.862 75.4582 265.537 78.3213L261.31 83.527L265.283 80.1069C267.467 78.2256 272.507 73.3031 276.482 69.1684C282.827 62.5683 283.709 61.3769 283.709 59.4117C283.709 58.1805 283.476 57.1733 283.191 57.1733C282.906 57.1733 281.645 58.2717 280.388 59.6134ZM189.358 75.0678C193.811 82.7715 203.015 95.0208 203.02 93.2496C203.022 91.9511 198.504 85.0575 194.161 79.7367C188.585 72.9049 187.497 71.8468 189.358 75.0678ZM379.02 77.508C378.032 80.1642 374.162 91.9765 374.181 92.2765C374.256 93.4432 376.317 88.5805 377.751 83.8524C378.674 80.8103 379.552 77.9556 379.702 77.508C379.851 77.0609 379.827 76.6946 379.648 76.6946C379.469 76.6946 379.187 77.0609 379.02 77.508ZM215.71 94.2976C210.7 94.9343 206.381 95.4797 206.113 95.5094C205.844 95.5402 205.624 95.7933 205.624 96.0707C205.624 96.8339 218.175 95.69 224.82 94.3209C229.601 93.3362 230.139 93.1175 227.748 93.1277C226.138 93.1342 220.72 93.6601 215.71 94.2976ZM367.299 94.3069C366.8 95.1139 368.459 95.7282 370.369 95.4424C371.749 95.2358 371.697 95.1502 369.78 94.454C368.489 93.9849 367.532 93.9291 367.299 94.3069ZM197.816 94.8998C197.816 95.7086 200.988 97.8149 201.475 97.329C201.675 97.1289 201.646 96.3573 201.41 95.6137C200.974 94.239 197.816 93.6108 197.816 94.8998ZM357.95 97.8744C353.029 98.942 351.88 99.3524 353.661 99.4064C355.568 99.465 367.08 97.6538 367.505 97.2294C368.178 96.5565 362.151 96.9632 357.95 97.8744ZM370.254 98.4934C370.254 99.0304 370.546 99.4697 370.904 99.4697C371.263 99.4697 371.555 99.0304 371.555 98.4934C371.555 97.9563 371.263 97.517 370.904 97.517C370.546 97.517 370.254 97.9563 370.254 98.4934ZM201.871 101.421C201.871 102.674 202.005 103.187 202.168 102.561C202.332 101.933 202.332 100.91 202.168 100.283C202.005 99.6558 201.871 100.169 201.871 101.421ZM376.222 102.82C378.935 107.25 383.933 114.436 384.3 114.436C384.704 114.436 380.847 107.559 378.117 103.412C375.078 98.7977 373.446 98.2886 376.222 102.82ZM370.579 100.771C370.8 101.128 371.11 101.421 371.268 101.421C371.427 101.421 371.555 101.128 371.555 100.771C371.555 100.413 371.245 100.12 370.866 100.12C370.487 100.12 370.358 100.413 370.579 100.771ZM198.527 110.598C196.909 116.497 197.033 117.973 198.764 113.442C199.902 110.463 200.861 105.326 200.281 105.326C200.111 105.326 199.321 107.698 198.527 110.598Z" fill="#626364" fill-opacity="0.51"/>
</svg>
