<svg width="320" height="346" viewBox="0 0 320 346" fill="none" xmlns="http://www.w3.org/2000/svg">
<path fill-rule="evenodd" clip-rule="evenodd" d="M122.08 40.2301C119.792 41.3734 117.668 42.5318 117.36 42.8041C116.849 43.256 116.8 44.1846 116.8 53.4541C116.8 62.6528 116.748 63.6733 116.24 64.2896C115.726 64.9152 114.232 66.0393 107.491 70.8713C106.154 71.8294 104.894 72.8141 104.69 73.0598C104.487 73.3056 103.737 75.7885 103.026 78.5776C102.314 81.3664 101.577 83.8355 101.387 84.0643C101.117 84.3897 98.7698 84.48 90.5742 84.48H80.1061L77.0933 86.0409C71.3899 88.9955 70.6475 89.4419 70.34 90.1008C70.1125 90.5888 70.3733 92.1699 71.3362 96.1372C72.0536 99.0937 72.6405 101.781 72.6405 102.109C72.6405 102.761 72.5787 102.805 68.1605 105.277C63.5499 107.857 64.0005 106.728 64.0005 115.701V123.463L59.7157 126.541C56.9352 128.538 55.3099 129.924 55.0866 130.489C54.8974 130.968 54.3899 132.776 53.9592 134.506C53.5281 136.236 53.0792 137.748 52.9611 137.866C52.8433 137.984 49.267 138.08 45.0136 138.08H37.2805L34.3262 139.629C30.2901 141.746 29.7605 142.201 29.7605 143.546C29.7605 144.15 30.1246 146.186 30.5694 148.069C31.0142 149.952 31.3089 151.673 31.2241 151.894C31.139 152.115 30.235 152.719 29.2152 153.236C28.195 153.753 27.0501 154.514 26.6709 154.928C26.2917 155.341 24.8347 157.768 23.4334 160.32C22.0321 162.872 20.4315 165.752 19.876 166.72C18.0229 169.95 16.7064 172.647 16.5928 173.448L16.4805 174.24L76.907 174.303C120.564 174.348 137.452 174.464 137.761 174.72C138.109 175.009 137.964 175.531 136.976 177.538C136.309 178.892 135.44 180.72 135.046 181.6C134.652 182.48 132.742 186.656 130.801 190.88C128.861 195.104 126.804 199.64 126.23 200.96C125.656 202.28 124.019 205.853 122.593 208.899C121.167 211.946 120 214.506 120 214.588C120 214.67 118.647 217.649 116.992 221.208C115.337 224.768 113.048 229.768 111.904 232.32C110.761 234.872 108.139 240.632 106.078 245.12C104.016 249.608 101.281 255.584 99.9989 258.4C98.7166 261.216 95.9963 267.189 93.9541 271.674C90.421 279.431 89.8664 281.011 90.5313 281.422C90.971 281.694 102.132 281.73 102.973 281.462C103.42 281.32 103.903 280.738 104.209 279.971C104.53 279.17 104.96 278.664 105.396 278.577C105.998 278.456 112.927 278.082 123.52 277.597C128.02 277.391 172.012 277.412 181.28 277.624C185.328 277.717 193.464 277.856 199.36 277.933C205.256 278.011 211.16 278.183 212.48 278.317L214.88 278.56L215.66 280.036L216.44 281.512L219.5 281.673C221.183 281.762 224.144 281.746 226.08 281.637C229.418 281.45 229.606 281.403 229.703 280.72C229.793 280.085 227.355 274.396 223.013 265.106C221.553 261.982 218.119 254.435 214.715 246.867C213.524 244.22 211.942 240.764 211.2 239.188C210.457 237.61 208.874 234.16 207.682 231.52C206.49 228.88 204.979 225.568 204.325 224.16C202.598 220.446 196.755 207.66 194.234 202.08C190.214 193.181 185.073 181.944 183.362 178.315C182.427 176.333 181.769 174.605 181.898 174.475C182.028 174.346 209.269 174.291 242.435 174.353C303.354 174.467 303.68 174.463 303.68 173.429C303.68 173.147 300.058 168.322 298.102 165.997C296.625 164.242 295.557 163.968 292 164.429C289.304 164.779 288.96 164.58 288.96 162.662C288.96 161.882 288.827 160.64 288.665 159.902C288.503 159.164 288.204 157.48 288.002 156.16C287.266 151.361 287.864 151.903 280.32 149.19L275.36 147.406L269.93 147.223L264.5 147.04L262.616 143.68C261.581 141.832 259.937 138.88 258.965 137.12C256.819 133.237 256.598 132.984 252.909 130.191C251.297 128.971 249.894 127.753 249.792 127.486C249.689 127.218 249.456 127.091 249.275 127.203C249.093 127.316 248.984 127.275 249.032 127.114C249.178 126.625 246.079 122.883 245.499 122.848C245.203 122.83 244.518 122.839 243.976 122.867C243.435 122.896 242.852 122.731 242.68 122.5C242.51 122.269 241.674 118.518 240.824 114.164C239.973 109.811 239.116 106.03 238.919 105.764C238.722 105.498 232.609 103.276 225.335 100.828C218.061 98.3792 212.06 96.3261 211.999 96.2649C211.938 96.2041 210.136 92.654 207.996 88.376C205.855 84.0982 203.901 80.5203 203.653 80.4253C203.405 80.3302 201.595 80.4099 199.63 80.6029C195.73 80.9853 195.2 80.8489 195.2 79.464C195.2 77.7865 193.476 69.9971 192.965 69.3657C192.589 68.9011 188.825 67.4889 180.454 64.6707L168.48 60.64L164.96 53.7312C163.024 49.9315 161.311 46.6349 161.153 46.4054C160.932 46.0848 160.094 46.0358 157.517 46.1936C153.511 46.4384 147.666 46.9555 144.219 47.3699C141.204 47.7321 140.598 47.5289 136.844 44.8966C130.731 40.6099 127.32 38.3555 126.798 38.2566C126.491 38.1984 124.368 39.0864 122.08 40.2301ZM125.281 40.9584C125.173 41.1337 123.745 41.999 122.109 42.8813L119.133 44.4857L118.929 46.6429C118.817 47.8291 118.724 52.4166 118.723 56.8368C118.72 64.5005 118.689 64.9133 118.052 65.7232C117.685 66.1904 116.929 66.8054 116.372 67.0896C115.816 67.3741 115.259 67.7792 115.134 67.9904C115.01 68.2013 114.29 68.7865 113.534 69.2909C112.779 69.7952 111.837 70.4921 111.44 70.8397C111.044 71.1872 110.72 71.3597 110.72 71.2227C110.72 71.0857 110.228 71.3846 109.627 71.8867C109.025 72.3891 108.153 73.0653 107.688 73.3894C106.673 74.0966 106.411 74.7225 105.392 78.88C103.757 85.5545 103.579 86.1117 102.985 86.4294C102.661 86.6032 100.949 86.7229 99.1819 86.695C97.4149 86.6675 95.9067 86.7072 95.8302 86.7837C95.7538 86.8598 95.836 87.4169 96.0126 88.0211C96.1896 88.6256 97.0664 92.4275 97.9611 96.4701C99.7096 104.368 99.7771 105.599 98.571 107.577C98.2145 108.162 97.9224 108.893 97.9218 109.203C97.9211 109.514 99.1346 112.192 100.619 115.156L103.317 120.546L108.196 122.189L113.076 123.833L114.482 123.009C115.528 122.396 115.834 122.049 115.677 121.652C115.56 121.36 114.807 119.188 114.001 116.827L112.538 112.533L113.39 111.867C113.859 111.5 115.952 110.509 118.042 109.664L121.841 108.128L122.503 105.984C122.866 104.805 123.331 103.192 123.536 102.4C123.74 101.608 124.097 100.593 124.329 100.145C124.56 99.6966 126.851 97.7686 129.42 95.8605C132.259 93.7517 134.149 92.1264 134.24 91.7155C134.322 91.344 134.43 88.016 134.479 84.32L134.568 77.6L135.928 73.44C136.677 71.152 137.487 69.0227 137.728 68.7085C137.97 68.3942 141.506 66.6445 145.586 64.8201C149.666 62.9958 153.1 61.4067 153.218 61.2886C153.512 60.9955 153.569 49.7469 153.28 49.2784C153.12 49.0198 152.318 48.9593 150.684 49.0832C149.384 49.1817 146.304 49.3494 143.84 49.456L139.36 49.6496L137.44 48.2438C133.675 45.4864 126.321 40.64 125.904 40.64C125.67 40.64 125.39 40.7833 125.281 40.9584ZM156.588 48.32C155.549 48.7385 155.232 49.5264 155.585 50.807C155.753 51.416 155.814 52.2217 155.72 52.5971C155.626 52.9728 155.528 55.3312 155.503 57.8381L155.457 62.3961L154.504 63.1981C153.98 63.639 153.423 64 153.266 64C152.976 64 142.181 68.7129 140.205 69.7017C139.614 69.9977 139.091 70.384 139.043 70.56C138.995 70.736 138.785 71.528 138.576 72.32C138.367 73.112 137.911 74.6617 137.564 75.7641C136.711 78.4681 136.326 82.1344 136.323 87.5792C136.321 90.0758 136.191 92.4518 136.032 92.8592C135.873 93.2665 133.767 95.184 131.35 97.12C128.933 99.056 126.702 100.877 126.392 101.166C125.829 101.691 125.242 104.061 125.552 104.561C125.641 104.706 131.041 104.819 137.551 104.812C149.03 104.8 149.414 104.78 150.294 104.133C150.792 103.767 152.112 102.846 153.226 102.088C154.339 101.33 155.398 100.334 155.577 99.8749C155.787 99.3395 155.852 95.28 155.76 88.5664C155.659 81.2957 155.723 77.8854 155.968 77.4157C156.398 76.591 165.254 71.9984 166.4 72.0061C166.863 72.0093 168.332 72.8256 169.88 73.9392C171.354 74.9997 172.617 75.8099 172.688 75.7395C172.847 75.5808 170.985 71.5974 166.678 62.88C164.852 59.184 162.513 54.4083 161.48 52.2672C159.391 47.9357 158.775 47.4381 156.588 48.32ZM169.92 63.7552C169.92 63.8377 171.367 66.8784 173.136 70.5123C176.093 76.5904 176.527 77.2976 178.547 79.3465C179.755 80.5712 181.147 81.6749 181.64 81.7984C182.407 81.991 192.948 81.3795 193.215 81.127C193.381 80.9702 191.302 71.2109 191.044 70.9334C190.907 70.7869 186.351 69.1549 180.918 67.3072C169.515 63.4285 169.92 63.5593 169.92 63.7552ZM164.98 74.8483C164.882 75.0067 163.301 75.8659 161.467 76.7574C159.632 77.6489 158.019 78.56 157.882 78.7821C157.745 79.0041 157.611 84.1673 157.584 90.256L157.535 101.326L156.79 102.183C156.38 102.654 155.88 103.04 155.679 103.04C155.297 103.04 153.92 104.364 153.92 104.732C153.92 104.848 159.501 104.91 166.32 104.871L178.72 104.8L181.44 103.576C182.936 102.903 184.281 102.236 184.428 102.093C184.575 101.95 183.891 100.499 182.908 98.8685L181.12 95.9037V91.0038V86.104L179.759 84.4333C178.832 83.2973 176.513 81.4505 172.508 78.6614C167.054 74.863 165.468 74.0595 164.98 74.8483ZM198.303 83.1312C197.042 84.5241 197.63 85.4592 201.681 88.5033C203.485 89.8589 205.032 91.0563 205.12 91.1641C205.208 91.2717 205.598 91.5369 205.986 91.7536C206.848 92.2342 207.297 91.7296 206.668 90.9869C206.433 90.7091 205.376 88.7353 204.32 86.6009L202.4 82.72L200.623 82.6259C199.212 82.5513 198.733 82.6557 198.303 83.1312ZM191.68 83.5197C191.064 83.6601 188.989 83.855 187.069 83.9526C185.148 84.0502 183.492 84.2662 183.389 84.4323C183.285 84.5987 183.272 87.0893 183.36 89.9673L183.52 95.2L185.244 98C186.192 99.5401 187.142 100.8 187.356 100.8C187.569 100.8 189.566 99.935 191.792 98.8781L195.84 96.9561V90.4093C195.84 84.2643 195.802 83.8422 195.222 83.5312C194.515 83.1533 193.304 83.1494 191.68 83.5197ZM78.0805 87.9568C74.3112 89.8845 72.9851 90.6864 72.8062 91.1459C72.7154 91.3801 73.1307 93.6121 73.7298 96.1059C75.3733 102.949 75.3368 102.654 74.6872 103.86C74.3688 104.451 74.1742 104.989 74.2546 105.056C74.3349 105.122 76.2306 106.429 78.4674 107.961L82.5342 110.745L88.3874 110.236C91.8619 109.935 94.3944 109.572 94.619 109.344C94.8274 109.133 95.5256 108.024 96.1704 106.88L97.3429 104.8L95.676 97.12C94.7592 92.896 93.8334 88.864 93.6184 88.16L93.2277 86.88L86.8539 86.8045L80.4805 86.7293L78.0805 87.9568ZM197.914 89.2905C197.799 89.4768 197.802 91.2019 197.921 93.1245C198.196 97.5789 197.89 98.6365 196.053 99.5779C195.32 99.9539 193.424 100.805 191.84 101.469C190.256 102.133 188.823 102.894 188.654 103.16C188.203 103.87 189.356 105.051 190.276 104.82C190.662 104.723 191.856 104.735 192.929 104.847L194.88 105.051V109.446C194.88 114.715 194.868 114.736 191.885 114.417C189.69 114.181 189.286 114.425 189.782 115.68C189.921 116.032 190.048 116.896 190.063 117.6C190.078 118.304 190.196 119.041 190.325 119.238C190.455 119.435 192.556 120.042 194.994 120.587C197.433 121.132 199.61 121.729 199.832 121.913C200.055 122.098 200.844 123.916 201.586 125.955C203.068 130.026 203.111 131.2 201.778 131.2C201.096 131.2 200.859 130.816 199.704 127.825C198.987 125.968 198.4 124.336 198.4 124.196C198.4 123.847 196.913 123.2 196.11 123.2C195.746 123.2 193.956 122.813 192.131 122.34C190.306 121.867 188.704 121.59 188.569 121.725C188.434 121.859 188.324 133.298 188.322 147.145L188.32 172.32L217.44 172.403C233.456 172.448 246.727 172.422 246.929 172.345C247.463 172.141 245.108 165.776 244.301 165.24C243.954 165.01 241.657 164.372 239.195 163.824C236.734 163.275 234.521 162.634 234.277 162.398C233.622 161.766 233.167 158.403 232.349 148.16L232.081 144.8L229.081 139.84L226.08 134.88L225.979 129.298L225.878 123.716L222.23 119.795C219.145 116.479 218.307 115.34 216.797 112.417C215.815 110.515 214.223 107.664 213.26 106.08C212.297 104.496 210.614 101.558 209.518 99.5517L207.527 95.9037L203.217 92.6717C198.014 88.7693 198.173 88.871 197.914 89.2905ZM213.453 99.6C213.46 99.8201 214.288 101.584 215.293 103.52L217.12 107.04L221.76 107.206C226.343 107.371 226.458 107.393 231.04 109.013C233.592 109.916 236.102 110.878 236.617 111.151C237.874 111.817 238.069 111.612 237.708 110.007C237.078 107.2 237.595 107.483 225.881 103.534C219.964 101.539 214.825 99.7475 214.463 99.5533C213.616 99.1001 213.438 99.1085 213.453 99.6ZM70.963 106.363C70.7195 106.606 69.9192 107.112 69.1848 107.487C68.284 107.947 67.6318 108.595 67.1819 109.476C66.5698 110.676 66.516 111.309 66.5323 117.137C66.5435 121.048 66.4274 123.564 66.2302 123.686C66.0542 123.795 65.9854 124.006 66.0776 124.155C66.2862 124.493 63.6827 126.759 63.3339 126.544C63.1941 126.457 62.963 126.58 62.82 126.817C62.6773 127.054 62.0565 127.597 61.4405 128.024C60.8245 128.451 60.2485 128.873 60.1605 128.962C60.0725 129.051 59.4603 129.526 58.8001 130.018C57.2712 131.158 56.8939 131.931 55.9918 135.771C55.0126 139.94 54.7985 140.16 51.723 140.16C49.8462 140.16 49.2805 140.263 49.2805 140.607C49.2805 140.852 49.9272 143.696 50.7176 146.927C51.508 150.157 52.156 153.173 52.1576 153.628C52.1592 154.084 51.307 155.877 50.2642 157.614C48.1272 161.171 48.1064 160.624 50.5173 164.32C52.2021 166.903 52.3438 168.027 51.2613 170.22C50.876 171.001 50.5605 171.829 50.5605 172.06C50.5605 172.395 52.0565 172.48 57.9016 172.48C61.9394 172.48 65.3134 172.366 65.3998 172.226C65.4862 172.086 65.3035 171.402 64.9938 170.706C63.7816 167.981 61.1189 159.737 61.299 159.267C61.404 158.993 62.9266 158.156 64.6824 157.406C66.4382 156.657 67.949 155.923 68.0392 155.777C68.1298 155.631 68.4853 154.469 68.8296 153.195C69.7246 149.885 69.9339 149.587 72.779 147.582C74.1886 146.589 75.8142 145.362 76.3912 144.855L77.4405 143.934V138.886C77.4405 134.2 77.5083 133.619 78.3874 130.763C78.908 129.072 79.4894 127.397 79.6792 127.042C80.0667 126.318 82.0341 125.275 87.2005 123.052C89.1365 122.219 90.8939 121.372 91.1064 121.169C91.5381 120.756 91.755 113.278 91.3541 112.629C91.1915 112.366 90.5579 112.309 89.3192 112.447C88.3298 112.556 86.1525 112.732 84.4805 112.837L81.4405 113.028L78.4005 110.877C76.7285 109.694 74.4709 108.095 73.3832 107.323C71.6994 106.128 71.3403 105.986 70.963 106.363ZM162.225 106.682C162.131 106.776 154.368 106.873 144.974 106.897C135.58 106.921 127.702 107.015 127.467 107.105C126.97 107.296 126.865 110.754 127.33 111.623C127.599 112.125 129.964 112.17 159.96 112.239C191.6 112.313 192.308 112.301 192.631 111.699C193.097 110.827 193.047 107.667 192.56 107.28C192.144 106.949 162.542 106.365 162.225 106.682ZM123.52 109.347C122.442 110.435 117.165 112.96 115.97 112.96C115.575 112.96 115.487 113.174 115.608 113.84C115.897 115.425 118.126 121.427 118.639 122C119.081 122.494 119.82 122.56 124.946 122.56C129.035 122.56 130.866 122.446 131.136 122.176C131.39 121.923 131.52 120.563 131.52 118.182C131.52 114.59 131.516 114.571 130.713 114.37C130.27 114.258 129.106 114.254 128.128 114.361C125.283 114.671 125.036 114.401 125.169 111.119C125.236 109.461 125.154 108.343 124.96 108.296C124.784 108.252 124.136 108.726 123.52 109.347ZM218.423 109.849C219.206 112.376 220.9 114.717 225.716 119.922L228.16 122.565L228.162 127.442C228.163 130.125 228.323 132.891 228.517 133.589C228.71 134.288 229.512 135.844 230.298 137.048C231.084 138.252 232.316 140.329 233.036 141.664C234.274 143.959 234.358 144.29 234.599 147.805C235.205 156.668 235.657 160.108 236.279 160.58C236.478 160.731 238.08 161.176 239.84 161.568C241.6 161.96 243.828 162.523 244.791 162.82L246.541 163.36L247.442 165.76C247.937 167.08 248.711 169.132 249.16 170.32L249.976 172.48H274.695C288.29 172.48 299.496 172.398 299.596 172.298C299.787 172.107 296.381 167.434 295.542 166.738C295.159 166.42 294.612 166.409 293.021 166.686C291.903 166.881 290.241 167.04 289.328 167.04C287.905 167.04 287.625 166.937 287.374 166.32C287.213 165.924 286.694 163.08 286.22 160C285.747 156.92 285.192 154.131 284.988 153.801C284.757 153.428 282.748 152.534 279.669 151.433L274.72 149.664L269.44 149.541C266.536 149.474 263.852 149.352 263.474 149.272C262.981 149.166 262.133 147.931 260.459 144.882C256.842 138.291 254.692 134.612 254.244 134.251C252.256 132.647 243.296 126.118 242.482 125.68C241.727 125.274 240.983 125.162 239.776 125.273C238.611 125.38 237.979 125.293 237.667 124.981C237.422 124.736 236.903 122.615 236.513 120.268C236.124 117.921 235.658 115.332 235.479 114.516L235.154 113.032L230.392 111.378C225.352 109.628 225.035 109.559 220.862 109.301C218.229 109.139 218.205 109.144 218.423 109.849ZM95.4232 112.419C95.2558 112.628 95.0181 113.129 94.8949 113.531C94.6779 114.237 95.0267 114.923 98.9621 121.533C99.4632 122.375 99.5438 122.89 99.3637 124.093C99.2395 124.922 99.0504 125.742 98.9432 125.916C98.836 126.091 98.3787 127.315 97.9272 128.636C97.2235 130.697 96.9934 131.052 96.3134 131.123C94.5768 131.304 94.5317 130.89 95.8728 127.07L97.1205 123.516L96.0005 121.423C94.9211 119.405 93.7886 117.99 93.7342 118.59C93.7198 118.75 93.7298 119.698 93.756 120.698C93.8142 122.906 94.1294 122.667 87.2411 125.644C84.2155 126.952 81.9819 128.111 81.7173 128.51C81.4728 128.878 80.9176 130.39 80.4834 131.87C79.803 134.188 79.693 135.214 79.6872 139.29C79.6805 143.919 79.2693 146.24 78.4552 146.24C78.1762 146.24 76.3969 147.527 72.9141 150.249C71.556 151.31 71.4091 151.561 71.2091 153.161C70.8437 156.087 70.0213 157.53 68.252 158.349C67.4098 158.74 66.4059 159.117 66.0213 159.187C64.8661 159.399 64.0005 159.989 64.0005 160.565C64.0005 160.863 64.292 161.83 64.6485 162.714C65.005 163.597 65.9051 166.12 66.6488 168.32L68.0011 172.32L77.0107 172.405L86.02 172.49L87.6958 169.365C88.6174 167.646 90.1957 164.8 91.203 163.04C92.2104 161.28 93.7662 158.472 94.6603 156.8C95.5544 155.128 97.2664 152.042 98.4651 149.943L100.644 146.126L104.079 144.32C105.968 143.326 107.599 142.428 107.703 142.324C107.807 142.22 107.284 139.495 106.542 136.267C105.348 131.083 104.941 129.879 103.041 125.92C101.858 123.456 99.9138 119.396 98.7208 116.897C96.5861 112.426 96.0254 111.665 95.4232 112.419ZM145.92 114.123C140.424 114.294 140.967 113.766 140.791 119.108C140.708 121.623 140.64 134.624 140.64 148V172.32L159.485 172.403C179.232 172.489 179.441 172.475 179.085 171.114C178.997 170.777 179.073 169.183 179.253 167.571C179.778 162.871 179.802 162.54 179.822 159.6C179.856 154.56 180.382 156.665 180.622 162.8C180.925 170.544 181.026 171.706 181.473 172.541C181.841 173.229 181.846 173.228 182.31 172.342C182.567 171.852 182.703 171.166 182.611 170.818C182.52 170.47 182.583 168.433 182.751 166.292C183.126 161.492 183.155 152.844 182.866 131.52C182.675 117.395 182.573 114.96 182.153 114.481C181.782 114.057 181.559 114.009 181.232 114.28C180.888 114.566 180.8 116.531 180.8 123.959C180.799 134.703 180.468 147.2 180.185 147.2C180.078 147.2 179.961 145.813 179.925 144.118C179.889 142.423 179.72 139.939 179.549 138.598C179.28 136.483 179.092 128.708 179.052 118.027C179.042 115.37 178.957 114.881 178.448 114.564C177.85 114.19 154.067 113.868 145.92 114.123ZM133.94 114.528C133.797 114.76 133.585 170.609 133.722 172.102C133.744 172.35 134.058 172.482 134.48 172.422L135.2 172.32L135.282 143.715C135.342 122.846 135.266 114.992 135.003 114.675C134.585 114.172 134.194 114.117 133.94 114.528ZM137.668 114.62C137.37 114.918 137.28 121.648 137.28 143.71C137.28 168.274 137.346 172.437 137.737 172.587C139.019 173.078 139.039 172.708 139.068 148.671C139.098 123.669 138.917 114.517 138.388 114.342C138.206 114.282 137.882 114.407 137.668 114.62ZM184.595 114.64C184.374 115.412 184.483 172.108 184.705 172.331C184.829 172.455 185.261 172.474 185.665 172.372L186.4 172.187L186.369 160.093C186.262 118.366 186.227 115.089 185.879 114.67C185.431 114.13 184.745 114.114 184.595 114.64ZM238.528 117.12C238.647 117.912 238.831 119.464 238.937 120.569C239.134 122.627 239.469 123.219 240.086 122.603C240.339 122.35 240.332 122.052 240.06 121.526C239.853 121.127 239.464 119.728 239.194 118.418C238.648 115.767 238.192 114.878 238.528 117.12ZM104.96 124.013C104.96 124.766 106.206 127.04 106.619 127.04C107.267 127.04 109.782 125.414 109.597 125.114C109.499 124.955 108.883 124.728 108.229 124.61C107.576 124.491 106.652 124.198 106.176 123.957C105.082 123.404 104.96 123.409 104.96 124.013ZM119.36 124.774C119.36 125.534 119.842 126.126 120.847 126.603C121.45 126.89 121.867 127.2 121.775 127.292C121.682 127.385 121.742 127.624 121.907 127.824C122.073 128.024 122.518 129.837 122.896 131.853C124.161 138.601 124.118 138.508 126.969 140.55C128.348 141.537 129.666 142.573 129.897 142.852C130.129 143.131 130.589 143.36 130.92 143.36C131.487 143.36 131.52 143.012 131.521 137.2C131.522 131.119 130.941 125.857 130.161 124.88C129.778 124.399 119.36 124.297 119.36 124.774ZM110.48 127.767C108.532 128.705 107.84 129.198 107.84 129.651C107.84 130.778 109.055 132.612 111.821 135.662L114.56 138.684V142.452V146.22L116.186 148.973C118.506 152.9 118.613 153.255 119.031 158.4C119.238 160.952 119.577 163.387 119.784 163.811C120.1 164.459 120.659 164.693 123.284 165.275C125.413 165.746 126.556 166.163 126.873 166.583C127.129 166.923 127.716 168.316 128.176 169.681C128.856 171.696 129.158 172.197 129.786 172.355C131.582 172.806 131.52 173.263 131.52 159.523V146.867L130.045 145.833C125.19 142.433 122.185 140.057 121.946 139.427C121.796 139.032 121.453 137.419 121.184 135.843C120.814 133.681 120.526 132.841 120.008 132.422C119.631 132.116 119.063 131.129 118.745 130.228C117.989 128.082 117.581 127.721 115.156 127.055L113.12 126.497L110.48 127.767ZM109.22 137.36C110.201 141.425 110.4 142.763 110.103 143.318C109.926 143.65 108.26 144.69 106.401 145.63C104.542 146.57 102.748 147.632 102.414 147.989C102.079 148.347 100.7 150.728 99.3486 153.28C97.9973 155.832 95.9912 159.504 94.8901 161.44C93.789 163.376 92.3435 165.968 91.6779 167.2C91.0123 168.432 90.1285 169.941 89.7141 170.554C89.2997 171.167 88.9605 171.851 88.9605 172.074C88.9605 172.397 92.7669 172.48 107.627 172.48C117.894 172.48 126.371 172.402 126.466 172.307C126.667 172.107 125.346 168.738 124.886 168.277C124.714 168.106 123.221 167.685 121.567 167.343C119.515 166.918 118.394 166.52 118.038 166.091C117.528 165.477 117.084 162.538 116.625 156.747C116.445 154.473 116.285 154.043 114.414 150.827L112.396 147.36L112.209 143.577C112.025 139.858 112.002 139.768 110.864 138.217C109.632 136.539 108.934 136.175 109.22 137.36ZM38.66 140.475C37.0501 140.761 32.3467 142.91 32.2805 143.39C32.2584 143.549 32.219 143.86 32.1925 144.08C32.1662 144.3 32.4705 145.776 32.8693 147.36C33.268 148.944 33.6824 150.898 33.7906 151.701C33.9691 153.028 33.9105 153.213 33.1537 153.709C32.6955 154.009 32.3205 154.174 32.3205 154.075C32.3205 153.976 32.1406 154.045 31.9205 154.229C31.7006 154.412 30.8037 155.03 29.9278 155.601C28.2254 156.711 28.4085 156.428 22.6901 166.804C21.2581 169.402 19.9592 171.607 19.8033 171.703C18.7243 172.37 20.6747 172.48 33.5614 172.48C44.4178 172.48 47.6712 172.389 47.9074 172.08C48.075 171.86 48.5281 170.791 48.9144 169.706L49.6161 167.731L48.7902 166.251C48.3358 165.437 47.4686 163.95 46.8632 162.946C46.2574 161.941 45.7618 161.026 45.7614 160.912C45.7608 160.797 46.6245 159.198 47.6805 157.357C48.7365 155.517 49.6005 153.701 49.6005 153.323C49.6005 152.944 49.1774 150.871 48.6606 148.717C48.1435 146.563 47.6213 144.047 47.5 143.126C47.1496 140.465 46.9496 140.329 43.3067 140.264C41.5762 140.233 39.4853 140.328 38.66 140.475ZM180.129 151.6C180.111 151.908 180.062 152.556 180.018 153.04C179.975 153.524 180.061 153.92 180.21 153.92C180.359 153.92 180.48 153.272 180.48 152.48C180.48 151.116 180.196 150.406 180.129 151.6ZM180.014 155.498C179.913 155.662 179.952 155.871 180.102 155.964C180.251 156.056 180.374 155.922 180.374 155.666C180.374 155.126 180.273 155.079 180.014 155.498ZM149.28 174.294C146.625 174.411 145.28 174.842 145.28 175.574C145.28 175.808 145.388 176.006 145.52 176.014C157.009 176.694 173.904 176.491 174.904 175.66C175.348 175.292 175.237 175.184 174.026 174.807C172.651 174.379 155.444 174.022 149.28 174.294ZM140.88 174.936C140.484 175.212 140.16 175.622 140.16 175.848C140.16 176.229 137.077 183.207 133.446 191.04C131.478 195.285 127.308 204.44 124.408 210.88C123.179 213.608 120.821 218.752 119.167 222.312C117.513 225.871 116.16 228.845 116.16 228.921C116.16 228.997 115.152 231.174 113.92 233.76C112.688 236.346 111.68 238.515 111.68 238.581C111.68 238.714 110.968 240.288 108.001 246.72C106.904 249.096 105.536 252.12 104.961 253.44C104.385 254.76 103.2 257.352 102.327 259.2C101.455 261.048 99.6171 265.08 98.2437 268.16C96.8702 271.24 95.1557 274.977 94.4331 276.464C93.7109 277.951 93.2398 279.287 93.3861 279.434C93.5326 279.58 95.5019 279.66 97.7621 279.61L101.872 279.52L103.848 274.56C104.935 271.832 107.447 265.496 109.431 260.48C111.415 255.464 115.698 244.664 118.949 236.48C131.944 203.761 133.572 199.666 135.351 195.2C136.368 192.648 138.317 187.689 139.681 184.18C141.046 180.672 142.493 177.179 142.897 176.419C143.603 175.09 143.609 175.024 143.037 174.718C142.235 174.289 141.735 174.339 140.88 174.936ZM176.32 174.733C176.32 174.916 176.627 175.667 177.002 176.402C177.377 177.136 179.164 181.486 180.973 186.069C182.782 190.651 184.787 195.696 185.429 197.28C186.071 198.864 187.289 201.96 188.136 204.16C188.983 206.36 190.408 209.96 191.303 212.16C192.834 215.922 199.497 232.692 209.929 259.04C212.437 265.376 215.298 272.576 216.285 275.04L218.08 279.52L222.063 279.61C224.253 279.66 226.232 279.629 226.46 279.541C226.766 279.424 226.572 278.731 225.717 276.891C225.08 275.521 223.495 272.041 222.194 269.158C220.894 266.275 219.307 262.819 218.668 261.478C218.029 260.137 216.536 256.88 215.35 254.24C214.165 251.6 211.578 245.912 209.603 241.6C202.892 226.952 195.843 211.519 190.09 198.88C188.648 195.712 187.035 192.184 186.505 191.04C185.975 189.896 184.171 185.936 182.498 182.24C180.824 178.544 179.231 175.268 178.958 174.96C178.421 174.355 176.32 174.174 176.32 174.733ZM150.56 178.029C147.392 178.233 144.621 178.516 144.4 178.659C143.971 178.937 143.842 180.449 144.24 180.527C144.373 180.552 151.573 180.599 160.24 180.63L176 180.687V179.993C176 178.755 175.083 178.339 171.84 178.11C166.013 177.698 156.28 177.661 150.56 178.029ZM152 182.093C151.032 182.227 148.827 182.351 147.099 182.368C145.372 182.386 143.69 182.543 143.363 182.719C143.035 182.894 142.464 183.849 142.092 184.842C141.721 185.834 141.129 187.279 140.776 188.053C140.424 188.827 140.201 189.566 140.281 189.696C140.361 189.826 149.305 189.967 160.156 190.01C179.621 190.088 179.884 190.08 179.688 189.462C179.578 189.117 178.945 187.495 178.282 185.858C177.324 183.493 176.915 182.835 176.298 182.66C173.983 182.006 155.718 181.579 152 182.093ZM149.76 191.691C148.616 191.82 145.995 191.942 143.936 191.963C141.876 191.983 139.832 192.163 139.393 192.363C138.588 192.73 138.113 193.455 138.387 193.899C138.551 194.163 179.825 194.268 180.824 194.007C181.163 193.918 181.44 193.664 181.44 193.442C181.44 192.513 180.291 192.162 176.038 191.789C171.333 191.377 153.158 191.309 149.76 191.691ZM143.36 195.871C140.808 196.036 138.432 196.238 138.08 196.319C137.623 196.425 137.093 197.311 136.218 199.433C135.546 201.065 134.921 202.635 134.83 202.923C134.682 203.393 135.376 203.47 141.493 203.669C148.01 203.881 184.886 203.701 185.131 203.457C185.363 203.224 182.675 196.946 182.089 196.354C181.519 195.776 180.691 195.743 164.745 195.659C155.536 195.61 145.912 195.705 143.36 195.871ZM144.48 205.138C142.896 205.267 139.936 205.387 137.902 205.406C133.887 205.443 132.978 205.747 133.17 206.989C133.275 207.669 133.46 207.71 137.12 207.882C140.867 208.058 175.634 208.089 183.121 207.923C187.144 207.834 187.479 207.662 186.427 206.221C186.068 205.73 185.381 205.545 183.147 205.338C179.459 204.996 148.211 204.834 144.48 205.138ZM138.72 209.654C135.552 209.804 132.697 210.037 132.375 210.172C132.016 210.321 131.365 211.533 130.699 213.288C129.23 217.16 129.232 217.104 130.56 217.207C133.853 217.464 182.478 217.586 185.6 217.345C187.624 217.188 189.417 217.182 189.584 217.33C190.704 218.324 190.637 217.006 189.4 213.707C188.048 210.102 187.697 209.779 185.031 209.683C178.396 209.443 143.605 209.422 138.72 209.654ZM134.335 219.007C130.763 219.218 128.204 219.506 127.988 219.723C127.789 219.923 127.674 220.413 127.733 220.814C127.84 221.539 127.862 221.542 134.72 221.695C142.068 221.859 179.846 221.931 187.436 221.796C189.941 221.751 192.067 221.591 192.16 221.441C192.464 220.949 191.586 219.507 190.906 219.383C190.54 219.315 188.8 219.101 187.04 218.907C182.888 218.449 142.513 218.525 134.335 219.007ZM161.494 222.918C161.464 222.939 155.824 223.049 148.96 223.162C134.067 223.408 127.384 223.668 126.685 224.029C126.401 224.175 125.728 225.561 125.19 227.107C123.796 231.107 123.78 230.865 125.44 230.977C128.695 231.196 195.893 231.214 196.028 230.996C196.254 230.629 193.902 224.886 193.209 224.115C192.631 223.47 192.192 223.416 185.817 223.209C180.061 223.022 161.656 222.802 161.494 222.918ZM133.44 232.689C131.24 232.803 128.025 232.963 126.295 233.043C123.665 233.165 123.042 233.297 122.491 233.848C120.84 235.498 119.247 235.43 159.87 235.46C180.596 235.475 197.674 235.413 197.822 235.322C198.311 235.019 197.016 233.307 196.178 233.15C192.822 232.521 143.593 232.159 133.44 232.689ZM138.12 236.818C124.649 237.021 121.761 237.142 121.382 237.522C120.953 237.95 118.4 243.957 118.4 244.537C118.4 244.682 136.876 244.8 159.456 244.8C201.901 244.8 201.28 244.782 201.28 246.033C201.28 246.43 200.603 246.457 196.56 246.214C189 245.762 131.367 245.935 122.4 246.438C118.075 246.681 117.545 246.774 117.042 247.387C116.735 247.761 116.564 248.195 116.661 248.353C116.759 248.511 118.018 248.64 119.459 248.64C123.905 248.639 128.589 249.438 127.941 250.086C127.844 250.183 125.261 250.405 122.202 250.578C119.143 250.751 116.413 250.964 116.134 251.051C115.472 251.258 112.929 257.643 113.335 258.08C113.687 258.458 206.232 258.515 206.61 258.137C206.742 258.005 206.589 257.218 206.27 256.388C205.951 255.559 205.423 254.178 205.097 253.319C204.101 250.69 204.095 250.687 198.792 250.372C196.201 250.218 185.368 250.059 174.72 250.019C156.507 249.949 150.352 249.839 149.6 249.569C149.424 249.506 159.936 249.35 172.96 249.224C185.984 249.097 197.888 248.904 199.412 248.794C202.071 248.603 202.192 248.623 202.407 249.299C202.582 249.851 202.692 249.908 202.911 249.562C203.384 248.814 203.235 248.09 202.401 247.099C201.961 246.577 201.629 245.81 201.661 245.395C201.729 244.537 199.216 238.166 198.528 237.449C198.227 237.136 197.293 236.95 195.758 236.897C188.777 236.657 152.156 236.607 138.12 236.818ZM139.927 249.502C140.238 249.583 140.67 249.578 140.887 249.49C141.103 249.402 140.848 249.336 140.32 249.342C139.792 249.349 139.615 249.42 139.927 249.502ZM144.958 258.986C144.868 259.077 140.62 259.228 135.517 259.321C123.967 259.53 113.374 260.114 112.324 260.598C111.409 261.02 111.082 262.059 111.746 262.43C112.438 262.818 122.69 263.013 144.339 263.051C155.603 263.071 164.235 263.211 164.499 263.378C165.07 263.74 165.883 263.722 143.04 263.841C124.606 263.937 121.442 264.033 115.909 264.666C114.274 264.853 112.534 264.917 112.041 264.809C110.79 264.534 109.998 265.336 109.121 267.767C108.723 268.87 108.272 269.851 108.119 269.946C107.966 270.04 107.84 270.524 107.84 271.021V271.925L120.4 272.151C127.308 272.275 150.512 272.298 171.965 272.201C198.731 272.08 211.165 272.13 211.592 272.358C211.935 272.542 212.296 272.611 212.394 272.513C212.665 272.242 209.939 265.51 209.332 264.951C208.978 264.626 208.33 264.497 207.398 264.565C206.626 264.622 204.394 264.496 202.438 264.284C200.481 264.073 196.216 263.855 192.96 263.799C183.356 263.634 183.745 263.654 184.64 263.383C185.354 263.167 196.474 262.9 205.377 262.885C208.517 262.88 208.665 262.85 208.502 262.24C208.407 261.888 208.327 261.424 208.325 261.208C208.317 260.461 206.562 259.938 203.84 259.869C202.344 259.832 200.184 259.678 199.04 259.529C197.896 259.379 186.16 259.242 172.96 259.224C159.76 259.206 148.096 259.108 147.04 259.006C145.984 258.903 145.047 258.894 144.958 258.986ZM165.12 263.431C165.12 263.568 169.32 263.68 174.454 263.68C179.587 263.68 183.688 263.58 183.566 263.459C183.259 263.152 165.12 263.125 165.12 263.431ZM124.8 273.67C116.968 273.796 109.712 273.972 108.676 274.06C106.664 274.232 105.577 274.883 105.812 275.778C105.937 276.255 106.654 276.339 111.777 276.474C116.737 276.604 158.259 276.679 189.92 276.614C195.024 276.604 200.424 276.596 201.92 276.597C203.416 276.599 206.764 276.537 209.36 276.46C214.395 276.311 214.689 276.191 213.592 274.742C212.781 273.669 205.986 273.412 194.88 274.033C193.912 274.087 192.983 274.057 192.814 273.966C192.121 273.591 142.952 273.377 124.8 273.67Z" fill="black"/>
</svg>
