<svg width="320" height="224" viewBox="0 0 320 224" fill="none" xmlns="http://www.w3.org/2000/svg">
<path fill-rule="evenodd" clip-rule="evenodd" d="M160.9 64.283C160.404 64.3782 159.966 64.4886 159.924 64.5286C159.882 64.5682 159.747 67.713 159.624 71.517L159.4 78.4334L115.529 78.517C71.6821 78.6006 71.6577 78.601 70.5289 79.439C69.9081 79.8998 69.1925 80.8942 68.9397 81.649C68.5369 82.849 67.6853 89.505 66.3609 101.801C66.1477 103.781 65.5369 109.271 65.0037 114.001C64.0837 122.164 62.9681 132.885 62.6309 136.798C62.3905 139.588 62.7937 140.001 65.7581 140.001C67.1493 140.001 69.1373 139.884 70.1753 139.742C71.8537 139.512 72.0357 139.39 71.8213 138.642C71.6889 138.179 71.4853 137.261 71.3689 136.601L71.1573 135.401L71.7501 136.679C72.6753 138.674 75.6265 141.647 77.5173 142.489C78.8341 143.075 79.7217 143.195 81.3173 143C82.8361 142.815 83.6113 142.904 84.1817 143.328C84.9101 143.87 84.8053 143.943 82.6497 144.39C80.8585 144.762 79.0545 144.765 74.6677 144.401C67.9361 143.843 45.9845 143.516 45.2609 143.963C44.6425 144.345 52.6473 144.803 59.7625 144.793C62.6429 144.789 68.6465 145.005 73.1037 145.272C80.5637 145.72 81.4381 145.701 84.1061 145.037L87.0045 144.315L90.4021 145.33C98.6017 147.777 98.5753 147.775 119.264 147.788L138.33 147.801L140.008 146.601C140.945 145.931 142.166 144.517 142.772 143.401C143.97 141.196 146.305 139.318 148.45 138.835C149.244 138.655 154.293 138.831 160.22 139.243C172.611 140.105 180.195 140.194 181.572 139.495C182.656 138.944 182.995 137.962 183.597 133.633C184.161 129.581 183.838 128.101 182.218 127.329C181.218 126.852 180.855 126.355 180.568 125.075C180.284 123.81 179.877 123.244 178.8 122.616C177.586 121.909 176.563 121.783 171.1 121.665L164.8 121.53V120.339C164.8 118.631 164.126 117.601 163.009 117.601C162.48 117.601 161.968 117.466 161.872 117.301C161.776 117.135 161.936 112.321 162.229 106.601C163.074 90.0946 163.34 81.8166 163.062 80.7086C162.896 80.0446 162.379 79.5322 161.602 79.2614L160.4 78.8422V74.4802C160.4 72.081 160.515 69.0114 160.656 67.6594L160.914 65.2006H164.069C166.542 65.2006 167.276 65.3338 167.461 65.817C167.591 66.1558 167.386 70.341 167.004 75.117C166.504 81.3702 166.154 83.925 165.755 84.2446C165.09 84.7762 165.023 85.875 165.642 86.0814C165.959 86.187 165.833 89.8818 165.198 99.1326C164.683 106.637 164.429 112.972 164.591 114.272C164.952 117.162 166.089 118.401 168.382 118.401C170.327 118.401 171.386 117.489 171.96 115.322C172.61 112.867 173.201 104.879 173.472 94.9006C173.611 89.7858 173.856 85.6006 174.016 85.6006C174.731 85.6006 175.608 82.795 175.366 81.2814C175.161 79.9974 175.249 79.6594 175.858 79.389C177.068 78.8522 198.795 78.687 207.418 79.149C218.7 79.7534 221.983 80.5274 223.242 82.8794C224.082 84.4494 223.294 84.5374 214.528 83.8502C203.829 83.011 198.35 82.999 196.78 83.811C195.401 84.5238 195.243 85.1826 195.726 88.2006L195.982 89.8006L194.935 88.0006C192.528 83.863 190.274 82.4006 186.303 82.4006C182.874 82.4006 179.256 84.127 177.677 86.5166C176.619 88.119 176.599 88.2658 176.578 94.7742C176.567 98.4186 176.318 103.287 176.026 105.593C175.144 112.546 175.802 117.451 177.859 119.251C179.875 121.016 186.038 121.207 190.657 119.648L192.714 118.954L190.7 121.908C187.436 126.698 185.6 132.069 185.6 136.825C185.6 138.945 186.364 140.007 187.182 139.022C187.45 138.698 188.304 137.211 189.08 135.717C191.149 131.727 193.556 128.516 196.693 125.556C200.94 121.55 204.544 120.177 208.159 121.189C210.371 121.809 212.246 123.349 215.02 126.827C217.376 129.779 218.564 130.394 221.926 130.398C225.313 130.403 225.338 130.457 225.018 137.141C224.836 140.955 224.885 143.385 225.159 144.101C225.569 145.172 225.543 145.201 224.17 145.201C222.712 145.201 220.4 146.16 220.4 146.765C220.4 146.955 219.671 148.201 218.78 149.535C216.601 152.798 214.075 154.087 209.443 154.298C206.024 154.454 200.796 153.431 200.512 152.551C200.432 152.304 200.824 151.558 201.383 150.893C202.316 149.784 202.523 149.713 203.9 150.033C206.033 150.529 208.641 150.48 210.553 149.909C212.926 149.2 216.193 145.906 216.808 143.601C218.222 138.304 214.877 130.733 209.833 127.81C206.29 125.757 201.008 125.647 197.316 127.549C191.721 130.431 188.206 138.749 190.197 144.393C191.178 147.173 193.521 149.966 196.479 151.879C197.979 152.85 199.658 154.095 200.21 154.648C203.254 157.691 206.852 158.181 230.6 158.786C254.15 159.385 318.27 159.768 317.8 159.307C317.55 159.062 301.409 158.737 274.8 158.44C216.172 157.787 206.738 157.405 203.088 155.544C201.185 154.573 201.37 154.189 203.462 154.769C205.766 155.409 211.954 155.304 214.051 154.589C216.415 153.784 218.552 151.977 219.868 149.671C221.075 147.555 221.98 146.401 222.43 146.401C222.598 146.401 222.845 146.897 222.978 147.504C223.44 149.604 225.564 152.738 227.37 153.98C232.363 157.415 241.369 157.064 245.328 153.279C246.978 151.701 247.892 150.052 248.58 147.41C249.11 145.377 249.116 144.916 248.626 143.933L248.061 142.801H256.83C267.902 142.801 267.326 143.149 267.133 136.577C266.978 131.291 266.614 130.636 263.363 129.811L261.455 129.326L261.324 123.563C261.135 115.267 260.918 113.692 259.892 113.143C258.904 112.615 251.111 112.947 248.7 113.619C246.092 114.347 246.836 115.068 250.5 115.364C254.79 115.71 258.175 116.387 257.742 116.811C257.554 116.997 255.78 117.429 253.8 117.774C248.932 118.621 247.12 119.162 247.304 119.715C247.546 120.441 249.092 120.717 253.2 120.767C259.854 120.847 259.233 121.63 251.456 122.967C247.794 123.596 246.448 124.209 247.163 124.924C247.381 125.142 250.044 125.43 253.08 125.563L258.6 125.805L254.156 126.286C249.584 126.781 247.6 127.365 247.6 128.216C247.6 129.284 248.949 129.649 254.211 130.001C259.141 130.332 260.484 130.547 259.966 130.921C259.874 130.987 256.5 130.943 252.467 130.821C246.053 130.628 245.069 130.511 244.614 129.889C243.714 128.657 243 122.824 243 116.71V110.82L244.11 109.71C245.08 108.741 245.512 108.606 247.517 108.642C248.872 108.666 250.383 108.979 251.206 109.405C251.972 109.801 253.95 110.373 255.6 110.676C257.25 110.979 259.184 111.334 259.9 111.466C261.679 111.794 261.655 110.747 259.857 109.636C255.797 107.127 240.044 101.704 233.723 100.64C229.315 99.8982 212.32 98.7242 205.4 98.6838C199.571 98.6498 197.702 99.1794 196.82 101.116C196.55 101.708 196.071 104.891 195.756 108.189C195.366 112.26 194.95 114.637 194.456 115.593C192.998 118.421 189.848 119.601 183.76 119.601C177.774 119.601 176.666 118.28 176.716 111.201C176.74 107.685 177.42 100.047 177.736 99.7306C177.787 99.6798 178.811 100.125 180.012 100.719C182.086 101.746 182.494 101.801 188.055 101.801C193.348 101.801 193.999 101.723 194.797 101.002C195.581 100.293 195.652 99.9478 195.424 97.9362C195.084 94.929 193.742 90.1638 192.728 88.359C191.742 86.6038 190.052 85.737 186.931 85.3838C182.064 84.833 179.824 86.3598 178.59 91.0682C177.671 94.5714 177.199 95.0858 177.202 92.5806C177.205 89.5278 177.919 87.5622 179.608 85.9502C183.102 82.6174 189.342 82.3698 192.081 85.4554C192.79 86.2534 195.436 90.8474 197.03 94.0474C198.175 96.345 199.751 97.0546 204.922 97.5994C208.973 98.0262 223.163 98.143 224.167 97.7578C224.515 97.6242 224.8 97.1646 224.8 96.7362C224.8 95.7978 222.962 89.1622 222.19 87.3166C221.184 84.9086 219.712 85.927 218.344 89.979C217.756 91.7206 217.394 92.3186 217.155 91.9422C216.966 91.6442 216.808 91.1306 216.804 90.8006C216.799 90.4706 216.608 89.5258 216.378 88.7006C215.752 86.443 214.857 86.7574 212.178 90.177C210.896 91.8142 209.701 93.0634 209.523 92.9534C209.345 92.8434 209.2 91.9658 209.2 91.003C209.2 86.2054 207.664 86.001 203.174 90.2006C198.709 94.3758 197.925 94.2582 196.891 89.2594C196.392 86.8434 196.328 85.8042 196.647 85.2982C197.44 84.0406 199.809 83.8402 207.6 84.3718C221.676 85.3318 223.763 85.3674 224.354 84.6562C224.799 84.1194 224.762 83.8098 224.12 82.7106C222.451 79.8538 220.108 79.0638 211.305 78.3898C202.868 77.7442 178.187 77.7958 176.2 78.4634L174.6 79.0006L174.477 81.387C174.335 84.1462 173.87 84.9734 172.784 84.3922C172.382 84.177 170.96 84.0006 169.626 84.0006C168.292 84.0006 167.205 83.8654 167.212 83.7006C167.219 83.5358 167.556 79.5306 167.962 74.8006C168.367 70.0706 168.556 65.8222 168.381 65.3594C168.144 64.7302 167.588 64.453 166.176 64.2594C164.186 63.9866 162.396 63.9946 160.9 64.283ZM73.5049 79.5998C72.2429 79.7614 70.9477 80.1118 70.6269 80.3778C69.7453 81.1098 69.3377 83.7038 67.6081 99.6006C66.7341 107.631 65.9345 114.67 65.8309 115.243L65.6425 116.286L68.3213 115.314C72.7021 113.725 72.3361 115.181 72.4769 98.7678L72.5997 84.4178L73.6173 83.4006C74.4581 82.5602 75.2233 82.3166 78.0173 81.9994C79.8777 81.7886 97.5097 81.5674 117.2 81.5082C150.524 81.4082 153.087 81.4486 154.266 82.0938C156.257 83.1826 156.488 84.5078 156.217 93.2902C156.086 97.531 155.881 102.231 155.762 103.735C155.566 106.197 155.615 106.456 156.25 106.334C158.374 105.925 159.163 100.882 159.186 87.5634L159.2 79.7262L152.536 79.4634C143.608 79.1114 76.4105 79.227 73.5049 79.5998ZM160.244 88.7006C159.832 103.311 159.356 105.801 156.721 107.095C155.864 107.516 155.677 107.948 155.461 110.013C155.155 112.946 154.682 113.913 153.3 114.439C152.182 114.863 140.566 114.95 131.6 114.6C128.63 114.484 119.63 114.208 111.6 113.987C94.9477 113.529 79.5821 112.909 76.4997 112.573C75.1793 112.428 74.3997 112.153 74.3997 111.831C74.3997 111.475 75.4497 111.238 77.8457 111.054C79.7409 110.908 81.5757 110.63 81.9229 110.435C82.4741 110.127 82.5585 108.615 82.5885 98.5414C82.6233 86.8898 82.8569 84.771 84.1641 84.2698C86.0521 83.545 86.4541 86.9726 85.9045 99.1134C85.5721 106.455 85.5781 108.939 85.9289 109.29C86.3965 109.757 97.7545 110.403 98.4049 109.999C98.5837 109.887 98.8029 104.937 98.8917 98.9986C99.0593 87.7962 99.3097 85.9982 100.813 85.1934C101.854 84.6362 102.646 85.0674 103.263 86.5294C103.677 87.5102 103.77 90.1394 103.671 98.0446C103.513 110.619 103.604 110.998 106.865 111.393C108.039 111.534 110.71 111.594 112.8 111.525L116.6 111.401L116.824 99.6006C116.959 92.547 117.224 87.3918 117.483 86.7842C118.677 83.9834 120.178 84.617 120.84 88.2006C121.083 89.5206 121.399 95.3106 121.541 101.068C121.683 106.825 121.942 111.677 122.117 111.852C122.513 112.247 135.412 112.958 136.264 112.631C136.813 112.421 136.869 110.924 136.743 99.8966C136.628 89.8682 136.71 87.1398 137.156 86.0802C137.835 84.4726 139.133 84.459 139.894 86.0514C140.611 87.5514 141.185 93.7166 141.193 100.001L141.2 105.401L144.58 105.26C146.689 105.173 149.188 105.369 151.225 105.782C153.021 106.145 154.561 106.373 154.647 106.286C154.734 106.2 154.918 101.195 155.058 95.165C155.359 82.1126 155.708 83.0118 150.085 82.347C145.684 81.8266 78.6921 82.5766 76.2105 83.1742C75.3365 83.3846 74.4161 83.837 74.1653 84.1798C73.4173 85.203 73.1521 90.2714 73.2317 102.043C73.2945 111.31 73.2073 113.33 72.7125 114.089L72.1181 115.001L82.1589 115.083C87.6813 115.129 97.2397 115.347 103.4 115.569C125.491 116.365 160.388 117.345 160.546 117.175C160.634 117.079 161.118 108.957 161.622 99.125C162.374 84.4482 162.446 81.1378 162.02 80.625C160.669 78.9974 160.494 79.7922 160.244 88.7006ZM167.4 85.2006C167.245 85.4506 168.062 85.6006 169.576 85.6006C170.925 85.6006 172 85.4234 172 85.2006C172 84.9806 171.02 84.8006 169.823 84.8006C168.626 84.8006 167.536 84.9806 167.4 85.2006ZM84.2441 85.8606C83.2909 88.8642 82.9689 98.0506 83.5593 105.385C83.9453 110.179 83.8269 110.744 82.2993 111.386C81.2457 111.829 81.7265 111.914 86.6573 112.156C94.2141 112.526 114.604 113.181 118.9 113.192C122.299 113.2 122.378 113.179 121.663 112.464C121.002 111.803 120.898 110.674 120.644 101.478C120.364 91.3086 119.967 87.0082 119.241 86.2822C118.304 85.3446 117.884 89.2414 117.743 100.187C117.622 109.591 117.501 111.471 116.983 111.987C116.121 112.847 105.859 112.659 104.482 111.759C102.797 110.657 102.658 109.596 102.752 98.5814C102.838 88.471 102.61 86.0006 101.589 86.0006C101.352 86.0006 100.869 86.6758 100.514 87.5006C99.9969 88.7058 99.8241 91.1626 99.6349 100.001L99.3997 111.001L92.5997 110.857C88.4413 110.769 85.5877 110.541 85.2545 110.27C84.8049 109.905 84.7585 107.82 84.9897 98.4142C85.1601 91.471 85.1217 86.6114 84.8913 86.007C84.5229 85.0406 84.5057 85.0366 84.2441 85.8606ZM137.987 86.6006C137.644 87.4814 137.594 90.9678 137.8 99.709C138.046 110.127 138.003 111.736 137.458 112.567C136.878 113.452 136.89 113.531 137.627 113.724C139.096 114.108 151.46 114.034 152.51 113.635C153.884 113.113 154.307 112.231 154.446 109.604L154.562 107.426L152.181 106.928C148.282 106.113 143.463 105.831 142.473 106.361C141.718 106.765 141.6 107.168 141.6 109.338C141.6 112.128 140.772 113.923 140.004 112.801C139.209 111.641 139.08 110.233 139.622 108.625C140.277 106.677 140.216 92.3166 139.538 88.8006C138.926 85.631 138.566 85.1198 137.987 86.6006ZM167.014 87.8006C166.494 91.1634 165.536 108.358 165.659 112.133C165.813 116.878 166.177 117.601 168.414 117.601C171.236 117.601 171.64 115.355 172.634 94.1266C172.995 86.4194 173.056 86.583 169.815 86.5926C167.219 86.6006 167.198 86.6094 167.014 87.8006ZM181.897 86.8342C180.573 87.605 179.466 90.647 178.177 97.061C177.868 98.599 180.262 100.238 183.654 100.81C186.5 101.29 192.282 101.167 193.7 100.597C194.651 100.214 194.615 98.0162 193.586 93.6334C192.603 89.4486 191.633 87.741 189.804 86.9766C188.218 86.3138 182.953 86.219 181.897 86.8342ZM219.64 89.3842C219.191 90.5854 218.708 92.027 218.567 92.5882C217.979 94.9322 216.66 94.1062 215.954 90.9514C215.684 89.7482 215.338 88.6858 215.183 88.5902C215.028 88.4946 213.787 89.7738 212.425 91.433C209.313 95.225 208.703 95.237 208.334 91.5138C208.061 88.7574 207.816 88.0006 207.193 88.0006C206.995 88.0006 205.39 89.3506 203.626 91.0006C201.006 93.4506 200.178 94.003 199.108 94.0134L197.8 94.0258L198.875 94.973C200.42 96.333 203.879 96.7602 214.4 96.8898L223.4 97.0006L223.33 95.4006C223.246 93.4886 221.314 87.2006 220.811 87.2006C220.616 87.2006 220.09 88.1834 219.64 89.3842ZM199.604 100.123C197.7 100.775 197.283 101.865 196.806 107.441C196.411 112.055 196.177 113.769 195.722 115.367C195.556 115.947 195.934 115.78 197.284 114.674C200.714 111.863 202.312 111.397 208.4 111.43C219.596 111.491 231.201 115.328 234.321 120.001C234.835 120.771 235.457 122.155 235.704 123.077C236.024 124.272 236.408 124.816 237.044 124.976C237.535 125.099 239.138 126.006 240.607 126.991C242.217 128.071 243.178 128.522 243.027 128.128C242.889 127.768 242.495 125.117 242.152 122.237C241.139 113.745 241.826 109.464 244.422 108.081C245.855 107.318 250.386 107.684 252.062 108.699C252.84 109.171 254.384 109.586 255.756 109.693L258.112 109.876L256.756 109.184C254.351 107.957 244.596 104.439 239.73 103.043C234.053 101.414 230.78 100.982 218.2 100.201C206.824 99.4938 201.508 99.4718 199.604 100.123ZM204.162 112.413C200.324 113.174 197.598 115.024 193.858 119.407C190.897 122.877 188.346 127.501 187.462 131.001C186.75 133.823 186.204 138.001 186.548 138.001C186.68 138.001 187.355 136.876 188.048 135.501C192.607 126.46 199.988 120.001 205.761 120.001C209.607 120.001 211.698 121.434 217.044 127.734C218.12 129.003 218.525 129.203 220.044 129.218C222.392 129.241 225.158 129.799 225.721 130.362C226.037 130.678 226.143 132.849 226.062 137.382C225.919 145.438 225.619 145.077 231.933 144.419C237.214 143.869 244.512 142.822 244.753 142.581C244.852 142.481 243.392 142.401 241.509 142.401C236.282 142.401 229.966 141.65 228.626 140.87C227.204 140.042 226.629 138.269 227.314 136.825C228.032 135.309 230.801 134.137 236.308 133.018C241.496 131.963 242.8 131.49 242.8 130.665C242.8 129.843 240.362 127.737 238.104 126.609L236.008 125.563L234.804 126.934C233.372 128.565 231.252 129.205 227.322 129.191C222.438 129.174 219.526 127.977 219.275 125.884C219.177 125.062 219.415 124.71 220.422 124.189C222.184 123.278 226.736 123.011 230.949 123.571C232.897 123.831 234.582 123.951 234.693 123.84C235.198 123.335 234.213 121.367 232.584 119.626C229.588 116.423 222.818 113.922 213.588 112.611C209.024 111.962 206.684 111.913 204.162 112.413ZM252.8 114.407C253.57 114.585 255.221 114.936 256.469 115.187C257.717 115.439 258.97 115.924 259.254 116.266C260.077 117.258 258.812 117.867 254.254 118.672C250.305 119.37 250.246 119.396 252 119.665C252.99 119.817 254.823 119.955 256.074 119.971C257.324 119.987 258.81 120.177 259.376 120.391L260.404 120.782L260.168 117.891C260.039 116.301 259.864 114.776 259.779 114.501C259.668 114.139 258.483 114.012 255.512 114.042C252.46 114.073 251.76 114.167 252.8 114.407ZM68.6233 116.233C67.3161 116.761 66.0817 117.359 65.8801 117.56C65.2961 118.144 66.9193 118.785 69.6813 119.06C72.5557 119.346 73.5997 119.766 73.5997 120.637C73.5997 120.971 73.0597 122.513 72.3997 124.065C70.9433 127.487 70.8681 128.274 72.1821 126.34C74.1041 123.512 78.6677 120.797 81.4869 120.805C84.9301 120.813 89.8465 124.586 90.8013 127.951C92.2849 133.182 91.3529 139.778 88.7229 142.659C88.2921 143.13 88.0881 143.608 88.2697 143.719C88.4513 143.831 90.3097 144.388 92.3997 144.957C97.1217 146.242 103.374 147.203 106.8 147.172L109.4 147.148L107 146.282C105.134 145.609 103.967 144.792 101.757 142.609C97.3149 138.22 96.1633 135.195 97.3633 131.067C98.1681 128.299 101.498 124.517 104.304 123.185C110.758 120.122 117.003 124.577 117.504 132.601C117.778 136.992 117.008 142.55 115.834 144.651C115.148 145.878 114.986 146.485 115.317 146.587C115.582 146.668 120.12 146.825 125.4 146.937C133.562 147.111 134.73 147.065 133.197 146.637C130.764 145.957 129.798 145.4 127.706 143.472C125.005 140.982 123.825 138.409 123.823 135.001C123.821 131.391 124.816 129.167 127.882 125.933C131.909 121.686 136.75 120.138 140.316 121.958C142.21 122.925 142.97 123.78 143.995 126.097C144.924 128.197 145.217 132.899 144.681 137.091L144.362 139.582L146.371 138.539L148.38 137.497L158.69 138.151C175.578 139.223 179.659 139.327 180.8 138.718C181.962 138.097 182.698 135.342 182.761 131.381C182.8 128.95 182.378 128.001 181.26 128.001C180.77 128.001 180.722 128.747 180.95 132.783L181.22 137.564L179.51 138.033C176.305 138.911 161.367 137.899 157.695 136.555C155.604 135.789 155.211 135.098 154.927 131.68C154.735 129.38 154.818 128.859 155.514 128.003C156.317 127.016 156.412 127.002 164.862 126.699C169.558 126.531 174.909 126.503 176.753 126.637L180.106 126.881L179.828 125.741C179.164 123.027 176.925 122.293 170.4 122.651C165.305 122.93 164 122.561 164 120.843C164 120.196 163.89 119.381 163.757 119.033C163.373 118.033 161.768 118.294 160.498 119.563C159.595 120.467 158.807 120.795 156.968 121.033C154.988 121.291 115.076 120.329 104.6 119.772C102.84 119.679 96.8097 119.418 91.1997 119.193C80.3745 118.76 73.7697 118.197 72.1169 117.569C71.3229 117.267 71.1493 116.976 71.2989 116.193C71.5237 115.019 71.6281 115.017 68.6233 116.233ZM72.3997 116.351C72.3997 117.428 83.2137 118.093 122.4 119.423C146.708 120.248 157.933 120.325 159.1 119.675C161.499 118.336 160.053 118.192 138.2 117.593C129.84 117.364 115.08 116.916 105.4 116.597C85.3521 115.935 72.3997 115.839 72.3997 116.351ZM65.4313 119.659C65.1893 120.407 64.0585 130.999 63.7421 135.485L63.4821 139.17L67.0409 138.93C68.9981 138.798 70.6549 138.645 70.7221 138.589C70.7893 138.534 70.5645 137.408 70.2221 136.087C69.2581 132.367 69.4261 129.511 70.8385 125.601C72.3313 121.467 72.5985 120.403 72.1465 120.393C71.2057 120.371 66.9141 119.638 66.3029 119.395C65.8701 119.223 65.5401 119.322 65.4313 119.659ZM258.763 122.103C257.973 122.489 255.723 123.151 253.763 123.573L250.2 124.341L253.045 124.371C254.61 124.387 256.844 124.581 258.01 124.803C259.175 125.023 260.201 125.133 260.288 125.045C260.376 124.958 260.391 124.102 260.323 123.143L260.2 121.401L258.763 122.103ZM79.9973 121.962C76.8665 122.953 73.4773 125.717 72.3461 128.201C70.0217 133.304 74.0877 141.305 79.2849 141.854L80.9997 142.035L78.9729 140.918C74.8113 138.624 73.9997 137.554 73.9997 134.362C73.9997 126.623 80.1253 123.131 85.2757 127.935C88.6625 131.094 88.5441 137.495 85.0377 140.77C84.4669 141.304 83.9997 141.859 83.9997 142.003C83.9997 142.148 84.6149 142.455 85.3673 142.686C86.6353 143.075 86.8257 143.012 87.9885 141.812C89.6737 140.073 90.4005 137.425 90.3957 133.037C90.3925 130.066 90.2201 129.032 89.4529 127.384C87.6741 123.565 83.1425 120.966 79.9973 121.962ZM135 122.355C129.7 123.731 124.683 129.937 124.744 135.041C124.805 140.198 129.06 144.993 134.322 145.835C136.108 146.12 138.458 145.495 139.268 144.518C139.755 143.931 139.698 143.93 138.586 144.505C135.8 145.945 132.86 145.641 130.658 143.685C129.608 142.754 128.075 139.377 127.766 137.317C126.986 132.111 130.688 127.205 135.4 127.204C138.182 127.203 139.648 128.205 141.054 131.067C142.077 133.151 142.2 133.817 142.2 137.306C142.2 141.887 142.824 141.798 143.616 137.102C144.3 133.05 143.968 128.214 142.847 125.899C141.417 122.944 138.246 121.512 135 122.355ZM104.945 123.969C99.5641 126.413 96.6245 132.569 98.6689 137.113L99.3377 138.601L99.6185 136.201C100.083 132.223 101.25 130.14 103.93 128.503C106.796 126.752 109.829 127.809 111.267 131.06C111.916 132.527 112.049 133.513 111.926 135.949C111.656 141.27 109.915 143.341 105.693 143.361L103.586 143.372L105.093 144.289C106.688 145.26 108.425 145.847 110.923 146.259C114.318 146.819 115.755 144.547 116.396 137.601C116.692 134.405 116.695 132.336 116.406 130.824C115.265 124.84 109.984 121.681 104.945 123.969ZM223.038 124.405C220.669 124.824 219.624 125.667 220.366 126.56C221.252 127.628 223.717 128.18 227.6 128.181C231.636 128.182 233.558 127.574 234.381 126.035C234.742 125.361 234.579 125.231 232.893 124.853C230.099 124.228 225.276 124.008 223.038 124.405ZM78.0013 127.295C76.3389 128.174 75.0757 130.957 75.0349 133.831C74.9901 137.007 75.7449 138.098 79.2965 139.994C82.4377 141.671 83.5413 141.483 85.3041 138.975C87.6437 135.646 87.0805 130.371 84.1473 128.133C82.5201 126.893 79.5329 126.485 78.0013 127.295ZM254.8 127.199C250.654 127.541 248.608 127.973 249.06 128.409C249.247 128.59 251.875 128.866 254.9 129.023L260.4 129.309V128.055C260.4 126.639 260.816 126.703 254.8 127.199ZM198.929 127.856C195.341 129.127 192.272 132.99 191.006 137.831C190.269 140.648 190.515 143.022 191.813 145.609C192.798 147.571 195.934 150.732 197.912 151.755C199.122 152.381 199.166 152.371 199.909 151.298C201.287 149.308 201.297 149.218 200.194 148.798C198.337 148.092 195.697 146.053 194.836 144.659C193.172 141.967 194.209 136.549 196.852 134.12C198.453 132.648 201.502 131.493 203.029 131.78C206.314 132.396 208.464 136.344 207.604 140.183C207.129 142.299 206.046 144.589 204.343 147.076C203.712 147.997 203.342 148.841 203.52 148.952C204.588 149.611 208.065 149.643 209.97 149.01C216.41 146.871 218.058 140.235 213.883 133.255C211.372 129.057 207.967 127.168 203.027 127.232C201.692 127.249 199.848 127.53 198.929 127.856ZM157.2 127.957C156.274 128.213 156.191 128.438 156.08 130.958C155.936 134.248 156.47 135.255 158.714 135.928C161.348 136.717 168.239 137.239 174.4 137.116L180.2 137.001L180.054 132.601C179.974 130.181 179.828 128.066 179.73 127.901C179.508 127.526 158.567 127.579 157.2 127.957ZM133 128.543C128.072 130.823 127.292 139.061 131.632 142.983C133.574 144.737 135.586 144.865 138.672 143.428C140.437 142.606 140.808 142.235 141.17 140.932C142.162 137.361 141.19 132.248 139.049 129.771C138.032 128.595 137.463 128.293 135.999 128.157C134.953 128.059 133.697 128.221 133 128.543ZM105.2 128.85C100.51 130.72 98.7245 139.303 102.541 141.63C104.104 142.583 107.447 142.663 108.713 141.776C110.085 140.815 110.829 139.002 111.08 136.01C111.372 132.527 110.255 129.834 108.155 128.956C106.626 128.317 106.543 128.315 105.2 128.85ZM260.903 131.184C260.436 131.931 260.065 131.957 252.906 131.73C248.778 131.599 245.082 131.329 244.694 131.129C244.191 130.871 243.923 130.935 243.763 131.352C243.436 132.205 241.183 132.994 236.2 134.001C229.283 135.397 228 136.117 228 138.595C228 140.133 229.793 140.708 236.059 141.177C242.645 141.671 265.41 141.914 265.834 141.495C266.386 140.951 266.522 134.583 266.015 133.047C265.491 131.46 264.921 131.036 262.796 130.653C261.666 130.45 261.297 130.553 260.903 131.184ZM199.058 133.738C195.99 135.595 194.17 139.881 195.166 142.899C195.413 143.647 196.196 144.812 196.907 145.489C198.219 146.739 201.026 148.401 201.826 148.401C202.358 148.401 204.365 145.646 205.58 143.249C207.351 139.757 207.043 135.279 204.917 133.607C203.505 132.497 201.017 132.552 199.058 133.738ZM2.19966 144.001C2.53966 144.551 36.3997 144.551 36.3997 144.001C36.3997 143.74 30.3917 143.601 19.1761 143.601C7.79566 143.601 2.03646 143.736 2.19966 144.001ZM37.9249 143.874C38.2133 143.989 38.5585 143.975 38.6913 143.842C38.8241 143.709 38.5881 143.615 38.1665 143.632C37.7005 143.651 37.6057 143.746 37.9249 143.874ZM241.221 144.237C236.429 144.934 235.734 145.231 239.6 144.931C244.748 144.53 244.587 144.511 244.729 145.515C244.801 146.018 244.396 147.219 243.83 148.185C242.039 151.241 236.534 153.167 232.96 151.987C232.107 151.706 230.392 150.506 229.15 149.32C227.558 147.802 226.463 147.096 225.445 146.931C224.268 146.739 224 146.82 224 147.364C224 149.252 226.882 152.848 229.416 154.123C233.127 155.989 239.769 155.773 243.2 153.673C245.333 152.368 247.442 149.121 247.828 146.55C248.314 143.312 248.096 143.236 241.221 144.237ZM234.686 145.9L227.573 146.019L228.686 147.479C229.299 148.283 230.502 149.448 231.36 150.07C232.677 151.025 233.31 151.201 235.426 151.201C239.412 151.201 242.507 149.489 243.563 146.701C243.958 145.659 243.922 145.605 242.89 145.691C242.29 145.74 238.599 145.835 234.686 145.9Z" fill="black"/>
</svg>
