<svg width="320" height="235" viewBox="0 0 320 235" fill="none" xmlns="http://www.w3.org/2000/svg">
<path fill-rule="evenodd" clip-rule="evenodd" d="M70.3752 61.7341C68.0117 63.7227 64.9215 69.9811 64.2568 74.1252C63.9445 76.0732 63.1908 79.0805 62.5821 80.809C61.3932 84.1835 61.1874 85.9729 61.9542 86.266C62.2248 86.3692 62.2045 88.0224 61.9076 90.0582C61.5497 92.5134 61.5705 94.3703 61.9723 95.8627C62.8357 99.0693 66.061 102.929 68.7867 104.018C72.5861 105.536 72.596 105.576 70.2797 109.947C67.4733 115.243 67.2471 116.426 68.6923 118.263L69.8593 119.747L68.7225 126.975C68.0968 130.95 67.6011 135.684 67.6204 137.495C67.6412 139.486 67.0962 142.742 66.2421 145.728C65.4649 148.445 64.6739 152.397 64.4846 154.511C64.2952 156.624 63.6459 161.238 63.0421 164.765C62.4378 168.292 62.0234 171.873 62.1211 172.724C62.2901 174.197 62.4921 174.301 66.415 174.927L70.5316 175.584L66.6894 175.424C64.5762 175.335 62.4153 175.075 61.8867 174.845C60.7489 174.35 60.6424 175.044 61.6457 176.417C62.0805 177.011 63.3473 177.512 64.8468 177.681C66.9655 177.919 67.4722 178.227 68.3087 179.779C70.4899 183.83 74.5176 185.738 77.5585 184.161C78.8033 183.515 79.0734 183.567 80.0932 184.653C81.5862 186.242 81.5335 186.857 79.8369 187.63C77.7478 188.581 76.1083 188.414 72.6745 186.895C70.968 186.14 68.9942 185.523 68.2883 185.523C67.5825 185.523 65.612 185.002 63.9099 184.364L60.8147 183.206L61.1841 180.248C61.3878 178.621 61.4245 177.289 61.2659 177.289C61.1073 177.289 60.4859 178.401 59.8849 179.759L58.7921 182.229L39.6876 182.298C29.1803 182.335 16.1371 182.54 10.7032 182.753C3.49247 183.036 8.7689 183.161 30.2314 183.215L59.6396 183.29L62.6156 184.676C64.2524 185.437 66.2915 186.063 67.1461 186.066C68.0013 186.069 70.3895 186.812 72.4527 187.718C76.7395 189.6 77.2692 189.661 79.8802 188.569C81.3364 187.961 81.7838 187.45 81.7838 186.395C81.7838 184.466 83.9349 178.918 84.8131 178.581C85.845 178.186 87.8215 179.363 87.8215 180.373C87.8215 181.729 89.1119 180.953 90.1049 179C91.0451 177.15 92.5875 175.69 93.6337 175.66C93.963 175.65 94.5135 176.26 94.8571 177.015C95.2671 177.914 95.9285 178.387 96.7782 178.387C97.6581 178.387 98.2942 178.87 98.7591 179.891L99.4442 181.394L100.54 179.891C101.9 178.023 103.565 177.952 104.374 179.729C105.293 181.745 106.337 181.835 107.682 180.016C108.595 178.78 109.325 178.387 110.703 178.387C111.704 178.387 112.553 178.572 112.592 178.799C112.63 179.025 112.743 179.704 112.843 180.308C112.943 180.912 113.33 182.448 113.705 183.721C114.079 184.995 114.192 186.23 113.956 186.466C113.72 186.702 107.62 186.879 100.4 186.861C88.4868 186.829 85.4926 187.095 88.2332 187.94C89.3123 188.273 108.349 189.358 113.185 189.362L116.319 189.365L116.479 184.9L116.638 180.435L118.074 182.458L119.51 184.48L118.486 186.49C117.57 188.286 117.091 191.011 117.691 191.011C117.817 191.011 119.233 190.352 120.837 189.546C122.441 188.741 124.985 187.963 126.492 187.819C127.997 187.674 129.978 187.099 130.893 186.541C133.155 185.161 134.382 185.264 135.126 186.895C136.03 188.88 136.925 188.595 138.564 185.797C140.327 182.789 141.554 182.636 144.797 185.021C146.064 185.953 147.101 186.536 147.101 186.317C147.101 186.098 146.343 184.686 145.416 183.179C143.328 179.786 143.807 178.975 147.205 180.153C148.506 180.605 149.988 181.153 150.498 181.373C151.248 181.696 151.497 181.371 151.8 179.668C152.314 176.782 154.181 172.488 155.07 172.147C156.622 171.551 159.88 173.04 162.104 175.362C163.768 177.098 164.903 177.798 166.27 177.93C167.303 178.031 168.263 178.461 168.403 178.885C168.614 179.529 167.854 179.596 163.867 179.29C161.233 179.087 158.58 178.655 157.971 178.329C156.517 177.551 155.745 178.345 155.978 180.378L156.158 181.955L160.308 181.894C162.591 181.861 165.321 181.549 166.376 181.201C167.813 180.727 177.147 180.706 203.666 181.118C250.617 181.846 318.902 181.854 318.902 181.131C318.902 180.77 300.899 180.568 266.072 180.541C237.016 180.518 203.558 180.319 191.723 180.098L170.204 179.697L169.042 178.219C168.188 177.133 167.385 176.74 166.017 176.74C164.697 176.74 163.979 176.41 163.548 175.606C162.614 173.861 158.116 171.252 156.042 171.252C153.842 171.252 152.413 173.235 151.422 177.664L150.78 180.529L148.874 179.732C147.825 179.294 146.038 178.936 144.903 178.936C142.959 178.936 142.7 178.721 140.441 175.242C139.123 173.21 136.867 170.129 135.429 168.395L132.813 165.241L135.494 163.882C138.266 162.478 141.063 159.679 141.063 158.31C141.063 157.881 140.54 157.006 139.901 156.367C138.701 155.167 137.787 155.146 132.144 156.193L130.086 156.575L130.072 149.78C130.057 141.601 129.289 131.044 128.496 128.105C128.092 126.607 126.735 124.779 123.961 121.989C121.783 119.801 119.722 118.01 119.379 118.01C118.921 118.01 118.957 116.224 119.513 111.286C120.398 103.426 120.184 96.8167 118.865 91.2515C117.911 87.2238 116.94 86.0168 116.879 88.7815C116.86 89.6115 116.416 91.6495 115.892 93.3098L114.939 96.3287L113.942 94.8193C113.393 93.9894 112.479 93.3098 111.909 93.3098C110.611 93.3098 110.616 93.7012 111.936 95.8666L112.993 97.5999L111.342 98.2833C110.434 98.6593 109.333 99.5155 108.894 100.185C107.606 102.151 107.081 106.943 107.631 111.719C108.125 116.008 107.764 119.189 106.34 123.108C105.555 125.269 101.645 127.459 98.9661 127.239L96.8781 127.066L97.0241 124.322C97.1937 121.132 101.87 106.865 104.58 101.269C105.603 99.1555 107.928 95.574 109.747 93.3098C113.202 89.0077 113.294 88.0125 110.052 90.016C108.088 91.2301 107.886 91.1138 108.634 89.1992C108.924 88.4561 108.649 87.3715 107.772 85.8005C106.483 83.4914 106.015 79.3934 106.972 78.8017C107.241 78.6354 107.633 79.4154 107.843 80.534C108.549 84.296 111.26 88.3699 113.059 88.3699C114.73 88.3699 118.821 85.2665 123.019 80.8134C126.605 77.0096 127.259 76.0139 127.581 73.8623C127.902 71.7249 127.728 70.9285 126.415 68.514C124.314 64.6531 122.737 63.6124 118.488 63.2842C113.94 62.9334 111.915 64.2085 109.536 68.9207C107.304 73.3436 106.128 74.937 105.789 74.0001C105.382 72.8749 103.629 74.1285 102.523 76.3356C102.005 77.3697 100.709 78.9828 99.6418 79.9203C97.41 81.8815 97.2574 82.3321 98.8256 82.3321C99.8673 82.3321 99.8207 82.5199 98.1867 84.8943C97.2173 86.3033 95.0789 89.6998 93.4344 92.4415L90.4452 97.4265L90.7998 94.6821C90.9952 93.1726 91.3069 89.5253 91.4925 86.5767L91.8306 81.2157L93.6682 81.561C95.9176 81.9825 96.0696 81.1877 94.0245 79.698L92.5436 78.6189L95.3643 77.1896C96.9154 76.4031 100.114 74.9974 102.472 74.0654C104.829 73.1328 106.97 72.164 107.23 71.9116C107.834 71.3248 103.334 67.9881 99.0737 65.8656C96.7184 64.6921 93.8258 63.911 88.9193 63.1234C85.1457 62.5179 80.4176 61.6523 78.412 61.1995C73.4391 60.0776 72.2502 60.1566 70.3752 61.7341ZM70.2534 63.125C68.2872 65.23 65.3172 71.2496 65.3172 73.1295C65.3172 73.8683 64.9495 75.6857 64.4999 77.1677C63.44 80.6613 63.3874 80.4983 65.4929 80.2524C66.4957 80.1355 68.2625 80.4352 69.4196 80.9188C70.5766 81.4023 71.6151 81.7059 71.7271 81.5944C72.1871 81.1339 74.1471 73.281 74.0659 72.2233C73.8793 69.7972 74.1219 68.0611 74.6483 68.0611C74.9502 68.0611 75.1972 68.9256 75.1972 69.9822C75.1972 71.5531 75.4025 71.9033 76.3224 71.9033C77.8933 71.9033 80.3808 73.2772 82.8514 75.5089C84.0134 76.559 85.2857 77.2659 85.7001 77.0925C86.1123 76.9201 87.3665 75.3135 88.4873 73.522C90.6834 70.013 93.2352 68.0666 95.6431 68.0633C97.7997 68.06 97.5077 68.9553 94.9219 70.2742C93.6951 70.9005 91.4776 72.6959 89.9935 74.2652C87.6261 76.7675 87.0223 77.9317 85.0722 83.7532C82.4205 91.6692 79.597 97.7421 77.6748 99.6643C76.8746 100.465 76.4442 101.344 76.6709 101.716C76.8894 102.074 78.4625 104.274 80.1673 106.605L83.2663 110.845L84.4096 109.624C86.261 107.648 88.8814 101.174 89.5379 96.9533C89.8732 94.7984 90.3036 90.1949 90.494 86.7232C90.8283 80.6278 90.8827 80.4127 92.0759 80.4544C93.2088 80.4945 93.2407 80.4204 92.4585 79.5564C91.6802 78.6963 91.7274 78.5196 93.003 77.5162C93.7709 76.9119 96.995 75.352 100.167 74.0489C103.339 72.7464 105.928 71.5454 105.92 71.3802C105.9 70.9483 101.105 67.8136 98.5248 66.5451C95.9428 65.2755 93.2621 64.6328 83.9793 63.0558C72.3808 61.0853 72.1574 61.087 70.2534 63.125ZM113.553 64.7717C113.064 65.0576 112.25 65.9243 111.743 66.6977C110.835 68.0836 110.838 68.0935 112.004 67.3964C113.028 66.7839 113.27 66.8294 113.815 67.7395C115.351 70.3105 117.491 72.0427 121.578 74.0242C125.382 75.869 126.019 76.0348 126.342 75.2636C127.635 72.1783 125.505 66.6472 122.407 65.0455C120.634 64.1284 114.955 63.9533 113.553 64.7717ZM110.742 70.4916C109.632 72.2667 108.899 74.0335 109.079 74.5023C109.302 75.0836 109.584 74.785 110 73.5258C110.724 71.338 111.926 70.7836 112.359 72.4385C112.595 73.342 112.959 73.5615 113.832 73.3271C114.469 73.1559 115.449 73.0126 116.009 73.0088C116.892 73.0022 116.819 72.7579 115.46 71.1645C114.598 70.1546 113.631 68.8762 113.31 68.3235C112.796 67.4365 112.494 67.6912 110.742 70.4916ZM91.8317 70.5816L90.2915 72.0038L92.2126 70.7594C94.7139 69.1386 94.6914 69.1589 93.9811 69.1589C93.6457 69.1589 92.6786 69.7989 91.8317 70.5816ZM110.613 74.8651L110.177 77.5525L109.166 76.2373L108.154 74.9222L108.142 76.6572C108.126 78.9982 110.013 84.9196 111.191 86.2204C112.468 87.6311 113.605 87.5454 116.149 85.8477C118.586 84.223 123.334 79.7639 124.086 78.3955C124.686 77.3022 122.567 75.8229 118.404 74.4293C116.123 73.6658 115.539 73.6504 113.959 74.3107C112.2 75.0451 112.122 75.0226 111.595 73.6241C111.079 72.2568 111.026 72.3243 110.613 74.8651ZM74.9392 73.6872C74.8162 74.0648 74.2009 76.3109 73.5719 78.6788C72.9423 81.0472 72.063 83.3492 71.6168 83.7955C71.1711 84.2412 70.8061 85.3148 70.8061 86.1809C70.8061 87.0476 70.5591 87.9088 70.2572 88.0954C69.1506 88.7793 69.7517 90.3168 71.4132 91.0517C73.4122 91.9371 74.6483 94.4702 74.6483 97.6834C74.6483 99.1445 74.8931 99.8965 75.369 99.8965C76.6012 99.8965 78.9148 97.023 80.4511 93.5843C82.4973 89.0038 86.2226 77.8467 85.5716 78.249C85.2769 78.4312 84.0715 77.7094 82.8936 76.6451C79.3072 73.4045 75.493 71.9868 74.9392 73.6872ZM106.736 75.2334C106.536 75.5551 106.491 75.9365 106.635 76.0803C106.779 76.2241 107.043 75.9607 107.222 75.4947C107.593 74.5275 107.277 74.3574 106.736 75.2334ZM104.183 76.7061C102.86 78.1249 101.544 80.2283 101.544 80.9237C101.544 81.0944 102.231 81.2344 103.072 81.2344C104.492 81.2344 104.64 81.0198 105.154 78.2155C105.458 76.5551 105.681 75.1966 105.649 75.1966C105.617 75.1966 104.958 75.8762 104.183 76.7061ZM63.2589 82.1291C62.8818 82.291 62.5745 82.959 62.5772 83.6127C62.581 84.7121 62.8681 84.8065 66.3766 84.8576C69.5936 84.9042 70.2111 84.7626 70.4295 83.9272C70.6184 83.2049 70.3006 82.8657 69.2374 82.656C66.1301 82.0423 63.9159 81.8475 63.2589 82.1291ZM99.1071 84.9569C92.5804 95.4379 90.4348 99.3959 89.4067 102.856C87.9769 107.667 86.5399 110.556 85.0617 111.592C83.9568 112.365 84.0007 112.481 87.2254 117.302C89.0357 120.008 91.5709 123.276 92.8592 124.565L95.2018 126.907L96.1646 123.144C97.4182 118.245 97.427 118.289 95.4867 119.67C94.5701 120.323 93.4942 120.732 93.0957 120.578C92.6978 120.426 91.9974 118.815 91.5402 117L90.7092 113.7L94.0766 106.935C95.9291 103.215 98.6439 96.9918 100.109 93.1062C102.751 86.1041 104.299 83.5814 105.499 84.3235C105.914 84.5798 105.999 84.3888 105.754 83.7494C105.551 83.2224 105.386 82.6878 105.386 82.5616C105.386 82.4353 104.336 82.3398 103.053 82.3497C100.873 82.3656 100.615 82.5363 99.1071 84.9569ZM64.1498 86.5399C62.3478 87.0202 62.0223 94.4696 63.6629 97.6856C65.0933 100.49 65.9528 101.016 65.2821 98.6757C64.6608 96.5098 64.6432 96.0537 65.18 96.0565C65.4062 96.0576 66.0483 97.1691 66.6066 98.5264C67.1648 99.8838 67.8333 100.994 68.0918 100.994C68.5644 100.994 67.5369 97.6016 66.4474 95.5663C65.5966 93.9767 66.7624 93.4893 68.2395 94.8171C70.4724 96.8244 70.7753 96.6729 69.6435 94.1145C68.8219 92.2571 68.6226 91.0199 68.8905 89.4353C69.2242 87.4604 69.1331 87.2348 67.7987 86.7276C66.303 86.159 65.696 86.1277 64.1498 86.5399ZM103.553 86.586C103.415 86.8121 102.14 90.0851 100.72 93.8587C99.2992 97.6323 96.6844 103.684 94.9087 107.306L91.6813 113.893L92.3586 116.595C92.7313 118.082 93.2868 119.38 93.5936 119.48C93.8999 119.58 95.0383 118.931 96.1223 118.037C97.8667 116.599 98.1279 116.047 98.3958 113.232C98.5626 111.482 100.334 105.234 102.332 99.3476C105.885 88.8853 106.348 86.1743 104.584 86.1743C104.155 86.1743 103.691 86.3599 103.553 86.586ZM106.599 88.1997C106.57 89.0477 105.16 93.7841 103.467 98.7246C100.358 107.8 99.5517 111.781 102.413 103.938C103.381 101.281 105.15 98.0879 107.141 95.4038C110.346 91.0808 110.869 89.8793 108.373 92.5727C106.538 94.552 106.066 93.7983 107.209 90.7153C108.01 88.5527 108.04 88.0444 107.404 87.4082C106.768 86.7726 106.644 86.8939 106.599 88.1997ZM116.681 93.5157C116.197 95.1832 115.529 96.7146 115.198 96.9199C114.866 97.1246 113.985 96.5812 113.239 95.7123L111.882 94.1332L113.084 95.9489C113.746 96.9473 114.199 97.8403 114.091 97.9331C113.982 98.0264 113.002 98.5177 111.912 99.0259C108.8 100.475 108.43 101.785 108.404 111.423C108.392 116.102 108.175 120.363 107.922 120.891C107.557 121.656 107.714 121.852 108.692 121.852C109.826 121.852 109.898 122.043 109.635 124.379C109.478 125.769 108.846 127.588 108.23 128.421C107.614 129.254 106.948 130.802 106.749 131.861C106.401 133.717 106.457 133.8 108.281 134.143C109.323 134.338 110.618 134.987 111.159 135.585C111.7 136.183 112.328 136.672 112.555 136.672C113.267 136.672 116.246 128.866 116.849 125.42C117.167 123.608 117.928 117.433 118.542 111.697C119.584 101.949 119.602 100.93 118.813 96.0795C118.349 93.2259 117.878 90.7992 117.766 90.6873C117.655 90.5753 117.166 91.8482 116.681 93.5157ZM70.2572 91.9036C70.2572 92.0864 70.9049 93.2138 71.6958 94.4098C72.5488 95.6986 73.0192 97.0263 72.8501 97.6713C72.6926 98.2751 72.9292 99.0594 73.3825 99.4359C74.0939 100.027 74.151 99.7636 73.8266 97.3979C73.4566 94.6996 72.1596 92.206 70.9098 91.7894C70.5508 91.6698 70.2572 91.7208 70.2572 91.9036ZM67.5128 95.7672C67.5128 96.6921 69.2736 99.3476 69.8872 99.3476C70.9587 99.3476 71.911 98.1565 71.8402 96.905C71.788 95.9791 71.7321 95.95 71.5257 96.7404C71.2007 97.9841 70.7232 97.9512 68.9591 96.5631C68.1637 95.9379 67.5128 95.5795 67.5128 95.7672ZM70.5316 101.138C68.7302 102.099 68.5331 102.35 69.4339 102.534C70.0376 102.658 70.7786 102.958 71.0805 103.201C71.3824 103.444 72.1734 103.202 72.8386 102.663C73.8244 101.864 73.9259 101.524 73.3875 100.825C72.7952 100.055 72.501 100.087 70.5316 101.138ZM73.4018 103.262C72.0295 104.03 72.2266 104.965 74.1466 106.792C75.9985 108.555 83.353 118.382 85.9301 122.539C86.8193 123.973 90.6005 128.973 94.3324 133.65C100.776 141.725 101.1 142.251 100.759 144.071C100.306 146.481 101.993 149.845 103.654 149.845C103.953 149.845 104.294 150.136 104.412 150.491C104.776 151.583 105.935 150.413 105.935 148.953C105.935 148.197 106.194 147.038 106.51 146.378C106.88 145.609 106.507 145.835 105.473 147.008C104.585 148.014 103.711 148.597 103.531 148.305C103.35 148.013 103.584 147.457 104.05 147.071C104.516 146.684 105.159 145.878 105.479 145.279C106.033 144.245 105.98 144.249 104.404 145.371C102.453 146.76 101.857 146.861 102.291 145.728C102.465 145.276 102.325 144.905 101.979 144.905C101.635 144.905 101.889 144.333 102.546 143.635C104.028 142.056 104.053 141.633 102.641 142.001C101.521 142.295 101.106 141.398 102.083 140.794C102.38 140.611 98.9716 135.595 94.5102 129.647C90.0483 123.699 83.841 115.305 80.7157 110.993C77.5903 106.681 74.8799 103.059 74.6922 102.942C74.5039 102.826 73.9232 102.97 73.4018 103.262ZM75.746 102.848C75.746 102.962 76.178 103.395 76.7066 103.809C77.5771 104.491 77.5963 104.472 76.9141 103.601C76.1967 102.687 75.746 102.397 75.746 102.848ZM78.4905 106.483C79.1354 107.389 79.7864 108.13 79.9373 108.13C80.0883 108.13 79.6843 107.389 79.0394 106.483C78.3944 105.577 77.7434 104.836 77.5925 104.836C77.4416 104.836 77.8455 105.577 78.4905 106.483ZM70.6008 111.408C68.4442 115.852 68.2208 117.003 69.3351 117.928C69.9125 118.407 70.3747 117.545 71.6058 113.692C73.6334 107.348 73.1279 106.199 70.6008 111.408ZM72.8375 112.699C72.0219 115.203 71.355 117.62 71.355 118.071C71.355 118.538 72.5878 119.41 74.2234 120.101L77.0919 121.313L79.1607 119.244L81.2294 117.175L79.4483 114.682C78.4685 113.311 76.9141 111.279 75.9936 110.168L74.32 108.147L72.8375 112.699ZM79.5509 122.264C75.4123 128.842 75.4129 128.841 78.0645 126.317C81.8551 122.709 82.2185 123.699 79.0295 128.95C77.4887 131.486 75.8344 134.323 75.3536 135.254C74.5056 136.894 74.5105 136.922 75.5238 136.153C76.099 135.716 77.4673 134.52 78.5646 133.495C79.6618 132.471 80.6849 131.84 80.8375 132.094C80.9901 132.348 80.0279 135.002 78.6991 137.992C77.3702 140.983 76.3866 143.533 76.5134 143.66C76.6402 143.786 77.6688 142.205 78.7995 140.144C81.8063 134.664 84.5842 129.994 85.7237 128.502C86.2737 127.781 86.7237 126.718 86.7237 126.139C86.7237 125.225 82.6455 118.559 82.0868 118.559C81.9742 118.559 80.8331 120.226 79.5509 122.264ZM119.64 119.123C119.445 122.037 117.345 131.46 116.541 133.028C115.46 135.135 115.46 135.139 116.597 137.414C117.538 139.294 117.769 140.957 117.927 146.963C118.044 151.405 117.88 154.918 117.506 155.991C117.012 157.409 117.051 157.903 117.711 158.563C118.434 159.286 118.885 159.134 121.647 157.232C123.992 155.617 125.306 155.084 126.95 155.084H129.134L128.837 143.271C128.463 128.43 128.154 127.281 123.243 122.417C121.271 120.463 119.649 118.981 119.64 119.123ZM70.3039 122.559C69.1281 128.445 68.6182 132.675 68.6034 136.672C68.5924 139.423 68.1308 142.335 67.2092 145.454C66.4512 148.02 65.6032 152.466 65.3244 155.334C65.0455 158.202 64.3128 163.142 63.6969 166.312C63.0805 169.481 62.5756 172.357 62.5745 172.702C62.5723 173.454 63.8731 173.793 68.6314 174.28L72.22 174.648L73.2234 171.44C73.7756 169.676 75.9469 163.663 78.0486 158.078C80.8573 150.617 82.3458 145.625 83.6621 139.255C84.6473 134.488 85.2714 130.783 85.0491 131.022C84.8268 131.261 82.8656 134.668 80.6909 138.593C78.5163 142.517 76.2367 146.222 75.6253 146.826L74.5138 147.924L74.8129 145.913C74.9776 144.808 75.9963 141.893 77.076 139.438C78.1557 136.981 79.0394 134.859 79.0394 134.72C79.0394 134.582 78.014 135.212 76.7615 136.12C72.8853 138.927 72.5411 138.087 75.5259 133.104C80.1937 125.313 80.0795 125.661 76.9942 128.628C75.4738 130.091 74.0835 131.053 73.9056 130.765C73.7278 130.477 74.4721 128.786 75.5589 127.008C76.6457 125.229 78.042 122.908 78.6617 121.852L79.788 119.931L78.4125 121.171C77.6556 121.853 76.9316 122.306 76.8032 122.177C76.6748 122.049 75.2883 121.439 73.7223 120.822L70.8747 119.7L70.3039 122.559ZM108.444 123.812C108.242 124.617 108.183 125.381 108.312 125.51C108.441 125.639 108.713 125.087 108.915 124.283C109.116 123.478 109.175 122.714 109.046 122.585C108.917 122.456 108.646 123.008 108.444 123.812ZM107.032 123.967C107.032 124.326 105.897 125.416 104.509 126.392L101.985 128.164L104.097 128.463C105.258 128.627 106.373 128.688 106.573 128.598C107.078 128.369 107.765 124.049 107.361 123.645C107.181 123.463 107.032 123.609 107.032 123.967ZM86.7303 129.511C86.4092 130.704 85.3943 135.336 84.475 139.803C83.3745 145.15 81.7712 150.642 79.7793 155.883C74.6395 169.406 73.5132 173.009 73.7585 175.142C74.0697 177.851 74.8294 178.877 78.2748 181.245L81.2354 183.28L82.4704 180.696C83.8201 177.872 85.5288 177.16 87.9055 178.432C88.9061 178.967 89.1899 178.948 89.3952 178.328C89.8112 177.077 92.801 174.545 93.8636 174.545C94.4603 174.545 95.0706 175.179 95.4099 176.151C95.8347 177.37 96.2293 177.69 97.0455 177.476C97.7399 177.295 98.4068 177.601 98.9244 178.34C99.7257 179.485 99.7268 179.485 100.72 178.388C102.125 176.834 103.45 177.022 104.993 178.994L106.327 180.697L107.54 178.994C108.544 177.584 109.125 177.289 110.902 177.289C112.801 177.289 113.086 177.463 113.367 178.799C113.542 179.629 113.918 180.737 114.201 181.261C114.485 181.785 114.748 183.02 114.784 184.005C114.825 185.072 115.056 184.373 115.355 182.279C115.693 179.919 115.67 178.572 115.288 178.189C114.279 177.181 114.67 175.788 116.713 173.112L118.709 170.497L116.076 165.522C114.628 162.787 112.062 158.589 110.375 156.193C108.687 153.799 107.151 151.609 106.961 151.327C106.748 151.012 106.249 151.02 105.664 151.347C104.542 151.975 102.104 151.042 102.097 149.982C102.095 149.605 101.864 149.296 101.584 149.296C100.503 149.296 99.4123 146.046 99.9107 144.309C100.366 142.723 100.039 142.183 94.2775 134.983C90.9139 130.779 87.9708 127.341 87.7381 127.341C87.5054 127.341 87.052 128.317 86.7303 129.511ZM98.1043 133.029L102.367 138.717L103.556 136.46C105.626 132.528 105.989 131.558 105.822 130.396C105.678 129.388 105.172 129.228 101.269 128.961C98.8541 128.796 96.3386 128.363 95.6794 128C95.0196 127.638 94.3368 127.341 94.1611 127.341C93.986 127.341 95.76 129.901 98.1043 133.029ZM104.466 135.972C104.275 136.508 103.993 137.173 103.839 137.451C103.684 137.731 103.994 137.789 104.532 137.583C105.227 137.316 106.13 137.836 107.705 139.411C108.916 140.622 110 141.612 110.116 141.612C110.231 141.612 110.326 140.629 110.326 139.429C110.326 137.074 109.318 136.044 106.334 135.351C105.17 135.081 104.732 135.227 104.466 135.972ZM112.209 139.416C111.099 141.529 110.027 143.258 109.827 143.258C109.628 143.258 109.06 142.572 108.564 141.734C107.131 139.308 105.608 138.174 104.328 138.58C103.026 138.994 102.764 141.063 104.014 141.063C104.466 141.063 104.837 141.282 104.837 141.551C104.837 141.819 105.269 142.004 105.798 141.962C106.326 141.921 106.696 142.195 106.621 142.572C106.545 142.95 106.731 143.258 107.032 143.258C107.334 143.258 107.581 144.076 107.581 145.076C107.581 146.463 107.975 147.185 109.241 148.121C110.153 148.796 112.048 151.074 113.451 153.183C115.223 155.849 116.137 156.803 116.448 156.314C116.695 155.926 116.894 152.15 116.892 147.924C116.889 141.511 116.713 139.854 115.829 137.907C115.247 136.623 114.648 135.574 114.499 135.574C114.35 135.574 113.319 137.303 112.209 139.416ZM107.414 148.549C106.873 149.09 107.988 151.295 110.585 154.823C111.968 156.701 114.493 160.795 116.197 163.921C119.111 169.267 120.412 170.588 121.071 168.869C121.351 168.142 115.96 158.527 111.873 152.465C109.835 149.443 108.07 147.893 107.414 148.549ZM124.597 156.424C124.036 156.782 124.474 156.842 125.969 156.613C128.682 156.197 129.144 155.88 127.021 155.891C126.141 155.896 125.05 156.136 124.597 156.424ZM133.74 156.803C133.535 157.007 131.166 157.333 128.474 157.527C124.4 157.821 123.194 158.134 121.288 159.396L118.997 160.912L120.15 161.986C120.784 162.577 121.304 163.545 121.304 164.137C121.304 164.839 121.677 165.214 122.375 165.214C123.977 165.214 126.185 164.068 126.502 163.072C126.673 162.536 128.528 161.662 131.277 160.824C133.749 160.07 136.379 158.976 137.119 158.393C138.432 157.361 138.484 157.36 139.216 158.36C139.788 159.143 139.966 159.191 139.966 158.567C139.966 158.117 139.669 157.453 139.307 157.09C138.61 156.393 134.369 156.174 133.74 156.803ZM137.306 159.348C136.977 159.745 134.785 160.657 132.436 161.375C129.978 162.126 127.699 163.202 127.067 163.91C126.463 164.585 124.935 165.475 123.671 165.886C122.219 166.358 121.514 166.862 121.756 167.253C122.024 167.686 123.12 167.43 125.381 166.407C132.46 163.202 138.566 159.964 138.757 159.313C139.023 158.41 138.066 158.433 137.306 159.348ZM117.741 160.283C117.931 160.589 118.316 160.699 118.597 160.525C119.358 160.054 119.217 159.725 118.252 159.725C117.782 159.725 117.552 159.976 117.741 160.283ZM119.657 163.567C119.98 164.171 120.368 164.665 120.519 164.665C120.67 164.665 120.529 164.171 120.206 163.567C119.882 162.963 119.495 162.469 119.344 162.469C119.193 162.469 119.334 162.963 119.657 163.567ZM132.039 164.408C131.453 164.851 131.206 165.206 131.49 165.196C131.774 165.187 132.486 164.816 133.072 164.373C133.658 163.93 133.905 163.575 133.621 163.585C133.337 163.594 132.625 163.965 132.039 164.408ZM126.503 168.143C124.398 169.15 122.404 169.883 122.072 169.772C121.193 169.476 120.471 170.627 119.663 173.61C119.272 175.059 118.46 176.868 117.859 177.631L116.768 179.018L119.68 183.189C121.323 185.542 122.192 187.199 121.673 186.99C121.168 186.787 120.415 186.482 119.999 186.313C119.508 186.114 119.114 186.521 118.875 187.475C118.672 188.284 118.603 189.043 118.722 189.162C118.841 189.281 120.066 188.88 121.443 188.27C122.821 187.66 125.101 187.004 126.51 186.811C127.918 186.618 129.969 186.002 131.067 185.442C133.15 184.38 135.026 184.108 135.026 184.869C135.026 185.113 135.348 185.754 135.742 186.293C136.401 187.193 136.575 187.095 137.917 185.069C138.719 183.857 139.899 182.699 140.541 182.495L141.708 182.125L140.574 181.331C139.363 180.483 131.732 168.096 131.732 166.978C131.732 165.927 130.611 166.177 126.503 168.143ZM133.072 167.684C133.83 169.956 140.146 180.092 141.133 180.62C143.067 181.655 142.269 179.552 138.861 174.638C134.885 168.904 132.538 166.085 133.072 167.684ZM117.894 172.758C116.701 174.125 115.815 175.961 115.815 177.064C115.815 177.947 115.885 177.945 116.892 177.033C117.955 176.071 119.444 172.502 118.976 172.035C118.844 171.902 118.357 172.227 117.894 172.758ZM65.0428 176.586C66.2503 176.702 67.5166 177.16 67.8569 177.604C68.3844 178.293 68.5189 178.249 68.7664 177.302C69.0343 176.277 68.8191 176.199 65.9517 176.284C63.4219 176.359 63.254 176.415 65.0428 176.586ZM71.355 176.74C72.4297 177.435 73.1564 177.435 72.7272 176.74C72.5406 176.438 71.9703 176.195 71.4598 176.2C70.6601 176.207 70.6453 176.282 71.355 176.74ZM69.7083 178.097C69.7083 178.582 70.6678 180.007 71.8407 181.265C73.618 183.17 74.1592 183.464 75.0885 183.027C76.155 182.527 76.1154 182.405 74.1867 180.25C71.9192 177.716 69.7083 176.654 69.7083 178.097ZM156.432 179.585C156.432 181.013 157.579 181.539 160.175 181.302C165.068 180.854 165.773 180.399 162.195 179.994C160.384 179.79 158.347 179.439 157.667 179.215C156.776 178.921 156.432 179.024 156.432 179.585ZM142.559 181.832C142.365 182.337 142.585 182.824 143.098 183.02C144.304 183.483 144.471 183.145 143.616 181.975C142.98 181.106 142.844 181.088 142.559 181.832ZM107.581 187.718L100.171 188.041L107.719 188.154C112.459 188.225 115.266 188.063 115.266 187.718C115.266 187.416 115.204 187.22 115.129 187.282C115.053 187.344 111.657 187.54 107.581 187.718Z" fill="black"/>
</svg>
