<svg width="623" height="343" viewBox="0 0 623 343" fill="none" xmlns="http://www.w3.org/2000/svg">
<g clip-path="url(#clip0_2139_2267)">
<path fill-rule="evenodd" clip-rule="evenodd" d="M63.6239 0.706587C63.7389 1.30311 66.2394 2.48014 72.2672 4.77408C80.1815 7.78578 81.2184 8.05591 87.7806 8.81489C91.6483 9.26253 98.8501 9.82461 103.785 10.0647C120.191 10.8629 124.074 12.1593 131.93 19.464C136.396 23.6159 138.214 24.2119 147.19 24.4675C153.673 24.6518 155.494 24.5058 163.922 23.127C169.123 22.2759 175.343 21.2666 177.744 20.8845C181.334 20.3127 189.033 20.2172 221.149 20.3462C257.081 20.4907 260.396 20.5722 262.784 21.369C265.975 22.4335 267.96 24.3734 268.391 26.8492C268.919 29.8827 269.568 31.0728 271.36 32.2984C273.9 34.0351 278.859 35.2281 285.893 35.7951C293.127 36.378 318.783 36.0322 331.765 35.1762C340.173 34.6219 340.326 34.6297 342.534 35.6985C345.448 37.1093 349.441 41.4659 353.666 47.8443C362.482 61.1568 364.064 62.395 375.974 65.3063C383.884 67.2399 393.199 70.2846 398.707 72.7371C400.205 73.4044 406.315 77.6441 412.286 82.1587C427.002 93.287 429.938 95.1934 435.689 97.3603C440.178 99.0504 452.049 102.699 460.484 104.981C464.492 106.065 464.596 106.207 468.441 115.841C473.083 127.473 474.357 134.671 473.407 143.897C472.357 154.1 469.201 162.24 463.644 169.085C460.386 173.096 459.51 175.432 459.93 178.986C460.315 182.243 462.059 184.972 466.136 188.693L469.617 191.869L467.528 194.193C466.378 195.471 463.425 198.485 460.963 200.891C457.742 204.041 456.046 206.147 454.909 208.409C454.04 210.137 452.886 212.179 452.345 212.945L451.36 214.339L450.711 213.1C449.933 211.616 448.675 211.134 447.101 211.716C445.678 212.242 444.289 211.842 440.843 209.911C439.376 209.089 437.836 208.412 437.422 208.408C436.191 208.394 433.557 211.487 433.265 213.29C433.062 214.535 433.256 215.277 434.044 216.28C435.204 217.754 436.259 217.949 437.704 216.955C438.23 216.593 439.494 216.143 440.513 215.956C441.533 215.769 442.678 215.497 443.06 215.35C443.548 215.163 443.753 215.448 443.753 216.315C443.753 217.542 444.858 219.068 445.746 219.068C446.005 219.068 447.081 218.627 448.137 218.089L450.057 217.109L450.064 220.392C450.073 225.07 450.345 225.726 452.714 226.773C453.844 227.273 455.354 228.448 456.067 229.384C462.363 237.638 471.318 260.85 472.598 272.232C473.049 276.243 471.744 279.371 468.655 281.684C465.704 283.894 461.846 288.686 461.49 290.582C461.29 291.648 460.591 292.559 459.22 293.544C454.604 296.859 453.937 297.623 453.937 299.596C453.937 300.619 454.155 301.592 454.422 301.757C455.208 302.243 454.977 303.804 454.058 304.213C453.592 304.421 450.026 304.721 446.134 304.88C439.205 305.163 438.985 305.206 435.465 306.962C433.258 308.063 430.28 310.187 427.748 312.465C419.155 320.198 417.565 320.453 405.789 315.995C392.141 310.828 382.824 308.007 374.644 306.564C370.014 305.748 366.349 305.701 360.809 306.389C351.113 307.592 345.377 309.214 324.449 316.673C316.362 319.555 309.536 321.172 303.352 321.67L299.472 321.982L298.482 318.938C297.21 315.032 296.048 314.134 292.198 314.081C288.159 314.026 286.267 313.455 282.896 311.276C280.968 310.03 279.746 309.525 279.283 309.784C278.779 310.066 278.545 309.88 278.445 309.119C278.368 308.537 278.267 294.53 278.22 277.993L278.133 247.924L274.305 238.467C270.753 229.695 269.032 225.582 264.654 215.402L262.973 211.493L264.333 211.693C266.516 212.014 268.994 210.959 269.558 209.469C269.832 208.747 270.179 203.246 270.331 197.244C270.572 187.708 271.614 175.23 272.221 174.624C272.334 174.511 274.149 175.486 276.253 176.791C281.334 179.942 284.908 181.725 286.143 181.725C286.699 181.725 287.808 182.064 288.609 182.478C289.409 182.892 290.49 183.095 291.01 182.93C291.577 182.749 292.489 183.004 293.289 183.565C294.023 184.079 295.913 185.174 297.49 185.997C299.746 187.176 300.556 187.388 301.294 186.993C302.037 186.596 302.497 186.727 303.515 187.624C304.221 188.248 304.938 188.945 305.107 189.174C305.375 189.537 302.361 191.68 292.805 197.922C291.538 198.75 290.502 199.667 290.501 199.961C290.5 200.723 292.532 203.607 293.49 204.202C294.487 204.822 296.537 203.953 301.934 200.619C310.466 195.349 311.434 194.874 312.676 195.346C314.543 196.056 316.538 195.866 318.907 194.752C323.362 192.658 325.009 189.738 323.195 187.148C322.448 186.082 322.462 186.06 323.678 186.365C324.647 186.608 326 186.079 329.66 184.025C332.262 182.565 337.508 179.759 341.318 177.79C347.58 174.552 348.292 174.29 348.738 175.057C349.348 176.107 351.746 176.179 352.582 175.172C353.012 174.654 353.367 174.585 353.793 174.938C354.521 175.543 355.972 175.067 355.972 174.224C355.972 173.842 356.409 173.698 357.142 173.839C358.01 174.005 358.524 173.738 359.137 172.802C359.702 171.94 360.394 171.541 361.323 171.541C362.071 171.541 363.027 171.408 363.449 171.246C364.333 170.907 364.473 169.081 363.677 168.285C363.38 167.988 363.295 167.49 363.488 167.178C364.015 166.325 368.485 163.618 371.379 162.398C374.463 161.099 399.46 149.59 401.581 148.494L403.084 147.716L401.837 146.081C400.328 144.104 400.285 143.605 401.589 143.264C402.752 142.96 403.234 143.824 402.894 145.603C402.715 146.54 402.866 146.807 403.577 146.807C404.607 146.807 411.953 143.987 414.878 142.469C417.429 141.145 419.29 141.179 420.198 142.566C421.364 144.346 424.148 152.457 427.533 163.938C432.63 181.228 433.463 183.212 435.321 182.498C435.946 182.259 436.063 181.751 435.865 180.14C435.727 179.012 435.246 174.923 434.795 171.056C433.222 157.546 431.086 148.964 427.202 140.556C426.169 138.318 425.324 136.336 425.324 136.152C425.324 135.968 426.964 134.985 428.97 133.967C431.555 132.654 432.697 131.789 432.897 130.992C433.22 129.707 431.804 126.516 430.582 125.775C429.424 125.072 426.563 126.048 422.966 128.372C421.311 129.442 419.861 130.318 419.745 130.318C419.628 130.318 418.407 128.649 417.031 126.609C414.035 122.17 404.337 110.044 400.098 105.437C396.646 101.686 395.435 101.401 393.521 103.892C392.465 105.267 392.443 105.441 393.135 106.87C393.82 108.285 400.067 114.738 404.029 118.125C405.956 119.772 408.371 123.969 409.826 128.199C411.492 133.04 411.874 132.525 402.292 138.372C399.053 140.349 397.388 141.662 397.29 142.319C397.178 143.064 395.639 143.988 390.985 146.105C387.599 147.645 379.809 151.295 373.674 154.216C367.539 157.136 361.391 160.037 360.011 160.66L357.504 161.795L355.404 160.372C353.083 158.798 351.369 158.571 349.852 159.633C348.976 160.246 348.491 160.241 345.985 159.59C344.409 159.182 342.776 158.538 342.354 158.162C341.933 157.785 341.075 157.476 340.447 157.476C337.669 157.476 331.723 161.789 331.723 163.804C331.723 165.091 330.603 164.994 328.962 163.568C327.843 162.595 327.696 162.229 328.135 161.507C328.737 160.519 336.354 156.528 337.664 156.515C339.436 156.497 338.456 155.152 336.271 154.602C331.846 153.488 326.786 150.446 318.725 144.054C313.233 139.699 311.84 138.088 297.133 119.07C294.871 116.145 294.407 115.789 292.44 115.472L290.258 115.12L291.803 114.711C292.659 114.484 294.021 113.493 294.854 112.489C296.715 110.246 302.64 98.5131 304.048 94.2817C305.041 91.2981 305.173 91.139 306.888 90.8631C308.837 90.5493 312.324 87.9954 312.324 86.8814C312.324 86.5031 311.596 85.7165 310.706 85.1336C309.806 84.5433 308.484 82.9192 307.726 81.471C304.612 75.5228 296.523 71.1323 288.733 71.1614C283.458 71.1813 279.814 73.8593 277.168 79.6625C275.081 84.2407 274.301 87.6782 274.715 90.4702C274.9 91.7142 275.09 94.4984 275.137 96.6575C275.217 100.296 275.396 100.93 277.581 105.332C279.133 108.458 280.806 110.975 282.476 112.701C283.872 114.141 284.819 115.441 284.581 115.588C284.344 115.735 283.45 115.108 282.596 114.197C281.139 112.641 280.259 111.187 274.915 101.51C273.751 99.403 272.581 97.6571 272.314 97.6304C272.047 97.6037 271.761 98.1716 271.677 98.8923C271.54 100.086 271.415 100.16 270.275 99.7265C266.489 98.2875 247.338 108.099 247.338 111.477C247.338 112.954 248.422 113.018 254.086 111.876C257.079 111.271 259.971 110.942 260.69 111.122C263.814 111.906 266.364 116.687 267.746 124.35C269.434 133.712 273.61 147.387 276.861 154.199C278.475 157.58 279.406 158.818 282.271 161.395C286.412 165.121 289.594 168.235 292.124 171.041L293.99 173.111L293.126 175.029C292.297 176.867 290.572 178.144 287.736 179.02C286.508 179.4 279.808 175.574 271.981 170.023C269.397 168.19 266.942 166.691 266.525 166.691C266.042 166.691 265.767 166.256 265.767 165.493C265.767 164.834 265.297 163.471 264.723 162.462C258.302 151.176 254.163 143.537 250.066 135.41C244.41 124.191 244.209 123.19 246.489 117.582C247.977 113.923 248.13 112.859 247.17 112.859C245.696 112.859 243.401 116.829 239.175 126.689C230.803 146.225 224.395 159.28 219.898 165.963C215.985 171.778 208.448 179.322 202.487 183.39C197.38 186.876 196.202 188.559 198.385 189.252C200.47 189.914 206.468 186.024 218.263 176.361C227.174 169.061 227.238 169.055 222.516 175.93C217.423 183.342 216.511 185.04 217.235 185.765C218.064 186.594 219.906 185.679 225.032 181.888C234.378 174.976 239.578 171.615 239.578 172.487C239.578 173.114 234.509 179.423 228.117 186.75C223.184 192.404 222.056 194.335 223.682 194.335C225.495 194.335 235.156 185.792 248.3 172.569L259.204 161.599L259.496 163.729C259.718 165.352 260.166 166.167 261.375 167.154L262.962 168.449L261.684 172.299C260.195 176.782 258.652 179.561 250.526 192.395C244.644 201.682 243.731 202.718 240.912 203.295C239.681 203.547 239.578 203.746 239.578 205.886C239.578 207.162 239.316 208.467 238.996 208.787C238.251 209.532 226.58 209.575 221.375 208.851C216.637 208.192 211.243 206.814 208.091 205.458L205.63 204.4L205.659 200.458C205.674 198.29 205.898 195.426 206.156 194.092C207.052 189.459 207.211 187.195 206.665 186.858C205.683 186.251 204.262 187.518 201.807 191.19C197.903 197.027 197.903 199.816 201.806 203.558C203.848 205.515 204.175 206.09 204.175 207.72C204.175 208.76 204.621 212.994 205.166 217.128C206.886 230.176 208.044 259.337 207.12 266.353C206.069 274.336 199.806 299.317 194.214 317.832C192.752 322.671 192.698 324.14 193.965 324.543C195.339 324.979 194.698 326.017 192.671 326.639C191.069 327.131 190.815 327.072 189.807 325.986C189.037 325.155 188.185 324.793 186.998 324.793C185.017 324.793 184.291 325.757 184.291 328.386C184.291 329.994 184.206 330.088 182.957 329.863C182.224 329.731 177.477 328.875 172.409 327.96C153.959 324.628 155.006 324.718 135.458 324.778C117.856 324.832 117.407 324.81 116.898 323.858C116.611 323.322 115.453 322.348 114.324 321.693C112.634 320.712 111.175 320.41 106.052 319.979C99.8681 319.46 99.8138 319.464 96.595 320.753C91.2399 322.898 84.3382 324.828 80.9696 325.123L77.7959 325.402L74.0136 322.188C71.5863 320.125 69.8045 318.973 69.0406 318.973C67.7836 318.973 66.2433 319.657 61.1069 322.492C59.3731 323.45 56.3212 324.723 54.3255 325.322L50.6959 326.411L42.8432 325.311C37.9265 324.622 34.2432 324.337 32.9914 324.549C29.8284 325.082 27.2474 327.425 24.1547 332.568C22.6357 335.093 20.835 337.641 20.1527 338.228C17.6774 340.361 13.8621 340.781 7.44922 339.625C0.0198846 338.286 0 338.285 0 338.98C0 339.839 9.35275 341.776 13.4736 341.771C18.5421 341.765 22.127 339.555 24.4937 334.977C26.1896 331.699 28.842 328.182 30.3891 327.162C32.1432 326.005 36.5482 325.957 43.0469 327.022C45.967 327.501 49.1387 327.698 51.355 327.539C54.5816 327.308 55.6223 326.94 61.782 323.853C65.5449 321.967 68.8175 320.424 69.0542 320.426C69.2909 320.427 70.9219 321.655 72.6789 323.155C77.3332 327.128 78.4021 327.546 82.0108 326.801C86.1889 325.938 92.8301 323.968 96.4655 322.514C99.419 321.332 99.8676 321.287 105.438 321.605C112.464 322.006 114.774 322.836 114.561 324.886L114.427 326.191L135.173 326.372C157.925 326.569 154.166 326.209 176.289 330.319C181.09 331.211 185.182 331.847 185.382 331.733C185.582 331.619 185.746 330.683 185.746 329.654C185.746 327.56 186.13 326.248 186.742 326.248C186.967 326.248 187.739 326.793 188.459 327.46C189.853 328.753 191.221 328.964 193.233 328.199L194.479 327.725L194.168 331.77C193.886 335.436 193.95 335.908 194.853 336.81C195.622 337.579 196.273 337.753 197.708 337.573C199.581 337.339 200.521 337.578 208.055 340.212C213.834 342.233 220.071 343.024 224.348 342.28C229.73 341.342 234.426 338.875 233.543 337.447C233.015 336.592 234.666 334.065 236.313 333.206C237.433 332.621 240.164 332.235 245.883 331.853C250.284 331.559 254.158 331.147 254.491 330.937C255.379 330.378 255.23 328.832 254.248 328.424C253.782 328.23 251.981 327.692 250.247 327.23L247.095 326.39L250.975 326.038C255.787 325.601 256.552 325.393 256.552 324.518C256.552 323.703 257.361 323.581 257.619 324.356C257.911 325.233 260.891 324.954 265.457 323.622C267.821 322.932 270.103 322.368 270.529 322.368C270.954 322.368 272.143 323.187 273.169 324.187L275.035 326.005L285.587 325.986C295.671 325.967 296.221 325.917 298.006 324.864C299.256 324.127 301.249 323.605 304.019 323.291C311.745 322.413 317.392 320.988 326.874 317.528C329.941 316.408 334.524 314.746 337.058 313.834C350.89 308.86 364.539 306.7 373.558 308.058C381.811 309.301 395.532 313.486 407.864 318.521C416.837 322.184 419.442 321.583 428.838 313.683C436.654 307.111 437.323 306.848 447.311 306.426C454.394 306.126 454.524 306.101 455.653 304.788C456.778 303.48 456.785 303.412 456.009 301.319C455.273 299.332 455.275 299.098 456.039 297.931C456.491 297.241 457.71 296.243 458.748 295.714C461.003 294.564 462.478 292.808 462.934 290.731C463.166 289.676 464.743 287.761 468.062 284.504C474.82 277.873 475.374 275.857 473.119 266.111C468.9 247.867 458.456 226.404 453.151 225.072C451.944 224.769 451.512 223.222 451.512 219.193C451.512 216.953 451.733 216.277 452.901 214.948C453.664 214.078 455.028 211.867 455.932 210.034C457.212 207.436 458.933 205.311 463.738 200.397C472.377 191.56 472.515 191.325 469.952 189.811C467.611 188.428 463.825 184.478 462.628 182.17C460.328 177.734 461.155 174.56 466.287 168.146C472.489 160.392 475.672 148.924 475.149 136.212C474.826 128.357 473.528 123.623 468.317 111.293C467.221 108.698 465.976 106.113 465.551 105.55C464.988 104.803 462.749 103.965 457.297 102.459C439.916 97.6595 432.876 95.0518 427.574 91.4489C424.013 89.0289 408.059 77.0873 404.913 74.4869C401.156 71.3816 387.355 66.2903 374.879 63.4076C371.307 62.5822 367.747 61.5031 366.967 61.0094C363.933 59.0884 360.048 54.6126 355.355 47.6343C349.907 39.5323 345.914 35.2766 342.555 33.9939C340.516 33.215 339.534 33.1936 330.332 33.7276C315.286 34.6006 285.551 34.4842 280.101 33.5307C277.715 33.1136 275.044 32.4715 274.164 32.1039C271.874 31.147 270.131 29.2348 270.131 27.678C270.131 26.9501 269.672 25.404 269.11 24.2429C267.901 21.7468 265.135 20.124 260.687 19.3015C258.776 18.9485 244.847 18.7734 218.667 18.7734H179.505L173.048 19.9514C159.236 22.4708 155.985 22.8545 148.403 22.8598C139.275 22.8656 137.166 22.2148 132.641 17.9974C131.04 16.5061 128.602 14.5468 127.223 13.6438C122.326 10.4396 114.445 8.58889 105.694 8.58889C100.895 8.58889 88.5556 7.40992 82.9308 6.41426C80.9303 6.06023 77.3963 5.04033 75.0771 4.14846L70.8612 2.5267L160.918 2.50585C269.841 2.48014 426.307 1.62125 428.143 1.03831C428.493 0.92725 428.634 0.60086 428.457 0.312785C428.226 -0.0606463 407.015 -0.0965326 354.346 0.188148C262.391 0.684763 70.6493 0.710953 66.528 0.226947C63.7733 -0.0965317 63.4785 -0.0480349 63.6239 0.706587ZM286.202 73.128C282.908 73.7754 281.054 75.5276 278.908 80.0239C276.98 84.0622 275.689 88.7631 276.255 89.6797C276.426 89.9566 277.049 88.6836 277.639 86.8504C278.989 82.6553 280.458 80.1921 282.039 79.472C285.011 78.1179 289.166 79.2382 294.963 82.9565C296.484 83.9318 298.293 84.7301 298.984 84.7301C301.075 84.7301 303.916 86.474 304.486 88.1074C305.067 89.7743 305.418 89.8616 307.611 88.8848C310.626 87.5429 310.685 87.3887 308.809 85.7422C307.863 84.9119 306.762 83.4129 306.361 82.4109C304.802 78.5136 298.869 74.4107 292.961 73.1435C290.135 72.5378 289.216 72.5353 286.202 73.128ZM282.269 81.3221C281.683 81.9075 280.912 83.0773 280.555 83.9216C279.952 85.3479 279.977 85.4755 280.918 85.7121C281.475 85.8523 282.352 86.7796 282.868 87.7728C283.383 88.766 283.983 89.4688 284.2 89.3349C284.417 89.2006 285.105 87.6477 285.729 85.8843C286.353 84.1209 287.13 82.5729 287.457 82.4444C287.784 82.3158 288.766 82.6451 289.64 83.1757C290.513 83.7063 291.992 84.2921 292.925 84.4774C294.593 84.8081 294.603 84.8004 293.534 84.0191C291.734 82.7043 287.478 80.9167 285.34 80.5772C283.665 80.311 283.157 80.4341 282.269 81.3221ZM287.067 87.0492C284.798 92.7239 283.389 93.4921 281.986 89.8189C280.769 86.6312 279.833 87.6549 279.824 92.1851C279.815 96.1682 279.489 96.9243 277.857 96.7429C276.782 96.6236 276.693 96.7613 276.846 98.3094C277.085 100.737 279.102 105.305 281.599 109.073C283.742 112.309 285.424 113.525 286.144 112.359C286.388 111.965 286.998 111.873 287.903 112.094C291.497 112.972 291.998 112.97 292.992 112.071C294.435 110.765 297.613 105.152 300.234 99.2793C302.926 93.2477 303.526 91.0347 302.466 91.0347C302.07 91.0347 300.614 89.9435 299.23 88.6099C296.902 86.3659 296.535 86.185 294.315 86.185C292.887 86.185 291.16 85.7989 290.046 85.2306L288.175 84.2766L287.067 87.0492ZM300.483 87.685C301.677 89.0037 303.11 89.7825 303.11 89.1118C303.11 88.3223 301.254 86.67 300.367 86.67C299.657 86.67 299.671 86.7873 300.483 87.685ZM264.956 102.182C259.617 104.081 248.743 110.336 250.033 110.766C250.305 110.857 252.539 110.51 254.998 109.995C258.27 109.31 259.891 109.181 261.042 109.514C265.196 110.717 267.669 115.14 269.492 124.631C270.321 128.949 270.36 129.029 270.605 126.936C270.852 124.828 270.918 124.755 272.92 124.361C274.053 124.138 274.981 123.777 274.981 123.559C274.981 123.067 273.764 122.036 272.383 121.358C269.754 120.066 269.074 115.569 270.215 107.002C271.019 100.963 270.282 100.288 264.956 102.182ZM272.572 101.444C272.563 101.701 273.411 103.556 274.456 105.567C279.394 115.067 280.566 120.49 280.535 133.713C280.509 144.695 280.025 147.403 278.036 147.686C277.191 147.806 276.72 147.355 275.756 145.504C275.088 144.22 274.531 143.319 274.519 143.5C274.476 144.126 277.297 151.419 278.641 154.157L279.988 156.899L281.739 154.157C284.724 149.483 285.398 147.564 284.792 145.469C284.19 143.388 284.571 140.423 286.098 135.296C286.703 133.264 286.991 131.322 286.817 130.453C286.599 129.36 286.729 128.925 287.345 128.689C287.795 128.516 288.362 128.498 288.604 128.648C289.378 129.125 288.992 136.445 287.808 143.73L287.481 145.745L291.537 146.997C295.402 148.189 303.768 152.555 310.142 156.707C312.512 158.25 326.642 164.751 327.627 164.751C327.777 164.751 327.559 164.266 327.144 163.673C326.729 163.08 326.389 162.23 326.389 161.783C326.389 160.669 329.463 158.064 332.127 156.922L334.328 155.979L330.965 154.257C326.412 151.925 322.592 149.29 316.618 144.36C312.322 140.815 310.396 138.678 303.288 129.568C298.718 123.712 294.571 118.561 294.073 118.122C293.311 117.449 287.976 115.768 286.604 115.768C286.37 115.768 286.045 116.587 285.88 117.587C285.716 118.588 285.392 119.842 285.161 120.376C284.344 122.265 284.219 123.37 283.932 131.288C283.773 135.689 283.494 140.472 283.313 141.917C282.964 144.7 282.094 145.652 281.597 143.796C281.126 142.037 281.238 132.373 281.779 128.055C282.117 125.364 282.115 123.705 281.772 122.805C281.336 121.659 281.461 121.274 282.744 119.813L284.216 118.137L282.137 116.058C280.993 114.914 278.643 111.427 276.913 108.308C273.501 102.155 272.596 100.723 272.572 101.444ZM394.884 104.8C394.473 105.703 394.524 106.208 395.12 107.104C396.407 109.041 400.204 112.836 403.128 115.107C406.442 117.683 408.395 120.39 410.347 125.119C412.352 129.977 412.91 132.646 412.122 133.615C411.781 134.034 408.893 136.076 405.705 138.153C400.936 141.259 400.209 141.88 401.605 141.653C403.468 141.35 404.467 142.086 404.6 143.858C404.642 144.413 404.689 144.867 404.705 144.867C405.137 144.867 412.995 141.654 414.287 140.949C415.285 140.405 417.015 139.918 418.132 139.867C419.935 139.785 420.285 139.955 421.27 141.397C422.953 143.859 424.999 149.547 428.759 162.215C432.763 175.708 434.186 179.963 433.798 177.286C433.657 176.311 433.119 171.937 432.602 167.566C431.689 159.855 430.903 155.692 429.505 151.172C428.32 147.336 425.698 140.826 424.276 138.187C423.518 136.782 422.899 135.529 422.899 135.405C422.899 135.28 424.654 134.296 426.8 133.217C428.946 132.138 430.824 130.935 430.974 130.543C431.377 129.494 430.775 127.556 429.947 127.239C428.963 126.861 426.183 128.088 422.773 130.403C421.207 131.467 419.625 132.222 419.257 132.081C418.889 131.94 417.543 130.23 416.266 128.282C411.657 121.256 397.054 103.644 395.836 103.644C395.602 103.644 395.174 104.164 394.884 104.8ZM271.618 109.164C271.046 113.715 271.224 117.046 272.134 118.78C272.373 119.236 273.3 119.956 274.193 120.38C275.885 121.182 276.863 122.714 276.56 124.086C276.401 124.81 275.564 125.278 272.866 126.156C272.086 126.409 272.009 126.763 272.297 128.747C273.048 133.909 276.665 144.863 277.736 145.22C279.202 145.708 279.481 128.11 278.122 120.861C277.251 116.213 275.421 110.741 273.429 106.835L272.212 104.448L271.618 109.164ZM287.804 114.044C288.322 114.459 289.086 114.781 289.502 114.76C290.155 114.727 290.159 114.685 289.53 114.452C289.13 114.304 288.366 113.982 287.833 113.736C286.879 113.297 286.878 113.302 287.804 114.044ZM241.065 126.446C239.882 129.243 238.22 133.058 237.37 134.925C236.521 136.792 235.116 139.957 234.247 141.957C231.598 148.061 226.09 158.9 222.997 164.097C219.306 170.299 211.485 178.698 204.597 183.861C201.892 185.887 199.814 187.545 199.978 187.545C201.05 187.545 210.021 181.059 218.481 174.167C223.947 169.715 227.879 167.082 228.494 167.462C229.475 168.068 228.657 169.811 224.625 175.707C218.724 184.334 218.593 184.617 221.481 182.466C231.256 175.182 239.177 170.086 240.723 170.086C241.881 170.086 242.249 171.387 241.491 172.803C240.802 174.089 234.711 181.679 230.363 186.667L227.696 189.727L230.848 187.077C232.582 185.62 239.492 179 246.204 172.368C256.105 162.582 258.62 160.338 259.54 160.468C260.336 160.581 260.715 160.991 260.81 161.841C261.096 164.398 261.417 165.087 262.562 165.609C263.463 166.02 263.8 166.005 263.976 165.547C264.103 165.217 261.587 160.265 258.385 154.543C250.176 139.873 243.845 126.792 243.496 123.779L243.215 121.363L241.065 126.446ZM286.174 141.755C286.197 142.32 286.312 142.435 286.467 142.048C286.607 141.698 286.59 141.28 286.428 141.119C286.267 140.958 286.153 141.244 286.174 141.755ZM387.253 149.663C364.867 160.099 359.852 162.5 359.867 162.774C359.876 162.928 360.42 163.665 361.077 164.412L362.273 165.77L364.336 164.364C366.496 162.891 368.446 161.944 383.131 155.238C388.065 152.985 394.016 150.221 396.355 149.096L400.606 147.049L399.507 145.756L398.407 144.464L387.253 149.663ZM286.395 148.671C286.22 149.467 285.194 151.581 284.116 153.37C281.776 157.248 281.73 157.092 286.759 162.337C290.252 165.979 297.595 171.056 299.371 171.056C300.09 171.056 304.235 173.667 308.478 176.793C308.999 177.178 311.658 177.597 315.049 177.829C319.322 178.123 320.882 178.409 321.299 178.979C321.782 179.64 323.176 179.076 332.137 174.592C337.794 171.762 342.344 169.208 342.249 168.917C342.153 168.626 340.59 168.077 338.774 167.696C335.757 167.063 335.423 167.074 334.879 167.817C334.552 168.265 334.151 168.631 333.989 168.631C333.574 168.631 323.758 164.754 317.496 162.117C314.605 160.9 309.982 158.487 307.224 156.755C301.086 152.902 293.453 149.075 290.442 148.341C289.209 148.04 287.865 147.666 287.457 147.509C286.923 147.304 286.623 147.632 286.395 148.671ZM337.64 160.143C335.301 161.227 333.178 163.324 333.178 164.552C333.178 164.918 333.957 165.314 334.997 165.476C340.378 166.314 342.768 166.832 343.969 167.419L345.303 168.072V166.019C345.303 164.89 345.623 163.543 346.015 163.025C346.897 161.859 346.937 161.36 346.151 161.345C345.818 161.338 344.297 160.82 342.771 160.192L339.996 159.051L337.64 160.143ZM351.783 160.724C352.299 161.24 353.589 161.33 353.278 160.829C353.128 160.585 352.654 160.386 352.225 160.386C351.796 160.386 351.598 160.538 351.783 160.724ZM347.763 163.604C346.666 164.998 346.608 165.334 347.065 167.623C347.369 169.139 347.381 169.145 347.928 168.047C348.234 167.435 348.914 166.933 349.439 166.933C349.965 166.933 350.618 166.497 350.891 165.963C351.656 164.467 354.215 164.411 355.312 165.866L356.195 167.036L356.714 166.014C357.021 165.411 357.675 165.01 358.314 165.033C360.044 165.097 359.247 164.147 357.404 163.95C356.483 163.851 354.605 163.446 353.23 163.048C349.767 162.048 348.919 162.134 347.763 163.604ZM357.699 168.848C357.276 171.665 356.321 171.717 355.037 168.995C354.502 167.861 354.083 167.261 354.105 167.661C354.213 169.543 353.979 170.086 353.062 170.086C352.529 170.086 352.092 170.304 352.092 170.571C352.092 171.516 350.264 171.05 349.999 170.037C349.711 168.933 348.697 169.201 348.697 170.381C348.697 171.593 350.134 173.966 350.868 173.966C351.248 173.966 351.761 173.606 352.007 173.165C352.29 172.659 352.822 172.461 353.455 172.627C354.077 172.789 354.558 172.619 354.728 172.176C354.924 171.666 355.404 171.552 356.419 171.775C357.642 172.044 357.859 171.932 357.995 170.965C358.129 170.023 358.484 169.82 360.216 169.694C361.349 169.612 362.27 169.394 362.261 169.209C362.222 168.351 360.911 167.272 359.54 166.971C358.054 166.645 358.024 166.674 357.699 168.848ZM264.359 169.673C263.601 171.849 263.71 171.968 265.01 170.38C265.753 169.47 266.43 169.08 266.932 169.273C268.828 170 267.805 173.347 258.869 195.669C256.706 201.071 255.078 205.631 255.249 205.803C255.422 205.975 256.7 206.295 258.091 206.515C259.482 206.735 260.8 207.238 261.022 207.633C261.928 209.252 262.995 209.853 264.952 209.846C268.24 209.834 268.451 209.507 268.307 204.654C268.056 196.166 270.126 172.46 271.151 172.099C271.833 171.859 266.738 168.146 265.726 168.146C265.226 168.146 264.678 168.758 264.359 169.673ZM292.44 169.465C292.44 169.688 293.095 170.444 293.895 171.146C295.66 172.695 295.686 173.191 294.151 176.076C292.459 179.26 293.04 178.874 295.321 175.299L297.256 172.268L296.214 171.471C294.41 170.092 292.44 169.045 292.44 169.465ZM333.946 175.431C327.584 178.591 322.148 181.407 321.865 181.69C321.13 182.425 323.804 185.151 324.861 184.745C327.804 183.616 346.545 172.942 346.67 172.324C346.756 171.903 346.53 171.137 346.169 170.622C345.542 169.726 345.007 169.937 333.946 175.431ZM263.201 175.542C262.03 177.209 260.35 180.428 259.469 182.695C257.033 188.958 251.507 199.514 248.726 203.216C247.361 205.034 245.095 207.388 243.691 208.448C240.893 210.561 240.754 210.913 240.611 216.215L240.515 219.796L241.851 217.613C242.867 215.954 243.232 214.653 243.375 212.187C243.559 209.032 243.609 208.923 245.245 208.146C246.171 207.707 248.329 207.116 250.042 206.832C251.756 206.548 253.157 206.098 253.157 205.831C253.157 205.564 254.781 201.395 256.767 196.567C262.081 183.643 266.132 172.511 265.521 172.511C265.416 172.511 264.372 173.875 263.201 175.542ZM296.181 176.707C294.905 178.736 293.923 180.451 293.999 180.517C294.075 180.583 295.816 181.407 297.868 182.348L301.598 184.06L303.608 180.732C304.715 178.902 305.496 177.205 305.344 176.96C305.03 176.451 299.329 172.99 298.831 173.006C298.65 173.012 297.458 174.678 296.181 176.707ZM305.09 181.451L302.981 184.87L306.925 188.568C309.094 190.602 310.869 192.479 310.869 192.739C310.869 193.251 314.053 194.337 315.533 194.33C316.862 194.323 321.415 191.593 322.038 190.429C322.468 189.623 322.341 189.043 321.373 187.398C320.715 186.278 319.61 184.833 318.917 184.187C317.313 182.687 317.318 181.45 318.932 180.604C320.118 179.983 319.882 179.914 315.511 179.607C312.928 179.425 310.002 178.997 309.008 178.654L307.2 178.031L305.09 181.451ZM290.345 179.706C289.326 180.157 288.653 180.686 288.85 180.883C289.545 181.579 290.831 181.225 291.955 180.028C293.269 178.63 292.932 178.563 290.345 179.706ZM252.868 191.76C252.094 193.019 249.978 196.289 248.168 199.028C245.228 203.474 244.67 204.062 242.954 204.524C241.179 205.002 241.033 205.17 241.033 206.745V208.448L242.794 207.104C245.484 205.053 248.736 200.751 251.888 195.074C254.772 189.878 255.463 187.543 252.868 191.76ZM202.629 193.001C200.405 196.857 200.149 197.766 200.8 199.484C201.336 200.898 203.095 203.064 203.707 203.064C203.89 203.064 203.941 202.548 203.821 201.918C203.602 200.772 204.407 193.119 204.963 191.061C205.515 189.019 204.381 189.961 202.629 193.001ZM299.957 195.058C297.023 197.023 294.111 199.033 293.485 199.524C292.356 200.411 292.354 200.426 293.277 201.565C294.127 202.615 294.346 202.663 295.869 202.133C296.784 201.814 299.388 200.378 301.655 198.941C303.922 197.504 306.829 195.728 308.113 194.994L310.449 193.66L308.356 192.564C307.204 191.962 306.044 191.472 305.777 191.476C305.51 191.48 302.891 193.092 299.957 195.058ZM205.872 209.248C206.043 210.782 206.509 214.437 206.908 217.371C207.306 220.305 207.828 226.743 208.068 231.678C208.308 236.612 208.749 244.142 209.047 248.409C210.188 264.746 209.128 270.561 197.164 313.556C194.707 322.384 194.699 322.426 195.615 321.173C196.209 320.361 196.494 320.333 198.637 320.872C200.501 321.342 202.27 321.344 206.982 320.88L212.961 320.292L214.563 317.087C215.444 315.324 216.44 313.008 216.775 311.941C217.111 310.874 219.35 305.527 221.751 300.059C232.898 274.668 235.296 267.19 236.375 254.447C237.611 239.838 237.822 233.779 237.152 232.159C236.638 230.92 236.698 230.214 237.551 227.431C238.247 225.159 238.649 222.104 238.865 217.427L239.178 210.693L234.389 211.032C226.556 211.588 212.605 209.54 207.999 207.158C205.738 205.989 205.53 206.193 205.872 209.248ZM250.861 208.43C249.199 208.646 247.235 209.112 246.497 209.465C245.313 210.031 245.121 210.447 244.868 213.011C244.659 215.125 243.956 217.154 242.286 220.463C240.221 224.557 239.964 225.432 239.717 229.252L239.442 233.495L241.385 237.073C251.944 256.511 252.785 257.927 253.575 257.589C256.18 256.477 257.36 257.899 255.642 260.082C254.719 261.256 254.675 261.844 254.888 270.146C255.218 283.007 256.098 302.845 256.472 305.851C256.781 308.345 256.874 308.479 258.734 309.158C261.176 310.049 268.271 310.135 272.853 309.33L276.302 308.724L276.66 279.945C276.857 264.117 276.861 250.437 276.67 249.546C276.222 247.46 271.276 235.019 265.565 221.613L261.079 211.082L258.209 209.512C256.631 208.649 255.012 207.963 254.612 207.99C254.212 208.016 252.524 208.214 250.861 208.43ZM436.077 211.461C434.941 212.671 434.69 214.662 435.564 215.535C435.962 215.933 436.507 215.831 437.625 215.149C438.461 214.64 439.651 214.221 440.269 214.22C440.886 214.22 441.839 213.979 442.386 213.686C443.308 213.193 443.201 213.051 440.916 211.746C437.94 210.046 437.435 210.017 436.077 211.461ZM446.541 213.772C445.621 214.308 445.336 217.128 446.202 217.128C447.03 217.128 449.572 215.686 449.572 215.216C449.572 213.409 448.248 212.779 446.541 213.772ZM238.427 249.316C237.511 262.51 236.865 266.146 233.982 274.356C231.994 280.015 227.428 291.228 223.317 300.544C221.257 305.212 219.159 310.223 218.654 311.68C217.834 314.045 214.93 320.795 214.478 321.386C214.049 321.949 206.401 322.73 201.887 322.673C199.162 322.639 197.306 322.759 197.764 322.94C198.223 323.122 199.913 323.285 201.52 323.304C203.332 323.325 204.854 323.625 205.521 324.093C206.115 324.508 206.6 324.632 206.6 324.369C206.6 323.784 213.629 322.159 214.317 322.584C214.586 322.751 214.95 323.651 215.125 324.584C215.581 327.018 217.373 327.784 223.524 328.178C228.405 328.49 228.61 328.55 229.944 330.043C230.738 330.932 231.455 332.416 231.635 333.545L231.949 335.504L232.832 334.052C234.501 331.307 238.641 330.128 246.605 330.128C249.377 330.128 251.754 329.951 251.888 329.735C252.021 329.519 250.141 328.869 247.709 328.291C240.763 326.641 240.921 324.999 248.071 324.532C254.591 324.105 254.74 324.054 254.37 322.368C253.872 320.101 254.009 315.736 254.613 314.606C255.035 313.819 255.022 312.998 254.564 311.208C254.153 309.607 254.116 308.644 254.447 308.212C254.758 307.807 254.8 305.904 254.561 302.969C254.356 300.435 253.958 291.269 253.679 282.6C253.399 273.931 253.06 265.566 252.924 264.011C252.79 262.457 252.892 260.787 253.152 260.3C253.542 259.572 253.468 259.458 252.729 259.651C252.006 259.84 251.35 258.961 249.342 255.117C247.972 252.495 245.154 247.266 243.079 243.497L239.308 236.644L238.427 249.316ZM503.405 250.133C495.869 251.531 495.375 251.799 496.789 253.732C497.386 254.549 497.043 255.043 493.097 259.039C490.031 262.142 487.867 263.873 485.769 264.898C483.126 266.19 482.776 266.53 482.641 267.931C482.511 269.28 482.846 269.856 484.947 271.903C486.3 273.22 489.246 275.51 491.495 276.99C493.743 278.471 495.728 279.918 495.905 280.205C496.083 280.491 496.344 282.007 496.486 283.573C496.695 285.876 496.547 286.799 495.71 288.405C494.32 291.071 494.388 291.66 496.412 294.483C498.839 297.868 500.01 300.274 500.01 301.874C500.01 302.627 500.319 304.436 500.697 305.894C501.076 307.352 501.322 308.609 501.244 308.686C501.166 308.764 499.976 309.006 498.599 309.223C495.519 309.71 494.711 310.674 494.691 313.881C494.676 316.323 496.933 322.128 498.224 322.967C498.539 323.171 505.126 323.314 512.862 323.284L526.926 323.229L530.956 325.68C533.173 327.027 535.947 328.497 537.121 328.945C539.243 329.755 539.264 329.753 540.724 328.524C541.705 327.699 543.12 327.156 544.986 326.89C546.523 326.67 563.221 326.49 582.092 326.49C600.964 326.49 616.404 326.322 616.404 326.115C616.404 325.908 615.586 325.746 614.585 325.755C613.585 325.764 610.039 325.549 606.704 325.277C603.37 325.006 588.857 324.738 574.454 324.682C546.708 324.575 542.832 324.811 540.125 326.777C538.52 327.941 537.833 327.794 533.473 325.349L530.321 323.581L570.412 323.338C592.463 323.205 610.668 322.932 610.867 322.732C611.067 322.532 611.067 322.205 610.867 322.004C610.667 321.804 591.726 321.581 568.775 321.509L527.046 321.377L525.531 320.336C524.698 319.763 523.077 318.543 521.929 317.625C519.977 316.064 519.892 315.899 520.625 315.09C521.055 314.614 521.786 313.167 522.249 311.874C523.205 309.201 524.59 308.228 527.168 308.42C528.626 308.528 528.888 308.736 529.021 309.891C529.203 311.48 530.116 312.139 534.831 314.084C538.593 315.635 539.013 315.617 542.554 313.764C544.443 312.776 544.773 312.063 544.063 310.504C543.274 308.774 539.244 307.151 534.711 306.737L533.281 306.606L534.815 304.863L536.35 303.12L539.324 303.57C544.518 304.357 545.764 303.412 546.599 298.056C547.171 294.393 549.215 288.911 550.328 288.056C550.762 287.723 551.641 287.45 552.28 287.45H553.443L552.2 288.928C550.467 290.987 549.386 294.802 550.02 296.62C550.518 298.049 551.36 298.541 555.154 299.62C556.896 300.115 557.372 300.082 558.429 299.39C560.067 298.316 561.997 295.337 562.816 292.618C563.46 290.477 563.44 290.365 562.071 288.475C561.297 287.407 560.021 286.058 559.235 285.477C557.825 284.434 557.815 284.396 558.492 282.479C559.388 279.939 559.362 277.52 558.427 276.585C557.093 275.251 553.853 274.708 548.992 275.003C543.618 275.33 535.459 276.923 533.003 278.125C531.33 278.944 531.291 279.028 531.291 281.843V284.722L528.264 286.476C524.268 288.792 522.623 290.422 520.323 294.346C518.324 297.756 515.085 301.172 512.498 302.595C511.185 303.318 510.872 303.34 510.221 302.751C509.806 302.375 508.38 301.602 507.052 301.033C505.723 300.464 504.472 299.739 504.27 299.422C503.708 298.537 503.839 294.748 504.524 292.106L505.141 289.729L507.787 292.227C511.295 295.537 511.54 295.513 514.013 291.598C516.532 287.612 516.078 286.813 510.704 285.789C508.79 285.425 507.135 285.038 507.027 284.929C506.821 284.724 511.449 278.196 514.802 273.963C517.061 271.109 521.171 269.059 519.911 271.414C518.957 273.195 519.307 275.149 520.742 276.06C521.476 276.525 522.663 277.452 523.381 278.118C524.125 278.81 525.001 279.21 525.42 279.05C526.643 278.58 528.235 274.855 528.311 272.287C528.376 270.068 528.245 269.78 526.507 268.32C524.954 267.016 524.617 266.409 524.538 264.786C524.365 261.214 517.996 252.592 514.039 250.574C512.027 249.548 507.558 249.362 503.405 250.133ZM504.738 251.424C503.306 251.641 502.981 252.265 504.08 252.687C504.982 253.033 507.284 257.964 507.284 259.549C507.284 260.272 506.943 260.938 506.482 261.115C505.2 261.606 501.294 260.364 500.495 259.211C498.132 255.802 498.552 255.726 494.018 260.383C491.222 263.254 488.974 265.072 486.961 266.088C485.335 266.909 484.006 267.835 484.006 268.147C484.006 269.12 488.479 273.081 492.413 275.591C494.484 276.912 496.549 278.248 497.003 278.56C497.686 279.03 497.827 279.958 497.827 283.991C497.827 287.235 497.626 289.057 497.221 289.462C496.19 290.494 496.535 291.74 498.744 294.967C500.808 297.981 501.563 300.182 502.193 305.019C502.357 306.28 502.697 307.438 502.948 307.594C503.199 307.749 503.405 308.305 503.405 308.83C503.405 309.939 501.691 310.729 499.285 310.729C495.868 310.729 495.218 313.937 497.644 318.83L498.797 321.156L511.637 321.285L524.475 321.415L521.336 319.144C519.609 317.896 518.042 316.639 517.853 316.352C517.665 316.065 518.045 315.273 518.698 314.592C519.351 313.91 520.235 312.325 520.663 311.07C521.815 307.688 523.16 306.849 527.426 306.849C531.246 306.849 530.903 307.055 534.559 302.553C535.509 301.385 537.458 301.212 540.419 302.035C543.194 302.805 544.44 301.811 544.845 298.503C545.291 294.852 547.457 288.897 548.909 287.329C549.882 286.277 550.58 285.995 552.201 285.995C554.608 285.995 555.508 285.258 556.808 282.227C558.843 277.479 557.814 276.54 550.69 276.648C545.508 276.725 536.14 278.319 533.822 279.518C532.632 280.134 532.466 280.445 532.741 281.543C532.92 282.257 533.133 282.907 533.214 282.988C533.295 283.069 534.411 282.469 535.694 281.655C536.978 280.841 538.296 280.175 538.624 280.175C538.952 280.175 539.903 281.43 540.737 282.964C542.515 286.231 542.436 287.689 540.313 290.851C538.849 293.03 535.346 295.694 533.945 295.694C533.005 295.694 532.298 294.952 531.869 293.512C531.709 292.979 531.175 291.423 530.681 290.054L529.782 287.566L528.354 288.291C526.132 289.419 523.377 292.284 521.7 295.209C519.759 298.596 516.86 301.771 514.1 303.533C511.58 305.141 510.742 305.226 509.169 304.03C508.532 303.546 506.998 302.773 505.758 302.311C504.096 301.693 503.344 301.085 502.894 299.998C502.134 298.164 502.236 294.673 503.165 290.669C504.148 286.429 504.913 284.758 507.772 280.614L510.25 277.023L507.35 276.78C504.211 276.518 501.95 275.046 501.95 273.265C501.95 272.758 503.183 271.05 504.691 269.47C506.806 267.253 507.753 266.596 508.838 266.596C510.004 266.596 510.374 266.907 511.007 268.415C511.426 269.415 511.88 271.052 512.015 272.052C512.151 273.052 512.436 273.871 512.65 273.871C512.864 273.871 513.536 273.162 514.144 272.294C515.622 270.189 516.245 269.763 519.205 268.83C522.045 267.934 523.151 266.27 522.631 263.671C522.021 260.623 515.454 252.547 512.749 251.519C511.601 251.082 507.329 251.032 504.738 251.424ZM500.046 252.472C499.399 252.653 498.773 253.089 498.656 253.441C498.483 253.961 498.652 253.969 499.562 253.482C500.177 253.152 501.239 252.713 501.922 252.506C502.856 252.223 502.923 252.131 502.192 252.137C501.659 252.14 500.693 252.291 500.046 252.472ZM500.774 254.724C499.93 255.362 499.906 255.553 500.527 256.714C501.315 258.186 502.595 259.116 504.47 259.577C505.775 259.898 505.776 259.895 505.271 258.065C504.231 254.299 502.769 253.213 500.774 254.724ZM506.175 270.371C504.918 271.647 503.89 272.944 503.89 273.254C503.89 274.329 506.041 275.325 508.363 275.325C510.462 275.325 510.679 275.22 510.679 274.201C510.679 272.691 509.279 268.051 508.824 268.051C508.624 268.051 507.432 269.095 506.175 270.371ZM522.72 269.627C521.905 270.935 520.864 273.282 520.864 273.811C520.864 274.02 521.831 274.886 523.014 275.735C525.416 277.46 525.507 277.41 526.456 273.816C527.061 271.521 527.037 271.364 525.872 269.98C524.419 268.253 523.631 268.164 522.72 269.627ZM534.564 284.375C532.897 285.573 531.533 286.855 531.533 287.225C531.533 287.596 531.935 288.944 532.427 290.221C532.918 291.497 533.46 292.932 533.63 293.408C533.916 294.205 534.054 294.215 535.361 293.539C537.239 292.568 539.496 289.777 540.164 287.6C540.628 286.09 540.571 285.681 539.755 284.643C539.234 283.981 538.808 283.141 538.808 282.777C538.808 281.687 537.758 282.082 534.564 284.375ZM555.132 287.913C551.966 291.418 550.563 295.352 552.042 296.58C552.386 296.865 553.69 297.372 554.939 297.706C557.083 298.279 557.279 298.249 558.432 297.166C559.784 295.896 561.602 292.454 561.602 291.166C561.602 290.341 557.928 285.995 557.232 285.995C557.03 285.995 556.085 286.858 555.132 287.913ZM505.826 287.509C505.823 288.123 510.52 292.785 511.142 292.785C511.292 292.785 512.011 291.797 512.74 290.589L514.066 288.393L512.903 287.95C512.263 287.707 510.41 287.358 508.784 287.174C506.435 286.908 505.829 286.977 505.826 287.509ZM531.077 308.996C530.503 309.689 530.504 309.904 531.09 310.468C531.908 311.256 537.501 313.639 538.534 313.639C539.789 313.639 542.688 312.034 542.688 311.339C542.688 310.297 538.803 308.84 535.111 308.497C532.308 308.236 531.639 308.319 531.077 308.996ZM257.037 310.816C257.037 311.414 258.225 311.805 259.467 311.616C260.301 311.489 260.161 311.348 258.775 310.922C257.819 310.629 257.037 310.581 257.037 310.816ZM274.496 310.729C272.851 311.075 272.844 311.087 274.254 311.102C275.054 311.11 276.254 310.942 276.921 310.729C278.511 310.219 276.916 310.219 274.496 310.729ZM277.932 312.015C276.738 312.535 273.575 312.817 266.599 313.022L256.923 313.307L256.253 314.912C255.368 317.03 255.355 320.913 256.232 320.913C256.59 320.913 259.045 320.458 261.688 319.902C267.756 318.625 271.263 318.82 275.466 320.666C278.504 322 278.956 322.058 287.954 322.246L297.29 322.442V321.37C297.29 320.781 297.031 319.434 296.714 318.377C296.03 316.092 294.986 315.578 291.026 315.578C287.648 315.578 285.749 314.976 282.368 312.833C280.962 311.943 279.762 311.232 279.7 311.253C279.639 311.275 278.843 311.618 277.932 312.015ZM264.039 321.138C262.155 321.48 260.134 321.913 259.546 322.099C258.267 322.505 258.614 323.338 260.062 323.338C261.499 323.338 267.707 321.291 267.707 320.818C267.707 320.603 267.652 320.448 267.585 320.472C267.518 320.496 265.923 320.796 264.039 321.138ZM269.071 320.759C269.42 320.9 269.839 320.882 270 320.721C270.161 320.56 269.875 320.446 269.364 320.466C268.799 320.49 268.684 320.605 269.071 320.759ZM274.61 323.05L276.422 324.793L282.612 324.718L288.803 324.644L284.196 324.303C281.433 324.099 278.617 323.571 277.164 322.985C272.781 321.218 272.709 321.219 274.61 323.05ZM290.864 324.174C291.731 324.281 293.149 324.281 294.016 324.174C294.884 324.066 294.174 323.978 292.44 323.978C290.706 323.978 289.997 324.066 290.864 324.174ZM210.076 324.861C208.302 325.372 208.32 325.446 210.91 328.309C212.013 329.529 212.407 329.641 215.541 329.621L218.966 329.6L217.143 328.95C214.704 328.079 214.045 327.467 213.703 325.752C213.39 324.188 212.862 324.059 210.076 324.861ZM196.638 327.339C197.29 332.634 197.195 332.475 200.211 333.298C201.725 333.71 205.145 334.886 207.812 335.911C214.14 338.341 215.288 338.508 221.415 337.885C227.339 337.283 230.363 336.287 230.363 334.941C230.363 333.42 228.789 330.64 227.739 330.307C226.434 329.893 219.731 329.795 219.977 330.194C220.634 331.256 214.503 332.869 211.763 332.355C209.592 331.948 207.429 330.161 205.855 327.474C204.775 325.632 204.4 325.374 202.402 325.1C201.168 324.931 199.296 324.793 198.242 324.793H196.324L196.638 327.339ZM620.524 326.251C620.139 326.874 621.501 327.413 622.497 327.031C623.469 326.658 622.934 325.763 621.739 325.763C621.237 325.763 620.69 325.983 620.524 326.251ZM195.759 334.238C195.335 335.343 196.26 336.09 197.697 335.805C198.65 335.616 201.352 336.306 206.357 338.019C213.618 340.503 213.644 340.508 219.936 340.531C225.796 340.553 226.438 340.463 229.03 339.248C232.221 337.752 232.888 336.5 229.757 337.882C227.056 339.074 219.908 340.001 215.6 339.718C213.148 339.556 211.007 339.003 208.055 337.767C201.961 335.218 196.036 333.517 195.759 334.238Z" fill="#434344" fill-opacity="0.62"/>
</g>
<defs>
<clipPath id="clip0_2139_2267">
<rect width="623" height="343" fill="white"/>
</clipPath>
</defs>
</svg>
