<svg width="517" height="326" viewBox="0 0 517 326" fill="none" xmlns="http://www.w3.org/2000/svg">
<path fill-rule="evenodd" clip-rule="evenodd" d="M61.8779 2.21075C56.9884 4.63045 48.673 13.3303 46.5134 18.2825C45.7622 20.0064 42.6593 27.2937 39.6179 34.4766C36.5776 41.6594 31.3245 53.8833 27.9457 61.6408C17.5324 85.5452 16.3466 89.0849 18.2794 90.4985C19.7745 91.5913 19.74 92.1869 17.9148 96.7849C14.8912 104.404 4.59284 127.778 2.14702 132.574C0.555821 135.691 0 138.776 0 144.48C0 151.161 0.392837 152.788 2.97239 156.798C4.60642 159.338 9.07284 166.252 12.8978 172.162C16.7216 178.072 19.8507 183.619 19.8507 184.49C19.8507 185.361 19.2103 187.342 18.4267 188.894C17.6442 190.446 15.7385 196.172 14.1922 201.62C12.646 207.067 10.7581 212.239 9.99537 213.112C6.35328 217.286 4.96895 221.879 5.51955 227.956C7.5088 249.885 42.7481 272.189 70.4639 269.061C88.9794 266.971 104.264 260.654 116.07 250.212C120.595 246.211 128.994 236.256 128.372 235.634C128.111 235.373 125.097 235.83 121.673 236.647C109.358 239.588 104.962 238.225 93.9316 228.042C87.4854 222.09 81.8133 214.117 73.6567 199.543C71.3582 195.436 68.1842 190.967 66.6045 189.612C64.1169 187.479 63.7313 186.378 63.7313 181.397C63.7313 178.234 63.2612 175.354 62.6866 174.999C60.713 173.779 61.7285 171.859 65.8606 169.002C69.5163 166.473 70 165.65 70 161.958C70 158.828 70.8766 156.63 73.4895 153.206C77.1515 148.409 83.8276 129.314 89.9239 106.2C93.5096 92.6069 95.6712 86.1355 96.5593 86.3361C96.9082 86.4145 99.89 86.8094 103.186 87.2148C128.382 90.3094 187.911 107.181 197.463 113.935C199.753 115.554 208.998 131.392 222.434 156.715C226.179 163.775 226.887 164.539 229.573 164.421C232.986 164.271 232.416 163.41 246.181 189.452C253.354 203.022 254.925 206.829 254.925 210.643C254.925 213.198 255.567 216.824 256.35 218.701C258.127 222.951 263.617 227.67 267.748 228.497C269.563 228.859 271.087 229.932 271.381 231.053C271.846 232.829 273.219 232.984 288.513 232.984C302.536 232.984 305.238 233.237 305.759 234.596C306.1 235.483 306.202 236.384 305.987 236.599C305.773 236.813 299.72 237.747 292.537 238.673C273.196 241.167 231.793 252.675 216.642 259.768C210.274 262.75 203.368 269.888 200.28 276.681C196.905 284.108 197.112 297.353 200.726 305.122C204.57 313.388 209.197 318.153 217.158 322.048L224.104 325.447H342.164C457.616 325.447 460.348 325.401 465.856 323.359C483.243 316.914 492.524 294.616 485.174 276.945C483.146 272.07 476.978 264.727 472.32 261.645C464.278 256.322 414.536 241.513 396.633 239.11C387.239 237.85 386.567 237.6 386.567 235.371V232.984H449.177H511.789L514.076 230.111C516.297 227.32 516.343 226.71 515.682 208.954C514.87 187.178 513.277 165.688 511.887 157.793C511.091 153.266 510.022 151.203 506.744 147.863L502.605 143.646L502.311 130.592L502.015 117.536H496.791H491.567L490.991 129.551L490.417 141.566L490.208 126.215L490 110.865L485.56 110.544L481.119 110.223L480.826 98.0606C480.558 86.9619 480.353 85.8503 478.471 85.3582C475.736 84.6425 476.864 81.6816 480.19 80.8469C481.952 80.4049 482.687 79.4845 482.687 77.7219C482.687 75.5279 482.206 75.2228 478.74 75.2228C474.178 75.2228 470.149 77.6342 470.149 80.3652C470.149 81.4037 469.274 83.3752 468.205 84.746C467.135 86.1167 464.373 92.4094 462.066 98.7303C457.621 110.908 455.257 113.332 454.676 106.309C454.426 103.293 453.828 102.267 452.064 101.834C450.805 101.526 439.435 101.407 426.795 101.569L403.814 101.865L402.89 106.249C402.066 110.156 401.611 110.668 398.706 110.95L395.448 111.268L394.859 120.148C394.535 125.033 394.183 127.83 394.075 126.365C393.844 123.203 392.078 121.193 389.53 121.193C387.916 121.193 387.651 119.929 387.388 111.006L387.09 100.82L366.455 100.537L345.821 100.254V113.858C345.821 122.23 345.419 127.462 344.776 127.462C344.134 127.462 343.731 122.233 343.731 113.864V100.267L340.157 96.3639L336.582 92.4616L312.852 92.144L289.121 91.8264L284.139 87.6254C280.629 84.6655 278.963 82.3816 278.496 79.8888C277.2 72.9849 269.41 59.2806 263.674 53.8122C255.515 46.0349 247.142 41.2875 241.383 41.1746C237.198 41.0921 223.989 37.8261 179.701 25.9272C159.958 20.6218 157.074 20.2269 153.224 22.3007C149.939 24.0696 149.58 24.0027 117.91 15.7176C87.5 7.76164 85.7333 7.16508 82.2416 3.67343C78.8764 0.30821 78.0531 -0.00104215 72.4552 2.62538e-06C68.3367 2.62538e-06 64.8869 0.721944 61.8779 2.21075ZM69.4776 1.57344C68.903 1.75627 67.1394 2.1909 65.5597 2.53985C59.0873 3.96702 63.6415 12.9019 76.2687 23.5493C83.5518 29.6904 85.5588 32.0506 87.429 36.6706C89.3963 41.5309 90.184 42.4022 93.1679 43.0124C95.0704 43.401 96.7954 43.5515 97.0002 43.3467C98.1421 42.2048 83.346 6.63329 80.6515 4.04224C78.9851 2.43955 71.7688 0.845227 69.4776 1.57344ZM52.7842 12.2176C46.0516 20.3784 45.8228 22.0187 50.1816 30.7937C53.8457 38.1667 53.9481 40.9709 52.1834 85.5598L51.0833 113.357L54.1852 134.562C55.8914 146.225 57.8534 156.45 58.5472 157.286C59.2409 158.122 61.3566 158.805 63.2476 158.805C66.0142 158.805 67.4967 157.887 70.8191 154.112C75.2636 149.063 80.173 135.957 86.73 111.641C88.4904 105.115 90.1652 98.9946 90.4536 98.0407C90.8945 96.5791 90.3543 96.39 87.0184 96.8361C83.7513 97.2739 82.5331 96.8779 80.0445 94.5721L77.0303 91.7763L77.771 75.2395C78.9976 47.8664 79.3497 46.4675 86.0687 42.3124C87.5972 41.3669 87.5324 40.7807 85.3843 36.1618C83.6981 32.5364 80.8991 29.3384 75.7306 25.1342C67.2251 18.2146 61.6418 11.3275 61.6418 7.75329C61.6418 3.45403 58.8533 4.85926 52.7842 12.2176ZM86.4061 10.5543C87.0393 11.1875 100.651 15.143 116.652 19.344C150.872 28.3281 149.231 27.9624 149.396 26.6564C149.468 26.0902 145.62 24.6222 140.845 23.3936C136.071 22.1649 122.111 18.5145 109.824 15.2809C85.9934 9.01015 84.5757 8.72388 86.4061 10.5543ZM88.0099 14.7188C95.6869 33.5258 97.7336 38.9921 98.7334 43.3572L99.9307 48.581L113.436 49.7324C125.599 50.7688 127.199 50.7072 129.552 49.1097C135.403 45.1396 139.052 43.8796 144.701 43.8796C151.382 43.8796 155.322 45.5763 159.119 50.0907C161.72 53.1812 162.04 53.2627 175.699 54.3043C192.639 55.5967 215.943 55.7002 216.693 54.4851C216.995 53.9982 214.554 52.9702 211.269 52.2022C207.986 51.4333 193.545 47.6199 179.179 43.727C153.135 36.6685 149.403 35.0596 149.403 30.8857C149.403 30.1031 138.281 26.6899 120.41 21.9884C104.465 17.7925 90.5163 14.1097 89.413 13.8025C87.9775 13.4034 87.5794 13.6625 88.0099 14.7188ZM51.9776 16.799C49.8776 18.0224 49.5234 22.9851 51.403 24.8646C53.2491 26.7107 56.8922 26.39 58.8679 24.2075C61.1152 21.724 61.0567 19.5457 58.6861 17.3997C56.513 15.4324 54.6157 15.2631 51.9776 16.799ZM52.2942 19.2605C51.3549 20.393 51.3403 21.3061 52.2367 22.9799C53.5678 25.4685 56.1734 25.4142 57.7782 22.8649C60.1948 19.0264 55.2091 15.749 52.2942 19.2605ZM155.779 25.3348C154.807 27.9154 153.305 35.6352 154.102 33.9542C154.375 33.3796 155.264 30.6757 156.077 27.9467C157.587 22.8827 157.381 21.0825 155.779 25.3348ZM157.399 28.9539C156.465 32.2376 156.047 35.2142 156.47 35.5684C157.771 36.6591 223.968 54.3273 226.755 54.3273C228.294 54.3273 236.976 43.2015 236.004 42.4743C235.454 42.0616 191.881 30.5816 185.97 29.2913C183.384 28.7261 177.037 27.0827 171.866 25.6378C166.694 24.1918 161.705 23.0039 160.78 22.9966C159.623 22.9882 158.566 24.851 157.399 28.9539ZM151.983 25.596C151.713 26.4579 151.278 27.8537 151.016 28.6969C150.754 29.54 150.915 30.4625 151.374 30.7467C151.834 31.0309 152.711 29.6361 153.321 27.6458C153.983 25.4873 154.037 24.0288 153.451 24.0288C152.912 24.0288 152.251 24.734 151.983 25.596ZM33.1445 53.6743C26.3931 69.2613 20.8746 82.5394 20.8819 83.1809C20.8945 84.2236 30.3393 88.8049 32.479 88.8049C33.4819 88.8049 35.4409 84.5997 44.6475 62.6855C48.3888 53.7788 51.684 45.1782 51.9693 43.5745C52.4958 40.6209 50.1221 33.0964 47.0818 28.0773C45.4331 25.3557 45.3266 25.551 33.1445 53.6743ZM236.489 46.3191C234.849 48.2342 232.489 51.0143 231.244 52.4948C229.363 54.7327 227.777 55.3 221.842 55.8558C208.88 57.0688 208.758 57.6069 220.97 59.6933C240.576 63.0428 257.385 69.1318 270.597 77.6728C277.998 82.4569 278.367 81.0893 272.787 69.5591C268.067 59.8082 262.623 53.7161 252.728 47.1079C244.52 41.627 240.664 41.439 236.489 46.3191ZM84.8849 45.2148C81.6576 46.691 80.8625 50.6361 79.4887 72.0007C78.3269 90.0712 78.3352 90.2122 80.6107 92.6351C83.4578 95.666 88.7861 95.8916 91.3218 93.0895C93.1261 91.0961 95.3128 80.7163 96.6648 67.7266C97.3084 61.5404 97.1464 60.4905 95.2334 58.4364C93.0645 56.1076 88.806 47.8967 88.806 46.0422C88.806 44.3842 87.3663 44.0812 84.8849 45.2148ZM90.4901 44.7342C89.7609 45.9148 94.3506 55.5706 96.4757 57.3279C98.0512 58.6318 98.209 58.2787 98.209 53.4508C98.209 49.3333 97.6949 47.6616 95.9219 46.0099C93.5336 43.7845 91.3887 43.2809 90.4901 44.7342ZM138.433 46.0652C136.709 46.5887 134.123 47.9458 132.687 49.0815L130.075 51.147L133.731 51.2066C135.743 51.24 142.084 51.6872 147.824 52.1991C153.564 52.7121 158.451 52.9409 158.683 52.71C159.578 51.8146 156.006 48.6866 152.015 46.8707C147.491 44.8136 143.36 44.5681 138.433 46.0652ZM241.355 46.4779C239.658 48.5225 240.753 51.193 243.289 51.193C245.533 51.193 246.817 48.8809 245.901 46.4915C245.132 44.4887 243.011 44.4824 241.355 46.4779ZM242.388 48.6427C242.388 49.5381 242.858 49.981 243.433 49.6258C244.007 49.2706 244.478 48.5382 244.478 47.997C244.478 47.4558 244.007 47.0139 243.433 47.0139C242.858 47.0139 242.388 47.7473 242.388 48.6427ZM100.567 51.4866C101.057 52.9712 121.862 54.5081 124.278 53.2387C125.809 52.4331 121.662 51.8261 107.274 50.7469C101.945 50.3478 100.253 50.5337 100.567 51.4866ZM49.5652 54.4464C48.6406 56.2351 47.2092 59.6442 46.386 62.021C45.5637 64.3979 41.977 73.0675 38.4175 81.2878C32.4539 95.0569 31.7581 96.1863 29.5787 95.6398C27.5737 95.1363 26.833 95.8049 24.7194 100.023C23.3476 102.76 21.6206 106.88 20.8809 109.178C20.1422 111.477 17.9566 116.838 16.0237 121.093C14.0909 125.347 12.6846 129.003 12.8988 129.216C13.113 129.43 17.4948 130.286 22.6372 131.117C27.7785 131.949 35.2006 133.623 39.13 134.836L46.2742 137.042L49.2027 134.08L52.1301 131.118L50.6581 121.193C49.42 112.849 49.3876 106.481 50.4512 81.2293C51.147 64.7093 51.6109 51.1919 51.4824 51.1919C51.3528 51.193 50.4909 52.6567 49.5652 54.4464ZM127.102 53.0203C126.734 53.6158 132.073 54.5154 140.295 55.2446C203.781 60.8791 228.864 64.2245 243.293 68.9813C257.289 73.594 270.495 80.7278 282.334 90.0681C283.904 91.3082 285.443 92.0678 285.754 91.7575C286.751 90.7607 270.317 78.7604 262.722 74.9397C247.352 67.2073 238.404 64.3206 219.925 61.1299C209.916 59.4018 166.984 54.9134 150.448 53.8666C144.989 53.5207 137.642 52.9649 134.121 52.6306C130.465 52.2827 127.454 52.4499 127.102 53.0203ZM100.048 56.9142C99.7751 58.3382 99.7991 59.7487 100.1 60.0485C101.05 60.9993 109.013 60.4852 113.275 59.2002C121.383 56.7533 117.779 54.3273 106.036 54.3273C101.019 54.3273 100.499 54.5519 100.048 56.9142ZM120.999 57.7939C118.791 59.6839 118.03 61.8549 116.553 70.4921C115.573 76.2227 114.688 81.3536 114.587 81.8948C114.486 82.4349 119.34 83.8997 125.373 85.1482C142.573 88.7088 156.806 92.6372 176.306 99.2057C186.219 102.544 194.328 105.102 194.328 104.89C194.328 104.678 192.178 100.62 189.551 95.8718C184.327 86.4322 182.994 82.1633 184.901 80.9837C185.731 80.4707 184.913 79.1042 182.395 76.7984C175.896 70.8452 178.664 62.6855 187.181 62.6855C191.81 62.6855 194.57 65.544 194.881 70.6624C195.087 74.061 195.539 74.6106 199.16 75.8716C201.387 76.6469 203.978 77.2884 204.917 77.2967C205.857 77.3051 208.913 77.979 211.708 78.7939C214.504 79.6088 218.673 80.7685 220.972 81.3703C223.272 81.9721 227.751 84.0293 230.926 85.9402C234.1 87.8521 239.814 90.7409 243.622 92.3593C249.531 94.8709 251.058 95.1425 254.041 94.2148C255.964 93.6161 262.876 92.8054 269.402 92.4115C280.811 91.724 281.192 91.6248 279.327 89.8392C274.425 85.1451 262.824 78.4418 252.513 74.3442C232.58 66.4237 218.074 63.9497 162.985 59.0769C146.608 57.6288 131.061 56.234 128.435 55.9791C124.608 55.6072 123.132 55.9676 120.999 57.7939ZM110.224 61.273C106.776 61.9866 102.957 62.3251 101.738 62.0263C99.1545 61.391 98.6843 62.674 97.6051 73.2827L96.8988 80.2221L99.9046 80.8176C101.557 81.1446 105.067 81.7067 107.704 82.0672L112.496 82.7222L114.75 71.4794C115.989 65.2954 116.889 60.177 116.747 60.106C116.607 60.0339 113.672 60.5594 110.224 61.273ZM183.011 65.3967C179.556 67.8175 180.177 74.0245 184.094 76.2133C186.7 77.6697 187.146 77.6237 189.84 75.6209C193.528 72.8794 194.128 68.7536 191.258 65.8836C188.673 63.2988 186.213 63.1546 183.011 65.3967ZM182.815 67.9491C181.236 70.8985 182.483 74.0496 185.531 74.8143C188.641 75.5948 191.194 73.6964 191.194 70.6028C191.194 65.8658 184.982 63.8996 182.815 67.9491ZM184.613 67.5249C183.217 68.9218 183.889 72.9128 185.634 73.5825C188.24 74.5824 190.952 71.5045 189.497 69.1955C188.252 67.2178 185.77 66.3684 184.613 67.5249ZM193.284 78.6016C191.272 79.7854 188.577 81.3943 187.294 82.18L184.96 83.6061L191.913 96.9145C195.737 104.234 202.116 116.073 206.089 123.222C210.064 130.37 216.606 142.477 220.629 150.125C224.652 157.772 228.179 164.029 228.466 164.029C228.754 164.029 232.007 162.34 235.696 160.278L242.405 156.526L235.435 143.3C231.602 136.026 227.663 128.898 226.683 127.462C225.703 126.025 222.539 120.148 219.654 114.402C212.238 99.6361 199.226 76.9969 197.985 76.7002C197.41 76.5633 195.295 77.419 193.284 78.6016ZM474.328 77.5924C471.046 79.2703 470.009 84.6258 472.966 84.6258C474.018 84.6258 475.342 83.5675 475.909 82.2751C476.476 80.9827 478.025 79.7707 479.352 79.5827C480.677 79.3946 481.581 78.6894 481.359 78.0155C480.778 76.2488 477.357 76.043 474.328 77.5924ZM202.687 79.2097C202.687 79.7687 204.555 80.4049 206.838 80.6233C211.608 81.0778 211.119 79.9682 206.082 78.9067C204.084 78.4857 202.687 78.61 202.687 79.2097ZM96.1194 83.3658C96.1194 83.8224 103.29 85.4763 112.052 87.0413C137.51 91.5892 168.93 100.255 188.06 108.005C192.944 109.983 197.134 111.412 197.37 111.18C198.419 110.148 193.688 106.541 189.26 104.998C160.332 94.92 138.393 89.0181 115.335 85.1116C98.9675 82.3388 96.1194 82.0797 96.1194 83.3658ZM204.776 83.0733C204.776 83.369 208.561 90.5393 213.187 99.0061C217.813 107.474 222.162 115.54 222.851 116.929C224.475 120.205 246.34 132.049 245.046 128.953C244.583 127.845 244.005 124.589 243.761 121.715C243.111 114.067 245.631 109.823 252.428 107.121C255.365 105.954 259.361 103.711 261.309 102.137L264.851 99.2757L261.716 99.2589C259.993 99.2485 256.885 98.77 254.811 98.1933C251.928 97.393 250.155 97.5163 247.27 98.7219C245.196 99.5881 241.957 100.293 240.071 100.288C235.093 100.273 226.658 94.9942 220.966 88.3316C216.097 82.6334 215.921 82.5363 210.396 82.5363C207.304 82.5363 204.776 82.7776 204.776 83.0733ZM221.007 86.1481C227.86 95.1342 237.973 100.319 244.324 98.1045C248.625 96.6052 248.473 95.6639 243.694 94.2231C241.54 93.5733 236.25 90.9457 231.94 88.3849C227.631 85.8231 222.734 83.3888 221.059 82.9751L218.013 82.2228L221.007 86.1481ZM22.5149 87.6431C23.0613 88.153 24.6828 88.8781 26.1194 89.2531L28.7313 89.9364L26.1194 88.363C23.2087 86.6088 20.9196 86.1512 22.5149 87.6431ZM467.537 88.0213C467.286 88.7401 465.42 93.9672 463.391 99.6382C461.362 105.309 459.701 110.129 459.701 110.347C459.701 110.567 463.895 110.745 469.021 110.745H478.341L479.059 104.04C479.613 98.8745 479.363 90.1433 478.572 86.9766C478.537 86.8324 476.142 86.7154 473.251 86.7154C469.986 86.7154 467.82 87.2106 467.537 88.0213ZM22.4669 90.8161C29.0625 93.7551 32.4372 94.2827 26.6418 91.4691C23.7687 90.0743 20.7127 88.9376 19.8507 88.9428C18.9888 88.9481 20.1663 89.7912 22.4669 90.8161ZM20.0743 95.4675C19.4746 97.2624 15.9349 105.664 12.2072 114.141C5.51328 129.362 5.46209 129.551 7.99672 129.551C10.1155 129.551 11.0276 128.503 13.2279 123.544C17.4843 113.949 25.0746 95.0966 25.0746 94.1207C25.0746 93.6297 24.1949 92.9976 23.1198 92.7166C21.6509 92.3321 20.8934 93.0164 20.0743 95.4675ZM274.467 94.0455C267.683 94.6484 266.418 95.8091 266.512 101.342C266.621 107.815 270.047 126.285 271.388 127.626C273.182 129.42 273.106 125.996 271.119 115.616C267.523 96.8215 267.049 97.1631 296.74 97.1631C312.881 97.1631 319.64 97.5194 320.537 98.4169C322.466 100.346 322.233 122.298 320.257 124.911C317.968 127.937 318.294 128.506 322.313 128.506H325.97V139.477V150.447H330.672H335.373V139.477C335.373 129.359 335.529 128.506 337.377 128.506C342.468 128.506 342.687 127.952 342.682 115.074C342.678 102.172 341.318 97.696 336.636 95.1906C334.504 94.0487 284.732 93.1324 274.467 94.0455ZM257.276 94.7434C255.983 95.0046 254.925 95.6806 254.925 96.2458C254.925 97.5936 265.324 96.9636 265.648 95.596C265.915 94.4666 261.078 93.9734 257.276 94.7434ZM271.698 100.752C270.728 101.921 270.919 104.934 272.565 114.457C273.725 121.171 274.816 126.797 274.987 126.961C275.588 127.533 279.567 127.701 289.664 127.582L299.851 127.462V113.357V99.2527H286.396C275.984 99.2527 272.661 99.5912 271.698 100.752ZM302.316 108.656C302.316 114.115 302.493 116.348 302.708 113.618C302.923 110.888 302.923 106.423 302.708 103.693C302.493 100.964 302.316 103.197 302.316 108.656ZM304.864 112.008C304.246 128.813 304.168 128.571 310.063 127.975C312.681 127.71 315.674 127.222 316.716 126.892C319.551 125.992 320.914 119.694 320.55 109.178L320.224 99.7751L312.78 99.471L305.335 99.166L304.864 112.008ZM347.563 102.039C347.179 102.421 346.866 103.597 346.866 104.651C346.866 106.439 348.148 106.566 366.194 106.566H385.522V103.954V101.342H366.891C356.643 101.342 347.945 101.656 347.563 102.039ZM261.724 103.42C261.358 104.012 261.777 104.187 262.707 103.831C264.516 103.136 264.848 102.387 263.345 102.387C262.804 102.387 262.075 102.852 261.724 103.42ZM406.157 103.088C404.863 103.439 404.328 104.643 404.328 107.203V110.82L414.515 110.522L424.701 110.223V106.566V102.909L416.343 102.75C411.746 102.663 407.162 102.814 406.157 103.088ZM427.313 105.521C427.313 107.245 427.23 109.009 427.126 109.439C427.024 109.87 427.729 110.374 428.694 110.56C430.104 110.832 430.448 110.065 430.448 106.642C430.448 103.556 430.017 102.387 428.881 102.387C427.836 102.387 427.313 103.432 427.313 105.521ZM432.537 106.604V110.82L442.724 110.522C452.462 110.236 452.925 110.117 453.252 107.815C453.885 103.35 451.855 102.387 441.813 102.387H432.537V106.604ZM260.905 106.247C258.681 106.825 252.655 118.42 250.214 126.818C249.251 130.13 248.624 132.967 248.821 133.121C250.322 134.297 264.499 143.133 264.883 143.133C265.153 143.133 265.373 140.1 265.373 136.394C265.373 131.3 265.782 129.427 267.047 128.719C268.577 127.862 268.565 126.834 266.893 116.651C265.821 110.118 264.591 105.571 263.915 105.643C263.28 105.709 261.925 105.981 260.905 106.247ZM347.313 108.569C347.066 108.808 346.866 113.112 346.866 118.132V127.26L352.178 127.621C357.677 127.997 358.909 127.359 359.562 123.805C359.889 122.027 360.901 121.669 366.344 121.407C370.993 121.184 373.176 121.534 374.328 122.684C375.72 124.078 376.066 124.083 377.188 122.731C377.89 121.885 380.053 121.193 381.993 121.193H385.522V114.58V107.966L366.641 108.05C356.256 108.096 347.558 108.33 347.313 108.569ZM250.224 109.862C249.075 110.49 247.547 111.742 246.828 112.641C245.435 114.388 245.21 125.107 246.473 129.551C247.193 132.084 247.237 132.058 247.926 128.686C248.317 126.774 250.251 121.484 252.224 116.932C255.252 109.945 255.539 108.661 254.062 108.687C253.1 108.705 251.373 109.233 250.224 109.862ZM397.015 119.626C397.015 128.152 396.784 127.89 403.954 127.517C408.541 127.279 408.571 127.306 417.176 139.441C418.99 141.999 419.439 142.089 430.497 142.089H441.94V126.939V111.79H419.478H397.015V119.626ZM444.03 126.918V142.089L462.575 141.854L481.119 141.62L463.619 141.307L446.119 140.994V127.437V113.88H465.97H485.821V127.388C485.821 140.556 485.761 140.911 483.47 141.394C482.178 141.666 482.765 141.817 484.776 141.728L488.433 141.566V126.939V112.312L466.231 112.03L444.03 111.748V126.918ZM448.209 116.206C448.209 116.65 456.32 116.973 466.231 116.924C479.187 116.859 483.373 116.556 481.119 115.846C477.462 114.692 448.209 115.012 448.209 116.206ZM493.134 129.96V141.86L496.791 142.287L500.448 142.713V130.386V118.059H496.791H493.134V129.96ZM302.224 123.283C302.224 125.868 302.428 126.927 302.678 125.633C302.927 124.34 302.927 122.225 302.678 120.932C302.428 119.638 302.224 120.697 302.224 123.283ZM447.633 120.062C448.482 121.434 483.731 121.554 483.731 120.184C483.731 119.481 477.327 119.103 465.386 119.103C454.53 119.103 447.282 119.494 447.633 120.062ZM226.727 124.347C227.37 125.551 228.69 126.837 229.657 127.207C230.626 127.576 234.615 129.719 238.523 131.97C242.431 134.22 245.907 135.783 246.246 135.444C247.536 134.154 243.756 131.299 234.812 126.808C227.061 122.915 225.746 122.515 226.727 124.347ZM448.209 123.283C448.209 124.621 455.599 125.349 469.304 125.361C481.575 125.371 486.198 124.453 481.995 122.84C479.601 121.921 448.209 122.333 448.209 123.283ZM360.636 125.508C360.935 127.495 361.643 127.733 367.239 127.733C372.835 127.733 373.543 127.495 373.842 125.508C374.153 123.427 373.725 123.283 367.239 123.283C360.753 123.283 360.324 123.427 360.636 125.508ZM378.209 125.372C378.209 127.444 378.807 127.625 386.045 127.745C390.767 127.823 391.791 127.401 391.791 125.372C391.791 123.497 391.094 123.283 385 123.283C378.906 123.283 378.209 123.497 378.209 125.372ZM448.209 127.462C448.209 128.117 454.826 128.506 465.97 128.506C477.115 128.506 483.731 128.117 483.731 127.462C483.731 126.807 477.115 126.417 465.97 126.417C454.826 126.417 448.209 126.807 448.209 127.462ZM234.601 138.693C241.057 150.687 241.731 151.387 243.774 148.217C244.651 146.857 245.669 144.093 246.037 142.075C246.705 138.415 246.685 138.392 238.927 133.978C234.647 131.544 230.816 129.551 230.414 129.551C230.011 129.551 231.895 133.666 234.601 138.693ZM267.478 131.38C267.49 132.651 267.742 132.818 268.307 131.93C268.874 131.038 273.981 130.556 285.268 130.334L301.418 130.015L284.44 129.783C268.874 129.57 267.464 129.703 267.478 131.38ZM305.075 130.225C313.829 130.997 323.885 131.056 323.883 130.335C323.882 129.904 318.827 129.631 312.649 129.727C306.471 129.824 303.063 130.047 305.075 130.225ZM336.94 130.596C336.585 131.171 336.765 131.641 337.339 131.641C337.914 131.641 338.675 131.171 339.03 130.596C339.385 130.021 339.205 129.551 338.631 129.551C338.056 129.551 337.296 130.021 336.94 130.596ZM448.209 130.596C448.209 131.251 454.826 131.641 465.97 131.641C477.115 131.641 483.731 131.251 483.731 130.596C483.731 129.941 477.115 129.551 465.97 129.551C454.826 129.551 448.209 129.941 448.209 130.596ZM3.73089 133.282C2.48866 134.525 2.08955 137.151 2.08955 144.09C2.08955 156.71 2.7394 157.265 16.45 156.349C26.5854 155.672 40.9688 152.773 46.341 150.326C49.8724 148.717 50.9078 144.969 48.7378 141.657C44.5712 135.297 8.4397 128.574 3.73089 133.282ZM339.552 133.121C339.552 134.03 340.296 134.775 341.206 134.775C343.051 134.775 342.73 132.526 340.793 131.88C340.11 131.652 339.552 132.211 339.552 133.121ZM347.563 132.338C346.142 133.757 346.941 134.775 349.478 134.775C351.103 134.775 352.09 134.183 352.09 133.208C352.09 131.641 348.877 131.023 347.563 132.338ZM356.878 132.546C356.427 133.274 356.342 134.151 356.687 134.496C357.622 135.431 358.641 134.056 358.136 132.541C357.782 131.48 357.536 131.48 356.878 132.546ZM360.448 133.208C360.448 134.369 361.667 134.775 365.149 134.775C368.631 134.775 369.851 134.369 369.851 133.208C369.851 132.047 368.631 131.641 365.149 131.641C361.667 131.641 360.448 132.047 360.448 133.208ZM378.209 133.15C378.209 134.407 379.413 134.775 383.52 134.775C390.423 134.775 390.061 132.299 383.09 131.844C379.235 131.593 378.209 131.867 378.209 133.15ZM389.784 133.295C389.834 134.512 390.082 134.759 390.415 133.927C390.717 133.172 390.679 132.271 390.333 131.924C389.986 131.577 389.739 132.193 389.784 133.295ZM393.963 133.295C394.013 134.512 394.261 134.759 394.594 133.927C394.896 133.172 394.858 132.271 394.512 131.924C394.165 131.577 393.918 132.193 393.963 133.295ZM397.015 133.145C397.015 134.356 398.112 134.775 401.281 134.775C406.725 134.775 406.364 132.304 400.852 131.839C397.933 131.593 397.015 131.905 397.015 133.145ZM5.9688 133.334C4.41 134.892 5.2897 138.916 7.4409 140.067C9.27761 141.05 10.0361 140.874 11.8666 139.044C13.6082 137.302 13.8349 136.452 12.9396 135.022C11.7558 133.132 7.2591 132.043 5.9688 133.334ZM271.381 133.377C272.099 133.668 273.275 133.668 273.993 133.377C274.711 133.088 274.123 132.851 272.687 132.851C271.25 132.851 270.663 133.088 271.381 133.377ZM277.127 133.405C278.132 133.669 279.778 133.669 280.784 133.405C281.789 133.143 280.966 132.928 278.955 132.928C276.944 132.928 276.122 133.143 277.127 133.405ZM286.53 133.434C288.11 133.673 290.696 133.673 292.276 133.434C293.856 133.194 292.563 132.999 289.403 132.999C286.243 132.999 284.95 133.194 286.53 133.434ZM306.969 133.399C307.722 133.701 308.624 133.663 308.971 133.317C309.317 132.97 308.701 132.723 307.6 132.768C306.383 132.818 306.135 133.066 306.969 133.399ZM314.753 133.436C316.341 133.675 318.692 133.669 319.977 133.421C321.262 133.173 319.963 132.977 317.09 132.984C314.216 132.993 313.165 133.195 314.753 133.436ZM343.731 133.73C343.731 134.305 344.201 134.775 344.776 134.775C345.351 134.775 345.821 134.305 345.821 133.73C345.821 133.156 345.351 132.686 344.776 132.686C344.201 132.686 343.731 133.156 343.731 133.73ZM406.66 135.82C406.66 137.831 406.876 138.654 407.138 137.648C407.401 136.642 407.401 134.998 407.138 133.992C406.876 132.985 406.66 133.809 406.66 135.82ZM7.30507 135.307C6.3188 136.496 6.25612 137.27 7.07836 138.092C8.66328 139.677 11.7193 138.289 11.3087 136.171C10.8395 133.751 8.93701 133.341 7.30507 135.307ZM49.701 135.738C47.8675 137.763 47.8518 138.038 49.4649 139.82C51.5012 142.07 51.754 147.794 49.8881 149.397C49.1703 150.013 47.7034 151.125 46.6294 151.866C44.8982 153.06 44.7613 154.064 45.4289 160.711L46.1822 168.208H51.0676C53.7548 168.208 56.933 168.894 58.1293 169.732C60.0997 171.112 60.6367 171.013 63.7825 168.693C67.8154 165.717 68.9166 164.216 68.9395 161.666C68.9531 160.108 68.3252 159.926 64.8503 160.482C61.389 161.034 60.3452 160.738 58.193 158.586C56.139 156.531 55.3993 154.212 54.4036 146.71C53.7234 141.583 52.8291 136.527 52.4164 135.477C51.7039 133.667 51.5639 133.68 49.701 135.738ZM448.209 134.775C448.209 135.43 454.826 135.82 465.97 135.82C477.115 135.82 483.731 135.43 483.731 134.775C483.731 134.12 477.115 133.73 465.97 133.73C454.826 133.73 448.209 134.12 448.209 134.775ZM248.657 136.314C248.657 137.135 252.065 140.064 256.231 142.821C265.48 148.94 265.373 148.892 265.373 146.981C265.373 146.13 261.612 143.044 257.015 140.125C251.542 136.65 248.657 135.335 248.657 136.314ZM390.053 143.133C390.053 147.443 390.237 149.207 390.462 147.051C390.688 144.897 390.688 141.371 390.462 139.215C390.237 137.061 390.053 138.824 390.053 143.133ZM409.552 138.147C409.552 140.051 411.405 141.63 412.433 140.601C412.791 140.242 412.29 139.155 411.318 138.183C409.69 136.554 409.552 136.551 409.552 138.147ZM269.625 141.766C269.586 144.174 270.022 146.435 270.597 146.79C271.866 147.575 271.866 142.431 270.597 139.477C269.899 137.852 269.683 138.362 269.625 141.766ZM272.698 140.26C272.704 141.554 273.001 144.374 273.357 146.529C273.956 150.153 274.268 150.447 277.525 150.447C280.851 150.447 281.045 150.245 281.045 146.79C281.045 144.214 280.576 143.133 279.456 143.133C278.581 143.133 277.331 141.958 276.676 140.521C275.194 137.27 272.682 137.105 272.698 140.26ZM277.926 140.028C279.136 142.288 281.045 141.913 281.045 139.415C281.045 138.586 280.088 137.909 278.919 137.909C277.106 137.909 276.96 138.222 277.926 140.028ZM284.641 138.856C284.963 139.376 286.166 139.557 287.314 139.256C290.19 138.505 289.931 137.909 286.729 137.909C285.259 137.909 284.319 138.336 284.641 138.856ZM298.806 144.178V150.447H303.396C308.629 150.447 309.254 149.601 309.254 142.525V137.909H304.03H298.806V144.178ZM312.388 144.178V150.447H317.09H321.791V144.178V137.909H317.09H312.388V144.178ZM456.828 138.688C461.857 138.879 470.084 138.879 475.112 138.688C480.14 138.496 476.026 138.339 465.97 138.339C455.914 138.339 451.801 138.496 456.828 138.688ZM287.478 140.649C285.049 141.709 284.176 142.662 284.605 143.783C284.946 144.669 285.224 146.531 285.224 147.92C285.224 150.218 285.649 150.447 289.925 150.447H294.627V144.7C294.627 138.266 293.892 137.849 287.478 140.649ZM339.552 144.614C339.552 148.853 339.943 150.447 340.983 150.447C342.878 150.447 342.762 139.855 340.858 139.217C339.917 138.902 339.552 140.41 339.552 144.614ZM343.731 144.7C343.731 147.861 344.201 150.447 344.776 150.447C345.351 150.447 345.821 147.861 345.821 144.7C345.821 141.54 345.351 138.954 344.776 138.954C344.201 138.954 343.731 141.54 343.731 144.7ZM346.866 144.7C346.866 150.133 347.008 150.447 349.478 150.447C351.947 150.447 352.09 150.133 352.09 144.7C352.09 139.268 351.947 138.954 349.478 138.954C347.008 138.954 346.866 139.268 346.866 144.7ZM356.269 144.7C356.269 147.861 356.739 150.447 357.313 150.447C357.888 150.447 358.358 147.861 358.358 144.7C358.358 141.54 357.888 138.954 357.313 138.954C356.739 138.954 356.269 141.54 356.269 144.7ZM360.448 144.7V150.447H365.149H369.851V144.7V138.954H365.149H360.448V144.7ZM378.209 144.643V150.447H382.863C387.329 150.447 387.544 150.303 388.183 146.894C389.366 140.591 388.666 139.512 383.162 139.158L378.209 138.839V144.643ZM394.204 144.7C394.21 148.148 394.405 149.432 394.638 147.555C394.87 145.677 394.866 142.856 394.628 141.286C394.388 139.716 394.198 141.253 394.204 144.7ZM397.015 144.7C397.015 150.133 397.157 150.447 399.627 150.447C401.981 150.447 402.239 150.031 402.239 146.235C402.239 143.455 402.772 141.819 403.806 141.422C406.772 140.283 405.366 138.954 401.194 138.954H397.015V144.7ZM38.0581 140.798C36.1116 142.131 35.6164 144.952 36.9987 146.842C38.9482 149.509 43.8806 148.109 43.8806 144.89C43.8806 141.057 40.8204 138.907 38.0581 140.798ZM249.678 145.397C249.65 151.069 246.235 158.814 243.441 159.545C242.288 159.847 241.343 160.588 241.343 161.193C241.343 161.798 245.581 170.349 250.761 180.195L260.179 198.097L265.898 195.429L271.617 192.76L271.629 174.738L271.642 156.715H267.985C264.558 156.715 264.327 156.502 264.319 153.32C264.312 150.313 263.574 149.446 257.882 145.745C254.347 143.447 251.06 141.409 250.578 141.218C250.095 141.026 249.691 142.907 249.678 145.397ZM37.6119 144.066C37.6119 146.595 40.226 147.631 41.8046 145.729C43.3394 143.88 42.2737 142.089 39.6399 142.089C38.3464 142.089 37.6119 142.805 37.6119 144.066ZM247.264 142.785C246.881 143.168 246.567 144.28 246.567 145.256C246.567 146.232 245.649 148.198 244.526 149.626C242.947 151.633 242.683 152.908 243.358 155.252L244.23 158.283L245.804 154.626C247.386 150.95 249.222 142.089 248.401 142.089C248.158 142.089 247.646 142.402 247.264 142.785ZM403.98 143.83C402.879 144.93 403.17 150.447 404.328 150.447C404.903 150.447 405.373 148.801 405.373 146.79C405.373 143.032 405.183 142.628 403.98 143.83ZM413.786 143.693C413.815 144.247 418.742 151.518 424.734 159.85C430.726 168.182 438.071 178.403 441.058 182.563C444.044 186.723 446.678 189.938 446.91 189.706C447.49 189.125 445.505 186.157 430.089 164.551C416.433 145.412 413.69 141.9 413.786 143.693ZM421.111 145.346C421.763 146.564 424.299 150.207 426.748 153.443C429.198 156.68 435.081 164.734 439.824 171.342L448.446 183.357L473.663 183.88L498.881 184.402L499.183 194.838C499.349 200.578 499.937 205.727 500.488 206.279C501.041 206.831 501.493 209.304 501.493 211.775V216.268H469.627H437.761V211.563C437.761 207.34 436.977 205.817 430.097 196.675C425.881 191.074 421.533 185.081 420.435 183.357C416.595 177.328 402.007 158.275 400.623 157.481C399.855 157.04 387.093 156.805 372.262 156.959L345.298 157.238L345.024 194.589L344.75 231.939H425.089H505.428L506.058 229.589C506.404 228.295 506.691 219.245 506.695 209.477C506.708 183.451 503.628 165.135 496.815 150.708L493.238 143.133H456.582H419.927L421.111 145.346ZM495.226 143.99C495.227 144.381 496.58 147.286 498.232 150.447C505.287 163.944 508.189 181.127 508.242 209.738C508.285 232.759 508.576 234.145 512.461 229.852C514.201 227.929 514.3 226.048 513.724 206.083C512.494 163.489 510.559 151.682 504.038 146.963C501.125 144.856 495.223 142.865 495.226 143.99ZM406.622 146.79C406.643 148.514 406.877 149.093 407.142 148.076C407.407 147.06 407.39 145.649 407.103 144.942C406.817 144.234 406.601 145.066 406.622 146.79ZM409.601 148.461C409.551 151.257 412.193 155.331 428.405 177.447C433.315 184.145 439.544 192.653 442.249 196.352C446.454 202.106 447.164 202.693 447.164 200.415C447.164 197.59 446.21 196.022 435.604 181.407C431.906 176.311 425.825 167.79 422.09 162.471C418.354 157.151 414.028 151.211 412.474 149.271L409.65 145.745L409.601 148.461ZM6.43896 148.23C5.67 148.718 5.19985 150.238 5.39418 151.61C5.83926 154.761 10.2346 155.671 12.1769 153.014C14.8087 149.416 10.3851 145.729 6.43896 148.23ZM434.41 148.45C433.092 148.788 432.159 149.69 432.336 150.455C432.69 151.996 446.44 172.89 449.003 175.783C450.453 177.421 453.041 177.611 473.84 177.611C501.323 177.611 500.53 177.924 498.462 167.868C496.891 160.234 493.64 152.273 491.185 150.052C489.733 148.736 484.888 148.408 463.117 148.148C448.645 147.976 435.727 148.112 434.41 148.45ZM7.44925 149.76C6.00224 151.504 7.73239 154.045 9.81985 153.244C10.7403 152.89 11.4925 151.932 11.4925 151.113C11.4925 149.094 8.76149 148.18 7.44925 149.76ZM433.757 150.284C433.948 150.77 436.22 154.28 438.806 158.087L443.507 165.008L469.888 165.04C490.326 165.066 496.263 164.779 496.246 163.768C496.211 161.794 492.2 153.346 490.303 151.249C488.785 149.571 486.097 149.402 461.02 149.402C445.833 149.402 433.564 149.799 433.757 150.284ZM266.418 153.672C266.418 155.62 268.183 155.671 337.017 155.671C403.692 155.671 407.596 155.569 407.263 153.842C406.932 152.125 402.658 152.003 336.664 151.844C268.118 151.677 266.418 151.721 266.418 153.672ZM35 155.249C32.1269 156.063 26.133 157.031 21.6791 157.4C17.2252 157.769 13.5821 158.268 13.5821 158.51C13.5821 158.753 14.8975 160.916 16.5054 163.318C18.1143 165.72 21.0345 170.389 22.9955 173.693L26.5613 179.7H32.06C37.0028 179.7 37.7081 179.41 39.0454 176.825C39.8634 175.243 41.5204 173.055 42.7292 171.962C45.2273 169.7 45.4645 166.522 43.7009 158.884C42.3594 153.072 42.489 153.126 35 155.249ZM274.446 157.394C274.053 157.787 273.731 174.733 273.731 195.05V231.993L290.187 231.704L306.642 231.417L306.928 214.648L307.214 197.88H316.07H324.925L324.957 215.171C324.979 227.008 325.313 231.907 326.016 230.701C326.649 229.616 326.938 215.206 326.767 193.089L326.493 157.238L300.827 156.959C286.71 156.805 274.839 157.002 274.446 157.394ZM407.147 157.426C406.474 158.514 410.013 162.984 411.548 162.984C413.387 162.984 412.866 161.427 410.184 158.908C408.809 157.616 407.442 156.948 407.147 157.426ZM6.26866 158.365C6.26866 158.852 19.7306 180.221 21.6446 182.772C21.8348 183.026 22.7416 182.482 23.659 181.563C25.1885 180.034 25.0987 179.593 22.5902 176.303C21.0836 174.328 19.8507 172.413 19.8507 172.047C19.8507 171.541 13.3073 160.696 11.9898 159.02C11.4675 158.355 6.26866 157.759 6.26866 158.365ZM328.06 194.85C328.06 218.88 328.427 231.939 329.104 231.939C329.781 231.939 330.149 218.88 330.149 194.85C330.149 170.82 329.781 157.76 329.104 157.76C328.427 157.76 328.06 170.82 328.06 194.85ZM341.642 194.85C341.642 218.88 342.01 231.939 342.687 231.939C343.364 231.939 343.731 218.88 343.731 194.85C343.731 170.82 343.364 157.76 342.687 157.76C342.01 157.76 341.642 170.82 341.642 194.85ZM235.723 162.24C234.009 163.494 234.159 164.076 237.964 170.86C240.209 174.86 245.034 183.892 248.689 190.932C252.345 197.971 255.599 203.73 255.923 203.73C256.247 203.73 257.11 202.773 257.84 201.604C259.018 199.718 258.018 197.303 248.977 180.186C243.373 169.576 238.513 160.894 238.176 160.894C237.839 160.894 236.736 161.499 235.723 162.24ZM334.08 163.723C335.379 163.972 337.26 163.963 338.259 163.702C339.258 163.441 338.194 163.236 335.896 163.247C333.597 163.259 332.78 163.473 334.08 163.723ZM350 182.312V200.596H375.597H401.194V182.312V164.029H375.597H350V182.312ZM352.09 181.77V198.506H376.18H400.27L399.949 182.051L399.627 165.596L375.858 165.315L352.09 165.034V181.77ZM413.219 166.135C413.581 166.719 414.313 166.927 414.848 166.596C416.297 165.7 416.028 165.074 414.192 165.074C413.297 165.074 412.859 165.551 413.219 166.135ZM334.08 167.902C335.379 168.151 337.26 168.142 338.259 167.881C339.258 167.62 338.194 167.415 335.896 167.426C333.597 167.438 332.78 167.652 334.08 167.902ZM355.017 182.332L355.331 197.506L375.913 197.222C396.362 196.941 396.495 196.925 396.827 194.589C397.01 193.295 396.658 192.238 396.043 192.238C395.428 192.238 394.925 193.178 394.925 194.327C394.925 196.342 394.229 196.417 375.597 196.417H356.269V193.828V191.238L376.381 190.955C396.344 190.673 396.495 190.653 396.827 188.32C397.01 187.026 396.658 185.969 396.043 185.969C395.428 185.969 394.925 186.909 394.925 188.059C394.925 190.064 394.234 190.147 377.948 190.134C358.917 190.118 356.269 189.725 356.269 186.915C356.269 185.095 357.564 184.951 376.381 184.686L396.493 184.402L396.68 178.917C396.783 175.901 396.431 173.432 395.896 173.432C395.362 173.432 394.925 174.137 394.925 174.999C394.925 176.335 392.081 176.566 375.597 176.566C357.036 176.566 356.269 176.485 356.269 174.5C356.269 172.521 357.134 172.42 376.381 172.149C396.344 171.867 396.495 171.847 396.827 169.514C397.01 168.22 396.658 167.163 396.043 167.163C395.428 167.163 394.925 168.103 394.925 169.253C394.925 171.26 394.229 171.342 377.25 171.342C358.776 171.342 356.269 171.016 356.269 168.619C356.269 167.818 355.917 167.162 355.485 167.161C355.054 167.161 354.844 173.988 355.017 182.332ZM445.597 168.208C445.999 168.859 455.882 169.253 471.778 169.253C488.105 169.253 497.313 168.876 497.313 168.208C497.313 167.539 487.89 167.163 471.132 167.163C453.945 167.163 445.173 167.522 445.597 168.208ZM414.776 169.091C414.776 170.377 418.863 173.872 419.556 173.179C420.444 172.291 417.598 168.208 416.091 168.208C415.369 168.208 414.776 168.605 414.776 169.091ZM47.4516 170.265C45.126 171.206 39.7015 177.134 39.7015 178.736C39.7015 179.267 41.4651 179.716 43.6194 179.735C45.7748 179.754 50.1231 180.716 53.2836 181.874C63.2622 185.529 62.6866 185.53 62.6866 181.86C62.6866 173.251 54.8372 167.277 47.4516 170.265ZM448.209 172.225C448.209 172.711 449.079 173.896 450.143 174.858C451.847 176.401 454.735 176.576 474.434 176.326C496.726 176.045 496.792 176.037 497.125 173.693L497.459 171.342H472.834C459.29 171.342 448.209 171.739 448.209 172.225ZM334.59 173.107C335.595 173.37 337.241 173.37 338.246 173.107C339.251 172.845 338.429 172.629 336.418 172.629C334.407 172.629 333.584 172.845 334.59 173.107ZM420.849 176.235C421.603 176.537 422.504 176.499 422.851 176.152C423.198 175.806 422.582 175.559 421.48 175.604C420.263 175.654 420.016 175.902 420.849 176.235ZM356.269 180.745C356.269 182.76 356.966 182.835 375.597 182.835C394.229 182.835 394.925 182.76 394.925 180.745C394.925 178.731 394.229 178.656 375.597 178.656C356.966 178.656 356.269 178.731 356.269 180.745ZM422.09 179.539C422.09 180.804 425.681 183.88 427.159 183.88C428.002 183.88 427.851 183.033 426.695 181.268C425.065 178.781 422.09 177.663 422.09 179.539ZM34.7869 181.468C29.2924 182.202 16.1616 198.504 14.234 206.985L13.6124 209.718L20.6667 209.213C37.4124 208.015 58.6976 217.847 75.4401 234.515C86.0645 245.091 92.0092 248.227 103.833 249.495C111.751 250.343 115.357 249.629 118.426 246.605C118.915 246.123 114.919 243.458 109.546 240.684C96.7369 234.07 86.0603 224.017 79.0122 211.936C76.2122 207.135 72.4511 200.698 70.654 197.631C64.0887 186.42 48.9122 179.581 34.7869 181.468ZM24.173 183.479C22.8472 184.408 20.8496 187.295 19.7348 189.895C17.617 194.836 17.7246 197.255 19.8831 193.221C20.5695 191.94 23.0185 188.843 25.3254 186.341C29.5139 181.796 28.8682 180.19 24.173 183.479ZM334.08 182.529C335.379 182.778 337.26 182.769 338.259 182.508C339.258 182.247 338.194 182.042 335.896 182.053C333.597 182.065 332.78 182.279 334.08 182.529ZM33.9082 185.4C30.4176 188.889 30.497 193.51 34.0963 196.341C35.6102 197.532 37.9609 198.506 39.3202 198.506C45.7121 198.506 48.4264 189.098 43.2172 185.001C39.6022 182.157 37.0404 182.266 33.9082 185.4ZM34.4745 186.495C31.6473 189.903 33.413 195.622 37.6339 196.725C40.3816 197.444 44.9254 193.724 44.9254 190.756C44.9254 185.915 37.4772 182.877 34.4745 186.495ZM428.163 186.683C428.916 186.985 429.818 186.947 430.165 186.6C430.511 186.253 429.895 186.007 428.794 186.052C427.577 186.102 427.329 186.349 428.163 186.683ZM463.685 186.683C464.438 186.985 465.34 186.947 465.687 186.6C466.034 186.253 465.417 186.007 464.316 186.052C463.099 186.102 462.851 186.349 463.685 186.683ZM494.179 186.38C494.179 186.605 494.884 187.061 495.746 187.392C496.608 187.722 497.313 187.537 497.313 186.981C497.313 186.425 496.608 185.969 495.746 185.969C494.884 185.969 494.179 186.154 494.179 186.38ZM332.239 187.414C332.239 188.345 336.091 188.717 338.002 187.97C339.58 187.353 339.141 187.143 336.157 187.087C334.002 187.047 332.239 187.195 332.239 187.414ZM451.343 189.626C451.343 190.81 452.62 191.193 456.567 191.193C460.514 191.193 461.791 190.81 461.791 189.626C461.791 188.442 460.514 188.059 456.567 188.059C452.62 188.059 451.343 188.442 451.343 189.626ZM466.227 189.365C466.501 190.191 469.216 190.783 473.628 190.98C479.351 191.234 480.597 191 480.597 189.674C480.597 188.369 479.175 188.059 473.197 188.059C467.742 188.059 465.91 188.402 466.227 189.365ZM484.776 189.626C484.776 190.81 486.053 191.193 490 191.193C493.947 191.193 495.224 190.81 495.224 189.626C495.224 188.442 493.947 188.059 490 188.059C486.053 188.059 484.776 188.442 484.776 189.626ZM429.403 189.986C429.403 191.251 432.995 194.327 434.472 194.327C435.315 194.327 435.165 193.481 434.008 191.715C432.378 189.229 429.403 188.111 429.403 189.986ZM334.08 192.976C335.379 193.226 337.26 193.217 338.259 192.956C339.258 192.694 338.194 192.49 335.896 192.501C333.597 192.513 332.78 192.727 334.08 192.976ZM451.343 199.943C451.343 205.282 451.491 205.588 454.322 206.154C455.961 206.482 458.312 206.486 459.546 206.164C461.492 205.655 461.791 204.827 461.791 199.951V194.327H456.567H451.343V199.943ZM466.179 200.086C466.351 203.253 466.845 205.839 467.276 205.832C467.708 205.825 470.881 205.82 474.328 205.82H480.597V200.074V194.327H473.231H465.866L466.179 200.086ZM484.776 199.899C484.776 202.964 484.978 205.674 485.224 205.92C485.472 206.167 487.823 206.198 490.448 205.989L495.224 205.61V199.968V194.327H490H484.776V199.899ZM265.843 196.842C255.825 201.205 253.137 215.359 260.916 222.781C263.588 225.33 268.347 227.76 270.665 227.76C273.047 227.76 271.31 224.855 267.978 223.266C263.623 221.189 260.159 215.961 260.153 211.46C260.148 207.184 264.053 201.488 268.265 199.624C270.123 198.802 271.642 197.509 271.642 196.751C271.642 195.029 269.942 195.057 265.843 196.842ZM434.627 196.827C434.627 197.053 435.332 197.509 436.194 197.84C437.056 198.17 437.761 197.985 437.761 197.429C437.761 196.872 437.056 196.417 436.194 196.417C435.332 196.417 434.627 196.602 434.627 196.827ZM334.59 198.181C335.595 198.445 337.241 198.445 338.246 198.181C339.251 197.919 338.429 197.704 336.418 197.704C334.407 197.704 333.584 197.919 334.59 198.181ZM308.906 199.203C307.748 200.36 308.084 231.939 309.254 231.939C309.907 231.939 310.298 225.671 310.298 215.223C310.298 206.029 310.142 198.506 309.951 198.506C309.758 198.506 309.288 198.82 308.906 199.203ZM322.216 215.223C322.216 224.704 322.375 228.582 322.568 223.842C322.762 219.102 322.762 211.344 322.568 206.603C322.375 201.863 322.216 205.741 322.216 215.223ZM438.545 201.843C441.019 204.319 442.393 204.034 441.331 201.268C440.969 200.323 439.677 199.551 438.462 199.551H436.253L438.545 201.843ZM265.293 203.65C262.793 206.15 262.239 207.586 262.239 211.566C262.239 215.547 262.793 216.982 265.293 219.482C266.973 221.162 269.088 222.536 269.994 222.536C272.502 222.536 271.961 219.022 269.03 216.268C267.593 214.918 266.418 212.717 266.418 211.377C266.418 210.037 267.593 207.919 269.03 206.669C271.954 204.126 272.515 200.596 269.994 200.596C269.088 200.596 266.973 201.97 265.293 203.65ZM312.388 202.049C312.388 202.273 314.034 202.649 316.045 202.884C318.056 203.119 319.701 202.935 319.701 202.476C319.701 202.017 318.056 201.641 316.045 201.641C314.034 201.641 312.388 201.825 312.388 202.049ZM336.157 202.332C336.875 202.623 338.051 202.623 338.769 202.332C339.487 202.043 338.899 201.806 337.463 201.806C336.026 201.806 335.439 202.043 336.157 202.332ZM268.956 209.401C268.228 212.297 269.219 216.268 270.667 216.268C271.203 216.268 271.642 214.152 271.642 211.566C271.642 206.534 270.006 205.216 268.956 209.401ZM314.229 207.603C315.529 207.853 317.409 207.844 318.408 207.582C319.407 207.321 318.343 207.116 316.045 207.128C313.746 207.139 312.929 207.354 314.229 207.603ZM334.067 207.602C335.361 207.851 337.475 207.851 338.769 207.602C340.062 207.353 339.004 207.149 336.418 207.149C333.832 207.149 332.774 207.353 334.067 207.602ZM438.806 211.044V214.178H469.104H499.403V211.044V207.909H469.104H438.806V211.044ZM16.194 211.596C13.8955 212.424 11.9355 213.109 11.8394 213.118C11.7422 213.126 10.639 214.789 9.38836 216.814C6.42433 221.61 6.45358 229.03 9.46358 236.027C11.0036 239.609 14.1985 243.647 19.3942 248.583C26.0034 254.861 33.4328 260.203 33.4328 258.676C33.4328 258.412 32.6597 254.756 31.7152 250.552C30.5722 245.467 29.96 237.596 29.8869 227.031C29.7824 212.084 29.6539 211.119 27.6866 210.59C24.2869 209.675 20.6406 209.995 16.194 211.596ZM31.3433 212.93C31.3433 214.136 32.8258 214.671 39.13 215.741C47.4391 217.152 56.536 223.006 67.9815 234.311C77.0951 243.313 81.084 246.004 91.9403 250.476C102.004 254.621 107.114 255.594 109.297 253.781C110.722 252.599 109.788 252.208 102.756 251.039C90.4024 248.986 83.5413 245.127 73.0821 234.352C65.1219 226.15 62.8475 224.499 52.1866 219.183C40.5258 213.367 31.3433 210.612 31.3433 212.93ZM314.229 212.827C315.529 213.077 317.409 213.067 318.408 212.806C319.407 212.545 318.343 212.34 316.045 212.352C313.746 212.363 312.929 212.577 314.229 212.827ZM334.067 212.826C335.361 213.075 337.475 213.075 338.769 212.826C340.062 212.576 339.004 212.373 336.418 212.373C333.832 212.373 332.774 212.576 334.067 212.826ZM31.5533 217.42C31.8155 218.207 34.0816 219.2 36.5902 219.629C45.827 221.205 55.2885 226.831 65.8209 237.012C75.9291 246.781 85.3687 252.963 95.6775 256.567C98.8776 257.686 101.779 258.103 102.991 257.619C104.578 256.985 103.572 256.323 98.209 254.471C84.0387 249.578 77.3813 245.474 66.3924 234.858C58.8731 227.594 53.8206 223.677 48.5821 221.052C40.5436 217.023 30.7227 214.928 31.5533 217.42ZM314.229 218.051C315.529 218.301 317.409 218.291 318.408 218.03C319.407 217.769 318.343 217.564 316.045 217.576C313.746 217.587 312.929 217.801 314.229 218.051ZM334.067 218.05C335.361 218.299 337.475 218.299 338.769 218.05C340.062 217.8 339.004 217.597 336.418 217.597C333.832 217.597 332.774 217.8 334.067 218.05ZM31.3433 221.832C31.3433 222.828 33.1319 223.549 36.8106 224.037C44.7007 225.083 53.1342 230.037 63.5151 239.718C75.6794 251.064 79.9849 254.3 87.8866 258.038C94.9273 261.369 96.6836 261.771 97.6145 260.265C97.93 259.755 95.4894 258.277 92.191 256.979C82.8309 253.3 76.5382 248.981 66.0058 239.005C55.2258 228.796 50.6894 225.585 43.8064 223.298C35.9215 220.678 31.3433 220.14 31.3433 221.832ZM313.955 222.536C312.287 223.253 312.667 223.449 315.845 223.508C318.248 223.552 319.569 223.167 319.179 222.536C318.416 221.302 316.826 221.302 313.955 222.536ZM332.239 222.504C332.239 223.763 338.14 223.977 338.9 222.745C339.184 222.286 337.802 221.801 335.828 221.668C333.854 221.534 332.239 221.91 332.239 222.504ZM31.3433 226.059C31.3433 227.17 32.2355 227.76 33.9155 227.76C37.5106 227.76 46.713 231.374 51.8554 234.805C54.2312 236.389 59.6724 240.989 63.9486 245.027C77.4806 257.806 86.5116 263.776 91.2372 263.065C92.9234 262.812 91.281 261.552 84.8609 258.171C78.6006 254.875 73.081 250.686 64.8681 242.996C52.8939 231.785 43.9809 226.28 35.7836 225.034C32.1018 224.474 31.3433 224.649 31.3433 226.059ZM314.229 227.454C315.529 227.704 317.409 227.694 318.408 227.433C319.407 227.172 318.343 226.967 316.045 226.979C313.746 226.99 312.929 227.204 314.229 227.454ZM334.067 227.453C335.361 227.702 337.475 227.702 338.769 227.453C340.062 227.203 339.004 227 336.418 227C333.832 227 332.774 227.203 334.067 227.453ZM31.3433 230.285C31.3433 231.217 33.2907 232.184 36.6016 232.894C46.3045 234.974 52.7392 239.163 67.3807 252.925C75.1539 260.23 82.1622 265.372 84.3469 265.372C86.8731 265.372 85.6507 263.656 81.4403 261.289C79.1136 259.981 71.7876 254.015 65.1606 248.031C51.7613 235.931 46.5124 232.45 38.4101 230.294C31.5679 228.473 31.3433 228.472 31.3433 230.285ZM307.861 233.681C307.478 234.063 307.164 235.004 307.164 235.77C307.164 236.906 314.303 237.163 345.821 237.163C383.781 237.163 384.478 237.126 384.478 235.074C384.478 233.023 383.781 232.984 346.518 232.984C325.639 232.984 308.243 233.297 307.861 233.681ZM31.3433 235.054C31.3433 235.617 32.6357 236.365 34.2164 236.715C44.8313 239.065 53.2752 244.386 66.6442 257.152C73.0455 263.264 77.1348 266.398 78.6591 266.363C80.9315 266.308 80.9263 266.278 78.3582 264.554C76.9216 263.59 71.5149 258.767 66.3433 253.839C55.5612 243.562 48.837 238.699 41.6166 235.956C36.0834 233.853 31.3433 233.437 31.3433 235.054ZM119.627 238.463C112.172 240.311 112.083 240.399 115.769 242.19C119.582 244.041 121.473 243.421 124.106 239.456C125.765 236.957 125.73 236.95 119.627 238.463ZM31.5616 239.384C31.7769 240.031 34.5194 241.362 37.6558 242.343C46.6137 245.143 52.1813 248.441 59.5313 255.301C71.8743 266.822 73.0967 267.847 73.7319 267.212C74.69 266.254 57.0813 249.704 50.3457 245.233C42.5746 240.074 30.5419 236.327 31.5616 239.384ZM303.507 238.884C285.72 240.271 265.45 244.883 237.436 253.916C217.728 260.27 213.886 262.179 207.718 268.67C201.253 275.475 199.141 281.783 199.773 292.404C200.615 306.577 208.295 317.7 220.212 322.007C224.754 323.65 234.471 323.796 341.713 323.836C471.146 323.885 465.059 324.2 473.878 316.974C476.271 315.013 479.82 310.475 481.764 306.89C485.076 300.783 485.299 299.746 485.295 290.447C485.293 282.279 484.893 279.774 483.035 276.3C480.273 271.134 473.445 263.96 469.203 261.767C463.664 258.902 436.595 249.801 423.949 246.551C396.823 239.58 391.855 239.068 348.433 238.759C326.597 238.603 306.381 238.659 303.507 238.884ZM32.3881 244.205C32.3881 244.777 35.1327 246.017 38.4875 246.958C45.9336 249.046 59.9346 258.024 58.2995 259.66C57.914 260.045 56.3772 259.227 54.8831 257.841C50.5599 253.833 41.6134 248.854 37.3507 248.085C31.4812 247.026 32.526 249.163 38.897 251.247C45.104 253.278 48.1475 255.202 56.7334 262.528C60.0684 265.373 63.0606 267.436 63.3845 267.113C63.7073 266.789 62.6249 265.365 60.9784 263.947C59.3318 262.53 58.3466 261.009 58.7875 260.566C59.2294 260.123 61.3649 261.494 63.5339 263.612C65.7018 265.729 68.0724 267.462 68.8006 267.462C71.19 267.462 52.8981 250.923 46.9512 247.707C40.8601 244.413 32.3881 242.376 32.3881 244.205ZM290.907 245.521C274.94 246.627 265.036 248.996 242.403 257.13C222.249 264.371 213.545 269.389 208.456 276.697C205.535 280.892 205.299 281.909 205.299 290.28C205.299 298.238 205.64 299.908 208.132 304.147C211.596 310.04 217.209 315.099 223.529 318.023C228.253 320.209 228.978 320.225 338.507 320.543C418.504 320.774 450.444 320.533 454.974 319.661C462.849 318.144 467.935 315.562 471.865 311.086C483.719 297.586 484.393 283.066 473.695 271.63C469.685 267.345 466.854 265.704 454.167 260.326C422.467 246.887 413.133 245.515 350 245.017C324.429 244.815 297.837 245.042 290.907 245.521ZM312.392 249.439L312.395 253.357L314.482 249.937C317.06 245.707 317.06 245.521 314.478 245.521C312.759 245.521 312.389 246.216 312.392 249.439ZM317.183 248.736C315.695 250.504 314.478 252.379 314.478 252.903C314.478 253.426 316.222 256.447 318.356 259.613C321.905 264.882 322.567 265.372 326.153 265.372C329.758 265.372 330.401 264.887 334.196 259.299L338.32 253.226L336.119 249.373C333.925 245.535 333.893 245.521 326.902 245.521C320.351 245.521 319.708 245.734 317.183 248.736ZM336.632 247.35C337.502 248.355 338.736 250.118 339.375 251.268C340.391 253.1 340.537 252.876 340.566 249.439C340.594 245.888 340.338 245.521 337.823 245.521C335.275 245.521 335.178 245.67 336.632 247.35ZM342.687 249.261C342.687 252.933 342.748 252.987 346.082 252.274C350.386 251.351 350.38 251.357 349.583 248.182C349.054 246.075 348.267 245.521 345.801 245.521C342.925 245.521 342.687 245.808 342.687 249.261ZM351.078 249.439C351.11 253.177 351.185 253.261 352.722 251.268C356.353 246.557 356.528 245.521 353.693 245.521C351.324 245.521 351.048 245.933 351.078 249.439ZM355.83 249.353C354.398 251.46 353.534 253.693 353.91 254.315C354.286 254.938 356.189 257.679 358.141 260.409C361.275 264.794 362.138 265.372 365.548 265.372C369.077 265.372 369.752 264.862 373.414 259.423L377.421 253.474L375.611 250.112C373.562 246.308 371.635 245.556 363.881 245.536C358.772 245.522 358.273 245.759 355.83 249.353ZM281.437 247.714C270.597 248.88 233.448 260.45 234.593 262.304C235.525 263.812 244.394 264.538 267.607 265.004L291.259 265.48L294.971 259.418C298.656 253.403 298.669 253.333 296.865 250.223C294.767 246.606 293.559 246.41 281.437 247.714ZM296.716 247.449C296.716 247.935 297.657 249.183 298.806 250.223C300.845 252.069 300.896 252.048 300.896 249.34C300.896 247.263 300.371 246.566 298.806 246.566C297.657 246.566 296.716 246.963 296.716 247.449ZM302.985 249.638C302.985 252.777 303.234 252.864 309.515 251.909C309.946 251.843 310.298 250.615 310.298 249.178C310.298 246.89 309.846 246.566 306.642 246.566C303.292 246.566 302.985 246.824 302.985 249.638ZM376.854 249.076C378.911 251.826 379.495 251.742 379.97 248.629C380.214 247.034 379.683 246.566 377.631 246.566C375.005 246.566 374.996 246.592 376.854 249.076ZM381.343 249.178C381.343 250.615 381.931 251.83 382.649 251.877C383.368 251.925 385.013 252.081 386.306 252.225C388.252 252.441 388.657 251.976 388.657 249.526C388.657 246.84 388.318 246.566 385 246.566C381.796 246.566 381.343 246.89 381.343 249.178ZM390.746 250.223C390.746 251.659 390.927 252.835 391.149 252.835C391.37 252.835 392.321 251.659 393.262 250.223C394.893 247.733 394.874 247.611 392.86 247.611C391.302 247.611 390.746 248.297 390.746 250.223ZM394.762 250.398C393.139 253.075 393.2 253.398 396.297 258.495C398.07 261.416 400.016 264.151 400.619 264.573C401.222 264.995 405.361 265.347 409.813 265.356L417.91 265.372V285.843C417.91 305.435 417.821 306.338 415.821 306.86C414.493 307.208 413.731 308.285 413.731 309.817C413.731 311.143 412.514 313.673 411.026 315.441L408.321 318.656H423.768H439.216L434.508 315.671C421.627 307.502 417.047 293.153 422.825 279.055C424.648 274.607 430.747 267.962 435.149 265.627C439.17 263.494 449.014 261.167 450.92 261.898C451.728 262.207 452.388 262.198 452.388 261.876C452.388 259.678 423.459 250.438 411.271 248.742C398.652 246.988 396.714 247.183 394.762 250.398ZM33.9981 253.092C34.3219 253.936 36.5599 255.216 38.9722 255.936C41.3846 256.656 46.6336 259.519 50.6372 262.3C54.6407 265.082 58.1669 267.098 58.473 266.78C58.7791 266.464 56.9142 264.361 54.3284 262.105C47.087 255.79 32.5625 249.351 33.9981 253.092ZM300.294 254.679C298.904 255.629 293.582 263.471 293.582 264.57C293.582 265.011 295.176 265.372 297.126 265.372C300.05 265.372 300.786 264.908 301.336 262.715C302.64 257.52 309.859 257.626 312.25 262.875C313.085 264.706 314.23 265.372 316.545 265.372C318.281 265.372 319.69 265.02 319.675 264.589C319.662 264.157 318.011 261.572 316.008 258.842C312.464 254.01 312.223 253.88 306.893 253.895C303.881 253.905 300.912 254.257 300.294 254.679ZM339.995 254.679C338.606 255.629 333.284 263.471 333.284 264.57C333.284 265.011 334.704 265.372 336.44 265.372C338.722 265.372 339.901 264.704 340.694 262.965C343.109 257.666 348.855 257.537 351.221 262.73C352.098 264.653 353.231 265.372 355.392 265.372C359.17 265.372 359.119 264.422 355.022 258.611C351.812 254.056 351.49 253.881 346.403 253.895C343.497 253.905 340.614 254.257 339.995 254.679ZM375.686 258.982C373.626 261.789 371.94 264.374 371.94 264.729C371.94 265.083 373.554 265.372 375.527 265.372C378.211 265.372 379.282 264.839 379.784 263.254C380.154 262.09 381.597 260.391 382.99 259.477C385.304 257.961 385.741 257.961 388.055 259.477C389.448 260.391 390.89 262.09 391.26 263.254C391.734 264.747 392.836 265.372 394.995 265.372C396.681 265.372 398.06 265.128 398.06 264.829C398.06 263.835 392.542 255.459 391.374 254.679C390.741 254.257 387.796 253.905 384.828 253.895C379.571 253.88 379.335 254.011 375.686 258.982ZM35 258.059C35.3552 258.633 36.284 259.103 37.0645 259.103C37.8449 259.103 41.6322 260.774 45.4802 262.816C53.7579 267.207 55.4619 266.984 48.3606 262.439C41.0837 257.781 33.2385 255.21 35 258.059ZM303.572 261.8C301.221 264.151 302.47 265.372 307.226 265.372C311.697 265.372 311.875 265.185 310.262 262.169C308.953 259.723 305.823 259.55 303.572 261.8ZM343.156 261.918C341.492 263.581 341.504 263.734 343.342 264.457C348.522 266.492 351.917 264.573 348.746 261.402C347.014 259.67 345.24 259.834 343.156 261.918ZM382.426 261.669C380.569 263.907 382.026 265.372 386.106 265.372C389.84 265.372 390.796 263.751 388.448 261.402C386.746 259.7 383.958 259.823 382.426 261.669ZM440.863 264.887C425.677 269.569 417.449 288.734 424.604 302.757C427.892 309.201 431.695 312.69 439.154 316.101C453.794 322.797 470.122 315.834 477.401 299.79C486.865 278.929 464.528 257.593 440.863 264.887ZM226.943 265.354C217.605 267.567 207.59 277.865 206.15 286.731C205.634 289.914 205.802 290.388 207.248 289.833C209.749 288.873 212.155 290.103 211.438 291.974C210.721 293.841 206.866 294.168 206.866 292.362C206.866 291.692 206.599 291.409 206.274 291.734C205.949 292.06 206.216 294.301 206.866 296.715C207.925 300.651 208.187 300.915 209.395 299.264C210.944 297.145 214.179 297.872 214.179 300.34C214.179 301.911 212.998 302.387 210.108 301.982C207.53 301.621 212.54 308.42 217.897 312.556C226.653 319.317 238.233 320.505 247.714 315.616C252.058 313.375 258.058 308.513 258.061 307.229C258.062 306.905 250.777 306.781 241.871 306.953L225.679 307.266L222.932 304.519C220.492 302.078 220.26 301.231 220.849 296.893C222.632 283.757 228.255 274.955 238.314 269.551C244.932 265.997 244.968 265.953 241.866 265.268C240.142 264.886 237.616 264.519 236.253 264.451C234.164 264.347 233.979 264.574 235.075 265.894C236.113 267.145 236.111 267.78 235.064 269.041C233.326 271.136 230.589 269.029 231.465 266.27C232.133 264.166 232.037 264.147 226.943 265.354ZM244.813 268.355C234.579 271.891 227.828 278.721 224.137 289.272C222.224 294.739 222.049 302.078 223.791 303.82C224.687 304.716 231.368 305.074 247.228 305.074C267.458 305.074 269.458 304.913 269.938 303.245C270.694 300.614 270.704 278.375 269.95 271.902L269.312 266.417L259.768 266.451C253.389 266.473 248.43 267.105 244.813 268.355ZM271.642 285.745V305.074H317.09H362.537V285.745V266.417H317.09H271.642V285.745ZM364.411 285.746L364.104 305.076L389.963 305.075L415.821 305.074V285.745V266.417H390.269H364.716L364.411 285.746ZM447.789 267.186C446.413 268.561 447.286 270.596 449.254 270.596C450.403 270.596 451.343 269.941 451.343 269.141C451.343 267.565 448.806 266.168 447.789 267.186ZM222.189 268.158C220.751 269.596 221.569 271.641 223.582 271.641C224.975 271.641 225.672 270.944 225.672 269.551C225.672 267.538 223.627 266.72 222.189 268.158ZM456.222 268.942C455.91 269.757 456.255 270.653 456.989 270.936C458.849 271.649 461.165 270.03 460.296 268.623C459.287 266.99 456.899 267.177 456.222 268.942ZM441.468 269.812C442.25 271.865 440.322 272.376 439.498 270.335C439.118 269.393 438.948 269.376 438.889 270.273C438.765 272.134 440.913 273.086 442.24 271.759C443.094 270.905 443.053 270.249 442.088 269.29C441.032 268.243 440.91 268.347 441.468 269.812ZM457.612 269.613C457.612 270.221 458.082 270.429 458.657 270.074C459.231 269.718 459.701 269.221 459.701 268.967C459.701 268.713 459.231 268.506 458.657 268.506C458.082 268.506 457.612 269.005 457.612 269.613ZM273.957 272.524C272.136 273.679 273.504 276.865 275.821 276.865C277.785 276.865 279.373 274.207 278.374 272.591C277.651 271.42 275.741 271.392 273.957 272.524ZM354.559 273.201C354.198 274.144 354.403 275.417 355.015 276.029C356.607 277.621 359.622 276.166 359.207 274.007C358.744 271.602 355.396 271.021 354.559 273.201ZM464.925 273.146C464.925 275.292 467.088 276.346 468.108 274.698C468.58 273.933 468.735 272.933 468.451 272.474C467.574 271.054 464.925 271.558 464.925 273.146ZM214.362 274.429C214.805 276.729 218.881 277.041 218.881 274.775C218.881 273.913 217.78 273.052 216.437 272.862C214.542 272.594 214.076 272.946 214.362 274.429ZM275.299 273.73C274.943 274.305 275.151 274.775 275.759 274.775C276.367 274.775 276.866 274.305 276.866 273.73C276.866 273.156 276.659 272.686 276.405 272.686C276.151 272.686 275.654 273.156 275.299 273.73ZM356.269 274.314C356.269 275.21 356.739 275.653 357.313 275.297C357.888 274.942 358.358 274.21 358.358 273.669C358.358 273.127 357.888 272.686 357.313 272.686C356.739 272.686 356.269 273.419 356.269 274.314ZM433.843 273.436C431.736 274.192 432.346 276.865 434.627 276.865C435.776 276.865 436.716 276.188 436.716 275.359C436.716 273.542 435.611 272.801 433.843 273.436ZM444.245 276.971C436.328 280.936 433.311 291.083 437.863 298.446C445.794 311.281 467.015 304.992 467.015 289.806C467.015 286.24 466.328 284.513 463.737 281.563C459.807 277.086 458.369 276.267 452.91 275.394C449.745 274.887 447.644 275.269 444.245 276.971ZM444.347 278.908C434.851 284.698 434.818 296.175 444.282 301.944C452.668 307.059 463.98 301.378 465.597 291.241C466.639 284.711 458.57 276.865 450.821 276.87C449.097 276.871 446.184 277.788 444.347 278.908ZM209.674 279.629C208.064 281.238 208.997 284.178 211.118 284.178C212.743 284.178 213.197 283.615 212.946 281.909C212.599 279.553 210.919 278.383 209.674 279.629ZM449.653 281.447C450.132 283.356 449.794 284.066 448.211 284.48C443.399 285.739 443.408 295.158 448.224 296.417C449.8 296.828 450.157 297.595 449.759 299.708C449.474 301.223 449.518 301.874 449.857 301.156C450.799 299.157 452.402 299.603 451.734 301.678C451.25 303.183 451.338 303.235 452.229 301.975C452.979 300.914 452.975 300.035 452.215 299.118C451.392 298.128 451.806 297.532 453.86 296.752C457.225 295.472 459.323 290.741 457.692 288.111C456.113 285.563 456.261 285.213 458.803 285.497C461.502 285.796 462.66 283.401 460.26 282.48C459.272 282.101 458.029 282.533 457.301 283.508C456.486 284.599 455.219 284.97 453.694 284.563C451.204 283.897 450.655 282.637 452.388 281.566C454.191 280.451 453.528 278.954 451.23 278.954C449.43 278.954 449.142 279.41 449.653 281.447ZM470.149 280.957C470.149 282.24 470.824 283.133 471.793 283.133C472.766 283.133 473.299 282.423 473.099 281.392C472.591 278.77 470.149 278.411 470.149 280.957ZM429.377 280.686C431.075 281.528 430.62 283.423 428.881 282.755C428.019 282.425 427.313 282.61 427.313 283.166C427.313 283.723 428.288 284.178 429.479 284.178C431.863 284.178 432.001 280.903 429.638 280.425C428.906 280.277 428.788 280.395 429.377 280.686ZM450.298 281.105C450.298 281.713 450.769 281.921 451.343 281.566C451.918 281.211 452.388 280.714 452.388 280.46C452.388 280.206 451.918 279.999 451.343 279.999C450.769 279.999 450.298 280.497 450.298 281.105ZM441.418 283.133C441.063 283.708 441.242 284.178 441.817 284.178C442.392 284.178 443.152 283.708 443.507 283.133C443.863 282.559 443.683 282.088 443.108 282.088C442.534 282.088 441.773 282.559 441.418 283.133ZM443.896 284.962C442.597 286.619 442.634 286.655 444.291 285.357C446.032 283.991 446.584 283.133 445.724 283.133C445.508 283.133 444.685 283.957 443.896 284.962ZM458.657 284.178C458.657 284.753 459.127 285.223 459.701 285.223C460.276 285.223 460.746 284.753 460.746 284.178C460.746 283.603 460.276 283.133 459.701 283.133C459.127 283.133 458.657 283.603 458.657 284.178ZM447.948 286.351C445.848 287.575 445.494 292.537 447.373 294.417C448.063 295.106 449.849 295.671 451.343 295.671C456.442 295.671 458.45 290.385 454.656 286.952C452.483 284.985 450.586 284.815 447.948 286.351ZM472.164 288.97C471.045 290.318 471.061 290.764 472.257 291.502C474.007 292.584 475.373 291.892 475.373 289.924C475.373 287.675 473.661 287.166 472.164 288.97ZM426.53 289.097C424.708 289.766 424.898 292.187 426.831 292.929C427.762 293.286 428.699 292.864 429.059 291.926C429.795 290.008 428.376 288.42 426.53 289.097ZM438.806 290.907C438.806 292.836 440.551 293.94 441.407 292.553C441.768 291.969 441.448 291.484 440.696 291.476C439.702 291.464 439.757 291.182 440.896 290.447C442.235 289.582 442.197 289.431 440.634 289.418C439.629 289.409 438.806 290.079 438.806 290.907ZM459.9 291.23C460.33 293.465 463.022 293.655 463.612 291.491C463.992 290.099 463.916 290.099 462.931 291.491C461.935 292.9 461.337 292.28 461.668 290.186C461.736 289.754 461.286 289.402 460.67 289.402C460.053 289.402 459.707 290.225 459.9 291.23ZM273.267 295.577C272.399 296.982 273.751 299.85 275.283 299.85C277.535 299.85 279.086 297.264 277.676 295.854C276.212 294.39 274.083 294.255 273.267 295.577ZM354.559 296.186C354.198 297.129 354.403 298.402 355.015 299.014C356.607 300.606 359.622 299.151 359.207 296.992C358.744 294.587 355.396 294.006 354.559 296.186ZM442.077 297.073C440.798 298.613 441.513 299.85 443.682 299.85C444.448 299.85 445.075 298.909 445.075 297.76C445.075 295.35 443.758 295.048 442.077 297.073ZM457.005 296.852C456.115 298.293 458.159 300.28 459.611 299.384C460.235 298.997 460.746 298.29 460.746 297.81C460.746 296.421 457.747 295.652 457.005 296.852ZM427.735 298.168C426.827 300.537 428.43 302.141 430.456 300.889C431.816 300.048 431.787 299.697 430.225 298.135C428.535 296.444 428.396 296.446 427.735 298.168ZM470.149 298.359C470.149 299.333 470.86 299.865 471.891 299.665C474.512 299.157 474.872 296.715 472.326 296.715C471.043 296.715 470.149 297.39 470.149 298.359ZM466.321 304.621C465.393 307.04 467.446 308.638 469.029 306.731C470.369 305.118 469.762 302.984 467.966 302.984C467.407 302.984 466.667 303.721 466.321 304.621ZM432.615 305.026C430.868 306.106 432.074 308.213 434.427 308.192C435.823 308.18 435.895 307.986 434.77 307.274C433.611 306.539 433.602 306.285 434.719 305.914C435.544 305.639 435.675 305.199 435.048 304.811C434.474 304.457 433.379 304.553 432.615 305.026ZM215.876 307.725C215.203 309.478 217.58 310.901 219.353 309.806C219.955 309.433 220.448 308.452 220.448 307.624C220.448 305.608 216.656 305.692 215.876 307.725ZM271.853 306.965C267.767 307.259 267.426 307.494 268.075 309.577C269.385 313.776 272.394 314.552 275.229 311.42C278.158 308.183 276.957 306.597 271.853 306.965ZM278.072 309.72C275.875 315.798 267.961 316.184 266.778 310.269C266.375 308.255 265.518 307.163 264.343 307.163C261.554 307.163 262.931 311.905 266.622 315.01C271.92 319.467 278.007 318.045 280.644 311.734C282.072 308.317 281.878 306.118 280.148 306.118C279.723 306.118 278.789 307.739 278.072 309.72ZM283.813 306.948C283.575 307.353 283.054 309.208 282.655 311.069C282.256 312.929 280.726 315.397 279.256 316.554L276.584 318.656H285.235H293.887L291.241 316.203C289.785 314.854 288.278 312.308 287.89 310.544C287.225 307.516 284.757 305.339 283.813 306.948ZM304.42 309.611C302.444 313.756 300.059 315.018 296.086 314.021C294.301 313.573 293.329 312.43 292.898 310.269C292.556 308.561 291.629 307.163 290.84 307.163C288.525 307.163 289.185 310.922 292.108 314.396C296.674 319.823 303.955 318.458 306.802 311.643C309.023 306.326 306.864 304.484 304.42 309.611ZM309.878 306.887C309.535 307.23 309.254 308.645 309.254 310.03C309.254 311.42 307.886 313.916 306.2 315.602L303.146 318.656H311.566H319.987L317.164 315.833C315.611 314.28 314.084 311.725 313.769 310.153C313.213 307.372 311.136 305.628 309.878 306.887ZM336.092 306.793C335.696 307.188 335.373 308.645 335.373 310.03C335.373 311.42 334.006 313.916 332.319 315.602L329.265 318.656H337.653H346.04L343.616 316.138C342.283 314.752 340.674 312.078 340.039 310.193C338.875 306.735 337.41 305.474 336.092 306.793ZM356.622 309.583C354.839 315.797 344.776 315.979 344.776 309.797C344.776 308.153 344.188 307.163 343.209 307.163C340.778 307.163 341.357 310.844 344.347 314.396C348.668 319.532 355.683 318.571 358.87 312.408C360.821 308.634 360.848 307.54 359.008 306.834C358.065 306.473 357.242 307.42 356.622 309.583ZM382.758 309.655C381.649 311.977 379.944 313.743 378.445 314.119C375.068 314.967 370.896 312.901 370.896 310.381C370.896 309.254 370.394 308.021 369.781 307.643C366.636 305.698 367.502 311.639 370.896 315.281C373.432 318.004 378.726 318.387 382.012 316.086C384.981 314.005 387.238 308.461 385.729 306.952C384.906 306.129 384.081 306.88 382.758 309.655ZM388.918 306.868C388.2 307.127 387.612 308.51 387.612 309.942C387.612 311.429 386.301 313.859 384.558 315.602L381.504 318.656H389.732H397.96L395.462 315.961C394.09 314.48 392.665 311.899 392.298 310.226C391.559 306.863 390.862 306.172 388.918 306.868ZM409.015 309.32C407.651 315.531 398.919 316.206 396.846 310.261C395.697 306.966 393.881 306.07 393.881 308.799C393.881 310.977 395.915 314.695 397.969 316.271C400.014 317.842 404.83 317.974 407.52 316.535C410.035 315.19 413.027 309.558 412.273 307.591C411.322 305.114 409.756 305.945 409.015 309.32ZM257.984 309.918C256.589 311.438 253.357 314.025 250.803 315.669L246.158 318.656H256.926C267.34 318.656 267.62 318.595 265.449 316.827C264.216 315.822 262.601 313.234 261.863 311.077L260.52 307.156L257.984 309.918ZM294.174 309.514C295.447 313.588 298.556 314.577 301.344 311.79C304.415 308.718 303.364 307.163 298.214 307.163C293.744 307.163 293.488 307.313 294.174 309.514ZM315.522 309.58C315.522 315.097 323.884 319.36 329.162 316.535C331.15 315.471 334.328 310.38 334.328 308.26C334.328 305.891 331.375 307.338 330.144 310.311C327.844 315.861 320.121 315.794 319.006 310.214C318.282 306.592 315.522 306.09 315.522 309.58ZM319.701 308.656C319.701 310.547 322.541 313.432 324.403 313.432C326.265 313.432 329.104 310.547 329.104 308.656C329.104 307.583 327.781 307.163 324.403 307.163C321.025 307.163 319.701 307.583 319.701 308.656ZM345.837 308.469C345.883 312.225 350.943 314.428 353.547 311.826C356.64 308.733 355.621 307.163 350.522 307.163C347.449 307.163 345.826 307.615 345.837 308.469ZM361.493 309.695C361.493 311.087 360.275 313.673 358.788 315.441L356.083 318.656H364.06H372.035L369.468 316.09C368.057 314.678 366.588 312.092 366.204 310.343C365.314 306.291 361.493 305.765 361.493 309.695ZM371.94 308.656C371.94 310.547 374.78 313.432 376.642 313.432C378.504 313.432 381.343 310.547 381.343 308.656C381.343 307.583 380.02 307.163 376.642 307.163C373.264 307.163 371.94 307.583 371.94 308.656ZM398.06 308.656C398.06 310.547 400.899 313.432 402.761 313.432C404.623 313.432 407.463 310.547 407.463 308.656C407.463 307.583 406.139 307.163 402.761 307.163C399.383 307.163 398.06 307.583 398.06 308.656ZM246.649 309.677C245.176 311.452 245.959 313.432 248.134 313.432C250.396 313.432 251.147 311.296 249.474 309.623C248.145 308.294 247.792 308.3 246.649 309.677ZM458.667 309.763C457.619 311.026 457.707 311.445 459.132 311.991C461.19 312.781 463.385 310.987 462.37 309.344C461.406 307.784 460.196 307.921 458.667 309.763ZM440.57 309.928C439.134 311.363 439.878 313.58 441.679 313.233C442.684 313.039 443.507 312.221 443.507 311.415C443.507 309.766 441.664 308.833 440.57 309.928ZM440.896 311.342C440.896 311.917 441.366 312.387 441.94 312.387C442.515 312.387 442.985 311.917 442.985 311.342C442.985 310.768 442.515 310.297 441.94 310.297C441.366 310.297 440.896 310.768 440.896 311.342ZM225.088 312.487C224.698 313.117 225.064 314.316 225.899 315.151C227.228 316.48 227.581 316.474 228.724 315.097C229.443 314.231 229.727 313.033 229.357 312.433C228.474 311.004 225.984 311.036 225.088 312.487ZM449.254 312.848C449.254 313.676 449.629 314.585 450.087 314.868C451.424 315.695 453.77 313.779 452.982 312.504C451.946 310.826 449.254 311.075 449.254 312.848ZM236.47 314.024C236.125 314.925 236.406 316.218 237.096 316.897C238.063 317.851 238.684 317.68 239.813 316.151C240.618 315.061 241.029 313.768 240.726 313.278C239.815 311.804 237.142 312.273 236.47 314.024ZM450.298 313.493C450.298 314.101 450.769 314.309 451.343 313.954C451.918 313.599 452.388 313.102 452.388 312.848C452.388 312.594 451.918 312.387 451.343 312.387C450.769 312.387 450.298 312.885 450.298 313.493Z" fill="#F9F9F9" fill-opacity="0.79"/>
</svg>
