<svg width="320" height="107" viewBox="0 0 320 107" fill="none" xmlns="http://www.w3.org/2000/svg">
<path fill-rule="evenodd" clip-rule="evenodd" d="M42.8637 33.0098C42.8637 34.336 39.2199 35.8436 36.0151 35.8436H33.587L33.699 37.7835L33.8106 39.7235L35.1962 39.838L36.5819 39.953V41.7104C36.5819 44.4592 35.9005 47.4715 34.8566 49.3398C32.341 53.8408 27.3038 56.3738 22.3478 55.6307L20.6192 55.3717L22.319 53.7433C23.9397 52.1902 24.0184 52.0195 24.0184 50.0592C24.0184 47.1718 23.0288 46.19 20.1182 46.19C18.2458 46.19 17.9059 46.3164 16.7977 47.4246C16.1185 48.1037 15.4497 49.1118 15.3108 49.6646C15.0248 50.8045 15.9412 53.1786 17.0575 54.1889C18.0337 55.0724 17.3398 55.4175 14.5958 55.4131C9.03457 55.4046 5.39226 53.4842 0.957711 48.2223C0.354293 47.5066 0.0191428 47.3119 0.0117525 47.6732C0.00510122 47.9811 0.982838 49.3216 2.18413 50.6526C4.61739 53.349 7.5288 55.106 10.6416 55.7571C12.794 56.2076 16.6591 56.2438 18.1062 55.8273C18.6142 55.681 19.8614 55.7789 20.8775 56.0446C27.9367 57.8903 35.1161 53.4765 36.8184 46.2443C37.0885 45.0966 37.3121 43.2014 37.315 42.033L37.3209 39.9083H40.0975H42.874L42.7765 51.8251C42.7011 61.0301 42.574 63.7523 42.217 63.7882C41.9632 63.8137 41.5888 63.855 41.3856 63.8805C41.1824 63.906 41.0161 64.2593 41.0161 64.6658C41.0161 65.0763 40.7696 65.4048 40.4618 65.4048C40.0184 65.4048 39.9076 64.8505 39.9076 62.6334V59.8621H38.6142H37.3209V55.2431C37.3209 52.4101 37.1779 50.6242 36.9514 50.6242C36.7249 50.6242 36.5819 52.4101 36.5819 55.2431V59.8621H35.1039H33.6258V64.253C33.6258 68.4762 33.6572 68.6525 34.4446 68.8583C34.8951 68.9762 43.2092 69.0818 52.9204 69.0929L70.5773 69.1132L70.5939 64.58C70.6039 61.8674 70.7894 59.654 71.0558 59.0691C71.5794 57.9188 73.386 56.345 74.7994 55.8077C76.9684 54.983 80.5051 55.5624 82.0415 56.9939L82.935 57.8264L81.2094 58.1416C78.741 58.5928 76.859 60.4707 76.859 62.4834C76.859 63.552 77.1055 64.2068 77.7511 64.8524C79.4697 66.571 81.5637 66.5122 83.6057 64.6887C84.7268 63.6873 84.8036 63.463 84.8036 61.1871C84.8036 59.8103 84.964 58.7568 85.1731 58.7583C85.8264 58.7639 88.9437 59.7863 90.0493 60.3583C91.9589 61.3457 94.2259 63.8946 95.453 66.4339L96.6517 68.9152L119.9 69.0039L143.148 69.0925L144.461 70.3604C147.515 73.3091 152.497 74.755 156.732 73.9217C158.016 73.669 159.518 73.2293 160.069 72.944C160.621 72.6587 161.554 72.4256 162.143 72.4256C163.253 72.4256 165.047 71.9382 166.651 71.201C170.056 69.6368 172.188 67.0857 172.988 63.6219C173.709 60.4962 172.438 56.7552 169.836 54.3474C168.541 53.148 168.615 52.3506 170.206 50.4091C171.227 49.1635 171.797 48.7766 172.612 48.7766C173.656 48.7766 173.676 48.8125 173.468 50.3471C173.352 51.211 173.187 52.2645 173.103 52.6883C173.014 53.1336 173.348 53.9912 173.893 54.7206C175.085 56.3147 176.001 58.0367 175.623 57.9746C174.765 57.8331 173.672 58.0622 173.672 58.384C173.672 58.5872 174.42 58.7535 175.335 58.7535C176.249 58.7535 176.998 58.5791 176.998 58.3659C176.998 58.1527 176.325 57.0253 175.504 55.8606L174.011 53.7429L174.264 50.6999L174.518 47.6566L178.215 43.7826C180.248 41.6516 182.094 39.9112 182.318 39.9145C182.542 39.9179 184.204 41.3974 186.011 43.2021L189.296 46.483L188.44 47.6851C187.658 48.7844 187.588 49.254 187.619 53.1738L187.654 57.4602L188.977 57.5748C190.299 57.6897 190.541 58.0644 190.076 59.2775C189.89 59.7612 189.155 59.8621 185.821 59.8621H181.791L180.41 61.1277C179.149 62.2839 179.032 62.5562 179.057 64.2885C179.081 65.8848 179.261 66.3604 180.198 67.2982C180.811 67.9105 181.962 68.5627 182.758 68.7471C184.776 69.2152 208.623 69.1897 210.323 68.7175C212.385 68.1447 213.58 66.4986 213.58 64.2308C213.58 62.6127 213.418 62.2137 212.323 61.1184L211.067 59.8621H207.163C203.682 59.8621 203.218 59.7848 202.877 59.1474C202.158 57.8046 202.413 57.645 205.277 57.645C208.265 57.645 208.187 57.6997 208.577 55.3462C209.101 52.1917 213.289 49.5164 217.704 49.516C220.577 49.5156 223.603 50.5333 225.465 52.1266L226.697 53.1809L225.357 53.1956C223.441 53.2171 221.625 54.0806 220.284 55.6082C218.337 57.826 218.962 60.678 221.702 62.0755C223.464 62.9745 224.2 62.9985 226.146 62.2196C227.198 61.7987 227.913 61.1583 228.555 60.0623C229.581 58.3123 229.66 57.3475 228.942 55.3355L228.447 53.9498H229.952C232.191 53.9498 237.303 55.7109 240.112 57.4506C242.412 58.8744 242.58 59.0672 242.49 60.1821C242.437 60.8416 242.056 61.8386 241.642 62.3969C240.578 63.8366 241.005 64.6658 242.811 64.6658C243.934 64.6658 244.25 64.8077 244.251 65.3124C244.252 65.6683 244.582 66.4997 244.984 67.16L245.717 68.3609H243.483C242.155 68.3609 241.338 68.5043 241.468 68.7145C241.605 68.9359 252.158 69.0397 269.666 68.9917C295.981 68.9196 297.743 68.8745 299.307 68.229C300.222 67.8517 302.323 67.4035 303.978 67.2335C307.314 66.8899 311.57 65.329 314.642 63.3222C317.172 61.6694 320.243 58.8917 319.915 58.5536C319.767 58.401 318.935 58.9294 318.067 59.7283C314.38 63.1223 308.669 66.0319 304.939 66.4169L302.876 66.6297L303.908 65.2758C306.617 61.7252 304.777 57.2755 300.6 57.2755C295.487 57.2755 294.327 63.3244 298.855 66.3759L300.048 67.1796L298.846 67.6551C298.031 67.9777 294.854 68.1773 288.968 68.2763C280.578 68.4174 280.311 68.4001 280.89 67.7449C281.219 67.3725 281.603 66.527 281.743 65.8667C281.996 64.6757 282.017 64.6658 284.186 64.6658H286.374L286.405 61.802C286.468 56.117 286.32 54.9527 285.107 51.5801C283.573 47.3185 283.428 47.2339 277.935 47.3795C272.541 47.5225 272.702 47.324 272.702 53.8356C272.702 56.6573 272.554 58.7535 272.355 58.7535C272.164 58.7535 271.956 58.1301 271.893 57.3678C271.79 56.1285 271.583 55.8757 269.931 54.9752C268.914 54.4213 267.917 53.9025 267.714 53.8223C267.481 53.7311 267.516 53.3859 267.806 52.8945C268.421 51.8532 268.39 50.816 267.728 50.2661C267.259 49.8778 267.293 49.6738 267.982 48.743C268.447 48.1137 269.119 47.6681 269.602 47.6681C270.699 47.6681 272.561 46.064 272.863 44.8586C273.316 43.0543 270.972 40.7216 269.162 41.1757C267.856 41.5038 266.42 43.0144 266.42 44.0612C266.42 44.6255 266.039 45.1472 265.313 45.5759C264.23 46.2155 264.18 46.2107 263.004 45.3571C262.342 44.8771 260.305 43.7937 258.476 42.9494C255.323 41.4946 254.882 41.3948 250.008 41.0364C246.744 40.7962 244.711 40.7866 244.442 41.0105C244.208 41.2041 243.626 42.1978 243.148 43.218C242.3 45.029 242.296 45.0907 242.965 45.8305C243.635 46.5706 243.629 46.6323 242.683 48.5597C241.848 50.2628 241.536 50.5658 240.396 50.7794C238.311 51.1707 238.891 52.8413 241.112 52.8413C242.476 52.8413 243.023 52.43 244.398 50.3666C245.538 48.6554 245.377 48.6199 247.507 51.0436L248.363 52.0176L246.491 55.7479L244.619 59.4781L252.656 59.5853L260.693 59.6925L252.067 59.7774C243.884 59.8576 243.432 59.8262 243.259 59.1644C242.713 57.0756 233.885 53.2596 229.518 53.2241C228.245 53.2137 227.623 52.9647 226.578 52.0472C224.43 50.1616 221.516 49.0046 218.504 48.8416C212.924 48.5405 208.632 51.2971 207.528 55.8898L207.284 56.9059H203.226H199.169V53.7599V50.6135L203.233 50.6523C206.282 50.6811 207.298 50.8097 207.298 51.1666C207.298 51.4283 207.547 51.8491 207.852 52.1022C208.334 52.5024 208.406 52.2741 208.406 50.3452C208.406 47.5731 208.031 47.225 205.204 47.3717C203.069 47.4822 203.047 47.4948 202.933 48.6842C202.819 49.8611 202.781 49.8852 200.993 49.8852H199.169V47.3289C199.169 43.6574 199.129 43.6034 196.403 43.6034C193.933 43.6034 193.172 43.1703 193.444 41.9214C193.562 41.3793 192.905 40.6539 190.782 38.9845C189.232 37.7651 187.133 36.1022 186.117 35.2893C184.984 34.3836 184.211 33.9823 184.12 34.2532C184.014 34.564 183.622 34.4827 182.793 33.9772C181.311 33.0733 180.873 33.0763 179.954 33.996C179.465 34.4849 179.215 35.2276 179.215 36.1913C179.215 37.638 178.739 38.4162 178.295 37.6971C177.868 37.0068 177.464 37.3061 175.377 39.8569C173.397 42.2768 172.904 43.2339 173.637 43.2339C174.156 43.2339 172.399 47.7682 171.787 48.0088C170.707 48.4333 168.129 51.6259 168.129 52.5383C168.129 53.0549 168.689 54.0721 169.429 54.8987C172.318 58.1279 173.19 62.2698 171.66 65.4957C170.266 68.4326 166.86 70.9398 163.51 71.4951C162.044 71.7383 162.039 71.7346 162.829 71.0669C164.925 69.2943 165.745 65.642 164.641 62.9993C163.026 59.1341 156.714 59.381 155.198 63.3688C154.653 64.8003 154.745 67.5014 155.381 68.7297C156.004 69.9358 157.873 71.4563 159.261 71.8879L160.185 72.175L159.076 72.6425C157.247 73.414 153.582 73.6623 151.426 73.1609C148.971 72.59 146.318 71.187 144.675 69.5907C143.427 68.3786 143.359 68.3609 140.019 68.3609C137.359 68.3609 136.709 68.2615 136.997 67.899C137.198 67.6452 137.564 66.8138 137.809 66.0514L138.256 64.6658H140.444C142.27 64.6658 142.638 64.5586 142.664 64.0191C142.788 61.5027 142.517 55.2295 142.25 54.4028C139.814 46.8832 140.151 47.1652 133.984 47.4744C131.565 47.596 129.444 47.7822 129.273 47.8883C129.101 47.9943 128.961 49.8951 128.961 52.1126C128.961 55.4456 128.87 56.1089 128.435 55.9422C127.579 55.6134 126.374 56.4832 126.374 57.4303C126.374 57.9871 126.109 58.367 125.635 58.4912C125.229 58.5972 124.896 58.6478 124.896 58.6035C124.896 58.5281 126.057 55.1799 128.047 49.5156L128.891 47.1138L130.975 47.0026C132.811 46.9043 133.1 46.7812 133.411 45.9624C133.605 45.4513 133.764 44.8779 133.764 44.6879C133.764 44.4788 127.06 44.3424 116.757 44.3424H99.7505L99.34 45.3586C98.2865 47.9641 96.7105 52.4352 96.3569 53.8216C95.9822 55.2912 96.0228 55.426 97.3132 57.0005C98.9014 58.9386 99.0961 60.6865 97.8944 62.2144C96.7341 63.6891 97.0726 64.4592 98.9409 64.5944C100.286 64.6924 100.508 64.8258 100.508 65.54C100.508 65.9979 100.752 66.6948 101.05 67.0894C101.915 68.2327 101.747 68.3609 99.3791 68.3609H97.1414L96.2202 66.3485C94.3053 62.1656 90.0855 58.8056 85.9724 58.1889C84.7763 58.0097 83.7376 57.5286 82.7314 56.6879C79.235 53.7665 74.326 54.0891 71.3902 57.4325C70.7229 58.1922 70.0803 59.2993 69.9617 59.8924L69.7459 60.9706H66.6512H63.5565V57.645V54.3193H66.6974H69.8383V55.9822C69.8383 56.8967 70.0045 57.645 70.2078 57.645C70.411 57.645 70.5773 56.7304 70.5773 55.6126V53.5803H66.5126H62.448V57.2755V60.9706H58.9376H55.4272V63.1877C55.4272 65.0327 55.3185 65.4137 54.7805 65.4573C54.4247 65.4865 53.5933 65.5552 52.933 65.6099C51.8821 65.6974 51.732 65.5984 51.732 64.8184C51.732 63.9751 51.4094 63.7612 50.3463 63.899C49.985 63.9459 49.8845 61.3209 49.8841 51.8414L49.8837 39.7235L57.4591 39.8303C64.202 39.9256 65.0346 40.0043 65.0346 40.5457C65.0346 40.8801 64.6747 41.5371 64.2346 42.0056C63.5288 42.7565 63.4889 42.9763 63.8957 43.8687C64.3159 44.791 64.27 44.9495 63.3828 45.6568C62.4864 46.3718 62.4184 46.6205 62.5211 48.8058L62.6327 51.1785L65.3117 51.2871L67.9907 51.3957V48.6081C67.9907 47.075 67.8562 45.8205 67.6917 45.8205C67.5273 45.8205 67.0765 45.5892 66.6896 45.3061C66.0873 44.8657 66.0581 44.7053 66.4868 44.1887C66.7621 43.8569 66.8788 43.477 66.7462 43.3444C66.6135 43.2117 66.2754 43.4172 65.9946 43.8011C65.5611 44.3942 65.3945 44.4248 64.8897 44.0062C64.0797 43.3337 64.1429 42.5931 65.0346 42.3101C65.5523 42.1457 65.7736 41.751 65.7736 40.992C65.7736 40.0901 65.9247 39.9083 66.6734 39.9083C67.1682 39.9083 67.9996 39.746 68.5209 39.548C69.3206 39.2439 69.4688 38.9564 69.4688 37.7074C69.4688 35.933 69.5027 35.9448 63.7413 35.725C59.2409 35.5531 50.3061 33.5958 49.7736 32.665C49.5552 32.2829 48.6166 32.1484 46.1708 32.1484C42.9535 32.1484 42.8637 32.1717 42.8637 33.0098ZM43.6027 34.3655V35.8436H46.3741H49.1454V34.3655V32.8875H46.3741H43.6027V34.3655ZM49.8845 34.9032V35.8436L53.672 35.8103L57.4595 35.7767L54.9712 35.1134C53.6029 34.7487 51.8987 34.3404 51.1837 34.2063C49.9742 33.9794 49.8845 34.0274 49.8845 34.9032ZM180.397 34.4394C179.346 35.4903 179.98 36.4374 184.842 41.0807L189.746 45.764L190.604 44.6835C191.076 44.0897 191.824 43.5975 192.267 43.5901C193.049 43.5772 193.044 43.5535 192.113 42.7587C185.136 36.8062 181.666 33.996 181.293 33.996C181.044 33.996 180.641 34.1955 180.397 34.4394ZM41.3856 35.2893L40.4618 35.8174L41.6627 35.8307C42.4897 35.8395 42.8637 35.671 42.8637 35.2893C42.8637 34.609 42.5758 34.609 41.3856 35.2893ZM185.866 36.5678C186.781 37.3715 187.634 38.0363 187.764 38.0448C187.893 38.0537 188.967 38.9686 190.149 40.0782C191.333 41.1879 192.366 42.0304 192.446 41.9506C192.732 41.6646 192.108 41.0626 188.461 38.1035C184.637 35.0011 182.941 33.9971 185.866 36.5678ZM34.3648 37.8759V39.1692H38.6142H42.8637V37.8759V36.5826H38.6142H34.3648V37.8759ZM43.6027 37.8759V39.1692H46.3741H49.1454V37.8759V36.5826H46.3741H43.6027V37.8759ZM49.8845 37.8471V39.1116L59.2147 39.048L68.545 38.9845L68.6606 37.7835L68.7766 36.5826H59.3304H49.8845V37.8471ZM179.115 38.5226C178.81 38.9797 177.696 40.3354 176.64 41.5352C174.469 44.0003 173.793 45.3571 174.428 45.9731C174.73 46.2658 175.734 45.4225 178.129 42.8644C179.936 40.9337 181.419 39.1796 181.424 38.966C181.434 38.4479 180.653 37.6912 180.107 37.6912C179.866 37.6912 179.42 38.0655 179.115 38.5226ZM176.066 40.2852C175.258 41.3054 174.543 42.3445 174.478 42.5946C174.343 43.1123 177.187 40.0623 177.758 39.0768C178.525 37.7521 177.487 38.4934 176.066 40.2852ZM43.6027 41.175C43.6027 43.1156 43.7764 43.1049 46.1753 41.0201L47.4545 39.9083H46.1132C45.3753 39.9083 44.5088 39.8074 44.1873 39.684C43.7058 39.4992 43.6027 39.7627 43.6027 41.175ZM46.5758 41.5119L44.1906 43.4186L46.5263 43.5299C47.8107 43.5908 48.9348 43.5676 49.0242 43.4781C49.1136 43.3887 49.1358 42.4808 49.0737 41.4606L48.9607 39.6053L46.5758 41.5119ZM244.912 41.5892C243.278 44.2988 242.84 45.451 243.445 45.451C243.876 45.451 245.445 42.2033 245.27 41.6756C245.186 41.4247 245.033 41.3878 244.912 41.5892ZM246.4 41.9325C246.262 42.0777 245.706 43.1012 245.165 44.2065L244.182 46.2162L245.971 48.3254C246.955 49.4857 248.201 50.8714 248.739 51.405L249.719 52.3753L252.178 47.3939C253.53 44.6539 254.572 42.3478 254.493 42.2691C254.212 41.9879 246.646 41.6731 246.4 41.9325ZM268.453 42.1974C267.456 42.7628 267.171 43.2424 267.165 44.3705C267.158 45.5755 268.573 46.929 269.841 46.929C270.977 46.929 271.966 45.7259 271.957 44.3524C271.95 43.2117 271.652 42.7336 270.602 42.1808C269.617 41.6623 269.393 41.6642 268.453 42.1974ZM252.834 47.6755L250.312 52.8561L252.546 54.0707C255.085 55.4515 257.144 56.3339 257.337 56.1244C257.683 55.749 262.356 46.1516 262.356 45.8168C262.356 45.6054 261.898 45.2596 261.339 45.0475C260.78 44.8357 259.362 44.175 258.187 43.5786C257.013 42.9826 255.895 42.4949 255.704 42.4949C255.513 42.4949 254.221 44.8261 252.834 47.6755ZM43.6027 46.6404V48.9381L45.9029 46.7328C47.1682 45.5197 48.2767 44.4858 48.3665 44.4348C48.4563 44.3838 47.4209 44.3424 46.0663 44.3424H43.6027V46.6404ZM190.687 45.7281C189.38 47.3093 188.083 49.8146 188.083 50.7565C188.083 51.3152 188.439 51.381 190.947 51.2864L193.811 51.1785L193.917 47.7604L194.023 44.3424H192.927C192.112 44.3424 191.54 44.6961 190.687 45.7281ZM194.734 47.2683C194.734 48.8775 194.633 50.4572 194.51 50.7786C194.322 51.269 194.62 51.3632 196.358 51.3632H198.429V47.8528V44.3424H196.582H194.734V47.2683ZM46.5588 47.1138L44.1784 49.5156H46.6619H49.1454V47.1138C49.1454 45.7928 49.0992 44.7119 49.0423 44.7119C48.9858 44.7119 47.868 45.7928 46.5588 47.1138ZM64.6651 45.451C64.6651 45.6542 64.9145 45.8205 65.2193 45.8205C65.5242 45.8205 65.7736 45.6542 65.7736 45.451C65.7736 45.2477 65.5242 45.0815 65.2193 45.0815C64.9145 45.0815 64.6651 45.2477 64.6651 45.451ZM99.2986 47.5757C98.7724 48.9477 97.9702 51.1814 97.5157 52.5398L96.6891 55.0096L97.9521 56.6853L99.2147 58.3611L110.485 58.4176C116.684 58.4487 122.223 58.4952 122.796 58.5215C123.982 58.5754 124.059 58.4291 126.865 50.8089L128.497 46.3748L130.577 46.2639C132.096 46.183 132.656 46.0089 132.656 45.6173C132.656 45.1572 130.361 45.0815 116.456 45.0815H100.255L99.2986 47.5757ZM265.419 46.3005L264.602 46.7546L265.538 47.9504C266.672 49.3989 266.913 49.4266 267.483 48.1743C267.854 47.3625 267.823 47.0894 267.301 46.5115C266.573 45.7074 266.5 45.6993 265.419 46.3005ZM102.129 46.8367C102.017 47.1925 101.779 47.8528 101.599 48.3047C100.776 50.3733 99.3995 54.7653 99.3995 55.3248C99.3995 56.5427 100.054 55.2065 101.476 51.0879L102.91 46.9331L104.52 46.9309C105.908 46.9294 106.093 47.0181 105.865 47.5757C104.498 50.9102 102.377 57.0504 102.536 57.2097C102.925 57.5992 103.426 56.6938 104.339 53.9498C104.846 52.4256 105.605 50.2266 106.026 49.063C106.446 47.8994 106.79 46.7772 106.79 46.5688C106.79 46.3519 105.837 46.19 104.561 46.19C102.762 46.19 102.293 46.3149 102.129 46.8367ZM109.701 47.2062C109.483 47.7649 108.999 49.1369 108.626 50.2547C108.252 51.3725 107.602 53.1993 107.183 54.3142C106.764 55.429 106.42 56.5516 106.42 56.8084C106.42 57.6956 106.98 57.2714 107.388 56.0745C107.614 55.4142 108.43 53.0859 109.202 50.9013L110.605 46.929H112.023C112.803 46.929 113.441 47.089 113.441 47.2849C113.441 47.4804 112.693 49.7048 111.778 52.2275C109.987 57.1694 109.958 57.2755 110.428 57.2755C110.701 57.2755 114.55 47.1785 114.55 46.462C114.55 46.3123 113.548 46.19 112.323 46.19C110.237 46.19 110.072 46.2539 109.701 47.2062ZM117.705 46.5362C117.587 46.7269 116.76 48.93 115.868 51.4323C114.976 53.9347 114.121 56.2959 113.969 56.6791C113.769 57.1835 113.833 57.3298 114.199 57.2078C114.477 57.1151 115.475 54.806 116.417 52.0764L118.131 47.1138L119.666 47.0004C121.313 46.8784 121.429 47.0506 120.784 48.6602C119.935 50.7761 118.193 55.6389 117.994 56.4441C117.881 56.9015 117.952 57.2755 118.151 57.2755C118.557 57.2755 122.304 46.9013 122.055 46.4671C121.825 46.0647 117.958 46.1265 117.705 46.5362ZM63.5565 48.5919V50.6242H65.4041H67.2517V48.5919V46.5595H65.4041H63.5565V48.5919ZM124.748 48.13C122.013 55.5576 121.305 58.0333 122.161 57.1775C122.357 56.9817 125.11 49.5615 125.793 47.3909C126.273 45.8652 125.339 46.5255 124.748 48.13ZM173.169 47.1138C173.039 47.4515 173.168 47.6681 173.499 47.6681C173.797 47.6681 174.041 47.4186 174.041 47.1138C174.041 46.8089 173.893 46.5595 173.712 46.5595C173.53 46.5595 173.286 46.8089 173.169 47.1138ZM260.435 51.5568C257.624 57.1724 257.513 56.7847 261.986 56.9736L264.757 57.0907L266.131 54.5041C266.887 53.0815 267.508 51.7512 267.511 51.548C267.517 51.211 267.069 50.6475 264.356 47.5757C263.862 47.0166 263.335 46.5721 263.184 46.5869C263.033 46.602 261.796 48.8387 260.435 51.5568ZM17.9214 47.3754C16.7659 48.038 16.283 48.8583 16.2704 50.1808C16.2556 51.7191 17.0582 53.2928 18.2591 54.0799C19.613 54.9667 20.1233 54.8492 21.7858 53.2681C23.1135 52.0051 23.2794 51.6562 23.2794 50.1272C23.2794 47.8554 22.3892 46.925 20.2309 46.9401C19.3673 46.9464 18.3279 47.1422 17.9214 47.3754ZM243.22 49.2385C242.812 50.1024 242.568 50.9564 242.677 51.1363C242.901 51.5036 244.614 48.8487 244.617 48.13C244.621 47.1781 243.937 47.7209 243.22 49.2385ZM203.603 48.9614C203.603 49.4695 203.811 49.8948 204.065 49.9066C204.319 49.918 205.15 49.9934 205.912 50.0736C207.234 50.2125 207.298 50.1686 207.298 49.1284C207.298 48.0657 207.25 48.0376 205.45 48.0376C203.726 48.0376 203.603 48.0993 203.603 48.9614ZM129.7 56.1669C129.7 64.7467 129.757 64.9215 131.86 62.8182C133.077 61.6014 133.148 61.5932 138.383 62.0566C140.723 62.2635 141.789 62.2284 141.981 61.938C142.544 61.0807 142.244 60.6011 141.143 60.6011C140.488 60.6011 139.935 60.3709 139.81 60.0468C139.637 59.5956 138.75 59.4925 135.04 59.4925C130.395 59.4925 128.713 59.0399 131.792 58.6179C132.73 58.4893 134.971 58.384 136.772 58.384C139.436 58.384 140.046 58.2805 140.046 57.8297C140.046 57.485 140.395 57.2755 140.97 57.2755C142.165 57.2755 142.163 56.6159 140.957 53.0238C139.254 47.9496 139.899 48.4071 134.444 48.4071H129.7V56.1669ZM273.698 48.6428C273.281 49.0597 273.391 63.8525 273.813 64.113C274.018 64.2397 274.755 63.7398 275.45 63.0022L276.715 61.6612L280.344 61.8988C282.339 62.0296 284.164 62.1952 284.398 62.2672C285.039 62.4638 286.155 61.5134 285.855 61.0268C285.71 60.7925 285.186 60.6011 284.689 60.6011C284.134 60.6011 283.787 60.3883 283.787 60.0468C283.787 59.5827 283.01 59.4925 279.006 59.4925C276.375 59.4925 274.135 59.3495 274.027 59.1748C273.788 58.7871 277.379 58.384 281.07 58.384C283.239 58.384 283.787 58.272 283.787 57.8297C283.787 57.4883 284.134 57.2755 284.689 57.2755C286.237 57.2755 286.211 57.0076 284.083 50.9937L283.233 48.5919L278.594 48.4891C276.042 48.4322 273.839 48.5017 273.698 48.6428ZM130.439 52.5634V56.1883L135.335 56.0853L140.231 55.9822L140.343 55.0122C140.527 53.4307 139.126 49.7636 138.141 49.2452C137.6 48.9614 135.99 48.818 133.857 48.8646L130.439 48.9385V52.5634ZM274.404 49.3612C274.082 50.2011 274.127 56.0982 274.457 56.2552C274.61 56.328 276.813 56.2962 279.353 56.1847C283.882 55.9862 283.975 55.9648 284.097 55.095C284.276 53.8319 283.099 49.7876 282.393 49.2385C282.011 48.9414 280.518 48.7766 278.214 48.7766C275.286 48.7766 274.588 48.8838 274.404 49.3612ZM132.009 49.7765C130.878 49.9942 130.804 52.0738 131.917 52.3646C132.492 52.5154 132.656 52.8686 132.656 53.9635C132.656 55.225 132.77 55.3943 133.764 55.6126C135.254 55.94 139.677 55.4419 139.677 54.9471C139.677 54.0463 138.407 50.0492 138.041 49.7983C137.627 49.5149 133.447 49.4994 132.009 49.7765ZM275.068 50.0293C274.653 51.1105 275.082 52.2837 275.935 52.4053C276.636 52.5047 276.767 52.7507 276.767 53.9757V55.4279H280.092H283.418L283.389 54.4117C283.374 53.853 283.069 52.5641 282.712 51.548L282.063 49.7004L278.669 49.594C275.96 49.509 275.234 49.5969 275.068 50.0293ZM43.6027 52.7382V55.2217L46.0045 52.8413C47.3256 51.5321 48.4064 50.4143 48.4064 50.3578C48.4064 50.3009 47.3256 50.2547 46.0045 50.2547H43.6027V52.7382ZM46.6486 53.155C45.3801 54.3441 44.3417 55.4268 44.3417 55.5616C44.3417 55.6962 45.4226 55.783 46.7436 55.7542L49.1454 55.7021V53.3479C49.1454 52.0531 49.1029 50.9937 49.0505 50.9937C48.9984 50.9937 47.9175 51.9663 46.6486 53.155ZM240.185 51.7327C240.185 51.936 240.684 52.1022 241.293 52.1022C241.903 52.1022 242.402 51.936 242.402 51.7327C242.402 51.5295 241.903 51.3632 241.293 51.3632C240.684 51.3632 240.185 51.5295 240.185 51.7327ZM188.453 54.5041V56.9059H191.93H195.408L195.533 54.6567C195.602 53.4199 195.589 52.3391 195.504 52.2549C195.419 52.171 193.798 52.1022 191.901 52.1022H188.453V54.5041ZM196.303 52.5641C196.538 53.2814 198.429 53.3852 198.429 52.6809C198.429 52.2807 198.078 52.1022 197.29 52.1022C196.544 52.1022 196.203 52.2619 196.303 52.5641ZM131.178 54.1128C131.178 54.8123 131.344 55.487 131.547 55.6126C131.77 55.7505 131.917 55.2468 131.917 54.3411C131.917 53.5164 131.75 52.8413 131.547 52.8413C131.344 52.8413 131.178 53.4133 131.178 54.1128ZM247.44 55.5203C246.503 57.5777 246.339 58.2281 246.734 58.323C247.728 58.5617 248.321 58.0193 249.281 55.9925C250.069 54.3278 250.164 53.8438 249.791 53.3941C249.017 52.4618 248.706 52.7437 247.44 55.5203ZM274.919 54.2669C274.919 55.5291 275.628 56.2549 275.714 55.0802C275.744 54.6619 275.786 54.1253 275.806 53.8881C275.826 53.6513 275.635 53.3878 275.381 53.3032C275.079 53.2027 274.919 53.5371 274.919 54.2669ZM222.19 54.9667C220.577 56.0128 219.861 57.0992 219.861 58.5041C219.861 60.2523 222.073 62.0806 224.185 62.0777C225.465 62.0762 227.426 60.9178 228.016 59.8144C228.622 58.6822 228.628 56.5952 228.029 55.1507C227.559 54.0152 227.428 53.9502 225.637 53.9557C224.207 53.9602 223.36 54.2085 222.19 54.9667ZM196.212 54.6889C196.212 54.8921 196.711 55.0584 197.321 55.0584C197.931 55.0584 198.429 54.8921 198.429 54.6889C198.429 54.4856 197.931 54.3193 197.321 54.3193C196.711 54.3193 196.212 54.4856 196.212 54.6889ZM250.036 56.1244C249.495 57.1173 249.053 58.0319 249.053 58.1568C249.053 58.2816 251.605 58.384 254.723 58.384C259.924 58.384 260.449 58.4453 261.062 59.123C261.904 60.0535 265.327 60.1802 266.051 59.3078C266.304 59.0029 266.809 58.7535 267.174 58.7535C269.281 58.7535 269.58 57.6317 267.709 56.7441C266.368 56.1074 265.681 56.219 265.681 57.073C265.681 57.8852 264.771 58.0008 260.978 57.6705C257.851 57.3981 256.951 57.1528 254.262 55.8377C252.554 55.0026 251.125 54.3193 251.087 54.3193C251.049 54.3193 250.576 55.1315 250.036 56.1244ZM266.626 55.0247C266.512 55.2095 267.167 55.7235 268.082 56.1665C269.193 56.7042 269.746 57.2067 269.746 57.6779C269.746 58.1375 270.004 58.384 270.485 58.384C271.056 58.384 271.224 58.1375 271.224 57.3021C271.224 56.328 271.02 56.1436 269.178 55.4545C266.817 54.5714 266.898 54.5847 266.626 55.0247ZM64.8121 56.3166C64.7027 56.6018 64.6662 57.3919 64.7316 58.0718C64.8465 59.2727 64.8967 59.3078 66.5126 59.3078H68.1754L68.2881 57.5526L68.4008 55.7974H66.7059C65.5914 55.7974 64.9433 55.9751 64.8121 56.3166ZM196.212 56.3517C196.212 56.7212 196.582 56.9059 197.321 56.9059C198.06 56.9059 198.429 56.7212 198.429 56.3517C198.429 55.9822 198.06 55.7974 197.321 55.7974C196.582 55.7974 196.212 55.9822 196.212 56.3517ZM43.6027 58.684V61.0567L45.1731 59.657C46.0371 58.8873 47.1404 57.8704 47.6252 57.397L48.5073 56.5364L47.6252 56.4998C47.1404 56.4799 46.0371 56.4293 45.1731 56.3875L43.6027 56.3114V58.684ZM65.4721 57.5493C65.5441 58.1745 65.8446 58.6109 66.2569 58.6892C67.4183 58.9095 67.9112 58.5045 67.7172 57.4894C67.5705 56.7216 67.323 56.5364 66.445 56.5364C65.4747 56.5364 65.3679 56.6477 65.4721 57.5493ZM127.113 57.4602C127.113 58.2602 127.262 58.4143 127.944 58.3175C128.49 58.2399 128.776 57.9454 128.776 57.4602C128.776 56.975 128.49 56.6805 127.944 56.6029C127.262 56.5061 127.113 56.6602 127.113 57.4602ZM46.5588 59.3078L44.1784 61.7096H46.6619H49.1454V59.3078C49.1454 57.9868 49.0992 56.9059 49.0423 56.9059C48.9858 56.9059 47.868 57.9868 46.5588 59.3078ZM130.623 57.645C130.749 57.8482 131.174 58.0145 131.569 58.0145C131.964 58.0145 132.286 57.8482 132.286 57.645C132.286 57.4417 131.861 57.2755 131.341 57.2755C130.805 57.2755 130.494 57.4355 130.623 57.645ZM274.365 57.645C274.49 57.8482 274.916 58.0145 275.31 58.0145C275.705 58.0145 276.028 57.8482 276.028 57.645C276.028 57.4417 275.602 57.2755 275.082 57.2755C274.546 57.2755 274.235 57.4355 274.365 57.645ZM191.286 57.8914C191.15 58.0267 191.039 58.5255 191.039 59V59.8621H196.582C202.292 59.8621 202.512 59.7981 201.742 58.3596C201.393 57.7082 200.926 57.645 196.446 57.645C193.743 57.645 191.421 57.7558 191.286 57.8914ZM140.416 58.9383C140.416 59.6773 140.6 59.8621 141.339 59.8621C142.078 59.8621 142.263 59.6773 142.263 58.9383C142.263 58.1992 142.078 58.0145 141.339 58.0145C140.6 58.0145 140.416 58.1992 140.416 58.9383ZM284.297 58.551C284.016 59.2838 284.433 59.8621 285.241 59.8621C285.71 59.8621 285.912 59.5846 285.912 58.9383C285.912 58.2761 285.713 58.0145 285.208 58.0145C284.82 58.0145 284.41 58.2558 284.297 58.551ZM298.66 58.3958C297.462 58.8773 296.567 60.9588 296.868 62.564C297.141 64.0224 299.084 65.9809 300.644 66.3726C301.414 66.5658 301.849 66.3604 302.905 65.3047C303.968 64.2423 304.246 63.6481 304.392 62.1316C304.555 60.4296 304.472 60.1665 303.446 59.14C302.258 57.9528 300.458 57.6727 298.66 58.3958ZM80.8546 58.9641C78.816 59.5964 77.5981 60.9658 77.5981 62.626C77.5981 64.066 78.5274 64.9928 80.2516 65.2725C82.796 65.6852 84.7526 62.8315 83.977 59.8388C83.5927 58.3544 83.1866 58.2406 80.8546 58.9641ZM103.926 59.7686C106.314 59.8329 110.222 59.8329 112.61 59.7686C114.997 59.7043 113.044 59.6514 108.268 59.6514C103.492 59.6514 101.538 59.7043 103.926 59.7686ZM119.087 59.7645C120.059 59.841 121.555 59.8399 122.413 59.7627C123.27 59.6851 122.476 59.6226 120.647 59.6237C118.817 59.6248 118.116 59.6884 119.087 59.7645ZM124.291 60.0468C124.107 60.5242 122.363 60.6011 111.707 60.6011H99.3359L99.4601 62.1715C99.5284 63.0355 99.735 63.851 99.919 63.9844C100.103 64.1174 100.788 63.6603 101.441 62.9682C102.973 61.3435 105.198 61.1923 106.622 62.6168L107.529 63.5236L108.436 62.6168C109.773 61.2795 111.885 61.3645 113.441 62.8182C114.706 63.9995 116.397 64.3169 116.397 63.3725C116.397 62.9135 117.095 62.8182 120.462 62.8182C123.828 62.8182 124.526 62.9135 124.526 63.3725C124.526 63.8037 125.019 63.9267 126.744 63.9267H128.961V61.7096V59.4925H126.732C125.092 59.4925 124.447 59.6389 124.291 60.0468ZM266.42 60.0468C266.03 60.5176 264.242 60.6011 254.551 60.6011H243.141L243.146 61.4325C243.153 62.6988 243.554 63.9267 243.959 63.9267C244.159 63.9267 244.788 63.4279 245.358 62.8182C246.706 61.3756 248.876 61.2747 250.398 62.5847C251.404 63.4497 251.422 63.4512 252.004 62.7328C252.377 62.2724 253.224 61.9347 254.316 61.8116C255.877 61.6357 256.147 61.7259 257.193 62.772C258.417 63.9958 260.138 64.3465 260.138 63.3725C260.138 62.9135 260.837 62.8182 264.203 62.8182C267.451 62.8182 268.268 62.9228 268.268 63.3381C268.268 63.7083 268.864 63.895 270.332 63.9847C271.467 64.0546 272.465 64.042 272.549 63.9574C272.633 63.8728 272.702 62.8337 272.702 61.6479V59.4925H269.791C267.654 59.4925 266.758 59.64 266.42 60.0468ZM183.905 60.6011C181.24 60.7966 180.266 61.465 179.728 63.4648C179.215 65.3701 180.834 67.7054 182.961 68.1311C183.593 68.2574 189.987 68.3609 197.169 68.3609H210.228L211.534 67.2139C212.682 66.2063 212.841 65.8563 212.841 64.3269C212.841 62.8677 212.658 62.4117 211.708 61.5016L210.575 60.4163H198.497C191.855 60.4163 185.288 60.4995 183.905 60.6011ZM34.3648 60.9706C34.3648 61.1738 34.7391 61.3627 35.1962 61.3904C38.547 61.5921 39.1685 61.5445 39.1685 61.0859C39.1685 60.7356 38.5027 60.6011 36.7667 60.6011C35.4117 60.6011 34.3648 60.7622 34.3648 60.9706ZM157.368 61.8153C156.041 62.9368 155.566 63.9777 155.566 65.7684C155.566 68.3206 157.109 70.4343 159.576 71.2601C161.092 71.7671 161.882 71.3104 163.401 69.0493C165.819 65.4484 163.939 60.9972 160 60.9972C158.822 60.9972 158.055 61.2355 157.368 61.8153ZM181.6 62.2473C180.328 63.5188 180.359 65.458 181.666 66.4864C182.612 67.2302 183.039 67.2524 196.365 67.2524C211.38 67.2524 211.419 67.2468 211.848 65.1036C212.165 63.5177 211.763 62.4838 210.595 61.8796C209.736 61.4355 207.161 61.3401 196.029 61.3401H182.507L181.6 62.2473ZM56.1662 65.0353V68.3609H59.3071H62.448V65.0353V61.7096H59.3071H56.1662V65.0353ZM63.5565 65.0353C63.5565 67.7449 63.6592 68.3609 64.1108 68.3609C64.5439 68.3609 64.6662 67.8554 64.6706 66.0514C64.6739 64.7814 64.7984 63.5502 64.9477 63.3163C65.097 63.082 65.8845 62.8326 66.6974 62.762L68.1754 62.6342L68.2833 65.4975C68.3798 68.0572 68.4681 68.3609 69.1148 68.3609C69.7795 68.3609 69.8383 68.0908 69.8383 65.0353V61.7096H66.6974H63.5565V65.0353ZM34.5278 62.4077C34.4491 62.4871 34.4735 62.6948 34.5814 62.8696C34.8452 63.2967 39.1685 63.279 39.1685 62.8511C39.1685 62.5277 34.8204 62.1124 34.5278 62.4077ZM182.043 62.755C181.271 63.6086 181.256 65.1757 182.012 65.9328C182.7 66.6198 184.425 66.6977 185.053 66.0699C185.79 65.3327 185.607 62.9035 184.782 62.4616C183.716 61.8914 182.729 61.9971 182.043 62.755ZM186.051 64.2962V66.5133H196.397H206.744V64.2962V62.0792H196.397H186.051V64.2962ZM207.861 62.581C207.06 63.1666 206.94 65.0829 207.651 65.9395C208.223 66.629 210.011 66.697 210.548 66.0492C211.404 65.0186 211.45 63.6448 210.656 62.8503C209.764 61.9583 208.835 61.8689 207.861 62.581ZM43.6027 63.0029C43.6027 63.4464 44.157 63.5572 46.3741 63.5572C48.5912 63.5572 49.1454 63.4464 49.1454 63.0029C49.1454 62.5595 48.5912 62.4487 46.3741 62.4487C44.157 62.4487 43.6027 62.5595 43.6027 63.0029ZM102.013 63.4223C101.592 63.9578 101.247 64.8021 101.247 65.2984C101.247 66.4165 103.124 68.3609 104.203 68.3609C105.23 68.3609 107.159 66.4343 107.159 65.4089C107.159 64.515 106.514 63.1393 105.903 62.7313C105.679 62.5821 104.885 62.4575 104.138 62.4542C103.106 62.4501 102.594 62.6829 102.013 63.4223ZM108.664 63.4223C107.201 65.2828 108.074 67.6466 110.415 68.1606C111.413 68.3801 111.76 68.2508 112.701 67.31C114.064 65.9472 114.134 64.5856 112.903 63.3558C111.632 62.0843 109.693 62.1146 108.664 63.4223ZM132.514 63.0126C131.244 64.2826 131.096 64.9935 131.802 66.418C133.058 68.9488 136.084 68.7855 136.964 66.1394C137.323 65.0611 137.29 64.6695 136.761 63.742C136.246 62.837 135.853 62.6131 134.623 62.5222C133.604 62.4468 132.921 62.6057 132.514 63.0126ZM245.854 63.3968C245.09 64.161 244.95 64.5737 245.131 65.5216C245.384 66.8404 246.887 68.3609 247.937 68.3609C249.197 68.3609 250.901 66.5736 250.901 65.2514C250.901 62.6704 247.742 61.5094 245.854 63.3968ZM252.406 63.4223C251.333 64.7866 251.444 66.0053 252.763 67.3241C253.686 68.2475 254.087 68.4075 255.011 68.2223C257.352 67.7542 258.393 64.7389 256.743 63.2021C255.532 62.0732 253.381 62.1826 252.406 63.4223ZM276.042 63.2575C273.639 65.8364 277.213 69.8804 279.848 67.5635C282.089 65.5932 281.096 62.4487 278.232 62.4487C277.23 62.4487 276.568 62.6933 276.042 63.2575ZM98.1572 63.3725C98.0289 63.7069 98.1553 63.9267 98.4757 63.9267C98.796 63.9267 98.9224 63.7069 98.7942 63.3725C98.6771 63.0676 98.5337 62.8182 98.4757 62.8182C98.4177 62.8182 98.2743 63.0676 98.1572 63.3725ZM137.46 63.3725C137.46 63.8081 137.973 63.9267 139.861 63.9267C142.384 63.9267 143.073 63.4419 141.108 63.0491C139.024 62.6323 137.46 62.7709 137.46 63.3725ZM253.335 63.9552C252.367 65.1055 252.394 65.9602 253.425 66.7905C254.372 67.5539 255.634 67.3344 256.32 66.2861C256.882 65.4284 256.894 65.2145 256.422 64.3846C256.129 63.8706 255.523 63.3159 255.075 63.1522C254.425 62.915 254.074 63.0765 253.335 63.9552ZM281.457 63.0543C280.903 63.6093 281.759 63.9267 283.809 63.9267C285.912 63.9267 286.658 63.5173 285.42 63.0425C284.646 62.7458 281.757 62.7543 281.457 63.0543ZM102.479 64.154C101.911 65.0194 101.902 65.2223 102.389 66.0939C103.137 67.4331 105.007 67.6278 105.83 66.452C106.618 65.3283 106.575 64.8383 105.611 63.9411C104.492 62.8984 103.246 62.9834 102.479 64.154ZM109.376 63.9267C108.487 64.8162 108.452 65.3457 109.213 66.4309C109.852 67.3433 111.631 67.5543 112.242 66.7905C113.076 65.7477 113.116 64.7105 112.351 63.9456C111.393 62.9871 110.323 62.98 109.376 63.9267ZM132.898 63.8635C131.523 65.3822 132.457 67.2524 134.59 67.2524C135.734 67.2524 136.351 66.5987 136.351 65.3882C136.351 63.4896 134.125 62.5071 132.898 63.8635ZM182.591 63.8318C182.09 64.7681 182.619 65.4961 183.691 65.3446C184.352 65.2511 184.573 64.9887 184.573 64.2962C184.573 63.1271 183.147 62.7927 182.591 63.8318ZM208.208 63.9696C207.871 65.0301 208.984 65.999 209.78 65.3386C210.535 64.7112 210.212 63.3928 209.27 63.2586C208.71 63.1788 208.391 63.392 208.208 63.9696ZM241.663 63.5572C241.663 63.7604 241.912 63.9267 242.217 63.9267C242.522 63.9267 242.771 63.7604 242.771 63.5572C242.771 63.354 242.522 63.1877 242.217 63.1877C241.912 63.1877 241.663 63.354 241.663 63.5572ZM246.553 63.9249C245.577 64.8346 245.528 65.325 246.303 66.4309C247.127 67.6089 248.851 67.5347 249.669 66.2861C250.236 65.4203 250.245 65.2182 249.758 64.3461C249.061 63.0972 247.642 62.9109 246.553 63.9249ZM276.603 64.0091C276.287 64.4607 276.028 65.0999 276.028 65.4299C276.028 66.2975 277.229 67.2524 278.321 67.2524C279.48 67.2524 280.185 66.4594 280.185 65.1554C280.185 63.2834 277.674 62.4797 276.603 64.0091ZM65.6284 64.1418C65.505 64.4633 65.4041 65.5441 65.4041 66.5436C65.4041 68.3166 65.4311 68.3609 66.5126 68.3609H67.6212V65.9591C67.6212 63.6721 67.579 63.5572 66.7369 63.5572C66.2506 63.5572 65.7518 63.8203 65.6284 64.1418ZM117.136 64.481C117.136 65.3978 117.161 65.4048 120.462 65.4048C123.763 65.4048 123.787 65.3978 123.787 64.481C123.787 63.5642 123.763 63.5572 120.462 63.5572C117.161 63.5572 117.136 63.5642 117.136 64.481ZM260.878 64.481C260.878 65.3978 260.902 65.4048 264.203 65.4048C267.504 65.4048 267.529 65.3978 267.529 64.481C267.529 63.5642 267.504 63.5572 264.203 63.5572C260.902 63.5572 260.878 63.5642 260.878 64.481ZM34.3648 64.481C34.3648 64.9167 34.8781 65.0353 36.7667 65.0353C38.6553 65.0353 39.1685 64.9167 39.1685 64.481C39.1685 64.0453 38.6553 63.9267 36.7667 63.9267C34.8781 63.9267 34.3648 64.0453 34.3648 64.481ZM103.109 64.4633C102.351 65.3771 102.797 66.3286 103.983 66.3286C105.308 66.3286 106.036 65.3531 105.338 64.512C104.73 63.7808 103.695 63.7582 103.109 64.4633ZM109.76 64.6392C109.192 65.7008 109.673 66.5133 110.869 66.5133C111.597 66.5133 111.986 66.2839 112.153 65.7566C112.647 64.2002 110.526 63.2091 109.76 64.6392ZM133.41 64.4633C132.7 65.318 133.101 66.3153 134.204 66.4431C135.511 66.5946 136.266 65.3719 135.4 64.5065C134.676 63.7826 133.987 63.7678 133.41 64.4633ZM183.309 64.5117C183.326 64.9422 183.414 65.0297 183.532 64.7352C183.639 64.4684 183.625 64.1495 183.503 64.0269C183.38 63.9042 183.293 64.1222 183.309 64.5117ZM187.714 64.2962C187.714 64.4995 188.056 64.6658 188.474 64.6658C188.893 64.6658 189.132 64.4995 189.007 64.2962C188.881 64.093 188.539 63.9267 188.246 63.9267C187.953 63.9267 187.714 64.093 187.714 64.2962ZM190.854 64.2962C190.729 64.4995 190.969 64.6658 191.387 64.6658C191.805 64.6658 192.148 64.4995 192.148 64.2962C192.148 64.093 191.908 63.9267 191.615 63.9267C191.322 63.9267 190.98 64.093 190.854 64.2962ZM194.18 64.2962C194.054 64.4995 194.304 64.6658 194.734 64.6658C195.165 64.6658 195.414 64.4995 195.289 64.2962C195.163 64.093 194.914 63.9267 194.734 63.9267C194.555 63.9267 194.306 64.093 194.18 64.2962ZM197.321 64.2962C197.321 64.4995 197.57 64.6658 197.875 64.6658C198.18 64.6658 198.429 64.4995 198.429 64.2962C198.429 64.093 198.18 63.9267 197.875 63.9267C197.57 63.9267 197.321 64.093 197.321 64.2962ZM200.462 64.2962C200.336 64.4995 200.576 64.6658 200.994 64.6658C201.413 64.6658 201.755 64.4995 201.755 64.2962C201.755 64.093 201.516 63.9267 201.223 63.9267C200.93 63.9267 200.587 64.093 200.462 64.2962ZM203.603 64.2962C203.603 64.4995 203.945 64.6658 204.364 64.6658C204.782 64.6658 205.022 64.4995 204.896 64.2962C204.77 64.093 204.428 63.9267 204.135 63.9267C203.842 63.9267 203.603 64.093 203.603 64.2962ZM247.082 64.1732C246.947 64.3084 246.836 64.8904 246.836 65.4665C246.836 66.3781 246.976 66.5133 247.92 66.5133C249.155 66.5133 249.784 65.3612 249.038 64.4633C248.575 63.9049 247.509 63.7468 247.082 64.1732ZM253.644 64.8295C253.349 66.0038 253.692 66.5133 254.778 66.5133C255.811 66.5133 256.363 65.2743 255.69 64.4633C254.987 63.6167 253.9 63.8114 253.644 64.8295ZM277.151 64.4633C276.906 64.7585 276.814 65.3405 276.946 65.7566C277.266 66.7657 279.187 66.8197 279.447 65.8268C279.851 64.2792 278.145 63.2657 277.151 64.4633ZM41.972 64.9C41.8704 65.1646 41.9048 65.4473 42.0485 65.5282C42.1919 65.6091 44.2771 65.7067 46.6822 65.7451C50.7192 65.8098 51.0451 65.764 50.9265 65.148C50.8119 64.5523 50.3353 64.4777 46.4775 64.45C43.2476 64.4271 42.1099 64.5405 41.972 64.9ZM114.55 65.519C114.55 65.9883 114.305 66.6948 114.007 67.0894C113.709 67.4837 113.459 67.9315 113.453 68.0838C113.446 68.236 117.617 68.3609 122.721 68.3609H132.002L131.463 67.5295C131.167 67.072 130.813 66.2406 130.675 65.6819C130.429 64.685 130.372 64.6658 127.626 64.6658C125.138 64.6658 124.805 64.7478 124.634 65.4048C124.456 66.0862 124.13 66.1438 120.462 66.1438C116.794 66.1438 116.468 66.0862 116.29 65.4048C116.005 64.3169 114.55 64.4126 114.55 65.519ZM258.183 65.6819C258.077 66.2406 257.872 67.072 257.728 67.5295L257.466 68.3609H266.571H275.677L275.113 67.2708C274.803 66.6711 274.55 65.8397 274.55 65.4233C274.55 64.7219 274.327 64.6658 271.559 64.6658C268.879 64.6658 268.548 64.7426 268.375 65.4048C268.197 66.0865 267.871 66.1438 264.16 66.1438C260.969 66.1438 260.138 66.0374 260.138 65.6291C260.138 65.1565 259.392 64.6658 258.672 64.6658C258.509 64.6658 258.288 65.1232 258.183 65.6819ZM34.3648 66.1438C34.3648 66.3522 35.4117 66.5133 36.7667 66.5133C38.1217 66.5133 39.1685 66.3522 39.1685 66.1438C39.1685 65.9354 38.1217 65.7743 36.7667 65.7743C35.4117 65.7743 34.3648 65.9354 34.3648 66.1438ZM40.0443 66.6903C39.9257 66.9996 39.9257 67.5051 40.0443 67.8144C40.229 68.2962 41.325 68.362 47.7468 68.2763L55.2339 68.1762L55.2384 67.2524L55.2424 66.3286L47.7512 66.2284C41.3254 66.1427 40.229 66.2085 40.0443 66.6903ZM34.3648 67.8066C34.3648 68.2423 34.8781 68.3609 36.7667 68.3609C38.6553 68.3609 39.1685 68.2423 39.1685 67.8066C39.1685 67.371 38.6553 67.2524 36.7667 67.2524C34.8781 67.2524 34.3648 67.371 34.3648 67.8066ZM107.044 67.4911C106.562 67.9729 106.792 68.3609 107.559 68.3609C107.99 68.3609 108.265 68.1673 108.183 67.9223C108.003 67.3821 107.386 67.1485 107.044 67.4911ZM250.541 67.7944C250.139 68.2796 250.214 68.3609 251.071 68.3609C251.678 68.3609 252.013 68.1887 251.925 67.9223C251.695 67.2335 251.056 67.1744 250.541 67.7944Z" fill="black"/>
</svg>
