<svg width="571" height="405" viewBox="0 0 571 405" fill="none" xmlns="http://www.w3.org/2000/svg">
<g clip-path="url(#clip0_2234_1345)">
<path fill-rule="evenodd" clip-rule="evenodd" d="M292.672 2.48871C285.411 6.17376 281.584 10.4048 280.932 15.4652C280.461 19.1166 279.48 20.6016 273.853 26.1802C269.291 30.7005 266.245 34.8258 263.767 39.8419C259.298 48.8856 259.512 52.608 265.046 62.0793C267.212 65.7826 269.198 70.6364 269.537 73.048C270.85 82.4181 277.978 90.0353 284.502 89.0396C286.353 88.7579 288.774 88.2553 289.88 87.9227C291.773 87.3557 291.989 87.9236 293.427 97.244C297.42 123.114 297.496 123.99 295.999 126.42C288.832 138.06 289.08 137.457 290.276 140.343C291.218 142.615 291.134 143.561 289.791 145.833C288.231 148.471 288.265 148.817 290.649 154.68C296.078 168.044 300.06 172.228 308.537 173.478C314.067 174.294 331.481 172.397 337.745 170.295L342.555 168.683L352.366 151.49L362.177 134.296L360.789 130.36C358.76 124.612 357.183 122.577 351.326 118.156C342.928 111.815 335.081 111.167 329.959 116.392C328.481 117.898 326.745 119.142 326.1 119.156C325.454 119.172 322.535 120.24 319.612 121.533L314.299 123.883L314.306 119.851C314.312 117.634 314.958 110.413 315.741 103.805C316.524 97.1969 317.17 91.3367 317.174 90.7813C317.179 90.2266 319.668 89.2539 322.708 88.6205C328.423 87.4296 339.545 82.2203 344.549 78.391L347.409 76.2034L356.824 79.3742C368.851 83.4255 379.97 89.3586 387.966 95.9983C395.05 101.877 396.693 104.894 400.322 118.683C401.576 123.452 405.133 134.791 408.225 143.883L413.851 160.413L410.063 161.053C405.189 161.876 401.817 165.452 401.599 170.024C401.508 171.929 401.392 174.321 401.337 175.338C401.265 176.722 399.968 177.54 396.181 178.594C391.553 179.881 390.853 179.858 387.975 178.308C384.989 176.699 384.668 176.697 381.617 178.275C378.744 179.759 378.316 179.779 377.572 178.452C376.25 176.087 360.68 176.834 356.963 179.438C355.436 180.511 351.888 182.141 349.078 183.062C344.874 184.441 343.222 184.55 339.761 183.679C333.641 182.138 330.783 182.366 327.914 184.623C325.759 186.318 324.58 186.528 320.262 185.99C316.813 185.558 314.701 185.731 313.75 186.521C312.756 187.344 310.861 187.46 307.313 186.912C304.547 186.484 299.905 186.191 296.999 186.259C271.111 186.866 268.563 187.064 265.499 188.7C259.478 191.917 248.031 194.122 237.289 194.14C228.992 194.15 226.213 194.536 222.466 196.193C218.548 197.926 216.796 198.138 210.83 197.597C204.336 197.009 203.347 197.176 197.777 199.819C192.566 202.293 189.988 202.812 178.685 203.669C171.498 204.213 164.362 205.164 162.826 205.779C159.437 207.137 147.08 208.563 134.082 209.096C128.796 209.312 120.417 209.94 115.462 210.489C106.863 211.444 106.12 211.373 99.1223 208.943C93.5178 206.998 88.735 206.195 78.8159 205.537C64.7369 204.602 62.509 204.181 52.3842 200.538C45.658 198.118 45.6514 198.116 25.4719 198.984C14.3706 199.458 3.99015 200.261 2.40425 200.766C0.381024 201.408 2.55708 201.522 9.6994 201.146L19.877 200.609L18.6083 208.015C17.9116 212.088 17.0897 215.826 16.7841 216.32C15.8614 217.813 13.5767 217.341 11.4516 215.216C10.0877 213.851 8.73729 213.389 7.22924 213.767C5.44437 214.215 4.89461 213.854 4.41018 211.928C3.9815 210.217 3.19625 209.564 1.66512 209.644C0.259918 209.717 0.0542308 209.897 1.06921 210.168C1.9208 210.395 3.12031 211.688 3.73641 213.039C4.61202 214.961 5.34057 215.374 7.08507 214.936C8.68924 214.532 9.94355 215.046 11.5621 216.768C12.927 218.222 14.4514 218.957 15.4452 218.641C16.3448 218.356 18.1999 218.632 19.5657 219.255C21.4716 220.124 22.3684 220.124 23.414 219.255C25.2028 217.772 31.5406 219.162 35.3498 221.874C36.9011 222.978 40.2861 224.388 42.8737 225.005C45.461 225.623 48.4436 226.475 49.5007 226.902C50.558 227.326 52.9369 227.897 54.7871 228.17C62.1217 229.246 64.3986 229.987 64.3986 231.287C64.3986 232.031 65.4127 233.103 66.6516 233.667C69.8128 235.107 68.9478 238.918 65.0004 240.943C63.3481 241.789 60.9645 243.287 59.7035 244.269C58.4424 245.252 55.9347 246.056 54.1287 246.056C50.8916 246.056 44.5442 248.627 45.4774 249.56C45.7417 249.824 47.2748 249.361 48.8827 248.529C50.4918 247.698 53.2599 247.016 55.0331 247.016C56.9641 247.016 59.565 246.053 61.5153 244.613C63.3067 243.293 65.4454 242.188 66.2671 242.162C67.0898 242.133 71.2228 240.267 75.4519 238.013C80.9506 235.082 83.0604 233.453 82.8586 232.295C82.6625 231.169 83.2479 230.672 84.7808 230.663C90.2133 230.625 90.841 226.306 85.5671 225.251C82.0309 224.543 81.9023 223.719 85.0634 222.028C86.6916 221.155 87.4663 219.926 87.4663 218.211C87.4663 216.821 87.9892 215.16 88.6283 214.522C89.5377 213.612 89.3541 213.053 87.7873 211.954C86.6849 211.184 85.545 209.64 85.2547 208.527C84.7598 206.638 84.9905 206.547 88.7389 207.167C90.9466 207.533 94.9153 208.652 97.5585 209.653C100.202 210.655 105.824 212.311 110.053 213.333C114.282 214.354 120.261 216.067 123.338 217.139C127.183 218.479 130.193 218.914 132.957 218.536C135.72 218.158 139.221 218.666 144.144 220.161C151.814 222.491 153.116 222.541 185.504 221.778C199.443 221.449 203.42 221.023 208.725 219.289C213.993 217.567 216.882 217.253 225.064 217.507C234.541 217.801 235.324 217.671 241.888 214.696C245.674 212.982 250.215 211.553 251.981 211.521C253.744 211.49 258.077 211.21 261.612 210.9L268.035 210.334L272.292 214.259C275.139 216.884 277.466 218.202 279.325 218.243C285.425 218.379 293.12 220.672 295.753 223.139C297.23 224.524 299.521 225.963 300.842 226.342C302.164 226.72 304.931 228.352 306.991 229.972C309.309 231.794 311.95 232.961 313.914 233.029C315.75 233.093 318.048 234.038 319.361 235.273C322.423 238.151 323.839 237.997 321.104 235.084C318.943 232.784 318.942 232.754 320.858 231.728C324.59 229.731 333.986 227.792 340.21 227.737C343.668 227.705 348.66 227.305 351.302 226.848C354.164 226.352 358.662 226.393 362.419 226.952C366.824 227.605 371.47 227.541 377.799 226.739C386.539 225.633 398.723 225.394 399.637 226.309C399.881 226.552 398.946 228.101 397.558 229.749C394.418 233.48 394.386 235.999 397.406 241.403L399.776 245.644L397.069 249.732C395.581 251.98 393.86 256.073 393.242 258.827C392.22 263.402 391.729 264.046 387.615 266.24C384.432 267.937 382.297 270.035 380.346 273.382C376.707 279.63 372.469 284.497 366.603 289.168C363.966 291.268 361.242 294.044 360.55 295.336C359.857 296.63 357.831 298.385 356.043 299.236C354.029 300.198 351.26 303.081 348.758 306.822C346.537 310.141 342.742 314.339 340.323 316.153C336.301 319.167 335.14 319.515 326.794 320.191C313.873 321.24 258.745 321.158 254.707 320.086C252.857 319.593 249.562 318.666 247.382 318.021C244.027 317.029 241.371 317.178 229.99 318.992C219.297 320.698 214.618 321.001 207.039 320.482C198.084 319.868 197.005 320.004 188.869 322.739C184.111 324.339 177.839 326.064 174.931 326.575C169.791 327.476 169.754 327.504 173.563 327.627C178.172 327.775 180.769 330.179 182.396 335.799C183.276 338.837 183.204 339.931 182.005 341.761C181.197 342.994 180.464 346.041 180.376 348.532C180.225 352.834 180.367 353.099 183.19 353.852C187.076 354.885 190.152 360.98 188.419 364.216C187.806 365.364 187.429 367.266 187.582 368.438C187.745 369.678 186.928 371.505 185.627 372.803C183.59 374.841 183.424 375.722 183.727 382.793C183.945 387.796 183.693 390.668 183.019 390.895C182.444 391.087 178.63 388.8 174.539 385.813C165.77 379.41 163.21 378.672 150.264 378.809C144.891 378.864 140.026 378.622 139.451 378.265C138.877 377.91 138.407 376.349 138.407 374.793C138.407 373.239 137.975 371.967 137.446 371.967C136.918 371.967 136.485 370.745 136.485 369.251C136.485 367.578 135.537 365.646 134.018 364.216C131.977 362.3 131.655 361.34 132.157 358.668C132.596 356.329 132.313 354.935 131.135 353.635C130.003 352.384 129.683 350.95 130.087 348.93C130.557 346.584 130.238 345.745 128.428 344.559C126.812 343.501 126.31 342.445 126.63 340.773C126.874 339.497 126.38 337.465 125.532 336.255C123.575 333.461 123.563 330.241 125.5 328.302C127.452 326.35 138.321 326.327 143.694 328.262C147.91 329.781 157.336 329.97 164.839 328.683C168.382 328.077 167.125 327.993 160.057 328.362C150.502 328.86 150.477 328.857 152.22 326.93C158.111 320.419 158.137 302.439 152.263 296.92C150.661 295.416 148.782 294.835 145.353 294.783C139.137 294.688 134.828 296.585 132.914 300.257C130.992 303.939 130.149 316.407 131.492 321.272C132.23 323.945 132.196 324.865 131.361 324.853C128.937 324.819 113.637 330.016 109.092 332.419C104.695 334.746 103.388 334.955 93.7138 334.873C85.422 334.801 81.7993 334.316 76.9206 332.628C68.8479 329.832 66.1403 329.588 40.3698 329.338C22.302 329.165 17.7366 329.406 12.6223 330.808C7.22059 332.291 6.11719 332.33 3.25102 331.131C1.46328 330.386 0.00136749 330.132 0.00136749 330.569C0.00136749 331.006 1.35371 331.925 3.00593 332.609C5.50109 333.643 6.76597 333.622 10.4549 332.485C15.3731 330.971 45.1035 330.318 48.6405 331.647C52.4543 333.078 56.3653 347.966 53.503 350.157C52.1478 351.194 47.7206 358.413 43.0967 367.123C42.1258 368.953 41.3224 371.765 41.3127 373.371C41.2963 375.942 40.5495 376.727 35.0768 379.928L28.8591 383.564L20.4374 382.135C10.2146 380.399 -2.23427 379.266 2.88482 380.536C4.73505 380.996 11.2228 382.101 17.3021 382.991C30.4623 384.92 33.6418 385.976 33.6418 388.415C33.6418 389.41 35.1344 391.178 36.9942 392.383C39.0751 393.73 40.3505 395.328 40.3582 396.595C40.367 398.09 41.7058 399.294 45.3813 401.114C48.1369 402.479 50.5687 403.419 50.7838 403.203C50.9992 402.988 49.176 401.84 46.7337 400.654C43.5147 399.091 42.292 397.931 42.292 396.445C42.292 395.132 40.9984 393.56 38.6877 392.067C36.6704 390.764 34.9508 388.809 34.7826 387.626C34.6163 386.465 33.5917 385.232 32.5048 384.886C30.8218 384.352 31.4368 383.683 36.6511 380.374C50.384 371.656 57.7013 370.061 66.2172 373.924L70.4395 375.84L73.7902 373.863C76.4237 372.309 78.0393 372.02 81.3419 372.516C83.6534 372.862 85.5441 373.341 85.5441 373.58C85.5441 373.819 84.2907 375.068 82.7596 376.356C81.2275 377.646 78.6323 380.791 76.9927 383.346C74.5657 387.128 74.0101 388.996 74.0101 393.373C74.0101 396.333 74.4321 399.864 74.9474 401.22C76.2824 404.729 78.6073 404.335 79.3312 400.474C80.0885 396.436 86.065 388.463 89.8692 386.411C91.4551 385.557 93.7195 382.961 94.9008 380.639C96.083 378.32 97.472 376.161 97.9881 375.844C99.105 375.153 115.391 376.994 126.874 379.11C132.066 380.067 140.57 380.614 150.206 380.616H165.368L166.305 383.082C166.82 384.438 167.242 386.827 167.242 388.39C167.242 389.953 168.315 392.845 169.625 394.814C172.057 398.472 178.553 404.229 179.349 403.432C179.591 403.189 178.247 401.815 176.362 400.379C171.455 396.634 168.203 391.053 168.203 386.37V382.475L174.594 387.312C178.109 389.974 181.281 392.151 181.645 392.151C182.009 392.151 183.425 394.747 184.794 397.917C186.162 401.089 187.814 403.685 188.464 403.685C189.286 403.685 189.197 403.173 188.169 402.003C187.358 401.077 186.371 399.239 185.98 397.917C185.59 396.597 184.797 394.927 184.221 394.21C183.413 393.202 184.098 392.044 187.236 389.116C189.472 387.032 191.675 385.56 192.136 385.844C193.663 386.788 193.886 392.417 192.569 396.789C191.135 401.562 190.847 405.537 192.177 402.244C194.089 397.503 195.005 391.273 194.202 388.472L193.356 385.524L198.717 384.413L204.079 383.3L207.046 386.829C210.746 391.228 212.086 390.793 215.624 384.035C218.921 377.735 221.101 376.77 232.024 376.779C247.057 376.787 250.27 379.01 250.586 389.608C250.698 393.385 251.471 398.206 252.3 400.32L253.812 404.165L253.207 400.802C252.875 398.952 252.47 394.579 252.308 391.086C251.779 379.708 247.812 375.819 236.716 375.804C231.287 375.797 231.11 375.712 229.066 372.131C227.743 369.815 225.33 367.603 222.518 366.129L218.063 363.797L218.671 359.649C219.239 355.793 219.04 355.276 215.849 352.264C213.874 350.404 212.403 348.082 212.386 346.801C212.37 345.576 211.72 343.734 210.944 342.709C210.168 341.681 209.533 338.983 209.533 336.712C209.533 332.955 209.194 332.37 205.768 330.207C202.873 328.38 202.121 327.377 202.518 325.865C202.799 324.783 202.469 323.222 201.782 322.394C200.666 321.047 201.176 320.958 206.716 321.534C212.204 322.105 213.205 322.544 215.633 325.445C217.139 327.244 218.932 328.716 219.619 328.716C221.438 328.716 226.834 335.19 226.834 337.374C226.834 338.471 228.015 339.849 229.704 340.723C231.397 341.599 232.837 343.281 233.219 344.832C233.574 346.275 235.84 349.308 238.256 351.57C241.863 354.951 243.109 355.583 245.244 355.114C248.855 354.322 254.643 360.409 254.68 365.044C254.711 368.638 258.629 372.846 261.994 372.896C263.141 372.916 264.561 373.986 265.325 375.412C266.056 376.779 267.858 378.52 269.332 379.282C272.656 381.002 272.659 381.765 269.364 387.089L266.722 391.36L261.435 390.884C258.527 390.622 255.283 390.115 254.227 389.758C252.331 389.119 252.331 389.132 254.17 390.631C255.287 391.542 257.865 392.151 260.6 392.151C263.112 392.151 265.425 392.568 265.74 393.078C266.056 393.591 265.432 395.735 264.356 397.847C263.278 399.958 262.415 402.244 262.436 402.925C262.488 404.517 265.814 398.463 267.3 394.074C269.378 387.924 277.839 374.969 282.499 370.796C285.027 368.532 288.84 365.708 290.972 364.52L294.849 362.359L294.904 366.375C294.94 368.882 294.26 371.374 293.095 373.009C292.071 374.448 291.23 376.507 291.23 377.585C291.23 378.661 290.85 379.778 290.388 380.063C289.924 380.35 289.072 382.463 288.495 384.757C287.915 387.053 286.126 390.59 284.517 392.615C280.477 397.698 277.453 402.724 278.067 403.337C278.349 403.619 279.102 402.84 279.739 401.605C280.374 400.37 282.62 397.045 284.725 394.217C286.832 391.387 288.984 387.496 289.509 385.565C290.031 383.637 291.12 381.317 291.924 380.413C292.729 379.507 293.136 378.113 292.829 377.314C292.519 376.507 293.336 374.6 294.668 373.016C296.413 370.943 296.902 369.515 296.465 367.772C295.687 364.677 296.638 361.758 298.717 360.86C299.621 360.47 305.336 359.815 311.414 359.408C321.129 358.755 323.197 358.898 328.476 360.589C334.034 362.368 334.483 362.723 334.483 365.317C334.483 368.554 336.164 368.953 339.788 366.58C341.948 365.164 342.721 365.167 349.288 366.629C353.706 367.612 357.898 369.28 360.266 370.994C363.766 373.53 364.751 373.76 371.636 373.647C379.722 373.514 384.935 375.191 392.398 380.325C395.38 382.377 395.804 383.055 394.837 384.22C393.897 385.353 393.99 385.867 395.312 386.834C397.683 388.568 397.424 388.916 392.873 390.124C389.453 391.034 388.05 392.226 384.264 397.446C381.776 400.879 380.106 403.685 380.552 403.685C380.996 403.685 383.247 401.08 385.554 397.897C388.17 394.29 390.653 391.908 392.152 391.574C393.474 391.282 395.533 390.566 396.727 389.987L398.9 388.932L396.885 386.788L394.871 384.643L396.853 384.015C397.943 383.669 400.034 381.933 401.501 380.161C404.142 376.964 404.286 376.921 417.476 375.396C431.273 373.801 433.489 373.162 435.596 370.179C438.752 365.708 446.477 363.817 449.45 366.789C451.036 368.375 453.139 368.896 459.892 369.373C469.32 370.038 471.184 369.464 473.384 365.21C474.738 362.591 475.281 362.356 479.926 362.356C484.565 362.356 485.309 362.033 488.717 358.543C495.766 351.322 504.648 349.47 509.111 354.288C510.976 356.3 511.945 356.655 514.027 356.095C515.454 355.71 519.779 355.196 523.64 354.953C536.025 354.173 538.673 358.468 531.039 366.959C528.318 369.985 526.714 372.671 526.714 374.202C526.714 376.315 526.039 376.832 521.624 378.117C518.823 378.93 515.504 380.691 514.246 382.029C512.116 384.297 511.349 384.461 502.949 384.461C493.761 384.461 491.056 385.225 485.373 389.426C483.55 390.775 480.612 391.339 473.359 391.731C458.722 392.527 458.237 392.67 453.311 397.665C450.863 400.149 448.859 402.568 448.859 403.041C448.859 403.516 450.936 401.691 453.475 398.989C456.012 396.285 458.932 394.067 459.962 394.058C460.993 394.049 466.597 393.648 472.415 393.166C482.144 392.361 483.461 392.008 488.756 388.782L494.515 385.273L502.819 385.892C511.037 386.506 511.156 386.482 514.373 383.656C516.162 382.088 519.777 380.177 522.409 379.414C526.546 378.213 527.237 377.655 527.515 375.3C527.693 373.783 529.72 370.42 532.08 367.72C534.466 364.994 536.325 361.899 536.325 360.655C536.325 358.802 536.612 358.596 538.102 359.392C539.078 359.915 542.429 360.793 545.551 361.34C548.669 361.888 553.385 362.937 556.029 363.669C558.671 364.4 563.214 365.253 566.12 365.563C569.963 365.974 570.62 365.897 568.523 365.285C562.25 363.449 544.38 359.449 542.496 359.46C541.397 359.467 538.487 358.138 536.027 356.509C532.213 353.983 530.6 353.531 525.049 353.431C521.472 353.367 516.865 353.685 514.814 354.136C511.497 354.868 510.89 354.702 509.342 352.65C506.642 349.071 499.695 349.406 493.229 353.426C490.499 355.121 488.267 356.015 488.267 355.413C488.267 354.81 489.823 349.098 491.725 342.718C494.253 334.245 495.857 330.503 497.68 328.839C499.054 327.586 501.067 323.909 502.152 320.669C503.939 315.333 504.535 314.582 508.451 312.699C514.865 309.618 524.516 308.541 546.696 308.435C557.644 308.382 567.606 308.057 568.836 307.713C573.774 306.332 524.255 307.645 516.621 309.097C511.454 310.082 503.416 310.541 492.112 310.499C479.466 310.453 473.621 310.838 468.563 312.057C460.781 313.93 456.57 314.103 444.286 313.06C435.79 312.339 435.287 312.403 433.186 314.501C431 316.683 430.786 316.701 403.638 316.792C379.656 316.872 375.053 317.14 366.2 318.953C354.66 321.317 351.194 321.477 345.647 319.902C340.053 318.314 339.709 317.697 343.083 315.295C344.721 314.128 347.55 310.846 349.37 308.002C351.19 305.156 354.344 301.777 356.382 300.492C358.418 299.206 360.812 297.042 361.704 295.682C364.657 291.175 373.222 285.463 377.028 285.463C379.747 285.463 380.942 284.842 382.707 282.508C383.936 280.883 386.514 277.769 388.434 275.587C391.911 271.637 391.936 271.628 395.642 272.831C398.728 273.835 400.554 273.785 406.391 272.544C410.259 271.719 414.557 271.045 415.942 271.045C417.326 271.045 419.476 270.09 420.718 268.925C422.818 266.95 423.187 266.9 426.065 268.192C429.344 269.662 442.542 270.074 447.118 268.847C448.727 268.417 450.499 266.738 451.81 264.403C453.177 261.973 455.255 260.048 457.707 258.943C462.131 256.947 464.239 254.319 464.239 250.8C464.239 248.543 464.768 248.165 469.361 247.138C479.841 244.791 481.539 244.112 481.539 242.256C481.539 241.212 483.539 239.032 486.346 237.016C488.988 235.118 491.15 233.125 491.15 232.59C491.15 232.053 493.638 230.031 496.678 228.095C499.718 226.16 503.773 223.269 505.689 221.669C508.696 219.162 509.838 218.798 514.002 219.019C516.657 219.16 519.069 218.889 519.361 218.415C519.654 217.94 524.63 217.749 530.419 217.988C539.073 218.345 541.342 218.143 543.174 216.859C544.88 215.665 547.893 215.276 556.002 215.203C569.237 215.084 574.035 214.024 565.64 213.076C562.468 212.718 557.494 211.92 554.587 211.307C547.101 209.722 539.383 209.985 525.752 212.284C519.051 213.415 514.558 213.678 515.343 212.893C515.611 212.625 519.088 211.994 523.072 211.49C527.056 210.984 531.777 209.733 533.561 208.711C535.345 207.687 539.324 206.554 542.4 206.191C545.478 205.828 549.558 204.88 551.465 204.083C553.38 203.283 556.15 202.877 557.644 203.174C559.133 203.472 560.354 203.294 560.354 202.78C560.354 201.365 552.93 201.656 549.972 203.185C548.545 203.924 544.782 204.834 541.61 205.207C538.439 205.583 534.457 206.682 532.762 207.653C531.067 208.623 526.348 209.881 522.273 210.448C518.2 211.014 514.278 211.967 513.558 212.564C511.945 213.903 499.006 213.085 495.952 211.451C494.794 210.832 491.511 210.472 488.654 210.65C484.303 210.921 483.459 210.711 483.461 209.36C483.461 207.688 485.893 204.727 487.263 204.727C489.113 204.727 489.117 200.341 487.268 198.495C485.668 196.893 485.059 196.777 483.463 197.772C482.419 198.425 480.719 198.959 479.684 198.959C478.651 198.959 477.218 199.794 476.504 200.812C475.791 201.835 474.003 202.969 472.533 203.339C471.063 203.708 468.487 205.406 466.808 207.112C465.131 208.82 462.759 210.739 461.541 211.378C460.322 212.018 458.995 213.432 458.592 214.522C458.023 216.061 456.813 216.593 453.171 216.907L448.485 217.308L451.305 214.622C452.859 213.144 456.727 210.638 459.905 209.051C464.688 206.664 465.764 205.672 466.165 203.283C466.549 201.001 467.2 200.338 469.291 200.097C471.561 199.835 471.85 199.463 471.345 197.456C471.024 196.17 471.082 194.361 471.479 193.435C472.665 190.652 472.89 183.297 471.825 182.015C470.249 180.116 475.809 177.814 481.971 177.814C484.906 177.814 487.306 178.246 487.306 178.775C487.306 179.303 487.955 179.736 488.747 179.736C489.541 179.736 490.189 179.303 490.189 178.775C490.189 177.197 495.204 177.678 499.32 179.651C501.434 180.664 505.524 182.025 508.405 182.675C515.065 184.177 522.698 187.581 525.615 190.347C527.456 192.095 528.036 192.247 528.723 191.162C530.011 189.128 529.758 188.018 528.284 189.242C527.278 190.075 526.657 189.952 525.64 188.719C524.428 187.247 524.617 187.155 527.793 187.665C531.643 188.286 537.287 185.642 537.287 183.217C537.287 182.473 537.94 181.613 538.737 181.308C539.533 181.001 540.668 179.695 541.256 178.403C541.845 177.111 543.08 175.857 544 175.616C545.042 175.344 545.934 173.804 546.357 171.547C547.203 167.035 550.193 164.433 554.587 164.384C557.31 164.353 558.268 163.789 559.615 161.422C560.705 159.507 562.95 157.805 566.125 156.485C568.791 155.378 570.773 154.272 570.53 154.029C569.515 153.014 559.549 158.508 558.942 160.416C558.463 161.93 557.508 162.435 555.132 162.435C553.388 162.435 550.882 163.285 549.563 164.322L547.164 166.21L546.605 158.315C545.581 143.842 542.96 139.368 535.504 139.368C531.204 139.368 530.812 139.154 529.31 136.004L527.706 132.639H506.564C485.423 132.639 485.42 132.639 484.927 130.477C484.658 129.287 483.88 125.719 483.202 122.547L481.969 116.78H474.785C470.835 116.78 461.093 117.099 453.136 117.487L438.668 118.192L433.432 106.003C427.912 93.1533 421.84 82.2645 417.401 77.25C415.936 75.5959 411.496 72.1809 407.53 69.6608C403.565 67.1407 399.424 64.2725 398.327 63.2875L396.334 61.4959L398.819 56.3527C403.551 46.5644 404.523 46.3241 418.784 51.4219C428.265 54.81 433.407 55.5012 437.503 53.9363C438.727 53.4692 442.426 50.679 445.721 47.736C453.013 41.2232 456.324 40.3543 465.198 42.6284C476.517 45.5282 480.044 44.7285 488 37.4574C490.876 34.8296 493.95 32.6035 494.833 32.5113C495.716 32.4181 502.276 32.3104 509.413 32.2709C521.831 32.2019 522.63 32.0759 528.03 29.3394C532.855 26.8953 534.036 25.7438 536.161 21.41C538.161 17.3328 539.112 16.3399 541.019 16.3399C545.117 16.3399 557.132 9.71273 561.371 5.11457C563.551 2.75014 565.117 0.599071 564.853 0.334754C564.589 0.0704368 562.552 1.82934 560.327 4.2428C556.061 8.87076 544.496 15.3787 540.537 15.3787C538.794 15.3787 537.726 16.4725 535.845 20.1816C533.267 25.2728 529.094 28.561 522.448 30.7437C519.711 31.6424 515.525 31.8087 507.315 31.3455C494.348 30.612 493.557 30.8532 485.864 37.889C480.192 43.0762 476.478 44.0529 469.054 42.3064C455.967 39.2269 451.014 40.2707 444.055 47.5755C437.062 54.9119 433.093 55.3752 419.344 50.4608C404.834 45.2745 402.748 45.6848 398.793 54.4986L396.031 60.6548L391.929 58.3172C389.674 57.0312 383.394 54.1218 377.975 51.8517C372.557 49.5814 368.123 47.338 368.123 46.8661C368.123 46.3933 369.19 44.6074 370.496 42.8957C371.802 41.1847 373.54 38.1793 374.361 36.2174C375.811 32.743 375.918 32.6843 378.475 33.9732C379.918 34.6999 383.046 35.5534 385.424 35.8676C388.313 36.2492 389.11 36.1559 387.827 35.588C386.769 35.1198 384.748 34.7066 383.335 34.669C381.922 34.6326 379.435 33.482 377.809 32.1134C375.463 30.1401 374.851 29.948 374.851 31.1838C374.851 32.8467 371.287 40.1333 368.396 44.3747L366.65 46.9392L353.361 41.251C346.053 38.1226 339.252 35.563 338.25 35.563C334.457 35.563 310.062 24.9288 307.88 22.3231C305.975 20.048 298.378 18.9657 297.173 20.7968C288.194 34.4365 287.75 36.4069 288.92 57.4321L289.789 73.0509L285.575 73.0498C279.426 73.0469 273.994 71.1256 270.636 67.7636C266.529 63.6536 261.435 53.7325 261.435 49.8456C261.437 44.0095 266.625 34.9737 274.424 27.2259C280.374 21.3138 281.621 19.5454 281.626 17.0069C281.637 11.6149 285.546 7.2666 294.595 2.57906C297.238 1.21036 298.968 0.0810095 298.44 0.0694757C297.91 0.0589031 295.316 1.14693 292.672 2.48871ZM436.67 5.28758C431.31 10.7325 425.383 13.4564 418.893 13.4564C415.976 13.4564 415.219 13.8178 415.219 15.2144C415.219 17.6384 409.838 25.5449 406.639 27.8238C405.191 28.8561 401.877 30.8254 399.28 32.1999C396.68 33.5753 395.637 34.4172 396.959 34.0713C398.279 33.7262 400.72 32.665 402.379 31.7145C405.344 30.0152 405.48 30.0267 410.193 32.3594C420.29 37.3564 435.048 36.2098 443.989 29.7335C448.108 26.7492 448.147 26.7415 454.19 27.8823C466.547 30.2142 481.823 24.4655 487.641 15.2951C489.288 12.701 489.852 12.4943 495.331 12.4857C499.491 12.4789 502.669 11.8128 506.055 10.2356C510.867 7.99419 517.816 1.30936 516.55 0.13964C516.18 -0.201569 515.691 0.0387187 515.465 0.673079C514.416 3.60171 510.849 6.82446 506.069 9.16295C501.802 11.2515 499.805 11.6562 495.106 11.3851C489.47 11.0603 489.316 11.1179 487.099 14.4176C480.278 24.5597 460.058 30.9157 450.643 25.8775C449.303 25.1604 447.832 25.7322 444.074 28.4322C438.415 32.4979 432.144 34.6017 425.687 34.6017C419.314 34.6017 411.812 32.8611 409.253 30.7888L407.109 29.053L410.582 25.2095C412.491 23.0958 414.595 19.8711 415.255 18.044C416.324 15.0933 416.866 14.7059 420.117 14.5781C425.512 14.3666 433.723 10.3557 438.199 5.74316C440.363 3.51425 442.131 1.31032 442.131 0.845126C442.131 -0.295763 442.301 -0.433208 436.67 5.28758ZM24.5108 12.1656C17.0839 13.0969 9.5533 14.5387 4.90517 15.9189C-3.60392 18.4458 -0.000553911 18.3958 10.0445 15.8478C31.0091 10.5297 54.1605 13.9168 69.1919 24.501C76.4621 29.62 80.9603 34.8633 85.5441 43.5617C87.3942 47.0727 89.4387 50.1523 90.0865 50.404C90.7352 50.6569 93.2947 49.3141 95.7754 47.4208C110.005 36.5596 121.33 35.7859 133.901 44.817C142.501 50.9962 143.595 51.1778 151.864 47.811C157.522 45.506 160.932 44.7872 167.723 44.4652C175.461 44.098 176.826 44.298 180.662 46.3558C183.185 47.708 186.767 51.0078 189.356 54.3641C192.61 58.5836 195.263 60.8249 199.527 62.9558C202.7 64.5418 206.384 66.5919 207.713 67.5127C210.969 69.7675 214.339 75.9795 214.339 79.7298C214.339 83.8215 215.731 86.1802 219.206 87.9775C220.916 88.8617 222.948 91.2311 224.191 93.7886C226.68 98.9116 228.298 99.4959 237.588 98.6329C246.006 97.8504 250.58 99.0558 254.416 103.066C256.65 105.403 257.505 107.284 257.746 110.409L258.07 114.61L250.572 118.979C239.414 125.48 234.373 124.973 224.912 116.4C215.668 108.024 208.816 107.195 196 112.901C178.512 120.687 177.413 121.059 171.827 121.083C163.12 121.119 159.751 119.19 149.931 108.548C140.075 97.8668 136.786 96.1455 129.817 98.0215C126.247 98.9828 118.366 104.445 115.463 107.97C113.661 110.157 107.902 110.01 104.08 107.68C102.317 106.606 99.9441 103.733 98.5551 100.992C95.3651 94.695 90.6574 89.4182 86.7915 87.8027C85.0816 87.0885 81.3986 86.5655 78.6064 86.6405L73.5297 86.777L79.9251 87.4307C87.9362 88.2496 90.4997 89.9258 95.1411 97.3824C97.176 100.65 99.5797 104.343 100.483 105.588C102.022 107.708 108.742 111.426 111.12 111.473C111.708 111.484 115.322 108.94 119.152 105.818C132.666 94.8036 138.951 96.0465 151.813 112.277C155.693 117.174 161.202 120.614 167.365 121.991C173.059 123.261 178.899 121.799 191.27 116.006C202.58 110.709 203.775 110.341 209.547 110.386C214.976 110.428 220.314 112.894 224.43 117.261C230.102 123.28 237.278 125.655 243.374 123.532C248.675 121.685 248.941 121.704 248.941 123.932C248.941 124.959 249.344 126.048 249.84 126.353C250.391 126.695 250.415 125.782 249.901 123.989C249.176 121.458 249.376 120.879 251.405 119.646C252.693 118.862 254.843 117.553 256.183 116.736C258.597 115.265 258.639 115.293 260.572 119.659C262.226 123.402 262.429 125.263 261.919 131.958C261.296 140.116 259.357 147.114 257.228 148.881C256.556 149.439 252.793 150.568 248.868 151.389C243.26 152.561 240.084 153.978 234.042 158.006C226.109 163.294 219.576 165.938 212.898 166.559L209.053 166.918L212.962 167.08C219.106 167.333 225.909 164.804 234.555 159.05C238.943 156.13 243.433 153.538 244.534 153.29C245.635 153.042 248.7 152.377 251.342 151.812C259.903 149.984 261.826 146.68 262.863 132.039C263.43 124.01 263.275 122.773 261.018 117.41C259.66 114.188 258.552 110.272 258.552 108.708C258.552 104.811 253.399 99.4979 248.286 98.1205C245.835 97.4613 241.167 97.2939 236.09 97.6841L227.865 98.3157L226.148 95.0939C224.279 91.5838 220.58 87.5623 217.772 85.9861C216.532 85.2901 215.765 83.289 215.233 79.3722C214.189 71.684 210.928 67.8 201.451 62.9558C196.964 60.6625 193.133 57.9483 191.957 56.2278C188.464 51.1211 184.157 46.9776 180.218 44.9351C174.505 41.9749 164.061 42.2842 155.228 45.6771C144.136 49.937 143.066 49.8909 135.7 44.8391C127.184 38.9991 123.238 37.4833 116.572 37.4949C110.129 37.5054 102.852 40.4773 96.4751 45.7041C94.2501 47.5275 91.7636 49.019 90.9495 49.019C90.0778 49.019 88.1718 46.3615 86.3063 42.5438C79.4243 28.4639 63.6759 17.1463 46.6173 14.0197C37.7987 12.404 28.6956 11.6398 24.5108 12.1656ZM295.077 27.0279C292.986 30.2622 290.984 34.4538 290.631 36.3406C289.473 42.5092 291.111 70.2942 293.614 86.9846C294.963 95.9714 296.925 109.562 297.978 117.186C299.031 124.81 300.067 131.223 300.281 131.437C300.495 131.652 301.723 130.28 303.009 128.388C305.327 124.977 305.336 124.875 304.078 116.059C299.791 85.9668 296.84 55.056 296.842 40.2034C296.842 32.1883 297.391 30.0672 301.594 21.8665C301.798 21.4696 301.27 21.1457 300.422 21.1457C299.573 21.1457 297.166 23.7927 295.077 27.0279ZM301.85 24.9249C298.069 30.2352 297.58 36.4808 299.314 57.3417C301.161 79.5598 303.361 100.706 304.749 109.572C305.288 113.008 305.95 117.246 306.221 118.989L306.715 122.158L309.659 119.006C312.927 115.507 313.52 112.053 316.699 77.9431C317.969 64.3014 317.984 61.9667 316.801 60.6423C315.013 58.6412 314.779 56.9889 315.677 52.6772C316.242 49.9562 315.805 47.2631 313.807 41.1435C310.144 29.9353 306.565 22.1069 305.102 22.1069C304.417 22.1069 302.954 23.3756 301.85 24.9249ZM310.683 27.1183C311.091 28.3465 336.517 39.6152 337.243 38.8896C338.137 37.9946 335.909 36.6067 328.71 33.5773C313.959 27.3701 310.333 26.0707 310.683 27.1183ZM315.115 40.3611C318.376 50.4627 318.654 50.9452 321.457 51.3682C323.07 51.6123 331.399 52.7598 339.962 53.92C354.789 55.9279 355.657 55.949 358.068 54.3698C359.461 53.4567 360.455 52.585 360.277 52.4331C360.1 52.2802 354.915 49.9696 348.758 47.2986C342.601 44.6266 336.708 41.7085 335.663 40.8138C334.278 39.6277 313.034 29.796 311.857 29.796C311.773 29.796 313.24 34.5498 315.115 40.3611ZM390.951 35.2381C391.612 35.5052 392.693 35.5052 393.353 35.2381C394.015 34.9718 393.474 34.7537 392.152 34.7537C390.83 34.7537 390.289 34.9718 390.951 35.2381ZM338.403 39.0068C338.449 40.1265 338.678 40.3543 338.985 39.5882C339.261 38.8944 339.227 38.0647 338.908 37.7457C338.589 37.4266 338.362 37.9937 338.403 39.0068ZM340.03 39.8027C339.548 42.3285 338.763 41.9133 365.72 53.3846C371.535 55.8587 378.225 58.7536 380.585 59.8177C384.482 61.5728 396.841 65.3655 398.627 65.3539C399.981 65.3453 393.638 60.5356 389.269 58.2577C384.746 55.8999 341.977 37.4853 341.022 37.4853C340.721 37.4853 340.275 38.5281 340.03 39.8027ZM316.749 54.6371C314.808 60.7519 321.411 63.8834 352.446 71.5659C384.723 79.5549 400.727 88.6994 411.815 105.487C413.3 107.734 414.634 109.572 414.782 109.572C415.424 109.572 405.958 83.758 404.807 82.371C403.009 80.2037 403.792 77.4298 406.306 77.0703C407.961 76.8339 408.545 77.3567 408.977 79.4732C410.45 86.6771 420.284 114.056 421.862 115.339C422.87 116.161 424.347 119.777 425.296 123.749C426.211 127.582 427.125 130.717 427.328 130.717C427.53 130.717 428.97 127.906 430.527 124.47C432.258 120.654 433.946 118.222 434.863 118.222C435.689 118.222 436.365 117.878 436.365 117.458C436.365 117.037 434.176 111.739 431.503 105.684C415.708 69.9233 409.371 66.2304 347.458 56.7324C318.861 52.3447 317.505 52.2524 316.749 54.6371ZM359.317 54.7188L357.078 56.5324L360.919 57.1956C363.031 57.5609 367.758 58.4585 371.422 59.1909C375.087 59.9233 378.232 60.3761 378.411 60.1983C378.589 60.0195 376.455 58.9843 373.668 57.8992C370.883 56.813 367.017 55.2444 365.08 54.415C361.784 53.003 361.413 53.0223 359.317 54.7188ZM319.104 64.6283C319.104 65.9864 329.377 69.6531 345.536 74.0628C362.642 78.7323 375.433 84.4337 385.094 91.6962C393.624 98.108 406.033 111.596 412.593 121.586C415.717 126.344 418.393 130.358 418.538 130.507C419.284 131.266 415.278 114.351 414.242 112.368C412.277 108.603 406.502 100.716 402.803 96.748C393.388 86.6473 375.169 78.2968 350.343 72.7038C341.672 70.7498 325.677 65.9949 320.307 63.7728C319.645 63.4998 319.104 63.8843 319.104 64.6283ZM318.635 76.6523C318.282 81.2782 317.766 85.8649 317.491 86.8453C317.038 88.4514 317.404 88.5638 321.17 87.9756C328.398 86.8473 345.8 77.9142 344.589 75.9545C344.321 75.519 341.829 74.6213 339.051 73.9592C336.275 73.2969 331.008 71.7399 327.347 70.499C323.686 69.2571 320.373 68.2422 319.984 68.2422C319.595 68.2422 318.988 72.0271 318.635 76.6523ZM0.510779 73.048C0.811621 75.4268 2.48211 79.9681 4.22275 83.14C6.58335 87.4392 7.51951 90.5313 7.90108 95.288C8.87281 107.397 16.0036 118.236 26.165 123.05C29.1897 124.482 35.3805 126.434 39.922 127.388C46.9922 128.872 49.2047 128.961 55.3061 128.012C63.9449 126.67 72.137 123.887 77.0781 120.617L80.7517 118.186L83.8563 122.589C87.6317 127.946 93.8339 132.201 100.827 134.235C107.918 136.296 118.694 135.608 123.47 132.789C125.403 131.65 127.144 130.717 127.34 130.717C127.535 130.717 129.21 133.205 131.062 136.244C137.301 146.487 144.232 151.154 154.747 152.197C159.996 152.718 159.987 152.711 153.585 151.375C150.038 150.636 145.916 149.399 144.423 148.627C140.843 146.775 133.604 138.956 130.734 133.841C129.474 131.594 128.132 129.756 127.753 129.756C127.374 129.756 124.75 130.833 121.923 132.149C115.471 135.153 108.301 135.294 99.5471 132.59C93.0958 130.597 87.621 126.367 83.0431 119.835L81.1419 117.123L73.9718 120.967C66.8928 124.762 55.6032 127.834 48.7337 127.834C44.2644 127.834 31.1524 124.382 26.4562 121.97C16.8235 117.022 10.1233 107.045 8.96027 95.9177L8.35282 90.1113L13.2297 93.4666C15.9123 95.311 20.8834 97.5728 24.2772 98.4916C31.8309 100.536 35.3498 99.9448 55.7482 93.2015C63.4134 90.6678 70.55 88.3898 71.6073 88.1409C73.3027 87.742 73.3211 87.6747 71.7591 87.5768C70.7846 87.5152 63.4318 89.6018 55.4196 92.2132C33.4083 99.3864 31.4427 99.6863 23.0767 97.145C11.9898 93.777 4.94747 86.1811 1.40561 73.7679L-0.0351562 68.7227L0.510779 73.048ZM270.715 73.4419C271.599 79.2127 274.392 84.1156 278.099 86.4069C281.815 88.7042 283.853 88.8887 288.32 87.3306L291.464 86.2349L290.836 80.892C290.49 77.9537 290.056 75.3979 289.873 75.2134C289.689 75.0289 287.214 74.6839 284.377 74.4455C281.539 74.208 277.168 72.9998 274.665 71.762L270.111 69.5099L270.715 73.4419ZM404.646 79.0331C404.646 79.7587 405.06 80.7669 405.567 81.2725C406.072 81.7782 408.894 89.1097 411.84 97.5641C414.782 106.018 417.407 113.538 417.669 114.275C417.933 115.011 418.361 115.401 418.62 115.142C418.88 114.882 416.589 107.143 413.531 97.9437C410.472 88.7445 407.979 80.5748 407.99 79.7894C408.001 79.0033 407.253 78.2151 406.329 78.0363C405.387 77.8547 404.646 78.293 404.646 79.0331ZM397.918 106.46C397.918 107.955 401.028 116.749 401.892 117.693C403.18 119.105 402.905 116.733 401.167 111.42C399.761 107.121 397.918 104.308 397.918 106.46ZM402.982 113.054C403.656 114.575 404.903 117.117 405.751 118.703C406.6 120.289 409.151 126.993 411.423 133.601C413.692 140.209 415.614 145.716 415.688 145.839C415.765 145.962 417.205 145.542 418.891 144.906C421.738 143.831 421.912 143.509 421.342 140.357C420.745 137.04 406.395 114.141 403.31 111.582C401.895 110.408 401.867 110.543 402.982 113.054ZM335.928 114.149C334.874 114.402 332.928 115.457 331.604 116.493C329.09 118.46 328.289 121.32 327.149 132.399L326.53 138.406H342.367H358.203L359.269 136.066C360.962 132.353 358.318 125.145 354.029 121.771C352.789 120.795 351.235 119.473 350.578 118.832C347.632 115.967 339.365 113.323 335.928 114.149ZM419.305 118.367C419.58 119.609 421.034 124.883 422.536 130.087C424.98 138.557 425.344 139.25 426.004 136.702C427.112 132.424 422.966 116.91 420.591 116.453C419.157 116.177 418.904 116.554 419.305 118.367ZM402.83 119.118C401.769 119.774 403.062 124.593 409.464 143.827C418.911 172.21 418.161 170.128 418.927 170.11C422.365 170.028 421.999 168.129 413.933 144.187C409.435 130.832 405.394 119.546 404.953 119.105C404.511 118.663 403.556 118.669 402.83 119.118ZM457.99 119.105L452.224 119.664L449.942 125.429C446.408 134.359 444.781 145.207 445.441 155.452C446.081 165.384 447.15 169.163 449.316 169.163C451.056 169.163 451.066 169.076 449.792 165.723C446.135 156.105 446.811 138.737 451.277 127.583C453.612 121.748 454.008 121.301 457.325 120.752C459.277 120.43 462.713 120.161 464.959 120.155C468.781 120.145 469.043 120.315 469.029 122.788C469.022 124.241 468.558 126.08 468.001 126.872C467.222 127.978 467.075 127.586 467.368 125.19L467.75 122.067H461.616H455.48L453.632 126.244C448.567 137.695 447.478 155.833 451.296 165.199L453.011 169.406L458.765 168.804C461.93 168.473 465.735 168.202 467.22 168.202H469.919L468.619 164.516C465.923 156.872 464.055 137.445 466.016 137.445C466.465 137.445 467.106 141.662 467.439 146.817C467.998 155.384 469.776 164.538 471.395 167.155C471.759 167.745 474.908 168.202 478.601 168.202C484.59 168.202 485.209 168.015 485.739 166.04C487.252 160.392 485.629 140.929 482.43 126.392C480.471 117.494 481.386 118.204 472.103 118.384C467.512 118.473 461.163 118.797 457.99 119.105ZM304.883 128.398C300.269 135.388 298.984 138.067 299.482 139.669C300.749 143.742 308.658 158.784 309.234 158.209C310.636 156.806 313.045 134.574 312.601 127.113C312.342 122.752 311.86 119.194 311.532 119.206C311.204 119.219 308.21 123.355 304.883 128.398ZM439.96 119.894L434.426 120.24L431.969 125.091C425.778 137.307 423.367 160.598 427.134 171.806L428.83 176.853H438.365C445.357 176.853 447.896 176.532 447.887 175.651C447.88 174.991 447.005 171.677 445.942 168.288C441.858 155.258 442.914 138.292 448.684 124.229L450.754 119.183L448.124 119.365C446.679 119.465 443.005 119.703 439.96 119.894ZM321.987 121.677C315.357 124.61 313.823 125.627 314.116 126.891C314.278 127.596 314.449 130.725 314.492 133.842L314.572 139.51L319.482 138.842C324.972 138.095 325.861 137.281 325.727 133.12C325.675 131.534 326.053 128.196 326.565 125.702C327.818 119.593 327.443 119.263 321.987 121.677ZM0.0071344 123.876C-0.00536058 126.619 4.17758 131.808 7.95203 133.734C10.5423 135.056 14.9166 135.992 20.8968 136.504C28.3813 137.145 30.5372 137.712 33.4677 139.813C46.9508 149.471 45.9176 148.981 52.7332 148.954C56.2499 148.94 63.425 147.85 68.7239 146.524C81.7945 143.255 93.5169 142.473 99.3981 144.477C101.872 145.32 108.086 148.911 113.208 152.457C126.308 161.528 131.359 163.672 139.499 163.621C143.12 163.598 151.196 162.825 157.444 161.904L168.805 160.226L178.979 163.313C189.625 166.541 198.714 168.202 205.208 168.107C210.687 168.026 208.466 167.468 198.343 166.382C193.509 165.863 184.944 164.034 179.308 162.316L169.061 159.194L156.858 160.837C134.308 163.871 130.269 163.063 115.072 152.466C97.9804 140.551 93.9369 139.89 70.3127 145.159C51.475 149.362 47.342 149.047 39.304 142.806C31.8213 136.994 28.291 135.523 21.8329 135.523C11.5631 135.523 5.08972 132.308 1.51326 125.431C0.687632 123.845 0.010979 123.145 0.0071344 123.876ZM433.963 125.293C433.146 126.539 431.371 131.838 430.019 137.067C427.871 145.37 427.621 147.918 428.051 157.149C428.322 162.964 429.027 169.344 429.617 171.326L430.688 174.93H437.955C444.511 174.93 445.15 174.766 444.492 173.248C442.884 169.542 441.246 157.63 441.22 149.46C441.191 140.509 442.442 134.762 445.892 127.998C446.997 125.835 447.899 123.832 447.899 123.547C447.899 123.261 445.096 123.028 441.673 123.028C436.195 123.028 435.269 123.3 433.963 125.293ZM434.001 127.113C430.497 135.504 429.212 142.862 429.26 154.265C429.289 160.609 429.833 167.637 430.472 169.884L431.633 173.969H437.364C440.515 173.969 443.093 173.86 443.093 173.729C443.093 173.596 442.452 170.46 441.667 166.76C440.884 163.06 440.247 155.491 440.251 149.94C440.258 140.265 441.428 134.796 445.443 125.671C446.099 124.18 445.564 123.989 440.743 123.989C435.517 123.989 435.255 124.11 434.001 127.113ZM294.219 132.266L290.957 137.723L296.105 148.156C300.825 157.722 301.478 158.591 303.948 158.591H306.642L304.333 154.025C299.334 144.144 296.877 137.306 297.891 136.087C298.481 135.373 298.597 133.28 298.178 130.853L297.478 126.809L294.219 132.266ZM249.093 129.756C249.093 131.078 249.31 131.619 249.576 130.957C249.844 130.297 249.844 129.216 249.576 128.555C249.31 127.894 249.093 128.434 249.093 129.756ZM420.386 131.648C420.736 133.482 421.432 135.391 421.933 135.892C422.449 136.408 422.397 135.174 421.813 133.038C420.497 128.216 419.555 127.3 420.386 131.648ZM245.417 136.922C241.499 142.165 236.637 144.445 229.005 144.621C223.652 144.744 222.641 145.094 219.865 147.781C214.641 152.837 203.49 156.638 193.818 156.657C187.595 156.669 183.768 155.19 178.885 150.887C175.257 147.687 174.884 147.627 170.126 149.46C166.081 151.018 167.602 151.345 171.908 149.845C174.678 148.879 175.247 149.057 178.471 151.887C180.412 153.592 183.424 155.581 185.163 156.308C194.082 160.034 213.672 155.527 220.598 148.155C222.905 145.701 223.984 145.212 226.093 145.67C230.966 146.728 239.194 144.289 243.319 140.564C245.408 138.675 247.564 136.3 248.106 135.284C249.899 131.936 248.513 132.781 245.417 136.922ZM486.346 137.595V140.629L507.204 139.963C518.678 139.596 528.177 139.186 528.312 139.05C528.448 138.914 528.311 137.849 528.005 136.682C527.454 134.579 527.283 134.562 506.897 134.562H486.346V137.595ZM315.02 140.991C314.001 141.257 313.338 142.35 313.338 143.763C313.338 145.825 313.762 146.096 317.002 146.096C319.819 146.096 321.306 145.428 323.429 143.212L326.192 140.329L321.447 140.44C318.836 140.502 315.944 140.75 315.02 140.991ZM325.438 143.286C322.556 146.711 322.412 148.177 324.408 153.833C327.315 162.071 329.907 166.17 333.201 167.733C339.102 170.533 341.581 167.991 352.689 147.753L356.764 140.329H342.344H327.927L325.438 143.286ZM495.39 142.002L487.614 142.324L487.689 155.104L487.766 167.884L494.505 167.578C498.21 167.411 509.368 167.107 519.299 166.906C535.924 166.566 537.429 166.675 538.282 168.267C538.791 169.219 539.208 170.891 539.208 171.983C539.208 173.451 539.825 173.969 541.569 173.969C544.639 173.969 545.394 170.232 544.76 158.139C544.216 147.714 542.007 141.963 538.352 141.446C536.537 141.189 536.184 141.458 536.673 142.731C537.012 143.617 537.551 145.971 537.87 147.962C538.425 151.436 538.321 151.607 535.344 152.203C528.526 153.567 527.997 153.277 527.354 147.852C526.475 140.436 524.669 139.472 525.003 146.596L525.272 152.343L520.558 152.642C515.533 152.961 514.26 152.088 514.234 148.303C514.225 147.138 513.716 145.084 513.103 143.738C512.12 141.581 511.461 141.313 507.575 141.486C505.151 141.593 499.666 141.826 495.39 142.002ZM514.4 142.916C514.664 144.25 515.631 144.647 518.566 144.623C520.667 144.606 522.732 145.038 523.151 145.584C523.572 146.132 523.788 145.502 523.631 144.173C523.381 142.029 522.849 141.739 518.703 141.474C514.651 141.216 514.1 141.4 514.4 142.916ZM527.328 142.732C527.702 143.708 529.233 144.173 532.073 144.173C535.404 144.173 536.152 143.877 535.711 142.732C535.337 141.755 533.806 141.29 530.965 141.29C527.634 141.29 526.887 141.586 527.328 142.732ZM291.23 146.576C290.251 147.757 290.317 148.018 291.594 148.018C292.451 148.018 293.154 147.369 293.154 146.576C293.154 145.783 292.99 145.134 292.79 145.134C292.592 145.134 291.889 145.783 291.23 146.576ZM418.295 146.288C416.547 148.037 416.854 150.014 420.42 159.994C423.391 168.306 423.548 169.252 422.101 170.096C420.713 170.907 420.77 171.031 422.547 171.057C424.513 171.085 424.575 170.75 424.192 162.195C423.558 148.026 423.037 145.134 421.119 145.134C420.201 145.134 418.93 145.653 418.295 146.288ZM530.318 145.813C531.506 146.042 533.454 146.042 534.643 145.813C535.833 145.583 534.858 145.396 532.48 145.396C530.102 145.396 529.129 145.583 530.318 145.813ZM314.79 147.938C313.37 148.493 312.631 150.137 311.907 154.358L310.934 160.032L305.605 160.315L300.276 160.597L297.498 154.788C294.777 149.093 293.819 148.279 291.537 149.731C289.835 150.813 296.902 165.221 300.708 168.421C302.399 169.845 305.338 171.301 307.236 171.657C310.654 172.299 326.228 171.489 330.396 170.454L332.556 169.917L330.214 168.075C327.511 165.949 323.584 158.12 321.935 151.571C320.744 146.84 319.379 146.145 314.79 147.938ZM517.342 147.671C516.682 147.95 516.141 149.032 516.141 150.076C516.141 151.713 516.699 151.933 520.225 151.677C523.572 151.436 524.311 151.034 524.311 149.46C524.311 148.006 523.608 147.492 521.427 147.351C519.841 147.248 518.004 147.392 517.342 147.671ZM528.635 149.506C528.635 151.842 528.824 151.927 532.721 151.346C537.497 150.635 537.706 150.498 536.955 148.54C536.571 147.542 535.115 147.057 532.51 147.057C528.999 147.057 528.635 147.286 528.635 149.506ZM161.715 151.564C162.641 151.806 164.154 151.806 165.079 151.564C166.005 151.322 165.248 151.124 163.397 151.124C161.547 151.124 160.79 151.322 161.715 151.564ZM406.329 163.473C403.18 165.307 404.563 166.386 409.685 166.09C413.578 165.866 414.795 165.418 415.041 164.117C415.301 162.749 414.675 162.441 411.685 162.464C409.663 162.48 407.253 162.934 406.329 163.473ZM402.725 169.644C402.725 171.993 402.885 172.047 409.933 172.047C417.06 172.047 417.699 171.73 416.559 168.761C416.104 167.578 414.504 167.241 409.349 167.241C402.923 167.241 402.725 167.313 402.725 169.644ZM485.679 169.578C466.016 170.171 449.617 170.968 449.237 171.348C448.857 171.728 449.054 173.148 449.671 174.503C450.683 176.726 451.196 176.919 454.874 176.463C457.116 176.185 472.36 175.718 488.747 175.425C505.136 175.131 522.762 174.628 527.915 174.306L537.287 173.721V170.962V168.202L529.356 168.349C524.996 168.43 505.34 168.983 485.679 169.578ZM405.317 173.865C401.867 174.417 401.742 174.556 403.071 176.363C404.356 178.108 405.405 178.25 414.896 177.964C420.623 177.791 425.649 177.325 426.065 176.93C426.477 176.536 426.54 175.492 426.202 174.61C425.687 173.27 424.227 173.03 417.28 173.144C412.711 173.219 407.328 173.543 405.317 173.865ZM509.019 176.805C499.663 177.237 497.837 177.553 499.029 178.537C501.714 180.757 509.781 181.526 524.462 180.964C538.569 180.425 539.065 180.334 540.061 178.149L541.089 175.891L530.778 176.084C525.106 176.191 515.315 176.515 509.019 176.805ZM354.801 184.061C351.397 187.233 346.956 191.992 344.933 194.634C342.91 197.276 339.666 201.287 337.727 203.544C335.788 205.801 334.458 207.904 334.771 208.218C335.083 208.53 338.649 208.051 342.692 207.151C349.044 205.738 350.88 205.681 356.168 206.732C360.985 207.69 362.833 207.701 364.846 206.784C367.547 205.553 375.972 206.022 382.98 207.792C385.073 208.32 389.462 208.464 392.734 208.115L398.686 207.476L398.17 201.785C397.61 195.601 399.492 184.561 401.192 184.052C401.77 183.879 406.275 183.469 411.203 183.139L420.163 182.539L421.266 185.463C422.258 188.093 422.782 188.386 426.483 188.386C429.956 188.386 430.599 188.088 430.599 186.464C430.599 185.396 429.956 184.541 429.157 184.541C428.363 184.541 427.715 184.109 427.715 183.581C427.715 183.051 427.066 182.619 426.274 182.619C425.462 182.619 424.83 181.759 424.83 180.655C424.83 178.757 424.402 178.703 412.058 179.06C397.351 179.483 398.002 179.212 385.424 190.132C375.631 198.634 373.886 199.72 373.902 197.31C373.909 196.366 374.789 192.805 375.859 189.394C376.965 185.863 377.56 182.082 377.237 180.616C376.675 178.063 376.594 178.04 368.83 178.166L360.99 178.294L354.801 184.061ZM382.086 179.565C379.945 180.862 378.917 182.773 377.124 188.803C375.881 192.987 374.998 196.543 375.163 196.709C375.329 196.875 379.119 193.881 383.586 190.056C388.054 186.229 392.775 182.404 394.077 181.551L396.445 180.004L393.465 180.441C391.817 180.682 389.21 180.22 387.635 179.406C385.046 178.065 384.543 178.08 382.086 179.565ZM439.489 178.532C429.057 178.776 426.754 179.087 426.754 180.245C426.754 181.023 427.182 181.658 427.705 181.658C429.541 181.658 432.52 184.992 432.52 187.046C432.52 189.249 430.326 190.272 425.551 190.295C423.023 190.307 422.909 190.514 422.909 195.126V199.947L426.513 198.338C428.497 197.455 432.804 196.657 436.085 196.568C441.969 196.407 442.126 196.331 447.494 191.005C450.818 187.708 454.11 185.36 455.946 184.98C457.598 184.635 459.817 183.833 460.874 183.196C461.932 182.561 464.743 181.445 467.122 180.719C476.927 177.731 476.18 177.671 439.489 178.532ZM464.718 182.35C463.662 182.607 462.148 183.374 461.355 184.054C460.561 184.734 458.435 185.604 456.626 185.99C454.408 186.461 451.496 188.566 447.675 192.459L442.01 198.231L437.025 197.752C433.134 197.378 430.909 197.774 426.875 199.558C424.033 200.814 420.768 201.842 419.617 201.842C418.468 201.842 417.116 202.25 416.613 202.748C415.781 203.574 414.013 204.108 403.687 206.639C401.836 207.092 397.587 208.147 394.243 208.984C388.887 210.324 387.569 210.341 383.189 209.137C375.206 206.944 368.368 206.436 364.701 207.762C362.116 208.695 360.196 208.709 355.87 207.824C351.381 206.903 349.258 206.952 344.574 208.077C341.402 208.839 337.511 209.48 335.925 209.501C334.339 209.522 331.741 210.331 330.153 211.299C328.171 212.509 324.485 213.242 318.408 213.635C307.702 214.329 303.181 216.074 312.465 215.928C321.393 215.788 333.325 216.807 338.435 218.145C341.101 218.843 345.888 219.1 350.45 218.789C354.619 218.504 358.68 218.236 359.472 218.195C360.266 218.152 366.321 218.611 372.93 219.214C383.403 220.168 385.831 220.102 391.876 218.691C396.37 217.642 400.596 217.276 403.89 217.649C406.686 217.965 415.573 218.404 423.639 218.622C435.057 218.93 438.891 218.716 440.939 217.651C442.388 216.9 444.261 216.504 445.102 216.77C446.001 217.053 448.374 215.717 450.868 213.523C453.2 211.471 457.354 208.825 460.099 207.644C464.445 205.774 465.131 205.105 465.386 202.468C465.625 200.001 466.151 199.385 468.219 199.146C470.194 198.918 470.651 198.439 470.274 196.998C470.007 195.977 470.121 194.38 470.528 193.447C471.398 191.449 471.796 185.736 471.232 183.34C470.842 181.677 468.772 181.362 464.718 182.35ZM520.473 182.377L513.75 182.718L517.934 184.591C525.356 187.913 536.325 186.696 536.325 182.552C536.325 181.683 534.51 181.663 520.473 182.377ZM348.419 184.291C344.549 185.476 342.815 185.551 339.515 184.671C333.804 183.151 331.172 183.306 329.493 185.262C328.697 186.188 325.327 191.487 322.001 197.037C318.674 202.588 315.12 208.318 314.099 209.772L312.246 212.415H319.375C325.689 212.415 326.938 212.102 330.291 209.672C332.373 208.165 334.885 205.678 335.873 204.147C336.86 202.614 340.715 197.902 344.439 193.672C352.619 184.382 354.121 182.589 353.615 182.719C353.401 182.775 351.063 183.481 348.419 184.291ZM406.809 185.237C403.23 185.681 402.543 187.426 405.947 187.426C411.382 187.426 419.929 186.125 419.462 185.369C418.957 184.55 412.853 184.487 406.809 185.237ZM292.588 187.679C290.973 188.634 273.839 201.16 264.798 207.993C262.945 209.396 262.978 209.448 265.76 209.485C270.195 209.546 290.92 200.702 304.499 192.951L311.521 188.944L305.941 187.765C298.702 186.238 295.066 186.214 292.588 187.679ZM314.376 187.811C311.591 191.169 288.85 202.773 274.65 208.084C272.14 209.025 270.085 210.058 270.085 210.382C270.085 211.929 277.004 216.259 279.475 216.259C280.995 216.259 284.265 216.952 286.745 217.796C290.584 219.103 291.994 219.153 296.287 218.127C299.057 217.465 301.971 216.611 302.765 216.229C303.557 215.847 305.719 214.887 307.571 214.101C310.062 213.039 312.071 210.827 315.313 205.572C323.104 192.951 325.912 188.145 325.629 187.913C325.477 187.788 323.14 187.404 320.437 187.058C316.745 186.587 315.236 186.775 314.376 187.811ZM541.611 188.386C539.792 190.396 534.944 191.003 533.922 189.347C533.595 188.819 532.814 188.4 532.184 188.418C531.554 188.434 531.879 189.082 532.905 189.859C535.36 191.715 540.072 191.658 542.188 189.742C544.305 187.826 547.859 188.789 547.859 191.278C547.859 193.974 548.812 194.14 555.092 192.527C561.039 191.001 562.689 190.875 567.562 191.567C569.148 191.793 569.581 191.776 568.523 191.531C567.467 191.287 566.077 190.655 565.439 190.131C564.657 189.488 562.079 189.676 557.578 190.698L550.882 192.222L548.002 189.342C544.603 185.943 543.915 185.842 541.611 188.386ZM254.227 198.006C245.239 203.849 234.769 210.233 230.959 212.197C227.148 214.158 224.336 216.04 224.71 216.381C226.091 217.635 238.4 215.314 243.153 212.905C245.847 211.54 250.088 210.263 252.581 210.063C255.071 209.865 258.104 209.467 259.321 209.182C261.539 208.661 271.933 201.697 283.444 193.023L289.594 188.386H284.301C281.387 188.386 277.105 188.161 274.786 187.884C270.723 187.401 269.954 187.779 254.227 198.006ZM400.522 189.347C399.56 192.882 399.699 205.687 400.7 205.687C401.171 205.687 401.82 205.003 402.141 204.166C402.907 202.17 402.718 192.405 401.854 189.347L401.174 186.944L400.522 189.347ZM408.25 188.111C403.915 188.473 402.282 189.635 404.887 190.505C405.549 190.727 409.333 190.855 413.298 190.791C418.88 190.702 420.506 190.363 420.506 189.29C420.506 187.797 416.556 187.417 408.25 188.111ZM254.227 193.74C251.423 194.52 244.802 195.085 238.331 195.096C225.888 195.116 223.661 195.843 215.583 202.513C213.049 204.605 209.028 207.626 206.65 209.226C201.697 212.554 185.418 220.34 184.767 219.689C184.53 219.449 188.541 217.289 193.682 214.887C201.791 211.098 217.16 201.319 217.206 199.92C217.224 199.387 215.419 199.183 207.611 198.834C200.507 198.516 197.522 200.225 186.705 210.803C181.814 215.585 177.815 218.994 177.815 218.381C177.815 217.767 178.805 216.616 180.014 215.824C181.226 215.03 184.221 212.06 186.671 209.221L191.126 204.061L186.153 204.443C168.491 205.801 162.517 206.664 158.592 208.429C153.879 210.547 144.281 218.579 145.265 219.581C145.601 219.924 149.757 220.693 154.501 221.292C161.68 222.199 164.264 222.131 169.903 220.895C175.052 219.763 178.029 219.624 182.294 220.315C189.531 221.483 201.85 220.443 208.537 218.101C211.428 217.089 215.176 216.259 216.869 216.259C220.514 216.259 226.95 213.626 234.96 208.853C243.794 203.594 260.474 192.944 260.474 192.566C260.474 192.081 259.592 192.247 254.227 193.74ZM403.867 193.913C404.138 195.335 405.483 195.638 412.588 195.872C420.49 196.134 420.987 196.034 420.987 194.191C420.987 192.363 420.4 192.231 412.266 192.231C404.479 192.231 403.58 192.411 403.867 193.913ZM403.687 198.479C403.687 199.576 404.893 199.924 408.732 199.931C411.506 199.936 415.399 200.209 417.382 200.538C420.606 201.069 420.987 200.918 420.987 199.085C420.987 197.146 420.523 197.037 412.336 197.037C405.289 197.037 403.687 197.305 403.687 198.479ZM482.019 199.92C481.693 200.448 480.371 200.882 479.079 200.882C477.789 200.882 476.733 201.33 476.733 201.877C476.733 202.423 474.777 203.71 472.388 204.734C469.998 205.76 467.803 207.223 467.511 207.985C467.216 208.748 465.28 210.495 463.205 211.869C459.577 214.27 457.808 218.049 460.863 216.878C461.65 216.575 464.485 216.038 467.164 215.683C469.842 215.328 473.616 214.231 475.548 213.246C477.48 212.261 479.586 211.455 480.226 211.455C480.867 211.455 481.884 209.961 482.485 208.136C483.088 206.311 484.419 204.552 485.443 204.225C486.613 203.854 487.306 202.766 487.306 201.298C487.306 199.458 486.804 198.959 484.96 198.959C483.67 198.959 482.346 199.392 482.019 199.92ZM26.7233 200.629C20.5451 201.019 20.819 200.645 19.2158 210.889C18.3892 216.172 18.4315 217.697 19.4215 218.324C21.3505 219.548 21.6649 219.358 23.1363 216.07C23.8918 214.381 26.3696 211.678 28.6409 210.063C32.0721 207.624 36.5252 202.154 36.5252 200.377C36.5252 200.125 35.5516 200.002 34.3626 200.102C33.1737 200.202 29.7356 200.439 26.7233 200.629ZM38.2005 200.962C37.272 201.503 35.6409 203.653 34.5769 205.738C33.5119 207.824 32.2327 209.531 31.733 209.531C30.5381 209.531 24.0303 215.264 24.0303 216.315C24.0303 216.766 25.6526 217.423 27.6346 217.776C29.6173 218.127 32.8141 219.284 34.7403 220.342C38.1323 222.204 38.3773 222.213 42.6266 220.589C47.2468 218.825 58.6317 208.036 58.6317 205.423C58.6317 202.029 42.4392 198.495 38.2005 200.962ZM403.687 203.765C403.687 204.821 403.794 205.681 403.926 205.672C404.058 205.665 406.761 204.823 409.933 203.803L415.701 201.947L409.694 201.895C404.309 201.849 403.687 202.042 403.687 203.765ZM563.237 202.591C563.237 203.126 564.968 203.728 567.082 203.929C569.196 204.131 570.927 203.96 570.927 203.549C570.927 203.139 570.168 202.798 569.244 202.791C568.32 202.784 566.589 202.516 565.399 202.199C564.2 201.876 563.237 202.05 563.237 202.591ZM59.5929 206.149C59.5929 207.043 56.9266 210.552 53.6683 213.945C49.4575 218.331 46.6423 220.411 43.9347 221.141C39.5154 222.331 40.2083 223.944 45.3149 224.349C47.1114 224.491 49.5133 225.107 50.6532 225.717C53.502 227.241 55.383 226.358 61.5153 220.614C64.4227 217.89 68.5316 214.686 70.6461 213.494C72.7607 212.3 75.2223 210.332 76.117 209.119L77.7433 206.916L70.3502 206.388C66.2834 206.097 62.2006 205.558 61.2749 205.191C60.0715 204.711 59.5929 204.984 59.5929 206.149ZM75.7902 210.755C73.3325 212.989 69.2784 216.117 66.7804 217.705C64.2823 219.291 61.1595 221.988 59.8417 223.697C57.2967 226.998 57.3168 227.028 62.7167 228.213C64.1708 228.531 65.3597 229.307 65.3597 229.938C65.3597 230.57 66.5344 232.022 67.9703 233.168C70.3204 235.041 70.4665 235.5 69.4322 237.769C68.8008 239.155 68.4768 240.288 68.7114 240.288C68.9459 240.288 71.9648 238.736 75.4193 236.836C79.5503 234.566 81.6994 232.791 81.6994 231.653C81.6994 229.792 83.4843 228.773 86.8242 228.723C88.8629 228.695 88.8677 228.663 87.0424 227.282C86.016 226.507 84.3946 225.871 83.4381 225.871C80.9565 225.871 81.29 223.3 84.0024 221.523C86.5764 219.837 87.8499 213.833 86.0977 211.646C83.6611 208.604 81.6504 206.65 80.9785 206.67C80.5826 206.682 78.2469 208.52 75.7902 210.755ZM144.655 209.531C143.598 209.986 139.229 210.388 134.948 210.425C123.909 210.522 112.225 211.615 113.13 212.466C115.198 214.415 129.634 218.015 133.366 217.515C135.536 217.225 138.608 217.439 140.192 217.99C142.855 218.918 143.476 218.654 148.367 214.504C151.278 212.033 153.689 209.687 153.723 209.291C153.808 208.32 147.059 208.498 144.655 209.531ZM541.774 211.132C541.422 211.483 539.08 211.899 536.568 212.056C534.056 212.215 529.404 212.755 526.232 213.258C517.071 214.714 502.689 214.52 497.117 212.866C491.484 211.192 480.508 212.038 474.708 214.593C469.859 216.727 459.844 218.183 450.008 218.183C444.852 218.183 441.025 218.602 440.649 219.21C439.981 220.292 409.733 219.831 402.216 218.625C399.708 218.224 396.363 218.581 392.712 219.642C388.027 221.003 385.203 221.152 375.918 220.516C369.781 220.097 359.568 219.844 353.226 219.954C346.881 220.065 340.178 219.694 338.328 219.13C334.155 217.858 320.753 216.718 312.208 216.911C305.28 217.066 295.056 218.871 295.106 219.933C295.175 221.419 297.676 223.639 300.642 224.848C302.381 225.557 305.512 227.375 307.602 228.888C312.244 232.251 315.059 232.326 324.13 229.332C332.162 226.679 343.893 225.607 369.085 225.221C393.726 224.845 404.675 224.37 408.737 223.505C411.506 222.914 413.729 223.239 418.279 224.896C424.718 227.244 429.906 227.157 438.26 224.557C440.654 223.812 445.425 222.327 448.859 221.255C452.295 220.185 459.047 219.043 463.86 218.722C468.809 218.388 475.074 217.264 478.278 216.133C484.199 214.04 485.836 214.051 502.203 216.286C516.485 218.234 518.783 218.388 519.374 217.432C519.747 216.832 523.718 216.657 529.893 216.973C537.338 217.353 540.398 217.146 542.154 216.149C543.442 215.417 548.388 214.602 553.146 214.338L561.795 213.856L553.453 212.175C544.273 210.324 542.719 210.186 541.774 211.132ZM481.539 216.183C479.689 216.607 476.915 217.465 475.375 218.086C473.834 218.707 468.428 219.476 463.361 219.797C450.693 220.597 446.802 222.47 444.122 229.061C442.779 232.363 440.961 234.816 438.727 236.343C435.808 238.338 435.391 239.104 435.621 242.049C435.915 245.853 435.933 245.84 424.577 250.799C418.953 253.254 417.997 254.039 417.482 256.615C417.082 258.613 415.94 260.085 414.015 261.079C409.401 263.464 401.794 269.195 400.818 271.018C399.974 272.594 400.261 272.617 405.406 271.405C408.425 270.695 412.463 270.108 414.381 270.099C416.347 270.09 418.409 269.432 419.107 268.59C421.719 265.445 423.665 265.136 427.753 267.22C431.184 268.972 432.659 269.134 439.808 268.554L447.953 267.892L450.588 263.942C452.135 261.625 455.1 259 457.767 257.589C461.939 255.384 462.31 254.895 462.313 251.609C462.317 248.119 462.438 247.996 467.363 246.581C470.137 245.785 474.139 244.781 476.253 244.352C479.232 243.749 480.169 243.08 480.414 241.382C480.613 240.003 482.289 238.247 484.924 236.656C487.231 235.262 489.659 233.112 490.319 231.876C490.981 230.641 493.925 228.136 496.863 226.309C499.8 224.482 503.474 221.935 505.024 220.647L507.845 218.308L505.504 217.812C497.473 216.108 485.427 215.289 481.539 216.183ZM231.656 219.603C229.476 222.229 224.766 224.063 223.306 222.854C222.302 222.019 221.56 222.152 220.156 223.423C219.115 224.365 217.565 224.845 216.571 224.529C215.608 224.224 213.67 224.572 212.266 225.3C210.377 226.281 209.429 226.345 208.632 225.548C206.196 223.112 194.541 223.228 164.839 225.987C148.451 227.507 134.059 228.752 132.857 228.754C131.47 228.754 130.367 229.551 129.842 230.934C129.096 232.898 127.807 233.287 116.842 234.861C110.148 235.823 103.503 237.216 102.076 237.962C100.649 238.706 98.4793 239.318 97.2546 239.321C93.0362 239.334 91.311 241.02 91.311 245.137V248.956L85.7842 248.228C77.0387 247.073 63.5538 247.5 56.2289 249.161C47.8418 251.064 38.8849 251.138 35.391 249.33C33.9273 248.572 30.0143 247.682 26.6974 247.352C23.3805 247.02 19.4984 246.16 18.0711 245.441C16.6428 244.722 13.7824 244.133 11.713 244.133C9.40529 244.133 7.00433 243.389 5.50589 242.212C4.1622 241.154 2.26585 240.324 1.29124 240.365C-0.063991 240.422 -0.141845 240.567 0.962521 240.982C1.75547 241.28 3.55186 242.327 4.95516 243.309C6.35844 244.29 9.08331 245.095 11.0104 245.095C12.9375 245.095 15.6816 245.683 17.1099 246.401C18.5373 247.12 22.3309 247.971 25.5402 248.292C36.2368 249.359 37.0538 250.733 27.0328 250.8C17.7106 250.863 1.54306 253.951 0.339694 255.898C-0.0697579 256.56 0.358916 256.724 1.53345 256.353C14.3773 252.294 17.8614 251.817 34.3146 251.873C43.4667 251.903 51.3221 251.701 51.771 251.423C54.7054 249.61 70.4558 247.976 78.8159 248.618L87.947 249.32L80.5037 250.392C73.5334 251.394 72.849 251.71 69.7253 255.359C65.9538 259.766 65.5396 259.857 42.4756 261.387C28.3679 262.322 23.8831 263.791 21.1871 268.355C20.1576 270.099 17.8048 272.339 15.9584 273.33C13.2883 274.767 12.0831 276.435 10.0589 281.5C6.97165 289.224 6.16716 290.269 3.30485 290.269C2.07843 290.269 0.767406 290.769 0.389673 291.379C-0.46287 292.76 5.42901 291.746 7.30132 290.192C7.98087 289.629 9.69364 286.141 11.1075 282.44C13.1769 277.027 14.2707 275.432 16.7168 274.265C18.3892 273.468 20.4604 271.589 21.3207 270.09C22.181 268.592 23.9361 266.677 25.221 265.835C27.8441 264.117 38.6397 262.488 48.0591 262.39C51.4952 262.354 57.2899 261.748 60.9356 261.041C66.6613 259.935 68.0472 259.238 71.097 255.935C74.2899 252.477 75.2223 252.044 80.8075 251.427C84.2051 251.05 87.9594 250.506 89.1484 250.217C91.1129 249.739 91.311 250.037 91.311 253.457C91.311 258.071 93.6264 261.748 95.123 259.512C95.6534 258.718 96.0937 256.449 96.1023 254.465C96.1128 251.908 96.5358 250.861 97.5585 250.861C100.271 250.861 99.3865 257.935 96.2541 261.288C93.9349 263.769 91.6781 264.676 81.7264 267.118C63.9604 271.477 62.7513 272.777 64.3824 285.784C64.9196 290.073 65.3597 295.215 65.3597 297.211C65.3597 300.528 65.1321 300.842 62.7167 300.853C61.2625 300.858 58.451 301.131 56.4692 301.457C52.9812 302.036 52.8649 302.182 52.8782 306.012C52.885 308.191 53.1676 311.006 53.505 312.268C54.1095 314.523 54.2661 314.553 62.6234 314.012L71.1268 313.461V315.802C71.1268 317.927 71.515 318.143 75.3673 318.143H79.6079L80.2866 322.227C81.1265 327.279 83.0547 331.176 85.1068 331.963C85.9621 332.291 89.1637 332.559 92.2212 332.559C101.071 332.559 104.685 328.275 106.222 315.963L106.91 310.453H114.086H121.262L122.771 306.608C124.083 303.268 124.675 302.763 127.278 302.763C129.943 302.763 130.621 302.134 133.398 297.081L136.522 291.398L144.455 290.738C156.969 289.696 156.543 289.466 160.566 299.4C162.492 304.157 164.374 309.695 164.747 311.706C165.492 315.713 167.866 317.374 169.554 315.065C170.436 313.859 175.498 313.393 198.009 312.45C258.629 309.909 265.319 309.581 266.086 309.106C266.527 308.835 267.599 310.111 268.472 311.943C270.775 316.769 275.155 319.095 281.956 319.099C287.038 319.103 287.883 318.799 290.75 315.93L293.924 312.756L296.265 315.663C298.431 318.355 299.141 318.596 305.876 318.937C313.05 319.299 313.195 319.26 316.81 315.948C320.262 312.783 320.492 312.216 320.831 305.996C321.143 300.292 320.885 298.945 318.918 296.05C315.682 291.284 312.904 290.092 306.702 290.806C300.217 291.554 297.537 292.751 296.024 295.579L294.84 297.791L291.262 294.03C288.611 291.243 286.836 290.223 284.411 290.091C282.611 289.993 291.173 289.668 303.439 289.37C317.059 289.038 326.132 288.433 326.751 287.812C327.307 287.256 328.84 277.739 330.157 266.667C331.473 255.594 332.812 244.745 333.129 242.556L333.709 238.575L329.049 238.204C326.487 237.999 317.47 238.138 309.013 238.513C300.554 238.886 275.947 239.691 254.333 240.301C221.735 241.22 214.889 241.189 214.205 240.128C213.75 239.423 212.657 236.599 211.777 233.851C209.759 227.557 210.965 225.383 216.027 226.206C218.386 226.588 219.396 226.333 219.813 225.246C220.222 224.183 221.173 223.922 223.171 224.322C225.178 224.723 227.023 224.208 229.76 222.479C231.851 221.16 233.562 219.653 233.562 219.13C233.562 217.813 233.033 217.944 231.656 219.603ZM405.503 225.251C400.98 226.688 398.885 228.511 397.237 232.452C395.992 235.434 396.074 236.015 398.348 240.365C401.305 246.021 401.349 246.79 398.875 249.425C397.815 250.552 395.945 254.474 394.718 258.137C392.653 264.303 392.143 264.988 387.84 267.345C384.823 268.995 382.621 271.061 381.569 273.225C380.676 275.061 378.789 278.08 377.374 279.934L374.801 283.307L377.287 283.782C379.278 284.162 380.284 283.589 382.357 280.888C388.737 272.578 390.42 271.045 393.157 271.045C394.655 271.045 396.182 271.53 396.548 272.123C396.971 272.806 398.357 271.95 400.357 269.766C403.549 266.283 413.332 259.512 415.173 259.512C415.728 259.512 416.181 258.513 416.181 257.293C416.181 253.684 418.149 252.001 426.274 248.663C433.938 245.514 433.963 245.491 434.443 241.51C434.827 238.327 435.58 237.07 438.167 235.3C440.276 233.856 442.006 231.483 443.12 228.515C445.107 223.209 444.906 223.119 437.077 225.871C430.135 228.311 423.792 228.311 417.371 225.871C411.74 223.73 410.502 223.665 405.503 225.251ZM159.708 227.853C144.199 229.323 131.26 230.777 130.954 231.082C129.437 232.599 132.765 232.754 145.339 231.753C152.892 231.152 165.496 230.443 173.347 230.181C189.645 229.637 192.589 229.146 191.809 227.116C191.513 226.345 191.27 225.533 191.27 225.312C191.27 224.825 193.854 224.616 159.708 227.853ZM193.347 226.834C193.6 228.541 194.703 229.342 198.193 230.356C200.676 231.078 202.98 232.106 203.31 232.64C203.64 233.173 205.171 243.871 206.712 256.413C208.252 268.954 209.754 280.62 210.047 282.339L210.582 285.463H217.106C220.694 285.463 223.845 285.247 224.109 284.983C224.737 284.355 214.848 245.735 213.064 241.846C212.305 240.197 210.733 235.928 209.57 232.359C207.631 226.413 207.231 225.871 204.783 225.871C203.313 225.871 200.066 225.59 197.567 225.248C193.226 224.654 193.037 224.725 193.347 226.834ZM184.624 230.663C179.133 231.103 178.639 231.307 180.11 232.52C181.02 233.269 182.248 234.784 182.84 235.885C184.221 238.459 186.387 248.504 186.432 252.543L186.466 255.667H193.022H199.579L201.101 268.883C201.939 276.153 202.5 282.228 202.348 282.385C202.195 282.542 198.93 282.936 195.088 283.257L188.105 283.843L188.749 297.331C189.104 304.749 189.492 310.913 189.611 311.031C189.731 311.149 191.074 311.006 192.594 310.714L195.36 310.182L194.696 300.266L194.032 290.348L201.604 290.068L209.178 289.787L205.75 262.201C203.866 247.029 201.891 234.213 201.363 233.723C200.407 232.836 193.583 230.361 191.752 230.236C191.222 230.201 188.016 230.393 184.624 230.663ZM159.313 232.301C157.288 232.83 157.307 231.947 159.052 245.286C159.834 251.259 161.29 264.854 162.288 275.495C163.285 286.135 164.401 295.327 164.767 295.919C165.194 296.608 169.219 296.997 175.949 296.997H186.466L186.462 284.262C186.457 263.346 184.082 242.124 181.099 236.308C180.382 234.913 178.421 233.289 176.739 232.704C173.771 231.669 162.709 231.414 159.313 232.301ZM141.291 233.542C126.664 234.727 106.584 237.749 104.935 239.018C103.536 240.092 103.703 240.195 106.209 239.803C115.591 238.336 136.578 236.347 138.961 236.7C141.186 237.03 140.938 237.148 137.771 237.261C135.571 237.341 128.651 238.065 122.393 238.872C116.135 239.678 109.206 240.565 106.995 240.843C102.521 241.405 102.58 241.289 101.066 252.649L100.251 258.759L104.672 258.199C120.291 256.221 121.745 256.251 122.351 258.57C122.873 260.565 123.303 260.697 127.435 260.131C129.917 259.791 137.574 259.512 144.45 259.512H156.953L156.297 250.172C155.291 235.864 155.649 236.477 148.155 236.258L141.771 236.074L147.994 235.726C153.068 235.444 154.443 235.689 155.443 237.057C156.532 238.545 156.669 238.388 156.669 235.667C156.669 232.181 157.211 232.256 141.291 233.542ZM159.625 239.567C159.664 241.815 160.207 247.113 160.831 251.343L161.964 259.031L167.727 259.33C176.122 259.766 179.611 258.911 180.276 256.256C180.812 254.124 179.218 239.678 178.138 236.861C177.73 235.799 175.535 235.484 168.581 235.484H159.553L159.625 239.567ZM160.598 239.087C160.645 240.54 161.199 245.407 161.831 249.899L162.979 258.071L170.469 257.951C174.587 257.885 178.375 257.414 178.885 256.904C179.754 256.035 178.28 238.963 177.18 237.164C176.938 236.768 173.09 236.443 168.627 236.443H160.514L160.598 239.087ZM93.9542 241.327C92.942 241.917 92.2721 243.459 92.2721 245.2C92.2721 246.882 92.6739 247.844 93.2332 247.498C94.4721 246.733 94.4453 247.337 93.1122 250.262C91.782 253.182 92.8421 260.287 94.3781 258.752C94.9692 258.16 95.2218 255.116 94.9865 251.418C94.7654 247.939 94.9287 245.095 95.3506 245.095C95.7717 245.095 96.1167 246.176 96.1167 247.498C96.1167 249.171 96.6414 249.899 97.8497 249.899C99.1558 249.899 99.8238 248.72 100.566 245.095L101.551 240.288L98.5936 240.317C96.9674 240.335 94.8798 240.788 93.9542 241.327ZM156.857 242.691C156.876 244.278 157.091 244.809 157.335 243.874C157.579 242.939 157.563 241.642 157.3 240.991C157.037 240.34 156.838 241.105 156.857 242.691ZM275.853 241.311C262.9 241.707 243.954 242.335 233.749 242.707L215.194 243.387L215.849 246.402C217.535 254.151 216.694 253.744 231.03 253.744H243.924L245.951 261.259C247.068 265.393 247.979 269.502 247.979 270.39C247.979 271.686 248.916 272.007 252.682 272.007C255.81 272.007 257.556 271.561 257.897 270.672C258.179 269.937 257.551 265.983 256.502 261.885C255.389 257.546 254.95 254.08 255.446 253.582C255.915 253.113 262.516 252.849 270.115 252.997L283.928 253.264L286.299 262.201L288.672 271.138L293.075 270.851L297.478 270.565L297.412 266.72C297.377 264.606 296.75 260.834 296.021 258.34C295.291 255.848 294.888 253.623 295.125 253.398C295.362 253.175 301.61 252.836 309.013 252.647L322.469 252.303L322.949 267.539C323.213 275.919 323.213 283.104 322.949 283.504C322.533 284.133 238.975 286.465 217.943 286.435C211.957 286.426 210.494 286.708 210.494 287.866C210.494 289.7 214.345 289.716 277.161 288.182C324.05 287.034 325.102 286.967 325.896 285.034C326.344 283.948 327.614 274.842 328.721 264.799C329.825 254.754 330.974 245.13 331.272 243.412L331.814 240.288L315.607 240.44C306.694 240.524 288.804 240.916 275.853 241.311ZM157.54 254.226L157.15 259.992L150.422 261.161L143.694 262.329L151.304 261.88C155.49 261.634 159.1 261.246 159.327 261.02C159.553 260.793 159.332 257.874 158.835 254.533L157.931 248.458L157.54 254.226ZM257.507 254.519C256.122 255.123 256.145 255.857 257.753 262.34C260.185 272.157 259.799 272.968 252.72 272.968C248.018 272.968 247.018 272.685 247.018 271.352C247.018 270.462 246.106 266.353 244.989 262.221L242.962 254.706H230.573C223.76 254.706 218.188 254.815 218.195 254.947C218.229 255.705 225.883 284.826 226.095 285.011C226.238 285.134 240.843 284.854 258.552 284.389C276.261 283.921 297.671 283.432 306.128 283.3L321.507 283.059L321.773 268.403L322.037 253.744H308.934C298.861 253.744 295.932 254.023 296.267 254.947C298.03 259.81 300.03 269.27 299.557 270.504C299.125 271.63 297.568 272.007 293.332 272.007H287.685L285.327 263.116L282.966 254.226L271 254.039C264.418 253.935 258.345 254.151 257.507 254.519ZM187.425 263.696C187.425 267.056 187.704 272.462 188.043 275.711L188.662 281.618H194.771C198.132 281.618 200.878 281.509 200.874 281.379C200.871 281.247 200.221 275.964 199.433 269.641C198.644 263.316 197.998 258.017 197.998 257.866C197.998 257.714 195.62 257.589 192.712 257.589H187.425V263.696ZM110.534 259.189C100.713 260.153 98.8434 260.69 96.1445 263.329C94.1358 265.293 91.3791 266.504 86.3245 267.646C68.9093 271.578 65.3597 273.445 65.3597 278.672C65.3597 281.009 65.8115 281.559 68.0029 281.891C70.5528 282.278 70.5616 282.298 68.2336 282.435L65.8202 282.579L66.6959 291.627L67.5724 300.672L70.551 300.3C72.1887 300.093 79.357 299.457 86.4802 298.887C93.6023 298.316 99.5278 297.752 99.647 297.632C99.7662 297.513 99.6058 293.427 99.2895 288.556L98.7157 279.696H95.8976C94.3483 279.696 89.0012 280.176 84.0167 280.765C72.7443 282.094 66.321 281.336 66.321 278.676C66.321 277.329 66.987 276.813 68.7239 276.813C72.1504 276.813 72.5791 277.074 72.4801 279.091C72.4003 280.697 72.9165 280.826 77.2858 280.301C79.977 279.978 83.8168 279.709 85.8179 279.705C89.2069 279.696 89.3828 279.559 88.3834 277.691C87.0722 275.241 87.0906 275.222 91.5513 274.388C94.7576 273.789 95.1556 273.932 95.1556 275.673C95.1556 276.751 94.3991 277.83 93.4735 278.073C92.5479 278.314 93.1977 278.562 94.9153 278.624C97.7449 278.724 98.039 278.474 98.039 275.959C98.039 274.431 98.8108 272.226 99.7548 271.061C101.281 269.177 103.699 268.66 121.621 266.385C132.704 264.977 141.988 263.396 142.252 262.87C142.553 262.272 138.688 261.812 131.92 261.643C123.18 261.423 121.107 261.1 121.107 259.96C121.107 258.54 118.83 258.374 110.534 259.189ZM153.305 263.043C145.89 263.969 146.319 263.107 147.902 273.898C149.241 283.033 149.437 283.541 151.614 283.541C154.692 283.541 157.635 285.106 160.369 288.196L162.627 290.749L162.014 284.501C161.677 281.065 161.137 274.686 160.815 270.324C160.171 261.623 160.687 262.123 153.305 263.043ZM123.029 267.272C111.663 268.77 102.109 270.016 101.798 270.041C101.017 270.101 99.0002 274.669 99.0002 276.378C99.0002 277.391 100.183 277.773 103.325 277.773C107.331 277.773 107.65 277.591 107.65 275.3C107.65 273.457 108.08 272.911 109.333 273.161C110.452 273.384 110.914 274.212 110.714 275.636C110.524 276.986 110.918 277.773 111.782 277.773C112.722 277.773 113.038 276.945 112.79 275.131C112.481 272.867 112.559 272.761 113.337 274.41C114.152 276.137 114.251 276.157 114.311 274.594C114.35 273.596 114.824 273.129 115.423 273.5C115.998 273.855 116.255 274.963 115.994 275.96C115.576 277.557 116.087 277.773 120.27 277.773C124.737 277.773 124.957 277.659 123.98 275.832C122.714 273.466 123.472 272.007 125.969 272.007C127.319 272.007 127.835 272.672 127.835 274.41C127.835 275.732 128.267 276.813 128.796 276.813C129.325 276.813 129.757 275.732 129.757 274.41C129.757 272.647 130.269 272.007 131.679 272.007C132.961 272.007 133.602 272.647 133.602 273.928C133.602 274.986 133.143 275.851 132.584 275.851C132.024 275.851 131.815 275.448 132.119 274.956C132.423 274.465 132.232 273.791 131.695 273.457C131.155 273.124 130.718 273.737 130.718 274.833C130.718 276.604 131.306 276.813 136.282 276.813C141.721 276.813 141.846 276.752 141.809 274.169C141.78 272.126 142.275 271.455 143.99 271.211C145.84 270.949 146.158 270.405 145.912 267.921C145.749 266.285 145.184 264.856 144.655 264.749C144.126 264.638 134.395 265.775 123.029 267.272ZM117.654 273.33C116.877 275.359 117.969 276.813 120.27 276.813C121.721 276.813 122.126 276.278 121.895 274.66C121.536 272.148 118.477 271.19 117.654 273.33ZM135.524 273.928C135.524 275.152 136.165 275.851 137.286 275.851C139.554 275.851 140.328 275.043 139.68 273.354C138.864 271.229 135.524 271.691 135.524 273.928ZM142.929 272.651C141.867 274.369 143.222 276.813 145.238 276.813C146.549 276.813 147.058 276.124 147.058 274.353C147.058 271.68 145.199 272.007 145.039 274.706C144.984 275.659 144.668 275.341 144.278 273.939C143.865 272.454 143.353 271.966 142.929 272.651ZM118.797 273.778C118.465 274.317 118.661 275.047 119.232 275.4C120.711 276.314 121.664 275.063 120.43 273.828C119.74 273.14 119.203 273.122 118.797 273.778ZM124.657 273.582C123.889 274.349 124.757 275.851 125.969 275.851C126.467 275.851 126.874 275.202 126.874 274.41C126.874 272.924 125.74 272.499 124.657 273.582ZM136.485 273.928C136.485 274.458 136.918 274.89 137.446 274.89C137.975 274.89 138.407 274.458 138.407 273.928C138.407 273.4 137.975 272.968 137.446 272.968C136.918 272.968 136.485 273.4 136.485 273.928ZM108.688 275.45C108.734 276.571 108.962 276.799 109.268 276.032C109.546 275.338 109.511 274.508 109.192 274.189C108.873 273.871 108.646 274.437 108.688 275.45ZM90.3595 275.748C89.0292 276.119 88.4217 276.695 88.9918 277.047C90.2892 277.85 94.1945 276.868 94.1945 275.739C94.1945 274.792 93.7936 274.792 90.3595 275.748ZM67.2821 278.735C67.2821 279.263 68.1471 279.696 69.2044 279.696C70.2617 279.696 71.1268 279.263 71.1268 278.735C71.1268 278.207 70.2617 277.773 69.2044 277.773C68.1471 277.773 67.2821 278.207 67.2821 278.735ZM114.614 278.717C107.079 279.084 100.65 279.646 100.33 279.968C100.01 280.287 100.062 284.506 100.445 289.34L101.141 298.13L107.873 297.456C114.354 296.804 114.81 296.585 120.02 291.622C124.228 287.613 126.116 286.46 128.509 286.444C130.2 286.433 133.66 286.019 136.198 285.525C138.734 285.031 142.459 284.358 144.473 284.028C147.765 283.491 148.106 283.17 147.837 280.842L147.538 278.255L137.927 278.153C132.641 278.096 122.149 278.351 114.614 278.717ZM87.947 282.162C86.8897 282.337 81.7831 282.761 76.5986 283.106L67.1726 283.728L67.4677 286.278C67.754 288.754 67.9405 288.826 74.0101 288.742C77.4462 288.696 83.6341 288.333 87.7623 287.935C95.167 287.22 95.2623 287.177 94.9709 284.654C94.6692 282.046 92.7392 281.361 87.947 282.162ZM87.947 283.141C86.8897 283.306 82.2406 283.718 77.6145 284.057C70.0829 284.61 69.2044 284.872 69.2044 286.576C69.2044 288.373 69.6456 288.44 77.134 287.802C91.0717 286.613 93.6639 286.067 94.0138 284.251C94.3356 282.578 93.0535 282.344 87.947 283.141ZM142.498 285.429C133.123 286.886 133.169 286.854 129.806 294.151C128.081 297.895 126.902 301.192 127.188 301.477C128.225 302.512 129.858 300.585 132.676 295.004L135.552 289.307L140.103 289.3C142.607 289.297 147.47 289.027 150.91 288.703L157.165 288.112L159.773 293.755C161.207 296.86 163.02 301.022 163.801 303.004C164.583 304.986 165.676 306.608 166.232 306.608C167.467 306.608 167.506 307.067 165.788 301.402C164.119 295.902 160.598 289.589 157.769 287.031C155.447 284.929 149.635 284.319 142.498 285.429ZM121.107 292.21L115.82 296.974L121.572 296.746C127.264 296.517 127.346 296.474 129.501 292.476C132.232 287.409 132.229 287.379 129.036 287.416C127.246 287.436 124.688 288.983 121.107 292.21ZM76.1727 290.023L68.2433 290.346V293.671C68.2433 297.575 67.2802 297.434 83.3813 295.889L95.1556 294.758V292.032C95.1556 288.977 96.9972 289.172 76.1727 290.023ZM83.5351 290.676C83.3112 290.899 79.9952 291.211 76.1661 291.366C69.5293 291.638 69.2044 291.759 69.2044 293.968C69.2044 296.168 69.4313 296.255 73.7698 295.721C76.2805 295.413 81.9041 294.869 86.2649 294.514C93.1401 293.952 94.1945 293.625 94.1945 292.068C94.1945 290.535 93.436 290.269 89.0686 290.269C86.2486 290.269 83.7592 290.453 83.5351 290.676ZM245.096 296.396C245.096 299.766 245.369 303.889 245.703 305.561L246.311 308.598L255.464 308.325L264.616 308.05L267.275 301.482C268.738 297.87 270.616 294.159 271.451 293.236C272.286 292.314 272.97 291.268 272.97 290.913C272.97 290.558 266.697 290.269 259.032 290.269H245.096V296.396ZM202.914 291.946L195.815 292.28L196.309 300.928C196.58 305.684 197.051 309.825 197.356 310.13C198.021 310.797 242.944 309.079 243.665 308.36C243.942 308.082 243.879 304.116 243.53 299.543L242.889 291.229L226.452 291.422C217.41 291.525 206.819 291.762 202.914 291.946ZM275.137 293.231C271.585 294.574 269.128 299.677 269.159 305.647C269.187 311.185 269.979 312.838 273.905 315.543C277.685 318.148 279.478 317.615 276.741 314.699C274.686 312.512 274.411 311.334 274.411 304.708C274.411 298.663 274.77 296.803 276.247 295.17C278.436 292.751 278.076 292.119 275.137 293.231ZM278.079 295.698C272.934 302.446 275.036 314.178 281.823 316.598C291.63 320.093 297.694 304.25 290.197 294.721C288.659 292.765 287.361 292.191 284.481 292.191C281.325 292.191 280.347 292.726 278.079 295.698ZM305.191 294.483C296.724 302.951 303.646 321.711 313.382 316.678C319.12 313.711 321.348 306.398 318.658 299.356C315.901 292.139 309.759 289.916 305.191 294.483ZM298.253 295.472C295.734 297.641 295.559 298.267 295.596 305.049C295.628 311.34 295.939 312.628 297.924 314.742C299.193 316.093 301.289 317.181 302.62 317.181H305.022L302.736 314.748C299.527 311.333 298.952 301.903 301.639 296.756C303.894 292.431 302.431 291.878 298.253 295.472ZM138.612 297.484C134.46 299.288 132.641 303.779 132.641 312.225C132.641 323.465 133.118 324.612 138.264 325.709C140.708 326.23 142.824 326.541 142.965 326.4C143.107 326.259 142.5 324.698 141.619 322.931C138.996 317.672 139.357 307.119 142.369 301.031C145.128 295.457 144.544 294.906 138.612 297.484ZM283.168 297.507C279.428 301.249 281.086 312.375 285.382 312.375C289.512 312.375 291.345 301.802 287.878 297.969C285.776 295.648 285.095 295.581 283.168 297.507ZM308.508 298.68C304.997 303.126 307.018 312.375 311.498 312.375C313.894 312.375 315.259 309.509 315.259 304.482C315.259 300.512 313.231 296.035 311.43 296.035C310.97 296.035 309.655 297.225 308.508 298.68ZM144.027 301.022C141.237 306.355 140.936 318.83 143.483 323.6C145.16 326.741 148.14 328.386 150.033 327.217C152.595 325.633 154.705 318.526 154.724 311.415C154.749 302.532 152.706 297.63 148.79 297.179C146.587 296.924 145.87 297.502 144.027 301.022ZM284.085 297.855C283.792 298.328 284.199 298.965 284.989 299.268C286.768 299.952 286.989 308.542 285.271 310.26C284.52 311.012 284.479 311.415 285.154 311.415C287.56 311.415 288.909 307.251 288.492 301.115C288.338 298.854 284.997 296.382 284.085 297.855ZM115.455 298.828C114.47 299.452 114.3 300.808 114.793 304.098C115.404 308.173 115.678 308.53 118.192 308.53C120.589 308.53 121.115 307.977 122.458 304.034C123.301 301.561 123.99 299.183 123.99 298.747C123.99 297.697 117.14 297.759 115.455 298.828ZM167.86 302.251L169.345 306.608H178.441H187.536L187.24 302.523L186.946 298.439L176.66 298.166L166.376 297.893L167.86 302.251ZM310.694 298.995C312.506 300.052 313.065 306.919 311.534 309.333C311.058 310.084 310.911 308.64 311.177 305.854C311.482 302.69 311.24 300.846 310.456 300.362C307.341 298.437 306.933 307.368 310 310.387C311.395 311.757 311.659 311.725 312.915 310.028C314.324 308.128 314.772 302.23 313.716 299.479C313.395 298.642 312.205 297.971 311.072 297.987C309.211 298.014 309.175 298.11 310.694 298.995ZM78.5315 301.151L54.6986 303.111L54.9832 307.982C55.2485 312.528 55.4292 312.842 57.6706 312.653C58.9921 312.541 70.2376 311.772 82.6605 310.94C115.051 308.774 113.418 309.081 113.418 305.186C113.418 299.557 112.768 298.904 107.307 299.054C104.588 299.129 91.6396 300.071 78.5315 301.151ZM282.094 301.823C281.25 304.48 282.497 309.679 283.869 309.227C284.481 309.026 285.114 306.84 285.277 304.371C285.501 300.906 285.243 299.88 284.14 299.88C283.353 299.88 282.433 300.755 282.094 301.823ZM101.884 304.205C101.884 307.49 101.975 307.57 105.728 307.57C109.482 307.57 109.573 307.49 109.573 304.205C109.573 300.92 109.482 300.842 105.728 300.842C101.975 300.842 101.884 300.92 101.884 304.205ZM102.845 304.205C102.845 306.234 103.294 306.608 105.728 306.608C108.163 306.608 108.612 306.234 108.612 304.205C108.612 302.176 108.163 301.802 105.728 301.802C103.294 301.802 102.845 302.176 102.845 304.205ZM146.257 304.237C143.312 310.701 144.648 320.544 148.471 320.544C151.019 320.544 152.793 316.731 152.81 311.219C152.836 302.999 148.787 298.685 146.257 304.237ZM147.401 304.218C147.093 305.017 147.37 306.307 148.014 307.083C149.186 308.494 148.95 313.516 147.502 318.03C146.941 319.777 147.087 320.216 148.113 319.877C150.215 319.183 151.834 315.178 151.849 310.63C151.87 304.467 148.931 300.228 147.401 304.218ZM55.9252 307.329C56.1971 309.695 56.6585 310.004 60.3138 310.268C64.293 310.555 64.3986 310.487 64.3986 307.623C64.3986 304.776 64.2641 304.687 60.01 304.687C55.7887 304.687 55.6319 304.787 55.9252 307.329ZM56.8872 307.329C57.0968 308.437 58.2694 309.113 60.3215 309.311C62.9262 309.565 63.4375 309.288 63.4375 307.631C63.4375 305.996 62.832 305.647 60.0032 305.647C57.2515 305.647 56.6315 305.982 56.8872 307.329ZM146.111 312.136C146.122 315.436 146.384 316.302 147.058 315.258C148.286 313.358 148.286 307.57 147.058 307.57C146.529 307.57 146.103 309.623 146.111 312.136ZM170.126 309.971C170.126 312.357 170.19 312.375 178.776 312.375C187.361 312.375 187.425 312.357 187.425 309.971C187.425 307.588 187.361 307.57 178.776 307.57C170.19 307.57 170.126 307.588 170.126 309.971ZM165.32 309.359C165.32 309.891 165.769 311.508 166.316 312.949C167.505 316.077 169.509 314.842 169.006 311.295C168.697 309.127 165.32 307.354 165.32 309.359ZM90.3498 311.991C89.0281 312.15 84.5954 312.555 80.498 312.89C73.8555 313.434 73.049 313.711 73.049 315.451C73.049 317.188 73.4892 317.34 77.134 316.847C79.3811 316.544 86.5177 316.007 92.993 315.654C103.628 315.074 104.767 314.837 104.767 313.213C104.767 311.631 104.04 311.431 98.7599 311.557C95.4564 311.638 91.6714 311.832 90.3498 311.991ZM473.37 312.027C466.485 313.425 459.432 315.602 459.432 316.33C459.432 316.803 460.285 318.778 461.327 320.724C462.649 323.188 462.927 324.614 462.247 325.433C461.71 326.08 461.532 327.642 461.85 328.905C462.255 330.518 461.837 331.734 460.449 332.99C458.064 335.149 457.999 336.6 460.035 342.569L461.596 347.155L458.112 350.539C454.147 354.388 453.841 356.518 456.258 363.328C457.842 367.788 458.03 367.943 462.508 368.538C467.916 369.255 470.376 368.208 472.378 364.336C473.634 361.908 474.547 361.469 479.809 360.759L485.809 359.952L487.857 352.263C492.396 335.221 494.221 330.273 496.883 327.788C498.46 326.312 500.182 323.09 501.126 319.847C502.066 316.607 503.575 313.782 504.835 312.901C506.783 311.534 505.666 311.422 491.126 311.525C482.417 311.588 474.426 311.813 473.37 312.027ZM434.663 314.828C431.767 316.856 431.967 318.05 435.403 319.247C437.093 319.836 438.288 320.935 438.288 321.897C438.288 322.801 438.888 324.362 439.621 325.365C440.552 326.641 440.802 328.844 440.452 332.712L439.951 338.238L443.534 340.354C446.824 342.293 447.057 342.712 446.379 345.442C445.972 347.08 445.576 350.58 445.498 353.224C445.419 355.867 445.02 359.478 444.608 361.249C443.933 364.152 444.042 364.411 445.723 363.877C446.964 363.483 448.458 364.093 450.196 365.704C452.504 367.845 456.549 369.039 456.549 367.58C456.549 367.282 455.635 364.912 454.517 362.315C452.097 356.687 452.554 353.956 456.547 350.188C459.837 347.082 460.001 345.945 457.985 340.229C456.586 336.266 456.617 336.016 458.866 333.067C460.353 331.119 460.909 329.549 460.403 328.73C459.953 328 460.078 326.696 460.692 325.713C461.543 324.348 461.33 323.069 459.685 319.684C457.393 314.965 457.751 315.092 443.073 313.855C438.292 313.452 436.297 313.684 434.663 314.828ZM100.721 320.152C98.7157 324.924 96.0937 324.976 94.7076 320.271C93.4082 315.859 90.7045 316.442 91.1677 321.035C91.8433 327.733 95.3469 331.631 98.954 329.7C100.954 328.63 103.806 322.107 103.806 318.603C103.806 315.097 102.586 315.711 100.721 320.152ZM95.1556 318.198C95.1556 318.758 95.5881 318.949 96.1167 318.623C96.6454 318.296 97.0778 317.838 97.0778 317.604C97.0778 317.372 96.6454 317.181 96.1167 317.181C95.5881 317.181 95.1556 317.64 95.1556 318.198ZM97.2768 319.142C95.7947 321.515 96.6578 323.531 98.5014 322.002C100.222 320.575 101.011 317.181 99.622 317.181C99.006 317.181 97.9506 318.062 97.2768 319.142ZM414.374 317.857C407.362 318.294 404.734 320.353 404.679 325.447C404.646 328.551 399.927 336.063 397.399 337.033C396.509 337.374 395.997 338.91 395.997 341.238C395.997 344.348 395.392 345.422 392.013 348.314L388.031 351.724L389.144 357.265C390.161 362.329 390.088 363.037 388.3 365.455C386.957 367.271 386.534 368.862 386.951 370.527C387.303 371.924 387.057 373.56 386.375 374.382C385.417 375.537 385.46 375.812 386.603 375.812C387.381 375.812 389.811 377.109 391.999 378.695C396.984 382.304 398.985 382.325 401.076 378.786C402.423 376.504 403.565 375.89 407.291 375.442C409.801 375.141 416.151 374.388 421.401 373.77C430.481 372.702 431.143 372.466 434.964 368.943C437.175 366.905 439.366 365.232 439.837 365.224C442.427 365.18 443.318 363.035 444.069 355.035C444.509 350.339 445.146 345.613 445.484 344.532C445.972 342.965 445.455 342.288 442.913 341.169C439.765 339.783 439.73 339.695 439.73 333.329C439.73 329.461 439.25 326.41 438.527 325.688C437.867 325.026 437.327 323.786 437.327 322.933C437.327 319.333 427.073 317.063 414.374 317.857ZM81.6994 319.638C81.6994 320.462 82.1915 323.09 82.7933 325.479C83.938 330.027 86.0188 331.599 90.8928 331.599C93.6523 331.599 93.6426 331.634 91.7829 328.104C90.9852 326.589 90.0644 323.729 89.7375 321.747C89.1695 318.305 88.9753 318.143 85.421 318.143C82.6932 318.143 81.6994 318.542 81.6994 319.638ZM233.562 319.686C229.069 320.43 223.156 321.31 220.423 321.638C215.617 322.22 215.49 322.312 216.493 324.516C217.064 325.768 218.077 326.792 218.744 326.792C220.944 326.792 225.635 331.526 227.123 335.246C227.977 337.381 229.629 339.378 231.096 340.045C232.673 340.764 233.813 342.225 234.165 343.981C234.471 345.515 236.55 348.566 238.784 350.759C242.354 354.261 243.139 354.632 245.283 353.817C247.435 352.998 248.188 353.363 251.696 356.939C254.834 360.136 255.669 361.697 255.669 364.373C255.669 367.012 256.297 368.225 258.513 369.863C260.077 371.019 261.842 371.967 262.433 371.967C263.025 371.967 265.501 373.96 267.937 376.393L272.363 380.821L274.302 378.076C275.368 376.566 278.104 373.43 280.385 371.105C284.444 366.969 284.49 366.852 282.556 365.497C279.789 363.56 276.813 360.25 276.813 359.112C276.813 358.586 275.874 357.153 274.724 355.929C273.548 354.678 273.148 353.704 273.806 353.704C274.452 353.704 275.717 355.107 276.618 356.819C278.356 360.125 284.083 366.2 285.462 366.2C286.791 366.2 287.036 363.158 286.096 358.29C285.287 354.113 284.95 353.695 281.915 353.126C280.099 352.785 276.856 352.743 274.706 353.032L270.797 353.556L271.291 347.385C271.783 341.246 271.767 341.196 268.053 337.481C265.35 334.776 264.318 332.939 264.318 330.819C264.318 326.293 261.305 323.984 250.375 320.143C243.894 317.864 244.461 317.88 233.562 319.686ZM364.758 320.555C353.09 322.817 351.998 322.801 341.932 320.228C337.575 319.113 337.106 320.505 340.703 323.882C342.009 325.11 343.54 327.456 344.103 329.096C344.667 330.737 346.494 332.944 348.162 334C349.954 335.137 351.504 337.124 351.948 338.86C352.362 340.475 353.793 342.821 355.126 344.073C356.46 345.326 357.55 347.306 357.55 348.475C357.55 350.941 360.614 352.148 362.642 350.479C364.798 348.707 367.791 343.825 368.487 340.948C368.974 338.937 370.418 337.652 374.364 335.717C378.057 333.906 379.874 332.357 380.536 330.46C381.098 328.849 382.805 327.138 384.796 326.189C387.777 324.767 390.229 321.549 390.229 319.058C390.229 317.449 376.673 318.246 364.758 320.555ZM390.769 321.511C389.958 323.456 387.925 325.727 385.961 326.887C384.091 327.989 382.011 330.041 381.34 331.447C380.657 332.876 377.925 335.18 375.137 336.676C372.23 338.238 369.89 340.238 369.517 341.481C369.165 342.653 367.583 345.667 365.998 348.179C363.679 351.854 362.592 352.744 360.423 352.744C358.257 352.744 357.823 353.098 358.205 354.557C358.466 355.554 358.209 356.662 357.634 357.017C357.06 357.372 356.589 359.708 356.589 362.206C356.589 366.418 356.887 366.978 360.674 369.89C364.548 372.868 365.056 372.996 370.527 372.416C374.546 371.988 377.549 372.236 380.443 373.237C385.096 374.843 386.056 374.101 385.19 369.571C384.9 368.047 385.372 366.636 386.523 365.594C388.496 363.81 388.78 360.627 387.397 355.806C386.225 351.715 386.812 350.347 390.805 347.879C393.613 346.143 394.074 345.335 394.074 342.129C394.074 339.531 394.712 337.808 396.179 336.441C397.335 335.363 398.552 334.482 398.884 334.482C400.109 334.482 403.687 326.923 403.687 324.336C403.687 322.862 404.402 320.867 405.276 319.9C406.805 318.211 406.577 318.143 399.522 318.143H392.177L390.769 321.511ZM335.315 321.076C333.837 321.906 311.156 322.683 283.093 322.865L270.631 322.947L275.569 327.993C281.15 333.695 282.162 337.331 279.357 341.611C278.406 343.062 277.396 345.683 277.111 347.435C276.625 350.425 276.793 350.66 279.828 351.272C286.042 352.527 286.133 352.612 287.248 358.163C287.841 361.116 288.083 363.926 287.789 364.406C287.491 364.885 289.99 363.77 293.341 361.929C297.266 359.77 301.395 358.35 304.943 357.933C310.123 357.324 310.454 357.13 310.454 354.702C310.454 353.187 311.45 351.181 312.856 349.859C314.29 348.514 315.259 346.536 315.259 344.96C315.259 343.506 316.34 341.033 317.662 339.463C319.115 337.738 320.066 335.408 320.066 333.574C320.066 329.122 322.538 324.996 325.609 324.323C327.054 324.007 328.837 323.558 329.572 323.326C330.665 322.981 330.688 323.172 329.695 324.368C329.027 325.172 327.502 325.831 326.307 325.831C323.461 325.831 321.027 329.631 321.027 334.068C321.027 336.4 320.224 338.523 318.624 340.423C317.302 341.993 316.221 344.295 316.221 345.535C316.221 346.776 315.14 349.076 313.818 350.646C310.512 354.575 310.665 357.232 314.242 358.017C315.796 358.359 317.91 358.188 318.936 357.638C320.348 356.884 322.419 357.182 327.402 358.853C332.86 360.684 334.257 361.596 335.468 364.116C336.895 367.08 336.997 367.119 339.199 365.578C341.179 364.19 342.243 364.134 347.7 365.141C351.129 365.772 354.016 366.161 354.116 366.004C354.751 364.991 356.589 353.433 356.589 350.45C356.589 347.708 355.889 346.129 353.706 343.945C352.12 342.359 350.822 340.266 350.822 339.294C350.822 338.323 349.14 336.193 347.083 334.564C345.026 332.935 343.049 330.432 342.689 329.001C342.33 327.568 341.17 325.791 340.114 325.051C339.054 324.311 337.896 322.914 337.538 321.95C337.056 320.657 336.473 320.428 335.315 321.076ZM194.153 322.409C189.661 323.618 179.615 326.997 178.776 327.583C178.512 327.768 179.183 328.639 180.268 329.518C181.35 330.398 182.799 333.122 183.484 335.574C184.555 339.403 184.524 340.348 183.256 342.302C182.446 343.551 181.647 346.268 181.481 348.338C181.201 351.818 181.399 352.157 184.107 352.878C188.41 354.024 191.017 360.181 189.347 365.246C188.687 367.244 188.426 369.33 188.765 369.879C189.106 370.431 188.296 371.97 186.963 373.303C185.028 375.239 184.542 376.677 184.542 380.495C184.542 387.715 185.122 388.64 188.235 386.379C189.641 385.36 193.699 383.938 197.253 383.221L203.716 381.915L206.812 385.11C208.516 386.868 210.409 388.306 211.017 388.306C211.626 388.306 212.917 386.549 213.884 384.4C216.498 378.609 220.3 375.812 225.56 375.812H229.906L227.952 372.688C226.878 370.969 224.132 368.448 221.85 367.084C217.922 364.734 217.702 364.368 217.702 360.182C217.702 356.502 217.181 355.223 214.578 352.527C212.862 350.746 211.454 348.295 211.454 347.082C211.454 345.87 210.591 343.777 209.533 342.434C208.38 340.967 207.611 338.534 207.611 336.353C207.611 333.215 207.137 332.423 204.161 330.584C201.447 328.906 200.801 327.972 201.138 326.204C201.859 322.432 199.279 321.029 194.153 322.409ZM262.172 324.521C264.274 326.362 265.428 328.334 265.66 330.477C265.888 332.582 267.248 334.951 269.621 337.381C272.734 340.571 273.15 341.503 272.627 344.123C271.883 347.838 272.809 351.995 274.272 351.508C274.861 351.312 275.664 349.287 276.053 347.007C276.44 344.728 277.421 342.132 278.229 341.238C280.914 338.27 279.605 334.143 274.144 328.369C269.578 323.542 268.57 322.946 264.053 322.389L259.032 321.77L262.172 324.521ZM121.587 328.744C120.53 329.219 117.758 330.089 115.428 330.68C113.098 331.27 109.924 333.022 108.373 334.571C106.824 336.122 104.73 337.833 103.719 338.373C102.71 338.912 101.884 340.225 101.884 341.288C101.884 343.726 97.9208 347.743 94.2541 349.023C92.5998 349.599 91.0639 351.053 90.5065 352.573C89.3224 355.802 85.2807 360.083 82.6192 360.926C81.0459 361.426 76.8937 368.395 76.8937 370.536C76.8937 370.718 79.2177 371.157 82.0579 371.512C87.0146 372.133 87.2711 372.307 88.4544 375.894C89.132 377.947 90.4171 380.288 91.309 381.096C92.7921 382.438 93.0765 382.24 94.6443 378.763C95.5861 376.673 96.9385 374.741 97.6488 374.468C98.9415 373.972 113.001 375.601 129.276 378.131C134.034 378.871 138.051 379.357 138.203 379.21C138.356 379.062 138.066 377.915 137.561 376.655C135.61 371.803 135.235 370.475 135.404 369.035C135.5 368.218 134.486 366.522 133.149 365.264C131.285 363.513 130.718 362.024 130.718 358.88C130.718 356.625 130.286 354.512 129.757 354.186C129.228 353.858 128.796 351.911 128.796 349.858C128.796 347.185 128.237 345.733 126.827 344.744C125.321 343.69 125.008 342.76 125.498 340.807C125.946 339.023 125.631 337.686 124.455 336.387C123.233 335.037 122.921 333.595 123.32 331.14C123.622 329.278 123.788 327.782 123.689 327.818C123.59 327.854 122.645 328.271 121.587 328.744ZM50.832 331.488C51.9498 332.605 52.8649 334.114 52.8649 334.841C52.8649 335.567 53.7261 338.106 54.7785 340.486C56.2702 343.859 57.314 344.935 59.5217 345.376C61.5344 345.779 62.8109 346.912 63.944 349.299C64.8206 351.146 66.146 353.16 66.89 353.777C67.634 354.397 68.2433 356.159 68.2433 357.694C68.2433 359.23 69.6081 363.178 71.2767 366.468L74.3092 372.447L77.0273 366.68C78.617 363.308 80.6507 360.514 81.9242 359.952C84.9942 358.598 89.3887 354.236 89.3887 352.541C89.3887 350.96 92.3499 347.938 93.9003 347.938C95.9908 347.938 99.8411 343.947 100.457 341.14C100.866 339.279 101.944 337.89 103.415 337.331C104.687 336.848 105.728 336.291 105.728 336.093C105.728 335.897 101.511 335.916 96.357 336.139C88.8264 336.462 85.5699 336.141 79.777 334.5C69.96 331.72 64.2275 330.641 55.8781 329.998L48.7992 329.454L50.832 331.488ZM55.7482 347.545C55.7482 348.388 54.8506 350.225 53.7539 351.631C49.1403 357.542 43.2849 368.736 43.2696 371.672L43.2533 374.743L47.6545 372.795C52.8552 370.495 61.8632 370.661 67.333 373.159C72.9741 375.735 73.7786 374.122 70.2838 367.242C68.6326 363.993 67.2745 360.159 67.2648 358.721C67.2475 356.186 62.6089 348.268 60.2685 346.78C58.2819 345.517 55.7482 345.947 55.7482 347.545ZM80.8295 380.311C75.4933 386.299 74.3696 389.665 75.3404 396.75C75.9527 401.216 77.8548 404.754 77.8548 401.426C77.8548 397.073 85.963 386.008 89.872 385.028L92.3308 384.411L89.899 381.221C88.5611 379.467 87.4663 377.558 87.4663 376.978C87.4663 374.217 85.2873 375.31 80.8295 380.311Z" fill="white" fill-opacity="0.07"/>
</g>
<defs>
<clipPath id="clip0_2234_1345">
<rect width="570.925" height="405" fill="white"/>
</clipPath>
</defs>
</svg>
