<svg width="320" height="235" viewBox="0 0 320 235" fill="none" xmlns="http://www.w3.org/2000/svg">
<path fill-rule="evenodd" clip-rule="evenodd" d="M1.93391 7.66509C1.50908 8.35174 6.44575 13.9059 7.89371 14.3697C12.22 15.7568 16.3778 15.9774 21.9885 15.1179C25.1402 14.6348 30.696 14.0881 34.334 13.9026C40.7055 13.5782 41.1715 13.6326 46.9584 15.3649C53.629 17.3611 55.8295 17.5011 60.63 16.2332C65.0079 15.0772 67.7782 15.1447 71.97 16.5098C75.9072 17.792 78.684 17.7108 85.4451 16.1168C88.6901 15.3522 89.7396 15.288 90.4685 15.81C92.6449 17.3688 94.1005 17.4528 110.027 16.9434C123.914 16.4994 126.515 16.5384 127.272 17.2009C128.852 18.5824 131.633 19.7603 133.316 19.7603C136.32 19.7603 137.53 20.6215 139.056 23.8457C139.858 25.5395 140.515 27.2444 140.515 27.633C140.515 28.0221 139.576 28.868 138.428 29.5135C135.402 31.2139 134.301 32.5998 134.762 34.129C134.973 34.83 136.725 38.255 138.654 41.7399C140.583 45.2247 142.161 48.5954 142.161 49.2294C142.161 49.8639 141.4 52.1725 140.469 54.3598C138.914 58.0132 138.827 58.5369 139.396 60.7966C140.666 65.8376 145.194 72.9555 147.923 74.1987C148.595 74.505 149.488 75.5287 149.907 76.4733C150.741 78.3532 152.72 79.2886 157.063 79.855L159.613 80.1882L162.551 87.6684L165.489 95.1491L168.59 96.5307C172.11 98.0994 172.333 98.6373 172.344 105.592C172.348 108.476 172.69 110.124 173.793 112.58C175.164 115.635 175.19 115.862 174.329 117.176C173.158 118.963 172.565 118.921 171.561 116.979C171.112 116.111 170.351 115.248 169.869 115.064C168.843 114.67 166.684 116.799 165.212 119.657L164.222 121.578L163.901 119.657C163.724 118.601 163.33 115.39 163.026 112.522C162.722 109.654 162.315 106.016 162.122 104.437C161.806 101.854 161.902 101.461 163.081 100.505L164.391 99.442L163.061 98.0231C162.329 97.2426 161.302 96.6042 160.777 96.6042C160.147 96.6042 158.98 95.0421 157.324 91.9793C155.949 89.4352 153.934 85.9624 152.846 84.262C151.154 81.618 150.655 81.1943 149.401 81.3397C147.2 81.595 147.337 82.8755 150.045 87.3451C151.393 89.5697 153.187 93.0793 154.033 95.1442C155.804 99.4705 156.393 98.5819 149.133 102.533C145.292 104.624 144.721 104.795 144.157 104.024C143.602 103.264 143.384 103.253 142.457 103.931C141.652 104.52 141.156 104.561 140.423 104.104C139.654 103.623 139.138 103.751 137.926 104.719C134.811 107.21 133.863 107.72 128.924 109.556C126.147 110.588 123.812 111.369 123.736 111.291C123.661 111.213 124.19 109.297 124.914 107.033C126.659 101.569 126.667 98.2915 124.939 96.6674C123.974 95.7606 123.538 94.5959 123.267 92.195C122.934 89.2579 123.059 88.6459 124.57 85.778C126.194 82.6977 126.796 78.8972 125.762 78.2583C125.498 78.0947 125.004 76.8625 124.666 75.5199C124.254 73.8798 123.527 72.7058 122.45 71.939C120.607 70.6266 116.755 69.9591 114.004 70.4751C112.19 70.8154 108.679 73.5505 108.679 74.6236C108.679 74.9062 108.021 75.4601 107.216 75.8536C106.168 76.3668 105.464 77.4262 104.733 79.5888C103.297 83.8405 101.917 85.0304 97.7385 85.621C94.1027 86.1353 90.496 88.1212 89.3285 90.252C88.986 90.8777 88.5683 92.3564 88.4009 93.5376C88.1369 95.3972 87.8388 95.7716 86.1751 96.3303C84.2908 96.9632 83.7068 98.0099 83.4955 101.133C83.3841 102.786 84.4253 102.181 85.152 100.172C85.5977 98.9392 86.2031 98.2509 86.8409 98.2509C87.7164 98.2509 87.6138 98.6949 85.9836 101.956C84.9649 103.994 83.8331 106.58 83.4691 107.703C82.8473 109.622 82.9153 109.905 84.5867 112.369C85.5659 113.811 86.9271 115.674 87.6116 116.506L88.857 118.021L87.762 121.172C85.4473 127.835 85.073 130.85 84.2694 149.297C83.8292 159.41 83.3083 170.689 83.1118 174.362L82.755 181.039L84.7327 182.321C85.8206 183.026 86.7136 183.772 86.7174 183.979C86.7427 185.387 85.3375 187.339 83.4307 188.542C82.1996 189.32 80.9613 190.563 80.6786 191.307C80.0562 192.945 79.0001 193.034 77.6674 191.561C76.9336 190.751 75.9769 190.464 74.0069 190.464C72.5403 190.464 70.8964 190.186 70.3535 189.847C69.5928 189.372 68.9714 189.435 67.6437 190.122C65.643 191.156 63.8959 191.272 63.3596 190.404C63.1137 190.006 62.2042 189.938 60.7201 190.208C59.4752 190.434 57.2215 190.692 55.712 190.781C53.8584 190.89 52.7892 191.24 52.4187 191.86C50.2199 195.538 50.1359 195.575 44.9308 195.182C40.5375 194.851 40.0057 194.918 38.9891 195.934C38.3755 196.548 37.8733 197.44 37.8733 197.916C37.8733 198.685 36.8699 198.74 28.9539 198.408C20.4269 198.049 19.9044 197.961 17.0831 196.4C15.1253 195.316 13.1696 194.709 11.2721 194.594C9.69899 194.5 6.8404 193.787 4.91875 193.01C2.99765 192.234 1.29721 191.728 1.14023 191.885C0.286709 192.739 7.58029 195.404 10.7721 195.404C12.5845 195.404 14.1971 195.916 16.6523 197.272C19.8276 199.026 20.3874 199.149 25.7978 199.269C39.2548 199.569 37.9457 199.707 38.9732 197.874C39.8932 196.231 39.9085 196.227 44.9171 196.227H49.9389L52.0757 193.894C53.9902 191.805 54.4732 191.561 56.7104 191.561C58.0843 191.561 59.7886 191.341 60.4983 191.071C61.3968 190.729 62.106 190.813 62.8344 191.345C64.2033 192.346 65.5321 192.311 67.6437 191.219C68.9714 190.533 69.5928 190.47 70.3535 190.945C70.8964 191.284 72.5524 191.561 74.0333 191.561C75.9209 191.561 76.821 191.808 77.0428 192.385C77.2162 192.838 77.708 193.208 78.1351 193.208C78.5621 193.208 79.0407 193.702 79.1988 194.306C79.6116 195.884 83.0882 195.761 86.4737 194.047C89.0513 192.742 89.2818 192.718 92.4676 193.437C94.8722 193.979 96.8334 194.051 99.6184 193.701C103.518 193.211 105.386 193.419 105.386 194.343C105.386 194.624 107.568 194.855 110.234 194.855C112.901 194.855 116.456 195.13 118.134 195.467C120.704 195.984 121.638 195.93 124.053 195.127L126.922 194.175L128.095 195.646L129.268 197.117L130.897 195.417L132.526 193.716L141.323 194.087L150.12 194.457L155.667 191.672L161.213 188.887L161.501 184.274C161.659 181.737 162.074 179.127 162.424 178.476C163.132 177.153 164.681 176.948 166.306 177.963C167.94 178.983 168.619 177.883 168.638 174.187C168.659 170.006 167.873 167.291 165.5 163.35L163.564 160.135L166.067 155.402C167.444 152.799 169.155 150.141 169.87 149.496C170.7 148.747 171.51 146.966 172.111 144.569C172.63 142.501 173.9 139.539 174.939 137.974C176.774 135.212 176.802 135.088 175.96 133.461C175.484 132.54 175.095 130.966 175.095 129.961C175.095 128.027 173.813 125.695 172.751 125.695C172.402 125.695 171.568 126.374 170.897 127.205C169.733 128.645 169.608 128.676 168.16 127.885C167.325 127.429 166.153 126.219 165.555 125.196L164.469 123.336L165.983 120.445C166.816 118.855 167.962 117.133 168.53 116.618C169.518 115.725 169.617 115.772 170.737 117.67C171.382 118.763 172.234 119.657 172.63 119.657C173.411 119.657 176.192 116.611 176.192 115.755C176.192 115.466 175.533 113.941 174.728 112.367C173.807 110.566 173.311 108.79 173.391 107.582C173.462 106.525 173.356 103.771 173.157 101.461L172.794 97.2623L170.24 96.3095C166.588 94.9471 166.097 94.3598 164.15 89.0318C163.19 86.4043 161.864 83.1494 161.202 81.7997C160.114 79.5778 159.765 79.3067 157.53 78.9427C152.538 78.1304 151.191 77.5058 150.36 75.6182C149.926 74.6324 148.872 73.4934 148.016 73.0878C145.485 71.8868 139.966 62.227 139.966 58.9996C139.966 58.5654 140.722 56.3067 141.647 53.9795C142.759 51.1785 143.213 49.2717 142.988 48.3391C142.801 47.5641 141.057 44.0606 139.112 40.5532C137.167 37.0464 135.575 33.7706 135.575 33.2739C135.575 32.7771 136.933 31.5021 138.594 30.44C140.254 29.3779 141.613 28.1758 141.613 27.7691C141.613 26.55 139.947 22.8972 138.542 21.0354C137.439 19.5732 136.737 19.2301 134.203 18.9134C132.277 18.6724 130.316 17.9633 128.798 16.9577L126.417 15.3802L110.001 15.9C93.8475 16.411 93.5598 16.4011 92.012 15.2814C90.3061 14.0481 89.548 14.0755 82.8818 15.608C78.0368 16.7222 75.3989 16.6663 71.6297 15.3692C67.6289 13.9926 65.9943 13.9954 60.0169 15.3895C54.752 16.6169 54.6093 16.6042 46.157 14.137C40.964 12.6215 39.9645 12.4991 35.1793 12.7928C32.2834 12.9706 26.7309 13.5415 22.8398 14.0618C17.1216 14.8258 15.3053 14.884 13.3639 14.3648C12.0427 14.0118 10.2863 13.7187 9.46077 13.7144C7.60499 13.7039 7.28005 13.4734 5.017 10.5665L3.20129 8.23373H159.456H315.71L314.669 10.0176L313.629 11.8015L300.76 12.1253C289.449 12.4097 287.093 12.6298 281.304 13.946C273.807 15.6497 272.166 15.5707 265.707 13.194C260.006 11.0962 256.875 10.7734 249.634 11.538C242.307 12.3114 236.599 13.682 232.9 15.5559C231.428 16.3023 228.996 17.0911 227.496 17.309C224.343 17.7668 223.018 18.3672 221.608 19.9782C220.348 21.4152 215.712 30.6502 215.712 31.7211C215.712 32.1547 216.222 34.6214 216.847 37.2028C217.471 39.7842 217.849 42.4238 217.687 43.0687C217.525 43.7131 215.57 46.2045 213.342 48.6042C211.114 51.0045 208.907 53.7138 208.437 54.6249C207.966 55.5361 206.382 57.5121 204.914 59.016C201.289 62.7314 199.794 64.7349 199.794 65.8782C199.794 66.4068 200.81 68.3597 202.051 70.2182L204.307 73.5977L203.39 77.2791C202.885 79.3045 201.641 82.4792 200.625 84.3355L198.779 87.7095L201.345 88.0927C206.957 88.9297 208.841 90.7076 207.283 93.6951C206.842 94.5404 203.574 97.9473 200.02 101.266C190.172 110.465 187.612 115.416 190.291 120.083C191.174 121.622 191.165 121.759 190.094 123.121C189.477 123.906 187.454 125.816 185.599 127.366C183.519 129.104 182.109 130.744 181.92 131.645C181.752 132.448 181.383 133.534 181.099 134.058C180.816 134.582 180.583 135.764 180.583 136.684C180.583 138.345 178.636 142.752 176.671 145.54C176.106 146.341 175.643 147.726 175.643 148.619C175.643 149.511 174.899 151.637 173.988 153.342C172.414 156.293 172.376 156.511 173.222 157.801C175.206 160.83 181.042 162.712 183.877 161.238C185.367 160.463 186.014 157.96 185.03 156.775C184.634 156.297 184.634 155.451 185.03 154.014C185.345 152.874 185.469 151.594 185.305 151.168C184.858 150.003 182.967 150.239 181.678 151.623C180.729 152.64 180.451 152.716 180.046 152.06C179.388 150.995 179.826 150.426 182.005 149.516C184.433 148.501 187.12 148.528 187.52 149.572C187.694 150.024 188.18 150.395 188.601 150.395C189.021 150.395 189.366 150.889 189.366 151.493C189.366 152.16 188.999 152.591 188.432 152.591C187.72 152.591 187.651 152.743 188.142 153.233C188.632 153.723 189.309 153.701 191.006 153.142C193.039 152.471 193.293 152.497 193.993 153.454C194.413 154.029 194.658 154.659 194.537 154.855C194.416 155.051 194.685 155.516 195.135 155.889C197.556 157.898 193.952 158.154 191.335 156.158C188.277 153.826 187.025 154.687 189.772 157.234C190.599 158.001 191.533 158.628 191.847 158.628C192.161 158.628 192.698 159.369 193.04 160.275C193.838 162.389 194.537 162.349 196.83 160.055C199.091 157.795 199.178 156.72 197.188 155.677L195.679 154.887L197.778 154.493C200.22 154.035 201.472 154.799 200.398 156.092C199.873 156.725 199.884 157.145 200.449 158.067C201.063 159.07 201.034 159.314 200.243 159.763C199.735 160.052 198.795 161.69 198.154 163.403C197.004 166.475 197.003 166.537 198.034 167.918C198.891 169.066 199.466 169.291 201.221 169.166C205.221 168.88 211.884 167.832 212.118 167.452C212.247 167.244 210.396 165.605 208.005 163.811C203.611 160.515 202.653 159.341 204.823 159.908C205.476 160.079 206.464 159.976 207.019 159.678C207.794 159.263 208.028 159.334 208.028 159.981C208.028 160.993 209.858 161.102 210.658 160.138C211.578 159.029 210.056 156.098 208.337 155.667C207.539 155.467 207.033 155.063 207.214 154.77C207.834 153.767 208.6 154.24 211.812 157.605C215.08 161.029 216.261 161.364 216.261 158.87C216.261 157.711 216.514 157.53 218.137 157.53C221.541 157.53 221.749 157.804 220.614 160.79C220.062 162.244 219.524 164.072 219.42 164.853C219.167 166.743 218.658 167.163 217.642 166.32C216.928 165.728 216.711 165.883 216.197 167.358C215.709 168.758 215.376 169.025 214.471 168.737C213.576 168.453 213.422 168.569 213.708 169.313C213.905 169.826 214.065 170.341 214.065 170.46C214.065 170.902 217.342 172.35 218.342 172.35C218.912 172.35 220.908 171.586 222.778 170.652C224.647 169.718 226.539 169.093 226.982 169.262C228.095 169.69 229.434 169.096 229.434 168.175C229.434 167.162 230.492 167.205 231.664 168.265C232.226 168.773 234.355 169.304 236.922 169.575C239.294 169.826 241.931 170.306 242.78 170.642C245.117 171.565 247.865 171.378 249.867 170.157C250.855 169.554 251.811 169.06 251.992 169.059C252.172 169.058 253.209 169.922 254.297 170.978C255.385 172.035 256.628 172.899 257.058 172.899C257.489 172.899 258.161 173.283 258.55 173.753C260.235 175.783 260.982 175.7 266.685 172.856C272.174 170.119 272.249 170.099 275.269 170.658C276.945 170.968 280.621 171.07 283.438 170.885C287.431 170.622 289.143 170.747 291.205 171.449C295.07 172.766 296.533 172.611 298.232 170.704C299.04 169.798 300.208 169.057 300.829 169.057C301.45 169.057 303.163 168.539 304.635 167.906L307.312 166.754L312.147 168.228C314.806 169.038 317.414 169.833 317.942 169.992C318.47 170.152 318.902 170.046 318.902 169.756C318.902 169.08 309.817 166.296 307.65 166.308C305.12 166.323 298.412 168.863 297.566 170.127C296.651 171.495 294.886 171.559 290.891 170.373C288.591 169.69 286.785 169.579 282.821 169.876C279.441 170.13 276.78 170.035 274.954 169.597C272.197 168.936 272.186 168.938 266.672 171.739L261.15 174.543L259.521 173.172C258.625 172.418 257.434 171.801 256.873 171.801C256.314 171.801 255.328 171.06 254.683 170.155C253.354 168.289 251.294 167.977 249.338 169.347C247.881 170.368 245.164 170.525 242.596 169.737C241.546 169.414 239.109 168.99 237.182 168.794C235.255 168.598 233.156 168.108 232.517 167.706C230.271 166.293 229.044 166.193 228.73 167.395C228.524 168.183 227.983 168.509 226.879 168.51C226.02 168.511 224.102 169.129 222.618 169.883C219.948 171.237 218.211 171.545 216.641 170.943C215.321 170.436 216.678 167.519 218.191 167.612C219.004 167.662 219.306 167.969 219.145 168.583C218.636 170.529 220.077 169.925 224.587 166.304C228.699 163.002 229.258 162.348 229.022 161.114C228.667 159.255 226.358 157.455 224.822 157.841C224.169 158.004 222.902 157.756 222.007 157.289C221.088 156.81 218.994 156.438 217.204 156.436C213.999 156.433 210.69 155.437 209.961 154.256C209.727 153.878 209.868 153.656 210.305 153.717C211.713 153.91 212.968 153.687 212.968 153.243C212.968 152.998 212.452 152.244 211.823 151.568C210.937 150.618 210.507 150.481 209.928 150.961C209.511 151.307 208.646 151.414 207.979 151.203C206.927 150.869 206.821 150.982 207.11 152.135C207.348 153.084 207.14 153.636 206.361 154.122C204.919 155.023 205.003 155.568 206.678 156.19C208.013 156.685 208.035 156.762 207.185 157.959C206.435 159.014 205.978 159.155 204.28 158.858C201.876 158.438 200.611 157.159 201.517 156.066C201.965 155.527 201.939 155.112 201.42 154.486C200.822 153.766 201.067 153.278 203.021 151.286C205.048 149.22 205.263 148.768 204.8 147.547C204.222 146.028 202.465 145.455 198.385 145.455C196.573 145.455 195.817 145.737 195.178 146.649C194.397 147.764 194.469 148.022 196.254 150.506L198.166 153.168L196.922 153.643C195.189 154.305 193.169 151.908 193.743 149.87C194.516 147.127 193.118 146.176 191.287 148.199C190.74 148.803 189.804 149.297 189.206 149.297C188.223 149.297 188.252 149.193 189.504 148.208C191.57 146.583 192.204 142.836 190.289 143.572C189.91 143.717 189.155 144.662 188.611 145.672C187.751 147.27 187.275 147.55 184.956 147.825C181.596 148.223 178.937 149.569 178.937 150.874C178.937 153.123 180.971 155.972 183.48 157.235C184.998 157.999 185.208 158.865 184.136 159.937C182.815 161.259 181.909 161.012 181.934 159.336C181.951 158.187 181.599 157.72 180.393 157.29C178.835 156.734 177.955 157.291 177.075 159.392C176.932 159.734 176.075 159.209 175.123 158.196L173.426 156.391L174.768 154.079C175.507 152.807 176.281 150.836 176.489 149.698C176.697 148.561 177.95 145.525 179.274 142.952C180.598 140.379 181.685 137.605 181.689 136.788C181.704 134.336 182.311 133.822 184.356 134.535C185.978 135.101 186.373 134.993 188.847 133.307C190.338 132.29 191.478 131.214 191.379 130.916C191.28 130.618 189.933 129.991 188.384 129.525L185.569 128.676L188.328 126.299C191.6 123.481 192.476 121.676 191.388 119.995C190.167 118.108 189.944 116.219 190.688 114.096C191.605 111.481 195.693 106.352 199.598 102.916C207.995 95.5284 209.681 93.1441 208.379 90.4979C207.573 88.8595 204.478 87.2754 202.082 87.2743C201.075 87.2737 200.347 87.0877 200.463 86.8615C202.391 83.1115 204.179 78.7161 204.729 76.3762L205.42 73.438L203.156 70.2281C201.911 68.4623 200.892 66.5023 200.892 65.8716C200.892 65.2184 202.4 63.12 204.397 60.9937C206.325 58.9408 208.584 56.1723 209.416 54.8401C210.25 53.5085 212.651 50.5994 214.754 48.3748L218.576 44.3306L218.303 40.9649C218.152 39.114 217.703 36.1731 217.304 34.4304L216.578 31.2611L218.829 26.7229C222.14 20.0463 223.292 18.8706 226.97 18.4112C228.64 18.2026 231.797 17.2042 233.986 16.1926C239.368 13.7056 246.258 12.4431 254.683 12.3987C261.072 12.3657 261.789 12.4711 265.112 13.9312C270.169 16.1536 275.918 16.456 281.853 14.8116C285.657 13.7577 287.967 13.5645 299.143 13.3658C306.237 13.2396 312.594 13.0173 313.27 12.8718C314.569 12.5919 316.998 8.59984 316.429 7.67936C316.002 6.98886 2.3604 6.97459 1.93391 7.66509ZM114.717 71.2161C111.483 71.7633 112.513 72.4533 116.565 72.4533C118.909 72.4533 121.335 72.725 121.955 73.0571C122.664 73.4363 122.954 73.4512 122.735 73.0971C122.075 72.0301 116.977 70.8341 114.717 71.2161ZM110.568 74.3568C109.26 75.347 109.98 75.353 112.522 74.3744C114.268 73.702 114.315 73.6306 113.038 73.5928C112.266 73.5697 111.154 73.9139 110.568 74.3568ZM119.689 74.0714C120.462 74.3058 121.697 74.8146 122.433 75.2021C123.773 75.9058 123.773 75.9058 122.728 74.729C122.057 73.9731 121.074 73.5681 119.984 73.5983C118.323 73.6444 118.316 73.6548 119.689 74.0714ZM112.247 75.4919C111.342 75.9069 109.959 76.2571 109.176 76.2708C107.469 76.3004 106.163 77.6216 105.627 79.8632C104.575 84.2532 102.41 86.1705 98.0755 86.5503C96.5606 86.6831 94.651 87.1382 93.8326 87.5619C92.018 88.4999 89.4685 91.4381 89.4685 92.5908C89.4685 93.2165 89.7149 93.1281 90.429 92.2466C90.9576 91.5946 92.3775 90.7784 93.5851 90.4331C96.4404 89.6164 103.18 89.6608 103.698 90.5001C103.916 90.8514 105.687 91.2872 107.635 91.4694C111.944 91.8717 112.265 91.5753 112.675 86.8209C112.995 83.1006 113.813 81.7311 116.564 80.3089C117.43 79.8605 118.661 79.6311 119.299 79.7974C120.085 80.0032 120.938 79.6415 121.95 78.6721L123.441 77.2439L123.812 78.7232C124.016 79.5372 124.058 81.3211 123.903 82.6878C123.717 84.3449 123.806 84.9904 124.172 84.6243C125.227 83.5698 125.336 79.2918 124.348 77.783C122.593 75.1049 115.872 73.8321 112.247 75.4919ZM122.127 80.1377C121.94 80.4396 120.753 80.6877 119.488 80.6893C116.294 80.6931 114.197 82.4402 113.796 85.4317C113.499 87.6464 113.55 87.7348 115.936 89.1334C117.281 89.9216 118.77 90.5665 119.245 90.5665C120.488 90.5665 122.561 85.9196 122.845 82.5001C123.077 79.7052 122.852 78.9653 122.127 80.1377ZM148.748 82.83C148.748 83.1033 149.843 85.1034 151.182 87.2743C153.417 90.8997 156.88 99.1055 156.374 99.5742C156.255 99.684 153.321 101.293 149.853 103.15C143.485 106.559 142.293 107.347 142.773 107.828C142.982 108.036 150.805 104.423 156.526 101.476C157.311 101.072 157.763 101.968 159.682 107.724C160.914 111.42 161.921 115.041 161.921 115.77C161.921 116.499 162.062 116.956 162.233 116.784C162.535 116.482 161.586 104.138 161.074 101.719C160.895 100.869 161.14 100.42 161.92 100.173C162.812 99.8893 162.912 99.6247 162.45 98.763C162.134 98.1718 161.306 97.702 160.58 97.702C159.505 97.702 158.822 96.86 156.683 92.8993C152.862 85.8252 150.514 82.3332 149.578 82.3332C149.122 82.3332 148.748 82.5566 148.748 82.83ZM113.008 90.758C112.624 91.6022 111.746 92.2966 110.799 92.5041C109.606 92.7664 109.228 93.1644 109.228 94.1584C109.228 95.5745 110.599 96.5702 113.091 96.9626C114.498 97.1844 114.607 97.0664 114.607 95.3226C114.607 94.2896 114.899 92.8987 115.256 92.2324C115.612 91.5666 115.822 90.9727 115.722 90.9128C115.622 90.8536 115.115 90.4792 114.594 90.0807C113.769 89.4506 113.564 89.5384 113.008 90.758ZM120.843 90.6285C120.287 91.5194 119.763 91.7126 118.556 91.4716C115.921 90.9447 116.291 92.391 119.061 93.4476C120.445 93.9756 121.764 94.4081 121.99 94.4081C122.495 94.4087 122.465 91.7439 121.945 90.4315C121.599 89.556 121.502 89.5736 120.843 90.6285ZM91.8835 92.0842C91.2814 92.4865 89.8071 94.9576 90.1694 94.9576C90.2742 94.9576 90.9076 94.2166 91.5773 93.3109C92.8452 91.5956 92.8913 91.4112 91.8835 92.0842ZM90.8967 95.9181C87.6072 100.591 84.6789 106.111 84.2173 108.51C83.9642 109.825 84.7711 111.179 89.6951 117.709C92.871 121.92 95.3481 125.488 95.1999 125.636C95.0517 125.784 93.6169 124.608 92.0114 123.023L89.093 120.141L87.9222 123.878C87.2784 125.934 86.5001 129.345 86.1938 131.458C85.7349 134.621 83.928 173.424 83.9681 179.261C83.978 180.718 84.3518 181.161 86.6099 182.389C88.0562 183.177 90.4647 184.09 91.9615 184.418C93.4583 184.746 95.1769 185.142 95.7806 185.297C96.8378 185.57 96.8411 185.551 95.863 184.765C94.6905 183.824 95.0901 182.779 96.6226 182.779C97.525 182.779 97.5985 182.579 97.1391 181.371C96.4893 179.661 96.4492 178.388 97.0458 178.388C97.2884 178.388 98.4361 179.258 99.5965 180.32C100.756 181.382 101.791 182.166 101.897 182.06C102.002 181.955 101.223 179.446 100.165 176.485C97.3911 168.725 96.0551 161.518 96.0551 154.321C96.0551 143.687 97.5848 145.835 100.687 160.824C103.303 173.466 105.175 180.797 106.337 182.949L107.283 184.7L107.653 181.133C108.406 173.886 109.158 169.457 109.734 168.88C110.489 168.126 110.478 168.625 109.559 177.29C108.762 184.811 108.878 185.22 111.669 184.707C112.559 184.544 114.618 184.253 116.246 184.062C117.997 183.856 119.325 183.404 119.497 182.953C119.658 182.534 119.142 180.232 118.351 177.839L116.913 173.487V151.874C116.913 139.167 117.163 128.402 117.52 125.749C117.854 123.268 118.016 121.127 117.88 120.991C117.745 120.856 116.351 121.278 114.782 121.929C112.916 122.705 111.961 123.418 112.016 123.993C112.188 125.801 111.916 126.174 109.604 127.293C106.513 128.789 105.196 128.806 105.661 127.342C106.109 125.93 105.617 125.96 101.985 127.566C100.342 128.292 97.7061 129.271 96.1281 129.739C93.6125 130.486 93.2212 130.492 92.9489 129.783C92.4484 128.478 93.7124 127.48 97.4355 126.241C100.752 125.137 100.881 125.03 100.001 124.103C99.1157 123.171 99.0229 123.189 97.9301 124.5C97.2731 125.287 96.5128 125.704 96.1462 125.477C95.1587 124.867 95.3234 124.476 98.0366 120.988L100.567 117.736L95.762 113.289C92.6306 110.391 91.1843 108.702 91.6091 108.439C91.9675 108.218 92.5878 108.308 92.9874 108.639C93.5686 109.122 93.8475 108.554 94.381 105.805C95.2263 101.451 96.6819 98.123 98.9861 95.2759C101.993 91.56 102.029 91.6643 97.75 91.6643H93.8914L90.8967 95.9181ZM101.088 94.1123C97.7198 97.9484 95.5984 102.88 94.7685 108.804C94.4968 110.742 94.6576 111.009 97.8318 113.881C99.6744 115.548 101.585 116.913 102.076 116.913C102.569 116.913 103.283 117.222 103.664 117.599C104.219 118.149 104.676 117.904 105.968 116.364C107.955 113.996 109.032 110.332 109.465 104.464C109.772 100.312 109.695 99.8251 108.448 97.988C107.707 96.8951 106.819 95.1491 106.475 94.1074C105.603 91.4661 103.41 91.4683 101.088 94.1123ZM115.604 94.1661C115.398 94.7023 115.485 95.3961 115.797 95.7079C116.749 96.6602 116.447 97.1745 114.443 98.0116C112.717 98.7328 112.522 99.0303 112.522 100.935C112.522 103.449 111.109 105.133 110.717 103.085C110.585 102.389 110.443 103.301 110.403 105.112L110.33 108.405L111.479 106.484C112.111 105.428 113.623 103.533 114.841 102.275C116.802 100.247 117.048 99.6988 117.003 97.4588C116.975 96.0685 116.733 94.5393 116.465 94.0607C116.031 93.2851 115.938 93.2966 115.604 94.1661ZM117.858 96.0378C118.287 99.2356 117.714 100.705 114.768 103.958C112.313 106.669 110.566 110.154 109.558 114.35C109.213 115.788 109.278 115.87 110.442 115.45C111.703 114.996 115.135 114.935 117.187 115.329C118.232 115.531 118.298 115.173 118.563 107.856C118.846 100.04 118.975 99.465 120.93 97.2925C122.21 95.8709 122.181 95.8171 119.546 94.7161L117.57 93.8905L117.858 96.0378ZM109.065 97.4105C110.033 98.7394 111.424 99.2724 111.424 98.314C111.424 97.8398 109.033 96.0553 108.398 96.0553C108.223 96.0553 108.523 96.6651 109.065 97.4105ZM87.2729 97.1531C86.8201 97.4457 86.6966 97.685 86.9985 97.685C87.3004 97.685 87.9179 97.4457 88.3707 97.1531C88.8235 96.8606 88.947 96.6212 88.6451 96.6212C88.3432 96.6212 87.7257 96.8606 87.2729 97.1531ZM121.748 97.612C120.107 99.28 119.657 101.484 119.657 107.856C119.657 111.289 119.421 114.717 119.133 115.475C118.619 116.828 118.705 116.809 123.661 114.491C131.731 110.717 133.928 109.583 133.928 109.192C133.928 108.873 131.593 109.624 124.872 112.103C123.966 112.437 122.899 113.166 122.501 113.723C122.103 114.28 121.532 114.584 121.23 114.397C120.893 114.189 120.99 113.714 121.486 113.154C122.325 112.206 124.773 104.913 125.434 101.392C125.712 99.9074 125.571 98.9672 124.92 97.9742C123.881 96.3869 123.048 96.2919 121.748 97.612ZM150.806 105.166C147.561 106.803 144.906 108.441 144.906 108.808C144.906 110.45 141.823 117.109 140.733 117.824C139.369 118.718 124.565 122.392 122.303 122.398C121.495 122.4 120.473 122.042 120.034 121.603C118.521 120.09 118.01 127.635 118.01 151.463V173.892L119.379 177.924C121.057 182.87 121.084 183.791 119.563 184.353C118.761 184.65 118.585 184.925 119.023 185.196C119.382 185.418 119.541 185.817 119.377 186.082C119.212 186.349 120.794 187.077 122.893 187.702C126.829 188.875 127.541 189.513 126.709 191.131C126.352 191.825 126.632 192.528 127.777 193.808L129.328 195.545L130.839 194.144L132.35 192.744L141.509 193.012L150.669 193.28L155.472 190.744C160.225 188.234 160.275 188.186 160.275 186.118C160.275 182.567 161.341 178.175 162.48 177.037C163.433 176.083 163.779 176.032 165.322 176.614C167.674 177.502 168.098 176.8 167.712 172.672C167.404 169.38 165.651 164.848 163.541 161.884L162.381 160.255L164.953 155.462C166.368 152.826 168.12 150.035 168.847 149.259C169.594 148.463 170.655 146.098 171.284 143.826C171.897 141.613 173.177 138.719 174.128 137.395C175.824 135.034 175.839 134.957 174.927 133.412C174.416 132.547 173.997 130.841 173.997 129.622C173.997 126.791 173.135 126.275 171.446 128.097C169.642 130.042 168.731 129.916 166.385 127.396C162.45 123.17 162.065 122.467 161.457 118.406C160.886 114.59 157.745 103.298 157.047 102.555C156.859 102.355 154.052 103.531 150.806 105.166ZM142.091 105.249C141.409 106.12 141.428 106.139 142.299 105.457C142.827 105.042 143.259 104.61 143.259 104.496C143.259 104.044 142.809 104.335 142.091 105.249ZM139.605 108.268C139.816 109.796 139.192 110.353 138.683 109.091C138.531 108.714 138.386 109.085 138.363 109.915C138.315 111.585 137.419 111.974 137.097 110.464C136.955 109.797 136.799 109.961 136.586 111.002C136.213 112.83 137.577 115.13 138.493 114.215C138.82 113.888 139.532 113.62 140.076 113.62C140.619 113.62 141.064 113.339 141.064 112.997C141.064 112.654 141.664 111.817 142.399 111.136L143.733 109.899L142.368 108.616C141.355 107.664 141.097 107.578 141.366 108.281C141.902 109.676 140.79 109.436 140.039 107.994C139.415 106.796 139.402 106.805 139.605 108.268ZM129.263 112.766C126.244 114.319 121.118 116.803 117.873 118.283C112.706 120.64 110.862 121.853 112.444 121.853C113.628 121.853 135.562 110.749 135.28 110.293C135.104 110.009 134.914 109.814 134.856 109.859C134.799 109.904 132.281 111.212 129.263 112.766ZM127.182 115.938C122.104 118.365 120.207 119.534 120.326 120.161C120.577 121.486 124.191 121.442 129.49 120.049L134.11 118.834L134.195 115.678C134.243 113.942 134.264 112.535 134.242 112.552C134.22 112.568 131.043 114.092 127.182 115.938ZM141.841 113.267C141.684 113.677 140.555 114.341 139.334 114.745C137.211 115.445 137.066 115.418 136.081 114.137L135.05 112.796L135.038 114.068C135.031 114.766 135.282 115.816 135.594 116.4C136.329 117.773 139.458 117.835 140.666 116.5C141.583 115.486 142.879 112.522 142.405 112.522C142.252 112.522 141.998 112.857 141.841 113.267ZM109.777 116.913L107.856 117.965L109.914 117.988C111.417 118.005 111.973 118.246 111.973 118.88C111.973 119.358 112.159 119.667 112.387 119.566C112.615 119.465 113.995 118.909 115.453 118.33C118.049 117.299 118.078 117.262 116.823 116.566C114.986 115.547 112.004 115.694 109.777 116.913ZM106.484 117.187C106.09 117.662 106.037 118.011 106.358 118.011C106.664 118.011 107.057 117.64 107.231 117.187C107.405 116.735 107.461 116.364 107.357 116.364C107.253 116.364 106.86 116.735 106.484 117.187ZM100.184 119.836C97.8812 123.351 103.596 125.617 108.405 123.096L110.601 121.946L108.954 121.286L107.307 120.628L109.228 119.862C111.058 119.132 110.937 119.108 106.707 119.353C103.956 119.512 102.042 119.387 101.681 119.026C101.268 118.613 100.829 118.852 100.184 119.836ZM98.2506 126.968C95.4886 127.989 94.0094 128.777 94.6252 128.897C95.7532 129.117 102.988 126.467 103.494 125.648C103.942 124.923 103.434 125.051 98.2506 126.968ZM183.623 131.321C182.83 132.453 182.836 132.613 183.697 133.242C185.017 134.207 185.814 134.106 187.994 132.693C190.234 131.243 190.345 130.878 188.679 130.432C186.211 129.771 184.498 130.072 183.623 131.321ZM189.366 146.004C189.015 146.659 188.851 147.319 189.002 147.47C189.153 147.621 189.564 147.208 189.914 146.553C190.265 145.897 190.429 145.238 190.278 145.087C190.127 144.936 189.716 145.349 189.366 146.004ZM196.062 146.886C195.639 147.641 195.834 148.288 196.907 149.695C197.673 150.7 198.427 151.396 198.582 151.242C198.736 151.087 199.191 151.39 199.593 151.913C200.264 152.788 200.478 152.69 202.223 150.712C204.6 148.017 204.175 146.557 201.01 146.545C199.889 146.541 198.44 146.395 197.791 146.221C196.994 146.007 196.433 146.223 196.062 146.886ZM191.956 149.002C191.15 149.591 191.119 149.77 191.774 150.021C192.212 150.189 192.718 149.936 192.901 149.459C193.354 148.277 193.109 148.159 191.956 149.002ZM96.8164 155.726C97.323 162.926 98.4092 167.991 101.266 176.467C102.588 180.392 103.462 183.814 103.207 184.073C102.952 184.331 101.672 183.555 100.36 182.346L97.9762 180.148V182.287C97.9762 183.958 98.1864 184.426 98.9367 184.426C100.48 184.426 100.041 185.429 98.3878 185.679C97.5579 185.805 99.7189 185.908 103.191 185.908C106.662 185.908 108.821 185.805 107.988 185.679C107.016 185.532 106.186 184.892 105.668 183.891C104.314 181.274 102.334 173.729 99.8671 161.784C98.5728 155.52 97.2731 150.395 96.9778 150.395C96.6402 150.395 96.5804 152.367 96.8164 155.726ZM182.602 152.063C181.362 153.038 181.254 153.348 181.827 154.266C182.845 155.896 183.787 155.547 184.192 153.388C184.659 150.899 184.379 150.666 182.602 152.063ZM190.463 151.8C190.463 152.27 190.71 152.503 191.012 152.316C191.314 152.129 191.561 151.745 191.561 151.46C191.561 151.176 191.314 150.944 191.012 150.944C190.71 150.944 190.463 151.329 190.463 151.8ZM210.223 151.942C210.223 152.605 211.264 153.379 211.645 152.998C211.783 152.86 211.52 152.435 211.06 152.053C210.538 151.62 210.223 151.578 210.223 151.942ZM196.501 157.805C196.125 158.258 195.354 158.628 194.787 158.628C193.706 158.628 193.366 159.969 194.301 160.547C194.9 160.917 197.599 158.47 197.599 157.555C197.599 156.769 197.306 156.835 196.501 157.805ZM209.015 158.232C208.816 159.266 208.959 159.726 209.476 159.726C210.304 159.726 210.345 159.413 209.723 157.82C209.343 156.849 209.271 156.89 209.015 158.232ZM212.968 157.409C212.968 157.644 213.462 158.258 214.065 158.775C215.121 159.679 215.163 159.663 215.163 158.348C215.163 157.348 214.869 156.982 214.065 156.982C213.462 156.982 212.968 157.174 212.968 157.409ZM178.773 158.426C177.91 159.289 178.459 160.275 179.8 160.275C180.846 160.275 181.165 160.027 181.029 159.32C180.836 158.321 179.433 157.765 178.773 158.426ZM223.994 159.135C223.319 159.562 219.89 167.93 220.244 168.283C220.583 168.62 228.336 162.319 228.336 161.708C228.336 160.917 226.056 158.624 225.282 158.636C225 158.641 224.42 158.866 223.994 159.135ZM200.223 161.235C199.762 161.763 199.078 163.149 198.704 164.314C198.099 166.195 198.138 166.546 199.046 167.45C199.959 168.359 200.48 168.413 203.911 167.943C210.93 166.983 210.781 167.145 207.2 164.365C205.47 163.022 203.878 161.922 203.662 161.922C203.448 161.922 203.045 163.095 202.768 164.529C202.363 166.628 202.023 167.17 201.029 167.312C199.525 167.525 199.516 167.295 200.862 163.38C201.949 160.223 201.735 159.505 200.223 161.235ZM86.5692 186.877C85.7915 188.507 85.8173 188.655 87.0687 189.77L88.3883 190.945L89.7072 189.743C90.4328 189.083 91.17 188.038 91.3462 187.421C91.6135 186.484 91.3138 186.206 89.5272 185.729C87.4513 185.175 87.3646 185.209 86.5692 186.877ZM93.3107 187.17C93.3107 187.472 93.5576 187.719 93.8595 187.719C94.1614 187.719 94.4084 187.472 94.4084 187.17C94.4084 186.868 94.1614 186.621 93.8595 186.621C93.5576 186.621 93.3107 186.868 93.3107 187.17ZM103.053 187.052C97.4904 187.198 97.1528 187.273 97.1528 188.35C97.1528 189.573 97.4586 189.56 100.851 188.197C102.561 187.511 102.708 187.561 104.716 189.522C106.994 191.746 107.582 191.996 107.582 190.738C107.582 190.285 107.802 189.915 108.071 189.915C108.516 189.915 109.502 187.138 109.118 186.968C109.027 186.928 106.298 186.966 103.053 187.052ZM112.796 187.119C110.321 187.413 110.052 187.58 110.052 188.817C110.052 191.066 112.39 190.937 114.624 188.564C115.63 187.496 116.247 186.66 115.997 186.708C115.746 186.755 114.306 186.94 112.796 187.119ZM115.362 188.989C113.753 190.702 113.86 191.565 115.678 191.543C116.855 191.53 117.384 191.106 118.079 189.622C118.951 187.758 118.945 187.719 117.762 187.719C117.098 187.719 116.018 188.291 115.362 188.989ZM91.664 188.849C91.664 189.169 91.911 189.278 92.2129 189.091C92.5148 188.905 92.7618 188.643 92.7618 188.51C92.7618 188.377 92.5148 188.268 92.2129 188.268C91.911 188.268 91.664 188.53 91.664 188.849ZM99.4543 189.79C98.0892 190.469 97.4081 190.545 96.7099 190.097C95.9991 189.641 95.2641 189.764 93.5851 190.621L91.3896 191.74L93.0362 192.432C94.1719 192.91 96.3037 193.029 99.905 192.817C104.321 192.556 105.242 192.648 105.873 193.407C106.332 193.961 107.448 194.306 108.779 194.306C111.378 194.306 111.119 193.479 108.358 192.961C107.18 192.74 105.613 191.825 104.491 190.703C102.372 188.584 102.011 188.518 99.4543 189.79ZM119.095 189.657C118.473 190.406 118.48 190.626 119.143 191.046C120.208 191.719 123.901 191.696 124.323 191.012C124.509 190.711 124.139 190.464 123.499 190.464C122.86 190.464 122.489 190.217 122.676 189.915C122.863 189.613 122.65 189.366 122.205 189.366C121.758 189.366 121.043 189.231 120.613 189.066C120.184 188.901 119.501 189.168 119.095 189.657ZM84.1827 189.707C83.8177 189.858 84.2431 190.643 85.2195 191.619C86.3749 192.774 87.0501 193.102 87.4513 192.7C87.8525 192.299 87.6346 191.707 86.7306 190.745C85.4023 189.331 85.2497 189.269 84.1827 189.707ZM108.679 191.578C108.679 191.871 109.05 192.11 109.503 192.11C109.956 192.11 110.326 192.013 110.326 191.895C110.326 191.776 109.956 191.537 109.503 191.363C109.05 191.189 108.679 191.286 108.679 191.578ZM81.5063 192.319C80.0683 193.37 80.5013 193.658 83.0438 193.341C84.2639 193.19 85.0422 192.824 84.922 192.459C84.6075 191.504 82.7265 191.427 81.5063 192.319ZM113.517 192.485C113.913 192.644 114.386 192.624 114.568 192.442C114.751 192.26 114.427 192.13 113.848 192.154C113.209 192.18 113.079 192.31 113.517 192.485Z" fill="black"/>
</svg>
