<svg width="320" height="178" viewBox="0 0 320 178" fill="none" xmlns="http://www.w3.org/2000/svg">
<path fill-rule="evenodd" clip-rule="evenodd" d="M165.493 17.2958C165.118 17.747 162.589 19.5079 159.871 21.2081C157.154 22.9088 153.505 25.2027 151.762 26.3059C139.8 33.8813 137.043 35.411 135.892 35.1106C134.777 34.8198 127.024 39.4075 117.656 45.8994C114.726 47.9296 112.519 52.5294 111.498 58.7323C111.108 61.1067 110.129 64.9023 109.323 67.1677C108.517 69.433 107.498 72.7122 107.058 74.4548C106.619 76.1974 106.012 77.9444 105.71 78.3372C105.378 78.7694 102.64 79.0951 98.7782 79.1616C95.2227 79.2225 91.8713 79.5982 91.2136 80.0088C89.5724 81.0341 88.2917 83.9014 87.3989 88.5538C86.6772 92.3127 86.546 92.5142 84.8237 92.5142C83.8263 92.5142 83.0095 92.229 83.0095 91.8805C83.0095 91.532 83.2947 91.2469 83.6432 91.2469C83.9917 91.2469 84.2768 90.6766 84.2768 89.9795C84.2768 88.825 83.8542 88.7122 79.5244 88.7122C75.1946 88.7122 74.7719 88.825 74.7719 89.9795C74.7719 90.6766 75.057 91.2469 75.4056 91.2469C75.7541 91.2469 76.0392 91.532 76.0392 91.8805C76.0392 92.229 75.3264 92.5142 74.4551 92.5142C73.5838 92.5142 72.8709 92.229 72.8709 91.8805C72.8709 91.532 72.3006 90.6766 71.6036 89.9795C70.4852 88.8611 69.4916 88.7122 63.1473 88.7122C56.9875 88.7122 55.8083 88.8782 54.9097 89.8712C54.3331 90.5086 53.861 91.3444 53.861 91.7291C53.861 92.1137 53.2913 92.6099 52.595 92.8304C51.8992 93.0515 51.1762 93.855 50.9893 94.6161C50.8023 95.3764 50.7307 101.417 50.8296 108.039L51.0095 120.079L69.2273 120.246C86.6189 120.407 87.4452 120.469 87.4452 121.614C87.4452 122.742 86.7133 122.826 75.1293 123.03L62.814 123.247L60.8864 125.094C57.9108 127.947 57.3138 130.512 58.8302 133.94C60.4467 137.594 61.9592 138.381 68.1184 138.769L73.1877 139.088L70.9509 140.203C69.721 140.816 67.3092 142.479 65.5914 143.899C60.0608 148.469 60.0113 148.481 47.8824 148.017C41.9348 147.791 35.4315 147.445 33.4304 147.249C29.3731 146.851 28.3757 147.376 21.6462 153.443C15.6365 158.861 14.2697 158.619 47.9996 158.1C80.7309 157.596 116.649 157.707 133.703 158.366C148.898 158.953 151.326 158.337 145.742 155.31C144.174 154.46 140.61 151.411 137.821 148.534C132.178 142.711 129.563 141.11 123.546 139.795L119.445 138.899L126.922 138.835C137.354 138.746 140.039 137.146 140.039 131.017C140.039 128.444 139.708 127.62 137.871 125.614L135.703 123.247L124.881 123.035C114.714 122.836 114.059 122.749 114.059 121.609C114.059 120.542 114.54 120.395 118.051 120.395C120.311 120.395 122.373 120.065 122.804 119.635C123.784 118.654 123.735 107.936 122.718 101.069C122.084 96.7895 122.147 94.4684 123.119 86.1776C123.751 80.7756 124.039 75.9281 123.758 75.4053C123.477 74.8825 123.334 73.1032 123.44 71.4519C123.682 67.6714 122.376 68.6238 152.396 50.3439C156.578 47.7972 162.495 43.7063 165.545 41.2527L171.091 36.7924L175.303 43.2671C189.239 64.6913 190.651 67.0726 190.849 69.4818C191.019 71.5526 191.29 71.948 192.648 72.1071C193.747 72.2351 194.805 73.1767 196.033 75.117C197.015 76.6694 198.233 77.9399 198.739 77.9399C199.245 77.9399 200.394 78.6218 201.292 79.4544C202.191 80.2877 204.959 81.5734 207.443 82.3109C209.927 83.0485 212.904 84.2265 214.056 84.928C216.427 86.3708 218.579 90.4877 218.6 93.6231C218.607 94.7555 218.88 95.6825 219.205 95.6825C220.067 95.6825 223.927 90.7507 225.651 87.4449C227.639 83.6334 227.793 76.0643 225.941 73.1875C222.371 67.6448 220.112 66.4269 212.429 65.9035C206.857 65.5233 206.45 65.3953 204.35 63.36C203.134 62.1807 202.138 60.9628 202.138 60.653C202.138 60.3437 200.894 58.4751 199.372 56.5006C195.794 51.8564 190.099 41.1748 190.099 39.1084C190.099 37.2543 185.595 28.2772 183.557 26.0695C181.53 23.8739 174.86 19.2202 171.656 17.7666C168.411 16.294 166.449 16.1438 165.493 17.2958ZM165.798 18.271C164.925 19.2348 164.846 19.9661 165.338 22.5482C166.32 27.7006 166.429 27.84 168.94 27.1467C170.15 26.8128 172.197 26.6278 173.49 26.7349C176.836 27.0124 176.999 29.2163 173.967 33.1887L171.71 36.146L180.746 50.0448C185.716 57.6887 190.089 64.4404 190.464 65.0474C191.021 65.9498 191.391 65.1748 192.489 60.805L193.832 55.4582L190.144 48.4816C188.117 44.6441 184.24 37.2271 181.531 31.9993C178.821 26.7716 176.148 21.9545 175.589 21.2942C174.662 20.198 168.593 17.1082 167.367 17.1082C167.082 17.1082 166.376 17.6317 165.798 18.271ZM161.901 20.8494C160.855 21.5128 155.01 25.178 148.911 28.9945C139.167 35.091 136.851 36.933 138.161 37.5439C138.412 37.6605 156.18 26.8882 163.632 22.1015C163.968 21.8854 164.144 21.2442 164.022 20.6758C163.824 19.7481 163.609 19.7652 161.901 20.8494ZM179.593 26.5143C180.849 29.0084 182.138 31.0488 182.457 31.0488C182.777 31.0488 183.502 30.585 184.069 30.0179C185.02 29.0661 184.988 28.8671 183.638 27.4205C182.835 26.5587 181.082 24.9815 179.744 23.9163L177.309 21.9792L179.593 26.5143ZM154.613 28.6308C139.907 37.7422 138.772 38.5501 138.772 39.91C138.772 41.055 139.039 40.9967 142.099 39.1838C146.308 36.691 160.594 29.6168 163.384 28.6441C165.345 27.9604 165.462 27.7646 165.056 25.8357C164.815 24.6951 164.435 23.5767 164.21 23.3498C163.985 23.1236 159.667 25.4999 154.613 28.6308ZM168.237 28.1898C162.817 29.6605 161.574 30.2872 161.98 31.3454C162.185 31.8796 162.869 32.3162 163.501 32.3162C166.469 32.3162 167.464 34.0524 166.031 36.7303C165.557 37.6149 165.66 37.9887 166.46 38.2961C167.716 38.7783 172.881 33.9574 174.673 30.6306C175.694 28.7347 175.721 28.3919 174.889 27.866C173.637 27.0745 172.068 27.1505 168.237 28.1898ZM183.628 31.2795C182.623 32.0431 182.692 32.3865 184.579 36.0066C186.648 39.9759 187.148 40.3643 188.826 39.3036C189.628 38.7966 189.439 38.0806 187.578 34.5606C186.373 32.2807 185.235 30.4241 185.05 30.4355C184.864 30.4462 184.225 30.8264 183.628 31.2795ZM159.049 31.6825C159.049 32.031 159.334 32.3162 159.683 32.3162C160.031 32.3162 160.316 32.031 160.316 31.6825C160.316 31.334 160.031 31.0488 159.683 31.0488C159.334 31.0488 159.049 31.334 159.049 31.6825ZM149.227 36.3241C137.465 42.4738 122.16 52.0947 116.687 56.7787C114.159 58.944 110.927 64.2762 110.01 67.8013C109.783 68.6726 110.462 67.6397 111.519 65.5056C115.108 58.2609 118.999 54.8537 134.022 45.8031C137.508 43.7025 144.423 39.9201 149.388 37.3981C154.353 34.8762 158.415 32.7008 158.415 32.5639C158.415 31.7915 156.028 32.7686 149.227 36.3241ZM160.633 33.6031C157.431 34.0765 154.197 35.5333 143.694 41.2343C132.319 47.4088 120.005 55.5646 116.86 59.0061C112.92 63.3188 109.019 72.4759 108.997 77.4647C108.99 79.0938 109.165 79.2073 111.683 79.2047C114.276 79.2028 114.419 79.0976 115.544 76.3615C116.187 74.7989 117.8 72.1546 119.129 70.4855C121.66 67.3071 122.348 64.2826 121.364 60.6644C120.754 58.4193 121.956 56.901 124.143 57.1551C125.427 57.3047 125.827 57.7457 125.992 59.1924C126.128 60.3875 125.849 61.2372 125.2 61.6003C124.335 62.0844 123.717 64.633 124.465 64.633C125.431 64.633 148.222 50.2678 156.868 44.2088C162.658 40.1514 166.019 36.5212 166.019 34.3236C166.019 33.4865 163.607 33.1634 160.633 33.6031ZM129.401 39.2668C126.211 41.3471 122.453 43.7741 121.048 44.6606C119.644 45.5471 118.505 46.483 118.517 46.7402C118.53 46.9969 119.193 48.005 119.991 48.9802L121.442 50.7526L129.632 45.5521C134.136 42.6918 137.939 40.2566 138.082 40.14C138.421 39.8631 136.064 35.4845 135.574 35.4845C135.368 35.4845 132.591 37.1865 129.401 39.2668ZM162.195 41.4175C160.925 42.5986 148.616 50.8819 141.465 55.3669C138.241 57.389 135.604 59.1772 135.604 59.3406C135.604 59.7164 135.313 59.885 147.01 52.6961C159.704 44.8938 164.118 41.9181 164.118 41.164C164.118 40.2978 163.279 40.4087 162.195 41.4175ZM187.881 41.1875C187.665 41.5366 189.068 44.7442 190.998 48.3162C192.929 51.8888 194.515 54.329 194.522 53.7397C194.529 53.1504 194.249 52.492 193.901 52.2766C193.552 52.0611 193.267 51.4572 193.267 50.9345C193.267 50.4117 193.576 50.1747 193.953 50.4079C194.33 50.6411 194.18 49.9453 193.62 48.8611C193.059 47.7776 192.455 46.8904 192.278 46.8904C192.1 46.8904 192.273 47.4854 192.662 48.2122C193.051 48.9391 193.225 49.6785 193.048 49.8553C192.872 50.0321 192.278 49.3085 191.73 48.2484C190.557 45.9811 190.476 45.3905 191.419 45.9722C191.796 46.2054 191.647 45.5116 191.088 44.4299C190.528 43.3489 189.756 42.5334 189.372 42.6176C188.987 42.7025 188.529 42.3756 188.353 41.8915C188.157 41.3522 188.31 41.1824 188.749 41.4536C189.143 41.6969 189.465 41.5936 189.465 41.2248C189.465 40.3751 188.399 40.3498 187.881 41.1875ZM189.474 43.8431C189.469 44.4324 189.75 45.0908 190.099 45.3063C190.901 45.8018 190.901 44.9628 190.099 43.7221C189.57 42.9028 189.483 42.9199 189.474 43.8431ZM116.31 48.1216C115.053 49.51 112.158 57.0664 112.158 58.9566C112.158 59.9268 112.807 59.5326 115.168 57.1304C116.824 55.4462 118.843 53.6218 119.654 53.0769L121.131 52.0858L119.412 49.4884C118.466 48.0595 117.632 46.8904 117.558 46.8904C117.484 46.8904 116.923 47.4442 116.31 48.1216ZM195.426 54.9791C194.69 55.4753 192 64.8332 192 66.9002C192 67.5764 192.549 68.473 193.22 68.8919C194.362 69.6054 194.524 69.2949 195.755 64.0551C197.602 56.185 197.508 53.5787 195.426 54.9791ZM195.168 56.6748C195.168 57.2179 195.453 57.6627 195.802 57.6627C196.15 57.6627 196.435 57.3947 196.435 57.0664C196.435 56.7382 196.15 56.294 195.802 56.0785C195.453 55.8631 195.168 56.1318 195.168 56.6748ZM199.08 58.8952C201.018 61.3487 201.98 61.3779 200.237 58.93C199.493 57.8845 198.596 57.029 198.245 57.029C197.893 57.029 198.27 57.8686 199.08 58.8952ZM122.284 58.6284C121.119 60.032 121.782 60.1936 123.089 58.8242C123.699 58.1855 123.947 57.6627 123.641 57.6627C123.336 57.6627 122.725 58.0974 122.284 58.6284ZM124.931 59.5637C124.931 60.435 125.075 60.7917 125.251 60.3558C125.427 59.9204 125.427 59.2076 125.251 58.7716C125.075 58.3363 124.931 58.6924 124.931 59.5637ZM197.717 60.0092C197.699 61.6922 198.964 64.633 199.706 64.633C200.69 64.633 200.22 61.7948 198.97 60.1974C197.748 58.636 197.73 58.6328 197.717 60.0092ZM129.613 62.6579C126.841 64.3453 124.472 66.0271 124.35 66.3952C124.167 66.9414 133.711 61.0338 134.848 59.897C135.658 59.0865 134.316 59.7943 129.613 62.6579ZM123.09 63.0488C123.097 64.4429 123.227 64.9384 123.378 64.1501C123.53 63.3619 123.524 62.2213 123.366 61.6155C123.207 61.0097 123.083 61.6548 123.09 63.0488ZM201.285 63.1287C200.856 64.5646 198.97 72.8212 198.97 73.2641C198.97 73.4371 199.255 73.4029 199.604 73.1875C199.952 72.972 200.237 73.0981 200.237 73.4669C200.237 75.0967 201.415 73.8344 203.439 70.0369L205.623 65.9352L203.632 63.9385C201.84 62.1414 201.604 62.0603 201.285 63.1287ZM196.831 63.3809C196.661 63.8954 196.063 65.9675 195.503 67.9851C194.511 71.5545 194.521 71.706 195.846 73.5664C196.594 74.6176 197.283 75.3907 197.376 75.2836C197.469 75.1759 198.026 73.1469 198.613 70.7745C199.651 66.5809 199.645 66.4041 198.41 64.4524C197.503 63.0197 197.051 62.713 196.831 63.3809ZM202.482 65.2229C202.05 65.9231 203.049 66.6797 203.634 66.0942C204.236 65.4916 204.124 64.633 203.443 64.633C203.115 64.633 202.683 64.8985 202.482 65.2229ZM122.396 67.8013C122.334 69.0211 122.148 71.1597 121.982 72.5538L121.683 75.0884L122.332 72.5538C122.69 71.1597 122.876 69.0211 122.746 67.8013L122.51 65.5835L122.396 67.8013ZM204.779 69.445L203.364 72.3555L206.395 69.952C208.062 68.6295 209.697 67.3197 210.027 67.0409C210.358 66.7621 209.631 66.534 208.411 66.534C206.403 66.534 206.059 66.8096 204.779 69.445ZM211.326 67.5162C210.281 68.0408 208.742 68.9939 207.906 69.6345L206.386 70.7998L212.919 78.9639C221.134 89.2318 221.852 90.1981 219.186 87.3955C218 86.1484 214.654 82.0854 211.75 78.3657C208.847 74.6461 206.243 71.6033 205.964 71.6033C205.297 71.6033 200.237 76.6701 200.237 77.338C200.237 78.3727 203.828 80.3206 208.158 81.6348C210.598 82.3749 213.537 83.5637 214.69 84.2753C216.856 85.613 219.208 89.797 219.233 92.3558C219.241 93.1403 219.497 93.7815 219.803 93.7815C220.776 93.7815 221.937 91.9318 221.568 90.9706C221.334 90.3616 221.514 90.1601 222.093 90.3819C222.677 90.6056 223.559 89.5791 224.709 87.3397C227.12 82.6404 227.173 76.8361 224.837 73.1875C222.711 69.869 221.126 68.5028 218.18 67.4522C215.051 66.3363 213.654 66.349 211.326 67.5162ZM108.718 71.3315C108.485 72.2604 108.417 73.1425 108.566 73.292C108.715 73.4409 109.028 72.8035 109.262 71.8751C109.494 70.9462 109.563 70.0641 109.414 69.9146C109.264 69.7657 108.951 70.4031 108.718 71.3315ZM118.249 73.2914C116.99 75.3033 115.973 77.2442 115.988 77.6035C116.004 77.9627 116.594 77.1605 117.301 75.821C119.19 72.2395 119.413 73.3985 117.591 77.331C116.095 80.5595 116.072 80.7864 117.08 82.4922C117.66 83.4737 118.319 84.2766 118.545 84.2766C118.77 84.2766 119.106 82.3965 119.29 80.0995C119.474 77.8018 119.941 75.6061 120.327 75.2202C120.714 74.8337 121.029 73.97 121.029 73.3002C121.029 72.2889 120.868 72.216 120.079 72.8706C118.796 73.9358 118.869 72.9403 120.181 71.4911C120.759 70.8511 121.076 70.1719 120.885 69.9805C120.693 69.7891 119.507 71.2789 118.249 73.2914ZM191.366 70.3582C191.366 71.2662 192.708 71.782 193.364 71.1261C193.769 70.7212 193.529 70.3867 192.675 70.1636C191.955 69.9748 191.366 70.0629 191.366 70.3582ZM107.772 75.141C107.803 75.8793 107.953 76.0294 108.155 75.5244C108.338 75.0669 108.316 74.5201 108.105 74.3097C107.895 74.0993 107.745 74.4732 107.772 75.141ZM198.336 75.8197C198.336 77.2074 198.483 77.3392 199.287 76.6726C199.81 76.2385 200.237 75.6638 200.237 75.3958C200.237 75.1271 199.81 74.7431 199.287 74.5422C198.593 74.2761 198.336 74.6208 198.336 75.8197ZM120.375 77.1479C120.363 77.7581 120.102 80.211 119.795 82.5986C119.355 86.0153 119.451 87.6363 120.249 90.2026L121.264 93.4647L121.72 90.6132C121.97 89.0449 122.385 85.1244 122.64 81.9003C123.092 76.191 123.068 76.0389 121.75 76.0389C120.891 76.0389 120.388 76.4439 120.375 77.1479ZM107.139 77.6757C107.169 78.4139 107.319 78.5641 107.522 78.0591C107.705 77.6016 107.682 77.0547 107.471 76.8443C107.261 76.634 107.112 77.0078 107.139 77.6757ZM91.7978 80.7749C90.8803 81.2857 89.9203 82.2115 89.6636 82.8318C88.7657 85.0027 87.5928 92.8361 88.0864 93.369C88.6041 93.9279 89.0078 92.4141 89.7143 87.2637C89.9431 85.5959 90.6445 83.5998 91.2725 82.828C92.3789 81.4675 92.7635 81.4276 103.915 81.5024C112.414 81.5594 115.232 81.3934 114.708 80.8687C113.543 79.7002 93.8718 79.6198 91.7978 80.7749ZM96.3165 82.3635L92.8313 82.8027L96.5249 82.906C100.197 83.0086 100.217 83.02 99.8789 84.7518C99.6913 85.7099 99.3713 88.4904 99.1679 90.93C98.4468 99.57 98.1167 101.385 97.2689 101.385C96.8126 101.385 95.0707 100.147 93.3978 98.6322L90.3568 95.8789L91.0729 90.553C91.4677 87.6236 91.9949 84.6568 92.2452 83.9597C92.5519 83.1075 92.491 82.9002 92.0601 83.3261C91.0951 84.2804 89.9798 89.5011 89.9798 93.0629C89.9798 96.7141 91.301 98.6544 96.2715 102.303C99.7034 104.822 100.418 105.066 99.6121 103.445C99.0083 102.23 99.7579 88.7021 100.613 85.3874L101.145 83.3261L106.81 82.9706L112.475 82.6151L107.406 82.4865C104.617 82.4161 101.766 82.2603 101.069 82.1411C100.372 82.0214 98.2333 82.1215 96.3165 82.3635ZM114.634 83.7791C116.886 84.9818 121.354 97.5689 119.536 97.593C119.08 97.5993 119.121 97.799 119.649 98.1342C121.369 99.2247 122.391 107.957 120.871 108.57C120.436 108.745 120.726 108.912 121.517 108.939C122.683 108.98 122.898 108.72 122.657 107.564C122.492 106.779 122.032 103.714 121.634 100.752C121.235 97.7894 120.01 92.6568 118.91 89.3459C117.014 83.6372 116.812 83.3166 115.01 83.1455C113.112 82.9649 113.111 82.9661 114.634 83.7791ZM92.8376 84.7518C92.5918 85.362 92.2401 88.1476 92.0557 90.9421L91.7205 96.024L94.4934 98.5327L97.2669 101.042L97.7441 95.6692C98.0064 92.7144 98.457 88.799 98.7453 86.9696L99.2687 83.6429H96.2765C94.0188 83.6429 93.1741 83.9154 92.8376 84.7518ZM101.691 84.435C101.194 85.7986 100.211 95.9531 100.527 96.4638C100.692 96.7312 104.944 96.9498 109.978 96.9498C116.894 96.9498 119.12 96.7566 119.093 96.1578C119.074 95.7224 118.289 93.0921 117.348 90.3135C116.065 86.5261 115.241 85.061 114.056 84.4616C111.927 83.3844 102.082 83.3635 101.691 84.435ZM64.5148 89.7787C64.9717 89.9618 65.5185 89.939 65.7289 89.7286C65.9393 89.5182 65.5654 89.3687 64.8975 89.3959C64.1593 89.4263 64.0091 89.5765 64.5148 89.7787ZM75.4056 89.9795C75.4056 90.3306 77.0829 90.6132 79.1702 90.6132C81.241 90.6132 83.1109 90.328 83.3264 89.9795C83.5722 89.5816 82.1712 89.3459 79.5618 89.3459C77.2134 89.3459 75.4056 89.6215 75.4056 89.9795ZM62.0986 91.8805L54.1778 92.2576L62.8907 92.3856C68.3624 92.4667 71.6036 92.2785 71.6036 91.8805C71.6036 91.532 71.2475 91.3045 70.8115 91.3755C70.3762 91.4458 66.4551 91.6733 62.0986 91.8805ZM76.6729 91.8805C76.6729 92.229 77.9561 92.5142 79.5244 92.5142C81.0927 92.5142 82.3759 92.229 82.3759 91.8805C82.3759 91.532 81.0927 91.2469 79.5244 91.2469C77.9561 91.2469 76.6729 91.532 76.6729 91.8805ZM52.4353 93.8322C51.448 94.4069 51.3264 95.6584 51.3264 105.219V115.96H53.861H56.3957V104.554V93.1479L54.9699 93.1669C54.1861 93.1776 53.0455 93.4767 52.4353 93.8322ZM57.0293 104.554V115.96H71.9204H86.8115V104.554V93.1479H71.9204H57.0293V104.554ZM87.4452 105.116V115.999L95.2075 115.821L102.97 115.643L103.159 111.67C103.344 107.785 103.304 107.674 101.337 106.601C97.3329 104.418 91.7775 99.9071 89.6351 97.1006L87.4452 94.2327V105.116ZM62.9027 97.389C63.5193 97.5499 64.3747 97.5391 64.8037 97.3655C65.2327 97.1919 64.7283 97.0607 63.6828 97.0734C62.6372 97.0861 62.2862 97.228 62.9027 97.389ZM68.6057 97.389C69.2223 97.5499 70.0777 97.5391 70.5067 97.3655C70.9357 97.1919 70.4313 97.0607 69.3858 97.0734C68.3402 97.0861 67.9892 97.228 68.6057 97.389ZM73.9798 97.3693C74.4158 97.5455 75.1287 97.5455 75.564 97.3693C75.9999 97.1938 75.6432 97.0499 74.7719 97.0499C73.9006 97.0499 73.5445 97.1938 73.9798 97.3693ZM115.842 98.0163C116.298 98.1994 116.845 98.1766 117.056 97.9662C117.266 97.7559 116.892 97.6063 116.224 97.6336C115.486 97.664 115.336 97.8142 115.842 98.0163ZM73.9798 98.6367C74.4158 98.8128 75.1287 98.8128 75.564 98.6367C75.9999 98.4611 75.6432 98.3173 74.7719 98.3173C73.9006 98.3173 73.5445 98.4611 73.9798 98.6367ZM100.118 101.052C100.118 103.439 101.185 104.278 106.686 106.22C110.146 107.441 118.191 108.538 119.844 108.013C121.009 107.643 121.107 107.27 120.73 104.649C119.81 98.2653 120.906 98.8508 109.872 98.8508H100.118V101.052ZM88.0788 101.069C88.0788 102.336 88.3957 102.653 89.663 102.653C90.9303 102.653 91.2471 102.336 91.2471 101.069C91.2471 99.8013 90.9303 99.4845 89.663 99.4845C88.3957 99.4845 88.0788 99.8013 88.0788 101.069ZM89.0566 100.708C88.8557 101.033 88.9818 101.477 89.336 101.696C89.6902 101.915 89.9798 101.649 89.9798 101.106C89.9798 99.9927 89.5996 99.8292 89.0566 100.708ZM62.5739 101.805C63.0098 101.981 63.7227 101.981 64.158 101.805C64.594 101.629 64.2372 101.486 63.366 101.486C62.4947 101.486 62.1386 101.629 62.5739 101.805ZM68.2769 101.805C68.7128 101.981 69.4257 101.981 69.861 101.805C70.297 101.629 69.9402 101.486 69.0689 101.486C68.1976 101.486 67.8415 101.629 68.2769 101.805ZM73.9798 101.805C74.4158 101.981 75.1287 101.981 75.564 101.805C75.9999 101.629 75.6432 101.486 74.7719 101.486C73.9006 101.486 73.5445 101.629 73.9798 101.805ZM100.118 104.862C100.118 105.276 104.39 107.04 106.418 107.465C107.31 107.652 106.328 107.075 104.237 106.182C100.071 104.404 100.118 104.419 100.118 104.862ZM103.92 111.907V115.96H111.524H119.128V113.108C119.128 110.294 119.1 110.257 116.997 110.257C114.936 110.257 111.232 109.624 106.297 108.431L103.92 107.856V111.907ZM112.04 108.789C112.496 108.972 113.043 108.949 113.254 108.739C113.464 108.528 113.09 108.379 112.422 108.406C111.684 108.436 111.534 108.586 112.04 108.789ZM119.762 113.108C119.762 115.727 119.891 115.96 121.346 115.96C122.801 115.96 122.93 115.727 122.93 113.108C122.93 110.489 122.801 110.257 121.346 110.257C119.891 110.257 119.762 110.489 119.762 113.108ZM218.613 115.342C219.485 115.612 222.133 115.862 224.5 115.896C227.451 115.94 229.583 116.358 231.287 117.227C232.653 117.924 234.567 118.494 235.539 118.492C236.511 118.492 238.516 119.131 239.993 119.914C242.143 121.052 242.604 121.592 242.299 122.609C242.088 123.308 241.717 124.097 241.475 124.362C241.231 124.627 227.648 124.77 211.288 124.679L181.544 124.514L184.918 122.613C193.381 117.846 193.765 117.723 200.525 117.61C204.026 117.551 207.318 117.228 207.841 116.89C208.364 116.553 210.645 116.107 212.911 115.901L217.029 115.526L213.344 115.426C211.317 115.371 209.036 115.668 208.275 116.085C207.507 116.507 204.026 116.898 200.45 116.965C193.456 117.095 191.359 117.801 183.762 122.584C181.845 123.791 180.031 124.872 179.731 124.987C179.208 125.186 175.287 140.019 175.661 140.382C175.76 140.479 179.477 141.739 183.92 143.183L191.998 145.808L191.048 147.645C188.943 151.714 190.971 157.088 195.364 159.082C198.694 160.594 199.884 160.592 203.241 159.068C205.092 158.228 206.263 157.148 207.002 155.597C207.593 154.359 208.239 153.346 208.438 153.346C208.636 153.346 209.189 154.227 209.666 155.304C210.638 157.5 213.495 159.49 216.489 160.056C219.568 160.638 224.045 158.395 225.376 155.603L226.452 153.346H238.799C249.429 153.346 251.31 153.199 252.313 152.291C253.405 151.302 253.57 151.323 254.938 152.608C255.741 153.362 256.879 153.98 257.466 153.98C258.054 153.98 258.564 154.478 258.601 155.088C258.638 155.699 259.013 155.081 259.435 153.718L260.201 151.239L261.744 154.319C263.825 158.473 266.058 160.011 269.926 159.954C273.465 159.902 275.801 158.598 277.564 155.688C278.704 153.808 279.101 153.637 283.079 153.3L287.366 152.936L283.089 152.824C279.248 152.724 278.812 152.581 278.812 151.425C278.812 150.716 278.405 149.164 277.909 147.976C277.412 146.788 277.266 145.728 277.584 145.62C277.902 145.513 283.299 145.509 289.576 145.611C298.802 145.762 300.99 145.966 300.99 146.677C300.99 148.216 297.466 150.139 292.338 151.399C289.603 152.071 287.994 152.641 288.761 152.667C291.025 152.741 297.117 150.958 299.381 149.559C301.881 148.014 302.749 145.752 301.017 145.299C300.34 145.122 299.696 144.182 299.466 143.036C299.01 140.751 294.548 136.214 291.191 134.621C289.941 134.028 287.025 133.05 284.712 132.448L280.507 131.354L279.657 128.035C279.19 126.209 278.948 124.489 279.119 124.211C279.789 123.128 277.603 122.386 271.524 121.637C265.664 120.914 265.06 120.708 263.494 118.887L261.8 116.918L259.868 118.815C257.994 120.656 257.116 124.197 258.534 124.197C258.887 124.197 259.168 125.887 259.168 127.999C259.168 130.957 258.957 131.801 258.217 131.801C257.605 131.801 257.264 131.181 257.257 130.059C257.252 129.101 256.971 127.888 256.633 127.366C256.155 126.625 256.017 126.8 256.009 128.158C256.004 129.116 255.714 129.9 255.366 129.9C255.017 129.9 254.732 128.332 254.732 126.415C254.732 122.785 255.587 121.865 256.647 124.356C257.245 125.761 257.252 125.759 257.102 124.197C256.996 123.096 256.516 122.552 255.524 122.41C254.147 122.215 254.101 122.375 254.149 127.163C254.176 129.888 254.343 131.762 254.518 131.326C254.889 130.407 256.633 130.246 256.633 131.13C256.633 131.459 256.324 131.917 255.946 132.151C255.569 132.384 255.32 133.898 255.394 135.515C255.622 140.469 255.405 142.672 254.732 142.257C254.384 142.041 254.09 141.098 254.079 140.16C254.057 138.303 252.182 136.575 249.445 135.888C248.15 135.563 247.404 135.864 245.985 137.283L244.176 139.092L244.469 135.922C244.63 134.178 245.08 130.471 245.47 127.683C246.127 122.981 246.293 122.598 247.762 122.401C249.634 122.151 250.587 121.378 250.066 120.535C249.833 120.158 248.514 120.144 246.565 120.498C243.794 121.002 243.111 120.884 240.567 119.463C238.988 118.582 236.833 117.861 235.778 117.861C234.724 117.861 232.782 117.32 231.465 116.66C229.815 115.832 227.195 115.364 223.049 115.155C219.738 114.988 217.742 115.072 218.613 115.342ZM51.4404 118.019L51.6432 119.445L86.4947 119.61C118.696 119.763 121.406 119.694 122.138 118.697C122.574 118.104 122.93 117.388 122.93 117.106C122.93 116.824 106.8 116.593 87.084 116.593H51.2383L51.4404 118.019ZM261.703 119.762C260.89 120.286 260.913 120.378 261.861 120.386C262.471 120.391 262.97 120.11 262.97 119.762C262.97 118.989 262.898 118.989 261.703 119.762ZM94.257 120.868C97.829 120.981 103.675 120.981 107.247 120.868C110.819 120.755 107.897 120.663 100.752 120.663C93.6075 120.663 90.6851 120.755 94.257 120.868ZM258.645 122.077L258.851 123.881L268.658 124.056C280.292 124.265 280.661 123.485 269.623 122.014C265.441 121.456 261.213 120.836 260.229 120.637C258.567 120.3 258.453 120.403 258.645 122.077ZM244.911 121.493C243.539 121.835 242.718 122.782 242.702 124.039C242.686 125.385 244.891 124.911 245.552 123.426C245.896 122.653 246.891 121.826 247.762 121.588L249.346 121.155L247.762 121.166C246.891 121.172 245.608 121.319 244.911 121.493ZM88.3957 122.296C88.1416 122.708 91.4132 122.95 97.7048 122.988C103.04 123.02 108.404 123.054 109.623 123.063C112.941 123.087 113.425 122.99 113.425 122.296C113.425 121.896 108.897 121.663 101.106 121.663C93.5771 121.663 88.6352 121.909 88.3957 122.296ZM62.3648 124.923C60.6032 125.778 58.9284 128.724 58.9398 130.948C58.9538 133.669 60.2838 135.795 62.7412 137.028C64.7626 138.042 67.8561 138.136 99.1679 138.136C130.48 138.136 133.573 138.042 135.595 137.028C139.961 134.838 140.737 129.838 137.251 126.352L135.097 124.197L99.3897 124.24C76.7515 124.268 63.2006 124.517 62.3648 124.923ZM260.858 125.254C260.625 125.486 260.435 127.072 260.435 128.779V131.882L262.495 131.683C264.503 131.49 264.559 131.402 264.745 128.158C264.935 124.869 264.917 124.831 263.109 124.831C262.103 124.831 261.09 125.021 260.858 125.254ZM266.772 128.126C266.772 131.284 267.633 131.802 268.143 128.95C268.336 127.868 268.946 127.655 272.323 127.494C275.758 127.33 276.277 127.143 276.277 126.068C276.277 124.951 275.816 124.831 271.524 124.831H266.772V128.126ZM62.1449 127.134C60.8617 128.765 60.4365 131.936 61.2248 133.991C62.3014 136.795 63.302 136.871 99.5019 136.871H133.8L135.652 135.018C138.184 132.487 138.268 128.692 135.835 126.778C134.191 125.485 133.618 125.465 98.8118 125.465H63.4578L62.1449 127.134ZM179.648 126.257C179.498 126.693 178.78 129.473 178.053 132.435C177.325 135.397 176.591 138.289 176.423 138.861C176.207 139.591 176.716 140.11 178.133 140.604C179.242 140.99 180.238 141.306 180.346 141.306C180.454 141.306 180.831 140.237 181.182 138.93C181.535 137.623 182.266 134.918 182.808 132.919L183.792 129.284L204.213 129.117L224.633 128.95L221.544 127.207L218.454 125.465H199.187C184.341 125.465 179.858 125.647 179.648 126.257ZM220.514 125.765C220.514 125.93 221.356 126.501 222.384 127.032C223.832 127.781 226.547 127.999 234.423 127.999C244.171 127.999 244.594 127.947 244.594 126.732C244.594 125.509 244.171 125.465 232.554 125.465C225.932 125.465 220.514 125.6 220.514 125.765ZM277.852 126.309C278.031 126.947 278.178 128.444 278.178 129.635C278.178 130.827 278.463 131.801 278.812 131.801C279.728 131.801 279.538 129.257 278.457 127.049C277.944 126.003 277.672 125.67 277.852 126.309ZM65.2669 126.769C65.2669 127.138 64.9799 127.263 64.6282 127.046C63.7968 126.532 61.8984 128.43 62.4123 129.262C62.6296 129.613 62.5656 129.9 62.271 129.9C61.9757 129.9 61.6918 130.471 61.6392 131.168C61.5866 131.865 61.8585 132.435 62.2437 132.435C62.6284 132.435 62.7583 132.62 62.5321 132.846C61.8826 133.496 65.2023 136.03 66.5717 135.929C68.5043 135.786 71.4084 133.318 71.7506 131.526C71.9217 130.632 71.7854 129.9 71.4477 129.9C71.1106 129.9 70.9984 129.473 71.1993 128.95C71.4211 128.371 71.1999 127.999 70.6334 127.999C70.1214 127.999 69.7026 127.697 69.7026 127.328C69.7026 126.959 69.4415 126.818 69.1228 127.015C68.8041 127.212 68.3985 127.015 68.2211 126.577C67.9765 125.975 67.7344 126.013 67.2256 126.732C66.77 127.376 66.5508 127.427 66.5438 126.89C66.5387 126.455 66.2491 126.098 65.9006 126.098C65.5521 126.098 65.2669 126.401 65.2669 126.769ZM71.7348 127.34C72.1612 128.023 72.6814 128.305 72.8912 127.967C73.1301 127.58 82.9151 127.413 99.1889 127.517L125.106 127.683L124.913 130.822C124.789 132.841 124.344 134.236 123.667 134.73C122.181 135.817 123.114 136.437 125.464 135.92C127.305 135.516 127.379 135.401 126.459 134.385C125.184 132.975 125.18 129.322 126.452 127.507L127.438 126.098H99.1984C71.3096 126.098 70.9687 126.114 71.7348 127.34ZM129.901 126.769C129.901 127.138 129.615 127.264 129.267 127.049C128.918 126.833 128.633 126.959 128.633 127.328C128.633 127.697 128.188 127.999 127.645 127.999C127.102 127.999 126.818 128.26 127.016 128.579C127.213 128.898 127.016 129.303 126.578 129.481C125.957 129.733 125.972 129.937 126.645 130.409C127.375 130.92 127.375 131.076 126.645 131.408C125.973 131.714 125.958 131.884 126.578 132.172C127.016 132.376 127.213 132.804 127.016 133.123C126.818 133.441 127.119 133.702 127.683 133.702C128.247 133.702 128.532 133.987 128.316 134.336C128.101 134.684 128.37 134.97 128.913 134.97C129.456 134.97 129.901 135.207 129.901 135.497C129.901 135.788 130.496 135.982 131.224 135.928C132.859 135.807 137.389 132.291 136.353 131.946C135.941 131.808 135.604 131.417 135.604 131.078C135.604 130.737 135.889 130.635 136.237 130.851C136.586 131.066 136.871 130.781 136.871 130.217C136.871 129.616 136.574 129.375 136.155 129.634C135.721 129.902 135.554 129.732 135.731 129.202C136.092 128.12 134.578 126.508 133.708 127.046C133.356 127.263 133.064 127.067 133.059 126.611C133.052 126.001 132.871 126.034 132.378 126.732C131.871 127.447 131.625 127.487 131.384 126.89C130.992 125.927 129.901 125.837 129.901 126.769ZM277.118 131.484C277.122 133.924 277.236 134.844 277.373 133.53C277.51 132.215 277.508 130.219 277.368 129.094C277.228 127.969 277.116 129.045 277.118 131.484ZM64.3614 128.995C62.8983 130.459 63.1467 132.262 64.9761 133.461C67.2421 134.946 69.7026 133.825 69.7026 131.308C69.7026 130.325 69.3604 129.178 68.9422 128.76C67.8757 127.693 65.5432 127.813 64.3614 128.995ZM74.1382 130.217V132.435H79.8412H85.5442V130.18C85.5442 128.615 85.3167 128.065 84.8003 128.385C83.8669 128.961 79.985 128.988 79.4186 128.422C79.1866 128.189 77.9035 127.999 76.5671 127.999C74.2136 127.999 74.1382 128.068 74.1382 130.217ZM86.1778 130.217C86.1778 132.095 86.3965 132.435 87.6036 132.435C88.8107 132.435 89.0293 132.095 89.0293 130.217C89.0293 128.34 88.8107 127.999 87.6036 127.999C86.3965 127.999 86.1778 128.34 86.1778 130.217ZM107.722 130.217C107.722 131.766 108.009 132.435 108.673 132.435C109.337 132.435 109.623 131.766 109.623 130.217C109.623 128.668 109.337 127.999 108.673 127.999C108.009 127.999 107.722 128.668 107.722 130.217ZM110.257 130.217V132.435H117.227H124.198V130.217V127.999H117.227H110.257V130.217ZM128.92 129.541C127.138 132.259 130.092 135.296 133.002 133.738C134.841 132.754 135.291 130.671 133.978 129.221C132.446 127.528 130.143 127.674 128.92 129.541ZM90.4209 129.037C90.1782 129.279 89.9798 130 89.9798 130.64C89.9798 131.707 90.6534 131.801 98.2618 131.801C106.487 131.801 106.542 131.792 106.341 130.376C106.145 128.999 105.877 128.943 98.5001 128.773C94.2989 128.675 90.6635 128.795 90.4209 129.037ZM269.307 129.814C269.307 130.738 269.943 131.083 272.223 131.395C275.566 131.853 276.277 131.585 276.277 129.863C276.277 128.795 275.819 128.633 272.792 128.633C269.813 128.633 269.307 128.805 269.307 129.814ZM65.5496 130.589C65.3157 130.968 65.3721 131.526 65.6757 131.83C66.4253 132.579 68.0747 131.489 67.5285 130.605C66.9753 129.709 66.0977 129.702 65.5496 130.589ZM130.851 130.534C130.334 131.37 131.092 132.557 131.845 132.091C132.615 131.616 132.61 129.9 131.839 129.9C131.511 129.9 131.067 130.185 130.851 130.534ZM184.075 130.686C183.302 132.848 181.861 139.203 181.861 140.451C181.861 141.672 182.59 142.086 187.242 143.504C192.42 145.084 192.701 145.106 194.687 144.079C197.246 142.755 201.346 142.765 203.926 144.099C206.45 145.404 210.534 145.387 213.1 144.06C215.631 142.751 220.072 142.771 222.101 144.101C223.218 144.833 225.16 145.103 229.205 145.091L234.772 145.072L222.891 138.982C216.356 135.632 211.014 132.718 211.019 132.505C211.025 132.292 211.281 131.721 211.589 131.235C212.034 130.531 215.134 131.855 226.805 137.73C234.866 141.788 241.705 145.108 242.004 145.108C242.524 145.108 243.707 138.098 244.091 132.752L244.272 130.217L214.317 130.052C190.682 129.923 184.301 130.056 184.075 130.686ZM211.643 132.102C211.643 132.267 212.499 132.845 213.544 133.385C215.146 134.214 215.445 134.227 215.445 133.47C215.445 132.975 214.994 132.398 214.443 132.186C213.249 131.728 211.643 131.68 211.643 132.102ZM256.422 132.858C256.19 133.09 256.01 134.159 256.022 135.234L256.045 137.187L257.603 135.286C258.46 134.241 259.163 133.171 259.165 132.91C259.169 132.322 257 132.28 256.422 132.858ZM262.653 133.034C263.836 133.51 263.815 133.565 262.336 133.854C260.977 134.119 261.045 134.176 262.812 134.25C263.945 134.297 264.871 134.081 264.871 133.77C264.871 133.15 263.296 132.409 262.126 132.479C261.719 132.504 261.956 132.754 262.653 133.034ZM278.178 134.751C278.178 137.033 278.196 137.05 279.456 135.911C280.631 134.847 281.153 134.816 285.951 135.529C288.82 135.954 291.738 136.44 292.435 136.607C293.132 136.774 292.562 136.283 291.168 135.514C288.445 134.013 282.755 132.461 279.92 132.445C278.336 132.436 278.178 132.645 278.178 134.751ZM71.6872 134.179C70.9522 135.553 71.0257 135.606 73.7992 135.698C75.3796 135.751 77.0056 135.822 77.4124 135.857C77.8186 135.892 78.2704 135.564 78.4155 135.128C78.6005 134.572 77.8274 134.336 75.8282 134.336C74.1135 134.336 72.8715 134.021 72.7131 133.546C72.5509 133.059 72.1574 133.302 71.6872 134.179ZM265.505 133.921C265.505 134.742 264.884 134.97 262.653 134.97H259.802V137.615V140.26L261.268 138.882C262.292 137.921 263.536 137.504 265.387 137.504C267.542 137.504 268.039 137.285 268.039 136.335C268.039 135.692 267.469 134.65 266.772 134.019C265.632 132.988 265.505 132.978 265.505 133.921ZM269.307 133.702C269.307 134.051 270.573 134.336 272.121 134.336C273.669 134.336 275.111 134.051 275.326 133.702C275.568 133.312 274.488 133.069 272.512 133.069C270.749 133.069 269.307 133.354 269.307 133.702ZM216.079 134.208C216.079 134.669 244.598 149.544 245.481 149.544C246.207 149.544 245.857 147.747 245.069 147.429C244.634 147.253 245.026 147.087 245.942 147.059C247.994 146.998 249.271 148.417 248.722 150.147C248.24 151.665 244.937 151.986 244.393 150.568C244.208 150.086 242.278 148.803 240.105 147.716C236.566 145.948 235.563 145.742 230.484 145.742C225.814 145.742 224.876 145.903 225.164 146.652C225.356 147.154 225.825 148.722 226.207 150.138L226.9 152.712H239.209C252.994 152.712 252.831 152.769 252.831 148.002V145.742H248.041C244.643 145.742 243.38 145.95 243.694 146.458C244.259 147.372 245.113 147.768 230.197 140.197C217.71 133.859 216.079 133.168 216.079 134.208ZM112.158 134.97C113.319 135.72 119.6 135.72 121.346 134.97C122.184 134.61 120.679 134.413 116.911 134.39C113.008 134.366 111.508 134.55 112.158 134.97ZM272.633 134.844C269.824 135.006 269.307 135.228 269.307 136.27C269.307 137.326 269.757 137.504 272.432 137.504C275.039 137.504 275.627 137.286 275.975 136.189C276.205 135.466 276.295 134.825 276.176 134.764C276.058 134.703 274.463 134.739 272.633 134.844ZM108.99 135.219C108.99 135.356 109.432 135.638 109.973 135.845C110.537 136.061 110.791 135.955 110.569 135.596C110.197 134.994 108.99 134.705 108.99 135.219ZM279.505 136.952C277.919 138.654 277.912 138.392 279.649 141.94L281.046 144.791L290.112 144.926C296.977 145.027 299.117 144.873 298.925 144.292C298.573 143.222 296.038 142.954 294.935 143.87C294.342 144.362 294.019 144.392 294.019 143.956C294.019 143.048 294.848 142.596 296.815 142.433C298.634 142.282 298.824 141.929 297.695 140.799C296.539 139.644 295.643 139.891 296.635 141.093C297.38 141.996 297.369 142.101 296.554 141.829C296.031 141.655 295.599 140.824 295.593 139.983C295.585 138.809 295.07 138.279 293.375 137.698C290.629 136.757 288.751 136.668 289.267 137.504C289.513 137.902 288.112 138.138 285.502 138.138C283.154 138.138 281.346 137.862 281.346 137.504C281.346 137.156 282.962 136.871 284.937 136.871C289.349 136.871 289.157 136.536 284.416 135.961C281.211 135.573 280.693 135.677 279.505 136.952ZM258.005 138.694C257.422 140.641 257.374 141.667 257.844 142.137C258.913 143.205 259.258 142.299 259.039 138.998L258.835 135.92L258.005 138.694ZM246.725 138.451C246.525 138.972 246.178 139.285 245.953 139.147C245.728 139.008 245.487 139.697 245.416 140.678C245.339 141.748 245.656 142.602 246.208 142.814C246.714 143.008 247.128 143.518 247.128 143.948C247.128 144.554 246.959 144.559 246.368 143.968C245.319 142.918 243.326 143.011 243.326 144.11C243.326 144.809 244.39 145.019 248.013 145.038L252.699 145.063L253.124 142.795C253.469 140.955 253.282 140.242 252.129 139.016C250.518 137.3 247.296 136.964 246.725 138.451ZM263.038 138.689C261.485 139.124 259.168 142.653 259.168 144.585C259.168 146.18 260.169 146.519 261.156 145.26C261.937 144.262 261.914 144.24 260.911 145.027C259.125 146.427 259.641 144.969 261.712 142.759C265.263 138.971 272.505 139.055 277.245 142.939C278.804 144.216 280.079 145.092 280.079 144.885C280.079 144.678 279.469 143.253 278.723 141.718C277.438 139.074 277.197 138.907 274.129 138.538C270.121 138.057 265.05 138.125 263.038 138.689ZM280.712 139.397C279.657 140.069 280.355 141.79 282.022 142.628C284.105 143.675 288.165 144.571 289.92 144.372C291.591 144.182 291.824 143.892 291.998 141.782C292.106 140.475 291.961 139.405 291.676 139.405C291.39 139.405 291.158 140.332 291.162 141.465C291.168 143.464 291.094 143.521 288.633 143.416C284.467 143.24 281.983 142.496 281.301 141.223C280.501 139.727 281.022 139.509 286.099 139.225L289.901 139.011L285.782 138.901C283.516 138.841 281.235 139.064 280.712 139.397ZM72.4375 140.605C70.9794 141.284 67.915 143.275 65.6275 145.028C63.34 146.782 60.5405 148.464 59.4068 148.766C56.6865 149.491 42.1382 149.167 36.0513 148.246C31.9527 147.626 30.9566 147.662 29.3978 148.49C27.6533 149.417 19.5019 156.259 19.1679 157.077C18.9525 157.605 62.2786 157.427 76.0392 156.844C82.1382 156.586 100.656 156.684 117.189 157.064C133.722 157.443 147.351 157.651 147.475 157.527C147.599 157.403 146.163 156.434 144.284 155.373C142.364 154.289 139.248 151.601 137.173 149.238C129.533 140.535 127.248 139.981 97.5838 139.633C76.299 139.383 74.9462 139.435 72.4375 140.605ZM262.736 142.482C262.151 143.129 261.834 144.081 262.033 144.598C262.232 145.116 261.954 145.905 261.415 146.352C260.876 146.799 260.431 147.628 260.426 148.195C260.417 149.093 260.336 149.104 259.802 148.277C259.114 147.213 258.948 148.234 259.553 149.809C260.108 151.256 261.069 151.041 261.069 149.469C261.069 147.618 265.605 143.203 267.489 143.221C268.684 143.232 268.457 143.477 266.381 144.42C263.083 145.917 261.703 147.88 261.703 151.072C261.703 155.948 266.816 160.33 271.344 159.336C273.906 158.773 277.371 155.579 277.866 153.322C278.704 149.506 275.964 145.025 272.083 143.862L270.257 143.316L271.962 143.262C272.9 143.232 273.856 143.512 274.086 143.884C274.316 144.257 274.894 144.411 275.37 144.229C275.847 144.046 276.405 144.169 276.611 144.502C276.817 144.836 277.307 145.108 277.7 145.108C278.094 145.108 277.596 144.253 276.594 143.207C275.472 142.037 274.148 141.316 273.148 141.331C271.634 141.354 271.669 141.419 273.679 142.291C274.865 142.806 275.656 143.406 275.437 143.624C275.219 143.843 274.612 143.666 274.088 143.231C272.571 141.972 265.904 142.168 263.806 143.533C262.135 144.62 262.08 144.622 262.948 143.564C263.458 142.941 264.456 142.197 265.166 141.91C266.446 141.391 266.446 141.386 265.128 141.346C264.398 141.325 263.321 141.835 262.736 142.482ZM253.888 143.63C253.24 144.278 253.386 150.688 254.057 151.103C254.384 151.304 254.74 150.537 254.85 149.398C255.024 147.581 255.265 147.336 256.801 147.411C257.868 147.463 258.054 147.384 257.276 147.208C256.353 147 256 146.409 256 145.064C256 143.318 254.927 142.59 253.888 143.63ZM257.69 143.63C257.032 144.287 257.193 146.376 257.901 146.376C258.249 146.376 258.534 145.663 258.534 144.791C258.534 143.132 258.388 142.931 257.69 143.63ZM193.991 145.446C188.906 149.725 190.711 157.337 197.227 159.091C204.1 160.942 209.55 154.011 206.246 147.622C204.201 143.668 197.516 142.48 193.991 145.446ZM212.002 145.79C208.481 148.882 208.401 153.365 211.802 156.996C215.908 161.379 224.266 159.221 225.339 153.5C226.38 147.954 222.923 143.848 217.21 143.843C214.775 143.842 213.811 144.202 212.002 145.79ZM206.583 145.9C206.588 145.987 206.952 147.09 207.391 148.35L208.19 150.641L209.236 148.192L210.281 145.742H208.428C207.408 145.742 206.578 145.814 206.583 145.9ZM196.562 149.037C195.324 150.275 195.622 153.839 197.027 154.591C200.867 156.646 204.774 152.27 201.776 149.272C200.598 148.094 197.639 147.96 196.562 149.037ZM214.531 149.685C213.227 151.546 213.286 152.454 214.812 153.98C217.223 156.391 221.148 155.017 221.148 151.762C221.148 148.408 216.457 146.936 214.531 149.685ZM267.187 149.436C265.107 151.734 266.705 155.247 269.832 155.247C271.337 155.247 273.742 153.19 273.742 151.903C273.742 148.8 269.282 147.121 267.187 149.436ZM196.687 150.437C196.161 151.807 196.71 153.687 197.582 153.504C197.997 153.417 198.336 153.57 198.336 153.845C198.336 154.119 198.921 154.388 199.634 154.441C201.181 154.558 203.005 151.417 201.652 150.966C201.218 150.821 200.989 150.499 201.143 150.25C201.297 150.001 200.437 149.731 199.234 149.65C197.785 149.552 196.924 149.818 196.687 150.437ZM215.014 150.563C214.658 151.493 214.974 153.481 215.445 153.272C215.619 153.195 216.422 153.485 217.228 153.916C219.056 154.895 220.514 153.909 220.514 151.696C220.514 150.654 220.083 150.114 219.089 149.913C216.824 149.455 215.35 149.69 215.014 150.563ZM255.646 150.118C255.841 150.434 256.571 150.543 257.268 150.361C259.011 149.905 258.854 149.544 256.913 149.544C256.021 149.544 255.451 149.802 255.646 150.118ZM267.087 150.815C266.655 152.177 267.349 154.09 268.106 153.622C268.418 153.429 268.673 153.525 268.673 153.836C268.673 154.601 271.061 154.379 271.905 153.536C272.277 153.163 272.487 152.184 272.37 151.359C272.192 150.104 271.775 149.85 269.795 149.795C268.082 149.748 267.337 150.029 267.087 150.815ZM256.475 152.498C256.911 152.674 257.624 152.674 258.059 152.498C258.495 152.323 258.138 152.179 257.267 152.179C256.396 152.179 256.04 152.323 256.475 152.498Z" fill="black"/>
</svg>
