<svg width="320" height="128" viewBox="0 0 320 128" fill="none" xmlns="http://www.w3.org/2000/svg">
<path fill-rule="evenodd" clip-rule="evenodd" d="M249.608 16.2916C249.608 18.1178 263.919 33.1909 268.42 36.1061C272.606 38.8178 273.285 39.6795 273.224 42.2092C273.197 43.3585 272.879 45.6645 272.517 47.3332C270.958 54.5351 269.217 75.2473 270.171 75.2473C270.669 75.2473 270.811 74.7598 271.464 70.7972C271.703 69.3509 272.07 67.6215 272.279 66.954C272.668 65.7173 273.888 60.5673 274.914 55.8288C275.424 53.4772 275.463 55.2515 275.287 72.6177C275.178 83.2979 274.973 96.6331 274.831 102.251L274.573 112.466H256.01C241.532 112.466 237.404 112.355 237.253 111.96C237.147 111.682 237.107 99.0167 237.165 83.8145L237.269 56.1743L242.608 61.5524C245.544 64.5105 248.053 66.8233 248.185 66.6918C248.316 66.5608 245.868 63.8891 242.745 60.7546C237.895 55.8871 237.067 54.8733 237.067 53.804C237.067 52.8444 237.2 52.6276 237.637 52.8756C238.185 53.1875 241.445 57.0558 243.54 59.88C244.096 60.63 245.442 62.3243 246.531 63.6448C247.619 64.9656 248.53 66.3637 248.553 66.7525C248.604 67.5689 252.684 71.385 252.985 70.8971C253.095 70.7183 251.369 68.393 249.148 65.729C246.927 63.065 243.814 59.183 242.229 57.1015C240.644 55.0201 239.017 53.1102 238.612 52.8574C238.207 52.6045 237.876 52.2489 237.876 52.0665C237.876 51.8844 238.07 51.8553 238.306 52.0014C239.001 52.431 240.303 50.9447 240.303 49.7217C240.303 48.2334 239.846 48.0165 237.845 48.5554C236.927 48.8026 236.122 48.947 236.055 48.877C235.988 48.8066 236.276 47.2018 236.695 45.3105C237.114 43.4192 237.738 40.2334 238.081 38.2308C238.711 34.5527 240.472 26.6906 241.156 24.5016C241.378 23.7928 241.38 23.1658 241.161 22.9473C240.769 22.5545 238.925 27.009 237.19 32.5404C236.627 34.335 236.002 36.1676 235.801 36.6126C235.193 37.961 234.25 42.9694 234.24 44.9059C234.229 47.1346 233.6 49.5166 232.863 50.1291C232.245 50.6421 224.727 53.342 216.233 56.1019C213.118 57.1141 210.396 58.1036 210.185 58.3014C208.752 59.6409 221.029 57.2613 228.167 54.8162C230.503 54.016 232.915 53.2587 233.527 53.1333L234.64 52.9051L234.626 59.9298C234.618 63.7928 234.442 72.8705 234.234 80.1019C234.027 87.3333 233.746 97.3459 233.609 102.352C233.471 107.359 233.289 111.682 233.203 111.96C233.081 112.354 229.387 112.466 216.513 112.466H199.979L199.712 99.6567C199.564 92.6114 199.452 83.9188 199.462 80.3394C199.478 74.4523 199.531 73.9665 200.022 75.2473C202.128 80.7451 203.908 84.552 204.373 84.552C204.896 84.552 205.091 85.3327 201.449 72.82C199.1 64.7516 199.165 65.1242 200.007 64.5085C200.428 64.201 200.934 63.8952 201.131 63.8292C201.328 63.7637 201.53 63.1654 201.579 62.4999C201.657 61.4505 201.519 61.2733 200.539 61.1608L199.41 61.0309L200.636 59.634C201.977 58.1064 205.957 52.2437 207.612 49.356C210.024 45.1487 210.319 44.5196 209.976 44.3076C209.391 43.9459 199.659 56.0133 198.02 59.1336L196.515 61.9982L194.439 61.7434C192.688 61.5285 186.676 60.9824 176.461 60.111C175.01 59.9872 174.36 60.0718 174.46 60.3715C174.652 60.9464 178.868 62.0937 183.023 62.7017C184.823 62.9651 186.842 63.3341 187.51 63.5218C188.177 63.7095 190.362 63.9813 192.364 64.1254C196.227 64.4037 196.973 64.7577 197.073 66.3589C197.187 68.1713 196.601 101.633 196.36 107.106L196.124 112.466H183.22H170.316L170.315 102.656C170.315 97.2597 170.195 88.3673 170.05 82.8937L169.785 72.9422L171.041 72.3159C172.217 71.7293 175.231 71.0861 182.435 69.8846C184.094 69.6078 185.459 69.2053 185.469 68.9897C185.51 68.0823 171.001 69.2085 168.943 70.2725C167.528 71.0048 167.887 71.3417 164.544 66.1449C162.732 63.3264 159.123 58.32 157.745 56.7124C157.494 56.4199 157.2 56.2694 157.091 56.3782C156.849 56.6197 161.162 64.8754 162.285 66.3229C164.52 69.2021 166.675 72.1274 166.675 72.2819C166.675 72.3774 166.385 73.0174 166.029 73.7043C164.269 77.1082 160.836 88.7872 161.125 90.39C161.243 91.045 161.47 90.812 162.167 89.3216C162.699 88.1836 162.963 87.0391 162.823 86.4805C162.596 85.5787 164.449 78.9801 165.726 76.1405C166.055 75.4079 166.573 74.1335 166.876 73.3087L167.427 71.8086L167.443 73.0223C167.451 73.6898 167.092 75.2372 166.646 76.4609C166.199 77.6847 165.449 79.7783 164.979 81.1133C164.51 82.4483 163.88 83.8998 163.58 84.3388C163.28 84.7773 163.034 85.5006 163.034 85.9456C163.034 86.7491 163.038 86.7495 163.579 85.957C163.879 85.518 164.414 84.3396 164.77 83.3383C167.415 75.8877 168.297 74.3079 168.002 77.5496C167.905 78.6196 167.704 86.868 167.554 95.8794L167.282 112.264L155.438 112.371C146.168 112.455 143.552 112.367 143.398 111.965C143.29 111.683 143.249 104.493 143.307 95.9874L143.413 80.5226L145.375 83.3735C146.454 84.9415 147.44 86.1212 147.567 85.995C147.693 85.8692 147.092 84.719 146.233 83.4394C143.606 79.5291 143.777 79.8183 144.498 80.5064C145.832 81.7796 148.075 85.5059 147.88 86.1273C147.672 86.7964 150.75 90.4985 151.167 90.081C151.527 89.7213 148.497 84.6114 145.958 81.2965C145.213 80.3248 144.936 79.5784 145.095 78.972C145.293 78.2151 145.163 78.0791 144.242 78.0791C143.396 78.0791 143.204 77.923 143.371 77.3712C143.489 76.9816 143.766 75.935 143.986 75.045C144.206 74.155 144.939 71.2422 145.614 68.5722C146.289 65.9021 146.844 63.4902 146.847 63.2119C146.869 61.0945 144.688 65.5789 142.96 71.203C142.235 73.5639 141.968 75.1979 142.093 76.4986L142.273 78.3793L139.459 78.6411C137.912 78.7847 135.529 79.1666 134.163 79.489C132.798 79.8114 130.635 80.2763 129.355 80.5218C125.835 81.1974 126.382 81.8904 130.164 81.5478C134.486 81.1562 136.218 80.9349 138.478 80.487C141.826 79.8228 141.593 79.3903 141.592 86.2713C141.592 89.6643 141.471 96.949 141.325 102.459L141.059 112.479L129.695 112.371L118.331 112.264L118.224 99.9985C118.165 93.2526 118.27 87.8276 118.456 87.9429C118.643 88.0582 120.399 88.3519 122.36 88.5954C124.32 88.839 126.105 89.0757 126.325 89.1214C126.545 89.1671 126.794 89.0222 126.877 88.7997C126.96 88.5772 125.618 88.0558 123.893 87.6407C122.169 87.2256 120.212 86.6415 119.545 86.3421C118.877 86.0427 118.005 85.836 117.607 85.8829C117.023 85.9513 116.567 85.0318 115.246 81.1133C114.346 78.4432 113.443 76.0859 113.24 75.8743C112.596 75.2052 112.828 77.4371 113.679 80.1019C114.124 81.4948 114.488 82.8265 114.488 83.0612C114.488 83.2954 114.874 84.2841 115.345 85.2575L116.202 87.0278L115.389 87.9138C114.449 88.9373 110.005 96.79 110.235 97.0202C110.643 97.428 110.982 96.9992 115.582 90.2509L116.523 88.8705L116.416 100.567L116.309 112.264L109.532 112.375L102.756 112.485V100.946V89.4066H104.374C106.462 89.4066 106.433 88.9252 104.297 88.1464C102.359 87.4396 102.3 87.2778 100.706 78.2814C100.232 75.6114 99.7798 73.3204 99.6997 73.1901C99.6196 73.0599 99.1733 70.7843 98.7073 68.1332C98.2417 65.4822 97.6077 63.0573 97.2986 62.745C96.816 62.2571 96.2893 62.2717 93.5768 62.8466C91.8388 63.2151 88.6878 63.8806 86.574 64.3256C84.4602 64.7706 82.4253 65.3099 82.0515 65.5243C81.6781 65.7383 81.314 65.7836 81.2424 65.6246C81.1712 65.4656 80.2933 64.8066 79.2921 64.1601C78.2908 63.5133 76.9784 62.6487 76.3753 62.2385C74.9047 61.2377 74.2736 61.2988 73.6288 62.5031C73.331 63.0594 73.0126 63.4392 72.9212 63.3474C72.8294 63.256 73.0668 62.7042 73.4487 62.122C73.8302 61.5395 74.0487 60.9686 73.9338 60.8538C73.8189 60.7389 71.1998 61.4015 68.1139 62.3263C61.6452 64.2645 60.0573 64.5704 59.3623 64.0125C58.8837 63.6282 50.7854 60.2789 50.3343 60.2789C49.5094 60.2789 51.323 61.4169 56.1073 63.9012C59.8417 65.8402 62.0542 67.259 62.9341 68.2781C63.6501 69.1074 64.7032 70.3243 65.2748 70.9821C65.8464 71.6399 66.2663 72.2261 66.2081 72.2843C66.1498 72.3426 65.0191 71.9449 63.6958 71.4012C62.3725 70.8571 61.0444 70.4076 60.745 70.4024C59.8311 70.3862 57.9565 68.838 57.6773 67.8687C57.5325 67.3654 56.2505 65.998 54.8285 64.8301C52.2871 62.7426 51.4525 62.2495 52.0233 63.1734C52.2037 63.4651 52.1342 63.5303 51.8384 63.3474C51.5779 63.1864 51.4602 62.9008 51.5767 62.7123C51.7842 62.3761 47.8261 58.6607 47.2605 58.6607C47.1019 58.6607 46.7346 59.1024 46.4445 59.6425C45.9142 60.6292 42.8105 65.697 40.7845 68.8849C39.4527 70.9801 37.6233 74.0907 37.6233 74.2602C37.6233 74.3285 38.1237 74.4422 38.7358 74.5126C39.7019 74.6235 39.8649 74.8403 39.9742 76.1587C40.1068 77.7644 40.0081 77.8983 33.0782 85.4881C32.0247 86.6419 31.1602 87.7228 31.1566 87.8895C31.1533 88.0562 31.8787 88.1929 32.7687 88.1929H34.3869V94.0557C34.3869 99.4799 34.3266 99.9557 33.5778 100.423C33.1328 100.701 32.7687 101.158 32.7687 101.438C32.7687 101.718 33.1328 101.948 33.5778 101.948C34.3327 101.948 34.3869 102.217 34.3869 105.969C34.3869 108.181 34.5386 110.085 34.7243 110.2C35.2818 110.544 37.0937 110.783 44.0961 111.438C47.7674 111.781 52.2276 112.257 54.0076 112.495C55.7877 112.733 57.7619 112.992 58.3946 113.072C59.658 113.231 60.1471 113.541 59.7539 113.935C59.4881 114.2 49.0122 113.288 40.6574 112.273C37.0242 111.831 31.6809 111.701 19.4185 111.756L3.03418 111.83L19.6208 112.074C28.7434 112.208 37.8458 112.527 39.8483 112.782C43.5334 113.252 57.2032 114.583 59.0645 114.653C59.8785 114.684 60.101 114.474 60.2037 113.579C60.2741 112.967 60.1831 112.462 60.0015 112.458C59.8198 112.453 56.3035 112.09 52.1871 111.65C48.0708 111.21 42.8825 110.659 40.6574 110.425C34.1749 109.742 34.7914 110.234 34.7914 105.735V101.853L37.9267 102.128C39.6513 102.28 42.1543 102.573 43.4893 102.779C44.8243 102.985 48.1089 103.273 50.7882 103.417L55.6598 103.68L56.7553 102.379L57.8509 101.077L57.8569 85.2288C57.8606 76.5127 57.9969 69.5791 58.1603 69.8206C58.4646 70.2705 58.9173 70.4558 64.5227 72.4296C67.8489 73.6008 68.4157 73.6485 67.6204 72.6905C67.2632 72.2597 67.461 71.7406 68.512 70.3546C69.2552 69.3744 70.9082 67.1611 72.1861 65.4369C73.4637 63.7127 74.6689 62.3016 74.8643 62.3016C75.0597 62.3016 76.3299 63.0193 77.6876 63.8968L80.1558 65.4923L78.6112 65.9034C77.7621 66.1295 76.3389 66.4317 75.4488 66.5753C73.6154 66.871 73.346 67.183 65.2105 78.4173C64.8338 78.9368 63.5708 80.6197 62.4029 82.1562C61.2353 83.6931 60.2341 85.1746 60.1778 85.4484C60.0998 85.8303 61.5865 85.9189 66.5487 85.8279L73.0215 85.709L69.8499 87.5889C68.1054 88.623 66.7789 89.5692 66.9015 89.6918C67.0241 89.8144 68.5423 89.7059 70.2754 89.4507C72.0081 89.1958 75.3376 89.0667 77.6739 89.1642C80.0102 89.2621 83.0597 89.3564 84.4501 89.3742C85.841 89.392 86.979 89.5433 86.979 89.71C86.9794 89.8767 84.8405 90.0134 82.2255 90.0134H77.4716L77.3502 92.3396L77.2289 94.6657H75.8526H74.4759L74.3557 92.2344C74.2894 90.8969 74.0531 89.7593 73.8306 89.7059C73.5713 89.6436 73.3872 93.2814 73.3181 99.8488C73.2177 109.338 73.1583 110.075 72.509 109.895C72.1234 109.789 70.8976 109.584 69.7851 109.438C68.6726 109.293 67.1252 109.012 66.3464 108.814C65.5677 108.615 64.248 108.346 63.4134 108.216L61.8964 107.979V97.4495C61.8964 87.6391 61.8478 86.9291 61.1884 87.0561C60.5375 87.1811 60.472 88.0966 60.3728 98.3937L60.2656 109.595L61.7888 109.835C62.6266 109.967 63.7674 110.171 64.3237 110.288C64.8799 110.405 67.6633 110.898 70.5085 111.383C73.3759 111.871 75.8239 112.493 75.9998 112.779C76.2426 113.173 78.1152 113.267 83.9739 113.183C91.5686 113.074 91.6321 113.066 91.7603 112.163C91.8862 111.277 92.0189 111.252 96.708 111.252C101.376 111.252 101.533 111.224 101.73 110.342C101.841 109.841 101.89 105.108 101.839 99.8238C101.787 94.5391 101.881 90.2157 102.048 90.2157C102.215 90.2157 102.351 95.4081 102.351 101.755V113.294L109.532 113.183L116.713 113.073L116.824 106.701C116.974 98.1279 117.724 98.2124 117.724 106.802V113.275H129.596H141.468L141.733 107.75C141.878 104.711 141.998 97.8536 141.998 92.5115C141.998 87.1698 142.134 82.9354 142.301 83.1021C142.468 83.2683 142.695 90.0802 142.807 98.2387L143.009 113.073L155.096 113.18C163.393 113.254 167.352 113.148 167.717 112.845C168.244 112.407 168.476 102.605 168.491 80.1019C168.494 75.5863 168.656 72.5 168.9 72.3204C169.585 71.8171 170.037 71.9797 169.557 72.5578C169.226 72.9567 169.185 78.5124 169.406 93.0888L169.709 113.073L183.172 113.18C196.582 113.286 196.635 113.283 196.953 112.425C197.128 111.951 197.33 105.077 197.402 97.1477C197.474 89.2189 197.584 82.1853 197.647 81.5178C197.709 80.8503 197.793 77.7555 197.833 74.6405C197.97 64.0647 198.532 71.3486 198.794 87.1115C198.934 95.5278 199.165 104.858 199.309 107.845L199.569 113.275H216.692H233.815L234.001 112.365C234.103 111.864 234.382 100.532 234.621 87.1815C235.129 58.7343 235.355 53.3857 236.008 54.279C236.328 54.7175 236.502 63.3304 236.605 83.7833C236.685 99.67 236.832 112.805 236.932 112.972C237.033 113.139 245.646 113.275 256.072 113.275H275.031L275.254 110.747C275.376 109.356 275.593 98.8427 275.734 87.3838C275.876 75.9249 276.056 65.5482 276.134 64.3244C276.212 63.1006 276.285 57.2751 276.296 51.3788L276.317 40.6581L278.415 39.9623C279.569 39.5796 280.594 39.3478 280.693 39.4469C281.041 39.7944 279.843 40.8604 279.105 40.8604C278.695 40.8604 278.205 41.1792 278.015 41.5684C277.58 42.4604 278.012 112.083 278.456 112.769C278.876 113.417 316.359 113.517 316.359 112.871C316.359 112.607 309.901 112.466 297.793 112.466C281.606 112.466 279.197 112.388 278.992 111.855C278.864 111.519 278.753 99.185 278.746 84.4464C278.74 69.7082 278.616 54.4481 278.472 50.5353C278.165 42.1874 278.276 41.4579 279.916 41.1303C280.838 40.9458 281.136 40.6428 281.236 39.7863C281.344 38.868 281.848 38.4368 284.212 37.2421C287.54 35.5596 291.797 33.7019 296.334 31.9518C298.114 31.2653 299.934 30.5444 300.379 30.3502C306.079 27.861 307.498 27.1591 307.443 26.8561C307.407 26.6595 307.169 26.5648 306.913 26.6453C305.234 27.1732 298.666 28.9278 296.132 29.5253C288.767 31.2616 285.439 32.4304 282.78 34.2145C281.312 35.1995 279.819 36.0058 279.464 36.0058C279.109 36.0058 278.026 36.4589 277.058 37.0123C276.089 37.5658 275.14 38.0209 274.947 38.0237C274.755 38.0265 273.208 36.7 271.509 35.0762C269.81 33.4527 267.692 31.5141 266.802 30.7681C265.207 29.4323 259.357 24.2435 258.111 23.0602C257.76 22.7264 256.339 21.3776 254.953 20.0629C253.567 18.7481 252.311 17.7957 252.16 17.9466C251.883 18.223 252.258 18.596 258.728 24.4761C260.687 26.2561 262.486 27.9002 262.725 28.1296C262.965 28.359 264.617 29.8089 266.397 31.3519C272.413 36.5665 274.41 38.6876 273.998 39.4243C273.67 40.0101 273.573 39.9773 273.199 39.1569C272.965 38.6431 271.163 37.1325 269.194 35.7995C265.539 33.3257 260.251 28.344 255.842 23.22C254.486 21.6451 252.97 19.9496 252.473 19.452C251.976 18.9548 251.661 18.3055 251.774 18.0102C251.888 17.7144 251.675 17.21 251.3 16.8891C250.125 15.8822 249.608 15.6998 249.608 16.2916ZM294.716 30.5318C291.156 31.4862 287.467 32.555 286.519 32.9065C283.965 33.8536 281.163 35.9083 281.163 36.8343C281.163 37.2688 281.323 37.624 281.517 37.624C281.712 37.624 283.97 36.6228 286.535 35.399C289.1 34.1752 291.325 33.174 291.48 33.174C291.635 33.174 292.335 32.9041 293.036 32.574C293.737 32.2439 296.223 31.2483 298.559 30.3615C303.989 28.3003 302.849 28.3509 294.716 30.5318ZM237.603 33.3176C236.896 35.575 236.017 38.4109 235.649 39.6193C235.281 40.8281 234.844 43.5705 234.678 45.7134C234.512 47.8567 234.227 49.8714 234.044 50.191C233.773 50.6659 233.813 50.6781 234.264 50.2586C235.075 49.5049 235.797 46.9732 236.885 41.0627C237.417 38.1702 238.134 34.4471 238.478 32.7888C238.822 31.131 239.054 29.6483 238.995 29.4942C238.936 29.34 238.309 31.0606 237.603 33.3176ZM278.725 37.6989C277.952 38.1738 276.81 38.6702 276.187 38.8013C274.916 39.0691 274.846 39.9024 276.106 39.7532C278.087 39.5181 280.322 38.6941 280.544 38.118C280.973 36.9994 280.166 36.8133 278.725 37.6989ZM273.735 43.2764C273.591 44.8275 273.118 47.968 272.683 50.2549C272.249 52.5418 271.703 57.0526 271.472 60.2789C271.24 63.5052 270.962 66.9641 270.854 67.9654C270.438 71.8147 271.785 67.1138 273.751 57.8516C274.969 52.1183 275.758 41.2751 274.994 40.7896C274.098 40.2204 274.002 40.4098 273.735 43.2764ZM207.535 47.2313C207.535 47.472 207.176 48.0942 206.737 48.6137C200.868 55.5675 196.732 61.4925 197.747 61.4925C199.007 61.4925 208.53 47.7888 207.786 47.0452C207.648 46.9068 207.535 46.9906 207.535 47.2313ZM237.269 49.2443C236.179 49.5122 235.449 50.1449 235.449 50.8213C235.449 51.2084 235.98 51.3788 237.188 51.3788C239.052 51.3788 239.899 50.848 239.899 49.6796C239.899 48.943 239.059 48.8042 237.269 49.2443ZM232.01 51.3379C231.343 51.6708 227.156 53.1733 222.705 54.6758C218.255 56.1788 214.705 57.4171 214.817 57.4276C216.007 57.5413 226.66 54.9485 228.774 54.031C229.441 53.7409 230.852 53.1831 231.909 52.791C233.875 52.0616 234.039 51.8958 233.521 51.1567C233.32 50.8694 232.832 50.9277 232.01 51.3379ZM235.861 52.8044C236.143 53.1434 236.457 53.3376 236.559 53.2361C236.839 52.9553 236.269 52.1879 235.78 52.1879C235.512 52.1879 235.542 52.4201 235.861 52.8044ZM45.3264 62.8118C44.5961 63.9777 43.6568 65.4244 43.2385 66.0276C42.8202 66.6303 42.4779 67.2129 42.4779 67.3217C42.4779 67.4309 41.9625 68.3032 41.3326 69.2599C38.826 73.0667 38.3406 74.0336 38.9361 74.0336C39.2492 74.0336 41.0389 71.7176 42.9132 68.8869C44.7875 66.0563 46.6424 63.2588 47.0348 62.6702C47.6283 61.7806 47.6562 61.5245 47.2011 61.1466C46.7678 60.787 46.377 61.1341 45.3264 62.8118ZM179.418 61.3121C183.121 62.2236 188.316 63.0116 192.465 63.2916C196.705 63.578 197.692 62.9453 193.679 62.514C192.288 62.3643 189.33 61.9938 187.105 61.69C184.88 61.3865 181.694 61.0427 180.025 60.9262L176.991 60.715L179.418 61.3121ZM160.202 61.2393C160.202 62.1111 162.977 66.4362 165.036 68.7745L166.283 70.1904L165.377 68.5722C164.879 67.6822 164.147 66.6012 163.753 66.1696C163.357 65.7383 163.034 65.2828 163.034 65.157C163.034 65.0316 162.397 64.0323 161.618 62.9372C160.839 61.8417 160.202 61.0779 160.202 61.2393ZM199.601 61.9108C198.698 62.2523 198.059 63.7665 198.661 64.1387C199.159 64.4458 201.062 63.1318 201.062 62.4813C201.062 61.7215 200.589 61.5366 199.601 61.9108ZM44.5905 67.5119C41.2776 72.4975 40.4402 74.0336 41.0357 74.0336C41.1324 74.0336 41.7012 73.8475 42.2999 73.6198C42.8982 73.3924 44.3211 73.1242 45.4615 73.0239C46.6019 72.9231 48.5964 72.5619 49.8942 72.2204C51.1915 71.879 52.3947 71.6868 52.5674 71.7936C52.7402 71.9004 52.917 73.4503 52.9602 75.238C53.0351 78.3559 52.9979 78.5031 52.0371 78.8684C51.4501 79.0917 50.9808 79.635 50.9035 80.1812C50.7874 81 50.5131 81.1282 48.6473 81.2363C46.7346 81.3475 46.5234 81.2771 46.5234 80.5283C46.5234 79.9118 46.2625 79.6973 45.5121 79.6973C44.5371 79.6973 44.5007 79.6031 44.5007 77.0678C44.5007 74.2359 44.3296 74.0619 42.3019 74.8326C41.2707 75.2246 41.2643 75.2574 41.2643 79.8883V84.5495L39.8407 86.1253C38.9158 87.1492 37.9235 87.7936 37.0088 87.9656L35.6005 88.2297V93.8198V99.4103L37.4777 99.6676C40.7266 100.113 40.8597 100.071 40.8597 98.5899C40.8597 97.8556 41.0345 97.0801 41.2485 96.8661C41.4621 96.6525 41.6899 94.6589 41.7542 92.4363L41.8711 88.3952L44.3995 88.2746C45.9619 88.2002 46.9341 88.3163 46.9442 88.578C46.9531 88.8115 46.9603 90.8225 46.9603 93.0475C46.9603 95.2726 46.9531 97.2921 46.9442 97.5348C46.9336 97.818 46.0922 97.9272 44.6018 97.8382C42.3533 97.7043 42.2756 97.7335 42.2756 98.7113C42.2756 99.6745 42.4201 99.7364 45.3098 100.011C51.5888 100.608 56.6951 100.946 56.8654 100.776C56.9625 100.679 57.0458 93.484 57.0511 84.7878L57.0604 68.9767L54.5226 66.6263C53.1269 65.3338 52.44 64.4988 52.9963 64.771C53.5525 65.0429 54.2451 65.5546 54.5356 65.9074C54.9862 66.4552 55.0012 66.42 54.6371 65.6667C54.2253 64.8139 52.8449 64.0813 51.9598 64.2455C51.7235 64.2892 51.0067 63.7787 50.3671 63.1111C49.7275 62.4432 49.0054 61.8971 48.7626 61.8971C48.5199 61.8971 46.6424 64.4235 44.5905 67.5119ZM69.1783 62.7204C64.0259 64.1909 60.9708 65.1161 60.9077 65.2249C60.8725 65.286 62.0372 66.5688 63.496 68.0762L66.1486 70.817L67.9667 68.357C68.9667 67.0041 70.4834 64.9972 71.3366 63.8972C73.0499 61.6887 72.9617 61.641 69.1783 62.7204ZM197.286 62.5715C196.9 62.9578 196.954 63.5153 197.378 63.5153C197.576 63.5153 197.844 63.2422 197.972 62.9085C198.209 62.2919 197.777 62.0799 197.286 62.5715ZM70.7965 65.6287C70.0177 66.7363 69.0869 67.9427 68.7276 68.3096C68.3684 68.6766 67.8574 69.4319 67.5925 69.9881C67.1394 70.94 67.1466 70.9518 67.7215 70.1904C68.0573 69.7454 68.5783 69.1082 68.8793 68.7745C69.919 67.6223 72.511 63.8814 72.3621 63.7483C72.2796 63.6751 71.5753 64.5214 70.7965 65.6287ZM95.3932 63.7309C95.2868 63.8373 93.3045 64.2799 90.9881 64.714C88.6716 65.1485 86.1391 65.6974 85.3603 65.9345C84.5816 66.1716 83.1252 66.3706 82.1239 66.3767C81.1227 66.3832 78.966 66.5891 77.3308 66.8342C74.0883 67.3205 74.6401 66.8795 70.6003 72.2131C66.4492 77.6932 61.4918 84.5807 61.4918 84.8671C61.4918 85.0674 62.9029 85.1685 64.6271 85.092C74.6749 84.6454 74.219 84.7081 76.0011 83.5288L77.6949 82.4078L78.5946 83.2121C79.4049 83.9366 79.9248 83.9985 83.8315 83.8343C86.3968 83.7263 88.3075 83.4641 88.5086 83.1919C88.6959 82.9386 89.3322 81.4571 89.9233 79.8996C93.362 70.8373 95.5437 65.252 95.8819 64.6464C96.2347 64.0145 95.8431 63.2811 95.3932 63.7309ZM96.5349 64.4733C96.2982 65.4179 96.6028 67.1259 98.9642 78.0791C99.516 80.6379 100.072 83.505 100.2 84.4508C100.344 85.5055 100.644 86.1702 100.978 86.1702C101.562 86.1702 101.54 85.9323 100.473 80.7087C99.6082 76.4751 97.8715 67.5968 97.5244 65.6351C97.1486 63.5125 96.8609 63.1747 96.5349 64.4733ZM197.826 66.2994C197.826 66.9669 198.008 67.6255 198.23 67.7631C198.466 67.9087 198.635 67.5054 198.635 66.7994C198.635 66.1319 198.453 65.4733 198.23 65.3358C197.995 65.1901 197.826 65.5935 197.826 66.2994ZM55.4236 66.5001C55.4236 66.5838 55.7419 66.9026 56.1315 67.208C56.7731 67.7109 56.7873 67.6967 56.2844 67.0551C55.7557 66.3811 55.4236 66.1671 55.4236 66.5001ZM144.257 69.2344C143.669 70.8227 143.102 73.2346 142.999 74.5947L142.811 77.0678L143.571 73.9268C143.989 72.1994 144.519 70.2879 144.75 69.679C145.275 68.2906 145.707 66.3472 145.491 66.3472C145.401 66.3472 144.846 67.6466 144.257 69.2344ZM95.4741 68.8238C95.4741 69.3449 90.8327 81.1363 90.1822 82.2683C89.8598 82.8286 89.8711 82.9439 90.2267 82.7242C90.4884 82.5624 91.5937 82.8472 92.6827 83.3573C94.9025 84.397 95.85 84.0993 94.184 82.8856C93.1937 82.1643 93.0966 81.8536 93.0877 79.3786C93.0824 77.885 93.1791 76.3291 93.3029 75.9205C93.5137 75.2242 93.5873 75.2339 94.4858 76.0782C95.0125 76.573 95.8601 77.1855 96.3694 77.4395C97.2096 77.8583 97.2946 78.1783 97.2946 80.9231C97.2946 83.5115 97.4107 84.0155 98.1037 84.4367C99.8793 85.5148 99.8854 85.728 97.8622 76.0564C97.1874 72.8301 96.5527 69.781 96.4515 69.2802C96.2654 68.3582 95.4741 67.9888 95.4741 68.8238ZM199.351 69.0022C198.98 69.6026 199.704 72.7467 200.835 75.4496C201.395 76.7846 201.871 78.1499 201.893 78.4837C201.916 78.8174 202.012 78.9069 202.107 78.6819C202.201 78.4574 201.901 77.001 201.44 75.4455C200.979 73.8904 200.375 71.716 200.098 70.6136C199.82 69.5116 199.484 68.7862 199.351 69.0022ZM176.991 69.5836C176.324 69.7535 175.015 69.9141 174.082 69.9404C172.358 69.9889 171.137 70.7972 172.788 70.7972C174.35 70.7972 178.997 69.9117 179.398 69.5378C179.852 69.1143 178.753 69.1353 176.991 69.5836ZM166.499 70.9158C166.651 71.3146 166.877 71.5392 167.002 71.4146C167.126 71.2904 167.002 70.9639 166.725 70.6892C166.326 70.2927 166.279 70.3393 166.499 70.9158ZM169.102 70.7972C168.769 71.0128 168.678 71.1892 168.9 71.1892C169.123 71.1892 169.578 71.0128 169.912 70.7972C170.245 70.5816 170.336 70.4052 170.114 70.4052C169.891 70.4052 169.436 70.5816 169.102 70.7972ZM50.9735 75.4496C50.9735 77.8769 51.0949 78.4837 51.5803 78.4837C52.0658 78.4837 52.1871 77.8769 52.1871 75.4496C52.1871 73.0223 52.0658 72.4154 51.5803 72.4154C51.0949 72.4154 50.9735 73.0223 50.9735 75.4496ZM48.6105 73.1764C48.2537 73.4025 48.0352 74.5345 47.9725 76.4844C47.9135 78.3154 47.6958 79.5088 47.4025 79.6067C46.2831 79.9797 47.0712 80.5064 48.7485 80.5064C50.0637 80.5064 50.5689 80.3446 50.5689 79.9235C50.5689 79.6027 50.3869 79.2281 50.1644 79.0905C49.9419 78.953 49.7598 77.4861 49.7598 75.8302C49.7598 72.824 49.632 72.5287 48.6105 73.1764ZM44.9052 76.4609C44.9052 78.6184 44.995 78.8882 45.7143 78.8882C46.4336 78.8882 46.5234 78.6184 46.5234 76.4609C46.5234 74.3035 46.4336 74.0336 45.7143 74.0336C44.995 74.0336 44.9052 74.3035 44.9052 76.4609ZM93.8559 79.0666C93.8559 81.263 94.3106 82.6235 94.8572 82.064C95.1521 81.7626 94.5352 76.4609 94.205 76.4609C94.0129 76.4609 93.8559 77.6333 93.8559 79.0666ZM96.2181 80.5251C96.2933 81.85 96.4883 82.9338 96.651 82.9338C97.0616 82.9338 96.8646 78.9036 96.4325 78.4695C96.2335 78.2697 96.1404 79.1601 96.2181 80.5251ZM36.3809 82.7586C34.2829 85.1046 32.5207 87.1508 32.4653 87.3053C32.3176 87.7139 35.1305 87.5436 37.0399 87.0282C37.9429 86.7847 39.1112 86.0913 39.6364 85.4873C40.4491 84.5528 40.5866 83.9763 40.5608 81.6088C40.5438 80.0797 40.4548 78.7531 40.3625 78.6609C40.2707 78.5686 38.4785 80.4126 36.3809 82.7586ZM143.616 78.9121C143.616 79.1476 143.798 79.2281 144.02 79.0905C144.243 78.953 144.425 78.7604 144.425 78.6621C144.425 78.5638 144.243 78.4837 144.02 78.4837C143.798 78.4837 143.616 78.6767 143.616 78.9121ZM139.484 79.1095C139.362 79.2309 137.921 79.5905 136.281 79.9089L133.3 80.487L136.025 80.3102C138.402 80.1561 142.112 78.9489 140.346 78.9044C139.993 78.8955 139.605 78.9878 139.484 79.1095ZM75.2097 85.6499L72.5434 88.3952L79.7609 88.5335C86.8272 88.6695 86.9785 88.6549 86.9785 87.8377C86.9785 86.563 83.1062 84.8513 80.7076 85.0657C78.8418 85.2324 78.2823 84.933 78.021 83.6272C77.9089 83.0693 77.2689 83.5301 75.2097 85.6499ZM88.8407 85.5908C86.5825 88.5489 86.6982 88.5987 95.8208 88.5894L103.767 88.5817L99.3174 86.7365C93.4797 84.3165 91.8845 83.7429 90.9917 83.7429C90.5847 83.7429 89.617 84.5746 88.8407 85.5908ZM83.7421 84.4771C83.7421 84.7482 86.2621 86.1702 86.7427 86.1702C86.8208 86.1702 86.9713 85.715 87.0777 85.1588C87.2597 84.2049 87.1703 84.1474 85.5064 84.1474C84.5363 84.1474 83.7421 84.2959 83.7421 84.4771ZM87.7877 85.1588C87.4972 85.5087 87.4579 85.7656 87.695 85.7656C87.9207 85.7656 88.2104 85.4925 88.3387 85.1588C88.4665 84.825 88.5082 84.552 88.4313 84.552C88.3544 84.552 88.0648 84.825 87.7877 85.1588ZM72.4147 86.8765C71.6303 87.6557 71.3596 88.0991 71.8079 87.8705C72.7509 87.3899 74.7562 85.3352 74.2044 85.4153C73.9989 85.4452 73.1935 86.1026 72.4147 86.8765ZM60.9861 88.0238C60.8195 88.1909 60.6827 92.9177 60.6827 98.5272V108.727L61.7952 109.151C62.4069 109.385 64.4552 109.78 66.3464 110.029C68.2377 110.279 70.3313 110.641 70.9988 110.834C71.6663 111.027 72.8953 111.299 73.7295 111.439C75.1996 111.686 75.2466 111.656 75.2466 110.49C75.2466 109.549 75.4456 109.257 76.1568 109.157C77.0541 109.029 77.0687 108.932 77.1779 102.251L77.2887 95.4748H75.6697H74.0507L73.9407 103.06C73.8343 110.382 73.8023 110.641 73.0215 110.535C67.2276 109.741 62.1525 108.838 61.8652 108.551C61.6678 108.354 61.4574 103.586 61.398 97.956C61.3381 92.3262 61.1528 87.8567 60.9861 88.0238ZM42.433 91.4293C42.3201 97.5304 42.1603 97.093 44.5007 97.093H46.5234V93.0475V89.002H44.5007H42.4779L42.433 91.4293ZM87.6715 99.2169C87.7282 105.623 87.9038 109.045 88.1772 109.078C88.4082 109.106 88.7788 109.151 89.0013 109.179C89.2238 109.207 89.4059 109.594 89.4059 110.039C89.4059 110.92 90.0912 110.847 80.5057 110.992C77.385 111.039 76.6625 111.164 76.6625 111.657C76.6625 112.174 77.7414 112.264 83.9444 112.264C91.1879 112.264 91.2271 112.259 91.3558 111.353C91.4816 110.468 91.6143 110.443 96.3115 110.443H101.138V99.9249V89.4066H94.3616H87.5854L87.6715 99.2169ZM77.7058 92.1373C77.7232 92.9719 77.8296 93.427 77.9417 93.1487C78.0857 92.7923 79.3172 92.643 82.1106 92.643C85.6953 92.643 86.0946 92.5677 86.2807 91.8573C86.3936 91.4253 86.3843 90.9702 86.2605 90.846C86.1363 90.7218 84.1536 90.6202 81.8541 90.6202H77.6739L77.7058 92.1373ZM78.7528 93.7219C78.0173 94.457 78.8094 94.6366 82.4273 94.5537L86.3717 94.4635V101.24C86.3717 104.967 86.5085 108.016 86.6751 108.016C86.8418 108.016 86.9785 104.739 86.9785 100.734V93.4521H83.0006C80.8124 93.4521 78.9009 93.5735 78.7528 93.7219ZM83.7421 101.115C83.7421 104.439 83.9076 107.261 84.1103 107.386C84.3126 107.511 84.7677 107.503 85.1217 107.367C85.6698 107.157 85.7649 106.229 85.7649 101.095V95.0703H84.7535H83.7421V101.115ZM78.7714 95.7261C78.4211 96.076 78.383 106.071 78.7285 106.971C78.8637 107.323 79.2965 107.611 79.6906 107.611C81.1235 107.611 81.3427 106.679 81.2258 101.083L81.1126 95.6771L80.0862 95.5574C79.5215 95.4914 78.9296 95.5675 78.7714 95.7261ZM81.7194 101.745C81.7194 107.448 81.7837 108.016 82.4273 108.016C83.0762 108.017 83.1252 107.495 83.0144 101.746C82.9148 96.591 82.789 95.4748 82.3064 95.4748C81.8185 95.4748 81.7194 96.5352 81.7194 101.745ZM35.0576 100.198C34.1336 101.122 35.0144 101.471 38.9381 101.736C41.219 101.89 45.7151 102.258 48.9297 102.555C53.9405 103.018 54.892 103.013 55.5939 102.521C56.3989 101.957 56.3993 101.948 55.6149 101.949C52.6006 101.954 36.122 100.575 35.7656 100.288C35.5225 100.092 35.2041 100.052 35.0576 100.198ZM75.9157 109.938C75.7061 110.276 88.583 110.187 88.922 109.849C89.0397 109.73 86.2038 109.634 82.6199 109.634C79.0356 109.634 76.0189 109.77 75.9157 109.938Z" fill="black"/>
</svg>
