<svg width="480" height="142" viewBox="0 0 480 142" fill="none" xmlns="http://www.w3.org/2000/svg">
<g clip-path="url(#clip0_2139_2263)">
<path fill-rule="evenodd" clip-rule="evenodd" d="M362.921 0.549333C361.809 1.0046 352.687 1.41989 341.825 1.50922C327.47 1.62754 322.608 1.90806 322.366 2.63288C322.174 3.20646 320.621 3.59904 318.544 3.59904C310.596 3.59904 306.375 9.24318 308.915 16.4725C309.697 18.6971 309.137 20.1616 301.503 35.8521L293.244 52.8244L281.933 52.6991C271.883 52.587 270.442 52.7359 269.005 54.0366C267.003 55.8483 265.321 60.8468 263.958 69.0281L262.915 75.2968L259.147 75.5397C256.252 75.7262 254.992 75.4237 253.711 74.2366C252.795 73.3872 251.162 72.5723 250.085 72.4273C248.305 72.1868 248.077 71.7197 247.591 67.3121C246.765 59.825 244.387 56.7377 239.329 56.5817L236.372 56.4908L236.133 60.216C235.918 63.5721 236.089 64.0148 237.854 64.6863C239.277 65.227 239.964 66.2292 240.361 68.3456C240.831 70.85 240.644 71.4604 239.032 72.682C235.302 75.5099 234.468 76.7378 233.862 80.2968C232.992 85.405 233.388 100.78 234.582 108.207L235.589 114.476L240.29 114.67C247.345 114.961 250.085 115.574 250.085 116.862C250.085 117.817 247.815 118.002 236.098 118.002H222.111L218.895 120.332C214.926 123.207 213.389 127.627 214.763 132.214C215.684 135.287 219.275 138.876 222.132 139.577C223.069 139.807 245.936 139.895 272.947 139.773C321.362 139.554 322.092 139.527 324.272 137.913C330.358 133.406 329.944 123.259 323.532 119.793C321.549 118.721 318.575 118.362 309.833 118.14C301.373 117.924 298.667 117.609 298.667 116.842C298.667 116.212 300.352 115.574 303.126 115.153L307.584 114.476L308.972 107.424C309.736 103.545 310.374 99.2446 310.39 97.8671C310.418 95.5728 311.732 90.1057 318.307 64.9237C319.572 60.0804 320.615 54.7912 320.625 53.17C320.635 51.5488 321.727 46.3434 323.053 41.6028C324.378 36.8621 325.835 31.5032 326.292 29.6931C326.967 27.0172 327.495 26.359 329.122 26.167C330.515 26.0032 331.262 25.3356 331.58 23.9722C331.992 22.2021 332.523 21.9654 337.095 21.5203C339.879 21.2492 346.31 20.8966 351.387 20.7368L360.619 20.4461L367.264 37.1567C370.919 46.3481 373.708 54.1942 373.462 54.5914C373.216 54.9895 371.648 55.3155 369.978 55.3155C366.308 55.3155 363.486 56.3114 359.621 58.9709C357.36 60.5263 356.446 61.8928 355.507 65.1204C354.844 67.4022 354.301 70.1557 354.301 71.2386C354.301 72.3215 353.861 73.3715 353.322 73.5729C351.482 74.2586 355.307 77.0904 360.962 79.2288C368.328 82.0145 377.249 82.6828 382.139 80.8156C386.904 78.9961 388.113 76.9831 387.874 71.2668C387.769 68.7429 388.482 62.2697 389.459 56.8826C390.436 51.4955 391.082 46.2823 390.895 45.2974C390.707 44.3132 390.736 43.6902 390.96 43.9143C391.566 44.5208 393.427 41.8042 393.455 40.2707C393.469 39.538 393.02 38.6565 392.459 38.3117C391.381 37.6512 387.832 29.8968 387.688 27.8901C387.641 27.2436 386.382 23.5412 384.888 19.6625C382.625 13.784 381.452 11.9089 377.836 8.39691C369.756 0.547765 366.766 -1.02566 362.921 0.549333ZM322.998 3.52381C322.381 4.67568 321.313 5.0228 318.302 5.04553C313.523 5.08314 311.599 6.04773 309.951 9.23456C308.9 11.268 308.836 12.2059 309.584 14.6993C310.583 18.0342 312.565 19.6327 316.689 20.4312C318.198 20.7234 320.137 21.7868 320.999 22.7944C322.125 24.1109 323.695 24.7495 326.577 25.0629L330.586 25.4986L331.049 22.1276C331.302 20.2729 331.754 14.9931 332.052 10.3943L332.592 2.03187H328.194C324.673 2.03187 323.637 2.32885 322.998 3.52381ZM343.527 2.58508C340.52 3.16415 341.588 4.3834 345.094 4.37165C349.09 4.35911 351.951 3.67191 351.951 2.72378C351.951 2.03109 346.842 1.94646 343.527 2.58508ZM352.734 2.81545C352.734 3.24642 354.674 3.59904 357.044 3.59904C359.414 3.59904 361.354 3.24642 361.354 2.81545C361.354 2.38448 359.414 2.03187 357.044 2.03187C354.674 2.03187 352.734 2.38448 352.734 2.81545ZM364.295 3.40314C363.625 4.15773 362.73 6.05321 362.305 7.61568C361.538 10.4397 361.552 10.4624 364.502 11.3463C366.134 11.8353 368.295 12.9033 369.302 13.7198C371.091 15.1678 371.101 15.2415 369.689 16.8008C368.894 17.6792 367.222 18.6227 365.974 18.8969C363.32 19.4799 363.325 19.447 364.978 24.2966C366.37 28.3822 365.792 28.2419 373.107 26.272C375.047 25.7501 376.903 25.0841 377.233 24.7918C377.563 24.5003 377.115 20.7697 376.236 16.5015C374.553 8.32012 372.911 5.57288 368.249 3.13751C365.619 1.76389 365.761 1.7537 364.295 3.40314ZM333.928 3.59904C333.928 4.03001 335.515 4.38262 337.454 4.38262C339.394 4.38262 340.98 4.03001 340.98 3.59904C340.98 3.16807 339.394 2.81545 337.454 2.81545C335.515 2.81545 333.928 3.16807 333.928 3.59904ZM322.958 5.06669C322.958 5.44281 321.165 5.92236 318.975 6.13314C314.035 6.60799 311.674 8.6837 311.674 12.5538C311.674 15.848 313.632 18.2081 316.967 18.9369C318.322 19.2323 320.273 20.1342 321.301 20.9397C322.461 21.8494 324.436 22.405 326.51 22.405H329.851L330.355 16.724C330.632 13.5999 331.043 9.76975 331.269 8.21277C331.656 5.53997 331.54 5.35426 329.18 4.88254C325.67 4.18045 322.958 4.26116 322.958 5.06669ZM349.6 4.89351C348.091 5.03691 343.86 5.39344 340.197 5.6865L333.536 6.21855L344.647 7.54594C350.758 8.27624 356.372 9.10919 357.121 9.39754C358.7 10.0033 359.757 8.70642 359.775 6.14568C359.786 4.5456 359.442 4.39437 356.064 4.50799C354.017 4.57695 351.108 4.7509 349.6 4.89351ZM322.958 6.34157C322.367 7.05307 320.652 7.51695 318.608 7.51695C314.53 7.51695 312.771 9.03161 312.771 12.5444C312.771 15.4789 314.444 17.3211 317.865 18.1541C319.158 18.4683 321.056 19.3772 322.084 20.1734C323.112 20.9703 325.089 21.6214 326.478 21.6214C328.994 21.6214 329.005 21.6042 329.507 16.8047C329.784 14.1562 330.01 10.674 330.01 9.06687C330.01 6.42228 329.778 6.09945 327.562 5.65594C324.209 4.98519 324.066 5.00713 322.958 6.34157ZM339.267 8.83571C339.832 9.06217 340.508 9.03396 340.768 8.77381C341.028 8.51366 340.566 8.32874 339.74 8.36243C338.827 8.40005 338.641 8.58575 339.267 8.83571ZM375.491 8.33971C375.51 8.53325 376.035 10.6317 376.659 13.002L377.794 17.3117L377.345 13.3938C377.098 11.239 376.572 9.14131 376.177 8.7315C375.782 8.32169 375.473 8.14538 375.491 8.33971ZM346.27 9.63732C347.24 9.82381 348.826 9.82381 349.796 9.63732C350.766 9.45004 349.972 9.29725 348.033 9.29725C346.093 9.29725 345.3 9.45004 346.27 9.63732ZM333.145 10.8229C333.145 11.4701 332.917 13.6618 332.638 15.6928L332.132 19.3859L342.629 18.8193C350.415 18.3993 354.036 17.854 356.652 16.706C360.155 15.1686 360.166 15.1522 358.219 14.2761C357.142 13.7911 355.379 12.7991 354.301 12.0727C351.477 10.1678 333.145 9.0849 333.145 10.8229ZM315.645 11.1739C315.357 11.4607 315.122 12.3422 315.122 13.1329C315.122 14.1429 315.704 14.5692 317.081 14.5692C318.648 14.5692 319.04 14.1774 319.04 12.6102C319.04 11.2327 318.614 10.6513 317.604 10.6513C316.813 10.6513 315.932 10.8863 315.645 11.1739ZM355.868 11.2899C355.868 11.7538 356.812 12.593 357.965 13.1548C360.992 14.6311 361.112 16.0674 358.298 17.1299C352.264 19.4078 358.753 19.8537 366.299 17.68C370.139 16.5736 369.898 14.7118 365.653 12.698C361.926 10.9302 355.868 10.0589 355.868 11.2899ZM378.825 14.4289C379.345 18.853 383.523 28.6737 384.885 28.6737C386.766 28.6737 386.406 25.9382 383.653 19.2942C382.042 15.4084 380.186 11.7859 379.53 11.2437C378.476 10.3762 378.393 10.7531 378.825 14.4289ZM315.906 12.6102C315.906 13.2567 316.435 13.7856 317.081 13.7856C317.728 13.7856 318.257 13.2567 318.257 12.6102C318.257 11.9638 317.728 11.4349 317.081 11.4349C316.435 11.4349 315.906 11.9638 315.906 12.6102ZM363.443 13.5247C362.313 14.6554 362.954 16.9199 364.404 16.9199C366.195 16.9199 367.055 15.0989 365.837 13.8812C364.831 12.8751 364.189 12.7795 363.443 13.5247ZM363.704 15.3528C363.704 15.7837 364.057 16.1363 364.488 16.1363C364.919 16.1363 365.271 15.7837 365.271 15.3528C365.271 14.9218 364.919 14.5692 364.488 14.5692C364.057 14.5692 363.704 14.9218 363.704 15.3528ZM377.962 19.6625C377.977 20.9554 378.153 21.3895 378.352 20.6271C378.551 19.8646 378.538 18.8068 378.323 18.2763C378.108 17.7458 377.946 18.3696 377.962 19.6625ZM350.188 19.8239C351.158 20.0104 352.744 20.0104 353.714 19.8239C354.684 19.6366 353.89 19.4838 351.951 19.4838C350.011 19.4838 349.217 19.6366 350.188 19.8239ZM310.639 22.8305C309.02 26.2242 309.549 27.2138 313.921 28.9706C318.273 30.7188 319.049 30.2259 319.271 25.5691L319.432 22.2224L315.647 21.2437L311.863 20.2643L310.639 22.8305ZM333.742 20.6083C334.716 20.7955 336.127 20.7885 336.876 20.5926C337.625 20.3967 336.827 20.2431 335.104 20.2517C333.38 20.2603 332.767 20.421 333.742 20.6083ZM362.988 23.1886C362.964 23.835 363.287 24.8929 363.704 25.5393C364.63 26.9717 364.63 25.7344 363.704 23.5804C363.26 22.5468 363.016 22.4136 362.988 23.1886ZM378.716 24.7558C378.716 25.8332 378.894 26.2743 379.111 25.7352C379.329 25.1969 379.329 24.3154 379.111 23.7763C378.894 23.238 378.716 23.6783 378.716 24.7558ZM380.943 25.5009C380.943 27.7921 385.894 55.7652 386.398 56.3231C387.144 57.149 389.883 43.9308 389.196 42.8189C388.9 42.3386 388.549 40.7902 388.418 39.3766C388.286 37.963 387.436 35.3498 386.528 33.5695C384.256 29.1172 380.943 24.3303 380.943 25.5009ZM317.939 38.4935C314.152 51.7321 313.574 55.9768 316.075 52.1811C317.392 50.1822 323.742 29.1924 323.742 26.8369C323.742 26.1231 323.27 25.5393 322.694 25.5393C322.011 25.5393 320.356 30.0481 317.939 38.4935ZM324.936 27.3862C324.71 28.0946 324.36 29.2026 324.158 29.849C323.956 30.4955 324.091 31.0244 324.459 31.0244C324.825 31.0244 325.313 30.0551 325.54 28.8696C326.003 26.4577 325.57 25.3944 324.936 27.3862ZM305.667 32.6958C304.332 35.3396 303.412 38.1605 303.623 38.9644C303.838 39.7856 303.597 40.4274 303.075 40.4274C302.322 40.4274 296.316 51.2314 296.316 52.5862C296.316 52.7939 297.15 52.9647 298.169 52.9647C300.992 52.9647 303.879 55.7072 305.396 59.8297C306.147 61.8717 306.996 63.8181 307.282 64.1543C307.569 64.4904 308.97 60.788 310.395 55.9266C311.819 51.0653 313.137 46.6835 313.323 46.1899C313.508 45.6962 311.664 44.3484 309.225 43.1942C306.786 42.04 304.964 40.9218 305.176 40.7087C305.389 40.4963 307.343 41.2235 309.518 42.326C311.692 43.4277 313.629 44.0687 313.821 43.7498C314.863 42.0173 317.397 32.3189 316.983 31.6489C316.417 30.7337 310.487 27.9324 309.06 27.9073C308.528 27.8979 307.001 30.0528 305.667 32.6958ZM364.93 28.9033C365.224 29.6759 365.662 30.1108 365.904 29.8694C366.145 29.6289 365.905 28.9965 365.369 28.4645C364.594 27.6965 364.505 27.7867 364.93 28.9033ZM371.344 29.1438C369.297 29.773 367.621 30.5417 367.618 30.852C367.616 31.1623 368.721 34.1681 370.074 37.5321C371.703 41.5816 372.878 43.5171 373.549 43.2593C374.107 43.0453 375.822 42.634 377.361 42.3448C379.882 41.8723 380.16 41.5699 380.16 39.2951C380.16 37.9066 379.758 34.7731 379.268 32.3306C378.259 27.304 377.855 27.1418 371.344 29.1438ZM385.645 28.9683C385.645 29.8146 389.678 38.2232 389.952 37.9481C390.434 37.4662 386.914 28.7027 386.232 28.687C385.909 28.6799 385.645 28.8061 385.645 28.9683ZM323.565 32.2444C323.309 32.6574 322.888 34.4032 322.629 36.124L322.158 39.252L323.355 36.1569C324.477 33.2537 324.623 30.5308 323.565 32.2444ZM389.563 40.4274C389.563 41.4719 390.085 41.9946 391.13 41.9946C392.174 41.9946 392.697 41.4719 392.697 40.4274C392.697 39.3829 392.174 38.8602 391.13 38.8602C390.085 38.8602 389.563 39.3829 389.563 40.4274ZM319.879 44.7442C318.128 50.4118 317.853 52.5228 318.954 51.8426C319.824 51.3051 322.519 40.5112 321.931 39.9228C321.694 39.6861 320.771 41.8559 319.879 44.7442ZM377.221 44.6642C375.39 45.085 373.891 45.7667 373.891 46.1781C373.891 46.5903 374.645 48.9974 375.569 51.5276L377.246 56.1288L380.074 55.6179C381.63 55.3374 383.008 55.0193 383.137 54.9111C383.552 54.5648 381.583 44.3461 381.058 44.1181C380.779 43.9974 379.052 44.2434 377.221 44.6642ZM389.624 48.72C389.662 49.6329 389.848 49.8186 390.098 49.1941C390.324 48.6284 390.296 47.9521 390.036 47.692C389.776 47.4318 389.591 47.8941 389.624 48.72ZM316.443 52.7665C316.254 53.0909 314.65 57.982 312.877 63.6363C309.764 73.5659 309.679 74.112 310.405 79.6998C310.818 82.8803 311.184 85.836 311.218 86.267C311.377 88.2964 319.824 57.2431 319.824 54.6275C319.824 53.5837 316.901 51.9758 316.443 52.7665ZM269.405 54.9135C267.77 56.548 265.754 62.9922 264.663 70.0687L263.736 76.0804L259.022 76.31C255.09 76.5012 254.065 76.2731 252.858 74.9387C251.64 73.5933 250.456 73.3378 245.437 73.3378C238.417 73.3378 236.418 74.3784 235.231 78.6498C233.959 83.2345 234.174 85.0916 235.98 85.0916C237.249 85.0916 237.548 84.5689 237.548 82.349V79.6065H244.945H252.341L252.585 82.389C252.816 85.0508 253.049 85.2499 257.921 86.9643C260.722 87.9501 266.206 90.3698 270.109 92.3405C281.496 98.0912 287.152 99.5134 298.796 99.5534C304.255 99.5722 308.978 99.3308 309.293 99.0158C309.786 98.5245 309.795 93.3842 309.339 73.9937C309.292 71.9838 309.047 70.6744 308.794 71.0835C308.542 71.4917 307.684 69.6096 306.89 66.9007C304.98 60.3939 302.999 56.4775 300.854 54.9754C298.333 53.21 271.162 53.1559 269.405 54.9135ZM312.914 57.8088C312.449 59.6416 312.203 61.2769 312.368 61.4423C312.533 61.6068 313.068 60.2606 313.555 58.4498C314.042 56.6389 314.288 55.0036 314.1 54.8163C313.913 54.629 313.38 55.9752 312.914 57.8088ZM270.206 55.9031C269.024 57.9138 264.851 77.4446 265.257 79.0619C265.815 81.2888 269.464 83.0026 275.533 83.888C282.66 84.9278 287.766 88.6749 288.863 93.6687C289.461 96.3947 291.838 96.9973 301.11 96.7732C305.625 96.6651 307.539 96.3156 307.834 95.5469C308.72 93.2393 305.96 71.7864 303.415 61.1923C302.069 55.5889 301.209 55.3155 284.914 55.3155C277.014 55.3155 270.395 55.5803 270.206 55.9031ZM371.45 57.982C370.422 59.4489 367.143 63.8565 364.163 67.7768C359.429 74.0039 358.439 74.9097 356.327 74.9395L353.91 74.974L356.976 76.5913L360.043 78.2086L361.286 76.6132C374.159 60.089 376.47 56.7236 375.406 56.0497C373.715 54.9801 373.472 55.0984 371.45 57.982ZM275.319 56.6773L279.788 56.9586L280.066 61.8184L280.343 66.6774L280.493 61.8051L280.645 56.932L289.852 56.6844C295.39 56.5347 293.438 56.4281 284.954 56.4156C277.197 56.4046 272.861 56.5222 275.319 56.6773ZM363.301 57.7485C361.583 58.6559 359.438 60.0773 358.534 60.9079C356.804 62.4962 354.704 69.608 355.202 72.193C355.85 75.5546 358.01 74.0979 364.208 66.1203C367.654 61.686 370.734 57.6176 371.053 57.0785C372.017 55.4502 366.798 55.9016 363.301 57.7485ZM379.014 56.834C378.764 57.2384 379.889 57.6795 381.514 57.8135C384.278 58.0423 384.468 58.2225 384.461 60.607C384.457 62.0096 384.81 63.0392 385.245 62.8966C386.633 62.4406 386.602 59.1574 385.194 57.602C383.784 56.0426 379.808 55.549 379.014 56.834ZM238.206 60.1078C238.375 61.8819 239.177 63.9975 239.989 64.8093C240.951 65.7708 241.465 67.3959 241.465 69.4693C241.465 72.5895 241.516 72.6483 244.012 72.4077C246.36 72.1821 246.578 71.9219 246.81 69.09C247.165 64.7506 244.967 59.463 242.217 58.0415C238.54 56.1398 237.86 56.49 238.206 60.1078ZM272.524 58.2774C271.858 59.3533 268.107 75.3187 268.107 77.074C268.107 77.9304 268.548 78.9859 269.087 79.42C270.244 80.3525 277.712 82.0168 278.263 81.4659C278.473 81.2567 278.653 75.9041 278.664 69.5719L278.686 58.058L275.82 57.819C274.243 57.6881 272.76 57.8942 272.524 58.2774ZM281.951 58.1889C281.663 58.4756 281.428 64.0798 281.428 70.6408C281.428 82.3914 281.455 82.5778 283.208 83.0174C285.779 83.6631 289.815 87.8898 290.848 91.0178L291.736 93.711H298.444H305.15L304.613 86.0711C303.995 77.302 301.997 63.7695 300.89 60.8554C300.475 59.7654 299.718 58.6073 299.205 58.2821C298.056 57.551 282.672 57.468 281.951 58.1889ZM368.908 67.9045C364.667 73.5361 361.335 78.2815 361.504 78.4507C362.396 79.3424 371.643 81.1737 375.256 81.1737C382.409 81.1737 387.235 78.015 387.195 73.359C387.167 70.1745 384.249 64.5876 380.739 60.9964C378.947 59.1644 377.289 57.6662 377.051 57.6662C376.813 57.6662 373.149 62.2737 368.908 67.9045ZM387.274 58.9066C387.311 59.8195 387.497 60.0052 387.747 59.3807C387.973 58.8149 387.945 58.1387 387.685 57.8786C387.425 57.6184 387.24 58.0807 387.274 58.9066ZM137.11 58.8439C136.518 59.4434 116.172 61.5966 108.257 61.8975C102.779 62.106 95.6683 63.8424 90.6259 66.2033C88.9021 67.0104 84.9379 68.837 81.8161 70.2615C78.6136 71.7229 75.9448 73.4695 75.6909 74.2703C75.4433 75.05 74.7357 75.6886 74.1182 75.6886C72.8175 75.6886 72.6639 77.8489 73.7593 80.7309C74.2326 81.9753 75.1283 82.7408 76.1101 82.7408C76.983 82.7408 77.6984 83.0057 77.7 83.3285C77.7023 83.6514 78.7531 89.558 80.0358 96.4535C81.3178 103.349 82.374 109.608 82.3827 110.362C82.396 111.555 81.5834 111.733 76.1297 111.733C70.111 111.733 69.861 111.805 69.861 113.536C69.861 114.527 70.2536 115.73 70.7331 116.21C72.3528 117.83 70.5756 118.786 65.9462 118.786H61.3411L61.0951 99.3551C60.755 72.4352 61.4626 73.2556 38.1259 72.7314C10.7617 72.1155 4.29714 73.9381 1.52326 83.0472C0.356503 86.8821 0.108109 90.8619 0.0242659 107.086C-0.0681968 124.987 0.0438566 126.734 1.43707 129.12C3.59035 132.806 5.83531 133.649 13.5434 133.662C18.6069 133.671 20.5478 133.379 21.2789 132.498C22.7019 130.784 23.5646 131.048 24.4822 133.478C26.409 138.577 32.271 142.146 37.0117 141.104C40.2628 140.391 44.5623 136.476 45.179 133.669C45.6217 131.656 45.8607 131.491 47.1614 132.304C48.3102 133.021 49.2818 132.996 51.5064 132.192C53.8571 131.342 54.712 131.338 56.2674 132.17C57.8189 133.001 58.6723 133.001 60.9689 132.17C63.2648 131.34 64.1189 131.34 65.6704 132.17C67.2015 132.99 68.0878 132.996 70.281 132.203C72.4602 131.415 73.536 131.417 75.7371 132.213C77.8708 132.984 78.6881 132.996 79.4199 132.264C80.6016 131.082 83.6967 131.038 84.4106 132.193C84.7256 132.703 86.0451 132.885 87.5998 132.632C90.05 132.235 90.3674 132.431 91.7833 135.206C93.7932 139.145 99.0322 141.841 103.168 141.065C106.859 140.373 110.27 137.462 111.399 134.04C111.892 132.545 112.76 131.323 113.327 131.323C113.894 131.323 114.56 130.794 114.809 130.148C115.056 129.501 116.19 128.972 117.327 128.972C118.843 128.972 119.274 129.286 118.943 130.148C118.641 130.935 118.978 131.323 119.965 131.323C120.932 131.323 122.015 132.517 123.122 134.802C127.351 143.539 139.589 143.058 142.855 134.027C143.392 132.54 144.026 131.332 144.263 131.343C144.5 131.354 145.336 132.76 146.124 134.466C150.222 143.357 162.197 143.358 165.754 134.467C167.249 130.734 168.28 130.469 168.977 133.641C169.632 136.626 174.059 140.505 177.561 141.162C182.579 142.103 189.749 137.05 189.749 132.574C189.749 131.846 190.404 131.323 191.316 131.323C193.571 131.323 193.374 127.707 190.924 124.102C189.744 122.364 188.965 120.114 188.965 118.435C188.965 115.669 188.987 115.651 192.408 115.651C195.798 115.651 196.946 114.769 196.229 112.713C196.041 112.175 194.907 111.733 193.71 111.733C191.236 111.733 191.233 112.916 193.744 99.1961C196.822 82.3725 196.709 82.7408 198.836 82.7408C201.976 82.7408 203.72 76.2465 200.786 75.4786C199.96 75.2631 199.167 74.2883 199.023 73.3128C198.879 72.3372 198.231 71.2982 197.585 71.0036C196.938 70.7089 195.235 69.8791 193.799 69.1606C192.364 68.4412 190.052 67.8528 188.662 67.8528C187.198 67.8528 185.019 67.0292 183.48 65.8938C181.923 64.7451 179.765 63.9349 178.264 63.9349C176.855 63.9349 173.98 63.2563 171.876 62.4265C169.308 61.4141 167.013 61.056 164.907 61.3388C163.002 61.5943 161.028 61.3522 159.89 60.723C158.804 60.1227 155.373 59.662 151.745 59.6299C148.298 59.5985 143.714 59.2882 141.559 58.9395C139.404 58.5916 137.402 58.5485 137.11 58.8439ZM236.946 60.8005C236.946 62.3089 237.107 62.9264 237.304 62.1718C237.501 61.4172 237.501 60.1838 237.304 59.4293C237.107 58.6747 236.946 59.2921 236.946 60.8005ZM270.163 59.6557C269.895 60.3555 269.705 61.5167 269.742 62.2361C269.779 62.9546 270.12 62.5033 270.5 61.2315C271.238 58.7585 270.977 57.5346 270.163 59.6557ZM310.126 59.6557C309.857 60.3555 309.66 61.3404 309.686 61.8443C309.714 62.3473 310.074 61.9148 310.487 60.8828C310.9 59.85 311.098 58.8659 310.926 58.6943C310.755 58.5227 310.394 58.9552 310.126 59.6557ZM380.943 59.1378C380.943 60.1251 383.243 61.896 383.802 61.3381C384.604 60.5357 383.406 58.4498 382.143 58.4498C381.483 58.4498 380.943 58.7593 380.943 59.1378ZM131.764 60.7896C122.642 62.1397 110.179 63.2516 108.282 62.8841C106.24 62.4884 94.8024 65.4307 90.6259 67.4265C89.333 68.0447 85.7192 69.6801 82.5942 71.06C71.827 75.8171 70.6203 75.7191 137.445 75.4974C196.221 75.3023 197.977 75.2537 197.977 73.815C197.977 73.0001 197.448 72.0896 196.801 71.7926C196.155 71.4949 194.47 70.6737 193.057 69.9677C191.571 69.2248 189.585 68.8652 188.345 69.1128C186.725 69.4372 185.458 68.9521 183.165 67.1303C180.944 65.3649 179.309 64.7184 177.065 64.7184C175.379 64.7184 172.902 64.1511 171.561 63.4569C169.942 62.62 168.058 62.3379 165.96 62.6192C164.02 62.8794 161.727 62.5949 160.022 61.8834C158.356 61.1876 155.204 60.7825 152.144 60.8718C149.339 60.9533 144.576 60.8248 141.559 60.5858C138.542 60.3468 134.134 60.4385 131.764 60.7896ZM310.421 65.502C309.266 69.7898 309.878 70.4018 311.133 66.2143C311.663 64.4458 311.919 62.8214 311.702 62.6043C311.485 62.3873 310.908 63.6912 310.421 65.502ZM308.462 65.502C308.164 66.8568 308.097 68.1411 308.313 68.3566C308.528 68.5721 308.948 67.6404 309.245 66.2856C309.543 64.9308 309.61 63.6465 309.394 63.431C309.179 63.2155 308.76 64.1472 308.462 65.502ZM268.953 65.1753C268.99 66.0881 269.176 66.2739 269.426 65.6493C269.653 65.0836 269.624 64.4074 269.364 64.1472C269.104 63.8871 268.919 64.3494 268.953 65.1753ZM268.169 68.3096C268.207 69.2225 268.393 69.4082 268.642 68.7837C268.869 68.2179 268.841 67.5417 268.581 67.2815C268.32 67.0214 268.135 67.4837 268.169 68.3096ZM267.386 71.4439C267.423 72.3568 267.609 72.5425 267.859 71.918C268.085 71.3523 268.057 70.676 267.797 70.4159C267.537 70.1557 267.352 70.618 267.386 71.4439ZM266.602 74.5782C266.64 75.4911 266.825 75.6768 267.075 75.0523C267.302 74.4866 267.274 73.8103 267.013 73.5502C266.753 73.29 266.568 73.7524 266.602 74.5782ZM12.2677 74.8172C10.9748 75.1283 18.0271 75.3947 27.9394 75.4096C37.8517 75.4245 48.2537 75.7051 51.055 76.0334C55.3232 76.5341 55.9838 76.4596 55.1312 75.5718C54.3359 74.7452 49.7951 74.4842 34.3663 74.3824C23.5051 74.3103 13.5606 74.5062 12.2677 74.8172ZM13.2472 77.0512L8.74162 77.3341L8.73613 89.6364C8.733 96.4026 8.50576 104.318 8.23072 107.228L7.73158 112.517H12.8358C16.3384 112.517 20.493 111.736 26.0745 110.031C32.7482 107.99 35.4383 107.558 41.0644 107.627L47.9207 107.709V92.5662C47.9207 79.4811 47.7522 77.3592 46.6811 76.9478C45.4187 76.4636 21.4333 76.5372 13.2472 77.0512ZM74.3227 76.9729C74.0469 77.2487 74.0093 77.7776 74.2381 78.1483C74.4677 78.5197 103.195 78.8229 138.079 78.8229C193.933 78.8229 201.503 78.6827 201.503 77.6475C201.503 76.6124 193.943 76.4722 138.164 76.4722C103.326 76.4722 74.5986 76.6979 74.3227 76.9729ZM265.818 77.396C265.785 78.1193 266.311 79.2649 266.988 79.9427C268.664 81.6187 269.424 81.5075 267.939 79.8024C267.282 79.0478 266.55 77.9022 266.312 77.2558C265.96 76.2959 265.869 76.3217 265.818 77.396ZM17.2059 77.9994C11.3227 79.1434 10.174 81.7645 10.4765 93.3537L10.7006 101.939L19.7259 102.158C26.228 102.315 29.1445 102.09 30.1561 101.35C31.3942 100.444 31.5556 99.0292 31.5172 89.4256C31.4851 81.5796 31.1975 78.3536 30.4899 77.9038C29.3099 77.1547 21.2523 77.2127 17.2059 77.9994ZM34.5998 78.8229C33.2066 80.2161 33.0327 81.4346 33.0327 89.7931C33.0327 98.3231 33.1862 99.3496 34.6907 100.854C36.0667 102.23 37.0148 102.449 40.2596 102.137C42.4098 101.93 44.4792 101.272 44.8577 100.675C45.2362 100.077 45.5512 95.112 45.5582 89.6418C45.5692 80.2451 45.4736 79.6277 43.8281 78.4758C41.3324 76.7268 36.5141 76.9086 34.5998 78.8229ZM48.7043 92.7574V108.478L51.2509 109.282C52.6512 109.725 55.1203 110.321 56.736 110.606L59.6744 111.125V95.9066C59.6744 84.8283 59.4033 80.3188 58.6777 79.326C58.0211 78.4288 56.1468 77.8043 53.1927 77.4995L48.7043 77.0364V92.7574ZM3.1633 81.5945C1.98557 84.2555 1.47468 87.6045 1.12912 94.9153L0.667586 104.681H3.82307C6.73016 104.681 7.01695 104.488 7.4683 102.232C7.73785 100.885 7.95803 96.5272 7.95803 92.5474C7.95803 78.1569 6.32897 74.4364 3.1633 81.5945ZM13.7338 80.6706C11.7459 82.3796 11.5602 83.0496 11.2452 89.645C11.0579 93.5652 11.1323 97.6814 11.4113 98.7925L11.9183 100.813L21.1042 100.592L30.2901 100.371L30.508 89.5972L30.7258 78.8229H23.3037C16.6354 78.8229 15.663 79.011 13.7338 80.6706ZM34.9415 79.8455C34.726 80.4081 34.6484 85.2569 34.7706 90.6197L34.9916 100.371L39.4972 100.606L44.0028 100.842V89.8322V78.8229H39.6688C36.826 78.8229 35.1993 79.1747 34.9415 79.8455ZM305.059 80.3901C305.059 81.4675 305.237 81.9087 305.454 81.3696C305.672 80.8312 305.672 79.9497 305.454 79.4106C305.237 78.8723 305.059 79.3127 305.059 80.3901ZM75.0303 80.2678C74.7592 80.7066 74.919 81.3014 75.3853 81.5898C76.5904 82.3342 77.3677 81.3147 76.3616 80.3086C75.799 79.746 75.361 79.7327 75.0303 80.2678ZM78.4804 81.4103C78.4804 84.6152 83.913 111.211 84.7358 112.033C85.9722 113.27 85.7709 111.548 82.7901 95.3878C81.2817 87.2088 80.0476 80.3125 80.0476 80.0618C80.0476 79.8118 79.695 79.6065 79.264 79.6065C78.833 79.6065 78.4804 80.4183 78.4804 81.4103ZM81.6147 81.893C81.6147 86.542 83.225 87.8521 93.0778 91.2184C105.766 95.554 117.975 95.0658 138.764 89.3919C153.714 85.3118 162.415 83.9789 169.376 84.7037C175.394 85.3298 182.542 87.5716 187.264 90.3126C189.129 91.3955 190.761 92.1626 190.888 92.0169C191.169 91.6972 192.883 81.8178 192.883 80.5217C192.883 79.8322 179.153 79.6065 137.249 79.6065H81.6147V81.893ZM194.176 80.9778C193.966 81.7324 192.652 88.787 191.257 96.6565C189.066 109.005 188.744 113.047 190.061 111.668C190.314 111.403 194.346 90.4967 195.83 81.7614C196.229 79.4098 194.799 78.7328 194.176 80.9778ZM197.585 80.7819C197.585 82.1006 198.261 82.2495 199.806 81.2708C200.639 80.7419 200.587 80.5068 199.545 80.1072C197.722 79.4075 197.585 79.4553 197.585 80.7819ZM238.186 91.5561C238.106 97.6978 237.913 100.908 237.756 98.6914C237.499 95.0525 237.313 94.703 235.839 95.0877C234.304 95.4897 234.238 95.8768 234.719 101.644C235 105.016 235.437 108.312 235.689 108.97C236.092 110.018 240.544 110.166 271.68 110.166H307.213L308.028 107.228C309.185 103.065 309.077 102.157 307.482 102.64C303.047 103.984 298.448 104.63 293.965 104.541L288.872 104.438L295.141 103.927C301.393 103.418 309.639 101.645 309.634 100.811C309.632 100.569 304.608 100.343 298.468 100.309C285.682 100.237 281.075 99.0495 267.897 92.4283C263.918 90.4293 258.812 88.1562 256.549 87.3765L252.436 85.9598V89.8205C252.436 93.4038 252.59 93.7125 254.59 94.1161C261.362 95.4842 270.052 97.777 271.149 98.4853C272.147 99.1295 272 99.1953 270.458 98.7917C260.564 96.2036 256.427 95.2891 254.59 95.2844C252.609 95.2789 252.436 95.5226 252.436 98.3169C252.436 102.746 251.304 103.333 244.474 102.435L238.723 101.68L244.797 101.809L250.872 101.939L250.87 91.1643L250.868 80.3901H244.6H238.331L238.186 91.5561ZM37.1465 82.5183C38.332 82.6977 40.2706 82.6977 41.4562 82.5183C42.6417 82.3389 41.6717 82.1923 39.3013 82.1923C36.931 82.1923 35.9609 82.3389 37.1465 82.5183ZM273.02 82.5003C273.782 82.6993 274.84 82.686 275.37 82.4713C275.901 82.2566 275.277 82.0944 273.984 82.1101C272.691 82.1257 272.257 82.3012 273.02 82.5003ZM278.686 83.4735C284.407 84.8659 288.513 88.4853 289.689 93.1711L290.218 95.2781H298.36H306.503L306.366 91.5561L306.229 87.8341L305.928 91.1933L305.626 94.5518L298.474 94.3277L291.322 94.1028L289.314 90.1849C287.791 87.2151 286.459 85.8399 283.809 84.5039C281.886 83.5338 279.418 82.7769 278.324 82.8208C276.467 82.896 276.49 82.9391 278.686 83.4735ZM240.29 83.9186C242.15 84.5611 250.085 84.7695 250.085 84.1764C250.085 83.8183 247.704 83.5526 244.796 83.5863C241.887 83.62 239.859 83.7697 240.29 83.9186ZM37.5383 84.8612C38.5075 85.0477 40.0951 85.0477 41.0644 84.8612C42.0337 84.6739 41.2407 84.5211 39.3013 84.5211C37.362 84.5211 36.569 84.6739 37.5383 84.8612ZM271.002 85.5923C270.054 86.5412 271.339 87.4423 273.639 87.4423C275.165 87.4423 275.943 87.045 275.943 86.267C275.943 85.0822 272.045 84.5501 271.002 85.5923ZM154.488 86.4229C153.41 86.607 146.711 88.3121 139.6 90.2123C124.637 94.2101 118.622 95.2703 110.999 95.2554C104.295 95.2421 93.7775 92.9987 87.5904 90.2617C85.0586 89.1419 82.9155 88.2259 82.8285 88.2259C82.7408 88.2259 82.8215 89.2594 83.0064 90.5218C83.3081 92.5724 84.2781 93.28 92.0779 97.1313C111.275 106.611 121.91 107.258 142.734 100.212C159.977 94.3786 171.418 94.6536 183.306 101.187C186.017 102.678 188.364 103.898 188.52 103.898C188.676 103.898 189.213 101.551 189.713 98.682C190.711 92.954 190.877 93.2996 185.831 90.6346C179.695 87.3937 172.68 85.8705 164.396 85.9817C160.024 86.0405 155.565 86.2395 154.488 86.4229ZM234.413 90.1112C234.413 93.9617 234.556 94.3104 235.98 93.9382C237.278 93.5989 237.548 92.8694 237.548 89.7014C237.548 86.3978 237.334 85.8752 235.98 85.8752C234.607 85.8752 234.413 86.3978 234.413 90.1112ZM272.613 86.3939C273.152 86.6117 274.034 86.6117 274.572 86.3939C275.111 86.1768 274.67 85.999 273.592 85.999C272.515 85.999 272.075 86.1768 272.613 86.3939ZM37.5383 87.9955C38.5075 88.182 40.0951 88.182 41.0644 87.9955C42.0337 87.8083 41.2407 87.6555 39.3013 87.6555C37.362 87.6555 36.569 87.8083 37.5383 87.9955ZM239.544 88.8136C239.126 89.913 239.217 89.9905 240.009 89.2054C240.551 88.6671 242.658 88.2259 244.691 88.2259C246.939 88.2259 248.524 88.6099 248.737 89.2054C248.929 89.7445 249.347 89.9435 249.664 89.6497C251.029 88.3842 248.884 87.4423 244.637 87.4423C241.005 87.4423 239.959 87.7236 239.544 88.8136ZM37.1465 91.1377C38.332 91.3171 40.2706 91.3171 41.4562 91.1377C42.6417 90.9583 41.6717 90.8117 39.3013 90.8117C36.931 90.8117 35.9609 90.9583 37.1465 91.1377ZM240.682 92.9681C239.261 93.4524 240.07 93.5927 243.622 93.4775C246.316 93.3905 248.52 93.584 248.519 93.9069C248.519 94.2297 248.859 94.4946 249.277 94.4946C249.694 94.4946 249.833 93.9656 249.585 93.3192C249.084 92.0145 244.06 91.8163 240.682 92.9681ZM37.5383 93.4806C38.5075 93.6671 40.0951 93.6671 41.0644 93.4806C42.0337 93.2933 41.2407 93.1405 39.3013 93.1405C37.362 93.1405 36.569 93.2933 37.5383 93.4806ZM83.9655 95.1919C83.9655 96.1644 86.3061 108.691 86.7997 110.362C87.1805 111.65 90.2631 111.733 137.211 111.733H187.216L187.688 109.97C188.866 105.576 188.401 104.809 182.893 102.073C175.206 98.2557 170.767 97.2277 162.324 97.3092C155.822 97.3719 153.639 97.7903 145.085 100.61C132.298 104.825 126.154 106.224 120.402 106.231C112.011 106.242 98.4774 102.109 88.2995 96.4261C84.5054 94.3081 83.9655 94.1545 83.9655 95.1919ZM39.1548 96.5969C39.7198 96.8234 40.396 96.7952 40.6561 96.535C40.9163 96.2749 40.454 96.0899 39.6281 96.1236C38.7152 96.1612 38.5295 96.3469 39.1548 96.5969ZM239.487 97.661C239.277 98.0003 241.4 98.3968 244.205 98.541C247.371 98.7048 249.205 98.5073 249.04 98.0207C248.727 97.0921 240.04 96.7654 239.487 97.661ZM272.943 99.591C273.829 100.477 284.98 103.894 286.854 103.854C287.964 103.831 286.328 103.145 283.219 102.33C280.11 101.515 276.872 100.476 276.022 100.022C274.454 99.1827 272.222 98.8701 272.943 99.591ZM25.9804 104.733C25.9804 106.036 26.3996 106.304 28.1282 106.104C29.4243 105.955 30.3802 105.312 30.537 104.485C30.7391 103.42 30.2588 103.114 28.3884 103.114C26.4772 103.114 25.9804 103.448 25.9804 104.733ZM27.1558 104.681C26.8894 105.112 27.2216 105.465 27.8931 105.465C28.5647 105.465 29.1148 105.112 29.1148 104.681C29.1148 104.25 28.7833 103.898 28.3774 103.898C27.9715 103.898 27.4222 104.25 27.1558 104.681ZM4.62781 106.767C5.29464 107.037 5.60729 109.123 5.60729 113.302C5.60729 120.462 5.19513 121.92 3.1727 121.92C0.805499 121.92 1.11266 127.683 3.61307 130.183C6.9002 133.471 7.46124 132.776 6.89785 126.111C6.61889 122.814 6.39087 116.996 6.39087 113.182C6.39087 107.077 6.2271 106.255 5.0196 106.31C4.20076 106.347 4.04248 106.531 4.62781 106.767ZM0.905796 108.599C0.905796 109.03 1.61102 109.383 2.47296 109.383C3.3349 109.383 4.04012 109.03 4.04012 108.599C4.04012 108.168 3.3349 107.815 2.47296 107.815C1.61102 107.815 0.905796 108.168 0.905796 108.599ZM26.3722 110.987C21.134 112.526 16.7827 113.29 13.2472 113.294L7.95803 113.301V116.544V119.788L11.8767 119.323C14.0324 119.068 19.5864 117.17 24.2181 115.106C33.4683 110.983 34.5544 110.868 53.014 112.036L60.0662 112.482L54.9792 111.335C52.1811 110.704 48.8673 109.83 47.6143 109.393C43.3313 107.9 34.6688 108.55 26.3722 110.987ZM235.98 112.525C235.98 114.083 236.375 114.097 271.427 113.896C304.469 113.706 306.891 113.599 307.138 112.321C307.386 111.031 305.279 110.95 271.691 110.95C236.443 110.95 235.98 110.97 235.98 112.525ZM33.4245 112.306C32.5625 112.521 28.9494 114.05 25.3959 115.704C18.0247 119.134 14.1499 120.342 10.5047 120.348C8.08341 120.353 7.95882 120.498 7.96666 123.291C7.97136 124.908 8.19624 127.566 8.46579 129.199L8.9571 132.168L14.9217 131.942L20.8871 131.715L21.3925 127.573C22.3046 120.102 26.6237 115.876 34.1406 115.1C37.5657 114.747 39.1258 115.031 42.6746 116.656C45.063 117.75 47.221 118.441 47.4694 118.192C47.7178 117.944 47.9207 116.733 47.9207 115.502C47.9207 113.818 47.4216 113.072 45.9108 112.497C43.8594 111.718 36.2524 111.601 33.4245 112.306ZM0.905796 112.817C0.905796 112.982 1.61102 113.302 2.47296 113.528C3.3349 113.753 4.04012 113.618 4.04012 113.227C4.04012 112.837 3.3349 112.517 2.47296 112.517C1.61102 112.517 0.905796 112.652 0.905796 112.817ZM48.7043 115.951V118.786H54.1894H59.6744V116.435C59.6744 114.155 59.5632 114.084 55.9524 114.073C53.9057 114.068 51.4367 113.85 50.4674 113.59C48.8767 113.164 48.7043 113.395 48.7043 115.951ZM71.4282 114.084C71.4282 114.6 92.5849 114.868 133.331 114.868C174.077 114.868 195.234 114.6 195.234 114.084C195.234 113.569 174.077 113.301 133.331 113.301C92.5849 113.301 71.4282 113.569 71.4282 114.084ZM389.038 114.514C388.249 115.112 387.072 115.613 386.422 115.626C384.672 115.663 377.709 119.47 375.458 121.621C370.594 126.268 366.32 129.599 364.88 129.866C364.018 130.026 362.978 130.916 362.57 131.844C361.796 133.601 357.583 136.016 355.254 136.036C354.514 136.043 353.384 136.381 352.74 136.788C349.409 138.894 353.96 139.235 389.842 139.565L426.41 139.902L425.288 137.768C424.671 136.593 422.521 134.046 420.512 132.106C418.503 130.167 416.218 127.346 415.437 125.838C413.393 121.894 408.225 117.567 403.469 115.815C397.825 113.737 390.889 113.111 389.038 114.514ZM0.905796 114.941C0.905796 115.332 1.61102 115.651 2.47296 115.651C3.3349 115.651 4.04012 115.516 4.04012 115.351C4.04012 115.186 3.3349 114.866 2.47296 114.64C1.61102 114.416 0.905796 114.55 0.905796 114.941ZM388.29 115.754C386.619 116.501 383.579 117.873 381.534 118.801C379.489 119.73 377.146 121.34 376.328 122.38C375.51 123.42 374.578 124.271 374.258 124.271C373.937 124.271 372.144 125.681 370.274 127.405C368.403 129.129 366.357 130.539 365.725 130.539C365.094 130.539 364.055 131.285 363.416 132.197C361.964 134.27 357.784 136.877 354.693 137.637C352.172 138.257 371.705 138.696 404.572 138.757L424.676 138.794L423.655 136.821C423.094 135.737 421.149 133.656 419.334 132.197C417.518 130.738 415.454 128.258 414.748 126.686C413.185 123.214 408.335 118.818 403.964 116.912C398.768 114.648 391.899 114.14 388.29 115.754ZM441.354 114.767C439.743 115.218 439.264 116.201 438.041 121.545C435.607 132.201 434.379 137.146 433.817 138.571C433.317 139.838 434.118 139.942 444.329 139.942C456.467 139.942 457.108 139.639 453.816 135.455C452.954 134.359 452.249 132.853 452.249 132.109C452.249 129.619 449.018 117.633 447.866 115.847C446.715 114.065 444.925 113.768 441.354 114.767ZM465.624 115.075C463.982 115.909 463.432 117.341 461.643 125.446C460.502 130.618 459.156 135.619 458.651 136.56C456.907 139.816 457.281 139.942 468.704 139.942C478.432 139.942 479.674 139.794 479.674 138.633C479.674 137.913 479.195 136.766 478.609 136.086C478.022 135.405 476.554 130.674 475.347 125.571C474.139 120.467 472.654 115.795 472.047 115.188C470.692 113.833 468.156 113.789 465.624 115.075ZM32.3439 116.439C26.5822 117.794 23.5137 120.986 22.4496 126.727C21.684 130.861 23.205 131.127 25.1091 127.194C27.1965 122.882 30.1765 121.136 35.4492 121.136C39.3405 121.136 39.777 121.344 42.8674 124.662C46.9036 128.997 49.1361 129.392 48.4011 125.642C47.0909 118.949 39.6931 114.709 32.3439 116.439ZM74.7584 116.191C75.513 116.389 76.7464 116.389 77.5009 116.191C78.2555 115.994 77.6381 115.833 76.1297 115.833C74.6213 115.833 74.0038 115.994 74.7584 116.191ZM87.4916 116.435C86.4134 118.18 88.2697 118.738 91.4197 117.616C93.2345 116.97 93.8872 116.485 92.9767 116.458C92.1147 116.434 90.6557 116.212 89.735 115.964C88.8135 115.717 87.8043 115.929 87.4916 116.435ZM110.632 116.371C106.785 117.394 116.871 119.047 123.65 118.504C135.46 117.559 139.6 117.026 139.6 116.451C139.6 115.734 113.3 115.661 110.632 116.371ZM176.428 116.435C175.544 117.006 175.933 117.202 177.995 117.224C179.504 117.24 182.237 117.933 184.068 118.764L187.398 120.276V117.964V115.651L182.501 115.663C179.808 115.67 177.075 116.017 176.428 116.435ZM260.909 116.186C261.473 116.413 262.15 116.385 262.41 116.125C262.67 115.864 262.208 115.679 261.382 115.713C260.469 115.751 260.283 115.936 260.909 116.186ZM269.087 116.233C272.426 116.381 277.893 116.381 281.232 116.233C284.572 116.087 281.84 115.966 275.16 115.966C268.479 115.966 265.747 116.087 269.087 116.233ZM289.471 116.214C290.662 116.393 292.425 116.389 293.389 116.203C294.353 116.017 293.378 115.87 291.223 115.875C289.068 115.882 288.28 116.034 289.471 116.214ZM440.234 116.174C439.947 116.461 439.712 117.342 439.712 118.133C439.712 119.354 440.368 119.569 444.105 119.569C447.79 119.569 448.422 119.369 448.023 118.33C447.761 117.648 447.548 116.766 447.548 116.371C447.548 115.552 441.032 115.376 440.234 116.174ZM464.478 116.891C463.572 119.253 464.024 119.569 468.312 119.569C470.683 119.569 472.622 119.246 472.622 118.85C472.622 116.479 471.507 115.651 468.312 115.651C465.973 115.651 464.81 116.027 464.478 116.891ZM1.29759 117.218C1.564 117.649 2.37815 117.997 3.10688 117.99C4.24856 117.979 4.26971 117.873 3.25654 117.218C1.72229 116.226 0.684826 116.226 1.29759 117.218ZM262.818 117.805C269.175 117.936 279.577 117.936 285.934 117.805C292.291 117.673 287.09 117.565 274.376 117.565C261.662 117.565 256.461 117.673 262.818 117.805ZM75.9338 118.569C77.334 118.743 79.6268 118.743 81.0271 118.569C82.4273 118.395 81.2817 118.253 78.4804 118.253C75.6791 118.253 74.5335 118.395 75.9338 118.569ZM90.7474 119.435C89.4231 120.898 88.855 128.189 90.0649 128.189C90.4034 128.189 91.3061 127.129 92.0709 125.834C96.1925 118.856 108.477 119.845 110.989 127.358C112.547 132.017 113.742 131.235 113.742 125.556C113.742 118.456 112.985 118.002 101.151 118.002C93.3238 118.002 91.8616 118.203 90.7474 119.435ZM127.791 120.157C123.489 122.337 120.01 126.329 120.01 129.088C120.01 130.928 121.484 130.985 122.065 129.168C123.113 125.888 124.377 124.127 126.621 122.819C128.809 121.544 131.462 121.426 156.605 121.498L184.188 121.575L186.183 123.449C187.28 124.481 188.602 126.497 189.121 127.932C190.117 130.687 192.1 131.5 192.1 129.154C192.1 126.476 188.285 122.111 184.139 120.046L180.038 118.002H156.042H132.045L127.791 120.157ZM0.905796 119.569C0.905796 120 1.78733 120.353 2.86475 120.353C3.94218 120.353 4.82371 120 4.82371 119.569C4.82371 119.138 3.94218 118.786 2.86475 118.786C1.78733 118.786 0.905796 119.138 0.905796 119.569ZM225.99 119.348C224.444 119.903 224.849 121.136 226.577 121.136C227.439 121.136 228.145 120.805 228.145 120.399C228.145 119.396 227.175 118.924 225.99 119.348ZM249.824 119.308C248.83 120.301 249.308 121.136 250.868 121.136C251.739 121.136 252.436 120.614 252.436 119.961C252.436 118.768 250.778 118.354 249.824 119.308ZM253.742 119.308C252.748 120.301 253.225 121.136 254.786 121.136C255.657 121.136 256.354 120.614 256.354 119.961C256.354 118.768 254.696 118.354 253.742 119.308ZM257.66 119.308C256.666 120.301 257.143 121.136 258.704 121.136C259.575 121.136 260.271 120.614 260.271 119.961C260.271 118.768 258.614 118.354 257.66 119.308ZM262.378 119.292C261.355 120.314 261.843 121.136 263.471 121.136C264.383 121.136 264.967 120.726 264.794 120.206C264.412 119.061 263.103 118.565 262.378 119.292ZM265.757 119.904C265.757 120.63 266.427 121.136 267.389 121.136C269.298 121.136 269.029 119.305 267.063 118.924C266.289 118.774 265.757 119.173 265.757 119.904ZM270.654 119.304C269.118 119.924 269.508 121.136 271.242 121.136C272.112 121.136 272.809 120.614 272.809 119.961C272.809 118.753 272.359 118.616 270.654 119.304ZM278.294 119.961C278.294 120.768 278.807 121.152 279.665 120.987C281.317 120.669 281.213 119.278 279.511 118.924C278.801 118.776 278.294 119.208 278.294 119.961ZM282.212 119.965C282.212 120.678 283.336 121.005 285.782 121.005C290.366 121.005 290.089 119.23 285.477 119.051C283.222 118.963 282.212 119.246 282.212 119.965ZM290.048 119.961C290.048 120.614 290.744 121.136 291.615 121.136C292.485 121.136 293.182 120.614 293.182 119.961C293.182 119.308 292.485 118.786 291.615 118.786C290.744 118.786 290.048 119.308 290.048 119.961ZM294.357 119.569C294.091 120 294.091 120.705 294.357 121.136C294.677 121.653 286.487 121.889 270.308 121.829C256.815 121.779 246.393 121.577 247.146 121.38C249.024 120.89 248.881 119.569 246.951 119.569C246.08 119.569 245.383 120.092 245.383 120.745C245.383 121.697 244.121 121.92 238.723 121.92C235.06 121.92 232.063 122.088 232.063 122.293C232.063 122.498 232.766 123.82 233.627 125.231C235.611 128.485 235.599 130.097 233.565 133.385L231.935 136.024H271.571H311.207L309.639 133.098C307.659 129.403 307.659 127.356 309.637 124.84C310.499 123.745 311.204 122.639 311.204 122.384C311.204 122.129 307.59 121.909 303.173 121.896C297.273 121.878 295.509 121.657 296.529 121.064C297.292 120.62 297.712 119.926 297.462 119.521C296.862 118.551 294.968 118.58 294.357 119.569ZM298.667 119.896C298.667 120.578 299.225 121.136 299.907 121.136C301.291 121.136 301.051 119.449 299.598 118.965C299.085 118.794 298.667 119.213 298.667 119.896ZM306.503 120.128C306.503 120.683 307.208 121.136 308.07 121.136C308.932 121.136 309.637 120.629 309.637 120.01C309.637 119.366 308.966 118.934 308.07 119.001C307.208 119.066 306.503 119.573 306.503 120.128ZM47.333 120.549C47.583 121.299 52.4044 121.528 67.9021 121.528C83.3997 121.528 88.2211 121.299 88.4711 120.549C88.7265 119.782 84.2703 119.569 67.9021 119.569C51.5338 119.569 47.0776 119.782 47.333 120.549ZM114.525 120.745C114.525 122.352 122.247 122.372 124.366 120.77C125.749 119.724 125.372 119.617 120.206 119.594C115.668 119.574 114.525 119.806 114.525 120.745ZM221.876 120.353C221.876 120.784 222.229 121.136 222.66 121.136C223.09 121.136 223.443 120.784 223.443 120.353C223.443 119.922 223.09 119.569 222.66 119.569C222.229 119.569 221.876 119.922 221.876 120.353ZM228.928 120.353C228.928 120.784 229.633 121.136 230.495 121.136C231.357 121.136 232.063 120.784 232.063 120.353C232.063 119.922 231.357 119.569 230.495 119.569C229.633 119.569 228.928 119.922 228.928 120.353ZM233.238 120.353C233.504 120.784 234.23 121.136 234.851 121.136C235.473 121.136 235.98 120.784 235.98 120.353C235.98 119.922 235.254 119.569 234.367 119.569C233.48 119.569 232.971 119.922 233.238 120.353ZM236.764 120.353C236.764 120.784 237.469 121.136 238.331 121.136C239.193 121.136 239.898 120.784 239.898 120.353C239.898 119.922 239.193 119.569 238.331 119.569C237.469 119.569 236.764 119.922 236.764 120.353ZM240.682 120.353C240.682 120.784 241.366 121.136 242.203 121.136C243.04 121.136 243.942 120.784 244.208 120.353C244.483 119.908 243.824 119.569 242.687 119.569C241.585 119.569 240.682 119.922 240.682 120.353ZM273.592 120.353C273.592 120.784 274.298 121.136 275.16 121.136C276.021 121.136 276.727 120.784 276.727 120.353C276.727 119.922 276.021 119.569 275.16 119.569C274.298 119.569 273.592 119.922 273.592 120.353ZM302.193 120.353C302.46 120.784 303.185 121.136 303.806 121.136C304.428 121.136 304.936 120.784 304.936 120.353C304.936 119.922 304.209 119.569 303.322 119.569C302.435 119.569 301.927 119.922 302.193 120.353ZM310.421 120.353C310.421 120.784 311.126 121.136 311.988 121.136C312.85 121.136 313.555 120.784 313.555 120.353C313.555 119.922 312.85 119.569 311.988 119.569C311.126 119.569 310.421 119.922 310.421 120.353ZM314.339 120.353C314.339 120.784 315.044 121.136 315.906 121.136C316.768 121.136 317.473 120.784 317.473 120.353C317.473 119.922 316.768 119.569 315.906 119.569C315.044 119.569 314.339 119.922 314.339 120.353ZM319.04 120.353C319.04 120.784 319.569 121.136 320.215 121.136C320.862 121.136 321.391 120.784 321.391 120.353C321.391 119.922 320.862 119.569 320.215 119.569C319.569 119.569 319.04 119.922 319.04 120.353ZM218.837 121.413C217.884 122.561 218.425 123.487 220.048 123.487C221.215 123.487 221.478 121.467 220.397 120.799C220.016 120.564 219.314 120.839 218.837 121.413ZM322.174 121.92C322.174 123.426 323.707 124.044 324.78 122.971C325.373 122.378 323.89 120.353 322.862 120.353C322.484 120.353 322.174 121.058 322.174 121.92ZM438.928 121.92C438.928 123.326 439.451 123.487 444.021 123.487C448.592 123.487 449.115 123.326 449.115 121.92C449.115 120.513 448.592 120.353 444.021 120.353C439.451 120.353 438.928 120.513 438.928 121.92ZM463.219 121.92C463.219 123.336 463.742 123.487 468.631 123.487C473.656 123.487 474.013 123.375 473.633 121.92C473.277 120.559 472.564 120.353 468.221 120.353C463.742 120.353 463.219 120.517 463.219 121.92ZM29.7126 123.146C25.4053 125.484 23.9776 131.417 26.7217 135.58C28.6963 138.575 31.1505 139.88 34.8709 139.915C38.9816 139.953 42.1465 137.889 43.6189 134.21C45.1641 130.347 44.1728 126.78 40.7564 123.905C38.0147 121.598 33.1784 121.266 29.7126 123.146ZM95.9653 123.402C92.979 125.278 91.8013 127.268 91.8013 130.437C91.8013 136.227 95.7294 139.934 101.87 139.939C104.704 139.942 105.728 139.493 107.943 137.278C110.198 135.023 110.607 134.062 110.607 131.022C110.607 125.817 107.625 122.625 102.333 122.168C99.3966 121.914 97.8592 122.211 95.9653 123.402ZM127.309 123.448C124.308 125.278 123.145 127.256 123.145 130.527C123.145 136.036 127.282 139.942 133.118 139.942C139.73 139.942 144.1 133.759 141.644 127.88C139.283 122.229 132.664 120.183 127.309 123.448ZM150.756 123.485C149.349 124.342 147.619 126.259 146.91 127.746C145.762 130.154 145.745 130.773 146.752 133.42C148.264 137.391 152.132 139.942 156.641 139.942C159.564 139.942 160.562 139.51 162.794 137.278C170.596 129.476 160.293 117.67 150.756 123.485ZM173.892 123.146C165.77 127.553 169.638 139.942 179.135 139.942C188.079 139.942 191.967 130.107 185.326 124.276C182.261 121.585 177.615 121.126 173.892 123.146ZM221.349 123.796C219.607 125.295 219.169 126.334 219.169 128.972C219.169 133.213 222.07 136.024 226.447 136.024C232.175 136.024 235.452 131.406 233.329 126.326C231.395 121.697 225.288 120.408 221.349 123.796ZM311.455 123.801C309.679 125.329 309.284 126.291 309.353 128.919C309.451 132.69 311.074 134.818 314.787 136.043C316.732 136.685 317.855 136.667 319.198 135.972C322.942 134.033 323.742 132.779 323.742 128.839C323.742 125.384 323.506 124.887 321.195 123.478C317.734 121.368 314.145 121.487 311.455 123.801ZM49.6344 125.25L49.8797 127.797L68.8815 128.007L87.8834 128.217V125.46V122.704H68.6363H49.3884L49.6344 125.25ZM115.309 125.446C115.309 127.827 115.56 128.189 117.211 128.189C118.561 128.189 119.469 127.472 120.345 125.717C121.023 124.358 121.577 123.124 121.577 122.975C121.577 122.826 120.167 122.704 118.443 122.704C115.383 122.704 115.309 122.769 115.309 125.446ZM140.644 124.126C141.352 124.908 142.323 126.671 142.801 128.044C143.28 129.416 143.901 130.535 144.182 130.532C144.464 130.527 145.376 129.029 146.212 127.201C147.046 125.374 147.869 123.614 148.04 123.291C148.211 122.968 146.326 122.704 143.853 122.704C139.559 122.704 139.415 122.768 140.644 124.126ZM164.683 125.25C165.537 126.65 166.237 128.413 166.238 129.168C166.24 129.923 166.771 130.539 167.417 130.539C168.063 130.539 168.592 129.882 168.592 129.078C168.592 128.274 169.298 126.72 170.16 125.624C171.021 124.528 171.727 123.423 171.727 123.167C171.727 122.913 169.793 122.704 167.429 122.704H163.13L164.683 125.25ZM215.599 126.653C214.551 130.543 215.013 132.248 216.949 131.643C218.274 131.228 218.273 131.254 216.935 132.11C215.824 132.822 215.717 133.254 216.436 134.12C216.94 134.727 217.696 135.01 218.117 134.75C219.008 134.2 218.21 129.055 217.008 127.601C216.416 126.884 216.555 126.621 217.528 126.621C218.347 126.621 218.76 126.121 218.603 125.315C218.094 122.69 216.472 123.413 215.599 126.653ZM240.063 124.372C235.665 125.64 234.867 130.828 238.685 133.329C240.229 134.34 244.93 134.478 271.503 134.288C301.466 134.073 302.559 134.012 303.702 132.498C306.205 129.185 304.187 124.217 300.385 124.338L298.275 124.405L300.559 125.089C304.409 126.24 305.315 129.376 302.585 132.106C301.073 133.619 299.973 133.674 271.293 133.674C253.875 133.674 240.735 133.357 239.557 132.91C237.957 132.301 237.548 131.616 237.548 129.54C237.548 126.319 238.721 125.071 241.818 124.999C243.132 124.969 244.913 124.641 245.775 124.271C247.107 123.698 246.991 123.6 244.992 123.612C243.699 123.621 241.481 123.963 240.063 124.372ZM256.589 124.098C256.071 124.432 258.149 124.775 261.205 124.86C264.261 124.945 266.536 124.789 266.261 124.514C265.494 123.747 257.651 123.41 256.589 124.098ZM275.64 124.414C275.866 124.78 276.38 124.877 276.781 124.629C277.806 123.996 277.691 123.748 276.369 123.748C275.742 123.748 275.413 124.048 275.64 124.414ZM282.83 124.068C285.54 124.221 289.772 124.221 292.233 124.065C294.694 123.91 292.477 123.785 287.305 123.786C282.133 123.788 280.12 123.915 282.83 124.068ZM325.041 124.016C324.757 124.3 324.525 125.002 324.525 125.577C324.525 126.744 326.545 127.007 327.213 125.926C327.747 125.064 325.749 123.308 325.041 124.016ZM437.875 125.999C437.627 126.951 437.545 127.85 437.694 127.999C437.843 128.149 440.65 128.027 443.931 127.729C449.035 127.267 449.898 126.978 449.898 125.73C449.898 124.438 449.233 124.271 444.113 124.271C438.806 124.271 438.29 124.414 437.875 125.999ZM462.502 126.034C462.136 127.004 462.019 128.105 462.241 128.481C462.669 129.203 473.895 128.743 474.667 127.972C474.913 127.725 474.884 126.791 474.6 125.897C474.142 124.456 473.461 124.271 468.626 124.271C463.686 124.271 463.106 124.438 462.502 126.034ZM223.916 127.526C222.411 129.676 223.547 132.106 226.056 132.106C229.553 132.106 231.085 128.196 228.196 126.649C226.004 125.476 225.244 125.632 223.916 127.526ZM245.662 126.392C241.06 126.635 239.998 126.94 239.691 128.11C239.487 128.893 239.644 130.112 240.039 130.82C241.048 132.621 257.97 132.729 259.754 130.945C261.558 129.141 260.494 126.621 257.927 126.621C256.738 126.621 254.752 126.504 253.513 126.36C252.274 126.216 248.741 126.23 245.662 126.392ZM286.521 126.549C281.271 126.994 281.026 127.104 280.791 129.141C280.471 131.91 281.821 132.237 292.335 131.944C298.792 131.763 300.566 131.469 300.818 130.539C301.062 129.641 300.969 129.602 300.427 130.37C299.903 131.113 297.373 131.318 290.768 131.154C282.163 130.94 281.811 130.864 281.569 129.168C281.336 127.521 281.606 127.405 285.683 127.405C289.04 127.405 290.048 127.676 290.048 128.58C290.048 129.227 290.438 129.756 290.915 129.756C291.392 129.756 291.568 129.197 291.306 128.514C290.895 127.443 291.532 127.308 295.925 127.534C298.728 127.678 301.02 127.532 301.019 127.209C301.019 126.886 299.696 126.617 298.079 126.61C296.464 126.605 294.436 126.484 293.574 126.342C292.712 126.201 289.538 126.294 286.521 126.549ZM314.406 126.933C313.872 127.576 313.55 128.915 313.691 129.909C313.89 131.319 314.444 131.715 316.212 131.715C319.006 131.715 320.608 129.612 319.348 127.601C318.223 125.806 315.632 125.455 314.406 126.933ZM32.9833 127.67C30.2384 129.031 30.0127 132.415 32.5555 134.081C34.9438 135.647 37.579 134.999 38.4762 132.625C39.773 129.192 36.2751 126.037 32.9833 127.67ZM99.0283 127.841C95.5633 130.268 98.1381 136.06 102.127 134.814C104.314 134.131 105.094 133.076 105.11 130.78C105.121 129.317 102.589 126.621 101.204 126.621C100.965 126.621 99.9858 127.171 99.0283 127.841ZM130.931 127.67C128.186 129.031 127.961 132.415 130.503 134.081C134.012 136.38 138.34 133.258 136.475 129.774C135.183 127.359 133.129 126.58 130.931 127.67ZM152.964 128.703C151.535 130.52 151.462 130.99 152.386 132.382C154.246 135.184 155.697 135.656 157.935 134.189C160.482 132.52 160.623 129.516 158.231 127.841C155.811 126.147 154.852 126.303 152.964 128.703ZM177.128 127.687C174.417 129.031 174.208 132.426 176.735 134.081C179.032 135.587 181.538 135.056 182.741 132.808C184.585 129.361 180.77 125.881 177.128 127.687ZM224.647 127.88C223.141 129.386 224.295 131.323 226.698 131.323C228.589 131.323 229.405 129.316 228.136 127.787C226.903 126.301 226.208 126.319 224.647 127.88ZM240.823 129.168C241.067 130.879 241.336 130.931 250.085 130.931C258.834 130.931 259.103 130.879 259.347 129.168C259.58 127.521 259.31 127.405 255.233 127.405C251.391 127.405 250.868 127.592 250.868 128.972C250.868 130.529 250.034 131.011 249.047 130.024C248.763 129.74 248.924 129.035 249.404 128.457C250.118 127.596 249.395 127.405 245.425 127.405C240.842 127.405 240.587 127.503 240.823 129.168ZM314.48 129.168C314.664 130.459 315.255 130.931 316.689 130.931C318.124 130.931 318.715 130.459 318.899 129.168C319.113 127.661 318.792 127.405 316.689 127.405C314.587 127.405 314.266 127.661 314.48 129.168ZM325.45 129.107C325.82 131.615 327.66 131.884 327.66 129.429C327.66 128.113 327.229 127.405 326.429 127.405C325.613 127.405 325.284 127.976 325.45 129.107ZM32.1942 129.43C30.7117 131.216 32.2569 133.282 35.077 133.282C36.8683 133.282 37.398 132.891 37.6064 131.411C38.0358 128.38 34.2245 126.984 32.1942 129.43ZM98.8849 129.326C97.1399 131.429 98.2259 133.282 101.204 133.282C103.201 133.282 103.998 132.907 104.197 131.873C104.54 130.089 102.996 128.189 101.204 128.189C100.448 128.189 99.4044 128.7 98.8849 129.326ZM130.142 129.43C128.659 131.216 130.205 133.282 133.025 133.282C134.816 133.282 135.346 132.891 135.554 131.411C135.984 128.38 132.172 126.984 130.142 129.43ZM153.832 128.877C153.255 129.243 152.903 130.383 153.048 131.411C153.418 134.029 158.009 134.59 158.795 132.114C159.725 129.184 156.582 127.134 153.832 128.877ZM176.373 129.43C175.629 130.327 175.57 131.033 176.162 131.976C177.321 133.826 180.444 134.104 181.643 132.465C183.901 129.377 178.838 126.46 176.373 129.43ZM242.641 128.972C242.374 129.403 242.903 129.756 243.816 129.756C244.729 129.756 245.258 129.403 244.992 128.972C244.725 128.541 244.196 128.189 243.816 128.189C243.436 128.189 242.907 128.541 242.641 128.972ZM254.786 129.34C254.786 130.04 255.246 130.314 255.962 130.039C256.608 129.791 257.137 129.273 257.137 128.888C257.137 128.504 256.608 128.189 255.962 128.189C255.315 128.189 254.786 128.707 254.786 129.34ZM283.779 129.364C283.779 130.01 284.132 130.539 284.563 130.539C284.993 130.539 285.346 130.01 285.346 129.364C285.346 128.717 284.993 128.189 284.563 128.189C284.132 128.189 283.779 128.717 283.779 129.364ZM295.966 128.906C295.714 129.314 295.841 129.854 296.25 130.106C296.658 130.358 297.198 130.231 297.45 129.822C297.702 129.414 297.575 128.874 297.166 128.622C296.758 128.37 296.218 128.497 295.966 128.906ZM45.57 129.802C45.57 130.258 45.9226 130.414 46.3536 130.148C46.7845 129.881 47.1371 129.508 47.1371 129.318C47.1371 129.127 46.7845 128.972 46.3536 128.972C45.9226 128.972 45.57 129.346 45.57 129.802ZM51.4468 129.756C51.7133 130.187 52.7711 130.539 53.7976 130.539C54.8241 130.539 55.8819 130.187 56.1483 129.756C56.4375 129.289 55.4878 128.972 53.7976 128.972C52.1074 128.972 51.1577 129.289 51.4468 129.756ZM60.0662 129.756C62.2564 130.697 65.9431 130.697 65.9431 129.756C65.9431 129.325 64.2678 128.997 62.2211 129.027C59.4206 129.069 58.887 129.249 60.0662 129.756ZM70.118 129.945C72.8237 130.507 74.1511 130.481 74.7803 129.851C75.4299 129.202 74.4442 128.996 70.9972 129.065L66.3349 129.157L70.118 129.945ZM79.8603 129.952C81.6594 130.528 82.9351 130.521 84.17 129.925C85.6502 129.21 85.2506 129.083 81.6147 129.105C77.4947 129.131 77.4179 129.168 79.8603 129.952ZM87.6875 129.491C88.2266 129.709 89.1081 129.709 89.6465 129.491C90.1856 129.274 89.7444 129.096 88.667 129.096C87.5896 129.096 87.1492 129.274 87.6875 129.491ZM437.1 129.495C436.812 129.782 436.577 130.536 436.577 131.17C436.577 132.131 437.764 132.256 443.664 131.92C450.998 131.502 451.98 131.223 451.106 129.808C450.545 128.901 437.975 128.62 437.1 129.495ZM461.652 130.539C461.652 131.004 464.525 131.323 468.704 131.323C472.883 131.323 475.757 131.004 475.757 130.539C475.757 130.075 472.883 129.756 468.704 129.756C464.525 129.756 461.652 130.075 461.652 130.539ZM48.5084 131.058C49.0475 131.276 49.929 131.276 50.4674 131.058C51.0065 130.841 50.5653 130.663 49.4879 130.663C48.4105 130.663 47.9701 130.841 48.5084 131.058ZM57.9114 131.058C58.4505 131.276 59.332 131.276 59.8703 131.058C60.4095 130.841 59.9683 130.663 58.8909 130.663C57.8134 130.663 57.3731 130.841 57.9114 131.058ZM67.3144 131.058C67.8535 131.276 68.735 131.276 69.2733 131.058C69.8124 130.841 69.3713 130.663 68.2939 130.663C67.2164 130.663 66.7761 130.841 67.3144 131.058ZM76.7174 131.058C77.2565 131.276 78.138 131.276 78.6763 131.058C79.2154 130.841 78.7743 130.663 77.6968 130.663C76.6194 130.663 76.179 130.841 76.7174 131.058ZM85.3368 131.058C85.8759 131.276 86.7574 131.276 87.2957 131.058C87.8348 130.841 87.3937 130.663 86.3162 130.663C85.2388 130.663 84.7984 130.841 85.3368 131.058ZM324.664 133.323C325.018 135.025 326.409 135.13 326.727 133.478C326.892 132.62 326.508 132.106 325.701 132.106C324.948 132.106 324.516 132.613 324.664 133.323ZM443.692 132.89C438.777 133.151 436.202 133.609 435.987 134.261C435.741 135.003 437.671 135.241 443.956 135.241C448.517 135.241 452.244 134.976 452.237 134.653C452.2 132.863 450.564 132.526 443.692 132.89ZM462.977 132.672C461.429 132.905 460.85 133.394 461.028 134.318C461.168 135.041 461.894 135.604 462.642 135.568C463.391 135.532 466.824 135.443 470.271 135.372C475.045 135.272 476.54 134.981 476.54 134.149C476.54 133.549 475.982 132.844 475.3 132.582C473.974 132.073 466.604 132.127 462.977 132.672ZM218.818 135.541C218.121 136.38 218.203 136.734 219.177 137.108C220.998 137.807 221.092 137.753 221.092 136.024C221.092 134.203 220.103 133.993 218.818 135.541ZM322.202 135.6C321.65 136.264 320.713 136.808 320.12 136.808C319.526 136.808 319.04 137.337 319.04 137.983C319.04 139.482 320.519 139.517 321.088 138.033C321.326 137.414 321.985 137.085 322.552 137.302C323.863 137.805 324.947 136.133 323.953 135.139C323.478 134.663 322.84 134.832 322.202 135.6ZM310.889 136.601C309.857 137.632 310.512 139.159 311.988 139.159C312.85 139.159 313.555 138.667 313.555 138.067C313.555 136.886 311.652 135.838 310.889 136.601ZM441.083 136.589C436.415 136.808 435.01 137.138 435.01 138.016C435.01 138.957 436.754 139.159 444.862 139.159C453.822 139.159 454.692 139.034 454.454 137.787C454.167 136.272 452.004 136.078 441.083 136.589ZM465.766 136.607C460.742 136.813 459.301 137.126 459.301 138.015C459.301 138.957 461.032 139.159 469.096 139.159C474.483 139.159 478.891 138.877 478.891 138.532C478.891 137.141 476.875 136.033 474.62 136.184C473.306 136.271 469.322 136.462 465.766 136.607ZM221.876 137.545C221.876 137.951 222.229 138.501 222.66 138.767C223.09 139.033 223.443 138.701 223.443 138.03C223.443 137.358 223.09 136.808 222.66 136.808C222.229 136.808 221.876 137.139 221.876 137.545ZM228.928 137.983C228.928 138.636 229.625 139.159 230.495 139.159C231.366 139.159 232.063 138.636 232.063 137.983C232.063 137.331 231.366 136.808 230.495 136.808C229.625 136.808 228.928 137.331 228.928 137.983ZM233.369 137.331C232.375 138.323 232.852 139.159 234.413 139.159C235.284 139.159 235.98 138.636 235.98 137.983C235.98 136.791 234.323 136.376 233.369 137.331ZM236.764 137.983C236.764 138.636 237.461 139.159 238.331 139.159C239.202 139.159 239.898 138.636 239.898 137.983C239.898 137.331 239.202 136.808 238.331 136.808C237.461 136.808 236.764 137.331 236.764 137.983ZM241.205 137.331C240.143 138.392 240.735 139.159 242.617 139.159C244.014 139.159 244.425 138.833 244.1 137.983C243.631 136.764 242.114 136.422 241.205 137.331ZM245.383 137.983C245.383 138.636 246.08 139.159 246.951 139.159C247.821 139.159 248.518 138.636 248.518 137.983C248.518 137.331 247.821 136.808 246.951 136.808C246.08 136.808 245.383 137.331 245.383 137.983ZM249.301 137.983C249.301 138.636 249.998 139.159 250.868 139.159C251.739 139.159 252.436 138.636 252.436 137.983C252.436 137.331 251.739 136.808 250.868 136.808C249.998 136.808 249.301 137.331 249.301 137.983ZM253.742 137.331C252.748 138.323 253.225 139.159 254.786 139.159C255.657 139.159 256.354 138.636 256.354 137.983C256.354 136.791 254.696 136.376 253.742 137.331ZM257.137 137.983C257.137 138.636 257.834 139.159 258.704 139.159C259.575 139.159 260.271 138.636 260.271 137.983C260.271 137.331 259.575 136.808 258.704 136.808C257.834 136.808 257.137 137.331 257.137 137.983ZM261.839 137.983C261.839 138.636 262.535 139.159 263.406 139.159C264.276 139.159 264.973 138.636 264.973 137.983C264.973 137.331 264.276 136.808 263.406 136.808C262.535 136.808 261.839 137.331 261.839 137.983ZM265.757 137.926C265.757 138.653 266.427 139.159 267.389 139.159C269.298 139.159 269.029 137.328 267.063 136.947C266.289 136.796 265.757 137.196 265.757 137.926ZM269.674 137.983C269.674 138.636 270.371 139.159 271.242 139.159C272.112 139.159 272.809 138.636 272.809 137.983C272.809 137.331 272.112 136.808 271.242 136.808C270.371 136.808 269.674 137.331 269.674 137.983ZM273.592 137.983C273.592 138.636 274.289 139.159 275.16 139.159C276.03 139.159 276.727 138.636 276.727 137.983C276.727 137.331 276.03 136.808 275.16 136.808C274.289 136.808 273.592 137.331 273.592 137.983ZM278.06 137.303C276.988 138.374 277.532 139.265 279.109 139.018C279.987 138.88 280.711 138.414 280.717 137.983C280.73 137.03 278.822 136.542 278.06 137.303ZM282.212 137.983C282.212 138.636 282.908 139.159 283.779 139.159C284.649 139.159 285.346 138.636 285.346 137.983C285.346 137.331 284.649 136.808 283.779 136.808C282.908 136.808 282.212 137.331 282.212 137.983ZM286.13 137.926C286.13 138.653 286.8 139.159 287.762 139.159C289.671 139.159 289.402 137.328 287.436 136.947C286.662 136.796 286.13 137.196 286.13 137.926ZM290.048 137.983C290.048 138.636 290.744 139.159 291.615 139.159C292.485 139.159 293.182 138.636 293.182 137.983C293.182 137.331 292.485 136.808 291.615 136.808C290.744 136.808 290.048 137.331 290.048 137.983ZM293.965 137.983C293.965 138.636 294.662 139.159 295.533 139.159C296.403 139.159 297.1 138.636 297.1 137.983C297.1 137.331 296.403 136.808 295.533 136.808C294.662 136.808 293.965 137.331 293.965 137.983ZM298.667 137.983C298.667 138.63 299.36 139.159 300.21 139.159C301.259 139.159 301.608 138.783 301.301 137.983C301.053 137.337 300.359 136.808 299.759 136.808C299.158 136.808 298.667 137.337 298.667 137.983ZM302.301 137.983C302.55 138.63 303.244 139.159 303.844 139.159C304.444 139.159 304.936 138.63 304.936 137.983C304.936 137.337 304.242 136.808 303.393 136.808C302.344 136.808 301.995 137.184 302.301 137.983ZM306.263 137.309C305.446 138.126 306.481 139.159 308.116 139.159C308.953 139.159 309.637 138.63 309.637 137.983C309.637 136.821 307.232 136.34 306.263 137.309ZM225.01 138.375C225.01 138.806 225.715 139.159 226.577 139.159C227.439 139.159 228.145 138.806 228.145 138.375C228.145 137.944 227.439 137.592 226.577 137.592C225.715 137.592 225.01 137.944 225.01 138.375ZM314.73 138.375C314.997 138.806 315.92 139.159 316.782 139.159C317.644 139.159 318.131 138.806 317.865 138.375C317.598 137.944 316.675 137.592 315.813 137.592C314.951 137.592 314.464 137.944 314.73 138.375Z" fill="#626364" fill-opacity="0.51"/>
</g>
<defs>
<clipPath id="clip0_2139_2263">
<rect width="480" height="142" fill="white"/>
</clipPath>
</defs>
</svg>
