<svg width="466" height="396" viewBox="0 0 466 396" fill="none" xmlns="http://www.w3.org/2000/svg">
<path fill-rule="evenodd" clip-rule="evenodd" d="M171.343 3.20643C167.63 5.0616 164.184 6.94117 163.684 7.38303C162.855 8.11617 162.775 9.62295 162.775 24.6632C162.775 39.5887 162.69 41.2445 161.867 42.2445C161.031 43.2596 158.607 45.0836 147.67 52.9238C145.502 54.4784 143.457 56.076 143.126 56.4748C142.795 56.8735 141.58 60.9022 140.426 65.4277C139.271 69.9527 138.074 73.959 137.766 74.3302C137.328 74.8583 133.52 75.0047 120.222 75.0047H103.237L98.3481 77.5374C89.094 82.3314 87.8894 83.0557 87.3905 84.1248C87.0213 84.9166 87.4444 87.4821 89.0068 93.9193C90.1709 98.7164 91.1231 103.077 91.1231 103.609C91.1231 104.667 91.0229 104.738 83.854 108.749C76.3731 112.936 77.1042 111.104 77.1042 125.663V138.258L70.1518 143.251C65.6403 146.491 63.0032 148.74 62.6408 149.657C62.3339 150.434 61.5104 153.367 60.8116 156.175C60.1122 158.982 59.3837 161.435 59.1921 161.627C59.0011 161.818 53.1983 161.974 46.2968 161.974H33.7493L28.9559 164.488C22.4069 167.923 21.5476 168.66 21.5476 170.843C21.5476 171.824 22.1385 175.126 22.8602 178.181C23.5819 181.237 24.0601 184.029 23.9225 184.388C23.7844 184.747 22.3176 185.727 20.6629 186.565C19.0076 187.404 17.1498 188.64 16.5346 189.311C15.9193 189.982 13.5553 193.919 11.2816 198.06C9.00795 202.201 6.41081 206.874 5.50944 208.444C2.50264 213.685 0.36657 218.062 0.182247 219.36L0 220.646L98.0459 220.748C168.882 220.822 196.284 221.01 196.785 221.425C197.35 221.894 197.114 222.741 195.511 225.996C194.429 228.194 193.02 231.16 192.38 232.588C191.74 234.016 188.641 240.792 185.493 247.645C182.345 254.499 179.007 261.859 178.075 264.001C177.144 266.143 174.489 271.94 172.175 276.883C169.861 281.826 167.968 285.98 167.968 286.113C167.968 286.246 165.771 291.08 163.086 296.855C160.401 302.63 156.687 310.744 154.831 314.884C152.976 319.025 148.722 328.371 145.377 335.653C142.033 342.935 137.594 352.632 135.514 357.201C133.433 361.77 129.019 371.462 125.706 378.739C119.973 391.325 119.073 393.888 120.152 394.556C120.866 394.996 138.975 395.055 140.34 394.62C141.065 394.389 141.848 393.446 142.345 392.202C142.865 390.902 143.564 390.081 144.272 389.939C145.247 389.743 156.491 389.135 173.679 388.349C180.98 388.015 252.36 388.049 267.398 388.393C273.966 388.544 287.168 388.769 296.734 388.895C306.301 389.02 315.881 389.3 318.022 389.517L321.916 389.912L323.181 392.306L324.446 394.701L329.412 394.963C332.143 395.107 336.948 395.081 340.089 394.905C345.505 394.601 345.809 394.524 345.967 393.416C346.113 392.387 342.158 383.156 335.111 368.081C332.743 363.013 327.171 350.767 321.647 338.489C319.715 334.194 317.149 328.586 315.944 326.027C314.739 323.468 312.171 317.87 310.237 313.586C308.303 309.303 305.851 303.929 304.789 301.644C301.987 295.619 292.506 274.872 288.416 265.818C281.893 251.38 273.552 233.146 270.776 227.259C269.259 224.042 268.191 221.238 268.401 221.028C268.612 220.818 312.812 220.728 366.625 220.83C465.47 221.015 466 221.007 466 219.33C466 218.873 460.122 211.043 456.948 207.272C454.552 204.424 452.819 203.978 447.048 204.728C442.673 205.296 442.116 204.972 442.116 201.861C442.116 200.594 441.9 198.579 441.636 197.381C441.373 196.184 440.888 193.452 440.56 191.31C439.367 183.523 440.337 184.402 428.097 180L420.049 177.106L411.238 176.809L402.427 176.512L399.371 171.06C397.69 168.062 395.024 163.272 393.446 160.416C389.964 154.116 389.606 153.705 383.621 149.174C381.005 147.194 378.728 145.218 378.562 144.784C378.396 144.35 378.018 144.144 377.723 144.326C377.429 144.509 377.252 144.443 377.33 144.18C377.567 143.388 372.537 137.315 371.598 137.259C371.117 137.23 370.005 137.244 369.126 137.29C368.247 137.337 367.301 137.069 367.024 136.694C366.746 136.319 365.39 130.233 364.011 123.169C362.631 116.105 361.24 109.972 360.92 109.54C360.6 109.107 350.682 105.503 338.88 101.53C327.078 97.557 317.34 94.2257 317.241 94.1265C317.142 94.0279 314.219 88.2676 310.745 81.3262C307.272 74.3853 304.101 68.5799 303.699 68.4257C303.297 68.2714 300.36 68.4007 297.172 68.7138C290.844 69.3343 289.984 69.1131 289.984 66.8659C289.984 64.1442 287.186 51.5053 286.357 50.4809C285.747 49.727 279.64 47.4357 266.057 42.8629L246.63 36.3228L240.918 25.1128C237.777 18.9476 234.997 13.5986 234.741 13.2263C234.382 12.7061 233.021 12.6266 228.841 12.8826C222.341 13.2798 212.857 14.1189 207.263 14.7913C202.372 15.379 201.389 15.0493 195.297 10.7782C185.378 3.82274 179.844 0.164834 178.997 0.00439541C178.5 -0.0901026 175.055 1.35073 171.343 3.20643ZM176.536 4.38817C176.361 4.6727 174.044 6.07667 171.388 7.50816L166.56 10.1115L166.229 13.6116C166.047 15.5363 165.897 22.9799 165.894 30.1519C165.891 42.5867 165.84 43.2565 164.807 44.5706C164.21 45.3287 162.984 46.3266 162.081 46.7877C161.178 47.2493 160.274 47.9066 160.072 48.2493C159.87 48.5915 158.702 49.5411 157.476 50.3594C156.25 51.1777 154.721 52.3085 154.079 52.8724C153.436 53.4363 152.91 53.7162 152.91 53.4939C152.91 53.2717 152.112 53.7566 151.136 54.5713C150.16 55.3865 148.744 56.4836 147.99 57.0096C146.343 58.157 145.919 59.1726 144.265 65.9183C141.611 76.7482 141.323 77.6522 140.36 78.1678C139.833 78.4497 137.055 78.6439 134.188 78.5987C131.321 78.5541 128.874 78.6185 128.75 78.7426C128.626 78.8661 128.759 79.7701 129.046 80.7504C129.333 81.7312 130.756 87.9 132.207 94.4593C135.044 107.274 135.154 109.271 133.197 112.481C132.619 113.43 132.145 114.617 132.144 115.12C132.143 115.623 134.111 119.97 136.52 124.779L140.898 133.524L148.815 136.191L156.732 138.858L159.013 137.521C160.71 136.527 161.207 135.962 160.952 135.319C160.763 134.844 159.54 131.321 158.234 127.49L155.859 120.523L157.242 119.442C158.003 118.847 161.4 117.238 164.79 115.867L170.955 113.375L172.027 109.896C172.617 107.983 173.371 105.366 173.704 104.081C174.035 102.796 174.615 101.149 174.991 100.422C175.366 99.6946 179.084 96.5663 183.251 93.4702C187.858 90.0486 190.925 87.4115 191.072 86.7448C191.206 86.142 191.38 80.7421 191.46 74.7451L191.605 63.8415L193.812 57.0916C195.026 53.3792 196.34 49.9243 196.732 49.4144C197.125 48.9045 202.862 46.0654 209.481 43.1054C216.101 40.1453 221.674 37.5668 221.866 37.3753C222.341 36.8996 222.434 18.648 221.965 17.8879C221.705 17.4684 220.404 17.3702 217.754 17.5712C215.645 17.7311 210.648 18.0032 206.65 18.1761L199.381 18.4902L196.265 16.2092C190.155 11.7351 178.224 3.87154 177.546 3.87154C177.166 3.87154 176.712 4.10416 176.536 4.38817ZM227.333 16.3328C225.648 17.012 225.133 18.2903 225.707 20.3682C225.979 21.3563 226.078 22.6637 225.925 23.2727C225.772 23.8823 225.614 27.7089 225.573 31.7765L225.499 39.1723L223.953 40.4734C223.102 41.1889 222.198 41.7746 221.943 41.7746C221.472 41.7746 203.956 49.4217 200.751 51.0261C199.792 51.5063 198.943 52.133 198.865 52.4186C198.788 52.7042 198.446 53.9893 198.107 55.2743C197.768 56.5594 197.029 59.074 196.465 60.8627C195.081 65.2501 194.457 71.1988 194.452 80.0333C194.449 84.0843 194.238 87.9395 193.98 88.6005C193.723 89.2614 190.304 92.3726 186.382 95.5139C182.461 98.6552 178.841 101.61 178.338 102.079C177.425 102.931 176.473 106.776 176.975 107.587C177.12 107.823 185.881 108.006 196.444 107.995C215.07 107.976 215.693 107.942 217.12 106.894C217.93 106.299 220.07 104.805 221.878 103.575C223.685 102.345 225.402 100.728 225.694 99.9839C226.033 99.1152 226.139 92.5284 225.989 81.6351C225.826 69.8379 225.93 64.3046 226.327 63.5424C227.024 62.2044 241.395 54.7525 243.255 54.765C244.004 54.7702 246.389 56.0947 248.901 57.9016C251.292 59.6223 253.342 60.9369 253.456 60.8227C253.714 60.5652 250.693 54.1019 243.705 39.9573C240.742 33.9603 236.947 26.2115 235.271 22.7374C231.882 15.7092 230.881 14.9019 227.333 16.3328ZM248.966 41.3774C248.966 41.5114 251.313 46.445 254.183 52.3413C258.982 62.2033 259.685 63.3508 262.963 66.6754C264.923 68.6624 267.181 70.4532 267.981 70.6536C269.226 70.9662 286.329 69.974 286.763 69.5643C287.032 69.3099 283.659 53.4747 283.24 53.0246C283.018 52.7868 275.625 50.1387 266.81 47.1408C248.308 40.8473 248.966 41.0596 248.966 41.3774ZM240.95 59.3767C240.791 59.6337 238.225 61.0278 235.249 62.4744C232.273 63.9209 229.656 65.3991 229.433 65.7595C229.21 66.1198 228.993 74.4974 228.949 84.3766L228.87 102.339L227.661 103.729C226.996 104.494 226.185 105.119 225.858 105.119C225.238 105.119 223.005 107.269 223.005 107.865C223.005 108.053 232.059 108.154 243.125 108.091L263.245 107.975L267.658 105.99C270.085 104.898 272.267 103.815 272.505 103.583C272.744 103.351 271.634 100.997 270.039 98.3509L267.139 93.5403V85.59V77.6397L264.929 74.9289C263.426 73.0857 259.663 70.0892 253.164 65.5637C244.315 59.4006 241.741 58.0968 240.95 59.3767ZM295.018 72.8162C292.973 75.0763 293.927 76.5935 300.499 81.5328C303.426 83.7323 305.937 85.6752 306.08 85.8502C306.223 86.0246 306.855 86.4551 307.484 86.8066C308.882 87.5864 309.611 86.7676 308.591 85.5625C308.21 85.1118 306.496 81.9093 304.782 78.4461L301.667 72.149L298.783 71.9963C296.494 71.8753 295.717 72.0446 295.018 72.8162ZM284.273 73.4465C283.273 73.6744 279.906 73.9906 276.79 74.149C273.674 74.3074 270.987 74.6579 270.819 74.9273C270.651 75.1973 270.63 79.2384 270.773 83.9083L271.033 92.3986L273.829 96.9417C275.367 99.4407 276.909 101.485 277.256 101.485C277.602 101.485 280.842 100.081 284.454 98.3665L291.023 95.248V84.6253C291.023 74.6547 290.961 73.9699 290.019 73.4652C288.873 72.852 286.908 72.8458 284.273 73.4465ZM99.9499 80.646C93.834 83.7738 91.6823 85.075 91.3921 85.8206C91.2446 86.2006 91.9186 89.8222 92.8906 93.8685C95.5573 104.973 95.4981 104.493 94.4441 106.45C93.9274 107.409 93.6117 108.282 93.7421 108.39C93.8724 108.498 96.9483 110.619 100.578 113.104L107.176 117.621L116.673 116.796C122.311 116.307 126.42 115.718 126.785 115.348C127.123 115.005 128.256 113.206 129.302 111.35L131.204 107.975L128.5 95.5139C127.012 88.6602 125.51 82.118 125.161 80.9757L124.527 78.8988L114.185 78.7763L103.844 78.6543L99.9499 80.646ZM294.387 82.8101C294.2 83.1123 294.205 85.9114 294.398 89.0309C294.845 96.2585 294.348 97.9745 291.368 99.502C290.179 100.112 287.103 101.493 284.533 102.571C281.962 103.649 279.636 104.883 279.362 105.314C278.63 106.467 280.501 108.382 281.994 108.007C282.621 107.85 284.559 107.87 286.3 108.052L289.465 108.383V115.514C289.465 124.064 289.445 124.097 284.604 123.579C281.043 123.197 280.387 123.592 281.193 125.629C281.419 126.2 281.624 127.602 281.648 128.744C281.673 129.886 281.864 131.082 282.074 131.402C282.284 131.721 285.693 132.706 289.65 133.59C293.607 134.475 297.14 135.443 297.5 135.743C297.861 136.042 299.141 138.993 300.345 142.3C302.749 148.905 302.82 150.811 300.657 150.811C299.549 150.811 299.166 150.187 297.292 145.334C296.128 142.322 295.177 139.673 295.177 139.447C295.177 138.88 292.764 137.83 291.46 137.83C290.87 137.83 287.965 137.203 285.005 136.435C282.043 135.668 279.443 135.219 279.224 135.437C279.006 135.655 278.826 154.215 278.824 176.682L278.821 217.531L326.07 217.665C352.057 217.738 373.589 217.696 373.918 217.571C374.783 217.24 370.963 206.913 369.654 206.043C369.091 205.67 365.363 204.635 361.369 203.745C357.376 202.855 353.784 201.814 353.388 201.431C352.325 200.406 351.587 194.949 350.26 178.329L349.825 172.878L344.957 164.83L340.089 156.782L339.925 147.725L339.76 138.668L333.842 132.306C328.837 126.925 327.477 125.078 325.026 120.334C323.432 117.249 320.85 112.622 319.288 110.052C317.725 107.482 314.993 102.715 313.216 99.4594L309.984 93.5403L302.992 88.2962C294.549 81.9643 294.808 82.1294 294.387 82.8101ZM319.601 99.5378C319.612 99.8951 320.955 102.757 322.586 105.898L325.551 111.61L333.08 111.88C340.515 112.146 340.701 112.182 348.137 114.812C352.278 116.276 356.35 117.837 357.186 118.28C359.225 119.36 359.541 119.028 358.956 116.424C357.933 111.869 358.772 112.328 339.766 105.921C330.165 102.683 321.827 99.7772 321.238 99.462C319.865 98.7268 319.575 98.7403 319.601 99.5378ZM88.4014 110.511C88.0062 110.906 86.7077 111.727 85.5161 112.336C84.0545 113.081 82.9963 114.132 82.2663 115.563C81.273 117.51 81.1858 118.537 81.2123 127.992C81.2304 134.339 81.0419 138.422 80.7221 138.62C80.4365 138.796 80.3249 139.138 80.4744 139.38C80.813 139.928 76.5886 143.605 76.0227 143.256C75.7958 143.115 75.4209 143.315 75.1888 143.699C74.9572 144.083 73.9499 144.964 72.9504 145.657C71.9509 146.35 71.0163 147.035 70.8735 147.179C70.7308 147.324 69.7375 148.095 68.6663 148.893C66.1855 150.743 65.5733 151.997 64.1097 158.228C62.5208 164.992 62.1735 165.349 57.1833 165.349C54.138 165.349 53.2201 165.517 53.2201 166.074C53.2201 166.473 54.2694 171.087 55.5519 176.328C56.8343 181.57 57.8858 186.463 57.8884 187.202C57.891 187.942 56.5083 190.852 54.8161 193.669C51.3488 199.441 51.315 198.553 55.2268 204.55C57.9605 208.742 58.1906 210.564 56.434 214.123C55.8089 215.391 55.2969 216.734 55.2969 217.109C55.2969 217.652 57.7243 217.79 67.2084 217.79C73.7599 217.79 79.2345 217.605 79.3747 217.378C79.5149 217.151 79.2185 216.041 78.7158 214.912C76.749 210.49 72.4286 197.113 72.7209 196.351C72.8912 195.907 75.3617 194.549 78.2106 193.332C81.0596 192.116 83.5108 190.926 83.6573 190.689C83.8042 190.452 84.3811 188.566 84.9397 186.5C86.392 181.128 86.7316 180.646 91.3479 177.392C93.6351 175.78 96.2727 173.789 97.2089 172.967L98.9114 171.472V163.282C98.9114 155.679 99.0215 154.735 100.448 150.102C101.293 147.357 102.236 144.64 102.544 144.065C103.173 142.89 106.365 141.196 114.748 137.59C117.889 136.239 120.74 134.864 121.085 134.535C121.786 133.865 122.138 121.732 121.487 120.679C121.223 120.252 120.195 120.16 118.185 120.382C116.58 120.56 113.047 120.845 110.334 121.016L105.402 121.326L100.469 117.836C97.7562 115.917 94.0931 113.322 92.3282 112.07C89.5961 110.13 89.0135 109.899 88.4014 110.511ZM236.479 111.029C236.327 111.181 223.731 111.338 208.489 111.378C193.247 111.417 180.464 111.569 180.083 111.715C179.276 112.025 179.105 117.636 179.86 119.046C180.296 119.861 184.135 119.933 232.805 120.046C284.142 120.166 285.291 120.147 285.815 119.169C286.571 117.755 286.49 112.627 285.701 111.999C285.026 111.462 236.993 110.515 236.479 111.029ZM173.679 115.353C171.93 117.118 163.367 121.215 161.428 121.215C160.787 121.215 160.644 121.562 160.841 122.643C161.31 125.215 164.927 134.953 165.758 135.883C166.475 136.685 167.675 136.792 175.992 136.792C182.627 136.792 185.598 136.608 186.037 136.169C186.448 135.758 186.66 133.552 186.66 129.688C186.66 123.86 186.653 123.83 185.35 123.502C184.63 123.322 182.742 123.316 181.155 123.488C176.538 123.992 176.139 123.553 176.354 118.228C176.463 115.538 176.329 113.724 176.016 113.647C175.73 113.577 174.679 114.345 173.679 115.353ZM327.665 116.167C328.934 120.268 331.684 124.066 339.498 132.512L343.464 136.8L343.467 144.714C343.469 149.067 343.727 153.555 344.042 154.688C344.356 155.821 345.657 158.346 346.932 160.3C348.208 162.254 350.207 165.624 351.375 167.789C353.384 171.514 353.52 172.05 353.91 177.753C354.894 192.135 355.628 197.716 356.637 198.482C356.96 198.727 359.56 199.448 362.416 200.085C365.271 200.721 368.886 201.635 370.447 202.117L373.287 202.992L374.75 206.887C375.553 209.028 376.808 212.358 377.537 214.285L378.862 217.79H418.97C441.029 217.79 459.21 217.657 459.372 217.495C459.683 217.184 454.156 209.603 452.795 208.473C452.174 207.958 451.286 207.94 448.704 208.389C446.89 208.705 444.193 208.963 442.711 208.963C440.404 208.963 439.949 208.796 439.542 207.795C439.28 207.153 438.438 202.538 437.67 197.541C436.901 192.543 436.002 188.017 435.671 187.483C435.296 186.878 432.036 185.427 427.039 183.64L419.011 180.769L410.443 180.57C405.732 180.461 401.375 180.264 400.763 180.133C399.962 179.962 398.587 177.959 395.871 173.011C390.002 162.316 386.513 156.348 385.786 155.761C382.561 153.159 368.023 142.566 366.701 141.854C365.476 141.196 364.269 141.014 362.312 141.194C360.421 141.368 359.395 141.226 358.889 140.72C358.492 140.323 357.65 136.882 357.017 133.073C356.385 129.264 355.63 125.064 355.339 123.74L354.811 121.332L347.085 118.648C338.908 115.809 338.393 115.697 331.621 115.279C327.35 115.015 327.311 115.024 327.665 116.167ZM128.09 120.337C127.818 120.677 127.432 121.489 127.232 122.141C126.88 123.288 127.446 124.401 133.832 135.126C134.645 136.492 134.776 137.327 134.483 139.28C134.282 140.624 133.975 141.956 133.801 142.238C133.627 142.52 132.885 144.506 132.152 146.651C131.011 149.995 130.637 150.57 129.534 150.686C126.716 150.98 126.643 150.308 128.819 144.109L130.843 138.343L129.026 134.947C127.275 131.672 125.437 129.376 125.349 130.351C125.326 130.61 125.342 132.148 125.384 133.771C125.479 137.354 125.99 136.965 114.814 141.797C109.904 143.919 106.28 145.798 105.851 146.446C105.454 147.043 104.553 149.497 103.849 151.898C102.745 155.659 102.566 157.324 102.557 163.938C102.546 171.448 101.879 175.214 100.558 175.214C100.105 175.214 97.2182 177.303 91.5671 181.719C89.3635 183.441 89.1252 183.848 88.8006 186.444C88.2077 191.192 86.8733 193.532 84.0025 194.862C82.636 195.496 81.0072 196.108 80.3831 196.222C78.5087 196.565 77.1042 197.523 77.1042 198.458C77.1042 198.941 77.5772 200.511 78.1556 201.944C78.734 203.377 80.1946 207.471 81.4012 211.04L83.5955 217.531L98.2141 217.668L112.832 217.806L115.551 212.736C117.047 209.947 119.608 205.329 121.242 202.473C122.877 199.617 125.401 195.061 126.852 192.348C128.302 189.635 131.08 184.629 133.025 181.223L136.561 175.029L142.134 172.098C145.199 170.487 147.845 169.03 148.014 168.86C148.183 168.692 147.335 164.27 146.13 159.033C144.194 150.62 143.533 148.667 140.45 142.244C138.53 138.246 135.376 131.658 133.44 127.604C129.976 120.349 129.067 119.113 128.09 120.337ZM210.025 123.102C201.106 123.38 201.988 122.523 201.702 131.192C201.567 135.271 201.457 156.366 201.457 178.07V217.531L232.033 217.665C264.075 217.805 264.414 217.783 263.836 215.573C263.694 215.027 263.816 212.441 264.109 209.825C264.961 202.199 264.999 201.663 265.031 196.892C265.086 188.713 265.94 192.129 266.33 202.084C266.821 214.649 266.986 216.534 267.711 217.89C268.309 219.006 268.316 219.004 269.069 217.566C269.486 216.771 269.706 215.658 269.558 215.093C269.41 214.528 269.512 211.224 269.784 207.751C270.393 199.962 270.439 185.929 269.972 151.33C269.662 128.412 269.496 124.46 268.815 123.684C268.211 122.996 267.851 122.917 267.319 123.358C266.762 123.821 266.62 127.01 266.618 139.062C266.617 156.494 266.08 176.772 265.621 176.772C265.447 176.772 265.258 174.522 265.199 171.772C265.141 169.021 264.866 164.991 264.589 162.815C264.152 159.383 263.847 146.767 263.782 129.437C263.766 125.126 263.628 124.333 262.802 123.818C261.832 123.212 223.243 122.688 210.025 123.102ZM190.585 123.76C190.353 124.136 190.009 214.754 190.231 217.178C190.268 217.579 190.778 217.794 191.462 217.697L192.631 217.531L192.763 171.117C192.86 137.256 192.738 124.512 192.31 123.998C191.632 123.181 190.998 123.093 190.585 123.76ZM196.635 123.909C196.151 124.392 196.006 135.313 196.006 171.109C196.006 210.965 196.113 217.72 196.747 217.964C198.826 218.761 198.859 218.16 198.906 179.159C198.955 138.591 198.661 123.742 197.803 123.458C197.507 123.36 196.981 123.563 196.635 123.909ZM272.776 123.941C272.418 125.195 272.595 217.187 272.956 217.549C273.156 217.75 273.857 217.78 274.513 217.615L275.706 217.315L275.656 197.692C275.482 129.987 275.424 124.67 274.86 123.989C274.132 123.113 273.02 123.087 272.776 123.941ZM360.287 127.965C360.479 129.25 360.777 131.768 360.949 133.561C361.27 136.9 361.813 137.862 362.814 136.861C363.224 136.451 363.213 135.967 362.771 135.115C362.436 134.467 361.804 132.197 361.366 130.071C360.48 125.77 359.741 124.327 360.287 127.965ZM143.564 139.149C143.564 140.372 145.585 144.061 146.255 144.061C147.306 144.061 151.387 141.422 151.087 140.936C150.928 140.678 149.929 140.31 148.868 140.117C147.807 139.925 146.308 139.449 145.537 139.059C143.762 138.161 143.564 138.17 143.564 139.149ZM166.929 140.384C166.929 141.617 167.71 142.579 169.341 143.353C170.319 143.817 170.997 144.32 170.846 144.471C170.696 144.621 170.793 145.009 171.062 145.333C171.33 145.657 172.052 148.599 172.666 151.871C174.719 162.82 174.649 162.669 179.275 165.981C181.512 167.583 183.65 169.264 184.026 169.717C184.402 170.17 185.149 170.541 185.685 170.541C186.605 170.541 186.66 169.977 186.661 160.546C186.662 150.68 185.719 142.142 184.454 140.556C183.832 139.776 166.929 139.61 166.929 140.384ZM152.521 145.241C149.36 146.762 148.237 147.563 148.237 148.298C148.237 150.125 150.208 153.102 154.695 158.05L159.141 162.954V169.068V175.182L161.779 179.649C165.543 186.021 165.716 186.596 166.394 194.945C166.73 199.085 167.28 203.037 167.616 203.725C168.13 204.776 169.036 205.155 173.295 206.099C176.749 206.864 178.604 207.541 179.119 208.223C179.535 208.773 180.487 211.034 181.233 213.248C182.337 216.518 182.827 217.332 183.845 217.588C186.76 218.319 186.66 219.061 186.66 196.767V176.231L184.266 174.554C176.387 169.037 171.513 165.181 171.125 164.16C170.881 163.519 170.324 160.901 169.887 158.344C169.288 154.836 168.82 153.473 167.98 152.793C167.368 152.297 166.446 150.696 165.931 149.234C164.704 145.751 164.041 145.165 160.107 144.086L156.804 143.18L152.521 145.241ZM150.475 160.806C152.068 167.401 152.39 169.572 151.909 170.473C151.621 171.011 148.918 172.699 145.901 174.224C142.886 175.749 139.974 177.472 139.432 178.053C138.889 178.633 136.651 182.496 134.459 186.637C132.266 190.778 129.011 196.736 127.224 199.877C125.438 203.018 123.093 207.224 122.013 209.223C120.933 211.222 119.499 213.671 118.826 214.666C118.154 215.66 117.603 216.77 117.603 217.132C117.603 217.656 123.779 217.79 147.891 217.79C164.55 217.79 178.305 217.664 178.459 217.51C178.785 217.184 176.642 211.718 175.895 210.971C175.616 210.693 173.193 210.011 170.51 209.455C167.181 208.765 165.362 208.12 164.783 207.423C163.957 206.428 163.236 201.659 162.491 192.263C162.199 188.573 161.939 187.876 158.903 182.658L155.629 177.031L155.325 170.894C155.027 164.859 154.989 164.712 153.143 162.197C151.144 159.475 150.011 158.884 150.475 160.806ZM35.9877 165.859C33.3755 166.324 25.744 169.812 25.6365 170.59C25.6007 170.849 25.5368 171.353 25.4937 171.709C25.4511 172.067 25.9449 174.461 26.5919 177.031C27.2388 179.602 27.9112 182.771 28.0867 184.076C28.3764 186.228 28.2814 186.528 27.0534 187.333C26.3099 187.82 25.7014 188.087 25.7014 187.927C25.7014 187.766 25.4096 187.878 25.0524 188.176C24.6957 188.475 23.2403 189.477 21.8192 190.403C19.0569 192.205 19.3539 191.745 10.0755 208.58C7.75196 212.796 5.64444 216.373 5.39158 216.529C3.64077 217.612 6.80542 217.79 27.7149 217.79C45.33 217.79 50.6089 217.643 50.9921 217.141C51.2642 216.784 51.9994 215.05 52.6261 213.289L53.7647 210.084L52.4246 207.684C51.6873 206.363 50.2802 203.949 49.2979 202.32C48.315 200.691 47.5107 199.206 47.5102 199.02C47.5092 198.835 48.9105 196.239 50.624 193.253C52.3374 190.267 53.7393 187.321 53.7393 186.706C53.7393 186.092 53.0529 182.729 52.2143 179.233C51.3753 175.738 50.5279 171.655 50.3311 170.161C49.7626 165.844 49.4381 165.623 43.5273 165.517C40.7193 165.467 37.3267 165.621 35.9877 165.859ZM265.53 183.911C265.501 184.411 265.421 185.463 265.35 186.248C265.28 187.033 265.42 187.675 265.661 187.675C265.902 187.675 266.1 186.624 266.1 185.339C266.1 183.127 265.639 181.973 265.53 183.911ZM265.344 190.236C265.179 190.502 265.244 190.842 265.486 190.992C265.729 191.142 265.927 190.924 265.927 190.508C265.927 189.633 265.763 189.557 265.344 190.236ZM215.476 220.733C211.168 220.924 208.986 221.622 208.986 222.811C208.986 223.191 209.161 223.512 209.375 223.524C228.017 224.628 255.429 224.298 257.053 222.95C257.773 222.353 257.592 222.178 255.628 221.566C253.397 220.871 225.478 220.292 215.476 220.733ZM201.847 221.775C201.204 222.223 200.679 222.889 200.679 223.255C200.679 223.874 195.675 235.195 189.784 247.905C186.591 254.793 179.824 269.647 175.118 280.097C173.125 284.523 169.299 292.87 166.616 298.645C163.932 304.421 161.737 309.247 161.737 309.37C161.737 309.493 160.102 313.026 158.103 317.221C156.104 321.416 154.468 324.936 154.468 325.043C154.468 325.258 153.313 327.813 148.497 338.249C146.719 342.104 144.499 347.011 143.565 349.153C142.63 351.295 140.708 355.5 139.292 358.499C137.876 361.497 134.894 368.04 132.666 373.037C130.437 378.034 127.655 384.097 126.483 386.51C125.311 388.923 124.547 391.092 124.784 391.329C125.022 391.567 128.217 391.696 131.885 391.615L138.553 391.469L141.759 383.421C143.522 378.995 147.599 368.715 150.818 360.576C154.038 352.437 160.987 334.913 166.261 321.634C187.348 268.546 189.988 261.901 192.875 254.655C194.525 250.514 197.687 242.468 199.901 236.775C202.115 231.082 204.463 225.414 205.118 224.181C206.265 222.025 206.274 221.918 205.346 221.422C204.045 220.725 203.234 220.807 201.847 221.775ZM259.35 221.445C259.35 221.742 259.848 222.961 260.456 224.153C261.064 225.345 263.964 232.404 266.899 239.839C269.834 247.274 273.088 255.46 274.13 258.03C275.172 260.6 277.148 265.623 278.522 269.193C279.895 272.763 282.208 278.604 283.661 282.173C286.145 288.278 296.956 315.489 313.882 358.239C317.952 368.52 322.594 380.202 324.195 384.2L327.109 391.469L333.57 391.616C337.124 391.697 340.334 391.646 340.704 391.504C341.202 391.314 340.887 390.19 339.499 387.204C338.466 384.981 335.894 379.335 333.784 374.656C331.674 369.979 329.099 364.371 328.062 362.195C327.025 360.02 324.602 354.734 322.679 350.451C320.755 346.167 316.558 336.938 313.353 329.942C302.465 306.174 291.028 281.134 281.693 260.626C279.353 255.486 276.735 249.761 275.875 247.905C275.015 246.049 272.089 239.623 269.373 233.626C266.657 227.629 264.073 222.314 263.63 221.814C262.759 220.832 259.35 220.539 259.35 221.445ZM217.553 226.794C212.413 227.125 207.915 227.585 207.558 227.816C206.862 228.267 206.652 230.721 207.299 230.847C207.513 230.888 219.196 230.964 233.26 231.015L258.831 231.107V229.981C258.831 227.972 257.343 227.298 252.081 226.925C242.625 226.257 226.833 226.196 217.553 226.794ZM219.89 233.389C218.319 233.606 214.741 233.807 211.937 233.835C209.135 233.863 206.406 234.119 205.875 234.403C205.343 234.688 204.415 236.238 203.813 237.848C203.211 239.458 202.25 241.803 201.678 243.059C201.106 244.315 200.744 245.514 200.874 245.724C201.004 245.935 215.516 246.164 233.123 246.234C264.705 246.36 265.132 246.347 264.814 245.344C264.636 244.785 263.61 242.153 262.533 239.496C260.978 235.66 260.315 234.591 259.314 234.308C255.558 233.246 225.921 232.555 219.89 233.389ZM216.255 248.962C214.399 249.17 210.146 249.369 206.804 249.402C203.462 249.435 200.145 249.728 199.433 250.052C198.127 250.647 197.357 251.824 197.802 252.543C198.066 252.972 265.037 253.142 266.657 252.719C267.207 252.575 267.658 252.162 267.658 251.802C267.658 250.295 265.793 249.725 258.891 249.12C251.257 248.452 221.767 248.342 216.255 248.962ZM205.871 255.743C201.73 256.011 197.875 256.339 197.304 256.471C196.561 256.642 195.701 258.08 194.282 261.524C193.191 264.171 192.178 266.719 192.03 267.187C191.79 267.948 192.916 268.074 202.84 268.397C213.416 268.74 273.248 268.448 273.646 268.052C274.023 267.675 269.661 257.488 268.711 256.527C267.785 255.59 266.442 255.536 240.569 255.399C225.626 255.32 210.012 255.475 205.871 255.743ZM207.688 270.78C205.118 270.989 200.315 271.185 197.013 271.215C190.499 271.275 189.024 271.768 189.336 273.783C189.507 274.886 189.807 274.954 195.746 275.233C201.825 275.518 258.237 275.569 270.384 275.299C276.912 275.155 277.456 274.875 275.748 272.537C275.166 271.74 274.052 271.441 270.426 271.104C264.443 270.549 213.741 270.287 207.688 270.78ZM198.342 278.107C193.202 278.351 188.568 278.729 188.045 278.948C187.464 279.19 186.408 281.156 185.327 284.004C182.943 290.287 182.946 290.195 185.102 290.363C190.444 290.78 269.341 290.977 274.408 290.586C277.692 290.333 280.601 290.322 280.872 290.563C282.689 292.175 282.58 290.036 280.573 284.684C278.378 278.834 277.809 278.309 273.483 278.154C262.718 277.766 206.268 277.731 198.342 278.107ZM191.226 293.284C185.431 293.625 181.278 294.093 180.928 294.445C180.605 294.769 180.419 295.565 180.515 296.215C180.688 297.392 180.723 297.396 191.852 297.645C203.774 297.911 265.071 298.028 277.386 297.808C281.45 297.736 284.9 297.476 285.051 297.233C285.545 296.434 284.119 294.095 283.016 293.893C282.422 293.784 279.6 293.436 276.744 293.121C270.007 292.377 204.496 292.502 191.226 293.284ZM235.293 299.629C235.246 299.663 226.094 299.841 214.957 300.025C190.792 300.425 179.948 300.847 178.814 301.431C178.354 301.669 177.262 303.917 176.387 306.427C174.126 312.917 174.1 312.524 176.794 312.705C182.074 313.061 291.108 313.09 291.327 312.736C291.694 312.141 287.877 302.823 286.753 301.571C285.815 300.524 285.104 300.438 274.759 300.102C265.42 299.798 235.556 299.441 235.293 299.629ZM189.775 315.482C186.205 315.669 180.988 315.928 178.181 316.058C173.914 316.255 172.902 316.469 172.008 317.363C169.33 320.041 166.744 319.93 232.658 319.979C266.287 320.004 293.998 319.904 294.238 319.755C295.032 319.264 292.929 316.486 291.571 316.232C286.125 315.21 206.248 314.623 189.775 315.482ZM197.369 322.183C175.51 322.512 170.824 322.708 170.209 323.324C169.513 324.02 165.372 333.766 165.372 334.707C165.372 334.942 195.349 335.134 231.988 335.134C300.856 335.134 299.85 335.104 299.85 337.134C299.85 337.779 298.75 337.822 292.191 337.429C279.924 336.694 186.41 336.976 171.862 337.792C164.844 338.185 163.984 338.338 163.168 339.331C162.67 339.938 162.391 340.643 162.549 340.899C162.707 341.155 164.751 341.364 167.09 341.364C174.304 341.363 181.904 342.659 180.852 343.711C180.694 343.869 176.504 344.228 171.54 344.509C166.577 344.79 162.146 345.136 161.694 345.276C160.62 345.612 156.493 355.973 157.152 356.682C157.723 357.295 307.885 357.387 308.498 356.774C308.712 356.56 308.463 355.283 307.945 353.937C307.427 352.591 306.571 350.35 306.043 348.957C304.425 344.69 304.416 344.686 295.813 344.175C291.607 343.925 274.031 343.667 256.754 343.601C227.202 343.489 217.216 343.311 215.996 342.872C215.71 342.769 232.766 342.517 253.899 342.312C275.031 342.107 294.344 341.793 296.817 341.615C301.133 341.304 301.328 341.337 301.677 342.435C301.961 343.329 302.139 343.422 302.494 342.861C303.263 341.647 303.021 340.472 301.668 338.865C300.955 338.017 300.415 336.772 300.467 336.099C300.577 334.707 296.501 324.37 295.383 323.206C294.896 322.699 293.38 322.397 290.888 322.311C279.562 321.922 220.142 321.84 197.369 322.183ZM200.299 342.763C200.804 342.895 201.505 342.886 201.857 342.744C202.208 342.601 201.795 342.494 200.938 342.504C200.081 342.515 199.794 342.631 200.299 342.763ZM208.462 358.151C208.317 358.3 201.424 358.544 193.144 358.695C174.404 359.035 157.216 359.981 155.513 360.767C154.028 361.452 153.497 363.137 154.575 363.74C155.697 364.369 172.332 364.685 207.458 364.748C225.735 364.78 239.741 365.007 240.169 365.278C241.096 365.865 242.415 365.836 205.352 366.029C175.441 366.185 170.307 366.341 161.329 367.368C158.677 367.671 155.853 367.775 155.054 367.6C153.024 367.154 151.738 368.455 150.316 372.399C149.669 374.19 148.938 375.781 148.689 375.934C148.441 376.088 148.237 376.874 148.237 377.68V379.146L168.617 379.512C179.825 379.714 217.475 379.751 252.283 379.593C295.714 379.397 315.887 379.478 316.581 379.849C317.137 380.147 317.723 380.26 317.882 380.1C318.322 379.66 313.899 368.738 312.913 367.831C312.34 367.303 311.289 367.094 309.775 367.205C308.523 367.297 304.901 367.091 301.727 366.749C298.553 366.406 291.633 366.051 286.35 365.961C270.767 365.694 271.398 365.725 272.85 365.286C274.008 364.936 292.051 364.503 306.497 364.479C311.591 364.47 311.832 364.421 311.566 363.431C311.413 362.86 311.283 362.107 311.28 361.757C311.266 360.546 308.42 359.696 304.003 359.585C301.576 359.524 298.071 359.275 296.215 359.033C294.359 358.79 275.316 358.567 253.899 358.538C232.481 358.509 213.555 358.35 211.842 358.184C210.128 358.018 208.608 358.003 208.462 358.151ZM241.178 365.364C241.178 365.586 247.992 365.768 256.322 365.768C264.651 365.768 271.304 365.606 271.107 365.41C270.609 364.911 241.178 364.867 241.178 365.364ZM175.756 381.977C163.048 382.182 151.275 382.467 149.593 382.611C146.328 382.889 144.565 383.946 144.946 385.398C145.149 386.172 146.312 386.307 154.625 386.526C162.672 386.738 230.044 386.86 281.417 386.755C289.699 386.738 298.461 386.726 300.888 386.727C303.315 386.729 308.747 386.629 312.959 386.504C321.128 386.262 321.605 386.068 319.827 383.716C318.51 381.976 307.485 381.559 289.465 382.567C287.895 382.655 286.386 382.605 286.112 382.457C284.987 381.849 205.208 381.502 175.756 381.977Z" fill="#626364" fill-opacity="0.51"/>
</svg>
